<?xml version="1.0" encoding="UTF-8"?>
<svg version="1.1" viewBox="0 0 128 128" xml:space="preserve" xmlns="http://www.w3.org/2000/svg" xmlns:cc="http://creativecommons.org/ns#" xmlns:dc="http://purl.org/dc/elements/1.1/" xmlns:rdf="http://www.w3.org/1999/02/22-rdf-syntax-ns#"><metadata><rdf:RDF><cc:Work rdf:about=""><dc:format>image/svg+xml</dc:format><dc:type rdf:resource="http://purl.org/dc/dcmitype/StillImage"/><dc:title/></cc:Work></rdf:RDF></metadata><g transform="translate(-8.2085 -9.9068)"><g transform="matrix(2.9876 0 0 -2.9876 9.8779 497.8)"><g transform="translate(19.899 155.19)"><path d="m0 0c-0.228-0.242-0.459-0.569-0.457-1.163v-0.092l0.065-0.065c0.094-0.096 0.194-0.185 0.291-0.272 0.113-0.101 0.221-0.197 0.317-0.3l0.072-0.077 0.105 6e-3c0.192 0.011 0.465 0.065 0.666 0.109l0.629 0.037 0.034 0.013c0.271 0.106 0.686 0.439 0.424 1.488l-0.018 0.071-0.335 0.28h-0.081c-0.123 0-0.244-0.027-0.342-0.049-0.039-8e-3 -0.085-0.019-0.115-0.023-0.048 0.03-0.131 0.077-0.251 0.077-0.028 0-0.058-3e-3 -0.09-9e-3 -0.018-4e-3 -0.055-0.014-0.099-0.027-0.023-7e-3 -0.065-0.02-0.102-0.029l-0.09 0.089-0.099 7e-3h-0.457zm1.197-27.913c-0.052 0.016-0.107 0.031-0.184 0.04-0.027 0.046-0.055 0.098-0.085 0.15-0.1 0.182-0.214 0.387-0.36 0.52l-0.036 0.032-0.211 0.07-0.376 0.377-0.023 0.014c-0.225 0.14-0.448 0.264-0.664 0.384-0.23 0.127-0.467 0.259-0.702 0.407-0.07 0.044-0.144 0.111-0.223 0.183-0.101 0.091-0.206 0.186-0.325 0.254-0.072 0.041-0.139 0.072-0.204 0.102-0.075 0.034-0.14 0.064-0.199 0.104l-0.076 0.151-0.052 0.034c-0.048 0.03-0.112 0.07-0.187 0.115-0.792 0.485-1.218 0.802-1.265 0.942l-0.051 0.154-0.125 9e-3 -0.033 0.183h-0.148l-0.031 0.18h-0.181c-0.105 0.138-0.238 0.281-0.376 0.43-0.311 0.333-0.663 0.71-0.705 1.063l-0.029 0.249-0.244-0.056c-0.296-0.069-0.372-0.328-0.422-0.5-0.023-0.08-0.045-0.156-0.081-0.217-0.175-0.295-0.391-0.444-0.678-0.463-0.032 0.019-0.064 0.034-0.094 0.048-0.028 0.014-0.071 0.034-0.083 0.045-0.04 0.053-0.055 0.103-0.046 0.121l0.053 0.108-0.061 0.105c-0.07 0.119-0.19 0.385-0.23 0.524 0 9e-3 2e-3 0.033 3e-3 0.06 3e-3 0.096 6e-3 0.228-0.046 0.358-0.337 0.837-0.264 3.077 0.041 4.022l0.017 0.052-0.038 0.232 8e-3 0.052c0.074 0.419 0.144 0.818 0.318 1.093 0.145-0.063 0.232-0.172 0.343-0.312 0.061-0.076 0.124-0.156 0.203-0.235 0.07-0.069 0.15-0.111 0.215-0.144 0.032-0.017 0.062-0.032 0.085-0.047 8e-3 -0.015 0.021-0.044 0.03-0.064 0.035-0.08 0.078-0.181 0.176-0.243l0.055-0.036h0.154c0.083-0.049 0.205-0.146 0.275-0.202 0.041-0.032 0.083-0.088 0.127-0.146 0.066-0.088 0.14-0.187 0.247-0.26 0.516-0.355 1.07-0.681 1.605-0.996 0.214-0.126 0.427-0.252 0.638-0.379 0.165-0.1 0.541-0.355 0.477-0.571-0.085-0.283-1.169-0.431-1.632-0.494-0.171-0.023-0.332-0.045-0.461-0.069l-0.185-0.034v-0.486l0.144-0.055c0.064-0.024 0.117-0.064 0.186-0.114 0.042-0.03 0.087-0.062 0.138-0.095v-0.198l0.221-4e-3c0.203-4e-3 0.318-0.059 0.462-0.129 0.075-0.036 0.161-0.077 0.262-0.111l0.057-0.02 0.198 0.04c0.048-0.01 0.112-0.024 0.183-0.04 0.258-0.059 0.466-0.103 0.602-0.103 0.029 0 0.055 2e-3 0.076 5e-3l0.048 8e-3 0.058 0.038 0.195-0.065 0.081 0.037c0.521 0.24 0.55 0.256 0.561 0.264 0.08 0.047 0.115 0.121 0.132 0.173 8e-3 2e-3 0.016 3e-3 0.023 5e-3 0.055 0.012 0.131 0.028 0.207 0.075 0.235 0.143 0.347 0.363 0.447 0.557 0.035 0.07 0.069 0.136 0.107 0.198 7e-3 3e-3 0.014 6e-3 0.02 9e-3 0.061 0.027 0.139 0.061 0.186 0.14 0.07 0.116 0.046 0.236 0.03 0.315-6e-3 0.03-0.014 0.075-0.01 0.089 0.219 0.646 0.235 1.241 0.191 1.993l-6e-3 0.116-0.099 0.062c-0.083 0.051-0.131 0.126-0.199 0.229-0.031 0.047-0.063 0.097-0.099 0.146l-0.033 0.043-0.218 0.109c-0.071 0.092-0.136 0.184-0.205 0.282-0.084 0.118-0.171 0.241-0.269 0.364-0.062 0.077-0.141 0.137-0.211 0.189-0.057 0.042-0.115 0.085-0.139 0.12-0.023 0.036-0.052 0.082-0.086 0.134-0.261 0.412-0.5 0.76-0.768 0.823l-0.141 0.034-0.089-0.115c-0.016-0.021-0.026-0.034-0.104-0.034-0.037 0-0.077 3e-3 -0.119 7e-3 -0.059 0.053-0.125 0.096-0.186 0.134-0.065 0.042-0.133 0.085-0.156 0.123-0.04 0.067-0.078 0.142-0.118 0.219-0.155 0.303-0.348 0.681-0.737 0.783l-0.126 0.033-0.091-0.092c-0.237-0.237-0.7-0.402-1.128-0.402-0.222 0-0.423 0.041-0.597 0.123-0.053 0.025-0.108 0.094-0.161 0.162-0.08 0.1-0.169 0.213-0.313 0.249l-0.152 0.038-0.088-0.131c-0.156-0.23-0.848-0.665-1.217-0.799-2e-3 0-4e-3 0-6e-3 1e-3 -0.038 6e-3 -0.091 0.015-0.149 0.015-0.067 0-0.13-0.012-0.186-0.035-0.067-0.029-0.126-0.074-0.183-0.117-0.026-0.02-0.063-0.048-0.094-0.067-0.038 0.015-0.084 0.027-0.137 0.027-0.035 0-0.068-5e-3 -0.102-0.015-0.038-0.011-0.092-0.031-0.154-0.053-0.086-0.032-0.193-0.07-0.265-0.088-6e-3 -1e-3 -0.014-2e-3 -0.023-2e-3 -0.036 0-0.081 0.011-0.125 0.021-0.056 0.012-0.113 0.025-0.173 0.025-0.02 0-0.039-2e-3 -0.057-4e-3 -0.065-0.01-0.111-0.041-0.14-0.066-0.23 0.024-0.474 0.082-0.731 0.144l-0.126 0.03c0.117 0.179 0.187 0.382 0.255 0.579 0.062 0.178 0.121 0.346 0.207 0.479 0.061 0.091 0.129 0.175 0.202 0.263 0.124 0.15 0.252 0.305 0.354 0.52l0.152 0.321h-0.506l-0.061-0.048c-5e-3 -4e-3 -0.022-0.011-0.083-0.011-0.021 0-0.041 1e-3 -0.063 2e-3 -0.027 0-0.054 1e-3 -0.081 1e-3 -0.053 0-0.133-2e-3 -0.221-0.021-0.033-7e-3 -0.093-0.015-0.194-0.015-0.434 0-1.041 0.143-1.262 0.264l-0.062 0.188h-0.339c-0.232 0.087-0.437 0.227-0.488 0.31l0.05 0.151c0.287 0.111 0.572 0.34 0.848 0.562 0.245 0.196 0.497 0.399 0.715 0.488 0.043 0.016 0.219 0.046 0.348 0.068 0.52 0.089 0.71 0.132 0.799 0.269l0.126 0.19s-0.217 0.138-0.226 0.144c-2e-3 0.011-5e-3 0.029-8e-3 0.061l-0.017 0.205h-0.189c-0.031 0.05-0.063 0.098-0.094 0.146-0.127 0.194-0.239 0.364-0.314 0.609 0.377 0.227 0.845 0.345 1.363 0.345 0.488 0 1.005-0.109 1.457-0.307 0.115-0.05 0.217-0.066 0.3-0.079 0.084-0.013 0.13-0.021 0.174-0.049 0.016-0.011 0.057-0.05 0.084-0.075 0.055-0.054 0.111-0.108 0.175-0.145 0.074-0.043 0.147-0.059 0.2-0.071 0.021-4e-3 0.048-0.01 0.056-0.014 0.023-0.021 0.051-0.07 0.081-0.122 0.073-0.127 0.174-0.301 0.407-0.357l0.129-0.032 0.09 0.098c0.242 0.265 0.503 0.43 1.059 0.431l0.237 1e-3 -0.013 0.236c-0.071 1.293 0.611 2.559 1.586 2.947 0.131 0.052 0.357 0.124 0.483 0.156 0.04-0.017 0.092-0.033 0.154-0.033 0.032 0 0.064 5e-3 0.094 0.013 0.142 0.038 0.398 0.076 0.613 0.076 0.063 0 0.116-3e-3 0.16-0.01 0.032-4e-3 0.107-0.051 0.152-0.079 0.053-0.034 0.104-0.066 0.158-0.087 0.134-0.053 0.253-0.053 0.35-0.054 0.063 0 0.113-1e-3 0.148-0.016 0.108-0.046 0.219-0.13 0.336-0.219 0.143-0.108 0.29-0.22 0.463-0.287l0.307-0.121v0.314c0.076 0.185 0.085 0.504 0.075 1.026-2e-3 0.054-3e-3 0.103-3e-3 0.144l-1e-3 0.152-0.142 0.055c-0.065 0.026-0.141 0.042-0.215 0.058-0.06 0.013-0.159 0.034-0.194 0.053l-2e-3 5e-3c-0.043 0.173-0.149 0.261-0.356 0.293l-0.072 0.011-0.053-0.026c-5e-3 -1e-3 -0.013-1e-3 -0.024-1e-3 -0.164 0-0.522 0.097-0.785 0.187-0.162 0.055-0.304 0.064-0.43 0.071-0.101 7e-3 -0.196 0.013-0.305 0.041l-0.283 0.076c-0.485 0.13-0.987 0.265-1.498 0.36l-0.128 0.024-0.085-0.1c-0.081-0.096-0.331-0.193-0.651-0.193-0.162 0-0.31 0.026-0.418 0.074-0.059 0.026-0.097 0.071-0.16 0.148-0.103 0.128-0.243 0.301-0.553 0.334-0.09 0.038-0.181 0.043-0.247 0.043-0.052 0-0.106-3e-3 -0.161-7e-3 -0.045-3e-3 -0.092-7e-3 -0.136-7e-3 -0.034 0-0.061 2e-3 -0.082 7e-3l-1.025 0.165c-0.121 0.209-0.206 0.403-0.185 0.651 0.32 0.146 0.624 0.241 0.799 0.251 0.013-3e-3 0.029-7e-3 0.046-0.011 0.063-0.016 0.148-0.037 0.237-0.037 0.055 0 0.107 8e-3 0.154 0.024 0.141 0.049 0.412 0.1 0.623 0.1 0.027 0 0.052-1e-3 0.076-3e-3l0.204-0.018 0.037 0.202c0.043 0.241 0.434 0.694 0.663 0.716l0.054 5e-3 0.046 0.029c0.03 0.019 0.066 0.028 0.11 0.028 0.216 0 0.505-0.213 0.614-0.345l0.124-0.331 0.07-0.041c0.06-0.035 0.134-0.051 0.233-0.051 0.095 0 0.205 0.014 0.321 0.03 0.107 0.014 0.218 0.029 0.299 0.029 0.012 0 0.024-1e-3 0.035-2e-3 0.138-0.01 0.282-0.015 0.44-0.015 0.247 0 0.487 0.012 0.742 0.025 0.253 0.013 0.515 0.026 0.783 0.026l0.293-2e-3v0.407l-0.085 0.068c-0.54 0.431-0.531 1.067-0.478 1.408 0.11 0.7 0.573 1.353 1.102 1.553l0.195 0.074-0.059 0.2c-0.027 0.091 0.021 0.294 0.189 0.545 0.206 0.306 0.458 0.49 0.554 0.5l0.06 6e-3 0.049 0.035c0.087 0.064 0.187 0.095 0.305 0.095 0.557 0 1.295-0.693 1.394-1.181l0.033-0.163 0.166-0.016c0.23-0.023 0.554-0.267 0.824-0.621 0.33-0.432 0.507-0.919 0.452-1.242-0.057-0.334-0.194-0.716-0.305-0.948l-0.014-0.03c-0.149-0.308-0.216-0.448-0.092-0.581l0.031-0.032 0.041-0.019c0.061-0.028 0.135-0.04 0.249-0.04 0.076 0 0.169 6e-3 0.263 0.012 0.091 6e-3 0.183 0.012 0.265 0.012 0.031 0 0.06-1e-3 0.086-3e-3 0.197-0.019 0.42-0.029 0.647-0.029 0.352 0 0.681 0.024 0.926 0.067l0.166 0.03 0.019 0.167c6e-3 0.066 0.039 0.221 0.19 0.232l0.076 7e-3 0.056 0.051c0.015 0.012 0.088 0.044 0.254 0.044 0.297 0 0.643-0.102 0.743-0.19 0.017-0.015 0.028-0.032 0.049-0.063 0.044-0.066 0.112-0.167 0.268-0.229l0.14-0.056 0.1 0.103s0.01-1e-3 0.015-1e-3c0.029 0 0.066-5e-3 0.106-0.011 0.049-7e-3 0.098-0.015 0.152-0.015 0.059-1e-3 0.126-2e-3 0.198-2e-3 0.342 0 0.835 0.01 1.185 0.031l0.017-0.017c0.033-0.031 0.033-0.031 0.041-0.059l7e-3 -0.03 0.015-0.026c0.054-0.094 0.07-0.298 0.076-0.426-0.019-0.03-0.033-0.06-0.045-0.085l-1e-3 -3e-3 -0.265-0.059-0.021-0.01c-0.118-0.052-0.245-0.121-0.378-0.193-0.164-0.089-0.334-0.182-0.473-0.233-0.039-0.015-0.178-0.037-0.271-0.051-0.244-0.038-0.376-0.06-0.46-0.118-0.107-0.073-0.148-0.191-0.178-0.277-7e-3 -0.024-0.02-0.059-0.027-0.07-0.105-0.152-0.313-0.321-0.581-0.334l-0.058-3e-3 -0.05-0.032c-0.017-0.01-0.034-0.014-0.057-0.014-0.109 0-0.279 0.1-0.429 0.188-0.181 0.107-0.352 0.208-0.531 0.22l-0.09 7e-3 -0.07-0.059c-0.232-0.194-1.241-0.432-1.844-0.575-0.223-0.053-0.416-0.098-0.555-0.136-0.05-0.014-0.118-0.018-0.189-0.023-0.146-9e-3 -0.311-0.018-0.454-0.116-0.096-0.066-0.136-0.167-0.165-0.242-5e-3 -0.011-0.011-0.026-0.016-0.039-0.027 3e-3 -0.043 5e-3 -0.058 5e-3 -0.24 0-0.274-0.243-0.289-0.347l-0.013-0.092 0.047-0.062c0.046-0.127 0.091-0.709 0.073-0.858l-0.03-0.252h0.445l0.067 0.099c0.094 0.138 0.342 0.207 0.581 0.274 0.081 0.022 0.162 0.045 0.239 0.07 0.277 0.091 0.545 0.135 0.817 0.135 0.486 0 0.994-0.147 1.549-0.452 0.015-0.057 0.037-0.143 0.113-0.212l0.064-0.058h0.121c0.161-0.129 0.376-0.377 0.448-0.523 0.084-0.169 0.118-0.42 0.147-0.641 0.016-0.114 0.03-0.22 0.051-0.315 0.025-0.117-0.03-0.284-0.07-0.406-0.05-0.152-0.107-0.325 0.042-0.442 0.072-0.055 0.59-0.341 0.774-0.34h0.093l0.034 0.029c0.193 0.072 0.354 0.208 0.496 0.329 0.101 0.084 0.196 0.164 0.285 0.21 0.342 0.174 1.019 0.35 1.652 0.35 0.313 0 0.576-0.044 0.769-0.128-0.108-0.56-0.376-1.077-0.732-1.404l-0.11-0.102 0.06-0.167c0.013-0.04 0.027-0.066 0.053-0.098l0.026-0.032 0.044-0.032c0.197-0.118 0.415-0.129 0.608-0.139 0.143-7e-3 0.278-0.013 0.402-0.059 0.354-0.13 0.667-0.283 0.848-0.414l0.215-0.323 0.031-0.023c0.07-0.054 0.143-0.092 0.208-0.127 0.161-0.086 0.197-0.114 0.207-0.22l6e-3 -0.055c-0.114-0.057-0.221-0.127-0.319-0.193-0.042-0.028-0.082-0.055-0.121-0.078-0.06-0.038-0.122-0.053-0.201-0.073-0.083-0.02-0.177-0.044-0.285-0.097-0.091-0.046-0.143-0.104-0.178-0.142-0.022-0.025-0.03-0.034-0.045-0.042-0.194-0.105-0.513-0.162-0.921-0.162-0.105 0-0.204 4e-3 -0.291 9e-3l-0.286 0.015 0.052-0.281c0.054-0.289 0.248-0.549 0.453-0.824 0.165-0.222 0.335-0.451 0.416-0.681-0.146-0.01-0.291-0.023-0.431-0.036-0.256-0.024-0.499-0.046-0.743-0.046-0.346 0-0.634 0.047-0.908 0.148-0.291 0.107-0.661 0.251-0.935 0.414-0.044 0.026-0.088 0.064-0.135 0.105-0.105 0.09-0.236 0.202-0.436 0.245l-0.102 0.022-0.083-0.064c-0.062-0.041-0.364-0.1-0.767-0.1-0.292 0-0.466 0.032-0.511 0.054-0.012 6e-3 -0.032 0.022-0.054 0.04-0.058 0.049-0.137 0.115-0.269 0.153l-0.135 0.038-0.094-0.104c-0.013-0.016-0.031-0.025-0.065-0.044-0.084-0.044-0.225-0.119-0.275-0.346l-0.024-0.108 0.071-0.084c0.039-0.048 0.045-0.144 0.05-0.239-0.034-0.044-0.059-0.09-0.079-0.127-8e-3 -0.016-0.019-0.036-0.029-0.05l-0.525-0.175-0.031-0.024c-0.093-0.073-0.121-0.179-0.141-0.255-4e-3 -0.012-6e-3 -0.024-0.01-0.034-0.01-7e-3 -0.022-0.011-0.034-0.017-0.069-0.033-0.173-0.083-0.234-0.196l-0.027-0.051v-0.115c-0.038-0.03-0.099-0.073-0.139-0.101-0.106-0.074-0.197-0.138-0.251-0.214-0.213-0.297-0.956-1.298-1.594-1.705l-0.122-0.078 0.02-0.143c0.043-0.299 0.051-0.625 0.061-0.971 0.021-0.766 0.043-1.558 0.444-2.148 0.134-0.197 0.344-0.307 0.513-0.396 0.021-0.011 0.067-0.051 0.102-0.08 0.087-0.073 0.185-0.156 0.3-0.189 0.139-0.04 0.283-0.06 0.431-0.06 0.581 0 1.121 0.311 1.515 0.538 0.072 0.042 0.14 0.081 0.204 0.116 0.068 0.037 0.138 0.07 0.206 0.102 0.266 0.127 0.568 0.271 0.721 0.617l0.139 0.316h-0.547l-0.049-0.027c-4e-3 0-0.036-7e-3 -0.107-7e-3 -0.39 0-0.969 0.165-1.075 0.257l-0.01 0.017-0.023 0.023c-0.085 0.079-0.094 0.14-0.079 0.385 0.04 0.048 0.072 0.098 0.102 0.144 0.027 0.044 0.056 0.089 0.08 0.11 0.053 0.047 0.198 0.092 0.284 0.12 0.081 0.025 0.139 0.043 0.187 0.072l0.056 0.034 0.101 0.203c7e-3 1e-3 0.014 2e-3 0.02 4e-3 0.059 0.011 0.148 0.029 0.237 0.095 0.06 0.044 0.099 0.104 0.134 0.156 0.013 0.02 0.033 0.049 0.042 0.058h1e-3c4e-3 0 0.026 6e-3 0.046 0.011 0.063 0.018 0.15 0.041 0.228 0.115 0.056 0.052 0.083 0.115 0.101 0.159 0.048 7e-3 0.122 0.02 0.198 0.073 0.09 0.062 0.149 0.155 0.201 0.237 0.024 0.039 0.055 0.088 0.073 0.104 0.209 0.188 0.375 0.308 0.567 0.447 0.066 0.048 0.135 0.097 0.209 0.152 0.115 0.085 0.166 0.202 0.207 0.297 0.019 0.043 0.036 0.084 0.056 0.11 0.01 0.011 0.058 0.034 0.089 0.05 0.067 0.033 0.151 0.075 0.218 0.146 0.09 0.095 0.174 0.229 0.264 0.37 0.106 0.168 0.251 0.397 0.351 0.444l0.013 5e-3 0.011 8e-3c1e-3 0 0.019 5e-3 0.076 5e-3h0.052c0.263-0.628 0.685-1.914 0.621-2.149l-0.033-0.089 0.04-0.083c0.286-0.619 0.441-1.935 0.28-2.386-0.047-0.134-0.019-0.284 7e-3 -0.416 0.01-0.051 0.024-0.128 0.021-0.154-0.012-0.055-0.028-0.135-0.045-0.226-0.038-0.202-0.154-0.814-0.271-0.915-7e-3 -1e-3 -0.02-3e-3 -0.041-3e-3 -0.034 0-0.066 4e-3 -0.083 7e-3l-3e-3 2e-3 -0.023 8e-3c-0.126 0.044-0.702 0.459-0.789 0.568-0.024 0.033-0.049 0.068-0.075 0.105-0.155 0.216-0.346 0.485-0.623 0.613l-0.283 0.13-0.035-0.308c-0.012-0.11-0.094-0.211-0.18-0.318-0.053-0.065-0.108-0.133-0.151-0.208-0.449-0.779-0.923-1.341-1.489-1.769-0.059-0.044-0.095-0.103-0.107-0.177-0.05-0.015-0.112-0.04-0.167-0.094-0.067-0.066-0.085-0.146-0.096-0.197-0.056-0.042-0.122-0.079-0.191-0.118-0.089-0.05-0.182-0.102-0.272-0.173-0.056-0.045-0.093-0.102-0.126-0.152-2e-3 -4e-3 -6e-3 -0.01-0.01-0.015h-0.21l-0.065-0.196c-8e-3 -3e-3 -0.016-5e-3 -0.023-7e-3 -0.05-0.015-0.12-0.035-0.198-0.087l-0.042-0.028-0.091-0.152-0.182-0.061-0.035-0.031c-0.062-0.056-0.098-0.124-0.126-0.179-0.011-0.019-0.026-0.05-0.034-0.058-0.279-0.176-0.474-0.382-0.663-0.581-0.083-0.087-0.168-0.177-0.261-0.266-0.062-0.059-0.129-0.117-0.197-0.175-0.137-0.119-0.28-0.242-0.398-0.385-0.037-0.045-0.055-0.091-0.067-0.126-0.013-7e-3 -0.028-0.013-0.043-0.02-0.082-0.036-0.193-0.085-0.267-0.201-0.024-0.039-0.036-0.081-0.036-0.126l-0.052-0.026-0.026-0.027c-0.099-0.102-0.356-0.412-0.433-0.554-0.056-0.103-0.068-0.2-0.076-0.272-6e-3 -0.045-0.01-0.074-0.02-0.099-0.01-8e-3 -0.039-0.026-0.041-0.028" fill="#eccea0" fill-rule="evenodd"/></g><g transform="translate(21.611 153.45)"><path d="m0 0c-0.01-0.649 0.222-0.681 0.54-0.972 1.04-0.025 1.14 0.867 1.332 1.692 0.068 0.292 0.045 0.873-0.108 1.08-0.072 0.116-0.149-0.015-0.288 0.072-0.282 0.175-0.412 0.615-0.72 0.756-0.177-0.17-0.452-0.286-0.54-0.54-0.25-0.418 0.514-0.764 0.36-1.332-0.079-0.292-0.391-0.545-0.576-0.756" fill="#c6b6a1" fill-rule="evenodd"/></g><g transform="translate(20.279 152.88)"><path d="m0 0 0.036 0.36c-0.176 0.166-0.65 0.536-0.72 0.756-0.207 0.651 0.595 1.103 0.288 1.548-0.019 0.18-0.074 0.209-0.144 0.324-0.15 0.04-0.278 0.076-0.504 0.072-0.119-0.109-0.3-0.157-0.396-0.288-0.24-0.329-0.325-0.756-0.432-1.224-0.055-0.243 0.032-0.523 0.072-0.684 0.228-0.907 0.867-1.47 1.8-0.864" fill="#c6b6a1" fill-rule="evenodd"/></g><g transform="translate(20.063 149.06)"><path d="m0 0v-0.756c0.121-0.418 0.568-0.65 0.792-0.972 0.083-8e-3 0.102-7e-3 0.144-0.036 0.3 0.023 0.896 0.581 0.972 0.828 0.159 0.235-8e-3 1.084 0 1.404-0.348 0.352-0.454 0.522-1.188 0.504-0.127-0.092-0.367-0.059-0.504-0.144-0.253-0.105-0.216-0.472-0.216-0.828" fill="#c6b6a1" fill-rule="evenodd"/></g><g transform="translate(26.759 132.86)"><path d="m0 0c0.117 0.201 0.074 0.468 0.18 0.684 0.17 0.348 0.662 0.533 0.792 0.936 0.168 0.236-0.048 0.377-0.108 0.54-0.081 0.217 0.109 0.486-0.036 0.684l-0.036 0.108c-0.532-0.027-0.5-0.624-0.864-0.828-0.272-0.153-0.535-0.234-0.792-0.396-0.381-0.241-0.755-0.573-1.188-0.756l-1.476-0.36c-0.502 0.037-0.932 1.13-1.332 1.404v1.764c-0.044 0.158-0.172 0.273-0.252 0.396-0.108 0.011-0.216 0.024-0.324 0.035-0.087-0.075-0.223-0.119-0.288-0.215-0.084-0.125-0.048-0.282-0.18-0.36v-0.036c-0.144 0.073-0.126 0.198-0.216 0.324-0.084 0.06-0.168 0.119-0.252 0.18-0.805-0.041-0.345-0.832-0.504-1.512-0.18-0.772-0.409-1.364-1.08-1.656-0.812-0.353-2.168-0.422-3.168-0.108-0.3 0.094-0.623 0.76-0.828 0.684-0.252 0.069-0.385 0.853-0.504 1.116-0.048 0.107-0.153 0.162-0.215 0.252-0.267 2e-3 -0.291-0.049-0.433-0.144-0.092-0.517 0.17-1.125 0.324-1.548 0.264-0.725 0.493-1.28 0.901-1.836 0.15-0.206 0.387-0.375 0.539-0.576 0.154-0.205 0.334-0.465 0.54-0.612 0.179-0.128 0.343-0.016 0.54-0.108 0.111-0.052 0.111-0.224 0.18-0.324 0.066-0.094 0.206-0.136 0.288-0.216 0.587 0 0.708 0.343 0.936 0.684 0.038 0.056 0.053 0.186 0.108 0.216 0.142 0.076 0.312 1e-3 0.432 0.072 0.174 0.102 0.245 0.315 0.396 0.432 0.273 0.21 0.712 0.47 0.9 0.756 0.131 0.199 0.186 0.357 0.324 0.54 0.182 0.24 0.445 0.417 0.612 0.684 0.377-0.127 0.698-0.502 1.008-0.72 0.347-0.243 0.699-0.433 1.044-0.684l0.468-0.504c0.185-0.139 0.354-0.257 0.54-0.396l0.324-0.324c0.08-0.046 0.154-0.024 0.216-0.072 0.377 9e-3 0.334 0.177 0.54 0.288 0.17 0.091 0.352 0.053 0.504 0.144 0.562 0.337 1.108 0.8 1.44 1.368" fill="#c6b6a1" fill-rule="evenodd"/></g><g transform="translate(29.243 152.66)"><path d="m0 0-1.224 0.072c-0.055-0.038-0.148-0.038-0.252-0.036-0.041-0.043-0.091-0.077-0.144-0.108-0.051-0.282 0.035-0.618-0.108-0.792 0.029-0.182 0.101-0.205 0.18-0.324 0.637 0.019 1.185 0.316 1.656 0.54 0.089 0.359-0.019 0.33-0.108 0.648" fill="#8e4a06" fill-rule="evenodd"/></g><g transform="translate(26.039 151.47)"><path d="m0 0c0.097 0.152-0.013 0.782-0.108 0.9-0.138 0.19-0.879 0.253-1.224 0.144-0.052-0.016-0.139-0.129-0.18-0.144-0.144-0.053-1.183 0.108-1.512 0.108l-0.756-0.036c-0.041 0.016-0.128 0.127-0.18 0.144h-0.432c-0.185-0.112-1.315-0.107-1.656-0.108-0.785-2e-3 -1.731-0.127-2.484 0.036-0.47 0.102-0.964-0.082-1.367 0-0.622 0.126-0.649-0.475-0.648-1.008 0-0.152-0.024-0.373 0.035-0.468 0.094-0.26 0.23-0.134 0.469-0.252 0.071-0.072 0.144-0.144 0.215-0.216 0.225-0.1 0.483-7e-3 0.757-0.072 0.352-0.084 0.773-0.184 1.115-0.288 0.264-0.08 0.573-0.06 0.756-0.216 0.255 2e-3 0.321 0.057 0.469 0.144 0.029 0.139 0.056 0.475 0.143 0.576 0.067 0.181 0.199 0.169 0.36 0.252 0.68 0.353 1.919 0.293 2.52-0.144 0.111-0.081 0.188-0.42 0.252-0.54 0.095-0.02 0.178-0.093 0.288-0.072 0.107 0.021 0.202 0.142 0.288 0.18 0.227 0.1 0.445 0.092 0.684 0.18 0.071 0.026 0.216 0.139 0.288 0.144 0.114 8e-3 0.137-0.117 0.216-0.144 0.206-0.069 1.137 0.175 1.224 0.252 0.091 0.032 0.44 0.558 0.468 0.648" fill="#8e4a06" fill-rule="evenodd"/></g><g transform="translate(13.655 151.08)"><path d="m0 0c0.05 0.054 0.117 0.105 0.18 0.144 0.06 0.279 0.12 0.711 0 0.972-0.143 0.059-0.263 0.059-0.396 0.072-0.351-0.227-1.051-0.015-1.332-0.216-0.157-0.054-0.16-0.14-0.252-0.252 2e-3 -0.345 0.122-0.384 0.252-0.576 0.423-0.092 0.999-0.151 1.548-0.144" fill="#8e4a06" fill-rule="evenodd"/></g><g transform="translate(19.631 156.69)"><path d="m0 0c-0.023-0.094 0.029-0.214 0.036-0.252 0.115-0.582 0.01-0.911 0.504-1.116 0.156-0.065 0.29 0.056 0.432 0l0.144-0.144c0.183-0.068 0.587 3e-3 0.72 0.108 0.256 0.085 0.717 1.13 0.432 1.476-0.048 0.139-0.186 0.281-0.324 0.324h-0.288c-0.165 0.083-0.17 0.323-0.396 0.396-0.069 0.053-0.169 0.068-0.288 0.072-0.362-0.251-0.85-0.377-0.972-0.864" fill="#ffa500" fill-rule="evenodd"/></g><g transform="translate(21.215 152.48)"><path d="m0 0c0.165 0.036 0.28 0.135 0.396 0.216 0.033 0.375 0.057 0.481-0.108 0.756-0.244 0.099-0.539 0.081-0.756 0.144-0.042-0.029-0.06-0.029-0.144-0.036l-0.216-0.18c-0.034-0.128-0.134-0.36-0.036-0.504 0.056-0.164 0.617-0.45 0.864-0.396" fill="#ffa500" fill-rule="evenodd"/></g><g transform="translate(26.11 152.09)"><path d="m0 0c0.036-0.094-0.027-0.248-0.036-0.288-0.087-0.418 0.128-0.883 0.396-0.972 0.094-0.062 0.35-0.041 0.504-0.036 0.152 0.142 0.344 0.226 0.432 0.432 0.217 0.511-0.042 1.573-0.324 1.8-0.169 0.136-0.579 0.184-0.864 0.18-0.078-0.065-0.205-0.13-0.288-0.18-0.068-0.291-0.063-0.566 0.072-0.828l0.108-0.108" fill="#ffa500" fill-rule="evenodd"/></g><g transform="translate(15.311 150.72)"><path d="m0 0c0.088 0.373 0.285 1.492 0.144 1.872-0.061 0.164-0.225 0.333-0.324 0.468h-0.648c-0.547-0.575-0.641-1.673-0.216-2.376 0.257-0.068 0.5-0.149 0.828-0.144l0.216 0.18" fill="#ffa500" fill-rule="evenodd"/></g><g transform="translate(20.855 151.22)"><path d="m0 0c-0.242-0.18-0.915-0.247-1.224-0.36-0.127-0.147-0.365-0.525-0.144-0.792 0.058-0.168 0.167-0.188 0.288-0.288 0.195 0.017 0.245 0.1 0.36 0.144h0.324c0.233 0.059 0.549 0.133 0.828 0.18 0.581 0.098 0.473-0.39 1.08 0 0.047 0.218 0.05 0.5-0.072 0.648-0.134 0.396-0.876 0.488-1.44 0.468" fill="#ffa500" fill-rule="evenodd"/></g><g transform="translate(25.714 144.49)"><path d="m0 0 0.396-0.396c0.377 0.011 1.276 0.257 1.584 0.396 0.077 0.376-0.172 0.953-0.432 1.116-0.144 0.024-0.288 0.048-0.432 0.072-0.264 0.108-0.427 0.227-0.864 0.216-0.117-0.113-0.241-0.091-0.396-0.18l-0.18-0.216c4e-3 -0.374 0.13-0.369 0.252-0.576l0.072-0.432" fill="#ffa500" fill-rule="evenodd"/></g><g transform="translate(13.404 144.02)"><path d="m0 0c0.402-0.104 1.013-0.148 1.476-0.144 0.174 0.178 0.828 0.83 0.54 1.188-0.113 0.337-0.536 0.378-1.008 0.36-0.467-0.321-1.533-0.52-1.008-1.404" fill="#ffa500" fill-rule="evenodd"/></g><g transform="translate(27.119 142.47)"><path d="m0 0c-0.046 0-0.123-0.065-0.216-0.036-0.19 0.058-0.27 0.179-0.576 0.18-0.171-0.164-0.333-0.302-0.432-0.54-0.07-0.167-0.048-0.339-0.144-0.468 0.01-0.194 0.061-0.308 0.216-0.36 0.115-0.08 1.174 0.11 1.332 0.216 0.169 0.055 0.498 0.548 0.36 0.756-0.033 0.097-0.062 0.106-0.108 0.18z" fill="#ffa500" fill-rule="evenodd"/></g><g transform="translate(15.563 141.29)"><path d="m0 0c0.158 0.251-0.39 0.983-0.576 1.044-0.046 0.032-0.089 0.033-0.18 0.036-0.246-0.26-0.949-0.173-1.368-0.18-0.096-0.103-0.188-0.221-0.288-0.324 2e-3 -0.38 0.634-1.061 0.9-1.152 0.113-0.038 0.304 0.027 0.36 0.036l0.432-0.036c0.322 0.075 0.624 0.284 0.72 0.576" fill="#ffa500" fill-rule="evenodd"/></g><g transform="translate(23.843 131.42)"><path d="m0 0c-0.18 0.192-0.36 0.384-0.54 0.576-0.08 0.053-0.163 0.022-0.252 0.072-0.169 0.096-0.377 0.288-0.54 0.396-0.079 0.052-0.165 0.02-0.252 0.072-0.401 0.236-0.809 1.075-1.26 1.224-0.065 0.044-0.206 0.04-0.324 0.035-0.069-0.076-0.179-0.146-0.216-0.251v-0.252c-0.01-0.021-0.736-0.494-0.828-0.576-0.468-0.416-0.874-0.903-1.26-1.404-0.118-0.153-0.345-0.208-0.504-0.324-0.155-0.113-0.227-0.331-0.36-0.468-0.012-0.459 0.18-0.87 0.648-0.864 0.118 0.125 0.389 0.452 0.504 0.54 0.285 0.216 0.671 0.458 0.864 0.756 0.078 0.119 0.057 0.292 0.144 0.396l1.26 1.26c0.276-0.136 0.536-0.586 0.72-0.828 0.073-0.096 0.276-0.248 0.396-0.288h0.216l0.18-0.216c0.422-0.316 0.794-0.797 1.512-0.792 0.094 0.099 0.248 0.174 0.288 0.324 0.088 0.334-0.259 0.481-0.396 0.612" fill="#ffa500" fill-rule="evenodd"/></g><g transform="translate(29.17 145.46)"><path d="m0 0c-0.058-0.049-0.042-0.022-0.072-0.108-0.094 0.029-0.085 0.045-0.18 0.072v0.072h0.252zm2.16-3.024c0.202 0.088 0.39 0.264 0.576 0.36 0.189 0.098 0.418 0.122 0.576 0.216 1e-3 0.105 1e-3 0.197-0.036 0.252-0.073 0.204-0.298 0.218-0.468 0.324-0.477 0.298-1.134 0.528-1.692 0.72-0.206 0.071-0.601 0.148-0.756 0.036h-0.036c0.098 0.276 0.381 0.492 0.54 0.72 0.212 0.304 0.297 0.662 0.612 0.864-7e-3 0.153-0.029 0.192-0.072 0.288-0.144 0.03-0.346 0.039-0.54 0.036-0.224-0.145-0.855-0.097-1.152-0.18-0.314-0.088-0.463-0.297-0.684-0.396h-0.288l-0.216-0.18c-0.081-0.598 0.096-1.24 0.36-1.62 0.094-0.135 0.36-0.375 0.576-0.252h0.108c-0.061-0.129-0.229-0.328-0.144-0.468-0.089-0.15-0.318-0.125-0.468-0.216-0.201-0.14-0.647-1.096-0.648-1.44 0.541-0.513 1.31-1.089 2.268-0.864 0.233 0.055 0.363-0.299 0.612-0.144 0.083 0.027 0.081 0.038 0.144 0.072-0.012 0.573-0.518 1.357-0.828 1.656v0.036c0.63-4e-3 1.176-0.027 1.656 0.18" fill="#7b9933" fill-rule="evenodd"/></g><g transform="translate(12.179 142.94)"><path d="m0 0c-0.099 0.024-0.058-0.022-0.072 0.072h0.072zm0.972 1.583c0.092 0.046 0.078 0.038 0.108 0.145 0.145 0.26-0.408 0.605-0.576 0.72-0.924 0.632-1.496 0.573-2.988 0.54-0.114-0.112-0.245-0.217-0.36-0.324 0.017-0.341 0.537-0.845 0.756-1.008-0.103-0.067-0.285 5e-3 -0.432-0.036-0.133-0.038-0.34-0.138-0.468-0.216-0.343-0.21-0.711-0.445-1.044-0.684-0.285-0.206-0.434-0.461-0.864-0.54-0.023-0.062-7e-3 -0.035-0.036-0.072 0.017-0.335 0.226-0.264 0.432-0.396 0.333-0.213 1.58-0.558 2.124-0.54 0.096 0.107 0.27 0.222 0.324 0.36 0.278 4e-3 0.404 0.062 0.648 0.072-0.061-0.302-0.323-0.553-0.468-0.792-0.269-0.443-0.406-0.969-0.72-1.368 0.067-0.424 0.682-0.473 1.152-0.36 0.379 0.091 0.815 0.109 1.152 0.252 0.464 0.197 0.892 0.56 1.296 0.828-5e-3 0.605-0.17 1.523-0.324 2.016-0.133 0.425 0.141 0.905 0.144 1.368 0.084 8e-3 0.102 7e-3 0.144 0.035" fill="#7b9933" fill-rule="evenodd"/></g><g transform="translate(20.711 133.76)"><path d="m0 0c4e-3 -0.098 0.058-0.077 0.108-0.216 0.084 0.012 0.168 0.024 0.252 0.036l-0.036 0.036c-0.074 0.096-0.158 0.137-0.324 0.144" fill="#7b9933" fill-rule="evenodd"/></g><g transform="translate(21.287 133.44)"><path d="m0 0c-0.09-0.053-0.042 9e-3 -0.072-0.108 0.194-0.029 0.376-0.153 0.468-0.288h0.072c-0.12 0.182-0.314 0.251-0.468 0.396" fill="#7b9933" fill-rule="evenodd"/></g><g transform="translate(21.791 133.01)"><path d="m0 0c0.058-0.089 0.102-0.143 0.216-0.18l-0.036 0.036c-0.054 0.081-0.075 0.11-0.18 0.144" fill="#7b9933" fill-rule="evenodd"/></g><g transform="translate(22.115 132.72)"><path d="m0 0c0.222-0.335 0.637-0.511 0.864-0.828h0.072c-0.115 0.177-0.739 0.76-0.936 0.828" fill="#7b9933" fill-rule="evenodd"/></g><g transform="translate(20.747 132.58)"><path d="m0 0c-0.076-8e-3 -4e-3 -0.055 0.036-0.072 0.036 0.053-0.024 0.061-0.036 0.072" fill="#7b9933" fill-rule="evenodd"/></g><g transform="translate(18.767 130.27)"><path d="m0 0h-0.036v-0.036c0.255 0.09 0.457 0.444 0.612 0.648 0.306 0.404 1.168 0.968 1.332 1.44 0.037 0.062 0.038 0.081 0 0.144-0.499-0.825-1.412-1.36-1.908-2.196" fill="#7b9933" fill-rule="evenodd"/></g><g transform="translate(23.123 131.82)"><path d="m0 0c0.051-0.071 0.047-0.076 0.144-0.108l-0.036 0.036c-0.048 0.057-0.022 0.042-0.108 0.072" fill="#7b9933" fill-rule="evenodd"/></g><g transform="translate(23.411 131.57)"><path d="m0 0c0.063-0.072 0.181-0.083 0.252-0.144h0.072v0.036c-0.103 0.049-0.181 0.092-0.324 0.108" fill="#7b9933" fill-rule="evenodd"/></g><g transform="translate(24.023 131.14)"><path d="m0 0h0.036v0.072c-0.114 0.076-0.175 0.17-0.324 0.216l0.288-0.288" fill="#7b9933" fill-rule="evenodd"/></g><g transform="translate(17.939 129.84)"><path d="m0 0c0.039-0.027 0.033-0.022 0.108-0.036-0.039 0.027-0.033 0.022-0.108 0.036" fill="#7b9933" fill-rule="evenodd"/></g><g transform="translate(21.503 147.44)"><path d="m0 0c-0.197-0.132-0.438-0.099-0.576-0.288-0.242 0.083-0.412 0.277-0.612 0.396-0.108 0.036-0.216 0.072-0.324 0.108-0.249 0.168-0.419 0.483-0.684 0.648-0.311 0.195-0.614 0.184-1.044 0.288-0.241 0.058-0.709 0.145-1.044 0.072l-0.612-0.144c-0.241-0.105-0.408-0.32-0.576-0.504-0.122-0.135-0.365-0.174-0.468-0.324-0.243-0.356-0.344-0.868-0.468-1.332-0.134-0.504-0.019-1.209 0.36-1.332 0.21-0.122 0.318 0.095 0.504-0.072 0.184 9e-3 0.183 0.042 0.288 0.108v0.108c0.074 0.015 0.069 9e-3 0.108 0.036 0.084 0.027 0.081 0.038 0.144 0.072 0.027 0.111 0.058 0.162 0.072 0.288 0.47 0.017 1.614 0.128 1.98 0.288l0.144 0.144c0.266 0.113 0.637-0.088 0.828 0.072 0.12-0.04 0.244-0.132 0.324-0.216 0.126 9e-3 0.152 0.013 0.216 0.072 0.104 0.052 0.101 0.068 0.108 0.216 0.099-0.022 0.2-0.059 0.288 0 0.13 0.048 0.105 0.09 0.18 0.18 0.054 0.097 0.19-0.015 0.324 0.072 0.115 0.075 0.056 0.225 0.144 0.324 0 0 0.467 0.252 0.468 0.252 0.643 0.218 1.12-0.27 1.512-0.432 0.159-0.066 0.305-0.054 0.432-0.144 0.233-0.165 0.41-0.447 0.648-0.612 0.212-0.147 0.513-0.199 0.72-0.36 0.455 0.016 0.358 0.399 0.684 0.504 0.301 0.097 0.536-0.17 0.756-0.036 0.421 0.145 0.303 0.924 0.179 1.332-0.108 0.358-0.317 0.406-0.467 0.648l-0.072 0.324c-0.196 0.315-0.665 0.399-1.044 0.54-0.156 0.058-0.529 0.264-0.72 0.144-0.084-0.027-0.081-0.038-0.144-0.072l-0.036-0.18c-0.284 1e-3 -0.541 0.094-0.792 0-0.156-0.059-0.266-0.254-0.432-0.324-0.364-0.152-0.651-0.187-0.936-0.396-0.153-0.113-0.201-0.361-0.36-0.468" fill="#ed561c" fill-rule="evenodd"/></g><g transform="translate(27.479 142.4)"><path d="m0 0c0.293 0.099 0.556 0.737 0.54 1.187-0.29 0.311-0.492 0.551-1.116 0.541-0.115-0.091-0.265-0.093-0.396-0.18-0.188-0.125-0.399-0.712-0.216-0.972 0.045-0.295 0.877-0.831 1.188-0.576" fill="#ed561c" fill-rule="evenodd"/></g><g transform="translate(14.519 142.15)"><path d="m0 0c0.219 0.069 0.466 0.305 0.648 0.432 0.203 0.797-0.124 1.431-1.044 1.403-0.113-0.092-0.321-0.035-0.468-0.107-0.344-0.171-0.626-0.87-0.288-1.296 0.094-0.275 0.683-0.581 1.152-0.432" fill="#ed561c" fill-rule="evenodd"/></g><g transform="translate(24.059 139.95)"><path d="m0 0c-0.077 0.174-0.294 0.284-0.504 0.324-0.094-0.107-0.186-0.224-0.252-0.36-0.217-0.053-0.686-0.216-1.008-0.108-0.479 0.162-0.434 0.369-1.007 0.036-0.024-0.101-0.064-0.232 0-0.324-0.049-0.138-0.223-0.247-0.361-0.288-0.319-0.218-0.861 0.053-1.044 0.216-0.198-0.017-0.325-0.108-0.432-0.216h-0.504c-0.286 0.131-0.174 0.479-0.575 0.108 0.042-0.441 0.397-0.757 0.647-1.008 0.463-0.463 0.987-0.898 1.368-1.44 0.21-3e-3 0.443-0.092 0.576-0.072 0.551 0.085 1.108 0.935 1.404 1.332 0.181 0.243 0.423 0.297 0.684 0.468 0.072 0.084 0.144 0.168 0.216 0.252 0.195 0.145 1.008 0.719 0.792 1.08" fill="#ed561c" fill-rule="evenodd"/></g><g transform="translate(24.707 135.63)"><path d="m0 0c-0.03-0.06-0.017-0.111 0.036-0.18 0.251-0.3 1.299-0.036 1.548-0.288 0.63-3e-3 0.606 0.367 0.864 0.72 0.105 0.144 0.264 0.228 0.36 0.396 0.199-0.244 0.282-0.654 0.36-1.008 0.071-0.322-0.122-0.628 0.072-0.864 0.076-0.175 0.123-0.038 0.252-0.144 0.08-0.065 0.087-0.268 0.144-0.36 0.078-0.126 0.192-0.271 0.288-0.396 0.132-0.17 0.248-0.083 0.432-0.18 0.064-0.033 0.196-0.228 0.252-0.288 0.136 0.011 0.163 0.032 0.252 0.072 0.048 0.256-0.09 0.465-0.036 0.72 0.121 0.569 0.137 2.397-0.036 2.88-0.017 0.046-0.135 0.146-0.144 0.18-0.047 0.171 0.056 0.458 0 0.684-0.088 0.352-0.201 1.079-0.36 1.368l-0.288 0.288h-0.216c-0.374-0.658-0.892-1.013-1.368-1.548-0.338-0.38-0.62-0.71-1.044-1.008-0.249-0.175-1.312-0.795-1.368-1.044" fill="#ed561c" fill-rule="evenodd"/></g><g transform="translate(12.971 138.51)"><path d="m0 0c-0.104 0.11 0.019 0.151-0.18 0.252-0.039-0.027-0.033-0.023-0.108-0.036-0.126-0.298-0.168-0.404-0.252-0.792v-0.936c-0.272-0.758-0.247-2.273-0.036-3.095 0.062-0.243-0.105-0.602-0.036-0.901 0.057-0.245 0.154-0.487 0.252-0.683 0.099-0.023 0.17-0.062 0.216-0.037 0.158 0.032 0.121 0.082 0.216 0.145 0.279 0.183 0.407 0.245 0.504 0.611v0.252c0.039 0.136 0.185 0.256 0.144 0.469-0.057 0.293-0.157 0.672-0.216 0.971-0.036 0.186 0.255 1.179 0.324 1.332 0.105 1e-3 0.196 2e-3 0.252-0.036 0.293-0.158 0.304-1.002 0.828-1.116 0.131-0.056 0.699 0.063 0.936 0.108 0.357 0.069 0.79-0.121 1.08 0.072 0.157 0.06 0.182 0.217 0.288 0.324-8e-3 0.084-7e-3 0.102-0.036 0.144-0.083 0.223-0.149 0.084-0.36 0.181-0.183 0.082-0.334 0.326-0.504 0.431-0.128 0.079-0.282 0.063-0.396 0.144-0.793 0.562-1.493 1.294-2.268 1.872-0.128 0.096-0.267 0.254-0.396 0.324-0.052 0.029-0.252 0-0.252 0" fill="#ed561c" fill-rule="evenodd"/></g><g transform="translate(23.159 129.88)"><path d="m0 0c0.04 0.088 0.051 0.188 0.072 0.216v0.072c0.045-0.024 0.074-0.039 0.108-0.072 0.098 1e-3 0.165 1e-3 0.216 0.036 0.029 0.037 0.013 9e-3 0.036 0.072-0.087 0.082-0.159 0.216-0.252 0.288l-0.216 0.036-0.324 0.36h-0.18c-0.276 0.288-0.552 0.575-0.828 0.864-0.12 0.079-0.227-5e-3 -0.324 0.036-0.206 0.088-0.211 0.471-0.54 0.576-0.046 0.031-0.089 0.033-0.18 0.036-0.041-0.043-0.091-0.078-0.144-0.108-0.021-0.098-0.055-0.168 0-0.252-0.02-0.037-0.371-0.193-0.468-0.325-0.208-0.28-0.459-0.543-0.648-0.827-0.098-0.149-0.211-0.453-0.36-0.54-0.1-0.059-0.202-0.012-0.288-0.072-0.107-0.076-0.486-0.639-0.396-0.792 0.026-0.367 0.12-0.176 0.396-0.288 0.127-0.052 0.29-0.176 0.432-0.252 0.246-0.132 0.602-0.29 0.828-0.468 0.213-0.168 0.342-0.46 0.504-0.684l0.36-0.324c0.153 6e-3 0.192 0.029 0.288 0.072 0.068 0.171 0.044 0.211 0 0.396 0.654 0.616 1.08 1.508 1.908 1.944" fill="#ed561c" fill-rule="evenodd"/></g><g transform="translate(30.042 142.5)"><path d="m0 0h-0.151c-0.19 0.073-0.323 0.255-0.475 0.367-0.146 0.108-0.322 0.184-0.497 0.259 9e-3 0.045 5e-3 0.042 0.021 0.065 0.023 0.05 0.038 0.047 0.065 0.087 0.258 0.016 0.911-0.028 1.102-0.152 0.199-5e-3 0.199 0.028 0.281 0.13-0.046 0.25-0.75 0.417-1.08 0.411-7e-3 7e-3 -0.015 0.014-0.022 0.021-2e-3 0.062-9e-3 0.092-0.021 0.13 0.149 0.077 0.251 0.227 0.388 0.302 0.072 0.039 0.123 0.01 0.173 0.065 1.042-0.01 1.67-0.331 2.268-0.778 0.06-0.044 0.091-0.127 0.151-0.173-0.025-0.285-0.379-0.346-0.583-0.453-0.401-0.21-0.981-0.443-1.62-0.281m0.432-1.75c-0.023-0.086-0.041-0.107-0.13-0.129-0.094-0.045-0.693 4e-3 -0.864 0.022-0.544 0.056-1.052 0.318-1.425 0.561-0.114 0.074-0.299 0.126-0.346 0.259-0.048 0.141 0.072 0.268 0.108 0.346 0.299 0.069 0.332-0.145 0.54-0.281 0.197-0.128 0.442-0.217 0.756-0.216 0.051 0.051 0.101 0.101 0.152 0.151-0.05 0.252-0.301 0.22-0.497 0.325-0.34 0.18-0.5 0.409-0.735 0.691 0.03 0.238 0.153 0.34 0.281 0.475 0.247-0.012 0.399-0.16 0.562-0.26 0.126-0.077 0.267-0.11 0.389-0.194 0.316-0.218 0.604-0.762 0.82-1.102 0.063-0.099 0.43-0.569 0.389-0.648m-3.629 1.836c-0.182 0.069-0.306 0.223-0.453 0.325-0.057 0.445-0.029 0.828 0.259 1.036 0.083 0.06 0.196 0.071 0.281 0.13 0.595 0.01 1.095-0.117 0.95-0.691v-0.238c-0.017-0.057-0.07-0.18-0.108-0.237-0.156-0.241-0.514-0.48-0.929-0.325m0.454-0.885c-0.333-0.376-0.927-0.491-1.404-0.151 0.016 0.222 0.301 0.691 0.432 0.821 0.184-0.039 0.76-0.399 1.037-0.216 0.09-0.018 0.091-0.047 0.151-0.087-8e-3 -0.198-0.121-0.259-0.216-0.367m-2.333-0.346c-0.173 0.094-0.345 0.187-0.518 0.281-0.429 0.305-0.797 0.65-1.101 1.08-0.24 0.338-0.442 1.171-0.735 1.383 0.01 0.064 0.011 0.072 0.043 0.108 0.057 0.136 0.295 0.115 0.41 0.194 0.051 0.05 0.102 0.1 0.152 0.151-3e-3 0.109-0.024 0.138-0.043 0.216-0.33 0.065-0.556-0.187-0.864-0.129-0.119 0.022-0.32 0.038-0.454 0.086-0.246 0.088-0.401 0.238-0.712 0.216-0.186-0.196-0.63-0.619-0.886-0.713-0.152-0.056-0.261-0.06-0.411-0.108-0.2-0.065-0.578-0.142-0.734 0-0.059 0.029-0.061 0.07-0.108 0.108 0.042 0.248 0.443 0.462 0.583 0.648 0.322 0.426 0.675 0.867 1.102 1.188 0.093 0.101 0.187 0.202 0.281 0.302 0.124 0.09 0.304 0.189 0.453 0.238 0.077 0.025 0.177 5e-3 0.238 0.043 0.782-2e-3 1.001-0.164 1.468-0.454 0.12-0.074 0.25-0.094 0.368-0.172 0.26-0.174 0.521-0.388 0.777-0.562 0.216-0.146 0.467-0.206 0.691-0.345 0.342-0.213 0.611-0.565 0.778-0.951 0.071-0.165 0.221-0.454 0.173-0.691-0.014-0.066-0.055-0.206-0.065-0.281l0.065-0.432c-0.13-0.556-0.378-1.283-0.951-1.404m-0.108-0.691c-0.108-0.304-0.706-0.294-1.036-0.194-0.424 0.128-1.083 0.44-1.318 0.756-0.153 0.206-0.261 0.441-0.432 0.626-0.075-5e-3 -0.091-7e-3 -0.13-0.043-0.084-0.033-0.079-0.089-0.129-0.151 0.039-0.553 0.813-1.109 1.209-1.339-9e-3 -0.306-0.352-0.225-0.583-0.173h-0.172c-0.537 0.171-1.092 0.636-1.491 0.972-0.144-0.012-0.152-0.069-0.237-0.13 0.027-0.158 0.107-0.199 0.107-0.388-0.135 2e-3 -0.263 0.025-0.345 0.086-0.415 9e-3 -0.41 0.495-0.67 0.669-0.338 0.228-0.521-0.054-0.82-0.064-0.14 0.151-0.281 0.385-0.497 0.453-0.299 0.216-0.699-0.255-0.821-0.389-0.188 0.013-0.175 0.097-0.281 0.173-0.161 0.117-0.371 0.228-0.583 0.281-0.279 0.07-0.923-0.067-1.015 0-0.099 0.041-0.394 0.531-0.345 0.713 0.016 0.061 0.087 0.154 0.107 0.216 0.095 0.295-0.011 0.692-0.194 0.842 0.016 0.417 0.307 0.655 0.497 0.907 0.446 0.593 1.092 0.887 1.901 1.123 0.234 0.069 0.649 0.154 0.907 0.108 0.284-0.05 0.783 0.103 1.058-0.021 0.018-0.048 0.038-0.082 0.021-0.108-0.042-0.117-0.149-0.17-0.215-0.259-0.154-0.206-0.315-0.452-0.519-0.605-0.104-0.079-0.254-0.172-0.324-0.281-0.049-0.077-0.044-0.199-0.043-0.324 0.118-0.124 0.176-0.294 0.346-0.367 0.653-0.281 1.648 0.081 2.052 0.346 0.106 0.069 0.181 0.178 0.259 0.28 0.043 0.056 0.123 0.081 0.172 0.13 0.196-9e-3 0.325-0.103 0.476-0.151 0.12-0.039 0.21-7e-3 0.302-0.065 0.145-0.092 0.43-0.581 0.497-0.756 0.067-0.179 0.072-0.337 0.151-0.497 0.162-0.327 0.353-0.627 0.562-0.907 0.287-0.385 0.74-0.681 1.144-0.95 0.087-0.058 0.178-0.071 0.26-0.13 0.095-0.07 0.12-0.188 0.194-0.281-3e-3 -0.054-3e-3 -0.08-0.022-0.108m-3.844-0.41c0.172-1e-3 0.206-0.046 0.302-0.108-4e-3 -0.09-0.015-0.099-0.043-0.151-0.084 2e-3 -0.11 5e-3 -0.151 0.043-0.06 0.028-0.09 0.084-0.108 0.151-0.02 0.041-9e-3 0.016 0 0.065m-1.123-0.151c0.014 0.147 0.094 0.16 0.172 0.237 0.661 7e-3 0.516-0.335 0.8-0.648-0.011-0.108-0.045-0.125-0.087-0.194-0.403-0.102-0.673-4e-3 -0.82 0.324-0.032 0.068-0.103 0.212-0.065 0.281m-0.346-0.389c-0.029-0.11-0.134-0.159-0.194-0.238-0.087-7e-3 -0.173-0.014-0.26-0.021-0.106 0.102-0.252 0.166-0.302 0.324-0.067 0.21 0.145 0.938 0.216 1.058l0.238 0.238h0.173c0.063-0.096 0.198-0.26 0.28-0.346-5e-3 -0.234-0.127-0.273-0.173-0.454-0.046-0.184 0.061-0.411 0.022-0.561m3.931-0.41c-0.094-0.087-0.187-0.173-0.281-0.26-0.146-0.153-0.283-0.328-0.41-0.497-0.087-0.079-0.173-0.158-0.259-0.237-0.072-0.093-0.168-0.232-0.259-0.302-0.203-0.156-0.38-0.351-0.584-0.497-0.253-0.182-0.515-0.327-0.734-0.54-0.351 0.011-0.581 0.313-0.799 0.475-0.378 0.282-0.689 0.553-0.972 0.929-0.072 0.064-0.144 0.129-0.216 0.194-0.142 0.187-0.313 0.419-0.497 0.562 9e-3 0.099 0.033 0.126 0.065 0.194 0.29-0.01 0.389-0.184 0.713-0.194 0.226-7e-3 0.43 0.223 0.604 0.173 0.078-0.023 0.17-0.118 0.238-0.152 0.156-0.077 0.532-0.103 0.734-0.043 0.142 0.042 0.336 0.146 0.411 0.259 0.07 0.107 0.067 0.236 0.172 0.303 0.088 0.056 0.281 0.103 0.368 0.129 0.205 0.061 0.403-0.046 0.583-0.086 0.42-0.095 1.045 0.143 1.188 0.346 0.05 4e-3 0.061 4e-3 0.086 0.021 0.102-0.021 0.182-0.051 0.259-0.086 8e-3 -0.051 0.015-0.101 0.022-0.152-0.165-0.156-0.294-0.355-0.432-0.539m-1.188-5.422c0.318-0.421 1.452-0.881 2.225-0.561 1.227 0.506 2.162 1.224 2.829 2.289 0.072 0 0.129-6e-3 0.173-0.022 7e-3 -0.187 0.014-0.374 0.022-0.561-0.115-0.466-0.362-1.003-0.605-1.361-0.114-0.166-0.293-0.313-0.411-0.475-0.146-0.201-0.264-0.424-0.432-0.605-0.026-0.029-0.078-0.038-0.108-0.065-0.144-0.133-0.266-0.298-0.388-0.453-0.044-0.029-0.087-0.058-0.13-0.087-0.214-0.257-0.494-0.481-0.777-0.669-0.077-0.051-0.172-0.184-0.346-0.13-0.156 0.049-0.25 0.214-0.367 0.303-0.254 0.191-0.486 0.418-0.735 0.604-0.407 0.307-0.788 0.615-1.209 0.908-0.05 0.057-0.101 0.115-0.152 0.172-0.274 0.207-0.502 0.473-0.777 0.67-0.092 0.066-0.208 0.084-0.302 0.151-0.337-6e-3 -0.888-0.66-1.059-0.886-0.226-0.299-0.533-0.576-0.799-0.842l-0.259-0.237c-0.071-0.098-0.102-0.208-0.173-0.303-0.084-0.113-0.225-0.181-0.324-0.281-0.306-0.305-0.568-0.656-0.864-0.971-0.333 8e-3 -0.74 0.482-0.972 0.648-0.89 0.64-1.772 1.674-2.203 2.764-0.118 0.299-0.457 0.929-0.389 1.231 0.023 0.1-0.024 0.233 0.022 0.303v0.043c0.037 0.014 0.021 4e-3 0.043 0.021 0.233-0.011 0.206-0.185 0.303-0.324 0.069-0.099 0.192-0.183 0.259-0.28 0.147-0.217 0.227-0.472 0.432-0.626 0.304-0.231 0.603-0.538 0.972-0.692 0.359-0.15 0.958-0.278 1.425-0.281h0.583c0.717 0.189 1.335 0.589 1.707 1.123 0.245 0.353 0.379 0.852 0.497 1.318 0.053 0.212-1e-3 0.936 0.086 1.058 0.03 0.043 0.028 0.046 0.086 0.065l0.022 0.022c0.166-0.172 0.397-0.28 0.583-0.432 0.266 0.015 0.333 0.209 0.497 0.324 0.083 0.058 0.189 0.08 0.259 0.151 0.045-9e-3 0.042-5e-3 0.065-0.022 0.05-0.016 0.048-0.022 0.086-0.043 0.032-0.167-0.043-0.348 0-0.54 0.081-0.351 0.05-0.676 0.13-1.036v-0.238c0.104-0.441 0.243-0.837 0.475-1.145m3.542 1.469c-0.315 0.051-0.651 0.016-0.929 0.151-0.011 0.056-0.021 0.096-0.021 0.173 0.42 0.432 0.951 0.744 1.447 1.101 0.122 0.123 0.245 0.245 0.367 0.368 0.322 0.242 0.621 0.5 0.864 0.82 0.101 0.087 0.202 0.173 0.302 0.26 0.259 0.258 0.531 0.555 0.735 0.863 0.05-4e-3 0.061-4e-3 0.086-0.021 0.197-0.074 0.291-0.807 0.367-1.058 0.1-0.326 0.218-0.728 0.303-1.08v-0.324c0.018-0.069 0.068-0.208 0.087-0.281v-0.26c0.122-0.516 0.152-1.156 0.021-1.706-0.076-0.317 9e-3 -0.664-0.173-0.864-0.016-0.014-0.048-0.028-0.065-0.043-0.345 0.022-0.834 0.686-1.015 0.929-0.091 0.121-0.262 0.194-0.302 0.367 0.029 0.216 0.057 0.432 0.086 0.648-0.063 0.272-0.117 0.583-0.259 0.778-0.065 0.088-0.183 0.137-0.259 0.216-0.311-8e-3 -0.569-0.666-0.735-0.886-0.054-0.072-0.189-0.187-0.28-0.216-0.214-0.068-0.492 0.043-0.627 0.065m-1.857-4.579c-0.035-0.095-0.096-0.101-0.173-0.151-0.265-0.176-0.606 0.174-0.842 0.324-0.454 0.286-0.881 0.643-1.253 1.015-0.266 0.265-0.508 0.632-1.037 0.626-0.881-0.853-1.608-1.862-2.484-2.721-0.238 6e-3 -0.349 0.16-0.475 0.281 0.031 0.3 0.617 0.697 0.778 0.928 0.12 0.173 0.221 0.351 0.367 0.497 0.176 0.176 0.411 0.32 0.562 0.518 0.385 0.511 0.841 0.942 1.295 1.383 0.331-0.049 0.638-0.492 0.886-0.67 0.1-0.072 0.185-0.122 0.28-0.194 0.058-0.065 0.116-0.129 0.173-0.194 0.421-0.314 0.827-0.619 1.253-0.929 0.233-0.17 0.443-0.402 0.691-0.562 1e-3 -0.063 2e-3 -0.118-0.021-0.151m-1.231-1.08c-0.16-0.229-0.341-0.395-0.562-0.562-0.156-0.117-0.249-0.295-0.367-0.453-0.083-0.111-0.242-0.174-0.324-0.281-0.057-0.074-0.075-0.161-0.13-0.237-0.082-0.117-0.21-0.218-0.259-0.367-0.043-0.015-0.086-0.029-0.129-0.044-0.397 0.434-0.827 0.733-1.34 1.058-0.117 0.075-0.227 0.215-0.345 0.281-0.107 0.06-0.206 0.064-0.303 0.13-0.137 0.093-0.266 0.233-0.41 0.324v0.151c0.485 0.448 0.961 0.96 1.361 1.49 0.086 0.08 0.172 0.159 0.259 0.238 0.204 0.205 0.431 0.44 0.605 0.669h0.129c0.187-0.193 0.411-0.377 0.627-0.54 0.093-0.1 0.187-0.201 0.28-0.302 0.255-0.189 0.504-0.401 0.756-0.583 0.201-0.144 0.435-0.249 0.627-0.389-0.03-0.299-0.338-0.386-0.475-0.583m-9.072 3.996c-0.091-0.416-0.43-0.821-0.605-1.167-0.037-0.014-0.021-4e-3 -0.043-0.021-0.1 2e-3 -0.155 7e-3 -0.194 0.064-0.068 0.1-0.042 0.245-0.087 0.368-0.084 0.229-0.157 0.431-0.237 0.691-0.064 0.205-0.055 0.524-0.108 0.756v0.41c-0.178 0.753-0.018 1.883 0.151 2.57v0.411c0.036 0.146 0.049 0.417 0.13 0.54 8e-3 0.166 0.075 0.131 0.151 0.216 0.154-0.099 0.245-0.267 0.388-0.367 0.148-0.103 0.289-0.176 0.432-0.281l0.346-0.346c0.546-0.406 1.096-0.827 1.685-1.188 0.328-0.2 1.167-0.477 1.296-0.821 0.088-0.193-0.234-0.211-0.389-0.258-0.336-0.103-0.793-0.204-1.145-0.26-0.043 8e-3 -0.086 0.015-0.129 0.022-0.133-0.029-0.256-0.07-0.432-0.065-0.089 0.086-0.192 0.152-0.259 0.259-0.183 0.288-0.306 0.792-0.648 0.907-0.034 0.023-0.089 0.023-0.152 0.022-0.079-0.076-0.194-0.127-0.259-0.216-0.257-0.354-0.317-0.956-0.151-1.469 0.057-0.177 0.313-0.531 0.259-0.777m4.579 5.939c-0.426 0.018-0.595 0.416-0.497 0.886 7e-3 0.151 0.015 0.302 0.022 0.454 0.054 0.155 0.175 0.287 0.259 0.41h0.151c0.499-0.515 0.448-0.957 0.194-1.685-0.058-0.015-0.093-0.029-0.129-0.065m-0.886 0.648c-1e-3 -0.167-0.046-0.187-0.108-0.28-0.528-1e-3 -0.573 0.65-0.885 0.885-0.133 0.1-0.376 0.22-0.432 0.389-0.018 0.023-8e-3 5e-3 -0.021 0.043 0.054 0.042 0.053 0.081 0.129 0.108 0.018 0.015 0.068 0.029 0.086 0.043 0.542 2e-3 1.107-0.301 1.231-0.691 0.056-0.172-0.084-0.357 0-0.497m-3.39 0.648c-0.205 0.125-0.388 0.429-0.497 0.648-0.045 0.09-0.048 0.189-0.108 0.26 0.023 0.066 0.052 0.078 0.086 0.129 0.146-0.014 0.294-0.075 0.432-0.108 0.277-0.065 0.816 0.108 0.929 0.216h0.108c0.208-0.222 0.368-0.497 0.583-0.713-0.01-0.516-1.105-0.693-1.533-0.432m-0.692 2.376c0.145 0.461 0.36 0.382 0.692 0.605 1.17 0.024 1.307-1.343 0.388-1.641-0.669-0.218-1.292 0.359-1.08 1.036m-0.302 1.145c-0.316 0.016-0.674 0.376-0.907 0.518-0.123 0.075-0.297 0.087-0.411 0.173-0.148 0.012-0.327-0.034-0.237-0.173 0.06-0.161 0.335-0.235 0.475-0.323 0.258-0.163 0.557-0.327 0.799-0.519 0.065-0.052 0.086-0.162 0.151-0.216-0.015-0.138-0.091-0.15-0.151-0.237-1.187 0.084-2.063 0.596-2.7 1.23-0.095 0.096-0.572 0.603-0.518 0.713 0.058 0.302 0.431 0.146 0.626 0.303 0.408-2e-3 0.819 8e-3 1.145-0.065h0.194c0.274-0.083 0.58-0.245 0.821-0.367 0.122-0.062 0.239-0.059 0.346-0.13 0.138-0.092 0.245-0.236 0.367-0.345 0.036-0.022 0.072-0.044 0.108-0.065 0.033-0.046 0.031-0.11 0.065-0.151-9e-3 -0.187-0.092-0.24-0.173-0.346m-0.346-3.521c-0.549-0.364-1.042-0.566-1.792-0.756-0.249-0.063-1.065-0.044-1.145 0.087-0.075 0.122 0.279 0.634 0.346 0.734 0.5 0.759 0.821 1.34 1.684 1.75 0.108 0.051 0.302 0.06 0.411 0.086 0.157 0.038 0.397-0.051 0.518 0.022 0.11-0.018 0.123-0.061 0.194-0.108 0.023-0.095 0.046-0.168 0.044-0.302-0.455-0.433-1.069-0.702-1.534-1.124 0.012-0.109 0.042-0.106 0.086-0.173 0.461 0.046 0.794 0.391 1.102 0.605 0.097 0.067 0.201 0.091 0.281 0.173 0.079-0.015 0.092-0.036 0.151-0.065 0.051-0.126 0.07-0.31 0.151-0.41-0.01-0.291-0.314-0.398-0.497-0.519m-5.075 1.966c-1e-3 0.279 0.164 0.258 0.323 0.367 0.319 0.217 0.654 0.531 1.037 0.67 0.172 0.062 0.687 0.071 0.799 0.151h0.584c0.22-0.064 0.418-0.254 0.604-0.368 0.105-0.063 0.231-0.078 0.325-0.15h0.021v-0.044l-0.043 0.044h-0.022c4e-3 -0.108-7e-3 -0.095 0.065-0.087v-0.043c-0.735-2e-3 -1.213 0.023-1.685-0.281 5e-3 -0.05 4e-3 -0.061 0.022-0.086 0.024-0.05 0.02-0.04 0.065-0.065 0.033-0.016 0.246 3e-3 0.302 0.043 0.198 3e-3 0.98 0.042 1.058-0.043 0.022-0.027-4e-3 -0.026 0.022-0.065-0.038-0.105-0.387-0.371-0.497-0.41-0.093-7e-3 -0.187-0.015-0.281-0.022-1.066-0.292-1.953-0.06-2.699 0.389m6.523 2.16c0.115 0.05 0.23 0.101 0.345 0.151 0.313 1e-3 0.684-8e-3 0.864-0.151 0.056-0.038 0.066-0.08 0.108-0.13-0.024-0.238-0.24-0.37-0.346-0.54-0.061-0.1-0.076-0.242-0.194-0.28-0.235-0.078-0.812 0.414-1.188 0.129-0.103 0-0.137 0.012-0.194 0.043 0.015 0.369 0.362 0.627 0.605 0.778m1.101 1.339c0.241 0.979 0.692 1.718 1.577 2.052 0.166 0.062 0.634 0.057 0.756 0.129 0.174-1e-3 0.329-0.014 0.453-0.043h0.324c0.198-0.049 0.375-0.173 0.54-0.259 0.137-0.058 0.274-0.115 0.411-0.173 0.32-0.195 0.637-0.409 0.928-0.626 0.189-0.141 0.652-0.435 0.713-0.67-0.126-0.112-0.269-0.177-0.41-0.28-0.167-0.122-0.24-0.328-0.475-0.389-0.176-0.046-0.414 0.017-0.562 0.021-0.343 0.012-0.785 0.025-1.059-0.043-0.223-0.055-0.398 0.041-0.626-0.022-0.399-0.108-0.79-0.193-1.145-0.345-0.246-0.106-0.446-0.337-0.69-0.432-0.217-0.084-0.584 0.189-0.713 0.281-0.011 0.227-0.091 0.517-0.022 0.799m4.428 3.521c-0.139 0.579 0.291 0.897 0.713 1.036 0.152 0.051 0.405-0.013 0.54 0.065 0.756-4e-3 0.919-0.186 1.36-0.475 0.025-0.102 0.047-0.198 0.044-0.346-0.053-0.053-0.102-0.118-0.152-0.172-0.231-6e-3 -0.533 0.149-0.777 0.215-0.475 0.13-1.308-0.18-1.491-0.41-0.141 3e-3 -0.158 0.035-0.237 0.087m-0.346 0.734c-0.069-0.123-0.095-0.292-0.151-0.411-0.24-0.055-0.546 0.043-0.799 0.108-0.557 0.145-1.145 0.188-1.685 0.346-0.253 0.074-0.59 0.031-0.777 0.173-0.153 0.099-0.236 0.316-0.238 0.561 7e-3 0.073 0.014 0.144 0.022 0.217-0.02 0.141-0.06 0.451 0.021 0.561 0.024 0.067 0.053 0.078 0.087 0.13 0.044 8e-3 0.041 5e-3 0.065 0.021 0.234-0.01 0.65-0.012 0.885-0.064 0.626 0.014 1.253 0.028 1.879 0.043 0.542 0 1.207-0.077 1.706 0.021 0.142 0.028 0.365-0.027 0.54-0.021 0.381 0.012 0.78-0.022 1.21-0.022 0.691 0.014 1.382 0.029 2.074 0.043 0.338 1e-3 0.661-0.124 1.015-0.043 0.145 0.033 0.353 0.042 0.518 0.043 0.208-0.214 0.283-0.56 0.281-0.929-0.066-0.066-0.108-0.17-0.195-0.215-0.123-0.065-0.246-0.038-0.388-0.087-0.401-0.138-0.868-0.314-1.296-0.432-0.31-0.085-0.969-0.141-1.167-0.302-0.227 0.046-0.194 0.228-0.302 0.388-0.089 0.132-0.296 0.242-0.432 0.325-0.628 0.381-1.798 0.396-2.419-0.022-0.113-0.075-0.389-0.316-0.454-0.432m-0.777 3.758c0.155 0.653 0.42 0.966 0.864 1.318 0.16-0.075 0.434-0.35 0.475-0.54-0.321-0.367-0.49-1.014-0.152-1.533 0.115-0.176 0.361-0.267 0.432-0.476 0.045-0.069 7e-3 -0.167 0-0.259-0.065-0.063-0.096-0.14-0.194-0.173-0.228-0.144-0.612 0.087-0.713 0.173-0.232 0.197-0.511 0.383-0.626 0.691-0.014 0.108-0.029 0.216-0.043 0.324-0.029 0.114-0.078 0.329-0.043 0.475m1.274 1.966c0.071 0.231 0.326 0.55 0.518 0.669 0.09 0.056 0.24 0.047 0.325 0.108 0.476 3e-3 1.005-0.359 1.166-0.669 0.2-0.388-0.127-1.042-0.432-1.166-0.119-0.049-0.259-0.044-0.411-0.044-0.546-1e-3 -0.775 0.225-0.993 0.54-0.08 0.114-0.251 0.305-0.173 0.562m1.663-3.413c1e-3 -0.11-0.022-0.179-0.086-0.216-0.088-0.051-0.575-0.041-0.605-0.022-0.154-1e-3 -0.21 0.053-0.238 0.173-0.065 0.156 0.165 0.313 0.238 0.411 0.055 2e-3 0.08 2e-3 0.108 0.021 0.115-7e-3 0.23-0.014 0.346-0.021 0.05-0.044 0.101-0.087 0.151-0.13 0.043-0.064 0.043-0.154 0.086-0.216m0.195 0.692c-0.353-0.065-0.878 0.22-1.188-0.065-0.311 2e-3 -0.668 0.557-0.562 0.95 0.041 0.151 0.158 0.254 0.237 0.367 0.353 0.085 1.044-0.168 1.34 0.108h0.151c0.093-0.089 0.223-0.158 0.28-0.281 0.204-0.433-0.109-0.852-0.258-1.079m0.345 1.727c0.046 0.143 0.225 0.345 0.324 0.454h0.108c0.08-0.082 0.188-0.125 0.281-0.195 0.277-0.207 0.493-0.582 0.605-0.95 0.179-0.595-0.091-1.17-0.302-1.512-0.096-0.153-0.165-0.349-0.325-0.432-0.171-0.088-0.432-0.025-0.648-0.022-0.05 0.044-0.101 0.087-0.151 0.13-0.052 0.099-0.026 0.201-0.086 0.281 0.034 0.21 0.182 0.253 0.28 0.389 0.109 0.149 0.204 0.37 0.26 0.561 0.061 0.213-0.084 0.778-0.151 0.886-0.059 0.094-0.26 0.209-0.195 0.41m4.017-2.635c0.058 0.165 0.207 0.139 0.325 0.238 0.755 0.013 0.983-0.485 1.123-1.08 0.102-0.437-0.277-0.937-0.54-1.016-0.29-0.086-0.497 0.106-0.627 0.195-0.021 0.199 0.104 0.372 0.044 0.605-0.081 0.31-0.151 0.724-0.346 0.928 0 0.059 1e-3 0.1 0.021 0.13m-5.81-3.65c-0.027 0.126-0.045 0.268-0.043 0.432 0.142 0.136 0.257 0.21 0.476 0.281 0.077 0.025 0.176 6e-3 0.237 0.043 0.502 0 0.658-0.049 0.95-0.238 0.035-0.136 2e-3 -0.358 0.043-0.54 0.053-0.232 0.09-0.558 0.087-0.82-0.094-0.108-0.187-0.217-0.281-0.325-0.218-0.164-0.432-0.33-0.626-0.518-0.228 0.034-0.265 0.215-0.41 0.324-0.159 0.12-0.365 0.225-0.433 0.432v0.367c-0.026 0.13 0.041 0.375 0 0.562m2.83-0.692c0.138 0.072 0.405 0.153 0.54 0.195 0.118 0.037 0.251 7e-3 0.345 0.065 1.197 9e-3 2.16-0.485 2.441-1.383 0.067-0.214 0.25-0.772 0.087-1.015-0.016-0.141-0.086-0.134-0.152-0.216-0.301-5e-3 -0.625-0.03-0.821-0.151-0.129-0.08-0.211-0.23-0.367-0.281-0.166-0.11-0.539 0.168-0.669 0.26-0.587 0.411-1.175 0.903-1.923 1.144-0.212 0.069-0.508 0.092-0.777 0.065-0.094-0.01-0.224-0.081-0.324-0.021-0.022 7e-3 -0.043 0.014-0.065 0.021 0.012 0.171 0.323 0.323 0.432 0.432 0.362 0.361 0.773 0.638 1.253 0.885m4.298-3.196c0.108-0.143 0.15-0.323 0.259-0.475-1e-3 -0.167-0.045-0.168-0.108-0.259-0.29 6e-3 -0.579 0.035-0.842-0.044-0.12-0.035-0.178-0.137-0.302-0.172-0.037-0.019-0.067-0.011-0.109 0.021-0.176 0.12-0.225 0.405-0.345 0.583-0.105 0.156-0.277 0.32-0.411 0.454 3e-3 0.055 3e-3 0.08 0.022 0.108 0.081 0.206 0.358 0.131 0.54 0.238 0.486 1e-3 1.093-0.184 1.296-0.454m0.864 0.454c0.208 0.138 0.464 0.297 0.713 0.388 0.174 0.064 0.384 0.089 0.54 0.13 0.119 0.031 0.236-9e-3 0.324 0.043 0.13-0.013 0.428 4e-3 0.518-0.065 0.135-2e-3 0.189-0.042 0.216-0.151 0.066-0.098-0.264-0.565-0.324-0.648-0.351-0.485-0.761-0.976-1.296-1.274-0.11-0.061-0.34-0.294-0.475-0.238-0.176 0.016-0.393 0.307-0.389 0.519 0.122 0.118 0.21 0.286 0.346 0.389 0.18 0.135 0.375 0.235 0.561 0.367 0.077 0.054 0.136 0.141 0.216 0.194-6e-3 0.136-0.042 0.128-0.108 0.194-0.336-0.024-0.804-0.304-0.95-0.518-0.074 5e-3 -0.11 0.01-0.151 0.043-0.067 0.049-0.076 0.135-0.13 0.195 6e-3 0.272 0.223 0.321 0.389 0.432m-12.873 5.853c0.028-0.199-0.091-0.383 0.022-0.54-0.02-0.125-0.076-0.156-0.13-0.238-0.127-0.012-0.266-0.084-0.432-0.043-0.313 0.078-0.494 0.344-0.583 0.648-0.177 0.605 0.18 1.474 0.562 1.577 0.018 0.014 0.067 0.029 0.086 0.043 0.113-1e-3 0.217-0.014 0.281-0.065 0.131-0.045 0.174-0.168 0.259-0.259-3e-3 -0.218-0.068-0.286-0.108-0.432-0.06-0.216 0.02-0.529 0.043-0.691m-1.685-0.259c-0.286 2e-3 -1.224 0.086-1.382 0.194-0.115 0.037-0.128 0.113-0.195 0.195 0.012 0.128 0.057 0.157 0.109 0.237 0.216 0.05 0.484 0.101 0.691 0.151 0.213 0.053 0.485-0.054 0.648 0.043h0.065l0.129-0.129c6e-3 -0.36 0.078-0.477-0.065-0.691m14.126 1.145c0.018 0.111 0.056 0.106 0.108 0.172 0.445-4e-3 0.877-0.055 1.296-0.043 0.051-0.043 0.101-0.086 0.151-0.129-1e-3 -0.348-0.297-0.309-0.518-0.433-0.091-0.05-0.185-0.134-0.303-0.172-0.145-0.048-0.268-0.025-0.367-0.108-0.15 0-0.157 0.032-0.238 0.086-9e-3 0.153-0.145 0.593-0.129 0.627m3.413-10.303c0.612 0.221 1.225 0.525 1.706 0.886 0.023 0.363-0.225 0.455-0.454 0.626-0.129 0.136-0.259 0.273-0.389 0.41-0.433 0.3-1.056 0.5-1.706 0.562-0.021 0.041-0.03 0.059-0.065 0.086 0.018 0.207 0.408 0.641 0.519 0.821 0.115 0.186 0.121 0.489 0.238 0.669-3e-3 0.18-0.076 0.305-0.217 0.346-0.071 0.045-0.203-6e-3 -0.302 0.022-0.225 0.062-0.403 0.107-0.648 0.043-0.23-0.015-0.461-0.029-0.691-0.043-0.25-0.064-0.531-0.143-0.756-0.26-0.297-0.154-0.688-0.518-1.015-0.583-0.155 0.121-0.505 0.159-0.562 0.367-0.035 0.128 0.085 0.291 0.108 0.389 0.026 0.108-0.028 0.197-0.043 0.259v0.346c-0.05 0.172-0.101 0.345-0.151 0.518-0.12 0.278-0.313 0.498-0.54 0.67-0.129 0.097-0.231 0.253-0.367 0.345-0.588 0.399-1.479 0.639-2.333 0.389-0.306-0.089-0.84-0.174-0.994-0.389-0.083 0.014-0.111 0.036-0.172 0.065-0.035 0.164-0.055 0.736-0.108 0.821 0.017 0.176 0.433 0.508 0.583 0.562 0.131 0.047 0.228 0.023 0.367 0.065 0.557 0.167 1.167 0.298 1.706 0.475 0.29 0.095 0.649 0.131 0.886 0.28 0.317-0.031 0.6-0.5 1.08-0.388 0.24 0.055 0.498 0.154 0.626 0.323 0.109 0.145 0.202 0.348 0.367 0.433 0.181 0.043 0.36 0.086 0.54 0.129 0.289 0.098 0.635 0.276 0.908 0.411 0.179 0.088 0.36 0.087 0.432 0.28 0.154 0.239-0.096 0.676-0.195 0.821-0.414 0.093-1.023 0.023-1.447 0.065-0.123 0.012-0.36-0.064-0.518-0.022-0.134 0.036-0.188 0.128-0.281 0.194-0.231 0.165-0.665 0.346-1.08 0.238-0.187-0.048-0.379-0.142-0.475-0.28-0.065-0.093-0.107-0.217-0.216-0.26-0.258-0.101-1.279-0.071-1.599 0-0.191 0.043-0.324-0.079-0.453 0-0.054 0.027-0.049 0.049-0.086 0.087 0.021 0.122 0.089 0.15 0.129 0.237 0.084 0.183 0.139 0.411 0.194 0.605 0.243 0.85-0.143 1.451-0.475 1.922-0.024 0.034-0.012 0.083-0.043 0.108l-0.087 0.022c-0.117 0.083-0.225 0.221-0.345 0.302-0.132 0.09-0.31 0.14-0.41 0.259l-0.324 0.605c-0.083 0.114-0.229 0.177-0.346 0.26-0.303 0.213-0.49 0.393-1.036 0.388-0.108-0.07-0.317-0.024-0.433-0.086-0.109-0.059-0.24-0.18-0.345-0.26-0.181-0.136-0.385-0.429-0.475-0.647-0.064-0.154-0.034-0.339-0.13-0.454-0.071-0.085-0.234-0.128-0.324-0.194-0.214-0.159-0.506-0.544-0.648-0.778-0.043-0.122-0.086-0.244-0.129-0.367v-0.281c-0.138-0.599 0.034-1.292 0.41-1.576-3e-3 -0.121-0.023-0.128-0.065-0.195-0.857-0.022-1.714-0.043-2.57-0.065-0.285 0.298-0.652 0.933-1.339 0.67-0.099-0.038-0.217-0.13-0.303-0.195-0.23-0.172-0.262-0.567-0.561-0.669-0.109-0.072-0.276-7e-3 -0.432-0.043-0.088-0.021-0.215-0.066-0.302-0.087h-0.325c-0.279-0.063-0.655-0.073-0.863-0.216-0.081-0.054-0.106-0.169-0.173-0.237 3e-3 -0.157 0.05-0.256 0.086-0.367 0.067-0.211 0.103-0.383 0.281-0.476 0.084-0.043 0.155-0.013 0.259-0.043 0.222-0.063 0.535-0.076 0.777-0.13 0.257-0.056 0.507 0.028 0.735-0.043 0.237-0.073 0.332-0.294 0.518-0.41 0.156-0.097 0.429-0.111 0.627-0.151 0.401-0.082 0.538 0.343 0.929 0.237 0.857-0.232 1.856-0.413 2.742-0.626 0.195-0.022 0.389-0.043 0.584-0.065 0.124-0.051 0.194-0.218 0.302-0.28 0.163-0.095 0.297-0.052 0.367-0.238 0 0 5e-3 -0.802-0.021-0.843-0.026-0.074-0.05-0.088-0.13-0.107-0.097-0.031-0.317 0.176-0.41 0.237-0.271 0.178-0.724 0.297-1.059 0.389h-0.216c-0.475 0.104-0.94-0.03-1.296-0.151-0.762-0.26-1.367-0.773-1.641-1.512-0.062-0.167-0.112-0.344-0.151-0.497v-0.216c-0.067-0.25-0.156-0.47-0.151-0.821-0.044-0.041-0.096-0.102-0.13-0.151-0.463-0.014-0.819-0.21-1.058-0.453h-0.108c-0.57 0.618-1.256 0.905-2.203 1.144h-0.281c-0.539 0.118-1.499-0.01-1.836-0.238-0.073-0.049-0.113-0.151-0.173-0.215 9e-3 -0.453 0.409-1.001 0.691-1.188-0.044-0.324-0.601-0.23-0.864-0.346-0.425-0.187-0.766-0.461-1.123-0.713-0.17-0.119-0.353-0.2-0.519-0.324-0.102-0.076-0.133-0.204-0.215-0.302 1e-3 -0.327 0.252-0.393 0.475-0.497 0.458-0.214 0.893-0.403 1.447-0.54 0.162-0.04 0.678-0.085 0.799 0 0.154 3e-3 0.317 6e-3 0.411-0.043-0.017-0.269-0.21-0.352-0.325-0.519-0.173-0.252-0.604-1.01-0.604-1.382l0.194-0.194c0.465-0.013 1.099-0.234 1.62-0.087 0.889 0.252 1.83 0.562 2.397 1.145 0.226-0.02 0.231-0.167 0.368-0.259 0.114-0.077 0.447-0.18 0.583-0.216 0.345-0.092 1.014 0.104 1.188 0.216 0.136 0.088 0.173 0.19 0.41 0.194 0.109-0.115 0.273-0.194 0.367-0.323 0.197-0.271 0.296-0.62 0.584-0.8 0.123-0.077 0.411-0.142 0.539-0.021 0.283-5e-3 0.353-0.205 0.476-0.367 0.224-0.299 0.486-0.583 0.712-0.886 0.265-0.355 0.972-0.873 1.08-1.296 0.079-0.31-0.029-1.074-0.086-1.296v-0.238c-0.019-0.063-0.086-0.177-0.108-0.237-7e-3 -0.072-0.015-0.144-0.021-0.216-0.041-0.121-0.16-0.222-0.217-0.324-0.29-0.523-1.028-1.253-1.944-1.059h-0.323c-0.283 0.064-0.557 0.081-0.821 0.173-0.331 0.116-0.569 0.33-0.821 0.519 4e-3 0.091 0.017 0.115 0.043 0.173 0.664 0.125 1.97 0.166 2.139 0.734 0.058 0.197-0.072 0.335-0.152 0.454-0.241 0.362-0.684 0.548-1.101 0.734-0.319 0.142-0.562 0.4-0.843 0.583-0.245 0.16-0.502 0.263-0.734 0.432-0.115 0.115-0.23 0.23-0.346 0.345-0.137 0.104-0.29 0.176-0.432 0.281-0.098 0.074-0.161 0.207-0.259 0.281-0.196 0.149-0.367 0.324-0.54 0.497-0.057 0.064-0.115 0.129-0.172 0.194-0.047 0.032-0.092 0.03-0.13 0.065-0.1 3e-3 -0.167 2e-3 -0.216-0.043-0.271-0.097-0.333-0.856-0.41-1.188v-0.324c-0.307-1.273-0.323-3.085 0.021-4.385 0.09-0.339 0.106-0.671 0.238-0.971 0.114-0.261 0.509-0.431 0.82-0.238 0.282 0.174 0.581 0.618 0.67 0.972 0.037 0.014 0.021 4e-3 0.043 0.022 0.28-0.012 0.314-0.341 0.432-0.519 0.324-0.487 0.752-0.86 1.123-1.296 0.09-0.105 0.234-0.197 0.346-0.281 0.093-0.093 0.187-0.187 0.281-0.28 0.157-0.119 0.308-0.212 0.475-0.324 0.607-0.409 1.187-0.906 1.814-1.297 0.411-0.255 0.811-0.446 1.21-0.712 0.157-0.105 0.281-0.284 0.432-0.389 0.133-0.092 0.295-0.152 0.389-0.281 0.079-0.108 0.097-0.226 0.173-0.345 0.042-0.069 0.125-0.125 0.172-0.195 0.161-0.015 0.221-0.049 0.389-0.043 0.169 0.182 0.239 0.444 0.389 0.648 0.095 0.131 0.251 0.239 0.345 0.367 0.078 0.106 0.136 0.246 0.238 0.324 0.153 0.119 0.338 0.257 0.453 0.411 0.168 0.222 0.384 0.502 0.605 0.669 0.333 0.252 0.618 0.575 0.951 0.821 0.406 0.3 0.802 0.589 1.209 0.886 0.173 0.179 0.346 0.359 0.519 0.54 0.711 0.677 1.263 1.421 1.792 2.289 0.051 0.014 0.101 0.029 0.151 0.043 0.312-0.346 0.614-0.647 0.994-0.929 0.2-0.148 0.282-0.326 0.648-0.324 0.05 0.053 0.154 0.093 0.194 0.152 0.192 0.279 0.195 0.823 0.281 1.209v0.367c0.188 0.824-0.065 1.906-0.259 2.614-7e-3 0.108-0.014 0.216-0.022 0.324-0.063 0.219-0.134 0.532-0.215 0.734-0.058 0.142-0.027 0.275-0.087 0.432-0.084 0.219-0.186 0.516-0.281 0.735-0.057 0.13-0.191 0.389-0.41 0.259-0.224-0.025-0.263-0.202-0.368-0.346-0.146-0.202-0.341-0.407-0.518-0.583-0.378-0.379-0.735-0.776-1.166-1.102-0.079-0.086-0.159-0.172-0.238-0.259-0.404-0.303-0.815-0.591-1.209-0.907-0.243-0.194-0.959-0.465-0.778-1.036 0.117-0.369 0.583-0.445 0.972-0.541 0.195-0.047 0.436 0.046 0.583-0.043 0.058-0.021 0.119-0.094 0.087-0.129-0.072-0.208-0.366-0.28-0.54-0.389-0.4-0.251-1.244-0.813-2.009-0.648-0.592 0.127-1.018 0.583-1.188 1.209-0.081 0.299-0.024 0.665-0.108 0.972-0.076 0.282-0.086 0.643-0.086 0.929v0.453c0.074 0.226 0.661 0.64 0.842 0.843 0.311 0.348 0.623 0.683 0.907 1.058 0.079 0.072 0.158 0.144 0.238 0.216 0.149 0.2 0.271 0.398 0.432 0.584 0.04 0.046 0.114 0.055 0.173 0.086 0.291 0.15 0.467 0.181 0.561 0.54 0.019 0.071 6e-3 0.194-0.043 0.259 0 0.179 0.043 0.204 0.108 0.302 0.333 0.074 0.545-0.101 0.864-0.172l0.842 0.064c0.079 0.02 0.19 0.096 0.303 0.065 0.19-0.052 0.358-0.227 0.518-0.324 0.348-0.211 0.794-0.349 1.209-0.475 0.571-0.173 1.63-0.195 2.053 0.13-0.015 0.425-0.433 0.927-0.627 1.231-0.048 0.075-0.12 0.116-0.151 0.216-0.017 0.031 0.019 0.079 0.043 0.129 0.165 0.038 0.579 0.015 0.778 0.087" fill="#231f20" fill-rule="evenodd"/></g></g></g></svg>
