<?xml version="1.0" encoding="UTF-8"?>
<svg version="1.1" viewBox="0 0 128 128" xml:space="preserve" xmlns="http://www.w3.org/2000/svg" xmlns:cc="http://creativecommons.org/ns#" xmlns:dc="http://purl.org/dc/elements/1.1/" xmlns:rdf="http://www.w3.org/1999/02/22-rdf-syntax-ns#"><metadata><rdf:RDF><cc:Work rdf:about=""><dc:format>image/svg+xml</dc:format><dc:type rdf:resource="http://purl.org/dc/dcmitype/StillImage"/><dc:title/></cc:Work></rdf:RDF></metadata><g transform="translate(-8.2085 -9.9068)"><g transform="matrix(3.2186 0 0 -3.2186 -465.74 547.97)"><g transform="translate(167.82 159.25)"><path d="m0 0c-0.099-0.233-0.024-0.643 0.143-1.287 0.016-0.066 0.03-0.12 0.039-0.156l0.025-0.112 0.104-0.045c0.104-0.046 0.316-0.127 0.564-0.161l0.096-0.013 0.075 0.061c0.043 0.035 0.084 0.063 0.121 0.088 0.225 0.156 0.372 0.294 0.358 0.777v0.034l-0.301 0.905-4e-3 9e-3c-0.049 0.111-0.123 0.191-0.189 0.261-0.032 0.035-0.063 0.069-0.084 0.098l-0.066 0.1h-0.398l-0.066-0.071c-0.022-0.024-0.046-0.034-0.094-0.054-0.141-0.06-0.294-0.148-0.323-0.434m-2.296-1.719c0.059-0.038 0.123-0.058 0.192-0.058 0.046 0 0.093 9e-3 0.138 0.029 0.229 0.075 0.296 0.203 0.319 0.394 0.133 0.27 0.084 0.747-0.163 1.605l-0.055 0.198-0.4 0.099-0.089-0.096c-0.148-0.157-0.192-0.331-0.227-0.472-0.023-0.09-0.043-0.168-0.084-0.239-0.01-8e-3 -0.022-0.015-0.033-0.023-0.063-0.043-0.167-0.115-0.211-0.251-0.101-0.31-0.062-0.696 0.096-0.938 0.094-0.147 0.23-0.237 0.381-0.255l0.119-0.013zm6.141-2.868c-0.089-0.057-0.363-0.119-0.562-0.164-0.15-0.034-0.292-0.066-0.397-0.102-0.342-0.113-1.237-0.401-2.173-0.605l-0.177-0.039v-0.386l0.03-0.053c0.017-0.042 0.02-0.227 0.022-0.337 3e-3 -0.131 5e-3 -0.267 0.023-0.376s0.018-0.25 0.018-0.414c0-0.316 1e-3 -0.71 0.136-1.1l0.081-0.236 0.225 0.106c1.177 0.546 3.083 1.98 3.19 3.5l0.017 0.24h-0.378zm-9.351-12.448c-0.173-0.044-0.981-0.105-1.292-0.129-0.197-0.015-0.286-0.022-0.321-0.026l-0.193-0.028v-0.388l0.101-0.067c0.138-0.091 0.288-0.26 0.434-0.424 0.108-0.122 0.22-0.249 0.333-0.348 0.086-0.076 0.185-0.114 0.264-0.145 0.047-0.017 0.091-0.034 0.118-0.053 0.677-0.465 1.4-0.897 2.086-0.897 0.106 0 0.209 0.011 0.307 0.032l0.412 0.038 0.028 0.01c0.484 0.177 0.986 0.662 1.011 1.246l0.01 0.234h-0.371l-0.055-0.034c-1e-3 0-0.025-8e-3 -0.085-8e-3 -0.104 0-0.261 0.026-0.421 0.07l-0.029 8e-3h-0.35l-0.085 0.031c-0.296 0.111-0.702 0.263-0.884 0.37-0.075 0.043-0.155 0.108-0.24 0.176-0.174 0.14-0.372 0.3-0.619 0.354l-0.1 0.021zm6.254-9.359c-0.311 0.052-0.589 0.284-0.779 0.442-0.104 0.087-0.219 0.126-0.321 0.16-0.064 0.021-0.124 0.042-0.166 0.07-0.137 0.092-0.747 0.498-0.747 0.498-0.023 0.024-0.081 0.094-0.117 0.138-0.1 0.122-0.138 0.166-0.185 0.196-0.161 0.099-0.323 0.168-0.479 0.234-0.126 0.053-0.244 0.103-0.359 0.168-0.052 0.029-0.123 0.094-0.187 0.152-0.062 0.057-0.127 0.117-0.192 0.161-0.103 0.07-0.204 0.093-0.285 0.112-0.049 0.01-0.092 0.02-0.118 0.037-0.159 0.099-0.325 0.228-0.486 0.353-0.146 0.113-0.298 0.231-0.446 0.328-0.127 0.083-0.25 0.143-0.37 0.201-0.121 0.06-0.237 0.115-0.344 0.191-0.688 0.485-1.328 1.121-1.946 1.736l-0.114 0.112c-0.368 0.365-0.691 0.823-1.003 1.266-0.078 0.11-0.155 0.218-0.232 0.326-0.033 0.046-0.063 0.12-0.095 0.2-0.076 0.191-0.18 0.453-0.458 0.532l-0.265 0.076-0.021-0.275c-0.012-0.15-0.083-0.248-0.173-0.371-0.042-0.057-0.085-0.116-0.123-0.183-0.076-0.136-0.131-0.299-0.183-0.455-0.151-0.445-0.25-0.655-0.517-0.655h-0.055c-0.032 0.054-0.064 0.109-0.098 0.165-0.189 0.315-0.384 0.641-0.502 0.98-0.062 0.176-0.084 0.385-0.104 0.569-0.018 0.171-0.034 0.318-0.076 0.439-0.077 0.219-0.035 0.509 6e-3 0.79 0.032 0.226 0.063 0.439 0.041 0.638-0.029 0.253 0.103 0.712 0.166 0.933l7e-3 0.023c0.052 0.18 0.056 0.334 0.058 0.47 4e-3 0.124 6e-3 0.232 0.046 0.346 0.087 0.252 0.161 0.523 0.232 0.786 0.098 0.364 0.2 0.741 0.339 1.073 5e-3 5e-3 0.036 0.034 0.056 0.053 0.056 0.051 0.119 0.109 0.157 0.192 0.049 0.108 0.053 0.201 0.056 0.27 2e-3 0.046 3e-3 0.065 0.011 0.081 0.179 0.344 0.549 0.842 0.819 0.968 0.035-0.02 0.068-0.029 0.093-0.034 0.049-0.086 0.13-0.334 0.18-0.489 0.06-0.184 0.112-0.343 0.164-0.445 0.31-0.607 0.607-1.058 0.934-1.417 0.042-0.047 0.081-0.096 0.12-0.145 0.137-0.177 0.293-0.377 0.599-0.46l0.312-0.086-0.029 0.322c-0.014 0.169 0 0.277 0.06 0.445l0.014 0.037v0.306l0.109 0.109 0.018 0.042c0.032 0.079 0.012 0.146-4e-3 0.206-5e-3 0.018-0.015 0.051-0.019 0.074 8e-3 8e-3 0.021 0.024 0.03 0.036 0.037 0.044 0.078 0.094 0.103 0.158 0.038 0.102 0.042 0.186 0.046 0.247 2e-3 0.033 3e-3 0.051 6e-3 0.065l0.271 0.272 0.04 0.238c0.088 0.124 0.229 0.258 0.365 0.387 0.084 0.079 0.163 0.154 0.234 0.229l0.04 0.042 0.027 0.112 0.012 5e-3c0.064 0.025 0.153 0.061 0.219 0.14l0.031 0.039 0.034 0.135c0.034 0.028 0.084 0.058 0.133 0.087 0.088 0.053 0.187 0.113 0.265 0.201 0.019 0.023 0.034 0.046 0.044 0.068h0.081l0.061 0.048c0.049 0.039 0.075 0.087 0.092 0.132h0.091l0.058 0.04c0.071 0.05 0.103 0.122 0.126 0.176l0.274 0.091 0.022 0.015c0.081 0.05 0.166 0.108 0.254 0.169 0.276 0.189 0.589 0.404 0.916 0.446l0.194 0.026 2e-3 0.195c4e-3 0.412-0.013 0.881-0.027 1.225-3e-3 0.087-6e-3 0.166-8e-3 0.235l0.073 0.369-3e-3 0.035c-0.043 0.373-0.044 0.851-3e-3 1.044 4e-3 0.023 0.017 0.085 0.04 1.157l3e-3 0.123-0.103 0.069c-0.226 0.152-0.555 0.196-0.873 0.239-0.169 0.022-0.328 0.044-0.45 0.079-0.314 0.089-0.683 0.21-0.886 0.283l-0.037 0.013h-0.367c-0.051 0.015-0.103 0.033-0.156 0.052-0.163 0.056-0.346 0.119-0.549 0.128l-0.173 8e-3 -0.052-0.164c-0.053-0.165-0.167-0.321-0.288-0.488-0.191-0.261-0.408-0.558-0.442-0.966l-0.02-0.244h0.47l0.055 0.143c0.025 0.062 0.065 0.085 0.211 0.142 0.072 0.027 0.151 0.059 0.233 0.105l0.058 0.034 0.075 0.148c0.112 0.063 0.259 0.095 0.429 0.095 0.402 0 0.833-0.181 1.002-0.349 4e-3 -6e-3 0.017-0.043 0.026-0.067 0.021-0.061 0.048-0.137 0.103-0.204 0.062-0.077 0.135-0.149 0.206-0.22 0.104-0.104 0.21-0.211 0.274-0.32-8e-3 -0.017-0.016-0.036-0.021-0.058l-0.016-0.069 0.026-0.066c0.089-0.223 0.081-0.277 7e-3 -0.43-0.045-0.092-0.041-0.189-0.037-0.283 3e-3 -0.062 6e-3 -0.131-9e-3 -0.174-0.158-0.455-0.383-0.745-0.775-1.001l-0.033-0.022-0.218-0.291c-0.051-0.037-0.104-0.076-0.158-0.116-0.179-0.133-0.365-0.271-0.532-0.346-0.156-0.07-0.703-0.176-1.171-0.176-0.309 0-0.408 0.048-0.425 0.057-0.482 0.279-1.137 1.022-1.399 1.582v0.18l-0.045 0.099c-0.081 0.176-0.174 0.376-0.114 0.526l0.037 0.095-0.047 0.091c-0.029 0.084-0.079 0.58-0.051 0.716 0.013 0.065 0.027 0.133 0.04 0.203 0.066 0.341 0.141 0.728 0.272 1.053 0.058 0.145 0.125 0.272 0.189 0.394 0.088 0.167 0.178 0.341 0.248 0.557l0.092 0.281-0.296 0.013c-0.724 0.032-1.744 0.316-1.9 0.603-0.199 0.365-0.252 1.069-0.012 1.497 0.105 0.189 0.249 0.285 0.438 0.295l0.029 1e-3 0.016 5e-3h0.014c0.053 0 0.14-9e-3 0.232-0.018 0.117-0.013 0.25-0.027 0.362-0.027 0.024 0 0.048 1e-3 0.069 2e-3 0.058 4e-3 0.118 5e-3 0.18 5e-3 0.155 0 0.323-8e-3 0.5-0.018 0.192-0.01 0.39-0.021 0.59-0.021 0.209 0 0.388 0.012 0.55 0.037 7e-3 1e-3 0.015 1e-3 0.024 1e-3 0.067 0 0.177-0.018 0.283-0.036 0.139-0.023 0.282-0.047 0.411-0.047 0.13 0 0.231 0.026 0.307 0.079 0.115 0.069 0.152 0.15 0.172 0.194 2e-3 4e-3 4e-3 9e-3 7e-3 0.014 0.126 0.128 0.3 0.244 0.469 0.356 0.116 0.077 0.235 0.157 0.341 0.241 8e-3 6e-3 0.026 9e-3 0.063 0.014 0.085 0.012 0.258 0.036 0.356 0.237 0.104 0.175 0.129 0.326 0.15 0.459 0.016 0.096 0.03 0.179 0.073 0.274 0.045 0.101 0.129 0.209 0.211 0.314 0.059 0.077 0.121 0.156 0.171 0.236 0.037 0.06 0.061 0.117 0.081 0.161 0.037 0.086 0.037 0.086 0.09 0.096l0.186 0.032v0.211c0.037 0.026 0.071 0.051 0.104 0.075 0.117 0.087 0.182 0.133 0.282 0.148l0.176 0.028 0.013 0.177c0.089 1.115 1.002 1.614 1.867 1.614 0.812 0 1.713-0.44 1.9-1.422l0.026-0.141 0.14-0.035c0.525-0.132 1.285-0.913 1.627-1.674 0.201-0.447 0.237-0.838 0.1-1.1l-0.172-0.329h0.506c0.078-0.029 0.165-0.043 0.264-0.043 0.125 0 0.251 0.022 0.384 0.046 0.137 0.023 0.278 0.049 0.421 0.049 0.058 0 0.112-5e-3 0.165-0.013 0.046-8e-3 0.096-0.011 0.156-0.011 0.14 0 0.306 0.02 0.48 0.043 0.192 0.024 0.39 0.049 0.568 0.049 0.063 0 0.121-4e-3 0.171-0.01 0.208-0.027 0.681-0.057 1.084-0.057 0.268 0 0.482 0.013 0.638 0.037 0.053-0.04 0.108-0.068 0.156-0.093 0.046-0.024 0.089-0.046 0.108-0.067 0.21-0.231 0.335-0.986 0.174-1.384-0.039-0.097-0.061-0.186-0.079-0.265-0.046-0.187-0.05-0.196-0.157-0.207-0.277-6e-3 -0.635-0.131-1.013-0.264-0.357-0.125-0.725-0.254-1.008-0.277l-0.251-0.02 0.048-0.247c0.042-0.216 0.16-0.363 0.254-0.481 0.038-0.046 0.073-0.091 0.098-0.132 0.138-0.229 0.271-0.609 0.406-1.161 0.224-0.921-0.126-1.927-0.456-2.702l-0.03-0.07 0.01-0.042-0.049-0.025-0.034-0.066c-0.031-0.064-0.054-0.156-7e-3 -0.26-0.031-0.079-0.081-0.201-0.103-0.25-0.404-0.864-1.12-1.833-1.78-2.41-0.385-0.336-0.832-0.636-1.264-0.926-0.207-0.138-0.421-0.282-0.626-0.428-0.056-0.039-0.15-0.078-0.239-0.116-0.205-0.085-0.439-0.182-0.55-0.395-0.111-0.187-0.064-0.424-0.022-0.632 0.017-0.083 0.035-0.169 0.033-0.218-0.036-0.74 0.075-1.596 0.172-2.352 0.015-0.119 0.072-0.564 0.072-0.564l0.215 0.017c0.158 0.014 0.314 0.02 0.464 0.02 0.703 0 1.331-0.137 1.98-0.432 0.053-0.024 0.116-0.063 0.183-0.103 0.112-0.069 0.239-0.147 0.378-0.194l0.16-0.052 0.096 0.136c0.081 0.116 0.241 0.2 0.41 0.289 0.236 0.124 0.5 0.264 0.637 0.538l0.359 0.36-0.497 0.032c-0.268 0.016-0.546 0.113-0.815 0.207-0.11 0.038-0.217 0.076-0.321 0.107-0.073 0.022-0.146 0.033-0.224 0.033-0.071 0-0.133-9e-3 -0.187-0.017-0.035-5e-3 -0.068-0.011-0.101-0.011-0.014 0-0.025 1e-3 -0.036 4e-3l-0.101 0.101c0.141 0.587 0.557 0.945 0.996 1.323 0.131 0.112 0.266 0.229 0.392 0.35l0.046 0.045 0.038 0.15c0.012 9e-3 0.028 0.02 0.04 0.028 0.041 0.027 0.093 0.061 0.139 0.112 0.083 0.091 0.115 0.199 0.14 0.286 8e-3 0.024 0.016 0.052 0.024 0.074l0.096 0.032 0.043 0.059c0.089 0.123 0.148 0.246 0.204 0.365 0.042 0.086 0.082 0.167 0.129 0.243 0.045 0.014 0.11 0.038 0.161 0.098l0.033 0.04 0.073 0.292c0.029 0.029 0.091 0.086 0.127 0.119 0.093 0.086 0.124 0.115 0.147 0.155 0.084 0.139 0.138 0.32 0.191 0.494 0.063 0.211 0.14 0.468 0.252 0.535l0.032-0.011c0.015-4e-3 0.029-9e-3 0.041-0.014l0.014-9e-3 0.028-0.011c0.218-0.08 0.388-0.464 0.524-0.773 0.063-0.14 0.122-0.274 0.186-0.387 0.288-0.506 0.471-0.946 0.701-1.683 0.014-0.046 0.039-0.085 0.083-0.15 8e-3 -0.013 0.017-0.025 0.024-0.035 0.026-0.165 0.048-0.349 0.071-0.544 0.038-0.317 0.077-0.645 0.142-0.914 0.011-0.046-0.016-0.167-0.027-0.212-5e-3 -0.021-9e-3 -0.039-0.012-0.052l-5e-3 -0.031 0.036-0.393c-0.038-0.188-0.083-0.579-0.07-0.721 6e-3 -0.088-0.053-0.523-0.086-0.707-0.036-0.02-0.079-0.049-0.107-0.106-0.062-0.124-0.027-0.235 3e-3 -0.299-0.041-0.157-0.16-0.495-0.449-0.543-0.054 0.04-0.112 0.075-0.168 0.109-0.099 0.06-0.211 0.128-0.242 0.191l-7e-3 0.015-3e-3 4e-3c0 7e-3 -0.025 0.252-0.025 0.252h-0.197c-0.106 0.14-0.274 0.353-0.299 0.383l-0.17 0.214-0.176-0.208c-0.129-0.151-0.207-0.363-0.283-0.568-0.098-0.269-0.2-0.546-0.38-0.581l-0.218-0.042 0.038-0.218c0.034-0.196 0.131-0.37 0.217-0.523 0.047-0.085 0.092-0.166 0.118-0.236 0.044-0.121 0.053-0.292 0.061-0.458 5e-3 -0.097 0.01-0.19 0.022-0.279-0.022-0.025-0.044-0.059-0.055-0.105-0.023-0.096-8e-3 -0.224 0.012-0.322-0.032-0.039-0.062-0.077-0.078-0.125-0.052-0.151-0.056-0.285-0.06-0.404-4e-3 -0.104-6e-3 -0.186-0.04-0.258-0.257-0.554-0.867-0.955-1.353-1.145-0.049-0.019-0.169-0.024-0.267-0.028-0.094-3e-3 -0.191-7e-3 -0.282-0.022-0.059 0.024-0.121 0.056-0.186 0.091-0.113 0.059-0.229 0.121-0.36 0.149l-0.11 0.024-0.084-0.074c-0.04-0.033-0.11-0.059-0.184-0.086-0.103-0.038-0.218-0.08-0.317-0.164-0.651-0.544-1.41-1.221-1.692-1.747h-0.189v-0.224c-0.058-0.055-0.095-0.11-0.127-0.157-0.02-0.028-0.04-0.059-0.069-0.09-0.085-0.097-0.188-0.186-0.297-0.281-0.077-0.067-0.156-0.136-0.231-0.21" fill="#eccea0" fill-rule="evenodd"/></g><g transform="translate(169.63 157.64)"><path d="m0 0c0.506-3e-3 0.871 0.069 1.008 0.504 0.14 0.202-8e-3 0.577-0.071 0.792-0.194 0.647-0.618 1.694-1.369 1.728-0.222-0.217-0.343-0.473-0.54-0.72 0.018-0.444 0.269-0.366 0.396-0.648 0.149-0.328 0.304-0.705 0.396-1.044v-0.396c0.03-0.086 0.131-0.145 0.18-0.216" fill="#c6b6a1" fill-rule="evenodd"/></g><g transform="translate(163.79 157.67)"><path d="m0 0c0.119 0.012 0.239 0.024 0.359 0.036 0.176-0.064 0.057-0.184 0.468-0.18 0.151 0.147 0.434 0.289 0.504 0.504-0.012 0.288-0.023 0.576-0.035 0.864 0.066 0.241 0.288 0.375 0.468 0.504 0.023 0.332-0.08 0.601-0.325 0.756-0.059 0.012-0.12 0.024-0.179 0.036-0.112 0.078-0.054 0.193-0.216 0.251-0.051 0.035-0.118 0.037-0.217 0.037-0.425-0.331-0.675-0.504-0.863-1.08l-0.109-0.828c-0.071-0.209-0.183-0.321-0.179-0.648 0.053-0.05 0.104-0.117 0.143-0.18 0.068-0.016 0.137-0.06 0.181-0.072" fill="#c6b6a1" fill-rule="evenodd"/></g><g transform="translate(166.89 157.67)"><path d="m0 0 0.396-0.072c0.215 0.048 0.411 0.247 0.576 0.36 0.11 0.422 0.212 1.438-0.073 1.8-0.083 0.251-0.503 0.465-0.828 0.468-0.149-0.102-0.316 1e-3 -0.467-0.108-0.655-0.224-0.492-2.259 0.072-2.448 0.097-0.062 0.231-7e-3 0.324 0" fill="#c6b6a1" fill-rule="evenodd"/></g><g transform="translate(165.81 150)"><path d="m0 0c0.266-0.051 0.933-0.097 1.151 0.036 0.225 0.136 0.452 0.443 0.685 0.54h0.252c0.273 0.075 0.481 0.29 0.576 0.54 0.012 0.24 0.024 0.48 0.035 0.72-0.024 0.077-0.154 0.157-0.179 0.216v1.62c-0.031 0.128-0.09 0.355-0.18 0.432-0.061 0.051-0.166 0.049-0.216 0.108-0.333 0.393-0.458 0.861-1.188 0.864-0.264-0.206-0.745-0.305-0.9-0.612-0.181-0.356 0.026-0.917-0.072-1.368-0.161-0.736-0.523-1.75 0-2.34-0.06-0.436-0.241-0.347 0.036-0.756" fill="#c6b6a1" fill-rule="evenodd"/></g><g transform="translate(169.73 137.12)"><path d="m0 0c0.18-0.25 0.671-0.837 0.936-0.972 0.241-0.123 0.39 0.049 0.612 0 0.103-0.023 0.27-0.074 0.468-0.072 0.291 0.275 0.745 0.502 0.864 0.936 0.118 0.429-0.2 0.906-0.324 1.152-0.35 0.692-0.675 1.099-1.296 1.512-0.132 0.088-0.324 0.057-0.468 0.144-0.301 0.182-0.34 0.434-0.864 0.432-0.157 0.743-0.312 1.488-0.468 2.232-0.038 0.088-0.183 0.175-0.216 0.252v0.432c-1e-3 0.439 0.103 1.648-0.072 1.908-0.059 0.168-0.175 0.182-0.288 0.288-0.654-0.011-0.492-0.394-0.864-0.577-0.096-0.011-0.192-0.023-0.289-0.035-0.211-0.093-0.489-0.274-0.683-0.396 0 0-0.267 0.071-0.432 0.072l-0.36-0.324c-0.038-0.294-0.085-0.63-0.072-1.008 0.012-0.144 0.024-0.289 0.036-0.433-0.134-0.585-0.345-1.163-0.54-1.691-0.063-0.171-0.058-0.575-0.144-0.72-0.084-0.16-0.28-0.122-0.468-0.18-0.437-0.135-1.024-0.28-1.44-0.396-0.337 0.321-0.903 0.421-1.296 0.684-0.156 0.156-0.311 0.312-0.468 0.468-0.392 0.296-0.736 0.628-1.08 0.972l-0.395 0.432c-0.073 0.052-0.189 0.048-0.252 0.108-0.222 0.208-0.466 1.223-0.901 1.044-0.198-0.014-0.278-0.091-0.324-0.252-0.106-0.174-1e-3 -0.528 0.036-0.684l0.109-0.756c0.063-0.169 0.212-0.378 0.288-0.576 0.333-0.876 0.684-1.53 1.151-2.232 0.144-0.215 0.279-0.561 0.504-0.684 0.132-0.012 0.265-0.024 0.396-0.036 0.089-0.041 0.23-0.216 0.324-0.288 0.198-0.152 0.19-0.471 0.36-0.648 0.222-0.23 0.563-0.393 0.828-0.576 0.399-0.274 0.772-0.586 1.188-0.864 0.133-0.088 0.377-0.355 0.612-0.216 0.368 0.041 0.253 0.248 0.432 0.36l0.216 0.036 0.252 0.252c0.538 0.403 0.857 0.939 1.26 1.476 0.236 0.314 0.612 0.534 0.828 0.864 0.229-0.077 0.402-0.27 0.612-0.36 0.136-0.059 0.244-0.014 0.396-0.072 0.262-0.1 0.498-0.386 0.72-0.54 0.107-0.074 0.246-0.068 0.36-0.144 0.102-0.069 0.143-0.222 0.216-0.324" fill="#c6b6a1" fill-rule="evenodd"/></g><g transform="translate(172.94 141.26)"><path d="m0 0c-0.023-0.062-8e-3 -0.035-0.036-0.072 0.024-0.494 0.825-0.926 1.08-1.368 0.061-0.023 0.035-7e-3 0.071-0.036 0.971-0.017 0.778 1.698 1.044 2.448 0.072 0.204 0.359 0.703 0.145 0.972-0.025 0.036-0.048 0.072-0.073 0.108h-0.252c-0.077-0.089-0.169-0.167-0.215-0.288v-0.144c-0.097-0.084-0.193-0.168-0.288-0.252-0.094-0.139-0.086-0.328-0.18-0.468-0.072-0.06-0.145-0.12-0.217-0.18-0.057-0.076-0.097-0.246-0.18-0.288-0.108-0.012-0.215-0.024-0.324-0.036-0.134-0.056-0.421-0.299-0.575-0.396" fill="#c6b6a1" fill-rule="evenodd"/></g><g transform="translate(172.83 156.41)"><path d="m0 0c0.098 0.486-0.064 0.961-0.252 1.26-0.139 0.034-0.211 0.071-0.396 0.072-0.243-0.196-0.512-0.094-0.9-0.18-0.358-0.079-0.894-0.034-1.223 0.036-0.384 0.082-0.804-2e-3 -1.153 0.072-0.517 0.111-1.527-2e-3 -1.944-0.072-0.43-0.072-1.117 0.132-1.584 0-0.105-0.03-0.2-0.148-0.287-0.18-0.365 0.066-0.902 0.039-1.261-0.036-0.096-0.02-0.212 0.028-0.252 0.036-0.527-0.012-1.056-0.024-1.584-0.036-0.174-0.054-0.328-0.198-0.468-0.288-0.099-0.41-0.384-1.434-0.216-1.908 0.045-0.127 0.176-0.192 0.252-0.288 0.551-0.032 1.205-0.175 1.764-0.324 0.398-0.105 0.741-0.094 1.116-0.216 0.253-0.082 0.815-0.511 1.008-0.468 0.333 0.074 0.403 0.375 0.576 0.612 0.208 0.285 0.488 0.335 0.901 0.432 0.093 0.022 0.354 0.078 0.504 0.036 0.261-0.073 0.677-0.46 0.792-0.684 0.133-0.263 0.105-0.68 0.611-0.54 0.101 0.028 0.196 0.145 0.288 0.18 1.187 0.454 3.011 0.345 3.636 1.368 0.078 0.128 0.213 0.457 0.18 0.648-0.024 0.141-0.153 0.247-0.108 0.468" fill="#8e4a06" fill-rule="evenodd"/></g><g transform="translate(175.53 157.6)"><path d="m0 0c-0.229 0.056-0.518 0.099-0.721 0.144-0.215 0.048-0.335-0.155-0.504-0.108-0.085 0.024-0.113 0.1-0.288 0.108-0.049-0.058-0.021-0.041-0.107-0.072-0.104-0.58 0.353-1.184 0.036-1.584-1e-3 -0.216 0.031-0.331 0.071-0.468 0.248-0.064 0.897-0.052 1.189 0.072 0.248 0.106 0.862 0.708 0.72 1.188-0.083 0.277-0.263 0.492-0.396 0.72" fill="#8e4a06" fill-rule="evenodd"/></g><g transform="translate(158.79 157.64)"><path d="m0 0c-0.474-0.373-1.095-0.767-0.685-1.584 0.075-0.147 0.107-0.322 0.216-0.432 0.273-0.272 0.796-0.1 1.009-0.252 0.012-0.048 0.023-0.096 0.035-0.144 0.058-0.071 0.181-0.087 0.252-0.144 1.016 0.129 0.36 1.35 0.792 1.944 2e-3 0.266-0.049 0.29-0.143 0.432-0.589 0.011-0.851 0.185-1.476 0.18" fill="#8e4a06" fill-rule="evenodd"/></g><g transform="translate(168.37 161.85)"><path d="m0 0c-0.225 0.33-1.484 0.628-2.052 0.612-0.164-0.114-0.381-0.137-0.54-0.252-0.392-0.282-1.074-1.347-0.648-1.98 0.157-0.233 0.515-0.314 0.684-0.54 0.367-7e-3 0.47 0.237 0.54 0.504 0.208 5e-3 0.618 0.054 0.756-0.036 0.647-0.016 0.508-0.945 0.936-0.72 0.288 0.096 0.288 0.364 0.396 0.648 0.106 0.279 0.414 0.728 0.252 1.116-0.033 0.079-0.145 0.151-0.18 0.216-0.08 0.149-0.055 0.301-0.144 0.432" fill="#ffa500" fill-rule="evenodd"/></g><g transform="translate(165.99 135.46)"><path d="m0 0c0.084 0.012 0.168 0.024 0.252 0.036 0.447 0.259 0.844 0.779 1.152 1.188 0.172 0.228 0.45 0.37 0.504 0.72h0.072c0.188-0.358 1.036-1.427 1.404-1.512 0.132-0.031 0.19 0.047 0.288 0.072 0.104-0.212 0.279-0.555 0.468-0.684 0.27-0.186 0.352 8e-3 0.54-0.288 0.216 9e-3 0.236 0.063 0.36 0.144 0.031 0.143 0.125 0.767 0.036 0.9-0.124 0.244-0.19 0.033-0.36 0.144-0.122 0.079-0.195 0.31-0.324 0.396-0.06 0.012-0.121 0.024-0.18 0.036-0.202 0.12-0.287 0.431-0.468 0.576-0.108 0.036-0.216 0.072-0.324 0.108l-0.36 0.36c-0.203 0.148-0.409 0.247-0.612 0.396-0.281 0.205-0.463 0.603-0.828 0.72-0.046 0.031-0.089 0.033-0.18 0.036-0.077-0.083-0.14-0.164-0.216-0.252 0.017-0.125 0.041-0.183 0.108-0.252-0.052-0.23-0.715-0.715-0.9-0.9-0.287-0.312-0.576-0.624-0.864-0.936-0.141-0.199-0.165-0.381-0.288-0.612l-0.36-0.324c-0.101-0.134-0.173-0.278-0.288-0.396 0.23-0.098 0.3-0.113 0.416-0.231 0.196 0.027 0 0 0.124 0.051 0 0 0.206-0.105 0.396-0.108l0.216 0.18c0.094 0.137 0.085 0.298 0.216 0.396z" fill="#ffa500" fill-rule="evenodd"/></g><g transform="translate(172.87 155.44)"><path d="m0 0c-0.046-0.171 0.085-0.329 0.18-0.36 0.25-0.083 0.361 0.177 0.467 0.252 0.151 0.105 0.294 0.178 0.361 0.36 0.068 0.189 4e-3 0.32 0 0.504-0.012 0.579 0.025 1.023-0.18 1.44-0.204 0.053-0.324 0.068-0.576 0.072l-0.252-0.18c-4e-3 -0.313 0.095-0.493 0.144-0.72 7e-3 -0.035-0.013-1.106-0.037-1.188-0.01-0.04-0.099-0.148-0.107-0.18" fill="#ed561c" fill-rule="evenodd"/></g><g transform="translate(161.2 155.08)"><path d="m0 0c0.187 0.415 0.109 1.177 0.217 1.62 0.038 0.158 0.067 0.475 0.035 0.54-0.019 0.183-0.069 0.177-0.144 0.288h-0.396c-0.09-0.08-0.145-0.021-0.287-0.072-0.11-0.039-0.194-0.157-0.288-0.216-0.108-0.486-0.148-1.601 0.107-1.944 0.098-0.292 0.427-0.265 0.756-0.216" fill="#ed561c" fill-rule="evenodd"/></g><g transform="translate(157.24 141.33)"><path d="m0 0c8e-3 -0.017-4e-3 -0.913 0.035-1.08 0.126-0.529 0.315-1.107 0.576-1.512 0.126-0.024 0.191-0.043 0.288 0.036 0.266 0.189 0.188 0.613 0.325 0.936 0.15 0.356 0.498 0.768 0.755 1.044-0.017 0.374-0.209 0.592-0.288 0.9v0.576c-0.081 0.373-0.045 0.781 0 1.116 0.082 0.041 0.157 0.082 0.216 0.144 0.337-0.349 0.799-1.199 1.26-1.368 0.134-0.084 0.713 0.016 0.864 0.072 0.048 0.048 0.265-0.027 0.313 0.021 0.311 0.129 0.393-0.021 0.624 0.123 0.128 0.05 0.253 0.195 0.143 0.36-0.04 0.06-0.17 0.082-0.215 0.144-0.09 0.12-0.128 0.241-0.216 0.36-0.098 0.13-0.284 0.246-0.361 0.396-0.011 0.084-0.024 0.168-0.036 0.252-0.195 0.493-1.134 1.021-1.439 1.476-0.166 0.247-0.203 0.59-0.324 0.864-0.097 0.218-0.299 0.45-0.397 0.648-0.088 0.179-0.032 0.348-0.144 0.539-0.162-0.016-0.154-0.046-0.251-0.108v-0.179h-0.18c-0.533-0.562-0.879-1.422-1.152-2.232-0.131-0.389 0.099-0.7-0.109-1.008-0.066-0.151-0.23-0.154-0.287-0.324-0.065-0.194-0.239-1.77-0.181-1.98 0.031-0.108 0.16-0.178 0.181-0.216" fill="#ed561c" fill-rule="evenodd"/></g><g transform="translate(176 145.87)"><path d="m0 0c-0.191 0.463-0.278 1.31-0.792 1.44-0.322-0.341-0.495-0.737-0.756-1.152-0.275-0.436-0.639-0.844-0.9-1.296-0.063-0.109-9e-3 -0.232-0.073-0.36-0.105-0.215-1.186-1.025-1.439-1.188-0.089-0.778 0.23-0.41 0.828-0.612 0.119-0.04 0.707-0.378 0.828-0.468 0.321 0.043 0.244 0.216 0.396 0.288 0.108 0.052 0.162-0.069 0.288 0 0.325 0.179 0.343 0.91 0.576 1.188 0.023 0.062 7e-3 0.035 0.036 0.072 0.112-0.273 0.194-0.368 0.396-0.54 0.044-0.075-0.032-0.392-0.036-0.54-0.02-0.575-0.109-0.964-0.108-1.548 0.186-0.186 0.282-0.462 0.468-0.648 0.077-0.077 0.211-0.101 0.288-0.18 0.102-0.104 0.127-0.35 0.359-0.216 0.371 0.134 0.408 0.819 0.433 1.296l-0.036 0.54c0.541 1.46-0.348 2.933-0.756 3.924" fill="#ed561c" fill-rule="evenodd"/></g><g transform="translate(170.27 134.89)"><path d="m0 0v0.252c-0.119 0.111-0.428 0.316-0.504 0.432-0.212 0.32-0.309 0.599-0.612 0.828-0.29 0.219-0.793 0.551-1.008 0.828h-0.252l-0.108-0.108c0-0.084-0.21-0.169-0.21-0.253-0.069-0.14-0.165-0.298-0.294-0.395-0.345-0.261-0.709-0.624-0.972-0.972-0.145-0.192-0.415-0.292-0.504-0.54-0.029-0.037-0.014-9e-3 -0.036-0.072 0.1-0.096 0.21-0.331 0.324-0.396 0.181-0.103 0.331-0.082 0.504-0.18 0.187-0.107 0.33-0.341 0.504-0.468 0.254-0.186 0.514-0.294 0.792-0.468 0.256-0.16 0.352-0.362 0.792-0.36 0.191 0.2 0.481 0.316 0.647 0.54 0.21 0.282 0.367 0.581 0.577 0.864 0.072 0.06 0.144 0.12 0.215 0.18 0.075 0.113 0.045 0.205 0.145 0.288" fill="#ed561c" fill-rule="evenodd"/></g><g transform="translate(161.37 143.66)"><path d="m0 0c0.16-0.373 0.3-0.627 0.519-0.929 0.037-0.051 0.168-0.243 0.151-0.259-0.016-0.081-0.031-0.076-0.065-0.129-0.303-3e-3 -0.598 0.03-0.907-0.044-0.221-0.053-0.406-0.131-0.67-0.129-0.212 0.209-0.471 0.406-0.647 0.648-0.117 0.159-0.21 0.316-0.346 0.453-0.076 0.077-0.296 0.264-0.432 0.195-0.423-0.015-0.566-0.814-0.454-1.296 0.059-0.254 0.089-0.571 0.173-0.821 0.037-0.113 0.139-0.236 0.173-0.346 0.065-0.209-0.069-0.423-0.13-0.54-0.095-0.185-0.227-0.412-0.303-0.604-0.021-0.094-0.042-0.188-0.064-0.281-0.048-0.097-0.149-0.202-0.194-0.303-0.054-0.121-0.07-0.235-0.152-0.323-0.221-0.159-0.341 0.319-0.41 0.475-0.148 0.337-0.246 0.736-0.346 1.144-0.088 0.366 0.056 0.788-0.021 1.145-0.029 0.136 0.025 0.436 0.064 0.605 0.091 0.393 0.105 0.804 0.216 1.145 0.087 0.264 0.053 0.505 0.13 0.777 0.287 1.008 0.662 2.03 1.232 2.765 0.054-2e-3 0.08-3e-3 0.107-0.022 0.147-0.059 0.328-0.736 0.433-0.907 0.282-0.464 0.544-0.938 0.864-1.36 0.318-0.422 0.848-0.518 1.079-1.059m0.26 1.253v0.324c0.13 0.486 0.341 1.047 0.604 1.425 0.155 0.222 0.381 0.394 0.54 0.605 0.416 0.551 0.96 1.014 1.555 1.382 0.27 0.167 0.562 0.264 0.843 0.411 0.234 0.122 0.505 0.297 0.756 0.389 0.23 0.084 0.408 0.108 0.627 0.194 0.543 0.213 1.066 0.574 1.597 0.799 0.128 0.054 0.243 0.054 0.367 0.108 0.176 0.076 0.348 0.206 0.519 0.281 0.284 0.124 0.531 0.224 0.777 0.389 0.22 0.147 0.409 0.369 0.627 0.518 0.312 0.214 0.663 0.436 0.885 0.735 0.216 0.289 0.394 0.615 0.584 0.928 0.128 0.212 0.211 0.527 0.28 0.778 0.033 0.12 6e-3 0.252 0.066 0.345 0.136 0.218 0.525 0.157 0.712 0.324 0.105 3e-3 0.186 4e-3 0.238-0.043 0.156-0.075 0.277-0.541 0.367-0.713 0.16-0.309 0.273-0.688 0.367-1.079 0.077-0.321 0.018-0.756-0.044-1.038-0.173-0.792-0.379-1.43-0.669-2.094-0.796-1.825-2.66-3.302-4.493-4.104-0.402-0.177-0.805-0.469-1.209-0.627-0.609-0.239-1.204-0.497-1.728-0.821-0.116-0.071-0.271-0.075-0.389-0.15-0.629-0.404-1.597-0.989-1.166-2.096 0.068-0.175 0.116-0.294 0.237-0.41-0.015-0.05-0.022-0.048-0.043-0.086-0.507-0.02-0.944 0.302-1.274 0.54-0.558 0.402-1.056 0.84-1.339 1.512-0.07 0.166-0.072 0.314-0.13 0.496-0.073 0.231-0.066 0.478-0.064 0.778m4.212 6.156c-0.067 0.3-0.062 0.758 0 1.036 0.019 0.089-0.017 0.177-0.022 0.238-0.024 0.259 6e-3 0.536 0.043 0.756 0.046 0.274-0.142 0.884-0.021 1.08 0.013 0.142 0.075 0.163 0.15 0.237 0.107 0.104 0.201 0.215 0.346 0.281 0.107 0.048 0.229 0.047 0.324 0.108 0.753 6e-3 1.334-0.337 1.533-0.864 0.101-0.264-0.055-0.644 0.023-0.993 0.021-0.1-7e-3 -0.284 0.021-0.411 0.101-0.451 0.082-0.971 0.129-1.404-0.061-0.065-0.1-0.163-0.173-0.216-0.307-0.223-0.784-0.351-1.144-0.518-0.145-0.068-0.261-0.177-0.432-0.238-0.125-0.044-0.593-0.243-0.67-0.194-0.063 0.025-0.06 0.05-0.107 0.087-8e-3 0.122-0.015 0.244-0.022 0.367 0.03 0.148 0.061 0.466 0.022 0.648m2.764 1.857c-0.033 0.127 0.049 0.274-0.021 0.389 0 0.417 0.508 0.352 0.82 0.453 0.51 0.165 1.079 0.305 1.577 0.475 0.058 8e-3 0.116 0.015 0.173 0.022 0.076 0.032 0.171 0.103 0.259 0.13 0.092 0.027 0.152 2e-3 0.216 0.043h0.087c0.045-0.06 0.083-0.062 0.107-0.151 0.023-0.033-0.046-0.159-0.064-0.216-0.101-0.303-0.208-0.527-0.368-0.756-0.105-0.152-0.165-0.316-0.281-0.454-0.238-0.283-0.54-0.491-0.842-0.713-0.232-0.17-0.457-0.391-0.691-0.561-0.191-0.138-0.454-0.208-0.626-0.367-0.123 0.012-0.124 0.054-0.194 0.107-5e-3 0.198-0.05 0.384-0.087 0.541l0.021 0.345c-0.029 0.207-0.038 0.524-0.086 0.713m-3.218 1.296c-0.45-0.037-1.043 0.189-1.491 0.324-0.521 0.157-1.046 0.195-1.554 0.345-0.223 0.066-0.482 0.024-0.67 0.13l-0.173 0.173c-0.084 0.701-0.051 1.568 0.237 2.03 0.416 0.103 1.195 0.064 1.663 0.065h0.54c0.364 0.078 0.859-0.037 1.232 0.043 0.176 0.038 0.445-0.022 0.648 0.022 0.349 0.075 0.748-0.065 1.145 0.021 0.082 0.018 0.201 0.044 0.301 0.044 0.404 0 0.951-0.067 1.362 0.021 0.073 0.016 0.176-0.013 0.216-0.021 0.204-0.044 0.564-0.015 0.734 0.021h0.605c0.417 0.022 0.834 0.043 1.252 0.065 0.254 0.038 0.665-0.079 0.843 0.043h0.151c0.036-0.045 0.093-0.047 0.129-0.086 0.124-0.132 0.078-0.328 0.13-0.54 0.072-0.288 0.116-0.677 0.022-1.037-0.047-0.179 0.011-0.414-0.086-0.54-0.036-0.342-0.558-0.309-0.843-0.41-0.727-0.258-1.555-0.463-2.29-0.734-0.124-0.047-0.833-0.243-0.906-0.195-0.184 0.067-0.162 0.281-0.26 0.432-0.092 0.141-0.252 0.312-0.389 0.41-0.468 0.338-1.328 0.489-1.879 0.13-0.276-0.18-0.49-0.48-0.669-0.756m-4.039-0.519c-0.099-0.19-0.102-0.474-0.259-0.604-8e-3 -7e-3 -0.015-0.015-0.022-0.022v0.022c-0.054 2e-3 -0.08 2e-3 -0.108 0.021-0.073 0.101-0.03 0.213-0.065 0.368-0.058 0.259-0.107 0.896 0.022 1.123 0.023 0.042 0.098 0.068 0.13 0.108 0.211 0 0.594-0.04 0.712-0.13 0.04-0.031 0.052-0.073 0.087-0.108-0.044-0.216-0.388-0.568-0.497-0.778m0.302-1.598c0.023 0.05 0.037 0.047 0.065 0.087 0.05 5e-3 0.061 4e-3 0.087 0.021 0.128-0.068 0.244-0.182 0.388-0.238 0.092-0.034 0.186-0.017 0.259-0.064 0.311 5e-3 0.338 0.014 0.519-0.108-0.012-0.244-0.13-0.337-0.238-0.476-0.343 3e-3 -0.611 0.094-0.821 0.238-0.094 0.094-0.186 0.187-0.28 0.281-0.012 0.106-0.043 0.19 0.021 0.259m1.145 1.188h0.345c0.388-0.117 0.852-0.621 1.038-0.95 0.051-0.093 0.065-0.217 0.129-0.303-0.056-0.431-0.559-0.44-0.821-0.669-0.12 0.013-0.12 0.058-0.194 0.108 0.012 0.059 0.182 0.556 0.216 0.605-0.023 0.122-0.092 0.157-0.152 0.237-0.343 0-0.869-0.091-1.166 0.065-0.079 0.079-0.158 0.158-0.237 0.238 0.031 0.411 0.568 0.482 0.842 0.669m0.777-2.808c-0.296-0.263-0.584-0.614-0.972-0.777-0.182-0.077-0.364-0.071-0.561-0.13-0.23-0.068-0.583-0.09-0.799 0-0.475 0.199-1.181 1.022-1.383 1.512-0.042 0.101-0.012 0.174-0.043 0.281-0.337 1.193 0.085 2.722 0.626 3.434 0.045-9e-3 0.042-5e-3 0.066-0.021 0.058-0.023 0.047-0.031 0.086-0.065-0.014-0.161-0.095-0.24-0.13-0.368-0.059-0.217 6e-3 -0.912 0.044-1.08 0.035-0.157 1e-3 -0.268 0.043-0.41 0.202-0.676 0.57-1.162 1.08-1.534l0.194-0.194c0.254-0.177 0.592-0.232 1.015-0.237l0.281-0.022c0.294 0.068 0.554 0.175 0.82 0.238 0.025-0.026 0.056-0.047 0.087-0.065-0.014-0.281-0.293-0.418-0.454-0.562m-3.628 4.968c-0.022-0.049-0.037-0.047-0.065-0.086-0.25-1e-3 -0.474 0.062-0.692 0.107-0.234 0.051-0.48-0.023-0.647 0.087-0.258 0.17-0.583 1.151-0.324 1.555 0.108 0.169 0.273 0.173 0.432 0.281 0.242-0.016 0.445-0.065 0.712-0.065 0.12 0 0.331 0.028 0.411-0.022 0.283 7e-3 0.246-0.015 0.389-0.129-0.064-0.297-0.172-0.599-0.173-0.95-1e-3 -0.206 0.022-0.699-0.043-0.778m0.518 1.512c8e-3 0.058 0.014 0.115 0.022 0.173l0.151 0.151h0.561c0.04-0.06 0.071-0.061 0.087-0.151 0.03-0.077-0.06-0.267-0.087-0.367-0.055-0.205-0.175-1.139-0.107-1.253 4e-3 -0.207-0.03-0.241-0.109-0.346-0.121 0.013-0.328 0.024-0.41 0.087-0.093 0.032-0.105 0.098-0.173 0.151-0.04 0.56-0.081 1.036 0.065 1.555m2.592 1.123c0.05-5e-3 0.061-4e-3 0.086-0.021 0.102-0.037 0.09-0.103 0.152-0.173-0.029-0.084-0.086-0.127-0.13-0.194-0.176-4e-3 -0.292 4e-3 -0.389 0.064 0.013 0.204 0.191 0.199 0.281 0.324m0.735 0.691c0.117 0.315 0.179 0.615 0.345 0.886 0.151 0.245 0.369 0.463 0.561 0.669 0.076-5e-3 0.092-7e-3 0.13-0.043 0.082-0.047 0.084-0.197 0.13-0.28 0.093-0.171 0.294-0.299 0.346-0.497 0.054-0.139-0.13-0.236-0.195-0.324-0.133-0.18-0.417-0.93-0.238-1.21-6e-3 -0.11-0.029-0.124-0.064-0.194-0.081-0.022-0.716-0.147-0.843-0.065-0.151 0-0.225 0.062-0.259 0.173-0.134 0.217 0.026 0.724 0.087 0.885m2.116-0.842c-0.032-0.03-0.062-0.07-0.086-0.108-0.046-9e-3 -0.119-0.021-0.151-0.043-0.261-5e-3 -0.269 0.011-0.411 0.108-0.057 0.772 0.014 0.841 0.389 1.296 0.04-0.019 0.057-0.031 0.108-0.044 0.021-0.215 0.043-0.431 0.065-0.648 0.042-0.17 0.09-0.327 0.086-0.561m1.879 0.173c-1e-3 -0.132-0.024-0.159-0.064-0.238-0.175-0.043-0.63 0.01-0.778-0.043h-0.518c-0.132 0.059-0.09 0.18-0.13 0.346-0.071 0.294-0.219 0.81-0.108 1.166 0.055 0.177 0.17 0.471 0.302 0.583 0.065 0.054 0.154 0.074 0.216 0.13 1.118 0.017 0.838-0.793 1.059-1.62 0.028-0.106-0.025-0.247 0.021-0.324m-1.706 3.887c0.167 0.098 0.415 0.068 0.583 0.173h0.67c0.774-0.188 1.615-0.923 1.187-1.944-0.05-0.12-0.135-0.3-0.215-0.41-0.044-0.061-0.127-0.088-0.173-0.151-0.328 0.024-0.349 0.431-0.562 0.583-0.089 0.064-0.189 0.062-0.303 0.108-0.651 0.265-1.084-0.106-1.317-0.583-0.066-0.016-0.097-0.035-0.173-0.043-0.147 0.152-0.33 0.228-0.431 0.431-0.382 0.766 0.233 1.544 0.734 1.836m2.937-3.52c0.035-0.109 0.013-0.216 0.065-0.302 1e-3 -0.198-0.057-0.217-0.129-0.325-0.241-0.048-0.588-0.022-0.734 0.065-0.094 0.236-0.041 0.855-0.152 1.037-5e-3 0.327 0.146 0.305 0.302 0.454 0.09 0 0.129-3e-3 0.173-0.043 0.16-0.064 0.413-0.687 0.475-0.886m0.022 2.052c0.039 0.019 0.078 0.036 0.108 0.065 0.228-0.035 0.352-0.244 0.496-0.368 0.392-0.333 0.664-0.818 0.865-1.338 0.059-0.155 0.178-0.648 0.043-0.821-0.026-0.078-0.073-0.127-0.152-0.152-0.049-0.031-0.186-0.012-0.237-0.043-0.396-5e-3 -0.497-0.031-0.734 0.13-9e-3 0.582-0.156 0.936-0.368 1.317-0.082 0.148-0.251 0.232-0.28 0.432-0.042 0.103 0.232 0.586 0.259 0.778m4.018-2.981c0.071-2e-3 0.154-5e-3 0.194 0.022h0.237c0.051-0.051 0.101-0.101 0.152-0.151 0.089-0.178 0.034-0.361 0.085-0.584 0.075-0.315 0.138-0.972-0.042-1.231-0.071-0.204-0.266-0.158-0.411-0.28-0.127 3e-3 -0.168 0.031-0.215 0.107-0.029 0.066 0.022 0.275 0.043 0.368 0.092 0.41 0.055 1.309-0.152 1.533 0.012 0.128 0.057 0.139 0.109 0.216m-7.97-16.523c0.088 1e-3 0.18-2e-3 0.237-0.022 0.049-0.249-0.09-0.366-0.194-0.518-0.242-0.349-0.414-0.393-0.886-0.518-0.12-0.032-0.402-0.09-0.583-0.043-1.045 0.268-1.746 0.801-2.484 1.36-0.122 0.137-0.244 0.274-0.368 0.411 0.012 0.074 0.028 0.085 0.044 0.151 0.289 0.059 0.539 0.107 0.907 0.108 0.175 0 0.456-0.035 0.562 0.043 0.352-0.01 0.434-0.189 0.648-0.324 0.272-0.172 0.57-0.291 0.885-0.41 0.105-0.04 0.431-0.22 0.519-0.173 0.146-0.017 0.603-0.136 0.713-0.065m0.496 0.864c7e-3 -0.193-0.04-0.23-0.173-0.281-0.149 0.207-0.518 0.225-0.669 0.432-0.344 0.468-0.032 1.096 0.323 1.361 0.13 0.096 0.312 0.156 0.411 0.28h0.065c0.028-0.037 0.066-0.062 0.108-0.086 0.068-0.343 0.059-0.769-0.022-1.102-0.048-0.201 0.052-0.458-0.043-0.604m3.629-0.799c0.052-0.177 0.084-0.429 0.194-0.605 0.148-0.236 0.603-0.7 0.843-0.843 0.101-0.06 0.187-0.021 0.323-0.064 0.107-0.034 0.248-0.111 0.346-0.173 0.517-0.326 0.927-0.75 1.253-1.274 0.17-0.272 0.391-0.609 0.388-1.037-0.181-0.187-0.312-0.468-0.518-0.626-0.183-0.142-0.395-0.271-0.562-0.433-0.261 0.039-0.695 0.596-0.928 0.756-0.097 0.067-0.205 0.085-0.302 0.152-0.135 0.092-0.256 0.249-0.39 0.345-0.336 0.245-0.673 0.456-1.014 0.691-0.109 0.075-0.199 0.203-0.303 0.281-0.217 0.163-0.604 0.373-0.756 0.584-0.462 0-0.604-0.298-0.82-0.54-0.558-0.627-1.16-1.246-1.663-1.923-0.125-0.168-0.533-0.773-0.735-0.799-0.142-0.018-0.279 0.161-0.367 0.216-0.151 0.095-0.295 0.145-0.454 0.237-0.219 0.128-0.414 0.335-0.626 0.476-0.313 0.207-0.592 0.405-0.886 0.626-0.237 0.252-0.475 0.504-0.713 0.756-0.72 0.537-1.174 1.258-1.663 2.031-0.135 0.214-0.32 0.435-0.431 0.669-0.047 0.099 6e-3 0.228-0.043 0.345-0.051 0.122-0.207 0.215-0.26 0.346-0.102 0.255-0.171 0.54-0.237 0.799v0.26c-0.024 0.099-0.1 0.399-0.022 0.518 2e-3 0.163 0.053 0.16 0.129 0.237 0.207-0.034 0.285-0.248 0.39-0.388 0.22-0.299 0.452-0.624 0.712-0.886 0.184-0.185 0.404-0.374 0.562-0.583 0.066-0.089 0.128-0.193 0.216-0.259 0.746-0.561 1.504-1.142 2.505-1.447h0.411c0.273-0.074 0.621-3e-3 0.842 0.086 0.788 0.32 1.084 0.807 1.339 1.642 0.021 0.273 0.044 0.547 0.065 0.82 0.084 0.364 0.066 0.708 0.064 1.037-1e-3 0.166 0.084 0.453 0 0.583-7e-3 0.438 0.329 0.44 0.605 0.583 0.256 0.133 0.54 0.231 0.8 0.368 0.144 0.076 0.3 0.193 0.453 0.259 0.209 0.089 0.429 0.119 0.583 0.259h0.108c0.025-0.026 0.055-0.047 0.086-0.065 0.113-0.285 0.059-1.044 0.066-1.382v-0.367c0.065-0.281 0.031-0.609 0.107-0.907 0.108-0.418 0.184-0.955 0.303-1.361m0.475 0.561c1.997-0.226 3.512-0.941 4.277-2.397 0.382-0.728 0.474-1.822 0.043-2.527-0.135-0.22-0.352-0.461-0.562-0.605-0.14-0.096-0.347-0.126-0.475-0.237h-0.151c-0.047 0.257 0.112 0.544 0.173 0.777 0.059 0.227-0.107 0.81-0.173 0.972-0.294 0.719-0.721 1.355-1.318 1.771-0.288 0.202-0.609 0.323-0.906 0.519-0.136 0.088-0.258 0.228-0.39 0.323-0.1 0.073-0.232 0.137-0.302 0.238-0.117 0.169-0.213 0.399-0.281 0.605-0.036 0.111-8e-3 0.22-0.064 0.302-1e-3 0.177 0.046 0.177 0.129 0.259m4.017-0.043c0.315 0.236 0.525 0.563 0.756 0.885 0.152 0.213 0.351 0.403 0.497 0.627 0.051-7e-3 0.101-0.014 0.151-0.022 7e-3 -7e-3 0.015-0.014 0.022-0.021 0-1.215-0.424-2.394-0.95-3.153-0.287 0.016-0.405 0.341-0.54 0.518-0.047 0.061-0.131 0.083-0.195 0.129-0.164 0.122-0.325 0.292-0.475 0.432 0.033 0.221 0.561 0.475 0.734 0.605m-0.237 1.015c-0.122 0.022-0.245 0.043-0.367 0.065-0.098 0.034-0.248 0.102-0.346 0.13-0.25 0.07-0.519-0.036-0.605 0.194-0.021 0.079 0.099 0.166 0.152 0.238 0.207 0.285 0.488 0.488 0.734 0.734 0.473 0.474 0.881 1.073 1.253 1.641 0.062 0.097 0.068 0.202 0.129 0.303 0.043 0.036 0.087 0.072 0.13 0.108 0.133 0.19 0.269 0.388 0.388 0.583 0.097 0.157 0.147 0.363 0.238 0.519 0.054-3e-3 0.08-3e-3 0.108-0.022 0.188-0.091 0.426-0.776 0.54-0.994 0.087-0.166 0.227-0.322 0.302-0.497 0.219-0.503 0.388-1.138 0.454-1.706 0.012-0.104 0.08-0.294 0.108-0.41 0.048-0.203 0-0.407 0-0.605 0-0.208 0.042-0.487 0-0.691-7e-3 -0.195-0.014-0.389-0.022-0.583-0.068-0.303-0.105-0.697-0.194-0.972-0.068-0.212-0.034-0.398-0.302-0.411-0.207 0.221-0.399 0.423-0.583 0.67-0.088 0.116-0.283 0.19-0.324 0.346-0.048 0.181 0.133 0.544 0.173 0.691 0.113 0.43 0.163 1.253-0.044 1.598-0.086 0.087-0.172 0.173-0.259 0.259h-0.173c-0.05-0.036-0.101-0.072-0.151-0.108-0.106-0.146-0.135-0.324-0.238-0.475l-0.108-0.087c-0.14-0.189-0.279-0.496-0.475-0.626-0.035-0.023-0.079-0.019-0.108-0.043-0.175 0.016-0.272 0.101-0.41 0.151m-1.037-6.458c-0.024-0.091-0.064-0.145-0.151-0.172-0.037-0.028-0.093-0.039-0.151-0.044 9e-3 0.044 5e-3 0.042 0.021 0.065 0.045 0.098 0.166 0.186 0.259 0.238 0.021-0.048 0.026-0.063 0.022-0.087m-1.944-0.864c-0.279 0.035-0.36 0.376-0.54 0.519-0.434 0.345-0.831 0.723-1.274 1.058-0.237 0.178-0.425 0.537-0.821 0.54-0.074-0.072-0.176-0.111-0.259-0.173-0.117-0.087-0.193-0.227-0.281-0.345-0.114-0.152-0.269-0.274-0.388-0.432-0.066-0.058-0.13-0.116-0.195-0.173-0.097-0.131-0.184-0.239-0.281-0.367-0.087-0.08-0.173-0.159-0.259-0.238-0.105-0.137-0.414-0.545-0.54-0.626-0.221-0.144-0.64 0.121-0.648 0.367 0.548 0.512 1.014 1.146 1.469 1.75 0.079 0.071 0.158 0.144 0.237 0.215 0.287 0.379 0.628 0.674 0.973 0.994 0.483-0.233 0.845-0.677 1.274-0.972 0.737-0.509 1.454-1.016 2.073-1.641-0.011-0.17-0.421-0.53-0.54-0.476m-0.756-0.799c-0.365-0.484-0.732-0.988-1.188-1.382-0.332 4e-3 -0.469 0.206-0.669 0.345-0.219 0.152-0.463 0.237-0.691 0.389-0.218 0.146-0.407 0.37-0.626 0.518-0.179 0.12-0.517 0.232-0.584 0.454-0.05 0.121 0.339 0.468 0.432 0.562 0.354 0.356 0.71 0.742 1.015 1.145 0.144 0.144 0.288 0.287 0.432 0.431 0.044 9e-3 0.041 6e-3 0.065 0.022h0.086c0.171-0.183 0.378-0.325 0.584-0.475 0.251-0.184 0.458-0.435 0.712-0.626 0.266-0.267 0.533-0.534 0.8-0.8 4e-3 -0.05 3e-3 -0.061 0.021-0.086-0.039-0.259-0.263-0.329-0.389-0.497m4.32 23.068c0.339-3e-3 0.967-0.086 1.188 0.065 0.427-0.17 0.639-1.237 0.28-1.663-0.139-0.167-0.54-0.128-0.777-0.195-0.123-0.035-0.406-0.19-0.518-0.13-0.065 0.026-0.061 0.051-0.108 0.087 0 0.306 0.096 0.728 0.022 1.058-0.05 0.217-0.146 0.42-0.152 0.67 0.033 0.032 0.049 0.054 0.065 0.108m-13.046-12.916c-0.21 0.216-0.467 0.402-0.648 0.648-0.183 0.247-0.335 0.532-0.497 0.799-0.209 0.344-0.342 0.769-0.518 1.123-0.048 0.096-0.058 0.21-0.129 0.281-0.048 0.046-0.142 0.046-0.195 0.086-0.49-0.063-0.897-0.932-1.08-1.361-0.06-0.14-0.177-0.267-0.238-0.41-0.236-0.568-0.37-1.253-0.561-1.836-7e-3 -0.079-0.014-0.158-0.022-0.238-0.072-0.241-0.13-0.584-0.194-0.82v-0.281c-0.178-0.764-0.204-1.854 0-2.549 0.041-0.14 0.022-0.229 0.065-0.367 0.111-0.36 0.302-0.729 0.496-1.015 0.088-0.129 0.124-0.267 0.282-0.324 0.228-0.149 0.418 0.12 0.497 0.216 0.205 0.254 0.288 0.506 0.431 0.842 0.102 0.24 0.276 0.468 0.389 0.713 0.055-2e-3 0.08-2e-3 0.107-0.022 0.141-0.057 0.161-0.243 0.239-0.367 0.144-0.233 0.314-0.499 0.474-0.734 0.377-0.552 0.857-1.085 1.383-1.49 0.3-0.231 0.519-0.593 0.82-0.821 0.782-0.591 1.611-1.16 2.442-1.707 0.08-0.052 0.175-0.056 0.259-0.108 0.378-0.232 0.765-0.443 1.166-0.669 0.172-0.097 0.317-0.275 0.475-0.389 0.28-0.201 0.582-0.397 0.864-0.583 0.264-0.174 0.568-0.355 0.842-0.497 0.109-0.056 0.252-0.06 0.346-0.13h0.173c0.14 0.061 0.623 0.631 0.734 0.778 0.421 0.558 0.908 1.113 1.469 1.534 0.058 0.064 0.115 0.129 0.173 0.194 0.185 0.14 0.517 0.32 0.67 0.475 0.292-4e-3 0.434-0.153 0.712-0.216 0.241-0.054 0.792 0.131 0.929 0.216 0.035 0.036 0.072 0.072 0.108 0.108 0.106 0.057 0.204 0.065 0.302 0.13 0.374 0.244 0.707 0.708 0.842 1.188 0.064 0.226 0.061 0.502 0.087 0.691 0.064 0.458-0.049 1.42-0.324 1.642 0.018 0.273 0.211 0.323 0.324 0.496 0.06 0.092 0.064 0.172 0.108 0.281 0.069 0.171 0.204 0.33 0.259 0.519 0.059 0.012 0.101 0.033 0.152 0 0.11-0.058 0.345-0.406 0.431-0.519 0.081-0.107 0.256-0.251 0.368-0.324 0.064-0.043 0.157-0.041 0.215-0.086 0.462 2e-3 0.543 0.431 0.649 0.799 0.186 0.654 0.28 1.398 0.28 2.268 0 1.556-0.588 3.081-1.209 4.039-0.245 0.377-0.31 0.9-0.929 0.907-0.293-0.306-0.334-0.738-0.562-1.102-0.441-0.704-0.929-1.416-1.425-2.073-0.21-0.278-0.509-0.492-0.756-0.735-0.208-0.203-0.498-0.464-0.605-0.756-0.042-0.114-0.068-0.321 0-0.41 0.093-0.269 0.364-0.167 0.67-0.237 0.398-0.092 0.797-0.178 1.144-0.324 0.014-0.06 0.037-0.102 0.022-0.13-0.05-0.144-0.725-0.579-0.885-0.67-0.041-0.022-0.169-0.041-0.238-0.021-0.237 0.067-0.501 0.247-0.735 0.345-0.592 0.251-1.263 0.357-2.116 0.346-0.03 0.032-0.07 0.063-0.108 0.086-0.062 0.266-0.112 0.57-0.173 0.821v0.799c-0.059 0.271 0.023 0.603-0.043 0.907-0.046 0.213-0.046 0.489-0.043 0.757 0.214 0.202 0.42 0.266 0.669 0.431 0.47 0.311 0.944 0.626 1.404 0.951 0.295 0.208 0.547 0.481 0.799 0.734 0.238 0.238 0.476 0.475 0.713 0.713 0.669 0.916 1.105 2.012 1.49 3.218 0.015 0.122 0.029 0.245 0.044 0.367 0.274 1.015-0.065 2.07-0.497 2.765-0.058 0.093-0.079 0.203-0.151 0.281 0.02 0.337 0.483 0.299 0.755 0.389 0.337 0.11 0.769 0.221 1.102 0.323 0.125 0.039 0.212 0.022 0.303 0.087 0.167 0.119 0.186 0.362 0.259 0.583 0.039 0.117 0.11 0.341 0.064 0.54-0.11 0.489-0.152 0.901-0.496 1.145-0.161 0.114-0.356 0.034-0.605 0.086-0.096 0.02-0.615 0.081-0.778 0.043-0.075-0.017-0.183-0.069-0.302-0.043-0.133 0.029-0.317 4e-3 -0.454 0-0.263-7e-3 -0.529 0.032-0.777-0.022-0.271-0.058-0.891 0.075-1.08-0.043-0.336-5e-3 -0.446-0.028-0.648 0.108 7e-3 0.18 0.014 0.36 0.022 0.54-0.208 0.782-0.625 1.611-1.189 2.031-0.131 0.098-0.256 0.216-0.388 0.302-0.108 0.069-0.259 0.064-0.346 0.151-0.093 0.094-0.076 0.251-0.129 0.389-0.058 0.149-0.186 0.307-0.281 0.432-0.09 0.119-0.223 0.192-0.346 0.281-0.215 0.156-0.432 0.309-0.713 0.41-0.164 0.059-0.433 0.074-0.604 0.043-0.186-0.033-0.367 0.041-0.605-0.021-0.313-0.083-0.59-0.25-0.843-0.411-0.203-0.129-0.511-0.581-0.604-0.821-0.029-0.143-0.058-0.288-0.087-0.431-0.074-0.133-0.286-0.191-0.41-0.281-0.14-0.102-0.371-0.376-0.475-0.519-0.177-0.243-0.355-0.559-0.475-0.842l-0.173-0.605c-0.085-0.131-0.3-0.151-0.432-0.237-0.222-0.146-0.436-0.316-0.648-0.476-0.073-0.071-0.144-0.143-0.216-0.215-0.214-0.131-0.641 0.027-0.886-0.022-0.286-0.057-0.704-0.059-0.971 0-0.289 7e-3 -0.577 0.014-0.865 0.022-0.138 0.032-0.745 0.073-0.907 0.021-0.173-0.055-0.381-0.249-0.475-0.389-0.086-0.128-0.17-0.328-0.215-0.475-0.057-0.18 0.013-0.48 0.043-0.605 0.068-0.294 0.088-0.508 0.237-0.712 0.263-0.363 1.313-0.561 1.9-0.627 0.02-0.039 0.037-0.078 0.066-0.108-0.044-0.249-0.238-0.503-0.325-0.734-0.165-0.438-0.254-0.861-0.367-1.361-0.058-0.263-6e-3 -0.858 0.043-1.058 0.015-0.144 0.03-0.288 0.043-0.432 0.173-0.617 0.593-1.133 0.994-1.534 0.22-0.219 0.469-0.481 0.799-0.583 0.203-0.062 0.865-0.053 1.08 0 0.832 0.205 1.938 1.045 2.246 1.75 0.135 0.306 0.336 0.981 0.195 1.404-0.108 0.323-0.358 0.514-0.54 0.756-0.256 0.34-0.549 0.556-1.036 0.669-0.159 0.037-0.309-0.037-0.411-0.065-0.339-0.093-0.544-0.178-0.799-0.345-0.091-0.06-0.125-0.146-0.259-0.173-0.048 0.479 0.457 0.978 0.669 1.296 0.285-4e-3 0.47-0.073 0.691-0.13 0.094-7e-3 0.188-0.014 0.281-0.021 0.377-0.113 0.827-0.202 1.209-0.324 0.124-0.04 0.199-9e-3 0.325-0.043 0.113-0.031 0.241-0.1 0.345-0.13 0.098-0.028 0.153 2e-3 0.216-0.043 0.068-0.026 0.088-0.059 0.108-0.13 0.041-0.069-0.015-0.792-0.021-0.993-0.019-0.55-0.044-1.17-0.044-1.858 0-0.175 0.041-0.747 0-0.821 0-0.41-0.317-0.402-0.583-0.54-0.403-0.208-0.842-0.429-1.209-0.691-0.531-0.378-1.035-0.903-1.426-1.426-0.211-0.281-0.503-0.563-0.648-0.906-0.126-0.298-0.217-0.665-0.302-0.972-0.047-0.168 0-0.335-0.087-0.454 0.011-0.208-0.013-0.245-0.151-0.302" fill="#231f20" fill-rule="evenodd"/></g></g></g></svg>
