<?xml version="1.0" encoding="UTF-8"?>
<svg version="1.1" viewBox="0 0 128 128" xml:space="preserve" xmlns="http://www.w3.org/2000/svg" xmlns:cc="http://creativecommons.org/ns#" xmlns:dc="http://purl.org/dc/elements/1.1/" xmlns:rdf="http://www.w3.org/1999/02/22-rdf-syntax-ns#"><metadata><rdf:RDF><cc:Work rdf:about=""><dc:format>image/svg+xml</dc:format><dc:type rdf:resource="http://purl.org/dc/dcmitype/StillImage"/><dc:title/></cc:Work></rdf:RDF></metadata><g transform="translate(-8.2085 -9.9068)"><g transform="matrix(3.5523 0 0 -3.5523 -301.51 554.87)"><g transform="translate(111.59 137.31)"><path d="m0 0c-0.149-1e-3 -0.173-0.022-0.173-0.173-0.06 0.028-0.109 0.049-0.148 0.099-0.061 0.036-0.029 0.017-0.025 0.123-0.323 0.08-0.517 0.276-0.89 0.273-0.03-0.02-0.042-0.02-0.1-0.025-0.025-0.026-0.105-0.045-0.123-0.074-0.068-0.112 0.071-0.07-0.074-0.149 0.017-0.09-3e-3 -0.069 0.074-0.098-0.037-0.062-0.053-0.051-0.148-0.05-0.213-0.417-0.563-0.77-0.842-1.138-0.045-0.059-0.152-0.046-0.197-0.099-0.042-0.046-0.034-0.128-0.075-0.173-0.123-0.134-0.337-0.259-0.445-0.396-0.053-0.066-0.135-0.203-0.198-0.247h-0.074c-0.106-0.072-0.167-0.243-0.273-0.322-0.235-0.177-0.45-0.349-0.692-0.52-0.025-0.017-0.029-0.083-0.05-0.098h-0.099c-0.016-0.034-0.033-0.067-0.05-0.1-0.124-0.098-0.258-0.132-0.395-0.222-0.062-0.041-0.077-0.162-0.149-0.198h-0.124c-0.048-0.066-0.098-0.132-0.148-0.198-0.111-0.084-0.226-0.121-0.346-0.198-0.048-0.03-0.057-0.114-0.099-0.148-0.054-0.045-0.149-0.05-0.198-0.099-8e-3 -0.025-0.016-0.05-0.025-0.075-0.144-0.099-0.282-0.165-0.42-0.272-0.025-0.041-0.05-0.082-0.074-0.123-0.05-8e-3 -0.1-0.017-0.149-0.025-0.089-0.049-0.217-0.289-0.296-0.371-0.042-0.043-0.136-0.055-0.174-0.099-0.116-0.138-0.174-0.315-0.297-0.446-0.069-0.074-0.189-0.14-0.247-0.222v-0.074c-0.026-0.029-0.103-0.015-0.124-0.05v-0.123c-0.058-0.041-0.115-0.083-0.173-0.124-8e-3 -0.05-0.017-0.099-0.024-0.149-0.026-0.016-0.05-0.033-0.075-0.049-0.074-0.133-0.085-0.253-0.148-0.396-0.017-0.036-0.087-0.093-0.1-0.124-0.069-0.164-0.012-0.293-0.074-0.47-0.013-0.036-0.087-0.094-0.099-0.123-0.096-0.24 0.081-0.834 0.124-0.99 8e-3 -0.082 0.016-0.165 0.025-0.247 0.028-0.067 0.122-0.157 0.148-0.223v-0.123c0.022-0.037 0.089-0.024 0.124-0.05 0.025-0.042 0.049-0.083 0.075-0.124 0.073-0.06 0.209-0.078 0.271-0.148 0.387-0.431 0.914-0.472 1.534-0.421 0.076 0.193 0.218 0.424 0.198 0.569-0.06 0.112-0.239 0.109-0.322 0.198-0.103 0.112-0.127 0.333-0.271 0.445-0.021 0.459 0.02 0.934 0.222 1.237 0.061 0.092 0.198 0.201 0.247 0.297 0.047 0.091 0.019 0.173 0.075 0.248l0.247 0.272c0.036 0.024 0.073-7e-3 0.099 0.024 0.095 0.115 0.119 0.269 0.223 0.372 0.104 0.105 0.294 0.208 0.42 0.296 0.078 0.055 0.124 0.191 0.198 0.248 0.041 8e-3 0.082 0.016 0.124 0.024 0.061 0.041 0.106 0.161 0.173 0.199h0.099c0.045 0.026 0.016 0.088 0.049 0.123 0.065 0.067 0.19 0.074 0.273 0.124 0.092 0.054 0.159 0.19 0.247 0.247 0.15 0.099 0.29 0.132 0.445 0.223 0.047 0.028 0.1 0.125 0.149 0.148h0.148c0.041 0.058 0.082 0.116 0.124 0.174 0.046 0.027 0.089-8e-3 0.124 0.024 8e-3 0.025 0.016 0.05 0.025 0.074h0.098c0.017 0.034 0.033 0.067 0.05 0.099 0.267 0.215 0.51 0.422 0.791 0.619 0.081 0.057 0.121 0.192 0.198 0.247 0.412 0.296 0.769 0.628 1.064 1.04 0.03 0.042 0.117 0.053 0.148 0.098 0.017 0.05 0.033 0.099 0.05 0.149 0.058 0.041 0.115 0.082 0.173 0.124 0.051 0.068 0.051 0.149 0.1 0.222 0.03 0.047 0.123 0.099 0.147 0.148v0.1c0.086 0.206 0.223 0.463 0.298 0.692 0.045 0.14 2e-3 0.326 0.074 0.446 1e-3 0.12 4e-3 0.263-0.025 0.346-0.081 2e-3 -0.177 6e-3 -0.223-0.025" fill="#eccea0" fill-rule="evenodd"/></g><g transform="translate(111.89 125.98)"><path d="m0 0h0.025c0.072 0.046 0.388 0.032 0.446 0 0.129-0.048 0.1-0.133 0.271-0.148-5e-3 -0.682-0.15-1.452-0.643-1.658-0.31-0.13-0.785-0.025-1.114-0.149-0.133-0.049-0.116-0.138-0.197-0.197-0.232-0.169-0.89-0.307-1.262-0.322-0.03 0.045-0.099 0.061-0.124 0.099-0.021 0.034-6e-3 0.075-0.024 0.099-0.134-0.088-0.237-4e-3 -0.371 0.025v0.124c-0.083-0.012-0.066-0.013-0.149 0 9e-3 0.392-0.34 1.338-0.593 1.435-9e-3 0.112-0.053 0.317-0.124 0.371h-0.099c-0.05 0.139-0.099 0.28-0.148 0.42-0.163 0.312-0.574 0.697-0.297 1.113 0.071 0.074 0.229 0.09 0.297 0.05 0.294-0.125 0.205-0.29 0.371-0.47 0.063 0.1 0.239 0.123 0.321 0.074 0.079-0.031 0.124-0.134 0.198-0.148 0.043-9e-3 0.067 0.032 0.124 0h0.025c0.077-0.062 0.053-0.14 0.172-0.174v0.025h0.025v-0.025c0.195-0.212 0.349-0.778 0.421-1.113h0.074c9e-3 -0.247 0.017-0.495 0.025-0.742h0.025v0.049c0.182 0.129 0.262 0.394 0.445 0.52 0.045 0.031 0.153 0.089 0.198 0.099l0.223-0.025c0.04 0.025 0.067 0.132 0.099 0.173 0.076 0.099 0.219 0.146 0.297 0.247h-0.025c-0.124-0.089-0.898-0.365-1.089-0.37-0.102 0.198-0.147 0.416-0.247 0.618-0.033 0.067-0.17 0.213-0.198 0.272v0.149c-0.022 0.051-0.103 0.16-0.124 0.222v0.149c-0.078 0.192-0.224 0.282-0.173 0.569 0.088 0.058 0.089 0.095 0.247 0.098 0.229-0.201 0.383-0.178 0.718-0.147 0.056 0.071 0.165 0.081 0.223 0.147 0.07 0.083 0.185 0.251 0.222 0.347 0.03 0.074-0.012 0.187 0.05 0.223h0.123c0.154-0.129 0.843-0.224 1.015-0.05 0.111 0.114 0.048 0.204 0.272 0.223 0.04-0.086 0.072-0.264 0.123-0.347 0.033-0.016 0.067-0.032 0.1-0.049v-0.148c0.02-0.06 0.102-0.153 0.123-0.199 0.054-0.117 0.016-0.214 0.074-0.321 0.131-0.242 0.355-0.5 0.371-0.841-0.138-0.047-0.687-0.197-0.742-0.297m-6.58 9.055c0.035-0.343 0.216-0.618 0.297-0.94 0.182-0.066 0.161-0.199 0.148-0.446-0.06-0.091-0.061-0.21-0.124-0.296v-0.025h-0.198c-0.014-0.212-0.072-0.403-0.321-0.396-0.078-0.039-0.098 0.027-0.199 0.049-7e-3 0.041-0.015 0.083-0.024 0.124-0.082-7e-3 -0.041-9e-3 -0.124 0-0.052 0.517-0.332 0.851-0.544 1.212-0.137 0.233-0.177 0.498-0.347 0.693 0.018 0.073 0.08 0.17 0.075 0.173-0.025 0.066-0.049 0.132-0.075 0.198-0.124-0.014-0.395 0.106-0.445 0.247-0.053 0.105 0.032 0.176 0.174 0.173 0.193-0.201 0.193 0.023 0.42-0.098 0.15-0.081 0.259-0.342 0.322-0.371 0.033 8e-3 0.066 0.016 0.099 0.024 0.11-0.035 0.191-0.249 0.321-0.198 0.091 0.029 0.212 0.065 0.272 0.025 0.129-0.048 0.101-0.133 0.273-0.148m0.568-0.52c-0.088 0.162-0.207 0.272-0.222 0.52 0.172 0.083 0.415 0.176 0.495 0.346v0.124c0.046 0.087 0.183 0.158 0.222 0.271 0.044 0.127 0.01 0.208 0.075 0.298 0.035 0.023 0.081 0.024 0.148 0.025 0.048-0.055 0.051-0.012 0.124-0.05 0.409-0.214 0.643-0.283 1.014 0 0.062 0.047 0.164 0.106 0.198 0.173 0.096 0.19 0 0.425 0.124 0.618 0.024 0.017 0.099 0.032 0.123 0.05h0.198c0.131-0.248 0.315-0.644 0.297-0.94-0.09-0.059-0.264-0.209-0.321-0.297-0.033-0.05-3e-3 -0.091-0.05-0.124-0.277-0.19-0.499-0.414-0.767-0.618-0.052-0.04-0.074-0.166-0.124-0.198h-0.124c-0.076-0.04-0.128-0.171-0.197-0.223-0.064-0.048-0.135-0.052-0.198-0.098-0.225-0.165-0.408-0.479-0.767-0.496-0.075 0.203-0.14 0.424-0.248 0.619m-7.717-0.123v-0.05h-0.026c-2e-3 0.482-0.048 0.942-0.074 1.336 0.14-0.129 0.216-0.307 0.347-0.446 0.052-0.04 0.128-0.049 0.222-0.049-0.037-0.112-0.393-0.728-0.469-0.791m-0.125 1.384c0.019-0.026 0.016-0.022 0.025-0.073-0.019 0.026-0.016 0.023-0.025 0.073m5.22 0.075c-0.03 0.057-0.061 0.053-0.098 0.099-0.045 0.028-0.03 0.168-0.026 0.297-0.148 0.058-0.196 0.16-0.297 0.198h-0.148c-0.112 0.032-0.304 0.088-0.371 0.123-0.275-0.019-0.171-0.159-0.297-0.222h-0.222c-0.066-0.041-0.133-0.083-0.198-0.124-0.035-0.093-0.046-0.231-0.1-0.322-0.13-0.219-0.451-0.173-0.742-0.247-0.165-0.042-0.378-0.11-0.519-0.148-0.145-0.041-0.461 0.053-0.668 0-0.132-0.034-0.279-0.098-0.396-0.149l-0.024 0.075c0.296 0.106 0.538 0.226 0.791 0.345 0.027-9e-3 0.116-0.051 0.174-0.024 0.031 0.015 0.025 0.079 0.049 0.099 0.046 0.039 0.339 0.152 0.396 0.173 0.245 0.094 0.517 0.106 0.742 0.223 0.066 0.034 0.151 0.164 0.197 0.198 0.055 0.039 0.872 0.265 0.965 0.272v0.025h0.026c-0.017 0.248-0.089 0.13-0.247 0.222-0.255 0.149-0.503 0.701-0.224 1.015-0.014 0.264-0.243 0.229-0.346 0.396-0.082 0.132-0.131 0.308-0.198 0.445-0.454-8e-3 -0.785-0.291-1.138-0.421-0.107-0.016-0.215-0.033-0.322-0.049l-0.024-0.075c-0.122-0.077-0.321-0.07-0.47-0.123-0.066-0.023-0.161-0.098-0.223-0.124-0.221-0.09-0.404-0.087-0.618-0.173-0.075-0.03-0.148-0.119-0.224-0.148-0.096-0.04-0.173-2e-3 -0.271-0.05-0.257-0.126-0.736-0.412-1.089-0.421-7e-3 -0.017-7e-3 -0.122-0.024-0.148-0.025-0.035-0.121-0.038-0.149-0.074-0.092-0.12-0.194-0.519-0.247-0.668-0.068-0.191-0.015-0.439-0.074-0.619-0.049-0.142-0.21-0.389-0.124-0.643 0.03-0.09 0.148-0.191 0.198-0.272 0.151-0.249 0.217-0.519 0.371-0.767 0.126-0.203 0.316-0.201 0.322-0.544 0.07-0.01 0.051-0.023 0.098 0 0.08-0.049 1e-3 -0.045 0.05-0.124 0.019-0.03 0.074-0.039 0.099-0.074 0.062 3e-3 0.091 3e-3 0.124 0.025 0.082 0 0.147 6e-3 0.198 0.025v0.098c0.076 0.015 0.059 5e-3 0.098 0.05 0.019-0.024 3e-3 -0.067 0.025-0.099 0.027-0.042 0.08-0.025 0.124-0.099 0.264 7e-3 0.479 0.061 0.642 0.173 0.042 0.049 0.084 0.099 0.125 0.149 0.198 0.112 0.516 0.159 0.742 0.247 0.219 0.085 0.422 0.267 0.618 0.371 0.143 0.076 0.268 0.086 0.421 0.149 0.188 0.077 0.365 0.242 0.544 0.321 0.217 0.097 0.437 0.101 0.668 0.198 0.382 0.16 0.799 0.372 1.163 0.569 0.044 0.124 0.091 0.305 0.148 0.371m9.302 5.566c0.043-0.016 0.024-4e-3 0.05-0.024-0.043 0.016-0.025 4e-3 -0.05 0.024m0.371 1.534-0.123 0.099c-0.046 0.091-0.029 0.206-0.074 0.297-0.091 0.181-0.263 0.314-0.273 0.594-0.047 0.024-0.067 0.034-0.098 0.074-0.325-0.02-0.65-0.209-0.892-0.322-0.1-0.047-0.202-0.022-0.296-0.074-0.089-0.049-0.192-0.159-0.298-0.198-0.417-0.156-0.786-0.316-1.162-0.495-0.091-8e-3 -0.181-0.016-0.272-0.024-0.072-0.032-0.163-0.14-0.247-0.173-0.251-0.1-0.52-0.146-0.742-0.272v-0.149c0.022-0.038 0.135-0.047 0.173-0.074 0.095-0.069 0.301-0.553 0.198-0.717v-0.322c0.035-0.07 0.137-0.028 0.197-0.074 0.167-0.128 0.455-0.658 0.224-0.891 2e-3 -0.071 9e-3 -0.106 0.024-0.148 0.429 7e-3 0.7 0.252 1.015 0.371 0.212 0.08 0.393 0.073 0.592 0.172 0.173 0.086 0.384 0.228 0.57 0.298 0.239 0.089 0.668 0.204 0.816 0.371h0.124c-0.065-0.11-0.152-0.288-0.247-0.371-9e-3 -7e-3 -0.194-0.017-0.248-0.05-0.07-0.043-0.152-0.166-0.223-0.198-8e-3 -4e-3 -0.141 0.048-0.148 0.05-0.108 0.019-0.235-0.055-0.297-0.1-0.236-0.168-0.442-0.435-0.618-0.667-0.152-0.201-0.362-0.362-0.52-0.569-0.082-0.109-0.315-0.181-0.371-0.297-0.027-0.057 0.021-0.122 0.025-0.149-0.027-0.04-0.088-0.106-0.123-0.148 0.041-0.107 0.073-0.086 0.172-0.074v-0.149c0.084-0.015 0.081-0.06 0.124-0.074 0.291-0.093 0.912 0.509 1.163 0.618 0.59 0.259 1.253 0.415 1.831 0.694 0.183 0.452 0.409 1.023 0.395 1.632-0.158 0.012-0.152 0.082-0.247 0.149 0.072 0.063 0.192 0.095 0.321 0.098v0.025h0.025c-0.015 0.392-0.237 0.64-0.37 0.915-0.045 0.093-0.052 0.233-0.1 0.322m-11.38 0.94h-0.024v0.05h0.024zm0.396 1.138c-0.211-0.073-0.367-0.069-0.569-0.148-0.071-0.028-0.12-0.111-0.198-0.149 0-0.101-2e-3 -0.128 0.05-0.172v-0.05c-0.073 0.036-0.209 0.069-0.297 0-0.312-0.112-0.345-0.936-0.594-1.138-8e-3 -0.354 0.24-0.633 0.396-0.891 0.016-0.058 0.033-0.115 0.05-0.173 0.039-0.036 0.103-3e-3 0.148-0.074 0.016-0.074 0.032-0.149 0.049-0.223 0.087-0.224 0.254-0.46 0.347-0.693 0.12-0.301 0.124-0.602 0.42-0.717 0.045-0.028 0.139-0.019 0.173 0 0.173 0.1 0.128 0.629 0.05 0.866-0.087 0.262 0.11 0.276 0.049 0.569-0.029 0.143-0.058 0.313-0.049 0.495 8e-3 0.057 0.017 0.115 0.024 0.173-0.107 0.305-0.214 0.61-0.321 0.915v0.025c0.163-0.125 0.176-0.369 0.272-0.569 0.031-0.065 0.134-0.153 0.174-0.223 0.028-0.051-4e-3 -0.111 0.024-0.173 0.025-0.016 0.05-0.033 0.074-0.05 0.128-0.253 0.213-0.52 0.321-0.766 0.245 8e-3 0.232 0.123 0.372 0.198 0.116 8e-3 0.231 0.016 0.346 0.024 0.131 0.065 0.142 0.372 0.223 0.495 0.289 0.439 0.977 0.841 1.46 0.297 0.25 6e-3 0.202 0.118 0.346 0.198 0.082 0.045 0.173 0.059 0.248 0.099-0.012 0.273-0.24 0.545-0.347 0.742-8e-3 0.058-0.017 0.115-0.025 0.173-0.175 0.323-0.409 0.672-0.593 0.99-0.125 0.213-0.162 0.445-0.273 0.668h-0.198c-0.091-0.092-0.183-0.04-0.321-0.099-0.031-0.013-0.087-0.085-0.124-0.099-0.27-0.103-0.479-0.088-0.767-0.173-0.295-0.088-0.652-0.247-0.94-0.347" fill="#c6b6a1" fill-rule="evenodd"/></g><g transform="translate(109.79 130.16)"><path d="m0 0c3e-3 -0.091 0.011-0.22-0.024-0.272-0.068-0.217-0.227-0.285-0.372-0.421l-0.717 0.025c-0.051 0.076-0.086 0.072-0.099 0.198-0.083 0.126-0.026 0.668 0 0.767 0.03 0.015 0.051 0.027 0.074 0.049 0.332-0.011 0.737-0.098 1.014-0.173 0.042-0.058 0.083-0.115 0.124-0.173m1.237 0.618c-0.043-0.028-0.085-0.105-0.124-0.123h-0.173c-0.03-0.011-0.067-0.058-0.099-0.075-0.049-0.119-0.028-0.37-0.074-0.469l-0.198-0.174c-0.056-0.1-0.063-0.35 0-0.445v-0.099l-0.445-0.371c-0.081-0.025-0.171 0.089-0.297 0.049-0.177-0.055-0.301-0.243-0.495-0.297-0.32-0.089-0.602 0.252-0.816 0-0.176 0.034-0.297 0.153-0.446 0.223 0.026 0.184 0.061 0.497-0.049 0.619-0.042 0.109-0.146 0.149-0.297 0.148 0.107 0.185 0.22 0.4 0.371 0.544 0 0.329-0.151 0.2-0.346 0.322-0.041 0.025-0.044 0.109-0.074 0.148-0.065 0.083-0.238 0.215-0.347 0.248v0.148c0.103-0.028 0.18-0.101 0.273-0.124 0.269-0.066 0.422 0.196 0.568 0.273 0.126 0.065 0.287 0.067 0.371 0.173 0.196-0.034 0.329-0.279 0.495-0.173 0.098 0.038 0.13 0.16 0.173 0.247 0.257-1e-3 0.816-0.175 0.916-0.297 0.066-0.082 0.102-0.263 0.148-0.346 0.236-0.044 0.427 0 0.619-0.124h0.346zm0.643-2.622c0.018 0.139 0.024 0.579-0.049 0.692 0.087 0.079 0.242 0.057 0.346 0.125 0.108 0.07 0.136 0.229 0.222 0.321 4e-3 0.303-0.09 0.503-0.271 0.618 0.085 0.236 0.153 0.281 0.123 0.619-0.072 0.068-0.189 0.198-0.223 0.297-0.02 0.103 0.16 0.198 0.223 0.297 0.225 0.347 0.011 0.891-0.321 0.94 0.041 0.113 0.121 0.208 0.148 0.346 0.023 0.112-0.047 0.297-0.074 0.371-0.174 0.463-0.539 0.5-1.138 0.47 0.024 0.165 0.133 0.359 0.074 0.594-0.025 0.101-0.092 0.177-0.124 0.272-0.166 0.042-0.316 0.06-0.469-0.024-0.142-0.078-0.239-0.253-0.371-0.347-0.294-0.206-0.995-0.532-1.015-0.965-0.579-0.243-1.113-0.56-1.583-0.915-0.124-0.094-0.166-0.261-0.273-0.371-1e-3 -3e-3 -0.217 3e-3 -0.296 0-0.083-0.086-0.181-0.143-0.223-0.272v-0.149l-0.223-0.173c-0.063-0.087-0.085-0.185-0.148-0.272-0.172-0.235-0.489-0.329-0.618-0.618-0.233-0.52-0.096-1.161 0.395-1.336 0.155-0.056 0.402-0.029 0.594-0.025 6e-3 -0.318 0.16-0.373 0.297-0.545 0.098-8e-3 0.198-0.016 0.297-0.024 0.036-0.331 0.141-0.398 0.321-0.569 0.254-2e-3 0.462 0.051 0.594 0.173 0.174-0.062 0.189-0.251 0.322-0.346 0.047-0.035 0.105-0.038 0.148-0.075 0.307-2e-3 0.518 0.119 0.619 0.322 0.219-0.108 0.366-0.282 0.742-0.198 0.105 0.023 0.158-2e-3 0.222 0.049 0.279 0.094 0.287 0.69 0.099 0.916v0.099c0.267-0.144 0.506-0.406 0.816-0.495 0.158-0.045 0.54-0.013 0.619 0.05 0.101 0.033 0.122 0.095 0.198 0.148m-6.061 12.296v0.049c0.114 0.05 0.188 0.091 0.223 0.222 0.073-0.055 0.096-0.118 0.099-0.247-0.043-0.043-0.037-0.069-0.099-0.099-0.032-0.022-0.062-0.022-0.124-0.025-0.027 0.038-0.064 0.07-0.099 0.1m-1.608-0.272c0.052-0.182 0.209-0.371 0.395-0.421 0.075-0.052 0.22-0.021 0.273 0.025 0.058-0.133 0.115-0.264 0.173-0.396 0.101-0.155 0.266-0.222 0.396-0.347-0.104-0.033-0.19 0.036-0.322 0-0.091-0.025-0.166-0.115-0.247-0.149-0.148-0.061-0.542-0.099-0.718-0.098-6e-3 0.105-0.023 0.209-0.074 0.272-0.053 0.16-0.242 0.262-0.42 0.297 0.015 0.123 0.016 0.328 0.074 0.421 0.156 0.247 0.335 0.201 0.322 0.593 0.062 3e-3 0.091 3e-3 0.124 0.025 0.032-0.054 1e-3 -0.142 0.024-0.222m0.223 0.643c0.098 8e-3 0.198 0.016 0.296 0.024 0.038 0.015 0.1 0.077 0.149 0.1 0.083 0.217 0.128 0.284 0.247 0.444 0.051 0.01 0.048 6e-3 0.074 0.025 0.425-0.017 0.534-0.246 0.742-0.469v-0.025h0.026c-0.013 0.052-0.023 0.089-0.05 0.123 0.177 0.134 0.338 0.088 0.445 0.297 0.125-0.035 0.065-0.055 0.124-0.148 0.043-0.069 0.186-0.083 0.223-0.149 0.12-0.22 0.078-0.554 0.271-0.693 0.163-0.115 0.478-0.114 0.594-0.272-0.096 0.042-0.258 0.084-0.346 0-0.292-0.107-0.107-0.473-0.198-0.792-0.072-0.253-0.303-0.222-0.297-0.593 0.046-0.043 0.07-0.088 0.124-0.124-0.196-0.153-0.373-0.2-0.519-0.42-0.073-0.11-0.017-0.261-0.074-0.371 0 0-0.183-0.159-0.199-0.174v-0.024h-0.049c0.031 0.272-0.023 1.285-0.198 1.41 0.171 0.102 0.303 0.012 0.371 0.223 0.084 0.128 2e-3 0.434-0.025 0.544-0.071 0.289-0.186 0.557-0.445 0.643-0.115 0.038-0.215-0.04-0.272-0.05-0.119-0.019-0.267 0.059-0.371-0.024-0.098-0.08-0.074-0.217-0.148-0.322-0.042-0.058-0.144-0.077-0.199-0.124-0.115 3e-3 -0.188 0.018-0.247 0.075-0.257 0.092-0.161 0.463-0.198 0.717 0.054 0.036 0.099 0.123 0.149 0.149m-0.05-3.043c-0.086 2e-3 -0.198 8e-3 -0.247-0.025h-0.025v0.099c0.086-3e-3 0.199-8e-3 0.247 0.025h0.025zm3.513 0.865c0.034-0.065 6e-3 -0.064-0.025-0.123h-0.024c0.019 0.064 0.03 0.058 0.049 0.123m-4.156 3.266c-0.28-0.087-0.564-0.021-0.718-0.223-0.036-0.047-0.015-0.093-0.048-0.148-0.086-0.139-0.175-0.135-0.174-0.396 0.133-0.125 0.455-0.542 0.594-0.594v-0.049c-0.278 0.063-0.468 0.094-0.817 0.074-0.057-0.053-0.154-0.084-0.197-0.148-0.127-0.186-0.269-0.898-0.075-1.139-0.039-0.152-0.171-0.118-0.247-0.222-0.117-0.159-0.092-0.411-0.075-0.643 0.127-0.122 0.244-0.194 0.421-0.272-0.167-0.501-0.229-1.061 0.371-1.188 0.196-0.041 0.269 0.131 0.371 0.149 0.061 0.01 0.065-0.037 0.124-0.05-0.106-0.703-0.088-1.136 0.717-1.113 0.036-0.626 0.592-0.669 1.114-0.519 0.21-0.426 0.895-0.621 1.212-0.149 0.112 0.166 0.02 0.397 0.074 0.643 0.052 0.237 0.041 0.654-0.074 0.817v0.098c0.403-0.24 0.571-0.979 1.385-0.742 0.142 0.042 0.238 0.15 0.347 0.223 0.042 0.15 0.15 0.5 0.024 0.668v0.025c0.205-0.028 0.467-0.092 0.644 0.024 0.041 0.05 0.082 0.1 0.124 0.149 0.068 0.032 0.143-0.012 0.197 0.025 0.056 0.037 0.033 0.119 0.074 0.173 0.025 8e-3 0.05 0.016 0.075 0.025 0.072 0.058 0.109 0.155 0.172 0.222 7e-3 0.316-0.062 0.5-0.247 0.618 0.042 0.03 0.122 0.025 0.173 0.05 0.074 0.036 0.13 0.106 0.198 0.149 0.043 0.156 0.067 0.249 0.05 0.444-0.088 0.094-0.132 0.232-0.222 0.323-0.115 0.112-0.673 0.3-0.965 0.222-0.153-0.04-0.258-0.146-0.371-0.222-0.013 0.034-0.03 0.118-0.05 0.148v0.099c0.462-0.184 1.35 0.298 1.46 0.643 0.058 0.082 0.044 0.227 0.024 0.322-0.071 0.339-0.106 0.556-0.519 0.544 0.045 0.176 0.173 0.446 0.098 0.717-0.085 0.311-0.612 0.793-0.964 0.421-0.227 0.23-0.417 0.453-0.841 0.421-0.159-0.149-0.317-0.213-0.421-0.421-0.09 0.058-0.088 0.305-0.149 0.396-0.212 0.32-0.564 0.623-1.013 0.42-0.12-0.054-0.205-0.095-0.248-0.223-0.109 0.012-0.131 0.054-0.198 0.075-0.083-9e-3 -0.165-0.016-0.248-0.025-0.034 0.014-0.088 0.103-0.123 0.124-0.169 0.096-0.463 0.017-0.593-0.074-0.24-0.022-0.45-0.609-0.446-0.891" fill="#ed561c" fill-rule="evenodd"/></g><g transform="translate(107.31 127.34)"><path d="m0 0c0.031-0.151-0.095-0.193-0.124-0.272v-0.223c-0.046-0.182-0.075-0.42-0.148-0.594-0.171-0.402-0.472-0.796-0.718-1.138-0.158-0.22-0.453-0.647-0.817-0.643-0.088-0.054-0.294 0.035-0.345 0.099-9e-3 0.033-0.017 0.066-0.026 0.099-0.071 0.062-0.175 0.038-0.222 0.124-0.102 0.186-0.025 1.211 0.025 1.41 0.016 0.062 0.049 0.284 0.099 0.322-0.024 0.044-0.074 0.071-0.05 0.173 0.113 0.476 0.389 0.945 0.742 1.187 0.155 0.106 0.355 0.117 0.52 0.223 0.123-0.026 0.369-0.045 0.47-0.074l0.123 0.024c0.068-0.02 0.102-0.117 0.149-0.148 0.044-0.028 0.089 0.011 0.124 0 0.019-0.055-3e-3 -0.172 0.024-0.248 0.035-0.094 0.151-0.213 0.174-0.321m4.947 1.608c0.046 0.137-2e-3 0.305 0.026 0.47 8e-3 0.06 0.054 0.058 0.024 0.099-0.043 0.072-0.086 0.039-0.124 0.124 0.086 0.035 0.167 0.182 0.248 0.222 0.124 0.112 0.334 0.015 0.445-0.024 0.149-0.017 0.297-0.033 0.446-0.05 0.169-0.055 0.316-0.165 0.494-0.198v-0.074c0.373 0.01 0.632-0.236 0.89-0.371 0.125-0.065 0.25-0.051 0.273-0.223h-0.024v-0.025h0.024c-0.218-0.246-0.596-0.512-0.94-0.618-0.217-0.066-0.625 0.028-0.792-0.099h0.025v-0.025c0.077-0.032 0.106-0.057 0.173-0.074 0.023-6e-3 0.067 0.044 0.124 0.025 0.064-0.021 0.119-0.121 0.173-0.148h0.124c0.128-0.068 0.213-0.326 0.297-0.446 0.175-0.252 0.69-0.696 0.766-0.965-8e-3 -0.082-0.015-0.165-0.024-0.247-0.072-0.04-0.088-0.074-0.124-0.148-0.292-7e-3 -0.547-0.043-0.791 0.049-0.208 0.078-0.416 0.275-0.644 0.322-0.094 0.019-0.255-0.111-0.371-0.075-0.34 0.105-0.871 0.903-0.965 1.262 0.096 0.064 0.043 0.099 0.124 0.149 0.04 0.036 0.05 0.038 0.123 0.049v0.099c0.088 0.018 0.463 0.084 0.471 0.025v0.123c0.029 0.021 0.027 0.02 0.049 0.05h-0.297c-0.17 0.139-0.564 0.061-0.742 0.222h0.025c0.035 0.062 0.015 0.054 0.099 0.075 0.042 0.028 0.121 0.026 0.198 0.024 0.03 0.175 0.148 0.273 0.197 0.421m-0.074 5.616c0.282 0.172 0.701 0.283 1.015 0.396 0.189 0.068 0.54 0.074 0.668 0 0.059-0.036 0.106-0.141 0.173-0.174 0.119-0.059 0.149 7e-3 0.198-0.123-0.051-0.082-0.011-0.19-0.05-0.297-0.065-0.182-0.37-0.614-0.494-0.792-0.239-0.34-0.611-0.597-0.842-0.94h0.025c0.186 0.138 1.088 0.082 1.311 0 0.097-0.036 0.159-0.179 0.223-0.223 0.112-0.076 0.16 0.039 0.198-0.123-0.044-0.047-0.046-0.02-0.026-0.074 0.132-0.1 0.398-0.181 0.496-0.223-0.14-0.55-0.797-0.774-1.411-0.941-0.28-7e-3 -0.56-0.016-0.84-0.024-0.118 0.048-0.202 0.181-0.297 0.247-0.078 0.055-0.323 0.135-0.199 0.297-0.068 0.087-0.12 0.048-0.123 0.223 0.063 0.046 0.087 0.128 0.123 0.198-0.107 0.026-0.121 0.039-0.123 0.173 0.045 0.032 0.091 0.079 0.123 0.124-0.018 0.026-0.014 0.023-0.024 0.074h-0.099v0.025h-0.025c0.014 0.039 0.021 0.059 0.025 0.123-0.172 3e-3 -0.156 0.055-0.296 0.075-0.014 0.353-0.327 1.008-0.644 1.014 2e-3 0.014 0.144 0.464 0.148 0.47 0.097 0.121 0.31 0.163 0.446 0.247 0.108 0.068 0.211 0.181 0.321 0.248m-10.291 0.173c0.045 0.07 0.094 0.043 0.123 0.148-0.044 0.047-0.046 0.02-0.024 0.075 0.059 0.199 0.271 0.186 0.445 0.272 0.123 0.061 0.229 0.181 0.371 0.222 0.158 0.046 0.383 5e-3 0.47-0.049v-0.05c0.059-0.029 0.217 0.028 0.297 0 0.064-0.022 0.119-0.121 0.173-0.148h0.124c0.057-0.074 0.116-0.148 0.173-0.222 0.088-1.055-0.296-1.07-0.717-1.633-0.137-0.183-0.267-0.454-0.446-0.594-0.118-0.094-0.322-0.029-0.469 0-0.116-0.18-0.272-0.346-0.421-0.495-0.223-0.013-0.492-0.079-0.52 0.148-0.082 3e-3 -0.112 0.012-0.173 0.025v0.049c-0.079 0.126 0.075 0.368 0.075 0.52-0.049 0.083 0.064 0.461 0.098 0.569 0.077 0.247 0.062 0.522 0.173 0.742 0.049 0.095 0.182 0.163 0.223 0.248 0.03 0.061-7e-3 0.123 0.025 0.173m7.817 3.389c0.094 0.104 0.114 0.27 0.149 0.371 0.115 0.07 0.247 0.158 0.395 0.198h0.446c0.159 0.04 0.308 0.129 0.421 0.223 0.439 9e-3 0.927-0.027 1.187-0.173 0.274-0.154 0.444-0.42 0.767-0.545-0.13-0.495-0.452-0.492-0.965-0.643h-0.197c-0.119-0.04-0.623-0.226-0.842-0.148-0.18 0.064-0.371 0.19-0.569 0.222-0.227 0.037-0.447 0.045-0.545 0.198v0.099c-0.089 0.108-0.217 6e-3 -0.247 0.198m-11.751 1.707c-0.034 0.031-0.044 0.034-0.099 0.049v0.075c0.057 0.066 0.123 0.132 0.174 0.198-0.041 0.044-0.044 0.062-0.05 0.148 0.066 0.041 0.132 0.083 0.198 0.124 0.213 0.068 1.129-8e-3 1.286-0.049h0.297c0.142-0.039 0.477-0.223 0.644-0.124-0.223 0.061-0.818 0.781-0.916 0.989v0.124c-0.033 0.016-0.066 0.033-0.099 0.05-0.129 0.159-0.259 0.326-0.371 0.494-0.145 0.219-0.265 0.443-0.074 0.619 0.039 0.03 0.11 0.043 0.148 0.074 0.34 6e-3 0.526-0.075 0.768-0.123 0.122-0.025 0.26 0.046 0.42 0 0.124-0.037 0.199-0.151 0.297-0.199 0.057-8e-3 0.115-0.016 0.172-0.024 0.05-0.028 0.425-0.354 0.446-0.396 8e-3 -0.074 0.016-0.148 0.025-0.223 0.092-0.191 0.237-0.389 0.321-0.593 0.063-0.152 0.044-0.659 0.05-0.668 0.025-9e-3 0.049-0.017 0.074-0.025 0.061-0.087 0.177-0.274 0.198-0.371 0.011-0.052-0.041-0.248-0.049-0.297-0.015-0.088 0.062-0.122 0.049-0.198-0.012-0.072-0.201-0.414-0.297-0.47-0.228-0.193-0.561-0.198-0.865-0.322-0.115-0.046-0.271-0.154-0.372-0.198-0.165-8e-3 -0.33-0.016-0.495-0.024-0.465 0.184-0.92 0.484-1.261 0.866-0.101 0.112-0.418 0.278-0.47 0.395-0.059 0.089 0.029 0.094-0.149 0.099m8.881 3.86h-0.024v-0.025c-0.104 0.022-0.084 0.049-0.149 0.099 0.013 0.339 0.116 0.654 0.149 0.94 0.139-0.192 0.034-0.885 0.024-1.014m1.831-1.262c0.143 0.087 0.279 0.252 0.421 0.346 0.06 0.04 0.185 0.041 0.223 0.099v0.124c0.02 0.027 0.104 0.017 0.123 0.049 9e-3 0.091 0.017 0.182 0.025 0.272 0.024 0.082 0.097 0.2 0.123 0.272 0.104 0.282-0.074 0.759 0.075 0.99v0.594c-0.054 0.069-0.112-0.039-0.173 0-0.017 0.01-0.03 0.084-0.05 0.099-0.128 0.09-0.434 0.117-0.568 0l-0.05-0.025v-0.123c-0.477-0.036-0.591-0.653-0.891-0.891v-0.05c-0.091 0.124-0.066 0.341-0.124 0.495-0.123 0.334-0.389 0.707-0.395 1.114-0.153 0.031-0.339 0.167-0.495 0.197-0.256 0.05-0.392-0.294-0.495-0.42-0.079-0.097-0.272-0.095-0.346-0.198-0.158-0.218-0.144-0.515-0.273-0.767h-0.024c-0.033-0.055-0.07-0.036-0.099-0.074v-0.124c-0.021-0.028-0.103-0.017-0.124-0.05-0.069-0.11 0.033-0.086-0.098-0.173-2e-3 -0.34 4e-3 -0.663 0.148-0.866 0.055-0.123 0.073-5e-3 0.173-0.074 9e-3 -0.033 0.016-0.066 0.024-0.099 0.078-0.058 0.254-0.029 0.298-0.049 0.147-0.099 0.095-0.189 0.173-0.272 0.028-0.031 0.14-0.027 0.173-0.05 0.018-0.026 0.015-0.023 0.024-0.074 0.327-0.034 0.75-0.052 1.188-0.05 6e-3 -0.057 5e-3 -0.069 0.025-0.098 0.19-0.144 0.739-0.276 0.989-0.124" fill="#7b9933" fill-rule="evenodd"/></g><g transform="translate(108.42 129.79)"><path d="m0 0c-0.021-0.071-0.265-0.727-0.297-0.742h-0.223c-0.039 0.067-0.022 0.062-0.124 0.074 5e-3 0.252 0.071 0.384 0.075 0.618-0.081 0.019-0.163 0.057-0.199 0.124-0.034 0.047-0.033 0.151 0 0.198 0.061 0.201 0.325 0.328 0.594 0.322 0.033-0.031 0.089-0.046 0.124-0.074 0.027-0.039 0.026-0.102 0.025-0.174 0.032-0.046 0.05-0.261 0.025-0.346m2.103 0.643h0.024v-0.148c-0.098-0.068-0.096-0.12-0.272-0.124 0.025-0.186 0.049-0.419 0.049-0.668-0.101-0.072-0.227-0.231-0.345-0.272-0.154-0.053-0.33 0.059-0.372 0.025-0.12-0.083-0.168-0.257-0.322-0.297-0.249-0.173-0.789 0.115-0.841 0.247-0.021 0.032-0.021 0.061-0.024 0.124 0.077 0.048 0.042 0.062 0.074 0.099 0.047 0.046 0.087 0.062 0.173 0.074 0.073-0.048 0.254-0.05 0.321-0.099 0.044-0.032 0.01-0.067 0.075-0.099 0.135 0.226 0.435 0.348 0.668 0.47 0.016 0.153 0.073 0.306 0.099 0.445 0.066 9e-3 0.132 0.017 0.197 0.025v0.05h-0.024v0.025c-0.368 6e-3 -0.373 0.286-0.668 0.346-0.038 0.017-3e-3 3e-3 -0.074 0-0.024-0.122-0.082-0.107-0.223-0.099-0.023-0.013-0.289-7e-3 -0.395 0.025-0.063 0.018-0.154 0.083-0.223 0.099-0.202 0.043-0.736-0.02-0.792 0.247 0.042 0.032 0.016 0.063 0.05 0.099 0.086 0.091 0.301 0.092 0.395 0.173-0.012 0.06-0.04 0.03 0.025 0.074 0.233 0.205 0.532-0.132 0.693-0.074 0.262 0.074 0.42 0.337 0.791 0.124 0.099-0.056 0.16-0.035 0.223-0.124 0.043-0.067 0.058-0.248 0.074-0.322 0.127-0.053 0.574-0.352 0.644-0.445m-4.652 10.118c-0.018 0.027-0.014 0.023-0.024 0.074h0.024zm0.718-0.073c-0.106 0.16-0.051 0.409-0.173 0.543-0.067 0.123-0.362 0.202-0.471 0.1-0.108-0.057-0.155-0.195-0.148-0.372-0.216 0.053-0.086 0.3-0.223 0.446-0.165 0.124-0.555 0.255-0.742 0.074-0.173-0.072-0.181-0.343-0.297-0.421h-0.197l-0.198-0.123c-0.023-0.092-0.079-0.15-0.099-0.223-0.061-0.223 0.11-0.28-0.05-0.52-0.028-0.017-0.251 0.02-0.321-0.024-0.084-0.036-0.082-0.099-0.148-0.148 0.031-0.076 0.049-0.132 0.048-0.248 0.148-0.027 0.328-0.132 0.421-0.223h0.025c-0.024-0.043-0.033-0.041-0.049-0.099 0.06-0.057 0.119-0.135 0.197-0.173 0.064-0.031 0.147-0.016 0.198-0.049 0.241-3e-3 0.288 0.042 0.421 0.124v0.049c-0.21 0.096-0.08 0.217-0.322 0.321 9e-3 0.05 0.017 0.099 0.025 0.149 0.125 0.012 0.192 0.012 0.322 0.025-0.022 0.131-0.081 0.244 0 0.346 0.066 0.207 0.592 0.543 0.816 0.247 0.163 0.034 0.053 0.055 0.124 0.174 0.018 0.029 0.075 0.038 0.099 0.074 0.047-0.029 0.189-0.464 0.198-0.545 0.077-7e-3 0.039-8e-3 0.099 0-0.011-0.315-0.175-0.427-0.247-0.668-0.044-0.143 8e-3 -0.387-0.05-0.519-0.033-0.025-0.066-0.049-0.099-0.074-0.101-0.156-0.206-0.38-0.248-0.569 0.066-0.06 0.159-0.11 0.223-0.174h0.222c0.099 0.044 0.104 0.197 0.174 0.272 0.049 0.017 0.099 0.034 0.149 0.05 0.069 0.048 0.283 0.251 0.321 0.322 0.024 0.181 0.05 0.363 0.074 0.544 0.033 0.075 0.134 0.132 0.173 0.198 0.15 0.25 0.158 0.696 0.025 0.965-0.118 0.043-0.196 0.069-0.272 0.149" fill="#eccea0" fill-rule="evenodd"/></g><g transform="translate(110.87 124.39)"><path d="m0 0c-0.029-0.059-0.059-0.059-0.024-0.124v-0.049c0.064 5e-3 0.084 0.011 0.124 0.025-3e-3 0.063-3e-3 0.091-0.025 0.124-0.027 0.018-0.023 0.015-0.075 0.024m-0.444 0.148c-0.036-0.07-0.039-0.046-0.026-0.123 0.058 8e-3 0.062 0.012 0.1 0.025-0.019 0.09 2e-3 0.069-0.074 0.098m0.42 0.124c-0.042-0.097-0.123-0.126-0.198-0.124-6e-3 -0.057-6e-3 -0.069-0.025-0.098v-0.074c0.043-0.017 0.024-5e-3 0.05-0.025 0.171 0.022 0.074 0.067 0.148 0.099 0.041-8e-3 0.082-0.017 0.124-0.025 0.036 0.015 0.038 0.055 0.099 0.075-0.015 0.095-0.038 0.109-0.074 0.172zm-6.655 0.693c-0.085-0.029-0.127-0.081-0.198-0.124-0.06-0.271-0.145-0.368-0.124-0.668 0.296 2e-3 0.312 0.483 0.371 0.693-0.044 0.039-0.035 0.022-0.049 0.099m-0.767 0.544c-0.019-0.027-0.016-0.023-0.025-0.074-0.05-0.01-0.048-6e-3 -0.074-0.025-0.11-0.087-0.034-0.12-0.099-0.223h-0.025c-0.03-0.034-0.094-0.037-0.123-0.074-0.063-0.077-0.095-0.161-0.174-0.222v-0.099c-0.1-0.027-0.082-0.07-0.147-0.124-1e-3 -0.067-2e-3 -0.113-0.026-0.148 8e-3 -0.057 0.012-0.062 0.026-0.099 0.042-0.016 0.023-5e-3 0.049-0.025 0.265 0.048 0.369 0.302 0.495 0.495 0.1 0.154 0.287 0.275 0.395 0.421 0.037 0.049 0.013 0.118 0.05 0.173 0.027 0.04 0.114 0.038 0.148 0.074 0.099 0.101 0.11 0.258 0.223 0.346 1e-3 0.095-4e-3 0.187-0.025 0.247-0.205-0.03-0.61-0.471-0.668-0.643m2.252 0.619v0.123c-0.071-2e-3 -0.107-9e-3 -0.149-0.024 5e-3 -0.064 0.011-0.084 0.025-0.124 0.05 0.01 0.047 6e-3 0.074 0.025zm0.024 0.198c0.027 0.023 3e-3 0.062-0.024 0.099v-0.124h0.024zm-3.266 0.247c-0.098-0.039-0.199-0.127-0.296-0.173 3e-3 -0.063 3e-3 -0.092 0.025-0.124 0.227-0.172 0.84 0.221 0.989 0.322-0.113 0.078-0.239 0.054-0.371 0.074-0.105-0.079-0.204-0.043-0.347-0.099m1.411 1.41c-0.025 9e-3 -0.05 0.017-0.075 0.025v-0.025h-0.024c5e-3 -0.064 0.011-0.084 0.024-0.124 0.069-0.015 0.117-0.042 0.149-0.024 0.052 0.032 0.075 0.146 0.098 0.198-0.05 0.031-0.055 0.052-0.123 0.074-0.028-0.051-0.037-0.045-0.049-0.124m0.296 0.173c-0.077-0.014-0.06-4e-3 -0.098-0.049h-0.026v-0.025c0.031-0.026 0.041-0.049 0.075-0.074 0.031-0.019 0.024-2e-3 0.099 0v0.099c-0.029 0.022-0.028 0.02-0.05 0.049m-0.346 0.05h0.025v0.049c-0.025 9e-3 -0.05 0.017-0.074 0.025-0.022-0.029-0.021-0.028-0.05-0.05v-0.074c0.077 0.015 0.06 5e-3 0.099 0.05m0.148 0.173h0.026v0.025h-0.05c0.015-0.043 5e-3 -0.024 0.024-0.05zm0.124 0.074c-9e-3 0.051-6e-3 0.048-0.024 0.074-0.026 0.02-7e-3 0.01-0.05 0.026v-0.026h-0.024c0.015-0.042 5e-3 -0.024 0.024-0.049 0.026-0.019 0.023-0.016 0.074-0.025m-0.198 0.248c-0.017 0.1-0.035 0.121-0.123 0.148-0.028-0.038-0.027-0.02-0.05-0.074-0.019-0.026-9e-3 -6e-3 -0.024-0.05 0.022-0.023 0.033-0.042 0.049-0.074 0.085 0.015 0.077 0.029 0.148 0.05m0.297 0.049c4e-3 0.071 0.017 0.036 0 0.075v0.049h-0.099c-8e-3 -0.025-0.016-0.049-0.024-0.074 0.019-0.026 9e-3 -6e-3 0.024-0.05zm11.257 0.371c0.115-0.134 0.708-0.322 0.965-0.321-0.062 0.33-0.624 0.18-0.867 0.321zm1.261 0.669c-0.014 0.095-0.037 0.109-0.074 0.172-0.178 0.072-0.411-0.01-0.569 0.025-0.302 0.068-0.583 0.063-0.94 0.124-0.172 0.03-0.272-0.021-0.42 0.025-0.082-0.058-0.252-0.097-0.372-0.099 0.303-0.359 1.307-0.164 1.683-0.297 0.109-0.039 0.541-0.031 0.618 0.025 0.025 8e-3 0.05 0.016 0.074 0.025m-13.804 3.586c3e-3 -0.062 3e-3 -0.091 0.024-0.123v-0.025c0.058 0.019 0.056 0.025 0.1 0.049-8e-3 0.057-0.012 0.062-0.026 0.099zm0.05 0.272h-0.075c-0.029-0.035-0.06-0.071-0.098-0.098v-0.05c0.042-0.016 0.023-5e-3 0.049-0.024 0.107 6e-3 0.102 0.023 0.172 0.049-0.013 0.079-0.021 0.072-0.048 0.123m-4.182 0.05c-0.018-0.066-7e-3 -0.059 0-0.148 0.051-0.01 0.048-7e-3 0.074-0.025h0.026c-0.03 0.083-0.057 0.074-0.075 0.173zm4.33 0.099c-0.052-0.085-0.051-0.048-0.05-0.149 0.089-7e-3 0.068-8e-3 0.149 0.025-0.012 0.108-8e-3 0.099-0.099 0.124m-4.082 0.346h0.024c-0.015 0.043-4e-3 0.024-0.024 0.05zm-1.608 0.025c-0.033 0.068-0.096 0.103-0.173 0.124-0.036-0.107-5e-3 -0.156 0.024-0.248 0.043-0.016 0.025-4e-3 0.05-0.024 0.145 4e-3 0.159 0.072 0.099 0.148m2.894 0.371c6e-3 -0.057 5e-3 -0.07 0.025-0.099 0.036-0.024 0.126 4e-3 0.173-0.024 0.038-0.024 0-0.066 0.099-0.1 0.069 0.074 0.149 0.153 0.223 0.223v0.025c-0.143 0.035-0.26 0.077-0.421 0.099-0.025-0.072-0.042-0.087-0.099-0.124m-1.212 0.148c-0.026-0.018-0.023-0.015-0.074-0.024v-0.025h-0.025v-0.049c0.029-0.022 0.071-0.049 0.099-0.075 0.012-0.019 2e-3 -0.07 0-0.148h0.025v-0.025c0.07 3e-3 0.105 0.01 0.148 0.025-8e-3 0.128-0.098 0.277-0.173 0.321m0.891 0.174c-5e-3 -0.065-0.011-0.084-0.026-0.124 0.039-0.026 0.05-0.036 0.075-0.074h0.099c0.016 0.043 5e-3 0.024 0.025 0.049-0.012 0.135-0.058 0.131-0.173 0.149m-3.019 0.494c-0.044-0.03-0.156-0.053-0.198-0.074-0.013-0.148-0.038-0.182-0.024-0.322h0.024v-0.024c0.051 0.01 0.048 6e-3 0.075 0.024 0.134 9e-3 0.127 0.043 0.223 0.075 4e-3 0.175-0.014 0.243-0.1 0.321m13.681 0.99c-0.022-0.058-9e-3 -0.041-0.049-0.074v-0.049h0.049c0.012 0.068 0.03 0.071 0 0.123m-0.445 0v0.099c-0.079-0.014-0.072-0.022-0.123-0.049 7e-3 -0.025 0.016-0.05 0.024-0.075 0.057 9e-3 0.062 0.012 0.099 0.025m-0.173 0.025c0.018 0.026 0.015 0.023 0.024 0.074h-0.098v-0.099h0.074zm1.311-0.099c0.093 9e-3 0.092 0.019 0.148 0.049-0.032 0.095-0.096 0.127-0.198 0.149-5e-3 -0.057-4e-3 -0.07-0.024-0.099 8e-3 -0.025 0.017-0.05 0.024-0.074 0.043-0.016 0.025-5e-3 0.05-0.025m-0.446 0.099c0.089 0.011 0.063-0.013 0.1 0.049 0.019 0.026 8e-3 7e-3 0.024 0.05-0.028 0.021-0.027 0.02-0.049 0.049h-0.075c-0.02-0.062-0.02-0.085 0-0.148m-0.123 0.148c-0.021 0.085-0.013 0.063-0.074 0.099-0.038-0.078-0.027-0.03-0.025-0.123 0.057 7e-3 0.062 0.011 0.099 0.024m-0.297 1.163c-0.023-0.022-0.043-0.034-0.074-0.05v-0.049c0.071-3e-3 0.036-0.018 0.074 0h0.05c-0.016 0.077-5e-3 0.061-0.05 0.099m-0.099 0.989c-0.049-0.043-0.119-0.089-0.173-0.123v-0.025h0.025c0.042-0.029 0.063-0.021 0.123-0.049 0.025 0.037 0.037 0.048 0.074 0.074-8e-3 0.088-1e-3 0.082-0.049 0.123m-14.027 0.496c0.036-0.035 0.072-0.081 0.099-0.125 0.286-0.013 0.907-0.257 1.113-0.123 0.043 0.016 0.024 5e-3 0.05 0.025-0.084 0.034-0.103 0.113-0.174 0.148h-0.099c-0.017 8e-3 -0.061 0.07-0.074 0.075-0.075 0.028-0.125-0.043-0.173-0.025-0.026 9e-3 -0.065 0.086-0.098 0.099-0.163 0.062-0.469 0.066-0.595 0.074-0.016-0.05-0.032-0.099-0.049-0.148m15.462 0.89c-0.043-0.049-0.053-0.047-0.148-0.049-0.016-0.043-5e-3 -0.025-0.025-0.05 0.011-0.109 0.039-0.141 0.074-0.223 0.076-9e-3 0.084-0.021 0.149 0.025h0.049c0.015 0.068 0.041 0.137 0 0.198-0.027 0.058-0.048 0.069-0.099 0.099m-14.992 1.707h0.098c0.285-0.206 0.578-0.44 0.892-0.618 0.106-0.061 0.268-0.036 0.371-0.099h0.073c-0.076 0.231-0.467 0.529-0.668 0.643-0.098 0.056-0.213 0.052-0.296 0.123-0.195 0.17-0.41 0.366-0.717 0.421-0.018-0.091-0.061-0.106-0.026-0.173 0.018-0.067 0.221-0.267 0.273-0.297m3.958 0.94c0.031-0.014 0.075-0.03 0.099-0.049 0.06 0.022 0.04 0.027 0.099 0.049v0.025c-0.029 0.021-0.028 0.02-0.05 0.049h-0.148zm0.05 0.124 0.049 0.074c0.018 0.027 0.021 0.047 0 0.074-0.028 0.058-0.023 0.045-0.074 0.075-0.028-0.044-0.061-0.09-0.099-0.124 0.01-0.051 6e-3 -0.048 0.025-0.074 0.043-0.029 0.047-9e-3 0.099-0.025m0.248 0.223c0.014-0.02 0-7e-3 0.024 0 0.025 8e-3 0.049 0.016 0.074 0.024-0.013 0.126-0.049 0.122-0.098 0.198h-0.076c-0.011-0.052-0.021-0.089-0.048-0.124 0.029-0.076 0.04-0.078 0.124-0.098m-2.03-0.174h0.026c-0.032 0.25-0.213 0.518-0.397 0.619-0.04-0.029-0.133-0.055-0.173-0.074 0.105-0.365 0.278-0.36 0.544-0.545m1.954 0.594c0.036-0.026 0.098-0.04 0.149-0.049 0.026 0.019 6e-3 9e-3 0.05 0.024-8e-3 0.058-0.017 0.116-0.025 0.174h-0.074c8e-3 0.032 0.017 0.066 0.025 0.098-0.142-0.027-0.052-0.102-0.075-0.123-0.057-0.055-0.066 0.022-0.098-0.074 0.021-0.019 0.027-0.032 0.048-0.05m9.773 1.138c-0.033 0.039-0.016 0.029-0.074 0.05-0.08-0.077-0.174-0.084-0.273-0.149-0.093-0.062-0.126-0.184-0.197-0.272v-0.05c0.33 2e-3 0.375 0.127 0.594 0.198-1e-3 0.104-6e-3 0.168-0.05 0.223m-2.796-18.728v-0.123c0.014-0.02 0.084-0.025 0.1-0.049 0.045-0.075 7e-3 -0.136 0.048-0.223 0.051-0.107 0.19-0.251 0.223-0.372l-0.024-0.123c0.037-0.108 0.173-0.213 0.222-0.322 0.048-0.105 8e-3 -0.178 0.05-0.297 0.037-0.106 0.145-0.207 0.197-0.296 0.045-0.076 0.032-0.228 0.075-0.298 0.025-7e-3 0.049-0.016 0.074-0.024 0.083-0.139 0.106-0.297 0.174-0.445h0.024c0.04 0.459 0.323 0.842 0.347 1.336h-0.026c-0.059-0.042-0.17-0.017-0.222 0.024-0.081 0.08-0.076 0.187-0.099 0.297-0.057 7e-3 -0.061 0.011-0.099 0.025-0.035-0.161-0.07-0.061-0.198-0.124-0.087-0.043-0.042-0.112-0.197-0.124v0.025h-0.025c0.013 0.04 0.019 0.06 0.025 0.124 0.12 0.084 0.121 0.15 0.346 0.148-0.031 0.133-0.091 0.095-0.099 0.273h0.024c0.027-0.019 0.024-0.016 0.075-0.025v0.074c-0.232 5e-3 -0.201 6e-3 -0.396-0.025-0.037 0.057-0.053 0.075-0.124 0.099-0.026-0.097-0.028-0.095-0.148-0.099v0.049c-0.125 0.144 0.029 0.344 0 0.421-0.019 0.048-0.087 0.019-0.099 0.173 0.09 0.016 0.247 0.116 0.297 0.223h0.024v0.025h-0.098c-0.033-0.023-0.031 8e-3 -0.074-0.025-0.162-0.052-0.093-0.185-0.273-0.223v0.025h-0.024c0.028 0.182-0.104 0.417-0.248 0.495-0.057 0.056-0.108 0.071-0.223 0.074v-0.05c0.084-0.065 0.212-0.296 0.248-0.395 9e-3 -0.025-0.052-0.047-0.025-0.099 0.021-0.042 0.123-0.094 0.148-0.149m0.816-0.025h-0.048c-0.038-0.08-0.043-0.104-0.149-0.123-0.042 0.049-0.083 0.099-0.124 0.148h-0.074c0.03-0.158 0.063-0.151 0.024-0.297 0.031-0.021 0.029-0.02 0.05-0.049 0.125 0.113 0.198 0.08 0.321 0.025-0.023 0.158-0.014 0.112 0 0.296m-1.36 1.386c0.266 0.053 0.281 0.179 0.544 0.247 6e-3 -0.018 0.19-0.362 0.198-0.371 0.057-0.059 0.184-0.072 0.247-0.123 0.12 0.021 0.266 0.049 0.371 0.074 0.073 0.12 0.13 0.272 0.223 0.371 0.175-0.033 0.498-0.265 0.619-0.371 0.179 0.044 0.449 0.138 0.52 0.347-0.021 0.045-0.03 0.44-0.05 0.494-0.037 0.095-0.191 0.21-0.247 0.297-0.057 0.087-0.076 0.218-0.124 0.296-0.037-0.012-0.042-0.016-0.099-0.024-0.024-0.132-0.208-0.241-0.322-0.272-0.074 8e-3 -0.148 0.016-0.223 0.024-0.173-0.035-0.452 0.112-0.568 0.223-0.31-0.163-0.389 0.018-0.668 0.049-0.028-0.117-0.41-0.679-0.495-0.741-0.076-0.056-0.175-0.067-0.247-0.124 0.025-0.038 0.025-0.101 0.024-0.173 0.043-0.034 0.015-0.061 0.05-0.099 0.055-0.061 0.187-0.067 0.247-0.124m-0.074-0.272c-0.214 0.092-0.249 0.125-0.396 0.272h-0.049c-0.054 0.069-0.041 0.139-0.099 0.198v0.148c-0.143 0.01-0.227 0.067-0.347 0.1v-0.025c0.1-0.086 0.067-0.46 0.025-0.594-0.093-0.297-0.187-0.821-0.322-1.138v-0.173c-0.024-8e-3 -0.048-0.017-0.074-0.025v-0.124c-0.024-8e-3 -0.05-0.016-0.074-0.025-8e-3 -0.082-0.017-0.164-0.024-0.247-0.043-0.134-0.149-0.34-0.273-0.396-0.032-0.022-0.061-0.022-0.124-0.024-8e-3 0.306 0.083 0.438 0.174 0.618-9e-3 0.025-0.017 0.049-0.026 0.074 0.043 0.104 0.062 0.049 0.026 0.173 0.041 0.058 0.082 0.116 0.123 0.174-0.059 0.042-0.075 0.098-0.123 0.148 0.046 0.111 0.033 0.223 0.074 0.322-0.199 0.041-0.285 0.104-0.272 0.371 0.029 0.021 0.027 0.02 0.049 0.049h-0.049v-0.024c-0.695-0.717-0.443-1.935-0.075-2.771 0.317 0.188 0.646 0.581 0.915 0.841 0.124 0.119 0.061 0.301 0.273 0.346-0.018 0.231 0.153 0.445 0.223 0.668 0.107 0.344 0.02 0.791 0.247 0.965 0.054 0.032 0.146 5e-3 0.198 0.099m-2.028 2.821c0.032 0.098 0.065 0.197 0.098 0.296 0.028 0.038 0.236 0.271 0.273 0.297h0.074c0.059 0.054 0.075 0.18 0.123 0.247 0.092 0.128 0.223 0.175 0.347 0.273 0.099 0.078 0.036 0.157 0.222 0.173 9e-3 0.051 6e-3 0.047 0.025 0.074 0.118 0.137 0.237 0.195 0.396 0.297 0.017 0.033 0.033 0.066 0.049 0.099h0.1c0.039 0.027 0.031 0.12 0.074 0.148 0.084 0.056 0.158 0.045 0.247 0.099 0.031 0.019 0.024 0.076 0.05 0.099 0.094 0.089 0.196 0.11 0.321 0.173 0.154 0.079 0.313 0.27 0.47 0.347h0.124c0.05 0.057 0.098 0.115 0.148 0.173h0.099c0.016 0.011 0.033 0.088 0.05 0.099h0.098c0.026 0.041 0.05 0.082 0.074 0.124 0.058 0.043 0.149 0.048 0.199 0.098 0.066 0.068 0.097 0.165 0.173 0.223 0.058 0.045 0.141 0.049 0.198 0.099 0.028 0.025 0.018 0.099 0.05 0.124 0.503 0.4 1.012 0.781 1.384 1.311 0.03 0.042 0.12 0.037 0.149 0.074 9e-3 0.05 0.016 0.099 0.025 0.148 0.06 0.092 0.21 0.137 0.272 0.223 8e-3 0.05 0.016 0.099 0.025 0.149 0.029 0.047 0.123 0.098 0.149 0.148v0.099c0.044 0.112 0.152 0.257 0.197 0.371 0.132 0.332 0.102 0.769 0.248 1.088h-0.026c-0.06-0.065-0.143-0.126-0.247-0.148 0.012 0.075 0.049 0.078 0.025 0.099 0 0-0.011 0.099-0.025 0.049v-0.024c-0.03-0.039-0.031-0.123-0.074-0.148-0.113-0.069-0.146 0.01-0.198-0.124h0.025v-0.025c0.067 0.033 0.164 0.079 0.223 0.049 0.037-0.04 0.038-0.049 0.049-0.123-0.025-8e-3 -0.049-0.017-0.074-0.025-0.113-0.07-0.412-0.01-0.569-0.025-9e-3 0.077-0.035 0.193-0.075 0.248-0.025 0.018-0.022 0.015-0.073 0.025-0.103-0.108-0.3-0.113-0.421-0.1-0.016 0.044-5e-3 0.025-0.025 0.05 8e-3 0.025 0.016 0.05 0.025 0.074h0.024v0.025c0.07-0.016 0.09-0.044 0.124-0.025 0.054 0.064 0.089 0.142 0.099 0.247h-0.024v-0.024c-0.059-0.051-0.037-0.062-0.149-0.075-0.038 0.078-0.061 0.164-0.148 0.199-0.027 0.018-0.043 0.016-0.124 0.025-0.021-0.124-0.078-0.169-0.099-0.297h0.124c0.024 0.041 0.049 0.082 0.074 0.123l0.123-0.05c9e-3 -0.024 0.017-0.049 0.026-0.073-0.09-0.064-0.093-0.147-0.223-0.174-0.048 0.041-0.109 0.078-0.174 0.099 0.031-0.163-0.218-0.355-0.321-0.47-0.041-0.046-0.038-0.123-0.074-0.173-0.107-0.147-0.299-0.269-0.396-0.421v-0.074c-0.051-0.074-0.179-0.087-0.223-0.123-0.047-0.04-0.055-0.152-0.099-0.199-0.052-0.055-0.15-0.09-0.197-0.148-0.043-0.052-0.046-0.132-0.099-0.173l-0.1-0.025c-0.046-0.042-0.054-0.129-0.098-0.173-0.062-0.061-0.154-0.068-0.223-0.124-0.065-0.05-0.09-0.164-0.148-0.222-0.152-0.15-0.347-0.243-0.52-0.371-0.057-0.042-0.074-0.126-0.124-0.174-0.044-0.042-0.126-0.033-0.173-0.073-9e-3 -0.025-0.016-0.05-0.025-0.075-0.093-0.068-0.172-0.087-0.272-0.149-0.033-0.041-0.066-0.082-0.099-0.123-0.059-0.036-0.117-0.01-0.173-0.049-0.069-0.049-0.089-0.181-0.173-0.223h-0.124c-0.041-0.058-0.082-0.116-0.124-0.173-0.128-0.097-0.265-0.149-0.395-0.248-0.069-0.052-0.178-0.213-0.248-0.272-0.041-8e-3 -0.083-0.017-0.124-0.025-0.148-0.089-0.274-0.307-0.42-0.395-0.049-9e-3 -0.099-0.017-0.149-0.025-0.072-0.044-0.202-0.274-0.271-0.346-0.115-0.118-0.254-0.207-0.371-0.322-9e-3 -0.041-0.017-0.083-0.026-0.124-0.033-0.059-0.102-0.077-0.148-0.124-0.077-0.079-0.103-0.183-0.173-0.272-0.023-0.028-0.104-0.022-0.124-0.05v-0.123c-0.027-0.048-0.117-0.057-0.149-0.099-0.072-0.099-0.066-0.209-0.123-0.322-0.327-0.64-0.519-1.13-0.297-1.904 8e-3 -0.083 0.017-0.165 0.025-0.248 0.027-0.062 0.121-0.157 0.148-0.223v-0.123c0.034-8e-3 0.067-0.017 0.099-0.025 0.039-0.029 0.041-0.091 0.074-0.123 0.072-0.07 0.2-0.08 0.273-0.149 0.015-0.015 9e-3 -0.087 0.024-0.099l0.1 0.025c0.02-9e-3 0.046-0.058 0.074-0.074 6e-3 0.123 0.026 0.105 0.074 0.173 0.071-1e-3 0.034-0.024 0.074 0 0.113 0.151-3e-3 0.173 0.025 0.296 0.013 0.063 0.094 0.092 0.124 0.149-0.046 0.039-0.035 0.022-0.05 0.099 0.054 0.033 0.089 0.068 0.148 0.099v0.024c-0.096 0.011-0.138 0.026-0.172 0.1-0.021 0.029-0.02 0.041-0.026 0.099h0.05c0.049-0.024 0.148 0.022 0.198 0 0.089-0.087 0.126-0.263 0.149-0.421-0.067-0.033-0.132-0.066-0.199-0.099 0.016-0.082-6e-3 -0.069-0.024-0.173h0.024c0.079 0.11 0.128 0.044 0.273 0.025v0.025h0.024c7e-3 0.057 0.011 0.061 0.025 0.098-0.058 0.018-0.055 0.026-0.099 0.05v0.198c0.139 2e-3 0.098-5e-3 0.223-0.025-0.075 0.812 0.024 1.185 0.421 1.683m-0.149-2.054c-0.092 0.089-0.122 0.188-0.198 0.297-0.025 0.02-7e-3 8e-3 -0.05 0.025-8e-3 -0.022-5e-3 -0.116-0.024-0.149-0.024-0.04-0.07-0.02-0.099-0.074 0.121 0.015 0.199 1e-3 0.223-0.148-0.027-0.036-0.039-0.098-0.05-0.149h0.024c0.05 0.082 0.11 0.133 0.174 0.198m-0.148-0.396c-0.098 0.052-0.048 0.103-0.075 0.198-0.073-0.025-0.119-0.016-0.198 0 0.054-0.066 0.097-0.047 0.124-0.148-0.02-0.026-9e-3 -7e-3 -0.025-0.05-0.088-0.01-0.062 0.012-0.099-0.049h-0.024v-0.025h0.197c0.025-0.02 7e-3 -9e-3 0.05-0.025 0.023 0.044 0.031 0.042 0.05 0.099m-0.446-0.049c-0.029 0.087-0.046 0.181-0.124 0.222-0.068-0.132-0.206-0.13-0.272-0.173h0.025v-0.025c0.126-0.047 0.209-0.045 0.346-0.049v0.025zm-0.421 0.099h-0.074c0.043-0.022 0.032-0.022 0.074 0m0.916 5.269c0.142 0.129 0.398 0.228 0.47 0.421-0.025 8e-3 -0.05 0.016-0.074 0.024v0.025h-0.025c-0.023-0.092-0.023-0.104-0.123-0.124-0.058 0.057-0.115 0.063-0.149 0.149-0.024 0.041-3e-3 0.129-0.05 0.198v-0.025c-0.032-0.029-0.07-0.067-0.098-0.099-0.095 0-0.156 0.011-0.223 0.025-0.014 0.037-0.017 0.042-0.025 0.099 0.057 0.049 0.116 0.099 0.173 0.148-0.033 0.052-0.036 0.188-0.074 0.248-0.105 0.075-0.273 0.093-0.396 0.148v0.074c0.104-2e-3 0.133-0.019 0.198-0.05-2e-3 0.151 0.029 0.184 0.074 0.273h-0.074c-0.033-0.108-0.08-0.086-0.148-0.149-0.043 0.016-0.025 5e-3 -0.05 0.025-0.05 0.043-0.046 0.053-0.049 0.149 0.083 0.082 0.102 0.135 0.074 0.272h-0.025c-0.041-0.048-0.035-0.042-0.123-0.05-0.07 0.103-0.14 0.124-0.149 0.297 0.04 0.033 0.028 0.016 0.049 0.075-0.145 0.05-0.238 0.125-0.371 0.147 0.035-0.178 0.23-0.342 0.297-0.494 0.183-0.407 0.36-0.819 0.545-1.212 0.076-0.163 0.166-0.558 0.346-0.594m-1.114 1.41c-0.056 0.083-0.085 0.205-0.123 0.297-0.044-0.015-0.024-5e-3 -0.05-0.025h-0.024c8e-3 -0.066 0.017-0.132 0.024-0.198-0.011-6e-3 -0.146-0.047-0.148-0.049-0.111-0.092-0.017-0.239-0.247-0.272-0.036 0.062-0.015 0.053-0.1 0.074-0.087-0.054-0.257-0.048-0.395-0.074-0.028-0.147-0.139-0.174-0.198-0.272v-0.099c-0.014-0.026-0.085-0.03-0.099-0.05v-0.099c-0.075-0.171-0.148-0.252-0.273-0.371-0.146 0.027-0.179 0.064-0.172 0.248 0.174 0.222 0.275 0.494 0.42 0.741 0.166 0.283 0.479 0.541 0.569 0.892h-0.049c-0.168-0.145-0.465-0.165-0.668-0.273-0.124-0.065-0.249-0.16-0.396-0.223-9e-3 -0.126-0.035-0.25-0.099-0.321-0.024-8e-3 -0.05-0.016-0.074-0.025v-0.173c-0.02-0.04-0.109-0.051-0.124-0.099-0.024-0.078 0.044-0.255 0.025-0.322-0.017-8e-3 -0.033-0.016-0.05-0.024v-0.223c-5e-3 -0.015-0.071-0.066-0.074-0.074-0.034-0.116 0.05-0.456 0.074-0.569 0.018-0.085-0.034-0.148-0.024-0.223 0.014-0.109 0.055-0.16 0.074-0.272h0.074c0.163 0.186 0.44 0.274 0.643 0.421 0.06 0.043 0.071 0.147 0.124 0.197 0.086 0.083 0.194 0.103 0.297 0.174 0.128 0.088 0.1 0.237 0.297 0.272v0.099c0.107 0.059 0.423 0.456 0.495 0.569 0.054 0.088 0.037 0.193 0.098 0.272 0.03 0.037 0.136 0.045 0.173 0.074m-1.756 0.718v0.025c-0.078-5e-3 -0.037-0.014-0.099 0-0.025 0.078 5e-3 0.092-0.049 0.123-0.053-0.071-0.085-0.1-0.124-0.198-0.202 0.061-0.33-0.097-0.544-0.025-0.028-0.037-0.103-0.041-0.124-0.074-0.108-0.17 4e-3 -0.267-0.321-0.272-9e-3 0.025-0.017 0.05-0.026 0.074-0.029 0.053-7e-3 0.085 0 0.174 0.096 0.051 0.108 0.121 0.223 0.148 0.025-0.02 7e-3 -9e-3 0.05-0.025v0.124h-0.05c-0.083-0.093-0.213-0.01-0.297-0.025 0.024-0.044 0.031-0.042 0.05-0.099-0.044-0.024-0.042-0.031-0.099-0.05-0.058-0.038-0.106-0.014-0.174 0-0.014 0.044-4e-3 0.024-0.024 0.05 0.02 0.074 0.037 0.076 0.074 0.124-0.037 0.013-0.042 0.016-0.098 0.024-0.041-0.046-0.11-0.051-0.174-0.073 0.01-0.07 0.03-0.071 0-0.125-0.05-0.058-0.061-0.068-0.173-0.073-0.011 0.105-0.011 0.116 0 0.222h-0.025v0.025c-0.169 6e-3 -0.205 0.063-0.371 0.074-0.023-0.022-0.044-0.033-0.074-0.05v-0.024c0.091-0.017 0.068 1e-3 0.099-0.074h0.025v-0.025h-0.025c-0.064-0.163-0.248-0.077-0.297-0.248 0.018-0.026 0.015-0.023 0.024-0.074-0.055-0.03-0.054-0.04-0.147-0.049-0.063 0.065-0.087 0.047-0.1 0.173 0.103 0.068 0.025 0.081 0 0.223-0.376-0.033-0.729-0.371-0.841-0.668-0.031-0.082-9e-3 -0.161-0.049-0.223-0.022 0.029-0.021 0.028-0.05 0.049-0.048-0.315-0.261-0.517-0.296-0.841 0.179 0.027 0.33 0.141 0.47 0.198 0.183 0.075 0.328 0.082 0.495 0.174 0.088 0.048 0.202 0.151 0.296 0.197 0.12 0.06 0.222 0.037 0.346 0.099 0.031 0.015 0.062 0.084 0.099 0.1 0.819 0.329 1.671 0.572 2.4 0.915m-3.785-0.668c9e-3 -0.052 6e-3 -0.048 0.025-0.075v0.025c0.02 0.025 8e-3 7e-3 0.024 0.05zm1.088 0.791c-0.026-0.029-0.049-0.04-0.073-0.074h0.024c0.025 0.019 0.068 0.036 0.099 0.049-0.025 0.02-7e-3 9e-3 -0.05 0.025m0.866 0.099c-0.017-0.066-9e-3 -0.114-0.024-0.197h0.024v0.024c0.058 0.061 0.064 0.117 0 0.173m0.075 0.223c0.043-0.022 0.031-0.022 0.074 0zm0.989-0.247c0.026 0.021 0.053 0.048 0.074 0.074-0.093-0.018-0.122-0.012-0.223 0-7e-3 -0.041-0.016-0.083-0.024-0.124 0.095-0.04 0.18-0.074 0.297-0.099v0.049c-0.101 0.013-0.101 6e-3 -0.124 0.1m0.124 0.148v-0.05h0.024v0.025h0.026c-0.026 0.02-7e-3 9e-3 -0.05 0.025m0.321-0.174v0.026h-0.073c8e-3 -0.033 0.015-0.067 0.024-0.1h0.025c0.025 0.02 7e-3 9e-3 0.05 0.025v0.049zm0.124 0.347h0.05v0.049h-0.05zm0.223-0.173c-0.029-0.056-0.036-0.037-0.074-0.074h0.124c-0.021 0.08 0.011 0.037-0.05 0.074m-4.205 0.569v-0.148c0.041-0.117 0.376-0.615 0.469-0.669 0.068-0.042 0.208 0.025 0.346 0.074 0.159 0.059 0.444 0.183 0.668 0.273 0.335 0.134 0.601 0.278 0.916 0.42 0.086 0.039 0.235 0.079 0.297 0.05 0.074 0.046 0.21 0.139 0.297 0.173 0.081 0.032 0.084-0.042 0.173 0 0.128 0.06 0.222 0.216 0.346 0.272l0.223 0.025c0.186 0.058 0.648 0.183 0.742 0.272-0.104 0.033-0.269 0.033-0.321 0.074-0.168 0.133-0.448 0.497-0.347 0.816 0.034 0.108 0.112 0.231 0.149 0.347-0.279 0.07-0.485 0.381-0.52 0.693-0.215-0.024-0.429-0.175-0.594-0.248h-0.124c-0.112-0.043-0.251-0.152-0.371-0.197-0.082-9e-3 -0.165-0.017-0.247-0.025-0.103-0.038-0.263-0.155-0.371-0.198-0.218-0.088-0.427-0.081-0.643-0.173-0.015-7e-3 -0.055-0.067-0.075-0.075-0.137-0.056-0.239-0.042-0.371-0.099-0.057-0.025-0.117-0.098-0.173-0.123-0.113-0.051-0.189 8e-3 -0.272-0.049-0.202-0.14-0.771-0.397-1.063-0.421v-0.075c0.263-0.163 0.427-0.477 0.593-0.742 0.061-0.096 0.221-0.136 0.273-0.247m-0.669-1.138h0.05v0.05h-0.05zm0.545-1.014c-0.085 0.043-0.117 0.109-0.199 0.148v-0.025c-0.024-8e-3 -0.049-0.016-0.074-0.025 5e-3 -0.102 0.015-0.158-0.05-0.197-0.031-0.022-0.06-0.022-0.123-0.025-0.037 0.078-0.064 0.109-0.074 0.222 0.071 0.021 0.064 0.035 0.149 0.05 0.025-0.02 6e-3 -9e-3 0.048-0.025v0.05c-0.025 0.038-0.084 0.183-0.098 0.222h0.025v0.025c0.082-0.012 0.066-0.012 0.148 0v0.099c-0.07 0.103-0.086 0.26-0.223 0.297-0.078-0.051-0.145 2e-3 -0.222 0.025-0.012 0.199-0.114 0.217-0.124 0.445 0.059 0.029 0.088 0.047 0.124 0.099 0.049-8e-3 0.099-0.017 0.148-0.025 1e-3 0.158-0.034 0.195-0.049 0.322h-0.099c-0.013 0.038-0.017 0.042-0.025 0.099 0.121 0.073 0.198 0.144 0.198 0.346h-0.025c-0.082-0.236-0.187-0.05-0.296-0.074-0.016-3e-3 -6e-3 -0.056-0.1-0.074-0.05 0.065-0.076 0.045-0.098 0.148 0.1 0.068 0.125 0.102 0.271 0.074 0.011 0.102 0.048 0.145 0.026 0.198-0.036 0.107-0.105 0.11-0.149 0.198 0.03 0.033 0.045 0.089 0.074 0.124v-0.025c0.069-0.012 0.03 0.014 0.049 0.05-0.03 0.037-0.053 0.103-0.073 0.148h-0.026v-0.025c-0.112-0.12-0.067-0.302-0.148-0.495-0.111-0.262-0.353-0.665-0.371-0.989 0.154-0.13 0.195-0.41 0.297-0.594 0.086-0.156 0.234-0.34 0.321-0.494 9e-3 -0.042 0.017-0.083 0.026-0.124 0.044-0.07 0.153-0.126 0.197-0.198 0.016-0.066 0.033-0.132 0.05-0.198 0.07-0.113 0.178-0.222 0.222-0.371h0.05c0.033 0.231 0.186 0.356 0.223 0.594m2.968 5.294v-0.05h0.025c-0.016 0.044-5e-3 0.024-0.025 0.05m-1.088-0.742c0.37 0.186 0.639 0.251 1.039 0.395v0.025c-0.482 0.057-0.854 0.361-1.212 0.544-0.177 0.09-0.401 0.084-0.446 0.297 0.028 0.034 0.038 0.071 0.05 0.124 0.05 0.017 0.115 0.025 0.197 0.025 0.084-0.083 0.674-0.382 0.817-0.396 0.02 0.059 0.036 0.132 0.074 0.173 0.02-0.017 0.056-0.032 0.074-0.049 0.02-0.03 0.02-0.042 0.025-0.099 0.05-8e-3 0.099-0.017 0.148-0.025v-0.05c0.043-0.072-0.021-0.072 0.05-0.123 5e-3 0.141 0.033 0.188 0.173 0.198 0.065-0.133 0.202-0.152 0.396-0.149 0.021-0.036 0.045-0.071 0.075-0.099-0.024-0.072-0.044-0.086-0.1-0.123 0.025-0.057 0.018-0.069 0.074-0.1 0.039 0.036 0.097 0.053 0.149 0.075-0.039 0.045-0.048 0.031-0.075 0.099 0.062 0.037 0.057 0.056 0.149 0.074 0.015-0.047 0.014-0.108 0.025-0.124v0.025c0.037 0.04 0.038 0.05 0.049 0.124-0.043 0.024-0.041 0.031-0.099 0.049-0.041-0.06-0.066-0.076-0.148-0.099-0.024 0.066-0.031 0.043-0.05 0.124 0.06 0.021 0.041 0.01 0.074 0.049h-0.024c-0.154 0.119-0.363 0.158-0.52 0.272-0.191 0.141-0.433 0.446-0.643 0.545-0.058 0.027-0.226-0.025-0.272-0.025-0.011 0-0.086 0.07-0.099 0.075-0.246 0.076-0.541-0.01-0.767 0.024l-0.074 0.05c-0.026 3e-3 -0.062-0.047-0.074-0.05-0.086-0.02-0.14 0.032-0.199 0.025-0.156-0.018-0.37-0.071-0.568-0.074 0.091-0.483 0.599-0.954 0.94-1.213 0.033-0.024 0.045-0.102 0.075-0.123 0.215-0.16 0.584-0.235 0.717-0.47m0.024 2.498c0.038-0.041 0.117-0.05 0.148-0.099 0.087-0.131 0.152-0.279 0.273-0.371 0.144-0.109 0.334-0.152 0.47-0.272 0.048-0.043 0.074-0.13 0.124-0.173 0.131-0.115 0.436-0.287 0.593-0.371 0.074-0.039 0.273-0.099 0.273-0.099 0.038 0.059 0.045 0.213 0.049 0.297-0.118 0.09-0.197 0.266-0.322 0.346-0.049 8e-3 -0.098 0.016-0.148 0.025-0.2 0.13-0.357 0.346-0.52 0.519-0.104 0.113-0.281 0.145-0.296 0.347-0.041 8e-3 -0.082 0.016-0.124 0.024-0.146 0.239-0.436 0.413-0.495 0.718 0.02 0.026 9e-3 7e-3 0.025 0.05h0.124c0.08-0.111 0.219-0.135 0.321-0.223 0.044-0.038 0.016-0.096 0.05-0.149 0.04-0.062 0.149-0.086 0.197-0.148h0.074c-7e-3 0.058-0.015 0.115-0.024 0.173 0.065 0.019 0.059 0.03 0.124 0.049 0.017-0.027 0.06-0.128 0.074-0.148 0.054-0.075 0.06 0.041 0.099-0.049-0.027-0.023-2e-3 1e-3 -0.025-0.025l-0.049 0.025v-0.025c-0.02-0.025-9e-3 -7e-3 -0.025-0.05 0.322-0.048 0.218-0.468 0.42-0.494-0.052 0.405-0.459 0.883-0.594 1.261-0.185-0.043-0.353 0.096-0.494 0.149-0.361 0.134-0.806 0.158-1.187 0.148v-0.025c0.063-0.082 0.158-0.237 0.198-0.321 8e-3 -0.05 0.016-0.099 0.024-0.148 0.156-0.233 0.366-0.464 0.52-0.693 0.053-0.078 0.06-0.18 0.123-0.248m0.718 2.004c0.037-0.063 0.134-0.13 0.173-0.198 0.186-0.321 0.319-0.676 0.495-0.99 0.092-0.164 0.114-0.453 0.272-0.543 0.027 0.018 0.024 0.014 0.074 0.024-3e-3 0.164 0.036 0.184 0.075 0.346h-0.026v-0.024c-0.022-0.023-0.032-0.044-0.049-0.074h-0.025v0.074c0.021 0.025 0.01 7e-3 0.025 0.05-0.05 9e-3 -0.114 0.022-0.148 0.049 0.05 0.072 0.018 0.22 0 0.297-0.068-0.023-0.115-0.023-0.174 0.024 0.043 0.047 0.085 0.102 0.124 0.149h0.05v-0.05c0.019-0.026 0.015-0.023 0.024-0.074 0.12 4e-3 0.245 0.064 0.322 0.124-0.097 0.053-0.148 0.096-0.198 0.197-0.063-0.036-0.078-0.059-0.173-0.073-8e-3 0.025-0.016 0.049-0.025 0.073-0.047 0.059-0.051 0.137-0.05 0.248h-0.074c0.014-0.117 0.062-0.136 0.026-0.198-9e-3 -0.016-0.017-0.033-0.026-0.05-0.121 0.061-0.143 0.147-0.173 0.298 0.068 0.042 0.062 0.063 0.173 0.074 0.023-0.067 0.027-0.064 0.074-0.099-5e-3 0.084-0.022 0.107 0 0.148 0.041 0.035 0.092 0.057 0.149 0.074 0.032-0.045 0.049-0.042 0.074-0.099 0.041-0.06 0.016-0.129 0-0.197h0.1c-8e-3 0.117-0.074 0.325-0.124 0.396-0.064 0.038-0.234 9e-3 -0.297 0.049-0.02 0.025-9e-3 7e-3 -0.025 0.049 0.064 0.079 0.046 0.125 0.173 0.149-0.014 0.249-0.108 0.403-0.124 0.643 0.038 0.026 0.049 0.037 0.074 0.074-0.115 0.091-0.201 0.318-0.247 0.471-0.026-0.023-2e-3 1e-3 -0.024-0.026-0.119-0.12-0.634-0.904-0.668-1.063 0.107-0.095 0.095-0.19 0.173-0.322m0.692 1.658c0.182-0.106 0.203-0.349 0.297-0.545 0.084-0.171 0.265-0.366 0.347-0.544v-0.123c0.033-0.025 0.066-0.05 0.098-0.075 0.054-0.08 0.034-0.147 0.075-0.247 0.04-0.097 0.159-0.2 0.198-0.297v-0.124c0.025-8e-3 0.05-0.016 0.074-0.024v-0.124c0.022-0.048 0.102-0.118 0.124-0.174 0.07-0.175 0.086-0.341 0.197-0.469 0.193 0.183 0.326 0.24 0.619 0.247 0.101 0.421 0.707 1.265 1.287 1.064 0.075-0.026 0.211-0.058 0.321-0.124 0.093-0.055 0.087-0.135 0.223-0.173 0.05 0.076 0.116 0.179 0.198 0.222 0.042 0.023 0.174 0.011 0.198 0.05v0.124c-0.195 0.141-0.233 0.461-0.347 0.693-0.033 0.024-0.066 0.049-0.098 0.074-0.055 0.096-0.035 0.208-0.1 0.296-0.272 0.377-0.493 0.816-0.668 1.287h-0.123c-0.156-0.143-0.532-0.15-0.693-0.223-0.098-0.044-0.255-0.114-0.371-0.148h-0.173c-0.277-0.105-0.637-0.246-0.915-0.346-0.302-0.109-0.552-0.119-0.768-0.297m4.305-1.782c-0.053-0.043-0.149-0.05-0.197-0.099-0.11-0.106-0.122-0.251-0.323-0.272-0.166 0.162-0.359 0.331-0.618 0.396-0.098-0.068-0.28-0.078-0.395-0.124-0.077-0.172-0.24-0.269-0.323-0.42-0.106-0.196-0.011-0.431-0.197-0.545-0.123-0.074-0.239 0.046-0.347 0.025-0.303-0.057-0.383-0.393-0.371-0.717 0.089-0.058 0.122-0.161 0.199-0.223 0.062-0.05 0.152-0.033 0.222-0.074 0.048-0.028 0.1-0.124 0.149-0.148h0.123c9e-3 -0.017 0.016-0.033 0.025-0.05h0.099c0.016-0.033 0.033-0.066 0.05-0.099 0 0 0.162-0.016 0.197-0.025 0.021 0.254 0.181 0.319 0.272 0.495 0.12 0.015 0.181 0.045 0.322 0.05 0.065 0.325 0.35 0.62 0.742 0.619 0.077-0.061 0.059 0.014 0.148-0.026 0.041-0.017 0.074-0.104 0.124-0.123 0.03-0.012 0.069 0.035 0.124 0 0.088-0.057 0.075-0.197 0.173-0.247 0.094 0.242 0.413 0.106 0.421 0.445 0.068 0.067 0.026 0.095 0.074 0.198 0.025 0.016 0.049 0.033 0.074 0.049 0.121 0.249 0.039 0.409-0.025 0.643-0.238 0.148-0.325 0.274-0.742 0.272m1.262 0.272c-0.026 0.02-7e-3 9e-3 -0.049 0.025 0.025-0.02 7e-3 -8e-3 0.049-0.025m-1.188 0.545c0.045-0.148 0.172-0.448 0.297-0.52 0.081-0.046 0.19-0.025 0.272-0.074 0.064-0.038 0.097-0.115 0.173-0.148 0.013 0.195 0.096 0.412 0.149 0.569v0.222c0.095 0.343 0.157 0.834 0.272 1.113 0.067 0.035 0.094 0.072 0.149 0.05 0.062-0.036 0.049-0.052 0.049-0.148-0.019-0.031-0.073-0.279-0.049-0.322 8e-3 -0.015 0.088-0.027 0.098-0.05v-0.222c0.028-0.043 0.145-0.059 0.174-0.099 0.05-0.067 0.06-0.254 0.049-0.322h-0.173c-0.033 0.041-0.016 0.028-0.074 0.05v-0.05c0.052-0.044 0.05-0.072 0.05-0.173-0.057-0.036-0.075-0.052-0.1-0.123 0.094-4e-3 0.087 0.012 0.124-0.05 0.053-0.059 0.068-0.167 0.074-0.272-0.031-0.016-0.051-0.027-0.074-0.05h-0.05c-0.03 0.095-0.05 0.097-0.173 0.099v-0.049c0.05-0.062 0.052-0.154 0.05-0.272h-0.05c-0.05-0.029-0.103-6e-3 -0.198 0-4e-3 -0.065-0.01-0.084-0.024-0.124h0.074s0.569 0.081 0.594 0.074c0.035-9e-3 0.057-0.038 0.124-0.049v0.024h0.024c0.068 0.52 0.215 1.05 0.124 1.634 8e-3 0.049 0.016 0.098 0.025 0.148-0.032 0.103-0.14 0.269-0.173 0.371-0.045 0.135-0.017 0.319-0.075 0.445-0.087 0.19-0.315 0.347-0.346 0.594-0.052-9e-3 -0.048-6e-3 -0.074-0.025-0.088-0.08-0.167-0.158-0.223-0.272h-0.074c-0.012-0.068-0.321-0.431-0.371-0.47-0.037-0.027-0.099-0.014-0.123-0.05-0.185-0.263-0.585-1.2-0.521-1.459m2.054-1.014c0.029-0.059 0.047-0.088 0.098-0.124 9e-3 0.033 0.017 0.066 0.026 0.099-0.041 8e-3 -0.083 0.016-0.124 0.025m0.098 0.148h0.075c0.109 0.143 0.233 0.273 0.296 0.47h-0.024v0.025h-0.099c-0.032-0.065-0.121-0.127-0.173-0.174 0.031-0.056 0.055-0.096 0.074-0.172-0.071-0.042-0.109-0.074-0.149-0.149m0.57 1.237v-0.049h0.024c-0.015 0.043-4e-3 0.024-0.024 0.049m-0.421-0.42c0.095-0.034 0.087-0.077 0.198-0.1v0.05c-0.021 0.032-0.022 0.061-0.024 0.124h0.048c0.04-0.041 0.099-0.099 0.149-0.124 9e-3 0.016 0.017 0.033 0.025 0.05 0.044 0.054 0.064 0.135 0.075 0.222-0.021 0.024-0.037 0.068-0.05 0.099-0.061-0.062-0.029-0.083-0.149-0.099-0.016 0.031-0.027 0.051-0.05 0.074 0.011 0.06 0.031 0.145 0.05 0.198h0.075v0.124c0.069 0.015 0.089 0.044 0.124 0.025 0.072-0.046 0.071-0.068 0.197-0.075 0.092 0.178 0.187 0.554 0.346 0.668 0.047 0.037 0.154 0.06 0.173 0.05 0.077-0.051 0.115-0.102 0.124-0.223-0.19-0.214-0.332-0.572-0.445-0.866-0.033-0.086-0.139-0.175-0.173-0.247-0.051-0.105-0.015-0.182-0.074-0.272-0.134-0.205-0.328-0.431-0.371-0.718h0.049c0.199 0.141 0.631 0.245 0.816 0.297 0.081 0.122 0.199 0.268 0.248 0.421v0.297c0.082 0.293 0.112 0.712 0.049 0.989-0.013 0.058 0.021 0.129 0.025 0.149 0.017 0.101-0.071 0.425-0.099 0.445-0.128-0.141-0.49-0.237-0.668-0.347-0.013-7e-3 -0.481-0.59-0.494-0.618v-0.124c-0.042-0.024-0.083-0.049-0.124-0.074-0.036-0.065-0.026-0.308-0.05-0.395m1.51-5.592v0.099c-0.076 0.089 3e-3 0.15-0.026 0.223-0.036-0.053-0.07-0.062-0.098-0.124 0.038-0.048 0.058-0.127 0.074-0.198zm-0.694-1.212c0.1-0.115 0.134-0.326 0.198-0.47 0.084 0.027 0.075 0.055 0.173 0.074 0.033 0.2 0.242 0.304 0.323 0.47-0.044 0.022-0.198 0.086-0.223 0.124-0.057 0.084 0.062 0.052-0.05 0.124-0.098-0.143-0.371-0.195-0.421-0.322m0.273 0.792c0.211 0.272-0.146 0.522-0.099 0.816 0.14 0.024 0.295 0.217 0.321 0.346-0.016 0.099-0.033 0.199-0.049 0.297-0.273 0.173-0.482 0.19-0.817 0.248-0.139-0.052-0.245-0.14-0.445-0.149 0.014-0.789-0.612-1.447-1.188-1.632-0.234-0.076-0.473 3e-3 -0.642 0v-0.025c0.055-0.071 0.119-0.238 0.148-0.322v-0.173c0.031-0.071 0.134-0.183 0.173-0.247 0.055-0.091 0.041-0.194 0.099-0.272 0.16-0.215 0.783-0.504 1.014-0.347 0.122 0.037 0.174 0.107 0.173 0.272 0.103 0.131 0.135 0.472 0.174 0.643 0.079 0.049 0.099 0.087 0.223 0.1 0.263-0.159 0.904 0.122 0.915 0.445m-3.242-2.697c0.206-0.288 0.254-0.707 0.471-0.989 0.077 0.105 0.181 0.102 0.297 0.173 0.054 0.033 0.053 0.132 0.099 0.173 0.054 0.048 0.139 0.03 0.198 0.074 8e-3 0.025 0.016 0.05 0.024 0.074 0.34 0.247 0.563 0.423 0.891 0.668 0.154 0.116 0.36 0.475 0.569 0.495v0.074c0.123 0.091 0.341 0.264 0.347 0.47-0.143 0.14-0.188 0.651-0.372 0.693-0.06-0.046-0.096-0.035-0.149-0.049-0.047-0.17-0.018-0.445-0.123-0.644-0.03-0.056-0.121-0.108-0.173-0.148-0.317-0.241-0.433-0.252-0.841-0.124-0.055 0.018-0.072-0.032-0.099-0.024-0.111 0.033-0.302 0.196-0.371 0.197-0.053-0.081-0.013-0.188-0.05-0.297-4e-3 -0.011-0.311-0.534-0.321-0.543-0.105-0.102-0.356-0.136-0.397-0.273m-2.052 4.948c-0.056-0.105-0.114-0.113-0.124-0.272 0.029-0.027 0.041-0.049 0.074-0.074 0.157-0.104 0.265-0.031 0.47-0.025 0.019-0.055 0.025-0.135 0.025-0.223-0.058-0.039-0.059-0.036-0.074-0.123 0.055-0.04 0.115-0.121 0.173-0.149 0.186-0.09 0.485 0.074 0.544 0.198-0.437 0.111-0.433 0.654-1.088 0.668m2.052 0.643c-0.188 0.198-0.223 0.634-0.469 0.767-0.049 0.036-0.141 0.042-0.173 0.025-0.174-0.042-0.241-0.147-0.371-0.223 2e-3 -0.119-7e-3 -0.234-0.026-0.322-0.101-0.034-0.114-0.071-0.271-0.073-0.077 0.046-0.164-0.013-0.273-0.025-1e-3 -0.151-0.037-0.21-0.049-0.346 0.119-0.094 0.075-0.149 0.148-0.273 0 0 0.255-0.161 0.273-0.173 0.025 0.315 0.395 0.649 0.668 0.718 0.127 0.032 0.456-0.086 0.543-0.124zm-0.098-1.46v0.025c0.032 0.043 0.058 0.119 0.074 0.174 0.02 0.053-0.116 0.374-0.148 0.519-0.047-0.033-0.022-0.032-0.099-0.05v-0.074c-0.091-0.056-0.178-0.188-0.272-0.223-0.072-0.025-0.15 7e-3 -0.199-0.024 0.021-0.025 9e-3 -7e-3 0.026-0.049 0.081-0.032 0.16-0.097 0.222-0.124 0.096-0.043 0.16-3e-3 0.247-0.05 0.061-0.032 0.066-0.093 0.149-0.124m-0.767 0.718c0.05-0.041 0.131-0.078 0.198-0.099 0.06 0.068 0.144 0.047 0.222 0.099 0.067 0.082 0.132 0.165 0.198 0.247 0 0.089 0.012 0.135 0.025 0.198-0.154 0.022-0.176 0.046-0.346 0.05-0.076-0.116-0.235-0.311-0.347-0.396 0.013-0.031 0.03-0.075 0.05-0.099m-0.718-1.063c-0.015-0.706 0.38-1.107 0.891-1.263 0.155-0.047 0.401 0.085 0.569 0.125v0.049c-0.228 0.305-0.106 0.974-0.025 1.286h-0.024c-0.152-0.084-0.393 0.121-0.544 0.075-0.044-0.014-0.108-0.126-0.149-0.149-0.193-0.106-0.477-0.151-0.718-0.123m1.509 1.434c0.016-0.175 0.056-0.456 0.149-0.569v0.05c0.067 0.093 0.076 0.265 0.074 0.42-0.097 0.025-0.134 0.07-0.223 0.099m1.089-1.657c-0.121-0.061-0.547-0.426-0.569-0.569 0.036-0.021 0.071-0.045 0.099-0.075 0.104 0.014 0.513 0.043 0.619 0.124 0.036 0.028 0.035 0.118 0.074 0.148 0.157 0.121 0.335 0.232 0.445 0.396 0.291 0.434 0.157 1.224-0.247 1.436-0.038-0.429-0.147-0.657-0.396-0.867 3e-3 -0.1 0.032-0.126 0.049-0.173 0.058-0.153-0.051-0.314-0.074-0.42m2.152 1.187c-0.038-0.037-0.045-0.019-0.074-0.074h0.074c8e-3 0.025 0.017 0.049 0.025 0.074zm-0.395 2.375c-0.091 0.075-0.335 0.118-0.421 0.074-0.221-0.036-0.197-0.211-0.421-0.247-0.031 0.066-0.102 0.134-0.123 0.198-0.038 0.114-0.016 0.214-0.05 0.296-0.107 0.05-0.215 0.1-0.321 0.149-0.081-0.097-0.221-0.146-0.322-0.222-0.162-0.123-0.264-0.393-0.346-0.594-0.03-0.074-0.143-0.197-0.1-0.272 0.058-0.122 0.217-0.221 0.273-0.347 0.037-0.084 7e-3 -0.323 0.024-0.371 0.1-0.136 0.311-0.225 0.471-0.321 0.048-0.029 0.059-0.116 0.099-0.149 0.041-8e-3 0.082-0.017 0.124-0.025 8e-3 -0.033 0.016-0.065 0.024-0.099 0.082-0.066 0.165-0.131 0.247-0.197 9e-3 -0.033 0.017-0.067 0.026-0.1 0.024-8e-3 0.048-0.016 0.074-0.024 0.033-0.116 0.065-0.231 0.098-0.347h0.05c0.081 0.217 0.366 0.245 0.569 0.347 0.202 0.102 0.377 0.28 0.544 0.42 0.013 0.175 0.036 0.276 0.025 0.446-0.072 0.054-0.082 0.166-0.149 0.222-0.164 0.139-0.392 4e-3 -0.395 0.322 0.076 0.071 0.159 0.166 0.173 0.297-0.124 0.216 0.043 0.378-0.173 0.544m-2.647-1.311c0.695-0.349 0.22-1.381 0.049-1.93-0.084-0.267-0.043-0.541-0.074-0.792h0.025v-0.024c0.019 0.025 8e-3 6e-3 0.024 0.049 0.077 0.099 0.1 0.246 0.198 0.322 0.095 0.073 0.275 0.129 0.321 0.173 0.072 0.099 0.121 0.243 0.124 0.396-0.078 0.041-0.106 0.068-0.124 0.173 0.249 0.248 0.665 0.813 0.323 1.213-0.063 0.071-0.235 0.052-0.297 0.123v0.074c-0.065 0.126 3e-3 0.247-0.026 0.347-0.025 0.088-0.184 0.262-0.271 0.296-0.075-0.076-0.188-0.132-0.272-0.197 0.017-0.094 0.011-0.122 0-0.223m-3.316 0.099c-9e-3 0.051-6e-3 0.047-0.024 0.074 9e-3 -0.051 6e-3 -0.047 0.024-0.074m-0.271 0c0.026 0.022 2e-3 -2e-3 0.024 0.025-0.04 0.033-0.027 0.015-0.049 0.074-0.02-0.026-0.01-7e-3 -0.025-0.05-0.019-0.026-0.015-0.023-0.025-0.074 0.051 0.01 0.047 6e-3 0.075 0.025m-0.421 1.311c-0.016 0.043-5e-3 0.024-0.025 0.049v-0.049zm-0.099 0.272h0.024c-0.025 0.02-6e-3 9e-3 -0.049 0.025v-0.025h-0.025c-0.047-0.019 0.05-0.025 0.05-0.025zm-0.074-0.792v-0.049h0.024c0.043-0.047 0.112-0.093 0.149-0.074 0.018 0.026 0.014 0.023 0.024 0.074-0.035 0.046-0.017 0.067-0.073 0.099-0.035-0.027-0.071-0.037-0.124-0.05m0.074-2.251c-0.032-0.041-0.067-0.057-0.1-0.099h0.026c0.038 0.037 0.045 0.02 0.074 0.075h0.024v0.024zm0.074 1.113v0.05c0.019 0.027 0.015 0.023 0.025 0.074-0.116 0.093-0.15 0.26-0.273 0.347 0.016-0.156 0.13-0.414 0.248-0.471m1.286-3.092c0.247 0.179 0.435 0.541 0.817 0.569-5e-3 0.212-0.056 0.289-0.099 0.42-0.067 0.206 0.044 0.428 0.049 0.619-0.071 0.05-0.088 0.111-0.123 0.198-0.281-0.052-0.396 0.17-0.545 0.322-9e-3 0.381 0.144 0.529 0.371 0.668-0.15 0.138-0.817 0.424-1.063 0.296-0.17-0.084-0.384-0.307-0.396-0.543-0.145-0.206 0.041-0.514 0.074-0.718-0.196-0.133-0.43-0.333-0.395-0.618 0.14-0.048 0.121-0.189 0.222-0.248 0.157-0.092 0.279 9e-3 0.346-0.173 0.019-0.027 0.015-0.024 0.026-0.075-0.258-0.21-0.397-0.96 0.147-0.964 0.179 0.118 0.402 0.126 0.569 0.247m-0.469-1.954c-0.034-0.033-0.079-0.053-0.124-0.074v-0.05h0.024c0.052 0.045 0.159 0.07 0.224 0.099v0.025zm0.148 0.593v0.05c-0.044 0.024-0.042 0.031-0.099 0.049v-0.074zm0.52-1.558c7e-3 -0.016 0.016-0.033 0.024-0.05 0.031-0.016 0.052-0.026 0.074-0.049 0.043 0.016 0.025 4e-3 0.05 0.025 0.022 0.032 0.022 0.061 0.025 0.123-0.093-5e-3 -0.113-0.021-0.173-0.049m0.297 1.187h-0.124c0.043-0.029 0.08-0.028 0.124 0m-0.05-0.42v0.049l-0.05 0.025c0.02-0.08-0.012-0.038 0.05-0.074m0.05-0.668c-5e-3 0.057-5e-3 0.07-0.026 0.099-0.027-0.079-0.067-0.057 0.026-0.099m0.024 0.421c0.025-0.021 7e-3 -0.01 0.05-0.025-0.026 0.02-7e-3 8e-3 -0.05 0.025m0.099 0.667c-0.025 9e-3 -0.049 0.017-0.075 0.025-5e-3 -0.068 0.043-0.096 0.075-0.025m1.039-0.841c-0.016-0.046-0.024-0.097-0.025-0.173l0.099-0.049v0.074c-0.033 0.049-0.03 0.109-0.074 0.148m0.272-0.568c-0.027-0.053-0.035-0.046-0.05-0.124 0.158-0.059 0.053-0.224 0.223-0.272v0.049c-0.078 0.103-0.096 0.243-0.173 0.347m0.495 0.964c0.075 0.08 0.247 0.083 0.322 0.149 7e-3 0.041 0.016 0.082 0.024 0.123 0.042 0.025 0.083 0.05 0.124 0.075v0.123c0.017 0.037 0.107 0.093 0.124 0.124-9e-3 0.148-0.017 0.297-0.024 0.445-0.026 0.017-0.05 0.033-0.076 0.049-7e-3 0.099-0.016 0.199-0.024 0.298-0.063 0.143-0.184 0.4-0.198 0.643-0.188-0.011-0.297-0.084-0.446-0.124-0.383-0.104-1.114 0.323-1.261 0.544h-0.025v-0.025c-0.259-0.145-0.954-0.639-0.989-0.964-0.121-0.184 0.012-0.342 0.049-0.52 0.181-0.05 0.185-0.146 0.445-0.148 0.061-0.019 0.098 0.038 0.223 0.049 0.041-0.038 0.089-0.054 0.124-0.099 0.068-0.08 0.095-0.202 0.098-0.346 0.103-0.028 0.161-0.098 0.249-0.124 0.144-0.042 0.287 4e-3 0.395 0 0.03 0.13 0.087 0.172 0.247 0.173 0.141-0.205 0.316-0.402 0.619-0.445m3.934 3.29c-0.036-0.05-0.039-0.032-0.05-0.124h0.024c0.034 0.045 0.077 0.071 0.124 0.1v0.024zm0.222-1.138c-0.035-0.062-0.102-0.063-0.025-0.098v0.024c0.033 0.043 0.043 0.04 0.025 0.074m-0.346 5.319c-0.29-0.149-0.673-0.149-0.915-0.346 0.559-3e-3 0.5-0.797 0.445-1.113 0.432-0.117 0.657-0.657 0.42-1.114h0.05c0.117 0.076 0.223 0.069 0.371 0.124 0.261 0.097 0.47 0.232 0.742 0.347h0.149c0.206 0.074 0.436 0.232 0.643 0.321 0.059 0.025 0.272 0.05 0.272 0.05 8e-3 0.024 0.016 0.049 0.025 0.074 0.045 0.031 0.161 0.084 0.197 0.099 0.519 0.21 1.1 0.434 1.609 0.643-0.236 0.552-0.494 1.11-0.768 1.559-0.113 0.186-0.119 0.497-0.296 0.618-0.151-0.145-0.186-0.048-0.396-0.124-0.054-0.019-0.096-0.1-0.149-0.123-0.174-0.079-0.326-0.061-0.494-0.149-0.468-0.242-1.022-0.481-1.51-0.717-0.106-0.052-0.193 8e-3 -0.271-0.025-0.036-0.015-0.086-0.104-0.124-0.124m1.039-3.389c0.043 0.016 0.024 5e-3 0.05 0.025h0.024c-0.014 0.039-0.019 0.059-0.024 0.123-0.042-8e-3 -0.083-0.016-0.124-0.025v-0.024c0.025-0.028 0.052-0.07 0.074-0.099m-0.198 0.248h-0.049v-0.05h0.049zm-0.247-1.336c-0.03 0.019-0.042 0.019-0.099 0.024-0.01 0.052-7e-3 0.048-0.025 0.075-0.026-0.02-7e-3 -9e-3 -0.049-0.025v-0.074c0.045-0.039 0.034-0.022 0.049-0.1 0.119-0.011 0.109-0.043 0.198-0.074 0.015 0.044 5e-3 0.024 0.024 0.05v0.049c-0.045 0.032-0.042 0.049-0.098 0.075m3.339 3.166c-0.202-0.03-0.417-0.088-0.569-0.223-8e-3 -0.024-0.017-0.049-0.024-0.074-0.078-0.054-0.173-0.047-0.247-0.099-0.045-0.031-0.136-0.175-0.174-0.198-0.071-0.042-0.16 0.019-0.198 0-0.12-0.11-1e-3 -0.267-0.272-0.272-0.015 0.087 4e-3 0.094-0.05 0.124v-0.025c-0.161-0.091-0.093-0.304-0.345-0.321-0.038 0.027-0.077 0.051-0.1 0.025-0.054-0.052-0.099-0.12-0.123-0.199h0.024c0.033 0.032 0.044 0.034 0.099 0.05 9e-3 -0.016 0.016-0.033 0.025-0.05 0.058-0.075 0.033-0.109 0.025-0.222-0.1-0.065-0.1-0.119-0.273-0.124-0.026 0.019-0.023 0.015-0.074 0.025v0.149c-0.089 7e-3 -0.145 0.042-0.173 0.024-0.037-0.04-0.038-0.05-0.05-0.124h0.099c0.041-0.071 0.066-0.108 0.075-0.222-0.065-0.053-0.061-0.114-0.148-0.149-0.031-0.019-0.119-0.029-0.149-0.05-0.046-0.055-0.083-0.116-0.099-0.197-0.232-0.011-0.206-0.147-0.346-0.247-0.086-0.062-0.16-0.014-0.223-0.1-0.057 0.034-0.116 0.066-0.173 0.1v-0.025c0.06-0.056 0.104-0.126 0.173-0.174-0.028-0.052-0.05-0.066-0.074-0.123h0.049c0.139 0.152 0.683 0.26 0.866 0.346 0.276 0.129 0.543 0.292 0.841 0.396 0.025-8e-3 0.05-0.017 0.074-0.025 0.046 0.018 0.121 0.103 0.174 0.124 0.065 8e-3 0.132 0.017 0.197 0.025 0.184 0.083 0.427 0.259 0.668 0.272 0.013 0.169 0.106 0.298 0.149 0.42v0.174c0.033 0.024 0.066 0.049 0.099 0.074v0.223c0.072 0.207 0.207 0.436 0.247 0.692m-2.375-4.033c-0.031 0.078-0.051 0.069-0.124 0.099-7e-3 -0.041-0.016-0.082-0.024-0.123 0.095-0.018 0.07-0.028 0.123-0.074v0.025c0.041 0.033 0.028 0.015 0.05 0.073zm0.347 0.025c-0.037-0.056-0.053-0.074-0.124-0.098v-0.099h0.074c0.019 0.127 0.066 0.121 0.124 0.197zm0.123 1.509c-0.111-0.027-0.2-0.094-0.321-0.123v-0.025c0.244 0 0.878-0.19 0.965-0.395 0.021-0.033 0.022-0.062 0.024-0.124-0.306-0.117-0.517 0.106-0.742 0.197l-0.396 0.025c-3e-3 -1e-3 -0.033-0.072-0.049-0.074-0.058-9e-3 -0.149 0.08-0.223 0.099-0.02-0.115-0.049-0.175-0.099-0.247 0.065-0.01 0.033 0.018 0.05-0.05h-0.1v0.025c-0.018 0.072-0.074 0.049-0.098 0.099v0.173h-0.05c-0.091-0.033-0.182-0.066-0.271-0.099v-0.049c0.209 3e-3 0.216-5e-3 0.371-0.075v-0.049c-0.061-0.033-0.071-0.045-0.174-0.05-0.033 0.04-0.016 0.028-0.074 0.05-0.019-0.091-0.037-0.07-0.049-0.174-0.08-0.02-0.038 0.013-0.074-0.049 0.213 3e-3 0.637-0.178 0.89-0.248 0.1-0.027 0.206 0.034 0.272 0.025 0.034-4e-3 0.124-0.067 0.148-0.074 0.058-0.015 0.212-7e-3 0.273 0.025 0.142-0.018 0.481-0.07 0.692 0 0.042 0.014 0.107 0.084 0.148 0.099 0.215 0.079 0.399 0.057 0.52 0.222-0.103 0.083-0.132 0.228-0.223 0.323-0.163 0.168-1.003 0.645-1.41 0.543m-0.742-5.64c-0.028 0.125-0.079 0.08-0.099 0.223 0.075 0.08 0.099 0.218 0.099 0.371-0.094 0.077-0.1 0.222-0.223 0.272-0.061-0.191-0.225-0.19-0.371-0.297-0.035-0.026-0.042-0.116-0.074-0.149-0.037-0.037-0.076-0.016-0.123-0.049-0.063-0.044-0.202-0.259-0.273-0.322-0.049-0.016-0.098-0.032-0.148-0.049-0.029-0.028-0.017-0.098-0.05-0.124-0.138-0.108-0.305-0.141-0.371-0.321h0.025v-0.025c0.241 0.073 0.531-0.149 0.668-0.272 0.092-0.083 0.246-0.126 0.322-0.223 0.281-0.36 0.398-0.837 0.395-1.361h0.05c0.075-0.046 0.11 0.013 0.198 0 0.449-0.066 1.223 0.076 1.385 0.421v0.272c-0.017 0.025-0.02 0.058-0.024 0.149-0.059 0.037-0.075 0.115-0.124 0.148-0.115 0.077-0.337 0.043-0.396 0.173-0.036 0.06-5e-3 0.163 0 0.272 0.063 0.048 0.102 0.105 0.173 0.149-0.026 0.079 7e-3 0.289 0 0.297-0.035 0.117-0.087 0.155-0.173 0.222-0.081 0.064-0.14 0.185-0.247 0.223-0.18 0.062-0.458-0.024-0.619 0m1.386-0.668c-9e-3 -0.025-0.017-0.049-0.026-0.074h0.05c-9e-3 0.051-6e-3 0.047-0.024 0.074m-0.47 0.891c0.134-0.062 0.326-0.265 0.395-0.396 0.272 0.255 0.957 0.993 1.361 1.039 0.018-0.081 0.049-0.104 0.098-0.149-0.014-0.043-3e-3 -0.024-0.024-0.049-0.082-0.056-0.147-1e-3 -0.197-0.074 0.048-0.042 0.041-0.036 0.049-0.124-0.098-9e-3 -0.086-0.013-0.173 0-0.021-0.059-0.01-0.041-0.05-0.074 0.033-0.058 0.066-0.116 0.099-0.173-0.093-0.047-0.051-0.088-0.198-0.1-0.029 5e-3 -0.055-8e-3 -0.124-0.024 0.017-0.054 0.032-0.073 0-0.124-0.096-0.062-0.145-6e-3 -0.173-0.148 0.037-0.062-3e-3 -0.177-0.049-0.198-0.137-0.074-0.243 0.069-0.272-0.149-0.02-0.029-0.019-0.041-0.025-0.099 0.043-0.014 0.078-0.022 0.148-0.024 0.066 0.114 0.071 5e-3 0.149 0.049 0.016 0.01 0.026 0.088 0.049 0.099 0.075 0.035 0.084-0.056 0.149 0 0.028 0.025 0.019 0.099 0.05 0.124 0.036 0.031 0.085 0.02 0.123 0.049 0.027 0.021 0.025 0.078 0.05 0.099l0.123 0.025c0.067 0.046 0.096 0.158 0.149 0.223 0.193 0.238 0.457 0.448 0.618 0.717 0.099 0.166 0.05 0.38 0.124 0.569 0.025 0.065 0.076 0.107 0.099 0.198-0.043 0.015-0.078 0.022-0.149 0.025-0.108-0.086-0.464-0.065-0.668-0.124-0.446-0.129-1.689-0.631-1.731-1.187m1.41-1.881c0.038 0.028 0.021 0.027 0.074 0.05v0.024c-0.083 9e-3 -0.165 0.017-0.248 0.025 0.052-0.06 0.15-0.077 0.174-0.099m-0.372 0.668v0.025h0.025c-0.025 0.02-6e-3 9e-3 -0.049 0.025-0.025-0.02-7e-3 -9e-3 -0.049-0.025v-0.025zm0.595 0.223c-0.077-0.047-0.216 7e-3 -0.323-0.025-0.075-0.022-0.142-0.088-0.222-0.123v-0.025h0.124v-0.025h0.024c4e-3 0.065 0.011 0.084 0.026 0.124 0.042-0.015 0.078-0.022 0.148-0.025 0.032-0.081 0.032-0.06 0.025-0.149-0.077 3e-3 -0.158 4e-3 -0.199-0.024 0.115-0.028 0.15-0.135 0.199-0.223 0.239 0.074 1.097 0.077 1.211 0 0.045-0.045 0.079-0.105 0.1-0.173h-0.025c-0.054-0.077-0.11-0.079-0.247-0.074-0.013-5e-3 -0.147-8e-3 -0.199-0.025 1e-3 -0.096 0.013-0.111-0.048-0.148-0.053-0.015-0.403 0.031-0.421 0.074 0.029 0.021 0.027 0.02 0.048 0.049h-0.296v-0.025h0.025c0.019-0.017 0.055-0.032 0.074-0.049-0.175-0.028-0.073-0.07-0.148-0.123-0.079-0.058-0.126 0.027-0.199 0-0.016-0.025-0.033-0.05-0.048-0.075-7e-3 -2e-3 -0.138 0.043-0.248 0v-0.025c0.184-0.027 0.366-0.175 0.544-0.148 0.498 0.077 1.706 0.258 1.905 0.742-0.342 0.15-0.695 0.333-1.064 0.446-0.245 0.074-0.554 0.011-0.766 0.049m-0.694-0.223h-0.074c-8e-3 -0.067 0.014-0.043 0.074 0m0-0.742c-0.021 0.019-0.027 0.031-0.048 0.05 6e-3 -0.058 0.01-0.062 0.024-0.099h0.024zm-0.074 0.124c0.025 0.043 0.031 0.042 0.05 0.099h-0.05c-0.023-0.044-0.031-0.042-0.049-0.099zm-0.271 0.841c-0.026 0.02-7e-3 9e-3 -0.05 0.025 0.025-0.02 7e-3 -9e-3 0.05-0.025m0.618-3.661c-0.016 0.043-5e-3 0.024-0.025 0.049v-0.049zm-0.297-0.05c-0.025 0.02-7e-3 9e-3 -0.05 0.025 0.026-0.02 7e-3 -9e-3 0.05-0.025m-0.421-0.445h0.025v-0.025c0.156 0.04 0.266 0.044 0.519-0.025 0.057-0.015 0.22-0.079 0.298-0.074 0.384 0.026 0.942 0.085 1.262 0.223 0.065 8e-3 0.131 0.016 0.197 0.025 0.026 0.016 0.036 0.082 0.074 0.098 0.182 0.078 0.499 0.183 0.569 0.346-0.258 0.12-0.45 0.348-0.692 0.471h-0.124c-0.034 0.016-0.073 0.085-0.124 0.099-0.027 8e-3 -0.044-0.048-0.099-0.025-0.495 0.206-0.93 0.361-1.608 0.371 0.035-0.3 0.086-0.417 0.074-0.717 0.602 0.031 1.115 0.079 1.534-0.174v-0.025h-0.049c-0.25-0.186-0.64 0.051-0.866-0.049-0.022-0.032-0.022-0.06-0.025-0.123-0.091-0.014-0.138-0.078-0.247-0.05-0.027 7e-3 -0.01 0.06-0.074 0.05-0.056-0.01-0.078-0.069-0.199-0.075v-0.074h-0.048c-0.061-0.041-0.179-0.047-0.273-0.049-9e-3 -0.165-0.1-0.035-0.124-0.198m0.842-1.311c0.016 0.077 0.037 0.099 0.074 0.148-0.066 0.025-0.133 0.05-0.198 0.074-0.03-0.113 0.015-0.18 0.124-0.222m0.642 0.915c-0.167 0.048-0.372-0.069-0.519-0.05-0.112 0.015-0.384 0.075-0.494 0.05v-0.025h0.024c0.111-0.076 0.235-0.102 0.347-0.173 0.101-0.065 0.192-0.19 0.297-0.247l0.123-0.025c0.17-0.13 0.323-0.317 0.495-0.445 0.143-0.107 0.346-0.122 0.371-0.347-0.266 7e-3 -0.313 0.124-0.52 0.223-0.082 0.04-0.104-0.038-0.172 0 0 0-0.154 0.201-0.174 0.222-0.066-0.033-0.132-0.065-0.198-0.098v-0.075c0.051-9e-3 0.047-6e-3 0.075-0.025 0.019-0.028 0.018-0.041 0.024-0.098-0.056-0.03-0.055-0.041-0.148-0.05v0.025h-0.025v0.074c-0.049 8e-3 -0.099 0.017-0.148 0.025-0.01 0.051-7e-3 0.048-0.026 0.074-0.046-0.057-0.112-0.055-0.172-0.099 0.058-0.057 0.086-0.117 0.098-0.223 0.289 0.02 0.796-0.25 1.114-0.346 0.339-0.102 0.711-0.017 1.039 0-0.052 0.259-0.331 0.415-0.347 0.693-0.051 9e-3 -0.047 6e-3 -0.073 0.025-0.254 0.26-0.619 0.808-0.991 0.915m-0.84-1.015c0.017 0.027-0.043 0.043-0.05 0.05-8e-3 -0.034 0.035-0.035 0.05-0.05m-0.173 0.669c-0.016 0.043-5e-3 0.024-0.026 0.049v-0.049zm-0.1 0.371v0.024c-0.041 9e-3 -0.082 0.017-0.123 0.025 0.041-0.048 0.035-0.041 0.123-0.049m-0.123-0.248c0.039-0.047 0.043-0.096 0.074-0.024-0.025 8e-3 -0.049 0.016-0.074 0.024m-0.025 0.272c-0.026 0.02-7e-3 0.01-0.049 0.025 0.025-0.02 7e-3 -8e-3 0.049-0.025m-2.276 0.966c0.096-0.074 0.245-0.291 0.272-0.421h0.074c0.117-0.191 0.754-0.563 0.99-0.371 0.116 0.066 0.176 0.102 0.173 0.297 0.096 0.143-0.099 0.228-0.05 0.346 0.108 0.295 0.58 0.186 0.644 0.569-0.031 0.047-0.019 0.148-0.05 0.198-0.103 0.17-0.351 0.245-0.371 0.495 0.068 0.045 0.097 0.111 0.174 0.148 0.026 0.019 0.023 0.015 0.074 0.024 0.029 0.192 0.086 0.427-0.074 0.52-0.158-0.181-0.728-0.2-1.089-0.198 0.022-0.15 0.108-0.252 0.024-0.37-0.039-0.139-0.16-0.186-0.271-0.248 0.028-0.08 0.1-0.126 0.123-0.198 0.046-0.146-0.038-0.271-0.049-0.396-0.124-0.074-0.155-0.222-0.272-0.297-0.099-0.063-0.274-0.033-0.322-0.098m-1.311 0.642c0.305 0.026 0.806 0.03 0.94 0.322 0.074 0.081 0.092 0.243 0.074 0.346-0.276 0.027-0.658 0.11-1.039 0.124 0.022-0.134 0.076-0.207 0.099-0.297 0.04-0.149-0.06-0.299-0.074-0.495m0.445 1.039c0.177-0.053 0.285 0.049 0.47-0.024 0.214-0.084 0.627-0.346 0.816-0.372 0.033 0.046 0.049 0.043 0.074 0.1 0.019 0.026 0.015 0.023 0.026 0.074-0.098 0.078-0.263 0.333-0.397 0.346-0.061 7e-3 -0.174-0.044-0.247 0-0.046 0.044-0.077 0.104-0.124 0.149 0.021 0.08 0.041 0.096 0.05 0.198-0.228 0.179-0.229 0.253-0.668 0.247-0.044-0.064-0.079-0.105-0.173-0.123v-0.1c-0.087-0.044-0.098-0.085-0.222-0.099-0.034 0.031-0.098 0.038-0.124 0.075-0.092 0.124-0.073 0.172-0.297 0.172-0.092-0.074-0.559-0.338-0.594-0.395 0.127-0.017 0.15-0.071 0.198-0.099 0.058-0.034 0.201 0.023 0.272 0 0.01-3e-3 0.058-0.069 0.074-0.074 0.035-0.013 0.04 0.055 0.1 0.049 0.292-0.028 0.523-0.049 0.766-0.124m-1.93 0.223c-0.06 0.048-0.066 0.147-0.124 0.198-0.09-0.54 0.213-0.677 0.397-1.039h0.024c0.017 0.239 0.179 0.356 0.297 0.495-0.212 0.104-0.418 0.208-0.594 0.346m0.075 0.446c0.071-0.037 0.346-0.052 0.495-0.05 0.095 0.135 0.549 0.443 0.766 0.297 0.106-0.037 0.119-0.11 0.223-0.149 0.195 0.287 0.68 0.349 0.989 0.174 0.139-0.078 0.202-0.274 0.347-0.346v0.074c-0.129 0.147-0.122 0.418-0.223 0.594-0.265 0.462-0.651 0.514-1.212 0.618-0.021 0.059-0.01 0.04-0.049 0.074-0.263-0.268-0.645-0.38-0.965-0.594-0.228-0.152-0.452-0.348-0.668-0.519v-0.05c0.179 0.021 0.169-0.058 0.297-0.123m-1.88-3.513c0.025-0.02 7e-3 -9e-3 0.049-0.025-0.025 0.02-6e-3 9e-3 -0.049 0.025m0.791 0.568c-0.041 0.052-0.047 0.104-0.049 0.198-0.307-0.027-0.499-0.089-0.742 0.05-0.059 0.033-0.044 0.091-0.124 0.124v-0.075c0.095-0.103 0.506-0.589 0.668-0.494 0.12 0.027 0.211 0.086 0.247 0.197m-0.223-1.162c-0.03-0.081-0.067-0.083 0.05-0.124 8e-3 0.041 0.017 0.082 0.024 0.124zm0.174 0.223v0.098c-0.118 0.05-0.132 0.121-0.223 0.174-0.078-0.078-0.206-0.166-0.322-0.198 0.07-0.089 0.073-0.089 0.025-0.198h0.173v0.049c5e-3 0.031-0.012 0.068-0.024 0.149h0.049c0.018 0.021 0.031 0.028 0.05 0.049 0.14-0.076 0.176-0.06 0.272-0.123m0.395 1.014c0.132-0.125 0.426-0.074 0.57 0 0.184 0.095 0.647 0.896 0.692 1.162-0.624 0.25-0.929 0.467-1.113 1.163-0.054 0.202 0.136 0.343 0.05 0.495-0.063-0.085-0.186-0.215-0.273-0.272-0.037-0.024-0.074 8e-3 -0.098-0.025-0.054-0.07-0.049-0.152-0.124-0.198l-0.123-0.025c-0.018-0.049-0.034-0.099-0.05-0.148-0.027-0.031-0.097-0.043-0.124-0.074-0.064-0.071-0.067-0.167-0.124-0.248-0.025-8e-3 -0.049-0.016-0.075-0.025v-0.073c-0.046-0.072-0.152-0.151-0.197-0.223-9e-3 -0.05-0.016-0.099-0.025-0.148-0.058-0.122-0.288-0.366-0.223-0.52 0.044-0.041 0.139-0.051 0.174-0.099 0.024-0.074 0.049-0.149 0.074-0.222 0.035-0.041 0.111-0.059 0.149-0.1 0.215 5e-3 0.404 0.045 0.642 0.074 0.037-0.043 0.088-0.054 0.124-0.098 0.075-0.106-9e-3 -0.276 0.074-0.396m1.906 1.484c0.044 0.175-0.046 0.262-0.05 0.421-0.174 0.02-0.481-0.069-0.544-0.223-0.061-0.082-0.065-0.18-0.05-0.272 0.183-0.033 0.359-0.045 0.421-0.223 0.02-0.029 0.019-0.041 0.025-0.099-0.294-0.104-0.425-0.383-0.025-0.47-0.028 0.343 0.15 0.582 0.223 0.866m1.063-0.569c0.05 0.052 0.073 0.066 0.173 0.074 0.159-0.197 0.308-0.103 0.545-0.074 0.018 0.09 0.052 0.073 0.074 0.124 0.07 0.16-0.012 0.333-0.025 0.494-0.104 0.077-0.185 0.177-0.321 0.224v-0.075c0.084-0.138-0.061-0.219-0.099-0.297v-0.124c-0.09-0.171-0.736-0.499-1.039-0.396-0.087 0.03-0.112 0.099-0.223 0.124v-0.049c0-0.011 0.077-0.233 0.123-0.297 0.176-0.151 0.364-0.166 0.594-0.149 0.043 0.076 0.108 0.068 0.148 0.149 0.037 0.07-0.013 0.189 0.05 0.272m3.092-2.969c-0.116 0.104-0.087 0.229-0.173 0.372-0.057 0.096-0.179 0.24-0.222 0.346-0.042 0.102 0 0.19-0.049 0.297-0.034 0.025-0.067 0.049-0.1 0.074-0.046 0.092 0 0.177-0.05 0.272-0.023 0.045-0.125 0.12-0.147 0.173-0.047 0.107-0.013 0.172-0.074 0.248-0.05-0.116-0.12-0.164-0.174-0.273-0.129-0.014-0.162-0.073-0.247-0.098-0.218-0.065-0.72 0.101-0.891 0.173 9e-3 -0.462-0.45-0.843-0.866-0.792-0.167 0.021-0.334 0.154-0.47 0.223-0.024-0.057-0.081-0.131-0.124-0.173 0.048-0.17 0.193-0.309 0.248-0.446-9e-3 -0.041-0.016-0.082-0.025-0.124 0.018-0.053 0.103-0.176 0.124-0.222v-0.149c0.012-0.018 0.086-0.024 0.098-0.049v-0.123c0.034-0.068 0.137-0.175 0.174-0.248 0.07-0.137 0.044-0.393 0.223-0.421 0.087 0.061 0.203 0.066 0.297 0.124 0.016 0.024 0.032 0.049 0.049 0.074h0.222c0.087 0.029 0.203 0.118 0.297 0.148 0.426 0.14 0.922 0.224 1.237 0.372 0.174 0.081 0.562 0.07 0.643 0.222m-1.113-0.915c-0.015 0.043-4e-3 0.024-0.025 0.049v-0.049zm-0.618-0.371c-9e-3 0.051-6e-3 0.048-0.025 0.074-8e-3 -0.025-0.016-0.049-0.024-0.074zm-0.94-0.618c0.023 0.03 0.123 0.079 0.074 0.098-0.038-0.03-0.103-0.053-0.148-0.073v-0.025zm-0.099 0.321c2e-3 0.077 3e-3 0.157-0.025 0.198-0.016-0.043-5e-3 -0.024-0.024-0.05 8e-3 -0.05 0.023-0.113 0.049-0.148m2.77 0.965c-0.024 8e-3 -0.049 0.016-0.073 0.024-0.1-0.032-0.198-0.066-0.297-0.098-0.033-0.027-0.056-0.108-0.1-0.124-0.076-0.028-0.163 0.025-0.247 0.024-0.12-0.252-0.518-0.225-0.718-0.321 4e-3 0.087 0.013 0.066 0 0.124h-0.024v-0.025c-0.041-0.044-0.043-0.062-0.05-0.148h0.025c0.022 0.029 0.02 0.027 0.049 0.049v-0.049c-0.075-0.046-0.151-0.093-0.172-0.198-0.01-0.046 9e-3 -0.098 0.024-0.173-0.132-0.028-0.151-0.062-0.197-0.174-0.182-0.019-0.259 0.028-0.347 0.05-0.124-0.025-0.247-0.05-0.371-0.074v-0.025c0.109-9e-3 0.119-5e-3 0.247 0 0.022-0.03 0.021-0.028 0.05-0.05-0.07-0.104-0.038-0.11-0.025-0.297-0.131-0.065-0.144 0.02-0.272-0.024-0.064-0.022-0.072-0.123-0.124-0.148h-0.148c-0.191-0.07-0.02-0.082-0.272-0.05 0.035-0.192-0.079-0.347-0.124-0.544h0.074c0.105 0.113 0.275 0.069 0.421 0.148 0.235 0.127 0.518 0.177 0.791 0.297 0.125 0.054 0.22 0 0.347 0.049 0.016 7e-3 0.043 0.071 0.049 0.075h0.173c0.038 0.016 0.127 0.108 0.173 0.123 0.041-8e-3 0.083-0.016 0.124-0.025 0.115 0.042 0.506 0.204 0.57 0.298 0.093 0.145 0.111 0.336 0.173 0.519 0.08 0.239 0.223 0.462 0.271 0.767m-4.576-0.47c-0.01 0.231-0.152 0.34-0.247 0.519-0.152 0.286-0.284 0.6-0.421 0.941h-0.05v-0.05c0.095-0.187-0.135-0.619-0.197-0.767-0.041-0.096-1e-3 -0.161-0.05-0.247-0.275-0.491-0.644-0.843-1.039-1.212-0.147-0.137-0.267-0.345-0.52-0.371-0.047-9e-3 -0.164 0.039-0.247 0.073-0.43 0.859-0.685 1.812-0.322 2.796 0.038 0.013 0.042 0.017 0.1 0.025 0.021 0.17 0.113 0.204 0.173 0.346h-0.025c-0.255-0.17-0.637-0.073-0.916 0-0.137 0.036-0.199 3e-3 -0.321 0.05-0.405 0.156-0.809 0.578-0.989 0.964-9e-3 0.066-0.017 0.132-0.026 0.198-0.061 0.161-0.211 0.489-0.173 0.718 0.037 0.224 0.039 0.689 0.099 0.94 0.02 0.084 0.136 0.245 0.174 0.322 0.016 0.082 0.033 0.165 0.049 0.247 0.074 0.175 0.233 0.318 0.322 0.47 8e-3 0.042 0.016 0.083 0.024 0.124 0.054 0.078 0.197 0.122 0.247 0.198 0.053 0.078 0.047 0.152 0.1 0.222 0.105 0.144 0.286 0.256 0.395 0.396 0.07 0.089 0.095 0.195 0.173 0.272 0.138 0.135 0.312 0.179 0.421 0.347-0.022 0.031-0.089 0.126-0.098 0.148v0.148c-0.015 0.03-0.081 0.027-0.1 0.05-0.041 0.052 7e-3 0.128-0.024 0.198-0.025 0.016-0.05 0.033-0.075 0.049-0.057 0.122-0.062 0.279-0.124 0.396-0.032 0.025-0.065 0.05-0.098 0.075-0.075 0.134-0.02 0.239-0.173 0.296-0.056-0.404-0.383-0.633-0.619-0.866-0.364-0.356-0.647-0.729-1.114-0.989-0.193-0.108-0.548-0.48-0.84-0.248-0.176 0.264-0.224 0.968-0.149 1.237l-0.024 0.297c0.024 0.017 0.049 0.033 0.074 0.05 0.033 0.084-0.034 0.167-0.025 0.223 0.031 0.201 0.183 0.434 0.222 0.643h-0.024c-0.064-0.042-0.181-0.029-0.247-0.075-0.269-0.183-0.651-0.343-0.965-0.47-0.082-0.033-0.089 0.023-0.149 0-0.516-0.19-1.076-0.505-1.608-0.692h-0.124c-0.219-0.08-0.704-0.438-1.039-0.248l-0.197 0.322v0.124c-0.049 0.097-0.215 0.193-0.273 0.296v0.1c-0.018 0.026-0.082 0.033-0.098 0.074v0.123c-0.021 0.035-0.1 0.021-0.124 0.05v0.074c-0.103 0.166-0.243 0.355-0.322 0.544-8e-3 0.066-0.016 0.132-0.025 0.198-0.013 0.029-0.085 0.062-0.099 0.099v0.174c-0.012 0.039-0.088 0.108-0.098 0.147-0.035 0.13 0.078 0.213 0.098 0.273-8e-3 0.049-0.016 0.099-0.024 0.148 0.03 0.085 0.143 0.22 0.173 0.297-8e-3 0.033-0.017 0.066-0.025 0.099 0.035 0.127 0.169 0.328 0.223 0.446v0.123c0.042 0.124 0.198 0.516 0.271 0.618 0.156 0.118 0.6 0.266 0.792 0.347 0.067 8e-3 0.132 0.016 0.199 0.024 0.043 0.021 0.094 0.103 0.148 0.124l0.173 0.025c0.067 0.03 0.154 0.126 0.223 0.148 0.041-8e-3 0.083-0.016 0.124-0.024 0.11 0.036 0.262 0.173 0.371 0.223 0.195 0.088 0.347 0.042 0.495 0.148-0.59 0.276-1.448 1.047-1.658 1.682 8e-3 0.033 0.016 0.066 0.025 0.099-0.035 0.101-0.113 0.045-0.124 0.248 0.107 0.103 0.156 0.193 0.371 0.198 0.05-0.022 0.889 0.058 1.113 0.099 0.234 0.042 0.458-0.111 0.619-0.149v0.025c-0.158 0.106-0.17 0.288-0.297 0.42-0.048 0.05-0.133 0.066-0.173 0.124-0.201 0.289-0.329 0.61-0.52 0.915-0.025 9e-3 -0.049 0.017-0.074 0.025v0.124c-0.025 0.049-0.107 0.079-0.124 0.149-0.021 0.089 0.012 0.176 0 0.296 0.074 0.044 0.208 0.13 0.297 0.148 0.104 0.022 0.405-0.05 0.495-0.074 0.053-0.014 0.109 0.023 0.123 0.025 0.15 0.029 0.278-2e-3 0.421-0.049 0.207-0.069 0.292-0.165 0.52-0.198v0.024c-0.122 0.16-0.361 0.708-0.372 0.965 0.132 0.153 0.175 0.354 0.297 0.52 0.025 8e-3 0.05 0.016 0.075 0.025 7e-3 0.041 0.016 0.082 0.024 0.123 0.025 8e-3 0.05 0.017 0.074 0.025 9e-3 0.041 0.017 0.083 0.026 0.124 0.024 8e-3 0.048 0.016 0.074 0.024 0.046 0.075 0.023 0.155 0.074 0.223 0.016 0.022 0.079 0.029 0.099 0.049 0.016 0.05 0.033 0.1 0.049 0.149 0.032 0.047 0.114 0.057 0.149 0.099l0.024 0.099c0.132 0.132 0.505 0.179 0.693 0.272 0.234 0.116 0.55 0.237 0.816 0.321 0.116 0.017 0.232 0.034 0.347 0.05 0.063 0.027 0.194 0.138 0.272 0.148 0.052 8e-3 0.113-0.03 0.198 0 0.288 0.104 0.672 0.33 1.014 0.347 0.167-0.708 0.646-1.202 0.915-1.831 0.021 0.026 9e-3 7e-3 0.026 0.05 0.121 0.149 0.213 0.638 0.371 0.865 0.041 0.034 0.082 0.066 0.123 0.099 9e-3 0.034 0.016 0.066 0.025 0.099 0.114 0.152 0.286 0.285 0.42 0.421 0.039 0.039 0.039 0.106 0.074 0.148 0.054 0.063 0.171 0.085 0.223 0.149 9e-3 0.033 0.017 0.066 0.025 0.099 0.084 0.083 0.214 0.114 0.297 0.198 0.092-3e-3 0.159-3e-3 0.197-0.025 0.138-0.114 0.502-0.703 0.57-0.891 0.089-0.246 0.142-0.678 0.272-0.866 0.026 0.021 7e-3 9e-3 0.049 0.025 0.085 0.237 0.256 0.318 0.421 0.47 0.025 0.024 0.022 0.103 0.05 0.124h0.098c0.03 0.018 0.037 0.083 0.075 0.099 0.025-8e-3 0.049-0.016 0.074-0.025 0.024 0.033 0.05 0.066 0.074 0.099 0.033-8e-3 0.066-0.017 0.099-0.025 8e-3 0.034 0.016 0.066 0.025 0.099 0.059 0.045 0.38 0.142 0.47 0.149 0.039-0.036 0.147-0.054 0.173-0.099 0.088-0.153 0.051-0.471 0.099-0.668 0.101-0.415 0.032-1.282-0.174-1.683h0.075c0.095 0.066 0.205 0.043 0.322 0.1 0.115 0.056 0.276 0.174 0.395 0.222 0.13 0.052 0.247 0.04 0.372 0.099 0.259 0.124 0.566 0.342 0.84 0.446 0.115 0.042 0.256 0.069 0.347 0.098 0.05 0.016 0.08-0.033 0.099-0.024 0.025 0.033 0.049 0.066 0.074 0.098 0.091 0.051 0.269 0.091 0.396 0.1 0.058-0.081 0.079-0.062 0.173-0.075 0.039-0.092 0.114-0.123 0.149-0.197 0.135-0.303 0.245-0.587 0.42-0.842l0.049-0.222c0.045-0.078 0.149-0.187 0.199-0.272 0.024-0.083 0.048-0.165 0.074-0.248 0.069-0.113 0.403-0.572 0.321-0.792-0.141-0.378-0.272-0.757-0.42-1.088-0.098-0.22-0.11-0.848-0.322-1.014-0.191-0.133-0.443-0.121-0.668-0.223-0.089-0.041-0.176-0.116-0.297-0.148v-0.025h0.025c0.129-0.087 0.283-0.095 0.42-0.173 0.077-0.044 0.147-0.183 0.223-0.223 0.055-0.028 0.058 0.04 0.124 0 0.212-0.127 0.57-0.581 0.568-0.915-0.39-0.192-0.79-0.46-1.36-0.471 7e-3 -0.377 0.064-0.528-0.05-0.89-0.015-0.099-0.032-0.198-0.049-0.297-0.024-0.016-0.049-0.033-0.074-0.049-0.016-0.108-0.033-0.215-0.05-0.322-0.024-8e-3 -0.048-0.016-0.074-0.025-0.042-0.053-0.019-0.131-0.049-0.197-0.035-0.078-0.118-0.177-0.173-0.248-0.041-0.025-0.082-0.05-0.123-0.074-0.033-0.055 7e-3 -0.127-0.026-0.174l-0.099-0.049c-0.079-0.096-0.147-0.251-0.247-0.322-0.036-0.024-0.075 9e-3 -0.099-0.024-0.034-0.047-0.018-0.104-0.05-0.149-0.035-0.051-0.203-0.165-0.147-0.223 0.06-0.115 0.205-0.193 0.247-0.321 0.056-0.171-0.078-0.237 0.049-0.396 0.036 0.024 0.081 0.025 0.149 0.025 0.052 0.097 0.094 0.295 0.173 0.371h0.074c0.084 0.077 0.124 0.237 0.223 0.297 0.09 0.055 0.185 0.041 0.272 0.099 0.044 0.03 0.057 0.12 0.099 0.148 0.099 0.068 0.215 0.066 0.321 0.124 0.136 0.075 0.311 0.221 0.471 0.272 0.052 0.018 0.32 9e-3 0.42 0.05 0.016 0.025 0.033 0.049 0.049 0.074 0.022 8e-3 0.048-0.038 0.099-0.025 0.128 0.031 0.187 0.093 0.297 0.025 0.062 0.045 0.029 0.058 0.1 0.049 0.21-0.027 0.39 0.045 0.618 0 0.036-0.126 0.091-0.125 0.098-0.296-0.094-0.12-0.084-0.317-0.148-0.471-0.017-0.041-0.085-0.106-0.099-0.148v-0.223c-0.143-0.331-0.452-0.688-0.668-0.965-0.07-0.089-0.219-0.086-0.247-0.222 0.11-0.045 0.329 0.057 0.47 0.025 0.069-0.017 0.126-0.073 0.198-0.1 0.032 9e-3 0.066 0.017 0.099 0.025 0.026-5e-3 0.083-0.067 0.098-0.074l0.223-0.025c0.087-0.033 0.217-0.136 0.297-0.173 0.128-0.057 0.217-0.033 0.322-0.099 0.064-0.039 0.094-0.132 0.148-0.173 0.11-0.085 0.246-0.048 0.272-0.247-0.323-0.315-0.714-0.645-1.237-0.841-0.169-0.064-0.3-0.027-0.47-0.075-0.25-0.07-0.7-0.152-0.965-0.074-0.045 0.013-0.121 0.084-0.173 0.099-0.033-8e-3 -0.066-0.016-0.098-0.025-0.061 0.025-0.113 0.156-0.174 0.199-0.033-0.166-0.161-0.162-0.197-0.322 0.173-0.159 0.208-0.515 0.123-0.792h0.05c0.134 0.08 0.423-0.042 0.593-0.025 0.572 0.059 1.567-0.457 1.856-0.668 0.16-0.116 0.52-0.238 0.594-0.42 0.032-0.048 0.042-0.155 0.048-0.223-0.47-0.268-0.869-0.649-1.459-0.742v-0.05h0.025c0.14-0.144 0.402-0.235 0.495-0.42 0.018-0.027 0.015-0.023 0.024-0.074h0.075c0.156-0.261 0.849-1.029 0.693-1.361-0.037-0.063-0.038-0.078-0.124-0.099-0.073-0.046-0.224-0.017-0.297 0-0.614-0.243-1.34 0.114-1.855 0.247v-0.049c0.1-0.103 0.018-0.199 0-0.371 0.038-0.052-0.077-0.231-0.099-0.297-0.068-0.194-0.063-0.413-0.149-0.594-0.056-0.117-0.152-0.288-0.198-0.421-0.079-0.228-0.046-0.511-0.346-0.519-0.014 0.016-0.042 0.085-0.075 0.075-0.053-0.018-0.186-0.127-0.247-0.149-0.164-0.06-0.268-0.039-0.421-0.099-0.278-0.11-0.616-0.202-0.89-0.297-0.186-0.064-0.321-0.028-0.494-0.099-0.15-0.06-0.359-0.149-0.52-0.198h-0.148c-0.037-0.013-0.054-0.087-0.075-0.099-0.084-0.047-0.215 0.038-0.272 0.05-0.02 0.168-0.11 0.122-0.173 0.222-0.092 0.148-0.102 0.323-0.198 0.47-0.033 0.025-0.067 0.05-0.099 0.075-0.071 0.126-0.064 0.239-0.124 0.371-0.087 0.192-0.246 0.417-0.321 0.618-0.042 0.112-0.017 0.232-0.05 0.322zm-1.88 21.696c-0.042 9e-3 -0.083 0.017-0.124 0.025-0.025-0.02-6e-3 -9e-3 -0.05-0.025-0.047-0.221-0.074-0.566 0.074-0.717 0.017-0.043 5e-3 -0.024 0.026-0.05 0.036 0.102 0.177 0.316 0.098 0.446 2e-3 0.113 2e-3 0.244-0.024 0.321m2.078-1.113c-0.058-0.028-0.082-0.053-0.148-0.074-0.063 0.103-0.1 0.138-0.1 0.321 0.115 0.145 0.057 0.275 0.124 0.495 0.102 0.331 0.219 0.918 0.445 1.213 0.074-0.016 0.091-0.015 0.124-0.075 0.029-0.029 0.045-0.07 0.075-0.099-0.086-0.203-0.163-0.505-0.223-0.717v-0.198c-0.085-0.266-0.227-0.578-0.297-0.866" fill="#231f20" fill-rule="evenodd"/></g></g></g></svg>
