<?xml version="1.0" encoding="UTF-8"?>
<svg version="1.1" viewBox="0 0 128 128" xml:space="preserve" xmlns="http://www.w3.org/2000/svg" xmlns:cc="http://creativecommons.org/ns#" xmlns:dc="http://purl.org/dc/elements/1.1/" xmlns:rdf="http://www.w3.org/1999/02/22-rdf-syntax-ns#"><metadata><rdf:RDF><cc:Work rdf:about=""><dc:format>image/svg+xml</dc:format><dc:type rdf:resource="http://purl.org/dc/dcmitype/StillImage"/><dc:title/></cc:Work></rdf:RDF></metadata><g transform="translate(-8.2085 -9.9068)"><g transform="matrix(3.2957 0 0 -3.2957 -359.05 517.31)"><g transform="translate(132.77 123.05)"><path d="m0 0c-0.212 0.127-0.666 0.363-0.915 0.363-0.038 0-0.073-4e-3 -0.106-0.013-0.098-0.028-0.183-0.083-0.258-0.133-0.034-0.021-0.085-0.055-0.118-0.07-0.017 0.017-0.037 0.046-0.067 0.09-0.063 0.096-0.156 0.235-0.351 0.302-0.115 0.074-0.25 0.11-0.414 0.11-0.141 0-0.284-0.026-0.421-0.052-0.087-0.016-0.17-0.032-0.246-0.04-1e-3 0.019-4e-3 0.037-6e-3 0.055-0.025 0.214-0.063 0.536-0.448 0.667l-0.745 0.236c-0.181 0.119-0.351 0.29-0.516 0.456-0.041 0.042-0.082 0.083-0.124 0.124v1e-3c0.1 0.049 0.203 0.121 0.269 0.245l0.115 0.217-0.211 0.122c-1.009 0.585-1.894 1.749-2.366 3.113-0.034 0.099-0.096 0.214-0.169 0.347-0.078 0.143-0.259 0.477-0.239 0.577l0.043 0.108-0.056 0.099c-0.291 0.557-0.52 1.833-0.422 2.353l0.036 0.188-0.171 0.086c-0.17 0.085-0.181 0.136-0.218 0.303-0.027 0.121-0.062 0.272-0.164 0.45-0.045 0.078-0.108 0.153-0.168 0.226-0.044 0.053-0.092 0.111-0.123 0.158v0.172l-0.039 0.061c-0.091 0.145-0.205 0.29-0.316 0.43-0.12 0.152-0.245 0.31-0.329 0.456-3e-3 5e-3 -4e-3 0.015-7e-3 0.043-6e-3 0.059-0.017 0.147-0.077 0.246-0.155 0.256-0.552 0.567-0.937 0.867-0.116 0.091-0.228 0.178-0.32 0.255 0.547 0.226 0.822 0.688 0.986 1.034 0.072 0.154 0.092 0.317 0.108 0.462 0.023 0.189 0.037 0.251 0.069 0.273 0.086-0.038 0.177-0.058 0.274-0.058 0.657 0 1.276 0.92 1.371 1.101 0.031 0.059 0.053 0.117 0.072 0.168 0.018 0.048 0.044 0.121 0.062 0.129l0.012 6e-3 0.01 7e-3c0.047 0.03 0.081 0.036 0.118 0.036 0.04 0 0.078-6e-3 0.117-0.012 0.055-8e-3 0.119-0.017 0.189-0.017 0.141 0 0.268 0.037 0.389 0.115 0.155 0.1 0.239 0.243 0.307 0.357 0.095 0.16 0.128 0.206 0.258 0.212l0.075 4e-3 0.06 0.043c-1e-3 -1e-3 -1e-3 -1e-3 1e-3 -1e-3 6e-3 0 0.022 2e-3 0.054 2e-3 0.03 0 0.063-2e-3 0.099-3e-3 0.051-2e-3 0.108-4e-3 0.171-4e-3h0.2l0.062 0.195c0.035 0.144 0.115 0.288 0.201 0.441 0.052 0.092 0.106 0.187 0.15 0.286 0.076 0.169 0.12 0.33 0.163 0.486 0.048 0.179 0.091 0.334 0.173 0.477 0.012 8e-3 0.025 0.016 0.039 0.024 0.07 0.045 0.149 0.095 0.192 0.186 0.032 0.07 0.031 0.139 0.031 0.228 0 0.05 0 0.155 0.014 0.19 0.057 0.141 0.127 0.295 0.197 0.453 0.105 0.232 0.212 0.472 0.293 0.692 0.115 0.31 0.156 0.676 0.193 0.999 0.027 0.231 0.051 0.449 0.097 0.6l0.043 0.145-0.103 0.104c-0.014 0.06-0.032 0.179-0.052 0.415l-0.025 0.281-0.276-0.054c-0.057-0.011-0.106-0.022-0.153-0.032-0.109-0.023-0.18-0.039-0.261-0.039-0.061 0-0.128 9e-3 -0.211 0.028l-0.272 0.065-0.038-0.278c-0.038-0.279-0.251-0.477-0.58-0.54-0.01 7e-3 -0.04 0.025-0.045 0.027v2e-3c0.028 0.098 0.015 0.19 4e-3 0.267-4e-3 0.03-8e-3 0.065-0.011 0.105l-0.01 0.146-0.13 0.065c-0.051 0.025-0.1 0.074-0.156 0.131-0.109 0.11-0.244 0.247-0.473 0.296l-0.283 0.061-0.023-0.29c-8e-3 -0.106-0.039-0.159-0.077-0.228-0.025-0.045-0.053-0.097-0.074-0.161-0.044-0.137-0.03-0.253-7e-3 -0.342-0.042 0.016-0.083 0.028-0.122 0.039-0.071 0.021-0.133 0.039-0.174 0.068-0.229 0.161-0.371 0.509-0.422 1.035l-0.021 0.229h-0.434l-0.076-0.094c-0.046-0.056-0.208-0.151-0.787-0.151h-0.036c0.17 0.195 0.161 0.455 0.155 0.659-6e-3 0.166-0.011 0.337 0.049 0.507 0.048 0.136 0.142 0.263 0.241 0.396 0.122 0.166 0.261 0.354 0.332 0.591l0.043 0.146-0.262 0.262-0.154-0.057c-0.109-0.041-0.201-0.087-0.282-0.128-0.053-0.026-0.102-0.051-0.148-0.071 0.038 0.094 0.069 0.187 0.098 0.275 0.126 0.382 0.197 0.551 0.556 0.57l0.069 3e-3 0.037 0.025c0.011-3e-3 0.022-8e-3 0.035-0.012l0.552-0.191-0.23 0.532c-0.118 0.264-0.182 0.815-0.014 1.076 0.029 0.044 0.069 0.092 0.145 0.122 0.07-0.21 0.176-0.519 0.585-0.575 0.044-0.015 0.092-0.023 0.146-0.023 0.142 0 0.449 0.077 0.544 0.17l0.023 0.022 0.017 0.028c0.072 0.118 0.067 0.243 0.064 0.343-2e-3 0.045-4e-3 0.096 2e-3 0.121 0.014 0.043 0.044 0.1 0.077 0.16 0.025 0.046 0.051 0.096 0.076 0.15 0.077 0.024 0.136 0.048 0.182 0.068 0.072 0.03 0.098 0.041 0.155 0.041 0.01 0 0.023 0 0.036-1e-3v-0.109c-1e-3 -0.38-1e-3 -0.773 0.258-0.929l0.424-0.422 0.022 0.579c0.02 0.53 0.305 0.705 0.807 0.969 0.301 0.159 0.637 0.336 0.879 0.656 0.096-0.249 0.198-0.984 0.167-1.166-0.019-0.104-0.079-0.229-0.136-0.35-0.033-0.07-0.067-0.14-0.094-0.208l-0.13-0.323 0.348-0.025c0.481-0.034 1.158-0.203 1.431-0.477-0.152 8e-3 -0.295 9e-3 -0.357 9e-3h-0.125l-0.076-0.098c-0.014-0.018-0.014-0.018-0.067-0.046l-0.196-0.102 0.063-0.215 9e-3 -0.031c0.014-0.041 0.029-0.069 0.053-0.101 0.066-0.128 0.164-0.207 0.246-0.273 0.046-0.036 0.093-0.074 0.105-0.101 0.143-0.318 0.088-1.013-0.11-1.352-8e-3 -0.015-0.051-0.047-0.083-0.07-0.078-0.057-0.184-0.136-0.251-0.271l-0.086-0.176 0.149-0.128c0.128-0.11 0.187-0.279 0.263-0.494 0.034-0.099 0.07-0.202 0.117-0.309l0.019-0.044 0.104-0.104 0.122-0.528 0.135-0.135c0.041-0.121 0.069-0.306 0.084-0.459l-0.043-0.261 0.011-0.05c0.151-0.64 0.076-1.237-5e-3 -1.87-0.031-0.25-0.064-0.509-0.083-0.775l-0.019-0.272h0.571l0.062 0.165c0.059 0.101 0.429 0.336 0.685 0.437 0.094-0.291 0.229-0.611 0.591-0.713 0.046-0.014 0.091-0.02 0.138-0.02 0.028 0 0.055 2e-3 0.081 6e-3 3e-3 -0.045-9e-3 -0.112-0.035-0.228-0.047-0.203-0.11-0.481 0.016-0.789 0.076-0.186 0.204-0.306 0.317-0.412 0.048-0.045 0.091-0.086 0.126-0.127-0.018-0.019-0.035-0.038-0.052-0.056-0.055-0.062-0.099-0.11-0.155-0.141l-0.161-0.088 0.032-0.18c5e-3 -0.032-7e-3 -0.14-0.016-0.219-0.013-0.116-0.027-0.247-0.028-0.384l-2e-3 -0.193 0.184-0.053c0.086-0.028 0.265-0.197 0.271-0.271-6e-3 -5e-3 -0.048-0.055-0.076-0.088-0.076-0.091-0.172-0.204-0.208-0.353-0.035-0.145-6e-3 -0.275 0.02-0.375l-0.038-2e-3 -0.021-0.01c-0.064 5e-3 -0.197 0.045-0.314 0.08-0.229 0.07-0.515 0.157-0.79 0.157-0.09 0-0.175-0.01-0.253-0.028-1.103-0.261-1.682-0.541-2.196-1.509l-0.02-0.037c-0.202-0.376-0.37-0.763-0.226-1.049 0.111-0.256 0.317-0.418 0.499-0.559l0.018-0.014c0.086-0.068 0.171-0.141 0.258-0.214 0.232-0.197 0.47-0.399 0.759-0.544 0.226-0.113 0.482-0.133 0.707-0.15 0.108-8e-3 0.21-0.016 0.283-0.033 0.301-0.07 0.545-0.144 0.828-0.229l0.433-0.129 0.061 0.265c0.061 0.275 0.222 0.498 0.393 0.734 0.178 0.247 0.361 0.502 0.456 0.837l0.09 0.322h-0.51l-0.07-0.06c-0.097-0.082-0.208-0.122-0.338-0.122-0.16 0-0.343 0.063-0.509 0.174-0.163 0.438-0.093 1.06 0.257 1.289 0.178 0.133 0.369 0.196 0.58 0.196 0.48 0 0.998-0.343 1.154-0.763 0.228-0.61-0.062-1.197-0.273-1.627-0.019-0.039-0.05-0.095-0.085-0.164-0.4-0.765-0.481-0.996-0.412-1.176l0.026-0.068 0.059-0.044c0.131-0.098 0.486-0.247 0.698-0.259 0.191-0.113 0.353-0.219 0.484-0.313 0.13-0.093 0.241-0.243 0.358-0.402 0.142-0.193 0.289-0.393 0.5-0.536l0.381-0.257 0.015 0.459c0.014 0.403 0.074 0.65 0.165 1.023 0.013 0.059 0.028 0.12 0.043 0.184 0.082 0.045 0.144 0.097 0.197 0.142 1e-3 -0.016 2e-3 -0.034 2e-3 -0.055 2e-3 -0.118 4e-3 -0.279 0.083-0.455 0.193-0.432 0.514-0.69 0.824-0.939 0.145-0.117 0.282-0.227 0.402-0.352 0.035-0.038 0.105-0.195 0.146-0.289 0.106-0.243 0.179-0.397 0.305-0.479l0.253-0.164 0.119 0.277c0.092 0.217 0.37 0.399 0.656 0.445 3e-3 -0.082-0.063-0.245-0.115-0.379-0.126-0.315-0.283-0.706-0.166-1.13 0.039-0.141 0.118-0.264 0.189-0.373 0.041-0.064 0.084-0.13 0.102-0.177 0.196-0.525 0.102-1.239-0.346-1.422l-0.157-0.064v-0.394l0.12-0.074c0.182-0.113 0.187-0.217 0.196-0.405 7e-3 -0.148 0.016-0.332 0.137-0.502l0.011-0.015 0.012-0.013c0.168-0.175 0.441-0.295 0.729-0.321l0.152-0.013 0.084 0.128c0.072 0.09 0.502 0.366 0.703 0.366l0.027-0.017 0.032-5e-3c0.153-0.051 0.2-0.205 0.226-0.519-0.047-0.062-0.077-0.125-0.101-0.176-0.02-0.04-0.04-0.083-0.057-0.099-8e-3 -5e-3 -0.04-0.019-0.061-0.028-0.038-0.015-0.085-0.034-0.132-0.064-0.103 3e-3 -0.204 0.014-0.311 0.025-0.125 0.013-0.255 0.027-0.387 0.027-0.258 0-0.474-0.053-0.679-0.164-0.158-0.086-0.21-0.24-0.245-0.343-0.01-0.029-0.025-0.072-0.034-0.085-0.118-0.142-0.559-0.421-0.772-0.487-0.253-0.078-0.536-0.121-0.799-0.121-0.16 0-0.312 0.015-0.453 0.046-0.131 0.028-0.323 0.062-0.501 0.062-0.083 0-0.155-8e-3 -0.22-0.023-0.143-0.033-0.272-0.086-0.397-0.138-0.104-0.042-0.202-0.083-0.296-0.106-2e-3 0-0.017-3e-3 -0.049-3e-3 -0.103 0-0.255 0.028-0.389 0.053s-0.249 0.047-0.34 0.047c-0.063 0-0.117-0.011-0.162-0.032l-0.054-0.025-0.157-0.197c-0.078-0.026-0.174-0.037-0.295-0.037-0.111 0-0.228 9e-3 -0.353 0.019-0.093 8e-3 -0.187 0.015-0.282 0.02l-0.193 8e-3 -0.06-0.184c-0.104-0.328-0.569-0.847-0.957-0.914" fill="#eccea0" fill-rule="evenodd"/></g><g transform="translate(129.83 141.47)"><path d="m0 0c0-0.242 0.038-0.274 0.122-0.406h0.487c0.248 0.103 0.307 0.506 0.406 0.772 0.28 0.751 0.313 2.006 0.122 2.924-0.083 0.398 0.022 0.924-0.203 1.178-0.014 0.04-0.027 0.081-0.04 0.122h-0.204c-0.339-0.745 0.077-2.015-0.122-2.924-0.136-0.628-0.21-1.262-0.568-1.666" fill="#ffa500" fill-rule="evenodd"/></g><g transform="translate(131.49 132.94)"><path d="m0 0c0.349-0.099 1.305 1e-3 1.503-0.122 0.027-0.017 0.047-0.139 0.081-0.162 0.102-0.07 0.24-0.153 0.325-0.203 0.154-0.092 0.353 0.052 0.487 0 0.054-0.068 0.109-0.136 0.163-0.203 0.366-0.262 0.789-0.417 1.137-0.691 0.203 0.018 0.253 0.076 0.406 0.122 0.041 0.108 0.082 0.217 0.122 0.325 9e-3 0.676-0.597 1.011-1.016 1.259-0.096-0.035-0.485 0.113-0.608 0.203 0 0 0.073 0.55 0.121 0.65l0.325 0.325c0.451 0.687 0.597 1.909-0.122 2.436-0.244 0.18-0.968 0.592-1.34 0.244-0.223-0.076-0.278-0.23-0.365-0.447-0.277-0.685 0.23-1.095 0.568-1.421 0.143 0.018 0.276 0.05 0.365 0.122 0.128-0.065 0.05-0.027 0.041-0.163 0.086 0.021 0.147 0.037 0.203 0.081h0.041c-0.295-0.668-0.947-0.701-0.934-1.705-0.58 0.044-2.146 0.279-2.519 0.528l-1.177 1.177c-0.056 0.114-0.044 0.241-0.081 0.326-0.231 0.048-0.326 0.017-0.488-0.082-0.095-0.494 0.199-0.752 0.407-1.056 0.564-0.831 1.263-1.234 2.355-1.543" fill="#ffa500" fill-rule="evenodd"/></g><g transform="translate(135.43 128.44)"><path d="m0 0c-0.226-0.229-1.067-0.732-0.568-1.259 0.101-0.291 0.457-0.288 0.69-0.447 0.616 0.07 0.671 0.681 0.609 1.3-0.134 0.143-0.147 0.295-0.366 0.365-0.073 0.051-0.232 0.046-0.365 0.041" fill="#ffa500" fill-rule="evenodd"/></g><g transform="translate(123.29 148.82)"><path d="m0 0c0.03-0.094 0.042-0.091 0.081-0.163 0.359 0.015 0.517 0.175 0.813 0.285 0.013-0.014 0.027-0.027 0.04-0.041-0.111-0.373-0.442-0.616-0.569-0.975-0.183-0.52 0.116-0.983-0.284-1.177 0.013-0.237 0.065-0.199 0.162-0.325 0.38-7e-3 0.971-0.013 1.178 0.243h0.082c0.041-0.427 0.181-0.974 0.527-1.218 0.151-0.105 0.344-0.102 0.488-0.203 0.17 0.014 0.172 0.019 0.244 0.122 0.052 0.117-0.107 0.239-0.041 0.446 0.038 0.12 0.143 0.205 0.163 0.447 0.264-0.057 0.357-0.301 0.568-0.406 0.011-0.155 0.047-0.241 0-0.325 0.024-0.248 0.103-0.211 0.243-0.325 0.465 0.052 0.833 0.322 0.895 0.772 0.184-0.048 0.366-0.132 0.527 0 0.121 0.085 0.147 0.219 0.244 0.325 5e-3 0.586-0.405 1.606-0.731 1.828-0.128 0.086-0.312 0.082-0.528 0.081v0.04c0.281 0.075 0.534 0.212 0.772 0.325 0.162-0.206 0.458-0.264 0.69-0.406 0.472-0.288 0.917-0.562 1.34-0.893 0.426 0.195 0.768 1.341 0.488 1.949-0.078 0.168-0.291 0.227-0.366 0.406-0.033 0.042-0.015 0.01-0.041 0.082 0.077 0.04 0.112 0.055 0.163 0.121 0.134 4e-3 0.29 0.01 0.366-0.04 0.115 4e-3 0.173 0.016 0.243 0.04-0.016 0.084-0.01 0.078-0.04 0.122-7e-3 0.67-1.149 0.821-1.625 0.853 0.232 0.579 0.175 0.679 0.203 1.259-0.19 0.189-0.379 0.379-0.568 0.569-0.295-0.023-0.366-0.23-0.569-0.325-0.584-0.272-1.159-0.518-1.178-1.3l-0.041 0.041c-0.211 0.089-0.136 0.692-0.162 1.015-0.013 0.014-0.027 0.027-0.041 0.041-0.432 0.088-0.397-0.038-0.771-0.122-0.044-0.159-0.159-0.304-0.203-0.447-0.044-0.142 0.019-0.308-0.041-0.406-0.023-0.022-0.355-0.143-0.447-0.081-0.374 0.033-0.362 0.339-0.487 0.609-0.46-0.018-0.407-0.281-0.65-0.488 0.018-0.424-0.016-0.767 0.122-1.096-0.089 0.031-0.158 0.057-0.243 0-0.815-0.042-0.672-0.787-1.016-1.259" fill="#ed561c" fill-rule="evenodd"/></g><g transform="translate(133.56 140.01)"><path d="m0 0c-0.035 0.397-0.23 0.367-0.365 0.609-0.161 0.289-0.114 0.685-0.082 0.975-0.143 0.144-0.179 0.295-0.406 0.366-0.071 0.051-0.215 0.072-0.325 0.081-0.031 0.222-0.11 0.264-0.203 0.406-0.087 0.021-0.146 0.036-0.203 0.081-0.484-0.06-0.812-0.612-1.056-0.934-0.387-0.511-0.927-0.987-1.259-1.543-0.233-0.392-0.36-0.968-0.488-1.422-0.111-0.397-0.298-1.742-0.04-2.071 0.057-0.156 0.14-0.147 0.243-0.244 0.112 1e-3 0.187 2e-3 0.245 0.041 0.292 0.109 0.402 0.568 0.568 0.69 0.7 0.517 1.564 0.771 2.6 0.569 0.168 0.217 0.434 0.396 0.568 0.649 0.079 0.15 0.068 0.286 0.162 0.407-0.025 0.235-0.128 0.347-0.324 0.406 2e-3 0.265 0.061 0.532 0.04 0.65 0.146 0.079 0.195 0.195 0.325 0.284" fill="#ed561c" fill-rule="evenodd"/></g><g transform="translate(122.68 135.46)"><path d="m0 0c0.142 0.02 0.206 0.045 0.284 0.122 0.078-0.113 0.024-0.254 0.081-0.406 0.068-0.177 0.268-0.392 0.366-0.569 0.068-0.013 0.135-0.027 0.204-0.041 0.018-0.709 0.679-1.265 0.852-1.99h0.081c0.121 0.257 0.293 0.543 0.365 0.813 0.111 0.408 0.013 0.802 0.122 1.177 0.166 0.568 0.316 1.222 0.488 1.788 0.072 0.235-0.024 0.513 0.041 0.69 0.284 0.609 0.568 1.218 0.852 1.828 0.385 0.426 0.875 0.793 0.854 1.624-0.037 0.038-0.056 0.071-0.082 0.122l-0.081 0.041c-0.047-0.098-0.093-0.164-0.122-0.284-0.241-2e-3 -0.383 0.033-0.488-0.041-0.442-0.021-0.417-0.434-0.69-0.609-0.303-0.196-0.506 0.074-0.812-0.122-0.151-0.077-0.166-0.258-0.244-0.407-0.122-0.234-0.865-1.237-1.381-0.893-0.46-0.037-0.285-0.552-0.446-0.893-0.215-0.454-0.513-0.84-1.056-0.975 0.01-0.159 0.011-0.108 0-0.244 0.244-0.228 0.627-0.453 0.812-0.731" fill="#ed561c" fill-rule="evenodd"/></g><g transform="translate(139.7 128.56)"><path d="m0 0c-0.031 0.133-0.126 0.316-0.081 0.528 0.015 0.069 0.086 0.376 0.081 0.447-6e-3 0.085-0.14 0.24-0.162 0.325-0.124 0.454 0.163 0.948 0.162 1.462-0.064 0.065-0.089 0.144-0.162 0.203-0.025 0.032-2e-3 0.01-0.041 0-0.431-0.018-0.754-0.321-0.772-0.772h-0.041c-0.074 0.203-0.215 0.146-0.324 0.285-0.196 0.248-0.189 0.628-0.488 0.771-0.192 0.092-0.372 0.054-0.527 0.163-0.16 0.22-0.112 0.611-0.285 0.812-0.058 0.167-0.181 0.21-0.366 0.243-0.081-0.071-0.195-0.147-0.284-0.203-0.047-0.395 0.015-1.303 0.203-1.583v-0.041c-0.29 0.049-0.734 0.457-1.056 0.243-0.307 6e-3 -0.387 0.163-0.528 0.325-0.403 1e-3 -0.387-0.166-0.568-0.365 0.015-0.361 0.505-0.98 0.731-1.137-0.114-0.104-0.262-0.079-0.406-0.163-0.216-0.125-0.359-0.454-0.569-0.609-1e-3 -0.261 0.037-0.342 0.122-0.487 0.51-0.199 1.615-0.433 1.99-0.853 0.308-0.344 0.432-1.176 0.893-1.341 0.139-0.102 0.256-0.057 0.447-0.04 0.105 0.104 0.281 0.162 0.366 0.284 0.099 0.143 0.077 0.251 0.243 0.325 0.271 0.12 0.763 0.014 1.016 0.122 0.068 0.029 0.2 0.158 0.284 0.203 0.056 0.217 0.201 0.514 0.122 0.853" fill="#ed561c" fill-rule="evenodd"/></g><g transform="translate(133.12 127.34)"><path d="m0 0c-0.22-9e-3 -0.254-0.084-0.365-0.122-0.081 0.014-0.162 0.027-0.243 0.041-0.029 0-0.69-0.104-0.732-0.122-0.081-0.094-0.162-0.19-0.244-0.284-0.324-0.24-0.619-0.451-0.934-0.691-0.14-0.106-0.187-0.347-0.325-0.447-0.311-0.223-0.877-0.327-1.3-0.405-0.218-0.041-0.349 0.088-0.527-0.041-0.177-0.061-0.182-0.158-0.284-0.284 0.011-0.242 0.075-0.3 0.162-0.447 0.173-0.044 0.648-0.179 0.853-0.041h0.244c-0.055-0.108-0.109-0.217-0.163-0.324 0.431-0.407 0.228-0.233 0.406-0.813 0.308-0.065 0.859-0.012 1.015 0.203 0.038-0.078 0.017-0.03 0-0.122 0.347-0.143 0.354-0.364 0.61-0.487 0.194-0.086 0.407 0.16 0.528 0.284v0.04c0.03-0.043 0.026-0.037 0.04-0.121 0.255-5e-3 0.397-0.076 0.488-0.244 1.131 0.075 1.308 1.092 1.583 2.153 0.053 0.203 0.248 0.546 0.204 0.772-0.137 0.695-0.583 1.099-1.016 1.502" fill="#ed561c" fill-rule="evenodd"/></g><g transform="translate(135.49 124.57)"><path d="m0 0c-0.112 0.053-0.183 0.162-0.268 0.244 3e-3 0.386 0.29 0.748 0.537 0.901 0.161 0.101 0.379 0.15 0.536 0.244-3e-3 0.062-3e-3 0.09-0.025 0.122-0.084 0.164-0.486 0.097-0.634 0.024-0.272-0.135-0.602-0.453-0.731-0.731-0.056-0.121-0.028-0.206-0.073-0.341-0.056-0.17-0.073-0.413 0.049-0.536 5e-3 -0.264-0.087-0.177-0.244-0.268-0.241-0.011-0.363-0.013-0.438 0.146-0.014 0.014 0.023 0.151 0.049 0.219 0.05 0.136 0.108 0.313 0.145 0.463 9e-3 0.122 0.017 0.244 0.025 0.366 0.025 0.103 1e-3 0.275-0.025 0.39-7e-3 0.146-0.015 0.292-0.024 0.438-0.153 0.493-0.404 0.775-0.828 0.999-0.177 0.094-0.577 0.281-0.756 0.147-0.085-0.04-0.07-0.135-0.146-0.171-0.105-0.05-0.197 2e-3 -0.293-0.049-0.23-0.121-0.466-0.676-0.632-0.901-0.338-0.456-1.155-1.042-1.731-1.268-0.164-0.063-0.906-0.458-1.17-0.292-0.177 0.019-0.227 0.119-0.341 0.195 0.017 0.091 0.036 0.086 0.074 0.146 1.237 0.012 2.135 0.927 2.875 1.487 0.171 0.17 0.34 0.341 0.511 0.511-0.012 0.124-0.046 0.12-0.097 0.195-0.3-0.012-0.368-0.181-0.536-0.316-0.358-0.29-0.707-0.631-1.097-0.878-0.088-0.056-0.179-0.064-0.268-0.122-0.087-0.056-0.176-0.168-0.268-0.219-0.117-0.065-0.257-0.074-0.341-0.17-0.279 2e-3 -0.314 0.125-0.487 0.194-0.066 9e-3 -0.13 0.017-0.196 0.025-0.295 0.112-0.585 0.352-0.828 0.536-0.09 0.098-0.178 0.195-0.268 0.292-0.305 0.231-0.485 0.563-0.706 0.877-0.195 0.276-0.405 0.557-0.585 0.853-0.091 0.15-0.088 0.317-0.171 0.488-0.207 0.43-0.396 0.962-0.536 1.438-0.147 0.496-0.183 1.039-0.317 1.535v0.39c0 0.389-0.02 0.826 0.049 1.145v0.317c0.054 0.232 0.114 0.535 0.17 0.755 9e-3 0.138 0.017 0.277 0.024 0.415 0.064 0.245 0.16 0.52 0.22 0.755 0.049 0.191 0.018 0.322 0.073 0.488 0.317 0.948 0.656 1.905 1.048 2.802 0.22 0.502 0.536 1.011 0.755 1.511 0.227 0.514 0.373 0.999 0.585 1.511 0.452 1.085 1.371 2.907 0.878 4.508-0.127 0.41-0.347 0.9-0.585 1.218-0.167 0.221-0.475 0.361-0.609 0.609-0.016 0.027 4e-3 0.092 0.024 0.147 0.572-0.189 1.438-0.543 1.731-0.975 0.165-0.245 0.198-0.565 0.292-0.877 0.291-0.975 0.487-2.643 0.17-3.778-0.081-0.287-0.073-0.686-0.219-0.901-0.125-0.179-0.294-0.077-0.512-0.171-0.277-0.12-0.323-0.412-0.683-0.487-0.015-0.042-5e-3 -0.024-0.024-0.049v-0.122h0.024c0.082-0.081 0.163-0.162 0.244-0.243 0.051-0.071 0.064-0.159 0.123-0.22-0.025-0.282-0.18-0.176-0.391-0.268-0.185-0.08-0.372-0.274-0.536-0.39 0.023-0.303 0.299-0.364 0.366-0.658 0.099-0.204-0.216-0.209-0.366-0.268-0.121-0.073-0.243-0.146-0.365-0.219-0.081-0.016-0.163-0.033-0.244-0.049-0.016-0.042-4e-3 -0.024-0.024-0.048 0.018-0.288 0.686-0.541 0.609-0.853-0.048-0.057-0.097-0.114-0.146-0.171-0.263 7e-3 -0.681 0.165-0.829 0.049-0.138-0.014-0.139-0.062-0.219-0.122 5e-3 -0.102 0.017-0.112 0.049-0.171 0.254-0.046 0.508-0.024 0.633-0.194 0.043-0.058 0.05-0.122 0.097-0.171v-0.171c-0.265-0.252-0.572-0.498-0.901-0.682 6e-3 -0.056 5e-3 -0.069 0.024-0.097 0.058-0.158 0.211-0.115 0.341-0.195 0.098-0.098 0.195-0.196 0.293-0.293 2e-3 -0.274-0.146-0.516-0.342-0.585-0.105-8e-3 -0.211-0.016-0.316-0.024-0.091-0.034-0.165-0.122-0.244-0.171 0.018-0.076 0.043-0.115 0.073-0.17 0.48 0.024 0.574 0.022 0.829-0.244 0.066-0.068 0.208-0.23 0.121-0.365-0.026-0.283-0.682-0.657-0.487-0.975v-0.073c0.066-0.014 0.092-0.034 0.146 0 0.122 0.062 0.097 0.207 0.171 0.316 0.063 0.093 0.19 0.141 0.268 0.22 0.494 6e-3 0.501-0.124 0.707-0.39 3e-3 -0.257-0.263-0.551-0.439-0.61-0.115-0.066-0.481 0.053-0.682-0.024-0.258-0.098-0.295-0.372-0.463-0.56 8e-3 -0.142 0.043-0.138 0.098-0.22 0.366 0.05 0.21 0.488 0.877 0.439l0.219-0.195c0.068-0.106 0.044-0.252 0.122-0.341-0.039-0.382-0.346-0.446-0.341-0.926 0.036-0.034 0.071-0.079 0.097-0.122 0.077 0.011 0.092 0.025 0.147 0.049 0.072 0.199 0.089 0.445 0.243 0.56 0.057 0.043 0.122 0.051 0.171 0.098 0.101 0 0.145-3e-3 0.194-0.049 0.145-0.069 0.18-0.58 0.317-0.731-0.011-0.234-0.284-0.532-0.17-0.707 6e-3 -0.109 0.026-0.117 0.048-0.195 0.068-0.011 0.071-0.029 0.122 0 0.184 0.071 0.166 0.359 0.292 0.488 0.26 0.262 0.791 0.265 1.122 0.073 0.012-0.327-0.398-0.544-0.219-0.975 0.057-0.14 0.19-0.197 0.292-0.292 0.14 6e-3 0.127 0.032 0.195 0.097-0.027 0.241-0.155 0.239-0.146 0.561 0.133 0.134 0.2 0.308 0.414 0.365 0.071 0.053 0.164 0.041 0.244 0.024 0.467-0.093 0.316-0.114 0.56-0.389-0.024-0.396-0.502-0.633-0.366-1.097 0.038-0.128 0.128-0.203 0.195-0.292 0.076-0.101 0.311-0.373 0.512-0.244 0.056 0.025 0.053 0.042 0.098 0.073-0.018 0.259-0.257 0.275-0.365 0.439-0.028 0.04-0.022 0.088-0.049 0.122-7e-3 0.28 0.083 0.497 0.292 0.56 0.13 0.073 0.31-0.085 0.438 0.024 0.02 0.024 0.036 0.067 0.049 0.098-0.108 0.107-0.211 0.15-0.341 0.244-0.11 0.079-0.158 0.211-0.244 0.316-1e-3 0.545 0.267 0.543 0.536 0.78 0.341 5e-3 0.672-0.166 0.756-0.414v-0.366c0.032-0.118 0.096-0.193 0.098-0.365l-0.366-0.39c-0.051-0.083-0.098-0.252-0.122-0.341-0.062-0.229 0.074-0.428 0.146-0.536 0.158-0.234 0.381-0.426 0.707-0.488 0.102-0.019 0.178 0.042 0.292 0 0.131-0.047 0.24-0.17 0.366-0.219 0.073-0.016 0.146-0.033 0.219-0.049 0.125-0.08 0.18-0.219 0.269-0.341 0.139-0.193 0.383-0.279 0.657-0.341 0.435-0.098 0.699 0.353 0.927 0.439 7e-3 7e-3 0.015 0.016 0.024 0.024v-0.024c0.091-0.018 0.086-0.036 0.145-0.074 0.029-0.131 0.047-0.387 0.123-0.487 0.04-0.114 0.118-0.123 0.195-0.195 0.617 0.017 0.861 0.503 1.315 0.512 0.115-0.114 0.228-0.228 0.342-0.341 0.136 3e-3 0.144 0.026 0.219 0.073-0.012 0.273-0.135 0.379-0.122 0.633 0.029 0.028 0.052 0.062 0.073 0.098 0.031 0.014 0.074 0.029 0.098 0.049 0.588-0.029 0.453-0.626 0.658-1.024 0.1-0.196 0.374-0.376 0.609-0.439-8e-3 -0.328-0.694-0.387-0.999-0.463-0.795-0.195-1.805 0.317-2.535 0-0.196-0.085-0.34-0.253-0.487-0.389 0.015-0.124 0.06-0.19 0.171-0.22 0.119-0.044 0.462 0.176 0.633 0.22 0.379 0.095 1.013-0.048 1.365-0.122 0.164-0.035 0.319 0.073 0.438 0h0.049c3e-3 -0.07 0.01-0.104 0.024-0.146-0.141-0.061-0.717-0.196-0.925-0.147-0.181 0.043-0.403 0.181-0.659 0.122-0.151-0.035-0.332 7e-3 -0.511-0.049-0.275-0.084-0.686-0.364-1.097-0.17m-2.145-0.877c-0.14-0.189-0.362-0.305-0.536-0.463-0.265 0.015-0.378 0.194-0.536 0.317 0.034 0.281 0.351 0.435 0.488 0.633 0.316 0.457 0.541 0.947 0.682 1.584 0.058 0.257-0.185 1.062-0.292 1.121-0.111 0.06-0.392-6e-3 -0.463-0.024-0.016 0.016-0.033 0.032-0.049 0.048-0.063 0.081-0.033 0.142-0.024 0.268 0.144 0.022 0.317 8e-3 0.463-0.097 0.016-0.032 0.032-0.065 0.049-0.098 0.049-0.023 0.201 0.021 0.292-0.024 0.123-0.061 0.338-0.253 0.414-0.366 0.579-0.855-0.053-2.315-0.488-2.899m-1.973-0.22c-0.1 0.106-0.287 0.248-0.439 0.293-0.015 0.042-5e-3 0.024-0.024 0.048 0.013 0.235 0.521 0.515 0.683 0.658 0.524 0.466 1.001 1.059 1.266 1.779 0.062-0.019 0.085-0.02 0.147 0 0.355-0.892-0.506-1.83-0.853-2.29-0.178-0.235-0.369-0.488-0.78-0.488m-1.17 0.39c-0.062 3e-3 -0.09 3e-3 -0.121 0.024-0.181 0.066-0.236 0.332-0.391 0.439 0.02 0.286 0.858 0.558 1.097 0.707 0.686 0.425 1.224 1.05 1.657 1.73h0.098c8e-3 -8e-3 0.016-0.016 0.024-0.025 3e-3 -0.189 0.031-0.29-0.024-0.462-0.231-0.707-1.142-1.622-1.706-2.023-0.201-0.143-0.455-0.223-0.634-0.39m-5.264 10.747c-0.066-1e-3 -0.111-1e-3 -0.145-0.025h-0.025c-0.132 0.579-0.328 1.147-0.536 1.633-0.049 0.171-0.097 0.341-0.146 0.512-0.137 0.32-0.404 0.647-0.488 0.999 0.041 0.057 0.081 0.113 0.122 0.171 0.114 0.024 0.228 0.048 0.341 0.072 0.251 0.115 0.482 0.317 0.658 0.513 0.057-6e-3 0.069-5e-3 0.098-0.025 0.085-0.021 0.066-0.034 0.121-0.073 0.016-0.336 0.099-0.686 0.171-0.975 0.067-0.262 0.013-0.458 0.073-0.731 0.039-0.178 0.135-0.496 0.074-0.731-0.104-0.394-0.213-0.941-0.318-1.34m-0.657-0.512c-0.316 0.501-0.629 1.013-0.975 1.487-0.148 0.202-0.593 0.4-0.658 0.633-0.019 0.025-9e-3 6e-3 -0.024 0.049 0.236 0.224 0.52 0.541 0.609 0.902 0.067 0.013 0.092 0.033 0.146 0 0.165-0.061 0.286-0.552 0.366-0.732 0.197-0.449 0.42-0.981 0.585-1.462 0.082-0.241 0.081-0.457 0.17-0.706 0.079-0.222 0.207-0.528 0.219-0.78-0.268 0.017-0.325 0.429-0.438 0.609m0.999 5.044c0.028 0.061 0.062 0.071 0.098 0.122 0.337 8e-3 0.597 0.168 0.803 0.049 0.126-0.612-0.068-0.871-0.243-1.292-0.093-0.221-0.119-0.514-0.268-0.682-0.037-0.02-0.084-4e-3 -0.171 0-0.03 0.466-0.161 0.831-0.195 1.316-0.01 0.152-0.131 0.365-0.024 0.487m1.389 0.707h0.049v-0.048h-0.049zm1.803 6.677c-0.031-0.111-0.081-0.126-0.146-0.195-0.224 5e-3 -0.354 0.124-0.463 0.244-0.37 0-0.259-0.255-0.365-0.512-0.051-0.121-0.156-0.213-0.22-0.317-0.252 0.015-0.231 0.193-0.341 0.342-0.106 0.097-0.212 0.194-0.317 0.292-0.13 0.172-0.242 0.313-0.39 0.463-0.056-6e-3 -0.068-5e-3 -0.097-0.024-0.248-0.087-0.36-0.772-0.561-1-0.05 0.01-0.047 6e-3 -0.073 0.024-0.416 0.146-0.307 0.815-0.292 1.292-0.316 0.297-0.36 0.041-0.61-0.122-0.112-0.073-0.27-0.082-0.365-0.17-0.163-1e-3 -0.232 0.051-0.268 0.17-0.05 0.085 0.057 0.545 0.097 0.659 0.185 0.525 0.385 0.845 0.805 1.12-3e-3 0.062-3e-3 0.09-0.024 0.122-0.105 0.296-0.555 0.187-0.805 0.341-0.079 0.031-0.09 0.074-0.122 0.147 0.109 0.113 0.17 0.266 0.342 0.316 0.268 0.079 0.682-0.094 0.877 0.049l0.097 0.097c-0.037 0.2-0.156 0.212-0.244 0.342-0.073 0.108-0.057 0.216-0.098 0.365-0.019 0.076-0.076 0.186-0.023 0.268 0.024 0.066 0.034 0.054 0.072 0.098 0.189-0.042 0.278-0.211 0.464-0.268 0.339-0.105 0.81 0.045 0.877 0.243 8e-3 0.13 0.017 0.26 0.024 0.39 0.065 0.175 0.202 0.317 0.292 0.463 0.078-0.011 0.092-0.024 0.147-0.049 0.035-0.209-0.061-0.434 0.024-0.657 0.07-0.184 0.255-0.273 0.366-0.415h0.244c0.284 0.305 0.37 0.799 0.706 1.048 0.248 0.184 0.628 0.252 0.853 0.463 0.057-5e-3 0.069-4e-3 0.098-0.024 0.065-0.023 0.071-0.042 0.121-0.073 0.101-0.532-0.158-1.125-0.39-1.414 0.012-0.5 0.379-0.315 0.683-0.243 0.252 0.059 0.519-0.075 0.634-0.171-0.013-0.299-0.28-0.347-0.171-0.731 0.057-0.201 0.261-0.314 0.341-0.488 0.196-0.424-8e-3 -0.917-0.17-1.193-0.055-0.016-0.065-0.019-0.098-0.049-0.232 0.021-0.348 0.238-0.512 0.341-0.392 0.248-0.768 0.451-1.243 0.609-0.101 0.034-0.287 0.13-0.438 0.098-0.2-0.043-0.276-0.173-0.414-0.268-0.026-0.454 0.158-0.372 0.341-0.634 0.228-0.328 0.411-0.578 0.585-0.975 0.047-0.11 0.202-0.306 0.17-0.414m1.876-4.386h0.122v-0.025c0.04-0.059-1e-3 -0.157 0.025-0.243 0.099-0.333-0.033-0.364-0.195-0.561h-0.122c-0.062 0.336 0.111 0.537 0.17 0.829m0.975-0.317c0.182 0.13 0.4 0.214 0.561 0.365 0.204-0.047 0.21-0.163 0.341-0.267-3e-3 -0.094-8e-3 -0.145-0.048-0.196-0.118-0.171-0.413-0.249-0.585-0.365-0.32-0.215-0.619-0.505-0.927-0.731-0.182-0.134-0.455-0.28-0.584-0.463h-0.049c0.186 0.612 0.817 1.316 1.291 1.657m-1.364-1.731c0.019-0.024 9e-3 -5e-3 0.024-0.048-0.05 0.023-0.016-5e-3 -0.024 0.048m2.485 1.341c0.111-9e-3 0.126-0.033 0.195-0.073 0.043-0.232 0.016-0.537 0.146-0.683-0.02-0.1-0.058-0.117-0.097-0.194-0.224-0.055-0.603-0.082-0.878-0.195-0.424-0.176-0.792-0.423-1.145-0.658-0.214-0.144-0.533-0.309-0.657-0.537h-0.098c0.035 0.283 0.209 0.404 0.341 0.585 0.406 0.558 1.036 0.999 1.608 1.39 0.176 0.119 0.461 0.196 0.585 0.365m0.487-1.413c-0.02-0.211-0.146-0.325-0.195-0.536-0.033-0.15 0.054-0.296 0-0.391-0.017-0.056-0.024-0.054-0.048-0.097-0.33-0.065-0.702-0.015-1.023-0.097-0.718-0.183-1.566-0.614-1.926-1.146h-0.073c6e-3 0.41 0.284 0.614 0.464 0.853 0.413 0.55 0.999 0.938 1.656 1.243 0.148 0.069 0.845 0.36 1.048 0.243 0.066-0.024 0.053-0.034 0.097-0.072m0.025-1.828c-0.036-0.055-0.051-0.075-0.122-0.098-0.142-0.089-0.869 0.098-1.169 0.025-0.284-0.07-0.6-0.11-0.854-0.219-0.196-0.085-0.268-0.222-0.585-0.22v0.073c0.047 0.039 0.054 0.109 0.098 0.147 0.343 0.29 0.824 0.505 1.292 0.657 0.145 0.016 0.292 0.033 0.438 0.049 0.217 0.05 0.686 0.109 0.853-0.024l0.122-0.122c-3e-3 -0.115-0.02-0.203-0.073-0.268m-3.46 2.485c-0.131-0.106-0.374 0.242-0.342 0.391 0.03 0.135 0.176 0.168 0.269 0.243 0.086-0.024 0.107-0.058 0.171-0.097 0.035-0.177-4e-3 -0.412-0.098-0.537m1.657-6.993c0.423-0.129 0.995-0.034 1.389-0.195 0.073-0.073 0.146-0.147 0.219-0.22-3e-3 -0.146-0.059-0.21-0.17-0.243-0.154-0.09-0.99 0.054-1.146 0.097-0.171 0.025-0.341 0.049-0.512 0.073-0.74 0.264-1.127 0.501-1.51 1.121-0.1 0.16-0.34 0.424-0.269 0.658h0.073c0.283-0.406 1.39-1.129 1.926-1.291m-0.999-1.292c-0.071-0.105-0.111-0.239-0.171-0.341-0.031-0.014-0.074-0.029-0.097-0.049-0.251 0.046-0.402 0.538-0.292 0.853 0.03 0.089 0.119 0.171 0.169 0.244 0.05 0.01 0.047 6e-3 0.074 0.024 0.317-8e-3 0.503-0.14 0.731-0.243-0.013-0.287-0.293-0.308-0.414-0.488m-1.097-1.291c0.033 0.325 0.325 0.366 0.512 0.536 0.324 7e-3 0.598-0.251 0.657-0.488 0.057-0.076 0.039-0.213-0.024-0.292-3e-3 -0.156-0.039-0.157-0.097-0.244-0.16-0.026-0.359 0.078-0.585 0.025-0.062-0.015-0.168-0.08-0.268-0.049-0.057 0.041-0.114 0.081-0.171 0.122-0.033 0.126-0.119 0.273-0.024 0.39m-0.341 1.535h0.268c0.055-0.053 0.152-0.083 0.194-0.147 0.076-0.114 0.06-0.269 0.147-0.365v-0.219c-0.02-0.048-0.47-0.371-0.536-0.39-0.072-0.051-0.216-0.02-0.268 0.024-0.096 0.032-0.188 0.122-0.219 0.219-0.098 0.134-0.107 0.508 0 0.634 0.106 0.164 0.251 0.135 0.414 0.244m0.804 0.853c-0.024-0.212-0.312-0.565-0.487-0.536-0.335-0.013-0.541 0.344-0.317 0.609 0.048 0.137 0.172 0.156 0.268 0.243 0.313-5e-3 0.381-0.161 0.536-0.316m-0.902 6.238c0.08 0.075 0.155 0.124 0.244 0.195 0.094-2e-3 0.145-8e-3 0.195-0.049 0.191-0.14-0.016-0.395-0.097-0.56-0.236-4e-3 -0.309 0.231-0.342 0.414m-0.316-5.093c0.289-0.019 0.584-0.119 0.658-0.365 8e-3 -9e-3 0.015-0.017 0.024-0.025h-0.024c-0.055-0.185-0.202-0.126-0.342-0.219-0.074-0.05-0.114-0.146-0.17-0.22-0.055-0.07-0.149-0.09-0.22-0.146-0.188 0.033-0.256 0.138-0.365 0.244 0.029 0.375 0.232 0.535 0.439 0.731m-0.829 0.366c0.08 0.228 0.316 0.176 0.512 0.292 0.272 0 0.423-0.052 0.584-0.146 0.017-0.042 5e-3 -0.024 0.025-0.049-5e-3 -0.063-0.011-0.083-0.025-0.122-0.112-0.018-0.239 0.037-0.39 0-0.17-0.043-0.327-0.182-0.438-0.292-0.233-5e-3 -0.215 0.058-0.316 0.17 5e-3 0.085 7e-3 0.103 0.048 0.147m1.048 0.974v-0.243c-0.036-0.034-0.071-0.079-0.097-0.122-0.151-0.028-0.383-0.014-0.561-0.024-0.064 0.062-0.168 0.097-0.22 0.17-0.072 0.104-0.107 0.207-0.194 0.293 5e-3 0.056 5e-3 0.068 0.024 0.097 0.058 0.17 0.212 0.149 0.341 0.244 0.433 4e-3 0.505-0.2 0.707-0.415m-0.39 2.388c7e-3 0.14 0.046 0.159 0.097 0.244h0.244c0.049-0.049 0.097-0.098 0.146-0.146-0.011-0.14-0.052-0.342-0.121-0.439-0.036-0.018-0.09-7e-3 -0.147-0.024-0.055 0.135-0.112 0.282-0.219 0.365m0.146-1.072c0.056-0.054 0.134-0.125 0.195-0.17 5e-3 -0.113 0.042-0.225 0-0.293-0.026-0.078-0.043-0.096-0.122-0.122-0.025-0.019-6e-3 -9e-3 -0.048-0.024-0.207 0.201-0.417 0.297-0.171 0.609zm3.46-6.847c-0.058-0.094-0.11-0.231-0.219-0.269-0.12-0.041-0.234 0.056-0.317 0.074-0.13-9e-3 -0.26-0.016-0.39-0.025-0.07 0.021-0.135 0.106-0.194 0.146-0.04 0.175-0.065 0.291-0.049 0.488 0.068 0.072 0.111 0.188 0.194 0.244 0.082 0.054 0.208 0.043 0.293 0.097 0.114-8e-3 0.228-0.016 0.341-0.024 0.133-0.135 0.353-0.292 0.414-0.488 0.037-0.117-0.042-0.193-0.073-0.243m1.146 1.145c-0.018-0.306-0.186-0.54-0.317-0.731h-0.414c-0.149 0.059-0.392 0.448-0.22 0.658 0.053 0.153 0.178 0.157 0.293 0.243 0.333 6e-3 0.497-0.017 0.658-0.17m0.097 0.95c0.163-0.071 0.307-0.248 0.488-0.317 0.266-0.1 0.658-0.076 0.755-0.34 8e-3 -9e-3 0.016-0.017 0.025-0.025h-0.025c-0.031-0.085-0.074-0.085-0.122-0.146-0.171 0.048-0.34 0.097-0.511 0.146-0.134 0.026-0.225-0.101-0.39-0.049-0.088 0.028-0.172 0.126-0.244 0.171-0.206 0.127-0.662 0.174-0.95 0.073-0.284-0.099-0.324-0.445-0.585-0.536-0.157-0.093-0.548 0.075-0.707-0.097-0.293-1e-3 -0.261 0.142-0.39 0.292-0.012 0.482 0.484 0.993 0.926 0.633 0.259 1e-3 0.166 0.077 0.268 0.22 0.026 0.035 0.09 0.043 0.122 0.073 0.246-4e-3 0.543-0.023 0.78-0.073 0.217-0.046 0.368 0.059 0.56-0.025m0.269 1.146c0.048 0.133 0.179 0.267 0.243 0.389 0.174 0.336 0.329 0.623 0.536 0.927 0.101 0.146 0.333 0.421 0.22 0.755-0.045 0.131-0.154 0.278-0.195 0.439-0.055 0.015-0.065 0.018-0.098 0.048-0.253-0.05-0.309-0.398-0.512-0.511-0.103-0.058-0.246-0.034-0.341-0.098-0.259 0.032-0.258 0.167-0.389 0.317 0.036 0.348 0.065 0.722 0.292 0.877 0.087 0.06 0.207 0.062 0.292 0.122 0.755 8e-3 1.003-0.314 1.17-0.901 0.041-0.145 0.072-0.335 0.024-0.512-0.074-0.275-0.257-0.748-0.39-1-0.126-0.238-0.328-0.439-0.438-0.706-0.052-0.125-0.183-0.83-0.073-0.999-0.023-0.066-0.042-0.072-0.074-0.122-0.399 0.024-0.391 0.631-0.267 0.975m2.119-1.463c0.096-0.097 0.151-0.215 0.268-0.292-0.016-0.048-0.032-0.097-0.048-0.146-0.676-0.122-1.155 0.536-1.56 0.804-6e-3 0.057-5e-3 0.069-0.024 0.098-4e-3 0.187 0.026 0.199 0.097 0.292 0.53-0.047 0.971-0.452 1.267-0.756m-0.999-3.411c0.271 1e-3 0.338-0.071 0.487-0.171 0.017-0.042 5e-3 -0.024 0.025-0.049-7e-3 -0.224-0.128-0.268-0.195-0.414-0.048-0.103-0.036-0.227-0.097-0.316-0.037-0.055-0.132-0.092-0.196-0.122-0.062 0.073-0.185 0.092-0.243 0.17-0.044 0.059-0.053 0.139-0.097 0.195 9e-3 0.357 0.176 0.495 0.316 0.707m-1.218 2.339c0.107 0.11 0.207 0.211 0.317 0.317 0.985 4e-3 0.924-0.55 1.437-0.95-9e-3 -0.1-0.028-0.115-0.049-0.195-0.242-0.038-0.303 0.1-0.463 0.195-0.144 0.086-0.33 0.099-0.56 0.097-0.113-1e-3 -0.203-2e-3 -0.268-0.048-0.395-0.015-0.435 0.251-0.414 0.584m0.585-3.046c-0.049-0.04-0.098-0.081-0.146-0.121-0.225 0.027-0.429 0.194-0.488 0.389-0.172 0.252 0.113 0.591 0.268 0.634 0.05 0.035 0.194 0.036 0.244 0 0.146 0 0.165 0.023 0.243 0.073-7e-3 0.28-0.187 0.335-0.292 0.512-0.049 0.083-0.044 0.193-0.097 0.268 1e-3 0.251 0.099 0.274 0.195 0.414 0.067 8e-3 0.128 0.018 0.17 0.049 0.265-4e-3 0.375-0.099 0.536-0.195 9e-3 -0.057 0.017-0.114 0.024-0.171-0.132-0.124-0.28-0.241-0.414-0.365 2e-3 -0.174 0.047-0.337 0.147-0.415-6e-3 -0.351-0.244-0.449-0.341-0.706-0.044-0.114 8e-3 -0.243-0.049-0.366m2.363-0.463c-0.019-0.34-0.294-0.376-0.463-0.56-0.393-3e-3 -0.454 0.132-0.658 0.292-0.063 0.515 0.037 0.682 0.318 0.975 0.049 0.01 0.047 6e-3 0.072 0.024 0.324 2e-3 0.964-0.43 0.731-0.731m-0.048 3.729c0.208-0.063 0.468-0.201 0.609-0.341 0.136 2e-3 0.144 0.025 0.22 0.073-0.012 0.289-0.173 0.404-0.244 0.633-0.07 0.227-0.053 0.538-0.049 0.829 0.029 0.027 0.052 0.062 0.073 0.097h0.146c0.092-0.188 0.195-0.393 0.317-0.56 0.243-0.333 0.71-0.572 0.95-0.926 0.197-0.29 0.276-0.766 0.439-1.072 0.353 1e-3 0.241 0.293 0.341 0.536 0.049 0.118 0.188 0.201 0.268 0.292 0.089-0.018 0.068 2e-3 0.098-0.073 0.078-0.133-0.178-0.673-0.123-0.926 0.11-0.494 0.557-0.958 0.342-1.657-0.057-0.186-0.195-0.34-0.293-0.488-0.068-0.016-0.103-0.067-0.194-0.048-0.094 0.019-0.22 0.087-0.293 0.073-0.379-0.074-0.355-0.394-0.561-0.536-0.158-0.11-0.392-0.102-0.536-0.22-0.084 0.03-0.104 0.078-0.17 0.122 0.014 0.105 0.052 0.205 0.074 0.292 0.148 0.636-0.366 1.546-0.659 1.755-0.075 0.054-0.174 0.065-0.244 0.122-0.124-0.012-0.106-0.037-0.17-0.097 0.048-0.209 0.28-0.33 0.39-0.488 0.168-0.241 0.164-0.448 0.243-0.804 0.026-0.114 0.101-0.394 0.025-0.512-9e-3 -0.091-0.019-0.09-0.049-0.146-0.37 0.019-0.416 0.632-0.584 0.877-0.116 0.169-0.364 0.381-0.561 0.463-0.122 0.033-0.244 0.065-0.366 0.098-0.123 0.064-0.226 0.186-0.365 0.244-0.257 0.105-0.622 0.173-0.683 0.463-0.019 0.024-9e-3 5e-3 -0.024 0.048 0.165 0.199 0.838 0.94 1.267 0.658 0.184 3e-3 0.181 0.06 0.268 0.147-0.028 0.421-0.335 0.207-0.609 0.341-0.295 0.143-0.393 0.482-0.609 0.706 5e-3 0.057 5e-3 0.069 0.025 0.098 0.02 0.085 0.033 0.065 0.072 0.122 0.231-0.05 0.479-0.114 0.707-0.171 0.171-8e-3 0.342-0.016 0.512-0.024m5.02-5.045h0.121c0.058-0.056 0.114-0.113 0.171-0.17-0.016-0.33-0.445-0.545-0.755-0.317-0.024 8e-3 -0.049 0.016-0.073 0.025 6e-3 0.299 0.357 0.33 0.536 0.462m-2.511-2.046c0.273 0.082 0.591 0.209 0.805 0.365 0.351 0.256 0.411 0.563 0.901 0.755 0.278 0.109 0.567-0.134 0.877-0.048 0.287 0.079 0.364 0.309 0.561 0.463 0.031 0.353 0.038 0.667-0.219 0.853-0.06 0.043-0.123 0.043-0.171 0.097-0.354-7e-3 -0.853-0.289-1.048-0.463-0.817 0.016-0.414 0.798-0.852 1.121 0.016 0.239 0.167 0.249 0.267 0.39 0.126 0.175 0.2 0.463 0.245 0.707-8e-3 0.048-0.017 0.097-0.025 0.146-0.025 0.301-0.049 0.523-0.146 0.755-0.049 0.117-0.154 0.238-0.195 0.366-0.111 0.342 0.102 1.278 0.243 1.462-3e-3 0.173-0.056 0.193-0.122 0.292-0.429 3e-3 -0.756-0.203-0.925-0.463-0.07 9e-3 -0.106 0.016-0.147 0.049-0.123 0.091-0.262 0.424-0.365 0.56-0.133 0.176-0.381 0.26-0.536 0.415-0.188 0.187-0.373 0.427-0.512 0.657-0.049 0.131-0.098 0.261-0.146 0.391-8e-3 0.105-0.016 0.211-0.025 0.317-0.056 0.048-0.113 0.097-0.17 0.146-0.421-0.035-0.564-0.502-0.658-0.877-0.041-0.166 7e-3 -0.4-0.073-0.537-0.026-0.056-0.042-0.053-0.073-0.097-0.231 0.044-0.489 0.536-0.683 0.682-0.172 0.13-0.359 0.275-0.536 0.39-0.168 0.109-0.401 0.091-0.584 0.195-0.049 0.057-0.098 0.114-0.147 0.17 0.021 0.354 0.243 0.587 0.39 0.829 0.344 0.566 0.654 1.72 0.171 2.388-0.163 0.225-0.505 0.457-0.78 0.561-0.151 0.056-0.375 5e-3 -0.488 0.097-0.169-0.01-0.197-0.112-0.316-0.171-0.124-0.061-0.26-0.069-0.365-0.146-0.269-0.192-0.603-1.102-0.318-1.535 0.149-0.224 0.753-0.504 1.073-0.243 0.066-1e-3 0.112-1e-3 0.146-0.025 0.092-0.13-0.045-0.322-0.122-0.439-0.218-0.33-0.444-0.69-0.683-0.999-0.284 9e-3 -0.557 0.108-0.803 0.171-0.378 0.096-0.716 0.046-1.024 0.195-0.33 0.159-0.598 0.382-0.877 0.585-0.22 0.16-0.554 0.42-0.634 0.706-0.082 0.296 0.24 0.822 0.341 0.975 0.137 0.206 0.288 0.495 0.488 0.634 0.625 0.434 1.658 0.798 2.583 0.414 0.09-0.038 0.214-0.022 0.293-0.073 0.334 0.076 0.116 0.445 0.218 0.731 0.029 0.078 0.136 0.251 0.196 0.316-0.014 0.296-0.253 0.542-0.414 0.707 1e-3 0.419 0.181 0.642 0.389 0.853-0.012 0.275-0.153 0.284-0.268 0.439-0.144 0.194-0.221 0.388-0.219 0.731 0 0.124-3e-3 0.264 0.049 0.341-2e-3 0.46-0.274 0.31-0.536 0.488-0.183 0.123-0.276 0.418-0.39 0.609-0.248 0.016-0.799-0.305-0.927-0.488-0.101 5e-3 -0.111 0.017-0.17 0.049-0.06 0.316 0.027 0.761 0.097 1.072v0.414c0.066 0.288 0.015 0.822-0.048 1.097v0.292c-0.125 0.521-0.323 1.121-0.536 1.584-0.104 0.226-0.286 0.374-0.342 0.659 0.484 0.495 0.76 1.709 0.073 2.217 0.01 0.462 0.409 0.143 0.634 0.268 0.066 0.022 0.071 0.042 0.122 0.073 8e-3 0.056 0.011 0.061 0.025 0.097-0.24 0.252-0.459 0.488-0.805 0.634-0.252 0.107-0.586 0.086-0.853 0.195-0.013 0.037-0.017 0.041-0.024 0.098-0.036 0.095 0.136 0.444 0.17 0.609 0.04 0.191-0.149 1.127-0.219 1.218-0.046 0.07-0.105 0.12-0.195 0.146-0.425-0.41-1.001-0.618-1.486-0.974-0.234-0.172-0.296-0.489-0.439-0.756h-0.146c-0.016 0.071-0.059 0.14-0.074 0.195-0.066 0.253 0.109 0.414 0.025 0.585-0.043 0.089-0.152 0.13-0.219 0.195-0.399-4e-3 -0.64-0.205-0.756-0.487-0.098-0.239-0.023-0.494-0.267-0.585-0.087-0.065-0.311-0.068-0.391 0-0.257 0.092-0.217 0.445-0.463 0.536-0.103 0.059-0.251-0.082-0.316-0.146-0.068-0.066-0.159-0.125-0.196-0.219-0.061-0.159-0.072-0.734 0.025-0.853-0.017-0.422-0.553-0.344-0.755-0.585-0.113-0.135-0.218-0.353-0.293-0.512-0.059-0.124-0.038-0.272-0.122-0.365 8e-3 -0.167 0.065-0.185 0.146-0.268 0.174 0.023 0.359 0.118 0.463 0.219 0.154-2e-3 0.147-0.029 0.22-0.098-0.059-0.335-0.386-0.552-0.487-0.877-0.139-0.444 0.017-0.91-0.269-1.219 0.012-0.108 0.037-0.121 0.073-0.194 0.267-0.073 0.885-0.105 1.097 0.097 0.112-9e-3 0.143-0.037 0.22-0.073 0.101-0.514 0.256-0.865 0.633-1.097 0.111-0.068 0.265-0.069 0.366-0.146 0.393 0.052 0.146 0.539 0.341 0.805 0.032 0.079 0.068 0.07 0.122 0.121 0.221-0.033 0.455-0.291 0.511-0.487 0.04-0.138-0.016-0.25 0.049-0.341 0.054-0.081 0.12-0.088 0.195-0.146 0.263 0.036 0.529 0.143 0.658 0.316 0.076 0.103 0.113 0.271 0.219 0.341 0.131 0.088 0.223-0.019 0.39 0.025 0.063 0.016 0.152 0.07 0.22 0.097 0.032-0.032 0.077-0.053 0.121-0.073 0.198-0.504 4e-3 -1.306-0.121-1.754-0.017-0.114-0.033-0.228-0.049-0.342-0.146-0.396-0.368-0.847-0.512-1.242-8e-3 -0.065-0.016-0.13-0.024-0.196-0.087-0.206-0.259-0.399-0.342-0.608-0.17-0.43-0.27-0.857-0.487-1.243-0.065-0.066-0.13-0.131-0.195-0.195-0.17-8e-3 -0.341-0.017-0.511-0.025-0.173-0.184-0.476-0.562-0.707-0.658-0.206-0.085-0.517 0.014-0.683-0.097-0.165-0.111-0.21-0.365-0.316-0.536-0.203-0.327-0.546-0.684-0.951-0.805-0.167-0.049-0.312 0.042-0.462 0.049-0.058-0.049-0.115-0.097-0.171-0.146-0.022-0.5-0.366-1.244-0.659-1.462-0.113-0.084-0.234-0.094-0.365-0.171-0.068-0.039-0.106-0.145-0.171-0.194 0.038-0.33 0.575-0.631 0.805-0.805 0.505-0.38 0.904-1.174 1.242-1.73 0.068-0.11 0.079-0.232 0.147-0.341 0.071-0.115 0.186-0.262 0.244-0.39 0.06-0.138 0.047-0.282 0.121-0.414 0.076-0.134 0.243-0.217 0.293-0.39 8e-3 -0.227 0.016-0.455 0.024-0.682 0.105-0.466 0.14-0.992 0.292-1.438 0.635-1.862 1.415-3.575 2.925-4.557-0.015-0.241-0.147-0.243-0.195-0.438 0.052-0.057 0.052-0.129 0.097-0.196 0.16-0.235 0.509-0.461 0.755-0.609 0.25-0.15 0.659-0.114 0.854-0.317 0.19-0.198 0.051-0.568 0.365-0.658 0.158-0.103 0.511 0.167 0.804 0.098 0.279-0.066 0.443-0.283 0.609-0.463 0.119-2e-3 0.139-0.036 0.244 0 0.137 0.046 0.293 0.229 0.512 0.17 0.289-0.076 0.635-0.504 1.048-0.292 0.143 0.074 0.513 0.428 0.609 0.56 0.119 0.165 0.192 0.409 0.414 0.463 0.049-7e-3 0.098-0.016 0.147-0.024 0.221-0.017 0.491-0.015 0.681 0.049 0.119 0.039 0.239 0.16 0.367 0.195 0.243-0.016 0.487-0.033 0.73-0.049 0.284 0.059 0.532 0.179 0.805 0.244 0.552 0.131 1.173-0.192 1.729-0.024" fill="#231f20" fill-rule="evenodd"/></g><g transform="translate(135.49 127.57)"><path d="m0 0c0.042-0.016 0.024-5e-3 0.049-0.024 0.149 0.016 0.135 0.077 0.22 0.146-4e-3 0.213-0.067 0.27-0.147 0.39h-0.122c-0.034-0.054-0.078-0.12-0.122-0.171 2e-3 -0.194 0.052-0.232 0.122-0.341" fill="#231f20" fill-rule="evenodd"/></g></g></g></svg>
