<?xml version="1.0" encoding="UTF-8"?>
<svg version="1.1" viewBox="0 0 128 128" xml:space="preserve" xmlns="http://www.w3.org/2000/svg" xmlns:cc="http://creativecommons.org/ns#" xmlns:dc="http://purl.org/dc/elements/1.1/" xmlns:rdf="http://www.w3.org/1999/02/22-rdf-syntax-ns#"><metadata><rdf:RDF><cc:Work rdf:about=""><dc:format>image/svg+xml</dc:format><dc:type rdf:resource="http://purl.org/dc/dcmitype/StillImage"/><dc:title/></cc:Work></rdf:RDF></metadata><g transform="translate(-8.2085 -9.9068)"><g transform="matrix(3.3772 0 0 -3.3772 -605.87 128.78)"><g transform="translate(194.66 22.341)"><path d="m0 0c-0.032 0.036-0.067 0.073-0.107 0.112l0.072-0.03 0.035 0.024zm-1.708-0.737c-0.029 0-0.063 2e-3 -0.102 7e-3l-0.053 5e-3c0.044 0.039 0.089 0.096 0.118 0.188 0.015-0.023 0.029-0.044 0.043-0.064 0.031-0.046 0.058-0.086 0.08-0.129-0.029-5e-3 -0.056-7e-3 -0.086-7e-3m3.63-0.241 0.091 0.033-8e-3 -0.013c-0.02-0.032-0.033-0.054-0.052-0.069-0.01 0.016-0.02 0.033-0.031 0.049m0.839-0.106c-0.116 0.076-0.24 0.139-0.368 0.18 0.12-0.026 0.243-0.085 0.368-0.18m0.763-0.763c-0.026 0.037-0.056 0.076-0.088 0.117 0.011-7e-3 0.022-0.014 0.026-0.019 0.022-0.031 0.043-0.064 0.062-0.098m0.457-0.866c-0.046 0.037-0.079 0.102-0.108 0.181 0.015-0.023 0.03-0.046 0.047-0.069l0.103-0.143zm-5.112 0.023c0.041-0.039 0.079-0.078 0.111-0.119-0.025-0.016-0.052-0.032-0.084-0.047l-0.038-0.02zm0.11-0.914c-0.059 0.116-0.107 0.227-0.144 0.331l2e-3 0.042c0.049-0.14 0.096-0.263 0.142-0.373m1.663-1.377c-0.193 8e-3 -0.375 0.063-0.546 0.149 0.115-0.042 0.239-0.071 0.355-0.101 0.065-0.014 0.132-0.031 0.191-0.048m15.379-9.373c-0.053 0-0.108 2e-3 -0.16 5e-3 -0.055 3e-3 -0.108 5e-3 -0.156 5e-3 -0.033 0-0.063-1e-3 -0.092-3e-3 -0.035-4e-3 -0.071-5e-3 -0.108-5e-3 -0.655 0-1.501 0.453-1.796 0.764l-0.087 0.092-0.121-0.037c-0.101-0.03-0.175-0.08-0.234-0.121-0.03-0.022-0.059-0.041-0.078-0.048-0.073-0.028-0.153-0.043-0.239-0.043-0.527 0-1.133 0.524-1.323 0.818l-0.073 0.114-0.133-0.023c-0.063-0.011-0.126-0.016-0.189-0.016-0.383 0-0.768 0.196-1.143 0.581-0.043 0.044-0.084 0.135-0.123 0.222-0.095 0.21-0.225 0.496-0.564 0.53l-0.225 0.023v-0.248c-0.119-0.085-0.218-0.184-0.314-0.28-0.131-0.132-0.256-0.256-0.424-0.335-0.172-0.082-0.367-0.123-0.577-0.123-0.508 0-1.025 0.241-1.369 0.443-0.04 0.023-0.087 0.07-0.135 0.119-0.075 0.076-0.16 0.162-0.274 0.218l-0.295 0.141v-0.238c-0.091-0.068-0.124-0.152-0.149-0.214-0.013-0.033-0.023-0.057-0.04-0.081-0.063-0.084-0.414-0.35-0.527-0.388-0.094-0.033-0.228-0.049-0.388-0.049-0.355 0-0.765 0.084-0.954 0.195-0.031 0.019-0.069 0.061-0.109 0.106-0.079 0.087-0.177 0.198-0.332 0.244l-0.137 0.04-0.086-0.115c-0.107-0.143-0.8-0.333-1.061-0.404-0.101-0.028-0.189-0.053-0.253-0.072h-0.494c-0.042 0.016-0.076 0.035-0.115 0.057-0.087 0.047-0.196 0.107-0.371 0.107h-0.082l-0.067-0.056c-0.208-0.197-1.193-0.581-1.687-0.581-0.041 0-0.078 3e-3 -0.106 8e-3 -0.036 7e-3 -0.071 0.011-0.109 0.011-0.065 0-0.121-0.011-0.172-0.02-0.041-7e-3 -0.075-0.013-0.108-0.013-0.025 0-0.047 4e-3 -0.072 0.013-0.046 0.018-0.137 0.091-0.209 0.151-0.128 0.104-0.262 0.213-0.402 0.25l-0.125 0.033-0.084-0.098c-0.073-0.086-0.236-0.107-0.423-0.132-0.119-0.015-0.242-0.032-0.365-0.067-0.178-0.051-0.436-0.102-0.684-0.151-0.227-0.045-0.463-0.091-0.642-0.139l-0.507-0.033-0.032-0.014c-9e-3 -4e-3 -0.017-8e-3 -0.026-0.012 0.079 0.105 0.162 0.243 0.255 0.397 0.142 0.235 0.406 0.675 0.55 0.704l0.164 0.034v0.16c0.213 0.163 0.405 0.391 0.564 0.578l0.021 0.025c2e-3 1e-3 5e-3 2e-3 8e-3 3e-3 0.051 0.019 0.117 0.044 0.161 0.109l0.035 0.052v0.157l0.132 0.099v0.256c0.018 0.035 0.053 0.089 0.087 0.136 7e-3 0 0.013-1e-3 0.015-1e-3l0.109-9e-3 0.071 0.084c0.38 0.461 1.002 0.83 1.663 0.982l0.102 0.023 0.041 0.097c0.246 0.574 0.882 0.951 1.623 0.96l0.225 3e-3 -0.023 0.225c-0.018 0.166-0.076 0.3-0.123 0.409-0.02 0.044-0.037 0.085-0.051 0.125-0.013 0.04-0.011 0.051-5e-3 0.086 0.013 0.078 0.022 0.164-0.034 0.294l-0.092 0.214-0.201-0.118c-0.701-0.41-1.566-0.645-2.372-0.645-0.933 0-1.729 0.308-2.24 0.87-0.252 0.275-0.523 0.724-0.38 1.291 0.035 0.143 0.11 0.438 0.223 0.579 7e-3 8e-3 0.017 0.015 0.044 0.029 0.039 0.023 0.092 0.053 0.143 0.109 0.08 0.018 0.14 0.047 0.187 0.068 0.019 9e-3 0.037 0.018 0.054 0.023 0.041 0.013 0.086 0.019 0.133 0.019 0.265 0 0.562-0.206 0.636-0.498-0.224-0.16-0.258-0.427-0.278-0.582l-0.015-0.118 0.095-0.072c0.032-0.023 0.037-0.035 0.056-0.109 0.016-0.055 0.037-0.133 0.085-0.221 0.334-0.609 1.315-0.691 1.723-0.698l0.209-4e-3v0.41l-0.122 0.053c-0.115 0.051-0.238 0.185-0.24 0.406l-1e-3 0.059-0.031 0.05c-0.023 0.036-0.011 0.115 0.03 0.191 0.068 0.124 0.191 0.215 0.292 0.216l0.062 1e-3 0.021 0.015 0.018-6e-3c0.092-0.028 0.212-0.102 0.26-0.149l0.031-0.217 0.021-0.035c0.069-0.12 0.191-0.191 0.298-0.253 0.049-0.03 0.105-0.062 0.13-0.086l0.057-0.056 0.08-3e-3c0.086-3e-3 0.172-4e-3 0.257-4e-3 0.583 0 1.288 0.068 1.575 0.607l0.024 0.045c0.033 0.047 0.07 0.12 0.067 0.223-6e-3 0.138-0.048 0.35-0.086 0.537l-0.01 0.053 0.033 0.235-9e-3 0.04c-0.01 0.04-0.026 0.079-0.041 0.118-0.029 0.068-0.042 0.103-0.025 0.178 0.036 0.154 0.11 0.314 0.182 0.469 0.024 0.052 0.048 0.105 0.07 0.155l0.061 0.14-0.117 0.099c-0.036 0.031-0.117 0.133-0.157 0.195v0.174l-0.038 0.053c-0.046 0.065-0.113 0.1-0.173 0.131-0.014 8e-3 -0.03 0.016-0.043 0.024-0.051 0.064-0.084 0.145-0.121 0.239-0.029 0.076-0.063 0.162-0.113 0.248-0.184 0.321-0.456 0.633-0.695 0.907-0.063 0.072-0.123 0.141-0.182 0.209-6e-3 9e-3 -0.018 0.041-0.025 0.064-0.021 0.058-0.049 0.139-0.115 0.208-0.055 0.059-0.117 0.113-0.175 0.164-0.071 0.062-0.139 0.122-0.192 0.185 1e-3 0.023 2e-3 0.047 3e-3 0.072 0.118-0.087 0.276-0.165 0.421-0.236 0.06-0.029 0.114-0.056 0.155-0.079 9e-3 -8e-3 0.036-0.048 0.054-0.074 0.043-0.064 0.091-0.136 0.168-0.184l0.05-0.031h0.127c0.036-0.032 0.077-0.081 0.117-0.129 0.055-0.067 0.112-0.136 0.181-0.189 0.09-0.07 0.183-0.134 0.273-0.196 0.184-0.127 0.357-0.248 0.486-0.4 0.031-0.035 0.067-0.08 0.107-0.131 0.334-0.414 0.659-0.791 0.96-0.858l0.078-0.017 0.069 0.039c0.014 9e-3 0.033 0.013 0.059 0.013 0.178 0 0.476-0.19 0.694-0.33 0.109-0.07 0.213-0.136 0.302-0.181l0.308-0.155-0.01 0.345c-0.01 0.302 0.017 0.401 0.103 0.548l0.092 0.156-0.012 9e-3 0.145 0.22c0.223 0.341 0.714 0.57 1.221 0.57 0.183 0 0.358-0.032 0.505-0.089 0.063-0.025 0.129-0.039 0.194-0.053 0.138-0.029 0.225-0.052 0.259-0.116l0.082-0.151 0.163 0.052c0.605 0.194 1.12 0.304 1.666 0.353 0.043 0 0.138-0.026 0.216-0.047 0.114-0.03 0.23-0.063 0.33-0.063 0.053 0 0.1 9e-3 0.142 0.028l0.048 0.02 0.032 0.042c0.027 0.034 0.04 0.069 0.048 0.1l0.182 0.06-0.053 0.159 0.08 0.063 0.019 0.03c0.195 0.315 0.382 0.532 0.607 0.701 0.045 0.035 0.124 0.042 0.217 0.052 0.116 0.012 0.248 0.026 0.38 0.095s0.201 0.208 0.261 0.33c0.023 0.045 0.048 0.096 0.067 0.118 0.032 0.039 0.214 0.21 0.303 0.284h0.172l0.166 0.25c0.127 0.068 0.325 0.118 0.439 0.146h0.329l0.05 0.029c0.06 0.037 0.109 0.103 0.196 0.224 0.028 0.041 0.077 0.108 0.095 0.126 0.084 0.068 0.186 0.126 0.295 0.186 0.105 0.06 0.213 0.12 0.318 0.199 0.059 0.044 0.105 0.099 0.145 0.148 0.045 0.054 0.087 0.103 0.129 0.118 0.044 0.016 0.086 0.021 0.136 0.026 6e-3 1e-3 0.013 1e-3 0.02 2e-3 1e-3 -2e-3 3e-3 -3e-3 4e-3 -5e-3 7e-3 -9e-3 0.012-0.016 0.016-0.023-0.024-0.091-0.029-0.191-0.036-0.305-7e-3 -0.123-0.014-0.25-0.045-0.369-0.039-0.146-0.094-0.299-0.147-0.446-0.087-0.237-0.168-0.462-0.188-0.672-0.013-0.14 0.05-0.268 0.113-0.394 0.042-0.087 0.095-0.196 0.086-0.249-5e-3 -0.032-0.017-0.063-0.031-0.099-0.026-0.069-0.058-0.157-0.054-0.271-0.027-0.016-0.053-0.039-0.077-0.071-0.077-0.107-0.069-0.209-0.046-0.283-0.037-0.059-0.041-0.12-0.035-0.172-0.029-0.053-0.064-0.107-0.1-0.165-0.099-0.155-0.211-0.331-0.248-0.551l-0.021-0.118 0.093-0.076c4e-3 -3e-3 6e-3 -5e-3 0.017-0.02 0.023-0.032 0.062-0.088 0.147-0.133l0.126-0.067 0.107 0.094c0.087 0.076 0.31 0.11 0.506 0.141 0.179 0.027 0.364 0.055 0.521 0.119l0.058 0.023c0.934 0.375 1.741 0.698 2.302 1.496 0.042 0.059 0.087 0.11 0.134 0.163 0.155 0.174 0.33 0.371 0.331 0.81l1e-3 0.086-0.215 0.214-0.141-0.097c-0.174-0.12-0.353-0.181-0.53-0.181-0.296 0-0.558 0.173-0.684 0.452-0.147 0.322-0.073 0.687 0.203 1.003 0.016 0.019 0.034 0.039 0.052 0.061 0.069 0.081 0.154 0.183 0.227 0.211 0.112 0.042 0.244 0.063 0.394 0.063 0.436 0 0.89-0.187 1.039-0.363v-0.125l0.031-0.05c0.049-0.08 0.127-0.116 0.184-0.141 8e-3 -4e-3 0.016-7e-3 0.023-0.01 0.039-0.081 0.091-0.238 0.12-0.345l-0.032-0.226 8e-3 -0.036c0.011-0.054 0.037-0.104 0.062-0.153 0.012-0.023 0.032-0.063 0.036-0.078 0.046-0.206-0.103-0.64-0.183-0.872-0.081-0.236-0.109-0.316-0.069-0.413l0.028-0.066 0.062-0.035c0.123-0.067 0.261-0.075 0.394-0.084 0.184-0.01 0.275-0.023 0.314-0.096l0.011-0.021 0.016-0.016c0.088-0.103 0.133-0.225 0.144-0.401-0.016-0.015-0.028-0.03-0.039-0.043-9e-3 -0.01-0.021-0.023-0.025-0.027 0 0-0.022-0.01-0.095-0.011l-0.053-2e-3 -0.046-0.026c-0.021-0.013-0.07-0.028-0.179-0.028-0.064 0-0.13 5e-3 -0.196 9e-3 -0.075 5e-3 -0.15 0.01-0.22 0.01-0.119 0-0.209-0.013-0.289-0.04-0.3-0.103-0.583-0.309-0.858-0.508-0.257-0.186-0.521-0.379-0.792-0.481-0.068-0.026-0.187-0.047-0.302-0.069-0.296-0.054-0.6-0.111-0.722-0.313l-0.084-0.138 0.367-0.367 0.12 0.039c0.06 0.019 0.137 0.028 0.228 0.028 0.467 0 1.146-0.256 1.358-0.423 0.039-0.03 0.082-0.099 0.124-0.167 0.023-0.036 0.047-0.074 0.072-0.11-4e-3 -0.015-7e-3 -0.034-0.01-0.057l-0.033-0.236 0.238 1e-3c0.533 0 1.593-0.512 1.858-0.934-0.027-0.039-0.05-0.078-0.069-0.113-0.01-0.016-0.023-0.037-0.035-0.055h-0.111l-0.054-0.038c-0.055-0.041-0.11-0.09-0.164-0.138-0.063-0.058-0.129-0.116-0.183-0.15-0.063-0.037-0.159-0.051-0.261-0.066-0.139-0.021-0.296-0.044-0.436-0.134l-0.038-0.025-0.024-0.038c-0.062-0.098-0.102-0.257-0.133-0.431h-0.092l-0.045-0.226c-0.068-0.035-0.13-0.077-0.191-0.118-0.078-0.052-0.151-0.102-0.223-0.128-0.237-0.084-0.522-0.122-0.896-0.122-0.247 0-0.497 0.017-0.739 0.034l-0.181 0.011-0.052-0.145c-0.127-0.352-0.357-0.495-0.797-0.495-0.188 0-0.391 0.024-0.605 0.051-0.188 0.023-0.382 0.047-0.568 0.053l-0.213 7e-3v-0.375l0.075-0.062c0.464-0.382 0.761-0.896 0.883-1.525l0.024-0.127 0.125-0.033c0.318-0.084 0.833-0.961 0.99-1.482l-0.032-0.131 0.015-0.053c0.04-0.142 0.152-0.261 0.251-0.366 0.042-0.044 0.085-0.089 0.105-0.12 0.127-0.19 0.362-0.556 0.508-0.889l0.06-0.135c0.052-0.114 0.101-0.223 0.132-0.311 0.017-0.047 0.011-0.146 6e-3 -0.217-8e-3 -0.129-0.014-0.25 0.066-0.343 1e-3 -1e-3 2e-3 -3e-3 3e-3 -3e-3l-0.032-0.023c-0.023-0.016-0.08-0.036-0.216-0.036" fill="#eccea0" fill-rule="evenodd"/></g><g transform="translate(212.3 20.88)"><path d="m0 0h-0.032c0.01 0.352 0.13 0.46 0.197 0.724v0.591c0.15 0.577-0.058 1.164-0.428 1.414-0.178 0.122-0.356 0.082-0.591 0.165-0.159 0.055-0.25 0.158-0.495 0.165-0.038-0.027-0.054-0.027-0.13-0.034-0.211-0.194-0.376-0.294-0.461-0.625-0.12-0.465 0.455-1.188 0.756-1.052 0.279 0.02 0.433 0.215 0.428 0.526l0.032-0.032c0.279-0.127 0.056-1.041 0.231-1.283-0.053-0.277-0.357-0.422-0.527-0.592-0.566-0.567-1.082-0.916-1.973-1.185-0.416-0.076-0.833-0.153-1.249-0.229-0.248 1e-3 -0.247-0.052-0.362-0.165 0.026-0.167 0.091-0.188 0.164-0.296 0.729-0.164 0.983-0.023 1.579 0.164 0.153 0.012 0.306 0.022 0.461 0.033 0.171 0.049 0.394 0.151 0.558 0.197 0.121 0.011 0.241 0.023 0.363 0.034 0.167 0.073 0.303 0.291 0.459 0.361h0.264c0.121 0.04 0.342 0.124 0.46 0.197 0.109 0.068 0.221 0.246 0.329 0.297 0.213 0.099 0.522-0.023 0.691 0.099 0.252 0.096 0.124 0.332 0.033 0.493-0.175 0.074-0.563 0.173-0.757 0.033" fill="#ffa500" fill-rule="evenodd"/></g><g transform="translate(196.28 19.761)"><path d="m0 0c-0.112 0.032-0.133-0.069-0.23 0-0.183 0.132-0.325 0.379-0.46 0.56-0.176 0.164-0.352 0.329-0.527 0.493-0.098 0.103-0.108 0.209-0.263 0.263-0.042 0.029-0.082 0.031-0.165 0.033-0.034-0.027-7e-3 -0.012-0.065-0.033-0.012-0.077-0.022-0.154-0.033-0.23 0.348-0.324 0.639-0.727 0.921-1.118 0.044-0.033 0.088-0.067 0.132-0.099-0.012-0.066-0.023-0.132-0.034-0.197 0.067-0.23 0.307-0.434 0.428-0.625 0.165-2e-3 0.602-0.035 0.658 0 0.09 0.044 0.074 0.087 0.164 0.131-4e-3 0.284-0.091 0.416-0.23 0.559-0.074 0.076-0.188 0.233-0.296 0.263" fill="#ffa500" fill-rule="evenodd"/></g><g transform="translate(206.22 20.09)"><path d="m0 0c-0.011 0.033-0.021 0.066-0.032 0.099-0.077 0.01-0.154 0.022-0.231 0.033-0.05-0.034-0.134-0.035-0.23-0.033-0.263-0.26-1.227-0.995-0.822-1.448 0.165 0.022 0.253 0.09 0.295 0.231 0.08-0.043 0.098-0.117 0.132-0.197 0.057-0.022 0.033-7e-3 0.066-0.034 0.446 1e-3 0.566 0.619 0.723 0.921 0.053 0.102 0.2 0.276 0.099 0.428" fill="#ffa500" fill-rule="evenodd"/></g><g transform="translate(193.59 14.926)"><path d="m0 0c0.132-0.011 0.264-0.021 0.395-0.032 0.066 0.065 0.131 0.131 0.198 0.197 0.121 0.063 0.231 0.018 0.361 0.065 0.227 0.085 0.438 0.241 0.625 0.363 3e-3 0.101 0.02 0.133 0 0.164-0.023 0.123-0.049 0.116-0.099 0.197-0.225 0.043-0.884-0.044-1.052-0.164-0.117 0.042-0.48 0.274-0.559 0.361-0.122 0.134-0.105 0.364-0.264 0.461-0.074 0.046-0.254 0.049-0.329 0-0.334-0.219 0.28-1.004 0.296-1.283-1.185-8e-3 -1.652 0.346-2.104 1.053-0.052 0.076 0.099 0.58 0.065 0.723-0.058 0.253-0.39 0.432-0.558 0.592-0.142-5e-3 -0.257-0.025-0.329-0.098-0.122-0.122-0.071-0.3-0.132-0.494-0.1-0.316-0.41-1.038-0.164-1.48 0.131-0.237 0.402-0.08 0.625-0.197 0.12-0.131 0.241-0.263 0.361-0.395 0.177-0.127 0.263-0.054 0.493-0.132 0.179-0.059 0.379-0.207 0.593-0.262 0.372-0.097 0.636 0.101 0.822 0.164h0.328c0.118 0.039 0.292 0.171 0.428 0.197" fill="#ffa500" fill-rule="evenodd"/></g><g transform="translate(208.48 16.998)"><path d="m0 0c-0.164-0.031-0.452 0.035-0.592 0.066-0.307 0.068-0.717-0.015-0.986 0.033-0.064-0.048-0.168-0.094-0.231-0.131-0.034-0.171-0.014-0.348 0-0.527 0.069-0.069 0.147-0.181 0.198-0.263 0.219-7e-3 0.306 0.08 0.526 0.132 0.241 0.01 0.482 0.021 0.724 0.033 0.109 0.032 0.218 0.065 0.329 0.098 0.011 0.033 0.021 0.066 0.032 0.099h0.428c0.022 0.022 0.044 0.044 0.066 0.065 0.453 0.134 0.928-0.164 1.282 0.066 0.011 0.012 0.023 0.022 0.034 0.033-0.335 0.092-0.644 0.275-1.02 0.362-0.256 0.059-0.589-0.027-0.79-0.066" fill="#ffa500" fill-rule="evenodd"/></g><g transform="translate(195.85 13.084)"><path d="m0 0c-0.064-0.06-0.151-0.047-0.23-0.099-0.259-0.17-0.497-0.444-0.756-0.625-0.137-0.094-0.315-0.108-0.461-0.197-0.137-0.083-0.291-0.214-0.428-0.296-0.131-0.044-0.263-0.088-0.395-0.132-0.237-0.142-0.461-0.347-0.69-0.493 3e-3 -0.147 0.021-0.179 0.065-0.262 0.58 0.012 0.904 0.417 1.349 0.558h0.526c0.313 0.069 0.708 0.118 0.921 0.297 0.226 0.187 0.21 0.689 0.395 0.921-5e-3 0.16-0.033 0.186-0.066 0.296-0.077 0.011-0.153 0.021-0.23 0.032" fill="#ffa500" fill-rule="evenodd"/></g><g transform="translate(207.76 10.914)"><path d="m0 0c7e-3 0.075 0.055 0.203 0 0.296-0.116 0.198-0.356 0.345-0.493 0.525-0.247 0.329-0.522 0.618-0.756 0.954-0.088 0.125-0.27 0.163-0.362 0.296h-0.231c-0.158-0.28-6e-3 -0.671 0-1.085 0.093-0.086 0.208-0.326 0.329-0.362 0.096-0.028 0.204 0.038 0.329-0.032 0.11-0.063 0.186-0.227 0.263-0.329 0.231-0.231 0.461-0.461 0.692-0.691 0.431 0.039 0.209 0.205 0.229 0.428" fill="#ffa500" fill-rule="evenodd"/></g><g transform="translate(197.86 20.682)"><path d="m0 0-0.724 0.691c-0.246-6e-3 -0.274-0.084-0.427-0.165-0.09 0.137-0.211 0.191-0.329 0.296-0.198 0.209-0.395 0.417-0.592 0.625-0.213 0.161-0.464 0.31-0.658 0.494-0.077-7e-3 -0.093-6e-3 -0.132-0.033-0.2-0.068-0.164-0.306-0.198-0.461h-0.032c-0.271 0.391-0.833 0.639-1.217 0.921-0.167 0.123-0.319 0.357-0.526 0.428-0.08 0.054-0.517 1e-3 -0.56-0.032-0.033-0.023-0.065-0.044-0.098-0.067 0.038-0.491 0.508-1.109 0.625-1.578 0 0-0.183-0.306-0.263-0.362 3e-3 -0.137 0.056-0.236 0.066-0.296 0.021-0.139-0.101-0.198-0.034-0.361 0.132-0.322 0.479-0.558 0.592-0.889 0.045-0.109-0.045-0.371 0.033-0.559 0.274-0.656 0.79-1.293 1.349-1.677 0.182-0.125 0.646-0.498 0.954-0.264 0.076 0.025 0.073 0.034 0.131 0.066 0.013 0.057 0.137 1.035 0.132 1.053-0.038 0.132-0.213 0.223-0.263 0.328v0.197c-0.232 0.538-0.845 1.162-1.184 1.645-0.084 0.12-0.208 0.272-0.263 0.396-0.065 0.143-0.049 0.307-0.132 0.426v0.1c0.574-0.143 1.139-0.919 1.579-1.25 0.12-0.091 0.481-0.234 0.559-0.329 0.168-0.206 0.498-0.717 0.723-0.822 0.237-0.111 0.479-0.096 0.724-0.198 0.081-0.034 0.184-0.13 0.264-0.165 0.115-0.05 0.262-0.119 0.361-0.065 0.089 0.03 0.097 0.056 0.165 0.098v0.198h0.099c0.132 0.31-0.06 0.597-0.198 0.822-0.176 0.287-0.331 0.529-0.526 0.789" fill="#7b9933" fill-rule="evenodd"/></g><g transform="translate(212.17 17.426)"><path d="m0 0c-0.172 0.038-0.25-0.082-0.428-0.099v0.329c-0.338 0.338-0.776 0.59-1.316 0.724-0.092 0.023-0.223-0.027-0.263-0.033-0.208 0.033-0.417 0.066-0.625 0.099-0.112 0.045-0.199 0.196-0.296 0.263-0.166 0.116-0.4 0.225-0.592 0.296-0.253 0.094-0.883 0.127-1.085-0.033h-0.033c0.034 0.184 0.15 0.414-0.066 0.493 0.038 0.351 0.352 0.729 0.461 1.053 0.021 0.153 0.044 0.306 0.065 0.461 0.03 0.039 0.139 0.049 0.164 0.098 0.084 0.162 0.022 0.442-0.032 0.559-0.061 0.021-0.129 0.033-0.23 0.033-0.101 0.631 0.641 1.21 0.262 1.809h-0.262c-0.12-0.11-0.242-0.219-0.362-0.329-0.13-0.172-0.226-0.395-0.395-0.526-0.131-0.075-0.56 0.075-0.789-0.066-0.164-0.153-0.329-0.307-0.493-0.46-0.084-0.116-0.118-0.278-0.231-0.362-0.1-0.075-0.404-0.294-0.493-0.33-0.28-0.107-0.537-0.104-0.757-0.262-0.213-0.154-0.226-0.382-0.361-0.625-0.072-0.128-0.387-0.102-0.296-0.395 0.041-0.134 0.231-0.163 0.296-0.263 0.115-0.18 0.05-0.42 0.132-0.559 2e-3 -0.207 0.037-0.198 0.13-0.296 0.366 0.051 0.449 0.355 0.625 0.592 0.334 0.447 0.94 0.677 1.25 1.151 0.125-0.046 0.116-0.104 0.263-0.132-0.133-0.263-0.263-0.585-0.361-0.887-0.022-0.143-0.044-0.285-0.066-0.428-0.039-0.119-0.222-0.195-0.165-0.395 0.073-0.248 0.37-0.333 0.494-0.526 0.168-0.263 0.046-0.397 0.296-0.658 0.336 6e-3 0.219 0.1 0.329 0.329 0.044 0.092 0.173 0.162 0.23 0.264h0.065c-0.089-0.28-0.326-0.575-0.525-0.757 3e-3 -0.083 4e-3 -0.122 0.032-0.165 0.201-0.488 0.99-0.092 1.546-0.23l1.283-0.296c0.059 0.015 0.137 0.107 0.198 0.131 0.16-0.155 0.803-0.366 1.085-0.394-0.25-0.16-0.575 5e-3 -0.888-0.066-0.702-0.158-2.022 0.02-2.631-0.23-0.121-0.12-0.242-0.241-0.362-0.362 2e-3 -0.232 0.082-0.211 0.132-0.329 0.086-0.207-0.012-0.597 0.098-0.822 0.157-0.324 1.15-0.657 1.677-0.559 0.228 0.042 0.317-0.139 0.461-0.066 0.193 0.022 0.236 0.115 0.362 0.197 0.036 0.138 0.07 0.254 0.066 0.46 0.882-0.07 1.632-0.164 2.269 0.297 0.19 0.137 0.193 0.364 0.329 0.559 0.137 0.249 1.548 0.407 1.249 0.921-0.081 0.234-1.151 0.758-1.446 0.822" fill="#7b9933" fill-rule="evenodd"/></g><g transform="translate(210.06 9.9272)"><path d="m0 0c-0.068 0.132-0.083 0.271-0.164 0.395-0.056 0.054-0.11 0.11-0.165 0.165-0.291 0.633-0.427 1.245-1.02 1.578 7e-3 0.526-0.57 1.621-0.855 1.809-0.078 0.051-0.176 0.018-0.263 0.066-0.058 0.032-0.122 0.139-0.197 0.164-0.122 0.04-0.609-0.022-0.625-0.032-0.231 0.01-0.341 5e-3 -0.395-0.166-0.032-0.045-0.033-0.107-0.033-0.197-0.182-0.017-0.169-0.072-0.262-0.164 0.041-0.452 0.412-0.605 0.625-0.888 0.074-0.099 0.127-0.261 0.229-0.329 0.08-0.052 0.216-0.016 0.264-0.098 0.01-0.077 0.021-0.155 0.032-0.231 0.093-0.218 0.275-0.429 0.395-0.625 0.2-0.326 0.336-0.816 0.625-1.052v-0.066c-0.549 0.364-1.674 1.513-2.566 1.316-0.277-0.062-0.506-0.244-0.723-0.362-0.118-0.064-0.302-0.018-0.395-0.098-0.15-0.075-0.194-0.401-0.296-0.527 0.061-0.456 0.85-0.802 1.151-1.086 0.238-6e-3 0.31 0.027 0.395 0.165 0.076-8e-3 0.093-7e-3 0.132-0.033h0.262c0.067-0.109 0.132-0.22 0.198-0.329 0.235-0.251 1.208-0.927 1.612-0.361 0.506-0.032 0.83-0.424 1.184-0.625 0.075-0.043 0.168 7e-3 0.263-0.034 0.115-0.048 0.523-0.303 0.625-0.394 0.282 7e-3 0.242 0.126 0.395 0.197 1e-3 0 0.239-0.064 0.329-0.065 0.087 0.065 0.175 0.131 0.263 0.197-0.042 0.378-0.404 0.558-0.559 0.855-0.154 0.293-0.315 0.575-0.461 0.855" fill="#7b9933" fill-rule="evenodd"/></g><g transform="translate(196.81 11.045)"><path d="m0 0c-0.256 0.168-0.622 0.648-0.855 0.889-0.414-0.014-0.528-0.214-0.855-0.297h-0.362c-0.443-0.11-1.599-0.472-1.875-0.723h-0.032c0.069 0.133 0.201 0.238 0.262 0.361 0.046 0.091 0.019 0.231 0.033 0.263 0.174 0.228 0.515 0.365 0.756 0.527 0.66 0.442 1.379 0.863 2.073 1.283-0.043 0.211-0.107 0.288-0.198 0.427-0.582 0.14-1.29 0.16-1.743-0.165-0.077-0.054-0.099-0.164-0.164-0.229-0.178-0.177-0.354-0.234-0.394-0.56-0.455-0.117-0.958-0.29-1.317-0.591-0.074-0.064-0.084-0.203-0.164-0.264-0.102-0.077-0.219-0.089-0.329-0.164-0.213-0.147-0.453-0.617-0.493-0.921-0.431-0.072-1.064-1.137-1.382-1.447 0.02-0.127 0.051-0.147 0.099-0.231 0.221 8e-3 0.216 0.099 0.362 0.132 0.077-0.061 0.206-0.152 0.394-0.099 0.155 0.043 0.353 0.201 0.494 0.231 0.151 0.032 0.23-0.168 0.461-0.099 0.128 0.038 0.224 0.168 0.329 0.23 0.201 0.12 0.449 0.125 0.624 0.263 0.18-0.094 0.212-0.35 0.427-0.427 0.645-0.231 1.632 0.289 2.039 0.46 0.167 0.07 0.371 0.056 0.495 0.165 0.088-0.087 0.134-0.215 0.262-0.264 0.409-0.156 1.366 0.261 1.612 0.428 0.15 0.102 0.197 0.355 0.362 0.427-0.109 0.081-0.416 0.25-0.526 0.296-0.134 0.057-0.285 0.027-0.395 0.099" fill="#7b9933" fill-rule="evenodd"/></g><g transform="translate(203.58 17.393)"><path d="m0 0h-0.164c7e-3 0.077 6e-3 0.093 0.032 0.132 0.053 0.128 0.15 0.107 0.231 0.197h0.065c-0.061-0.103-0.132-0.192-0.164-0.329m-3.224-2.894c-0.182 0.24 0.035 1.437 0.165 1.579 0.069 0.074 0.166 0.078 0.23 0.165 0.364-0.016 1.044-0.2 1.349 0 0.227-0.037 0.458-0.984 0.625-1.185-0.168-0.663-1.745-1.175-2.369-0.559m6.052 3.388c-0.193 0.518-0.793 1.149-1.578 0.855-0.386-0.144-0.578-0.483-0.889-0.691v-0.065h-0.032c0.275 1.146 0.139 2.116-0.921 2.368-0.363 0.086-0.674-0.101-0.888-0.165l-0.592-0.032c-0.028-6e-3 -0.119-0.054-0.198-0.034-0.428 0.112-0.509 0.304-1.183 0.296-0.208-0.134-0.488-0.137-0.692-0.262-0.175-0.11-0.296-0.315-0.459-0.428-0.155-0.108-0.504-0.361-0.296-0.691v-0.592h-0.034c-0.239 0.484-1.157 1.049-1.973 0.69-0.364-0.159-0.521-0.556-0.657-0.953-0.131-0.376-0.163-1.148 0.098-1.414-0.077-0.386-0.382-0.528-0.559-0.79-0.275-0.403-0.486-1.219-0.164-1.743 0.263-0.431 0.782-0.575 1.085-0.954 0.025-0.02 8e-3 -1e-3 0-0.033-0.098-0.283-0.41-0.644-0.296-1.118 0.14-0.586 0.846-1.196 1.611-1.184 0.173-0.414 0.495-0.926 0.921-1.085 0.217-0.081 0.515-0.01 0.691 0.032 0.164 0.022 0.328 0.044 0.493 0.066 0.342 0.127 0.663 0.58 0.756 0.954h0.033c0.372-0.636 1.497-1.501 2.5-0.855 0.243 0.155 0.449 0.503 0.592 0.756 0.952 2e-3 2.39 0.907 2.073 2.007-0.035 0.119-0.152 0.176-0.198 0.262-0.106 0.197-0.058 0.441-0.197 0.593 0.173 0.252 0.638 4e-3 0.888 0.164 0.175 0.113 0.368 0.399 0.427 0.625v0.296c0.069 0.166 0.275 0.296 0.33 0.493 0.099 0.366-0.49 1.169-0.592 1.448-0.126 0.34 0.02 0.866-0.1 1.184" fill="#ed561c" fill-rule="evenodd"/></g><g transform="translate(213.37 16.301)"><path d="m0 0c-0.21-0.129-0.452-0.223-0.71-0.315-0.086-0.032-0.273-0.091-0.355-0.04-0.282 4e-3 -0.246-0.035-0.395-0.138 2e-3 -0.05 3e-3 -0.073 0.02-0.099 0.028-0.08 0.223-0.192 0.295-0.236-6e-3 -0.295-0.274-0.346-0.493-0.435-0.547-0.221-1.147-0.111-1.815-0.098-0.061-0.06-0.163-0.094-0.197-0.178-0.061-0.147-0.04-0.274-0.159-0.356-0.11-0.075-0.222-0.054-0.375-0.098-0.524-0.151-1.417 0.091-1.775 0.316-0.047 0.046-0.093 0.092-0.139 0.138-1e-3 0.44-6e-3 0.765-0.137 1.105 0.032 0.046 0.065 0.092 0.098 0.138 0.339 0.087 0.745 0.152 1.085 0.237h0.217c0.257 0.056 0.606 0.045 0.849 0.099h0.533c0.071 0.016 0.218 0.035 0.296 0.039 0.123 7e-3 0.328-0.031 0.415 0.02 0.31-4e-3 0.424-0.028 0.611 0.098-0.026 0.24-0.6 0.361-0.829 0.435-0.908 0.295-2.267 0.375-3.394 0.355-0.028 0.03-0.064 0.058-0.099 0.078 0.013 0.167 0.109 0.197 0.178 0.297 0.152 0.222 0.44 0.841 0.631 0.967 0.102 0.067 0.306 0.012 0.415 0.079 0.358-2e-3 1.021 0.023 1.263-0.138 0.129-0.086 0.177-0.303 0.335-0.356 0.231-6e-3 0.461-0.013 0.691-0.019 0.369-0.081 0.709-0.111 0.967-0.296 0.069-0.05 0.171-0.167 0.198-0.257 5e-3 -0.066 0.012-0.131 0.019-0.197l0.138-0.138c0.525-3e-3 1.115-0.301 1.461-0.514 0.098-0.06 0.298-0.123 0.335-0.236 0.046-0.14-0.112-0.216-0.178-0.257m-7.104-3.69h0.079c0.219-0.329 0.552-0.592 0.79-0.908 0.108-0.145 0.214-0.362 0.354-0.473 0-0.066-5e-3 -0.117-0.019-0.159-0.18 0.033-0.336 0.206-0.474 0.296-0.257 0.17-0.535 0.312-0.789 0.474-0.059 0.261 0.032 0.516 0.059 0.77m2.033 0.276c0.062-0.117 0.127-0.272 0.158-0.395 0.027-0.112-0.043-0.201 0-0.276 0.025-0.204 0.181-0.166 0.315-0.256 0.139-0.094 0.306-0.293 0.395-0.434 0.064-0.104 0.082-0.205 0.139-0.316 0.065-0.133 0.166-0.264 0.216-0.415 0.06-0.175 0.054-0.371 0.138-0.532 0.068-0.13 0.243-0.212 0.316-0.336 0.038-0.064 0.025-0.114 0.059-0.178 0.085-0.154 0.221-0.302 0.296-0.473 0.081-0.184 0.282-0.805 0.395-0.908-5e-3 -0.082-0.018-0.116-0.059-0.158-0.1-0.069-0.63-0.07-0.81-0.019-0.549 0.155-0.944 0.437-1.361 0.71-0.078 0.051-0.171 0.058-0.236 0.119-0.328-9e-3 -0.5-0.295-0.909-0.178-0.316 0.09-0.652 0.354-0.829 0.592-0.082 0.11-0.132 0.27-0.276 0.315-0.213 0.068-0.392-0.132-0.65-0.058-0.335 0.093-0.968 0.746-1.047 1.085 0.159 0.15 0.283 0.105 0.494 0.197 0.188 0.082 0.425 0.214 0.592 0.336 0.085 0.061 0.121 0.159 0.236 0.197 0.156 0.091 0.586-0.247 0.691-0.316 0.354-0.231 0.689-0.446 1.026-0.691 0.128-0.093 0.23-0.244 0.355-0.335 0.131-0.095 0.28-0.166 0.395-0.276 0.184-4e-3 0.192 0.034 0.276 0.118-0.043 0.293-0.369 0.656-0.513 0.888-0.06 0.097-0.078 0.201-0.138 0.296-0.096 0.152-0.256 0.272-0.355 0.415-0.134 0.191-0.238 0.387-0.375 0.572-0.215 0.287-0.515 0.523-0.73 0.809-0.111 0.146-0.207 0.306-0.336 0.434 9e-3 0.056 0.013 0.098 0.04 0.138 0.068 0.1 0.257 0.163 0.355 0.237 0.079 0.085 0.158 0.171 0.237 0.257 0.044 0.029 0.099 0.028 0.138 0.059 0.521-0.195 1.116-0.761 1.362-1.224m-4.145-1.717c-0.11-0.052-0.164-0.186-0.256-0.256-0.354-0.268-0.583-0.646-1.066-0.79-0.125-0.037-0.177 0.012-0.316 0-0.537-0.046-0.917 0.188-1.243 0.415-0.139 0.097-0.298 0.158-0.355 0.335-0.093 0.135 0.025 0.392 0.059 0.533 0.034 0.137-0.02 0.28-0.04 0.375 0.031 0.031 0.059 0.081 0.079 0.119 0.27 0.053 0.452 0.105 0.632 0.236 0.141 0.102 0.215 0.384 0.414 0.415 0.092 0.014 0.228-0.039 0.356-0.04 0.257 7e-3 0.513 0.014 0.769 0.02 0.251-0.07 0.39-0.221 0.671-0.02 0.142 0.101 0.265 0.305 0.317 0.494 0.046 0.17-0.079 0.361 0 0.493 6e-3 0.02 0.012 0.039 0.019 0.059 0.042 0.011 0.072 0.017 0.099 0.04 0.106-0.028 0.181-0.101 0.276-0.139 0.104-0.041 0.331-0.075 0.434-0.098 0.192-0.043 0.365 0.029 0.493-0.059 0.148-0.103 0.415-0.758 0.316-1.106-0.023-0.08-0.254-0.446-0.316-0.493-0.23-0.177-0.561-0.329-0.849-0.434-0.156-0.058-0.335-0.026-0.493-0.099m-4.302 1.066c-0.045 0.046-0.091 0.092-0.138 0.138-0.046 0.115-0.022 0.221-0.078 0.316-0.102 0.169-0.276 0.292-0.375 0.454-0.05 0.08-0.094 0.254-0.02 0.335 0.074 0.188 0.317 0.107 0.513 0.177 0.266 0.096 0.522 0.235 0.73 0.396 0.235-0.011 0.34-0.153 0.513-0.218 0.133-0.049 0.237-0.044 0.336-0.098 0.029-0.115-4e-3 -0.322 0.039-0.474 0.063-0.228 0.22-0.331 0.197-0.611-0.137-0.131-0.278-0.308-0.473-0.375-0.097-0.034-0.201 1e-3 -0.277 0-0.311-4e-3 -0.628-0.046-0.967-0.04m-0.75-2.17c-0.238 0.05-0.387 0.015-0.552 0.118-0.357 0.221-0.523 0.658-0.868 0.887-0.163 0.109-0.369 0.137-0.553 0.217-0.262 0.116-0.507 0.333-0.671 0.553-0.097 0.131-0.268 0.302-0.197 0.592 0.148 0.607 0.672 0.94 1.204 1.165 0.125 0.053 0.292 0.042 0.394 0.118 0.4 0 0.743-0.027 0.987-0.178 0.021-0.117-5e-3 -0.342 0.04-0.454 0.092-0.231 0.314-0.337 0.433-0.532 0.124-0.202 0.087-0.463 0.257-0.612 0.062-0.054 0.291-0.123 0.395-0.059 0.321 4e-3 0.475 0.032 0.67-0.099-0.181-0.803-0.484-1.945-1.539-1.716m-1.48 0.473c-0.023-0.231-0.296-0.251-0.493-0.316-0.548-0.181-1.045-0.409-1.46 0.059-0.284-0.04-0.407-0.209-0.612-0.316-0.26-0.136-0.508-0.176-0.809-0.275-0.659-0.219-1.263-0.344-1.678 0.216-0.359-7e-3 -0.579-0.158-0.848-0.256-0.274-0.1-0.569-0.062-0.869-0.138-0.124-0.032-0.608-0.188-0.71-0.139-0.114 5e-3 -0.102 0.027-0.158 0.079 0.022 0.182 0.171 0.258 0.257 0.375 0.302 0.415 0.638 0.775 1.025 1.106 0.159 0.135 0.173 0.38 0.277 0.572 0.11 0.205 0.346 0.461 0.533 0.592 0.268 0.185 0.605 0.386 0.907 0.513 0.153 0.064 0.387 0.034 0.533 0.119 0.126 0.072 0.141 0.249 0.217 0.375 0.111 0.178 0.324 0.376 0.514 0.473 0.181 0.093 0.407 0.148 0.611 0.198 0.129 0.031 0.226 0 0.317 0.058 0.345-4e-3 0.431-0.298 0.631-0.453-2e-3 -0.051-2e-3 -0.073-0.02-0.1-0.048-0.129-0.204-0.13-0.315-0.197-0.264-0.155-0.561-0.27-0.83-0.433-0.522-0.319-1.041-0.644-1.519-1.007-0.054-0.04-0.077-0.103-0.118-0.157-0.101-0.134-0.277-0.225-0.375-0.356-0.117-0.154-0.242-0.357-0.395-0.474 4e-3 -0.103 0.028-0.13 0.059-0.197 0.044-0.013 0.053-0.014 0.079-0.04 0.201 0.012 0.253 0.118 0.375 0.197 0.151 0.099 0.412 0.206 0.572 0.277 0.556 0.244 1.137 0.459 1.697 0.691 0.194 0.08 0.403 0.138 0.592 0.197 0.075 0.024 0.125 5e-3 0.178 0.039 0.289-0.025 0.281-0.263 0.454-0.394 0.28-0.213 0.603-0.431 0.928-0.592 0.182-0.091 0.382-0.081 0.453-0.276l0.02-0.02zm-1.657 2.289c-0.025-0.113-0.054-0.308-0.118-0.395 0-0.328-0.355-0.346-0.593-0.434-0.355-0.131-0.738-0.276-1.066-0.414-0.178-0.075-0.403-0.071-0.552-0.178-0.045 4e-3 -0.056 4e-3 -0.078 0.02h-0.021c0.07 0.22 0.301 0.294 0.474 0.414 0.317 0.222 0.678 0.444 1.026 0.632 0.252 0.135 0.572 0.223 0.77 0.414h0.079c0.028-0.039 0.026-0.041 0.079-0.059m-0.573 2.545c0.088 0.387 0.352 0.611 0.553 0.889 0.052 0.072 0.144 0.147 0.178 0.236 0.055 0.148 5e-3 0.86-0.04 1.007-0.017 0.056-0.065 0.167-0.039 0.276 0.097 0.422 0.317 0.778 0.631 0.987 0.089 0.058 0.207 0.058 0.297 0.119 1.042-2e-3 1.408-0.633 1.854-1.224 0.147-0.194 0.389-0.274 0.592-0.415 0.053-0.058 0.105-0.118 0.158-0.177-7e-3 -0.101-0.029-0.214-0.079-0.277-0.026-0.053-0.064-0.055-0.099-0.098-0.15 0.025-0.282 0.112-0.433 0.138-0.201 0.034-0.619-0.137-0.731-0.217-0.2-0.143-0.321-0.42-0.394-0.691-0.02-0.118-0.04-0.236-0.06-0.355-0.046-0.105-0.158-0.196-0.197-0.316-0.037-0.113-0.039-0.329 0-0.434 0.089-0.24 0.388-0.443 0.592-0.572-9e-3 -0.089-0.026-0.085-0.059-0.138-0.555-5e-3 -0.832-0.178-1.184-0.356-0.175-0.088-0.376-0.152-0.494-0.296-0.23 0.012-0.312 0.195-0.434 0.317-0.328 0.328-0.78 0.86-0.612 1.597m1.145 3.908c-0.02-0.209-0.202-0.223-0.296-0.355-0.246 4e-3 -0.26 0.185-0.355 0.335-0.211 0.335-0.421 0.665-0.652 0.987-0.08 0.113-0.224 0.234-0.217 0.375h0.119c0.129-0.166 0.343-0.306 0.513-0.434 0.074-0.055 0.121-0.143 0.177-0.217 0.073-0.06 0.146-0.118 0.218-0.178 0.168-0.167 0.314-0.356 0.493-0.513m-0.888-1.341c-0.051-0.175 0.06-0.345-0.02-0.454-0.023-0.056-2e-3 -0.038-0.059-0.06 0 0-0.431 0.182-0.513 0.217-0.533 0.23-0.898 0.517-1.184 0.987-0.085 0.138-0.116 0.394-0.197 0.513 6e-3 0.146 0.09 0.269 0.177 0.336-0.014 0.214-0.181 0.279-0.295 0.394-0.183 0.183-0.38 0.428-0.514 0.652-0.104 0.173-0.084 0.429-0.197 0.591-2e-3 0.373 0.176 0.174 0.336 0.316 0.032 0.029 0.044 0.088 0.078 0.119-0.028 0.193-0.126 0.278-0.198 0.414-0.067 0.13-0.079 0.258-0.137 0.395-0.055 0.127-0.148 0.285-0.198 0.415-0.054 0.141-0.047 0.327-0.138 0.433 0.018 0.091 0.057 0.097 0.098 0.158 0.774-0.185 1.399-0.783 1.935-1.223 0.143 8e-3 0.257 0.099 0.335 0.178 0.245-2e-3 0.329-0.088 0.474-0.178 0.179-0.111 0.351-0.194 0.513-0.316 0.07-0.052 0.105-0.146 0.157-0.217 0.133-0.176 0.316-0.339 0.474-0.494 0.192 0.022 0.279 0.205 0.514 0.119 0.188-0.069 0.377-0.245 0.493-0.395 0.086-0.079 0.171-0.158 0.257-0.236 0.102-0.138 0.228-0.276 0.315-0.415 0.081-0.129 0.099-0.281 0.178-0.414 0.034-0.058 0.117-0.156 0.138-0.217 0.056-0.165-0.073-0.577-0.119-0.671-0.245 0.012-0.336 0.195-0.512 0.275-0.136 0.063-0.308 0.104-0.454 0.139-0.161 0.038-0.266-9e-3 -0.375 0.06-0.151 0.092-0.287 0.253-0.395 0.394-0.066 0.053-0.132 0.105-0.197 0.157-0.136 0.18-0.288 0.307-0.454 0.454-0.098 0.087-0.172 0.218-0.277 0.296-0.335 0.252-0.659 0.538-1.006 0.77-0.197 0.131-0.469 0.236-0.651 0.375-0.084-3e-3 -0.105-0.016-0.158-0.039-0.158-0.396 0.236-0.589 0.414-0.829 0.289-0.391 0.609-0.775 0.868-1.184 0.067-0.104 0.09-0.211 0.158-0.316 0.084-0.128 0.213-0.249 0.296-0.375 0.1-0.149 0.149-0.316 0.257-0.453-0.014-0.265-0.15-0.448-0.217-0.671m3.237 1.341c0.113 0.273 0.419 0.591 0.69 0.71 0.123 0.055 0.305 0.045 0.414 0.119 0.59 2e-3 0.91-0.227 1.382-0.335 0.373-0.086 0.637 0.18 0.888 0.256 0.741 0.224 1.397-0.02 1.618-0.533 0.312-0.722-0.13-1.547-0.493-1.914-0.079-0.08-0.383-0.378-0.533-0.296-0.148 0.055-0.309 0.534-0.513 0.671-0.15 0.101-0.301 0.104-0.493 0.178-0.226 0.086-0.383 0.447-0.789 0.335-0.25-0.068-0.348-0.32-0.534-0.454-0.236-0.169-0.493-0.269-0.69-0.474-0.243 0-0.298 0.121-0.435 0.218-0.352 0.248-0.572 0.431-0.572 1.046 0 0.212-7e-3 0.315 0.06 0.473m7.953-2.427c0.014 0.046 0.02 0.044 0.039 0.079 0.36 0.068 0.992 0.038 1.361-0.039 0.079 6e-3 0.158 0.012 0.237 0.019 0.153 4e-3 0.268-0.032 0.395-0.059 0.199-0.043 0.428 0.016 0.572-0.079 0.01-0.021-2e-3 -0.049 0-0.119-0.506-0.06-1.14-0.051-1.579-0.158-0.279-0.067-0.576-0.047-0.769-0.197-0.163 0.022-0.354 0.41-0.256 0.553m-1.895 2.289c0.098 0.096 0.166 0.233 0.277 0.316 0.082 0.062 0.164 0.106 0.236 0.177l0.217 0.237c0.063 0.047 0.137 0.069 0.197 0.118 0.092-0.096-0.135-0.687-0.217-0.829-0.027-0.047-0.103-0.073-0.138-0.118-0.173 1e-3 -0.398 0.016-0.513 0-0.013 0.02-0.027 0.04-0.039 0.06-0.017 0.02-8e-3 5e-3 -0.02 0.039m-0.355-4.184c0.187 0.301 0.091 0.94 0.177 1.283 0.034 0.132 0.033 0.315-0.019 0.414-0.084 0.159-0.21 0.112-0.396 0.178-0.218 0.078-0.371 0.236-0.512 0.395 0.014 0.497 0.688 1.135 1.026 1.342 0.067 0.041 0.168 0.035 0.236 0.079 0.954 0.012 1.095-0.476 1.264-1.244 0.036-0.166-0.109-0.229-0.059-0.414 0.093-0.343 0.218-0.763 0.355-1.086 0.073-0.172 0.191-0.327 0.236-0.533-6e-3 -0.058-0.012-0.118-0.019-0.177-0.027-0.498-0.112-0.435-0.316-0.71-0.056-0.077-0.082-0.16-0.138-0.237-0.232-0.319-0.995-0.638-1.618-0.434-0.178 0.058-0.43 0.195-0.534 0.336-0.047 0.064-0.051 0.111-0.118 0.157 0.01 0.352 0.296 0.429 0.435 0.651m-1.027 0.099c-0.168 0.068-0.505 0.078-0.671 0.059-0.045 0.039-0.091 0.079-0.137 0.119l-0.021 0.375c-0.031 0.102-0.154 0.198-0.118 0.355 0.02 0.085 0.087 0.153 0.118 0.217 0.041 0.081 0.031 0.169 0.079 0.237-0.011 0.489 0.141 0.38 0.395 0.572 0.434 1e-3 0.538-0.228 0.79-0.395 0.134-0.089 0.299-0.087 0.354-0.256 0.07-0.112-0.014-0.376-0.039-0.493v-0.396c-0.062-0.277-0.156-0.404-0.315-0.572-0.208 0.011-0.285 0.117-0.435 0.178m-2.762 0.868c0.112 0.082 0.29 0.157 0.433 0.197 0.066 0.019 0.135-6e-3 0.178 0.021 0.268-0.054 0.48-0.125 0.671-0.257 0.126-0.087 0.175-0.269 0.297-0.356 0.061-0.799-0.383-1.565-1.264-1.302-0.12 0.036-0.205 0.038-0.296 0.098-0.135 0.092-0.341 0.288-0.394 0.454-0.128 0.394 0.21 1.025 0.375 1.145m-0.849 1.105c0.168 0.411 0.848 0.721 1.164 1.046 0.235-2e-3 0.306-0.118 0.454-0.197 0.294-0.157 0.633-0.202 0.77-0.514 0.083-0.188 0.148-0.789 0.04-0.986-0.047-0.039-0.093-0.079-0.139-0.118-0.209 0.03-0.36 0.165-0.553 0.217-0.458 0.125-1.04-0.155-1.262-0.335-0.443 7e-3 -0.653 0.449-0.474 0.887m0.217-2.565c-0.04-0.307-0.777-0.612-1.203-0.474-0.249 0.08-0.335 0.284-0.474 0.474-0.093 0.126-0.249 0.201-0.375 0.296-0.066 0.05-0.095 0.144-0.158 0.197 1e-3 0.291 0.138 0.362 0.217 0.553 0.058 0.141 3e-3 0.344 0.059 0.493 0.058 0.153 0.267 0.351 0.414 0.415 0.056 0.024 0.133 0.01 0.178 0.039 0.532-0.043 0.93-0.427 1.303-0.651 0.084-0.391-0.264-0.983 0.039-1.342m3.611-1.401c-0.039-0.066-0.079-0.132-0.118-0.198-0.214-0.047-0.27 0.031-0.474 0.079-0.251 0.061-0.908-0.146-1.105-0.019-0.27 0.049-0.366 0.424-0.355 0.769 0.05 0.051 0.079 0.138 0.138 0.178 0.045 0.03 0.085 0.016 0.139 0.039 0.125 0.056 0.254 0.151 0.354 0.238 0.14 0.118 0.187 0.301 0.296 0.453 0.049 0.066 0.134 0.087 0.198 0.138 0.874 0.011 1.084-0.452 0.908-1.283 6e-3 -0.131 0.013-0.263 0.019-0.394m0.454 7.696c0.174 0.197 0.423 0.437 0.671 0.553 0.129 0.06 0.378 2e-3 0.493 0.079 0.123 0.081 0.152 0.235 0.238 0.355l0.512 0.513c0.142 0.088 0.311 0.187 0.474 0.237 0.145 0.044 0.333-0.04 0.454 0.02 0.172 0.084 0.264 0.321 0.414 0.433 0.178 0.134 0.374 0.245 0.533 0.396h0.06c0.019-0.021 0.039-0.04 0.059-0.06-6e-3 -0.246-0.096-0.426-0.158-0.612-0.06-0.183-0.058-0.335-0.119-0.532-0.027-0.09-0.094-0.203-0.118-0.296-0.062-0.237 0.293-0.38 0.217-0.731-0.053-0.247-0.216-0.704-0.335-0.908-0.07-0.119-0.178-0.248-0.217-0.394-0.042-0.153 0.064-0.287 0.078-0.414l-0.138-0.573c-0.125-0.293-0.436-0.535-0.533-0.848-0.252 4e-3 -0.192 0.193-0.276 0.355-0.114 0.22-0.261 0.311-0.453 0.453-0.055 0.041-0.073 0.128-0.119 0.178 0.027 0.37 0.255 0.69 0.395 0.968 0.045 0.089 0.043 0.165 0.078 0.256 0.097 0.244 0.213 0.378 0.06 0.612-0.373 0.071-0.45-0.204-0.652-0.355-0.173-0.131-0.304-0.307-0.473-0.435-0.132-0.099-0.267-0.193-0.375-0.315-0.052-0.059-0.082-0.124-0.138-0.178-0.118-0.113-0.265-0.196-0.355-0.335-0.04 8e-3 -0.038 5e-3 -0.06 0.019-0.141 0.059-0.111 0.282-0.178 0.414-0.08 0.165-0.313 0.418-0.354 0.553-0.044 0.142 0.249 0.518 0.315 0.592m3.71-1.559c1.442 0.168 2.826 0.72 3.513 1.638 0.192 0.258 0.477 0.475 0.593 0.81 0.085 0.247-0.024 0.602-0.079 0.789-0.061 0.201-0.087 0.446-0.198 0.611-0.201 0.302-0.697 0.324-0.987 0.139-0.012-0.054-0.03-0.092 0-0.139 7e-3 -0.02 0.014-0.039 0.02-0.059 0.148-0.029 0.349-9e-3 0.513-0.019 0.066-0.067 0.132-0.132 0.198-0.197 2e-3 -0.252-0.1-0.425-0.296-0.475-0.104-0.066-0.269 8e-3 -0.336 0.04-0.2 0.095-0.533 0.344-0.434 0.71 0.099 0.37 0.469 0.795 1.066 0.651 0.359-0.086 0.7-0.298 0.829-0.611 0.262-0.64 0.11-1.619-0.277-2.013 9e-3 -0.433 0.525-0.226 0.868-0.336 0.066-0.02 0.122-0.085 0.178-0.118-7e-3 -0.033-0.014-0.066-0.019-0.098-0.121-0.053-0.338-0.022-0.454-0.04-0.17-0.027-0.337-0.077-0.494-0.138-0.526-0.205-0.934-0.623-1.441-0.849-0.273-0.121-0.564-0.205-0.849-0.296-0.116-0.037-0.181-5e-3 -0.296-0.04-0.142-0.042-0.297-0.118-0.473-0.137-0.055-6e-3 -0.224 0.028-0.277 0.039-0.289-6e-3 -0.578-0.013-0.868-0.02zm-12.965-3.651c-0.097-0.273-0.732-0.375-1.026-0.493-0.357-0.143-1.374-0.434-1.875-0.316-0.651 0.154-1.168 0.371-1.618 0.71-0.123 0.093-0.286 0.315-0.356 0.454-0.093 0.19-0.047 0.887 0.02 1.066 0.08 0.212 0.262 0.216 0.435 0.336 0.228 2e-3 0.303-0.052 0.414-0.158-0.022-0.197-0.152-0.271-0.198-0.474-0.046-0.204 0.078-0.394 0.139-0.513 0.2-0.397 0.489-0.788 0.907-0.967 0.464-0.199 1.55-0.327 1.56 0.355-0.04 0.053-0.079 0.105-0.119 0.158-0.227 0.168-0.342 0.196-0.335 0.612 0.041 0.042 0.088 0.109 0.118 0.158h0.139c0.156-0.172 0.29-0.488 0.473-0.612 0.139-0.094 0.299-0.12 0.474-0.177 0.125-0.042 0.434-0.115 0.572-0.02 0.122 2e-3 0.225-2e-3 0.296-0.04-5e-3 -0.046-4e-3 -0.056-0.02-0.079m18.728 1.322c-0.253 0.189-0.512 0.383-0.829 0.514-0.226 0.093-0.56 0.101-0.77 0.217-0.124 0.068-0.135 0.202-0.216 0.315-0.179 0.25-0.512 0.425-0.83 0.533-0.166 0.057-0.341 0.081-0.493 0.119-0.253 0.063-0.521-0.049-0.69 0.079-0.056 0.03-0.041 0.05-0.04 0.079 4e-3 0.051 9e-3 0.066 0.019 0.098 0.406 0.156 0.894 0.201 1.244 0.414 0.396 0.243 0.775 0.603 1.223 0.77 0.271 0.102 0.794-0.022 1.046 0.079 0.086 0.035 0.143 0.13 0.218 0.178 0.033 0.413-0.133 0.718-0.454 0.829-0.13 0.044-0.302 2e-3 -0.395 0.079-0.061 0.023-0.062 0.032-0.079 0.099 0 0 0.094 0.328 0.118 0.414 0.073 0.253 0.106 0.632 0.04 0.927v0.277c-0.124 0.454-0.478 0.937-0.888 1.104-0.112 0.046-0.249 0.073-0.355 0.099-0.119 0.03-0.279-0.01-0.375 0.02-0.113-0.071-0.287-0.05-0.415-0.098-0.39-0.149-0.666-0.552-0.75-1.007-0.012-0.065 0.026-0.168 0.04-0.217 0.118-0.429 0.331-0.722 0.75-0.848 0.21-0.064 0.612-0.025 0.71 0.098 0.125-6e-3 0.117-0.039 0.178-0.098-0.022-0.291-0.206-0.451-0.336-0.632-0.585-0.818-1.238-1.079-2.249-1.46-0.152-0.058-0.334-0.128-0.494-0.178-0.124-0.02-0.249-0.04-0.374-0.06-0.086-0.023-0.255-0.109-0.336-0.058-0.096 0.037-0.126 0.138-0.079 0.256 0.081 0.203 0.247 0.398 0.315 0.612v0.138c0.052 0.156 0.248 0.522 0.198 0.75-0.034 0.153-0.19 0.527-0.158 0.671 0.127 0.564 0.45 1.115 0.395 1.795-0.135 0.126-0.261 0.198-0.494 0.08-0.075-0.038-0.131-0.131-0.197-0.178-0.196-0.142-0.394-0.257-0.592-0.395-0.059-0.065-0.119-0.132-0.177-0.197-0.069-0.053-0.143-0.144-0.218-0.178-0.255-0.114-0.549-0.07-0.77-0.216-0.182-0.123-0.563-0.405-0.69-0.573-0.088-0.117-0.174-0.296-0.296-0.375-0.147-0.095-0.389-0.065-0.533-0.158-0.432-0.278-0.725-0.675-0.987-1.125-0.171-0.042-0.391-0.02-0.572 0.02-0.118-6e-3 -0.237-0.013-0.355-0.02h-0.296c-0.228-0.057-0.849-0.342-1.085-0.276-0.263 0.073-0.519 0.244-0.81 0.316h-0.355c-0.598 0.024-0.987-0.196-1.322-0.553-0.069 5e-3 -0.083 7e-3 -0.119 0.039-0.134 0.058-0.286 0.456-0.375 0.592-0.185 0.283-0.851 0.937-1.183 1.046-0.162 0.054-0.325 2e-3 -0.494 0-0.313 0.324-0.746 0.787-1.203 0.947-0.159 0.057-0.312 0.096-0.455 0.139-0.222 0.067-0.363-0.115-0.591 0.039-0.156 0.106-0.277 0.289-0.435 0.395-0.334 0.225-1.102 0.624-1.638 0.612-0.045-0.033-0.091-0.065-0.138-0.099-0.081-0.424 0.148-0.858 0.276-1.204 0.07-0.189 0.093-0.417 0.218-0.553-0.05-0.161-0.195-0.228-0.237-0.375-0.052-0.177 0.028-0.405 0.059-0.512 0.035-0.121 0.018-0.207 0.059-0.316 0.038-0.097 0.127-0.192 0.177-0.276 0.087-0.143 0.124-0.301 0.217-0.435 0.084-0.119 0.264-0.236 0.317-0.375 0.058-0.154-0.044-0.306 0-0.493 0.023-0.103 0.042-0.215 0.079-0.336 0.113-0.377 0.351-0.634 0.611-0.868 0.377-0.338 0.718-0.761 1.421-0.769l0.139 0.138c0.081-0.015 0.1-0.045 0.157-0.079 9e-3 -0.183 0.021-0.401 0.019-0.612-0.298-0.313-0.306-0.362-0.789-0.513-0.15-0.047-0.365-0.104-0.572-0.059-0.167 0.036-0.312 4e-3 -0.433 0.079-0.18 0.112-0.234 0.302-0.356 0.473-0.099 0.138-0.265 0.17-0.394 0.277-0.495-1e-3 -0.757-0.479-0.573-0.967 0.039-0.106 0.15-0.18 0.198-0.276 0.015-0.021 6e-3 -5e-3 0.019-0.04-0.023-0.022-0.043-0.05-0.06-0.079-0.582-0.133-1.155 0.231-1.38 0.592-0.086 0.137-0.101 0.323-0.198 0.454 0.033 0.201 0.181 0.257 0.237 0.414 0.075 0.118-0.028 0.246-0.06 0.317-0.114 0.25-0.425 0.538-0.868 0.433-0.417-0.098-0.672-0.336-0.809-0.71-0.013-0.119-0.026-0.237-0.04-0.355-0.027-0.116-0.062-0.278-0.039-0.395 0.219-1.108 0.957-1.482 1.974-1.796 0.242-0.075 0.966-0.186 1.282-0.098 0.505 0.14 1.094 0.217 1.56 0.414 0.142 0.06 0.278 0.155 0.433 0.217 0.04-0.033 0.079-0.066 0.119-0.099 6e-3 -0.072 0.013-0.144 0.02-0.217 0.03-0.105 0.131-0.287 0.118-0.375-0.024-0.068-0.063-0.085-0.099-0.137-0.513-0.026-1.251-0.377-1.48-0.692-0.077-0.106-0.11-0.277-0.217-0.354-0.191-0.14-0.486-0.179-0.71-0.277-0.283-0.124-0.715-0.401-0.947-0.592-0.135-0.11-0.343-0.31-0.415-0.474-0.088-0.2-0.103-0.387-0.217-0.552-0.158-0.158-0.315-0.316-0.473-0.473-0.341-0.341-0.654-0.676-0.928-1.086-0.119-0.179-0.293-0.339-0.296-0.631l0.158-0.158c0.12 0.012 0.188 0.071 0.276 0.098h0.256c0.501 0.133 1.116 0.191 1.599 0.335 0.235 0.071 0.53 0.054 0.69 0.198 0.236-8e-3 0.275-0.145 0.415-0.237 0.154-0.101 0.38-0.093 0.592-0.138 0.185-0.04 0.469 0.041 0.613 0.078 0.354 0.093 0.653 0.144 0.966 0.277 0.175 0.074 0.345 0.223 0.533 0.276 0.149 0.042 0.491-0.136 0.691-0.158 0.464-0.049 1.043 0.236 1.361 0.375 0.127 0.056 0.278 0.073 0.375 0.158 0.272-0.04 0.414-0.278 0.652-0.375 0.445-0.181 1.156-0.195 1.539 0.06 0.235 0.157 0.394 0.415 0.591 0.611 0.218-0.032 0.333-0.217 0.494-0.315 0.455-0.278 1.206-0.575 1.934-0.336 0.243 0.08 0.549 0.247 0.691 0.434 0.118 0.157 0.22 0.313 0.415 0.395 0.132-0.144 0.166-0.268 0.275-0.434 0.191-0.288 0.521-0.583 0.829-0.75 0.247-0.134 0.789-0.047 0.987-0.237 0.308-0.297 0.759-0.873 1.421-0.731 0.2 0.044 0.327 0.035 0.454 0.139 0.269-0.017 0.368-0.214 0.552-0.315 0.54-0.299 1.76-0.808 2.487-0.317-5e-3 0.182-0.083 0.239-0.119 0.375-0.012 0.132-0.026 0.264-0.039 0.395-0.143 0.334-0.322 0.743-0.513 1.046-0.116 0.183-0.277 0.353-0.395 0.533-0.085 0.129-0.083 0.266-0.138 0.435-0.081 0.246-0.201 0.551-0.335 0.769-0.13 0.209-0.311 0.45-0.494 0.611-0.087 0.078-0.194 0.117-0.256 0.217-0.063 0.103-0.033 0.253-0.08 0.375-0.064 0.171-0.228 0.437-0.335 0.593-0.114 0.167-0.412 0.391-0.473 0.572-7e-3 6e-3 -0.014 0.013-0.02 0.02h0.02c4e-3 0.051 9e-3 0.067 0.019 0.098 0.238-3e-3 0.432-0.051 0.632-0.098 0.108-0.026 0.279 9e-3 0.355 0.019 0.046 7e-3 0.18-0.023 0.276 0 0.405 0.099 0.652 0.291 0.849 0.592 0.151 0.017 0.345-0.054 0.513-0.019 0.122 0.025 0.327-0.013 0.474 0.019 0.389 0.087 0.81 0.117 1.085 0.316 0.13 0.094 0.29 0.301 0.355 0.454 0.052 0.122 6e-3 0.261 0.099 0.336 0.063 0.05 0.148 0.03 0.236 0.059 0.163 0.053 0.334 0.124 0.495 0.197 0.144 0.067 0.462 0.291 0.551 0.414 0.034 0.047 0.041 0.099 0.079 0.139-1e-3 0.264-0.164 0.341-0.315 0.453" fill="#231f20" fill-rule="evenodd"/></g></g></g></svg>
