<?xml version="1.0" encoding="UTF-8"?>
<svg version="1.1" viewBox="0 0 128 128" xml:space="preserve" xmlns="http://www.w3.org/2000/svg" xmlns:cc="http://creativecommons.org/ns#" xmlns:dc="http://purl.org/dc/elements/1.1/" xmlns:rdf="http://www.w3.org/1999/02/22-rdf-syntax-ns#"><metadata><rdf:RDF><cc:Work rdf:about=""><dc:format>image/svg+xml</dc:format><dc:type rdf:resource="http://purl.org/dc/dcmitype/StillImage"/><dc:title/></cc:Work></rdf:RDF></metadata><g transform="translate(-8.2085 -9.9068)"><g transform="matrix(2.6608 0 0 -2.6608 -368.09 184.11)"><g transform="translate(177.75 25.712)"><path d="m0 0c-0.107 0.058-0.22 0.092-0.322 0.123-0.107 0.032-0.207 0.063-0.281 0.113-0.035 0.027-0.083 0.082-0.127 0.136-0.069 0.08-0.146 0.172-0.243 0.232-0.256 0.16-0.486 0.317-0.73 0.484-0.148 0.099-0.297 0.202-0.453 0.306-0.037 0.024-0.088 0.091-0.132 0.151-0.062 0.08-0.13 0.172-0.219 0.237l-0.04 0.03-0.184 0.037c-0.043 0.035-0.092 0.092-0.14 0.149-0.064 0.076-0.129 0.155-0.211 0.216l-0.04 0.03-0.19 0.038c-0.087 0.057-0.169 0.136-0.256 0.218-0.095 0.09-0.199 0.189-0.323 0.272v0.207h-0.258c-0.163 0.182-0.47 0.41-0.821 0.663-0.064 0.047-0.121 0.087-0.163 0.119-0.167 0.126-0.323 0.262-0.489 0.406-0.167 0.145-0.339 0.296-0.524 0.436l-0.174 0.26-0.217 0.044c-0.025 0.027-0.056 0.067-0.083 0.104-0.044 0.058-0.094 0.125-0.155 0.178-0.097 0.086-0.204 0.147-0.3 0.2-0.076 0.043-0.149 0.083-0.206 0.131-0.014 0.049-0.044 0.136-0.133 0.194-0.058 0.037-0.106 0.06-0.145 0.079-0.051 0.025-0.072 0.035-0.101 0.066l-0.101 0.108-0.166-0.06c-0.029-9e-3 -0.053-0.019-0.082-0.041-0.216-0.09-0.364-0.296-0.496-0.479-0.058-0.081-0.113-0.158-0.162-0.206-0.033-0.035-0.093-0.075-0.149-0.115-0.111-0.076-0.236-0.163-0.314-0.284-0.194-0.305-0.398-0.556-0.608-0.746-0.063-0.056-0.138-0.103-0.218-0.153s-0.168-0.105-0.251-0.176c-0.637 0.078-1.039 0.397-1.463 0.734l-4e-3 3e-3c-0.012 0.055-0.031 0.142-0.106 0.207l-0.045 0.039-0.163 0.033c-0.012 0.017-0.026 0.039-0.037 0.058-0.039 0.062-0.082 0.131-0.146 0.19-0.072 0.066-0.155 0.093-0.222 0.116-0.013 5e-3 -0.032 0.011-0.045 0.017 0 1e-3 -1e-3 2e-3 -1e-3 4e-3 -0.017 0.062-0.047 0.175-0.161 0.247l-0.035 0.023-0.177 0.035c-0.127 0.09-0.248 0.229-0.365 0.362-0.068 0.079-0.138 0.16-0.212 0.233l-0.019 0.02-0.174 0.104c-0.175 0.194-1.02 1.084-1.356 1.16l-0.349 0.08 0.179-0.774c-0.178-1.058-0.697-2.18-1.109-2.782-0.057-0.083-0.108-0.178-0.159-0.27-0.137-0.251-0.247-0.433-0.403-0.502-0.102 0.167-0.224 0.321-0.342 0.473-0.143 0.179-0.276 0.349-0.365 0.526-0.046 0.09-0.092 0.171-0.136 0.25-0.047 0.081-0.091 0.159-0.128 0.238v0.256l-0.108 0.036v0.064l-0.019 0.043c-0.286 0.668-0.261 1.363-0.233 2.098l8e-3 0.234h-0.531v-0.194c-0.35-0.548-0.445-1.247-0.536-1.922-0.048-0.36-0.094-0.699-0.176-1.002l-0.01-0.04 0.037-0.4c-0.11-0.487-0.234-0.746-0.58-0.821-0.046 0.025-0.09 0.039-0.141 0.047-0.482 0.824-0.206 1.901 7e-3 2.481l0.021 0.06-0.037 0.19c0.026 0.087 0.078 0.234 0.113 0.302 0.057 0.11 0.179 0.273 0.298 0.432 0.205 0.273 0.399 0.531 0.442 0.741l0.055 0.27h-0.433l-0.064-0.056c-0.087-0.079-0.235-0.124-0.392-0.172-0.075-0.024-0.151-0.047-0.222-0.074-0.066-0.026-0.135-0.052-0.205-0.08-0.429-0.168-0.915-0.357-1.368-0.357-0.076 0-0.151 6e-3 -0.22 0.017-0.044 6e-3 -0.092 9e-3 -0.144 9e-3 -0.094 0-0.191-0.01-0.285-0.02-0.087-0.01-0.168-0.019-0.239-0.019-0.035 0-0.061 2e-3 -0.081 6e-3 -4e-3 0.054-2e-3 0.131 0 0.185 0.103 0.149 0.137 0.348 0.166 0.528 0.019 0.11 0.038 0.225 0.068 0.29 0.326 0.708 0.839 1.699 1.536 2.135l0.105 0.066v0.391l-0.23-5e-3c-0.565 0-1.591 0.597-1.737 1.067 9e-3 0.02 0.017 0.04 0.024 0.06 0.25 0.122 0.479 0.272 0.703 0.419 0.186 0.123 0.362 0.238 0.544 0.334 0.088 0.046 0.192 0.07 0.302 0.096 0.208 0.048 0.465 0.109 0.587 0.366l0.154 0.322h-0.469c-0.104 0.06-0.226 0.089-0.371 0.089-0.102 0-0.204-0.014-0.305-0.027-0.095-0.013-0.193-0.027-0.286-0.027-0.39 0-0.949-0.206-1.232-0.45-0.075-0.064-0.134-0.137-0.192-0.206-0.084-0.101-0.156-0.188-0.247-0.223-0.076-0.029-0.113-0.034-0.141-0.034-0.024 0-0.046 3e-3 -0.072 6e-3 -0.032 3e-3 -0.067 6e-3 -0.108 8e-3 -0.029 0.031-0.058 0.058-0.084 0.084-0.124 0.121-0.184 0.179-0.188 0.416 8e-3 0.036 0.012 0.074 0.017 0.116 6e-3 0.058 0.015 0.138 0.034 0.181 5e-3 9e-3 7e-3 0.011 0.029 0.034 0.046 0.042 0.094 0.094 0.13 0.178 0.106 0.053 0.183 0.131 0.248 0.198 0.041 0.042 0.08 0.082 0.115 0.101 0.156 0.092 0.49 0.159 0.794 0.159 0.182 0 0.341-0.024 0.45-0.066l0.306-0.12v0.627h-0.128c-0.093 0.131-0.224 0.221-0.335 0.298-0.081 0.055-0.156 0.107-0.199 0.159-0.038 0.046-0.057 0.105-0.083 0.178-0.026 0.079-0.056 0.17-0.116 0.265-0.051 0.083-0.119 0.162-0.185 0.237s-0.134 0.152-0.165 0.214c-0.267 0.541-0.412 1.324-0.016 1.895 0.049 0.071 0.084 0.141 0.115 0.202 0.079 0.156 0.103 0.194 0.228 0.206l0.067 8e-3 0.053 0.044c0.022 0.018 0.103 0.053 0.256 0.053 0.303 0 0.655-0.143 0.672-0.332l5e-3 -0.06 0.034-0.049c0.187-0.269-0.09-0.723-0.223-0.942-0.019-0.03-0.066-0.059-0.122-0.092-0.108-0.063-0.254-0.151-0.328-0.34l-0.045-0.116 0.074-0.099c4e-3 -0.01 0.012-0.055 0.017-0.085 0.011-0.074 0.027-0.166 0.077-0.253 0.043-0.076 0.097-0.138 0.15-0.2 0.041-0.048 0.081-0.095 0.108-0.138v-0.157l0.037-0.056c0.355-0.545 1.223-1.453 1.959-1.677l0.29-0.088v0.512l-0.075 0.067c-0.015 0.013-0.019 0.02-0.019 0.02-1e-3 4e-3 -3e-3 0.013-6e-3 0.021-0.011 0.04-0.027 0.101-0.07 0.184l-0.024 0.045-0.094 0.071v0.152l-0.021 0.045c-0.309 0.677-0.694 1.697-0.453 2.736 0.029 0.129 0.035 0.241 0.041 0.34 4e-3 0.093 8e-3 0.171 0.031 0.247l0.089 0.058 0.036 0.059c0.053 0.102 0.082 0.2 0.108 0.287 0.023 0.079 0.043 0.144 0.075 0.2l0.157 0.117 0.025 0.053c0.08 0.174 0.077 0.367 0.075 0.553-1e-3 0.107-3e-3 0.209 0.012 0.29 0.079 0.406 0.053 0.835 0.027 1.289-9e-3 0.137-0.017 0.276-0.023 0.418l-8e-3 0.229-0.229-0.013c-0.604-0.034-1.208-0.283-1.793-0.523-0.609-0.25-1.239-0.509-1.84-0.509-0.202 0-0.388 0.029-0.57 0.085l-0.033 0.011h-0.359c-0.342 0.123-0.541 0.539-0.608 0.864-0.084 0.412 0.145 0.954 0.286 1.002l0.029 0.011 0.017 0.012 0.183 0.035 0.029 0.165c0.097 0.073 0.26 0.106 0.514 0.106 0.112 0 0.231-5e-3 0.357-0.012 0.054-0.041 0.109-0.068 0.157-0.09 0.035-0.017 0.065-0.031 0.085-0.047 0.081-0.062 0.107-0.139 0.149-0.278 0.018-0.064 0.04-0.135 0.071-0.209l0.058-0.137h0.37l0.058 0.138c0.035 0.084 0.176 0.137 0.324 0.194 0.187 0.072 0.398 0.153 0.52 0.344 0.226 0.321 0.192 0.968 0.142 1.215l-0.023 0.107-0.098 0.049c-0.138 0.068-0.284 0.133-0.438 0.202-0.313 0.139-0.636 0.282-0.875 0.454l-0.035 0.107-0.055 0.042c-0.161 0.124-0.327 0.221-0.487 0.316-0.105 0.062-0.204 0.121-0.303 0.187-0.01 0.012-0.018 0.027-0.026 0.041-0.043 0.067-0.101 0.16-0.204 0.204l-0.056 0.024-0.294-0.037c-0.175 0.088-0.58 0.504-0.595 0.647l-6e-3 0.062-0.037 0.059c-0.011 0.015-0.012 0.016 2e-3 0.101l0.033 0.195-0.17 0.068c-0.103 0.04-0.161 0.135-0.246 0.285-0.056 0.099-0.121 0.212-0.213 0.309l-0.045 0.046-0.142 0.036c-0.309 0.37-0.741 1.558-0.759 2.109l-8e-3 0.246-0.245-0.029c-0.057-8e-3 -0.117-0.012-0.175-0.012-0.551 0-0.993 0.318-1.115 0.797l0.071 0.316-6e-3 0.042c-0.022 0.132-0.077 0.225-0.122 0.3-0.045 0.074-0.061 0.103-0.057 0.149l0.021 0.247-0.276-2e-3 -0.029 0.149-0.169 0.03c-0.101 0.118-0.146 0.341-0.096 0.501l0.02 0.063-0.018 0.062c-0.059 0.221-0.033 0.401 0.081 0.55 0.173 0.226 0.551 0.375 0.975 0.39 0.085-0.074 0.18-0.115 0.262-0.151 0.056-0.023 0.105-0.045 0.141-0.071 5e-3 -0.012 9e-3 -0.024 0.014-0.038 0.025-0.07 0.065-0.177 0.168-0.243 0.137-0.089 0.292-0.101 0.416-0.11 0.049-3e-3 0.097-6e-3 0.137-0.014l0.036-0.107 0.093-0.04c0.051-0.021 0.11-0.032 0.178-0.032 0.125 0 0.267 0.038 0.371 0.067 0.027 6e-3 0.051 0.013 0.07 0.018 0.531-0.108 0.935-0.616 1.009-1.274l0.023-0.2 0.2-1e-3c0.602-2e-3 1.444-0.701 1.688-0.916 0.072-0.061 0.139-0.097 0.194-0.126 0.082-0.043 0.082-0.043 0.094-0.106l0.034-0.183h0.237c0.16-0.249 0.394-0.436 0.621-0.618 0.273-0.219 0.53-0.426 0.673-0.729 0.018-0.036 0.01-0.088-6e-3 -0.176-0.023-0.132-0.056-0.313 0.045-0.514 0.037-0.073 0.1-0.144 0.161-0.214 0.021-0.024 0.047-0.053 0.067-0.078v-0.147l0.043-0.059c0.046-0.065 0.113-0.093 0.161-0.107 0.025-0.055 0.041-0.109 0.059-0.17 0.029-0.092 0.06-0.196 0.126-0.314l0.023-0.041 0.149-0.112c0.065-0.103 0.159-0.284 0.267-0.507v-0.202l0.042-0.058c0.252-0.35 1.446-0.487 1.728-0.49l0.173-2e-3 0.047 0.167c0.023 0.086 0.074 0.155 0.139 0.241 0.08 0.107 0.171 0.228 0.22 0.406l0.083 0.295s-0.31-9e-3 -0.313-9e-3c-0.053 0-0.069 4e-3 -0.127 0.086-0.181 0.221-0.151 0.465-0.086 0.845 0.017 0.101 0.034 0.206 0.046 0.313 0.051 0.046 0.096 0.097 0.14 0.146 0.046 0.05 0.096 0.106 0.14 0.14h0.161l0.042 0.018c0.045 0.018 0.083 0.049 0.132 0.087 5e-3 4e-3 0.012 8e-3 0.018 0.013 0.033-0.01 0.072-0.019 0.116-0.019 0.046 0 0.091 9e-3 0.134 0.027l0.134 0.06v0.024c0.141-0.022 0.303-0.123 0.386-0.192 0.066-0.057 0.136-0.081 0.187-0.099 0.01-3e-3 0.02-6e-3 0.03-0.01 0.152-0.261 0.348-1.043 0.218-1.452-0.139-0.44-0.365-0.902-0.584-1.349-0.104-0.211-0.21-0.429-0.307-0.642l-0.032-0.071 0.042-0.165c-0.035-0.13-0.105-0.327-0.157-0.456l-0.092-0.228 0.234-0.072c0.045-0.014 0.113-0.052 0.172-0.085 0.055-0.031 0.111-0.064 0.167-0.087l0.028-0.012 0.179-0.022 0.02-0.059 0.079-0.042c0.044-0.024 0.094-0.036 0.148-0.036 0.032 0 0.07 5e-3 0.11 0.013 0.018 3e-3 0.039 8e-3 0.06 8e-3 0.443-0.139 1.002-0.244 1.711-0.32 0.078-0.196 0.179-0.357 0.283-0.526 0.028-0.044 0.056-0.089 0.085-0.137l0.101-0.167 0.179 0.076c0.086 0.037 0.179 0.055 0.283 0.055 0.179 0 0.379-0.054 0.591-0.109 0.237-0.064 0.505-0.136 0.796-0.144l0.231-6e-3v0.389l-0.057 0.064c-0.094 0.137-0.235 1.155-0.094 1.662 0.06 0.221 0.125 0.44 0.19 0.659 0.16 0.539 0.326 1.095 0.426 1.667 0.014 0.084-9e-3 0.163-0.034 0.248-6e-3 0.02-0.013 0.043-0.019 0.064 6e-3 6e-3 0.011 0.013 0.017 0.019 1.06-0.221 1.634-1.292 2.018-2.215l0.058-0.139h0.367l0.12 0.54-6e-3 0.04c-0.013 0.099-0.041 0.209-0.07 0.326-0.073 0.299-0.165 0.67-0.051 0.966 0.02 0.051 0.088 0.103 0.16 0.157 0.036 0.028 0.075 0.057 0.113 0.09 0.048-6e-3 0.087-0.015 0.134-0.027 0.053-0.014 0.108-0.027 0.178-0.037l0.15-0.023 0.078 0.131c5e-3 0.01 0.507 1.06 0.117 1.341l-0.172 0.123-0.134-0.163c-0.018-0.023-0.06-0.054-0.205-0.054-0.078 0-0.166 8e-3 -0.259 0.018l-0.179 0.017-0.01-6e-3c-0.03 0.02-0.082 0.061-0.162 0.145-0.325 0.341-0.417 0.616-0.311 0.923 0.128 0.364 0.446 0.685 0.793 0.796 7e-3 2e-3 0.023 5e-3 0.052 5e-3 0.026 0 0.054-2e-3 0.08-4e-3 0.035-2e-3 0.07-4e-3 0.103-4e-3 0.046 0 0.11 3e-3 0.174 0.026 0.738-0.031 1.224-0.628 1.436-1.185 0.027-0.071 0.029-0.132 0.031-0.216 2e-3 -0.079 5e-3 -0.177 0.031-0.294l0.013-0.056c0.049-0.21 0.091-0.391 0.026-0.626-0.149-0.54-0.381-0.979-0.628-1.444-0.087-0.164-0.174-0.328-0.256-0.497l-0.161-0.324h0.604l0.067 0.072c0.072 0.077 0.204 0.101 0.358 0.129 0.123 0.022 0.263 0.047 0.396 0.106l0.038 0.017 0.141 0.141c0.136 0.05 0.272 0.085 0.415 0.12 0.193 0.048 0.394 0.096 0.598 0.192 0.095 0.045 0.173 0.102 0.247 0.156 0.074 0.056 0.14 0.105 0.216 0.133 0.011-3e-3 0.022-6e-3 0.034-8e-3 1e-3 -1e-3 1e-3 -2e-3 1e-3 -3e-3 0 0 2e-3 -3e-3 4e-3 -0.016-0.065-0.125-0.087-0.295-0.113-0.485-0.014-0.11-0.03-0.224-0.052-0.303-0.033-0.114-0.06-0.248-0.09-0.392-0.061-0.297-0.13-0.633-0.258-0.907-0.034-0.073-0.095-0.148-0.158-0.228-0.108-0.132-0.23-0.284-0.286-0.491l-0.08-0.288 0.298 3e-3c0.726 0 1.841-0.545 2.332-0.833 0.046-0.026 0.094-0.084 0.145-0.145 0.096-0.112 0.214-0.252 0.411-0.309l0.121-0.035 0.093 0.086c0.075 0.069 0.185 0.103 0.329 0.103 0.407 0 0.945-0.273 1.189-0.445l0.058-0.042h0.158c0.081-0.047 0.163-0.109 0.248-0.173 0.084-0.063 0.171-0.129 0.267-0.188 0.373-0.233 0.766-1.017 0.946-1.636 0.012-0.039 7e-3 -0.079-2e-3 -0.142-0.01-0.068-0.022-0.153 0-0.245l0.014-0.057c0.033-0.131 0.103-0.406 0.09-0.509-0.031-0.241-0.131-0.784-0.2-0.949-8e-3 -0.018-0.016-0.028-0.034-0.051-0.063-0.082-0.121-0.174-0.128-0.388l-8e-3 -0.213 0.212-0.019c0.066-6e-3 0.14-0.01 0.217-0.013 0.16-7e-3 0.325-0.014 0.464-0.053 0.061-0.016 0.138-0.049 0.221-0.084 0.167-0.071 0.341-0.144 0.506-0.144h7e-3c9e-3 -7e-3 0.02-0.016 0.034-0.027 0.034-0.026 0.076-0.059 0.132-0.088l1e-3 -5e-3c-0.083-0.094-0.138-0.199-0.188-0.295-0.029-0.057-0.057-0.112-0.089-0.159l-0.181-0.108-0.028-0.039c-0.05-0.073-0.047-0.148-0.036-0.195-0.296-0.405-1.058-0.999-1.527-1.12l-0.169-0.044v-0.451l0.203-0.019c0.019-2e-3 0.026-4e-3 0.026-4e-3 0.02-0.016 0.051-0.038 0.098-0.056l0.045-0.016 0.541 0.036c0.042-0.019 0.097-0.039 0.169-0.039 0.032 0 0.066 5e-3 0.1 0.012 0.169 0.045 0.338 0.151 0.516 0.262 0.234 0.146 0.474 0.296 0.694 0.296 0.091 0 0.232-0.021 0.405-0.205 0.052-0.057 0.105-0.084 0.144-0.1l4e-3 -6e-3 0.034-0.041c0.108-0.111 0.077-0.288-0.104-0.592-0.188-0.319-0.445-0.454-0.862-0.454-0.217 0-0.451 0.034-0.697 0.071-0.149 0.021-0.303 0.045-0.458 0.059l-0.246 0.025v-0.435l0.092-0.067c0.13-0.098 0.536-0.844 0.644-1.198-1e-3 -2e-3 -2e-3 -3e-3 -3e-3 -4e-3h-5e-3c-0.049 0-0.097-0.014-0.144-0.039-0.129-0.072-0.246-0.165-0.359-0.256-0.121-0.097-0.237-0.189-0.349-0.241-0.309-0.148-0.949-0.246-1.592-0.246-0.407 0-0.763 0.041-0.976 0.112-0.092 0.03-0.191 0.075-0.296 0.123-0.192 0.087-0.389 0.177-0.606 0.209l-0.307 0.046 0.053-0.307c6e-3 -0.039 1e-3 -0.049-0.035-0.114-0.021-0.039-0.044-0.079-0.061-0.125-0.158-0.402-0.016-1.563 0.362-1.847 0.122-0.091 0.248-0.091 0.309-0.091h0.052c0.039 0 0.065-2e-3 0.092-0.011 0.048-0.018 0.138-0.066 0.226-0.112 0.019-0.01 0.039-0.02 0.058-0.031v-0.195h0.476l0.062 0.129c0.119 0.252 0.373 0.29 0.514 0.29 0.279 0 0.549-0.139 0.673-0.346 0.097-0.161 0.111-0.346 0.044-0.549-0.122-0.364-0.491-0.709-0.764-0.818-0.094-0.038-0.194-0.058-0.303-0.058-0.225 0-0.461 0.08-0.682 0.166l-0.076 0.031-0.111-0.038c-0.615 0.239-0.839 0.589-1.203 1.157l-0.042 0.065c-0.121 0.187-0.324 0.5-0.298 0.749 0.021 0.206 0.057 0.431 0.096 0.669 0.015 0.095 0.03 0.192 0.046 0.292l0.04 0.259h-0.46l-0.065-0.107c-0.064-0.103-0.177-0.233-0.295-0.372-0.251-0.29-0.511-0.591-0.564-0.895l-0.021-0.126 0.097-0.084c0.157-0.134 0.514-0.61 0.536-0.761l0.022-0.161 0.177-0.031c0.064-0.072 0.113-0.158 0.17-0.257 0.041-0.072 0.083-0.147 0.136-0.223 0.121-0.176 0.264-0.342 0.403-0.504 0.149-0.174 0.291-0.338 0.406-0.511l0.113-0.342 0.034-0.035c0.062-0.069 0.141-0.089 0.194-0.099 0.024-0.043 0.042-0.092 0.061-0.148 0.027-0.076 0.057-0.162 0.112-0.255l0.019-0.033 0.218-0.186 0.032-0.19 0.033-0.043c0.049-0.067 0.119-0.093 0.166-0.108 0.056-0.087 0.115-0.171 0.172-0.254 0.081-0.117 0.159-0.227 0.224-0.339 0.04-0.067 0.074-0.153 0.109-0.244 0.052-0.132 0.106-0.267 0.191-0.385 0.053-0.073 0.119-0.132 0.183-0.191 0.05-0.046 0.102-0.093 0.133-0.135v-0.187l0.04-0.058c0.047-0.068 0.117-0.117 0.177-0.159 0.026-0.019 0.065-0.046 0.077-0.059 0.2-0.299 0.377-0.593 0.564-0.904 0.119-0.197 0.238-0.395 0.365-0.599l0.034-0.052 0.151-0.076c0.11-0.151 0.225-0.34 0.27-0.561" fill="#eccea0" fill-rule="evenodd"/></g><g transform="translate(159.6 44.269)"><path d="m0 0v0.18c0.044-0.053 0.08-0.152 0.107-0.216-0.035 0.012-0.071 0.024-0.107 0.036m4.788 0.468c-0.451 0.741-0.832 1.496-1.296 2.196-0.154 0.232-0.279 0.601-0.505 0.756-0.254 0.175-0.547 0.25-0.827 0.395-0.104 0.055-0.25 0.182-0.36 0.216-0.346 0.11-0.507-0.156-0.828 0-0.188 0.092-0.135 0.241-0.468 0.252-0.059-0.051-0.151-0.104-0.216-0.143-0.072-0.309-0.106-1.494 0.071-1.764-0.033-0.096-0.035-0.094-0.107-0.145-0.228-0.116-1.243 0.134-1.44 0.289-0.265-5e-3 -0.316-0.082-0.468-0.18-0.121-0.599-0.243-1.178-0.18-1.872 0.026-0.294-0.068-0.718 0.072-0.901 0.094-0.134 0.258-0.103 0.36-0.215 0.167-0.184 0.235-0.46 0.432-0.612 0.935-0.721 1.916-1.395 2.772-2.196 0.624 8e-3 0.9 0.371 1.296 0.612 0.311 0.132 0.624 0.264 0.935 0.396 0.398 0.246 0.718 0.674 1.116 0.9 0.126 0.071 0.163-0.047 0.325 0 0.145 0.042 0.216 0.174 0.324 0.252-6e-3 0.574-0.386 0.697-0.612 1.044-0.152 0.231-0.261 0.498-0.396 0.72" fill="#c6b6a1" fill-rule="evenodd"/></g><g transform="translate(171.73 33.83)"><path d="m0 0c-0.077-0.067-0.244-0.123-0.287-0.216v-0.288c-0.025-0.054-0.167-0.194-0.217-0.252-0.108-0.128-0.295-0.222-0.432-0.324-0.288-0.218-0.522-0.515-0.755-0.792 2e-3 -0.173 2e-3 -0.322 0.072-0.432 0.141-0.221 0.472-0.381 0.683-0.54 0.187-0.14 0.338-0.379 0.54-0.504 0.115-0.071 0.301 7e-3 0.432-0.072 0.013-0.036 0.025-0.072 0.036-0.108 0.077-0.055 0.215-0.043 0.288-0.108 0.085-0.075 0.077-0.266 0.145-0.36 0.045-0.063 0.159-0.09 0.216-0.144 0.336 3e-3 0.348 0.12 0.504 0.287-0.011 0.406-0.343 1.191-0.54 1.441 0.044 0.081 0.061 0.072 0.143 0.108 0.161-0.23 0.813-0.324 1.08-0.54 0.162 0.026 0.183 0.076 0.288 0.144-0.01 0.391-0.204 0.522-0.36 0.756-0.353 0.529-1.109 1.885-1.836 1.944" fill="#c6b6a1" fill-rule="evenodd"/></g><g transform="translate(149.19 55.752)"><path d="m0 0c0.059-0.187 0.244-0.509 0.396-0.612 0.089-0.062 0.179-0.017 0.288-0.072 0.137-0.071 0.401-0.262 0.612-0.072 0.115-0.082 0.037-0.311 0.143-0.396 0.244-0.193 0.694-0.092 0.972-0.252 0.55-0.315 1.04-0.813 1.584-1.117 0.104 0.116 0.367 0.257 0.504 0.325 0.013 0.084 0.024 0.168 0.036 0.252-0.275 0.324-0.552 0.648-0.827 0.972-0.013 0.156-0.024 0.312-0.036 0.468-0.099 0.35-0.259 0.701-0.397 1.008-0.134 0.056-0.206 0.066-0.36 0.036 0.086 0.186 0.112 0.672-0.035 0.828-0.07 0.177-0.177 0.121-0.324 0.216-0.495 0.317-0.889 0.604-1.764 0.576-0.088-0.079-0.221-0.075-0.324-0.144-0.037-0.025-0.47-0.493-0.504-0.54-0.113-0.157-0.134-0.386-0.252-0.54-2e-3 -0.449 0.157-0.271 0.288-0.468 0.021-0.031-0.033-0.365 0-0.468" fill="#ffa500" fill-rule="evenodd"/></g><g transform="translate(167.91 49.489)"><path d="m0 0c0.017-0.191 0.069-0.209 0.145-0.324 0.381 6e-3 0.409 0.23 0.647 0.324 0.118 0.046 0.126-0.067 0.252 0 0.103 0.055 0.518 0.661 0.576 0.792l0.036 0.216c0.07 0.085 0.2 0.06 0.252 0.179 0.162 0.381 0.134 0.79 0.288 1.153 0.179 0.422 0.549 1.137 0.287 1.764-0.095 0.23-0.345 0.554-0.575 0.648-0.118 0.048-0.185-0.036-0.252 0-0.072 0.038-0.06 0.147-0.108 0.216-0.181 0.261-0.434 0.336-0.9 0.324-0.092-0.072-0.222-0.076-0.324-0.145-0.423-0.284-0.407-0.708-0.396-1.368 0.12-0.127 0.131-0.26 0.324-0.323 0.071-0.049 0.235-0.041 0.36-0.036 0.084 0.059 0.168 0.12 0.252 0.18 0.07 0.099 0.073 0.232 0.144 0.324 0.012 0.012 0.024 0.023 0.036 0.036 0.106-0.219 0.289-0.429 0.36-0.648 0.209-0.327-0.23-1.269-0.36-1.405-0.078-0.053-0.537 0.104-0.72-0.035-0.439-0.327 0.111-1.094 0.072-1.225 3e-3 -0.379-0.202-0.475-0.396-0.647" fill="#ffa500" fill-rule="evenodd"/></g><g transform="translate(155.46 53.161)"><path d="m0 0c0.13 0.1 0.306 0.169 0.432 0.252 3e-3 0.456-0.087 0.613-0.252 0.864l-0.396 0.035c-0.096-0.084-0.185-5e-3 -0.324-0.071-0.067-0.032-0.09-0.181-0.145-0.217h-0.215c-0.064-0.024-0.119-0.106-0.18-0.143 0.016-0.383 0.525-0.789 0.72-1.044 0.451 0.018 0.154 0.166 0.36 0.324" fill="#ffa500" fill-rule="evenodd"/></g><g transform="translate(156.72 49.813)"><path d="m0 0c-0.078 0.091-0.094 0.188-0.072 0.287 0.072-0.035 0.144-0.071 0.216-0.107-0.048-0.061-0.096-0.12-0.144-0.18m-0.145-1.801h-0.071v0.072h0.071zm3.817 5.004c-0.683 0.185-0.771 0.062-1.224-0.252-0.16-0.586-0.105-0.698 0.18-1.115 0.181-0.053 0.39-0.178 0.576-0.036h0.071c-0.026-0.375-0.21-0.16-0.359-0.361-0.036-0.107-0.072-0.215-0.108-0.324-0.111-0.087-0.244 7e-3 -0.325-0.107-0.129-0.186-0.076-0.471-0.179-0.685-0.22-0.454-0.466-1.433-0.468-2.052-0.455-5e-3 -0.936 0.105-1.476 0-0.084 0.252-0.169 0.504-0.253 0.756-2e-3 0.185-7e-3 0.411 0.037 0.54 0.116 0.026 0.463 0.038 0.576 0.109 0.212 0.016 0.228 0.093 0.288 0.252 0.182-0.016 0.464-0.164 0.612-0.109 0.216 0.082 0.562 0.295 0.396 0.54-0.061 0.302-0.411 0.373-0.577 0.577-0.168 1e-3 -0.509 0.04-0.575 0-0.31-0.116-0.044-0.456 0.108-0.54v-0.037h-0.504v0.037c0.054 0.019 0.06 0.025 0.144 0.036-0.055 0.097-0.286 0.254-0.396 0.288h-0.288c-0.157 0.168-0.312 0.336-0.468 0.504-0.329 0.329-0.724 0.599-1.044 0.935-0.327-0.013-0.251-0.182-0.396-0.359 0.01-0.365 0.475-0.874 0.684-1.08 0.06-0.036 0.12-0.073 0.18-0.109 0.105-0.162 0.025-0.242 0.072-0.395 0.101-0.328 0.355-0.649 0.648-0.792v-0.145c-0.319-2e-3 -0.388 0.037-0.612-0.107-0.079-0.316-0.156-0.9 0.108-1.08-0.452-0.467-1.361-0.652-1.836-1.116-0.245 0.42 0.085 0.984-0.54 1.152-0.609 0.163-1.389-0.677-1.188-1.404 0.105-0.38 0.543-0.48 0.792-0.72 0.25 0.02 0.537 0.304 0.828 0.18 0.122-0.052 0.319-0.241 0.612-0.144 0.167 0.055 0.378 0.218 0.54 0.288 0.342 0.149 0.688 0.189 1.044 0.323 0.217 0.083 0.49 0.224 0.72 0.288h0.72l0.647 0.109c0.061-0.061 0.121-0.12 0.181-0.18 0.182-0.094 0.762-0.205 1.008-0.072 0.048 0.059 0.096 0.12 0.143 0.18 0.111 0.052 0.292-0.083 0.397 0.072 0.113 0.169-0.144 0.541-0.145 0.864 0 0.587 0.096 1.103 0.216 1.548 0.013 0.119 0.025 0.239 0.036 0.359l0.181 0.181c0.262 0.482 0.336 1.021 0.504 1.583 0.06 0.202 0.194 0.597 0.107 0.9-0.075 0.263-0.258 0.516-0.395 0.72" fill="#ffa500" fill-rule="evenodd"/></g><g transform="translate(152.54 51)"><path d="m0 0c0.081-0.057 0.405-0.087 0.432-0.072 0.278 0.028 0.258 0.205 0.396 0.36 0.055 0.025 0.168-0.015 0.252 0.036h0.071c0.024 0.099 0.062 0.17 0.036 0.216-0.064 0.406-0.516 0.482-0.719 0.756h-0.252c-0.102-0.076-0.262-4e-3 -0.396-0.109-0.124-0.095-0.222-0.6-0.216-0.755 0.146-0.158 0.162-0.355 0.396-0.432" fill="#ffa500" fill-rule="evenodd"/></g><g transform="translate(171.76 45.349)"><path d="m0 0c0.074-0.191 0.342-0.237 0.576-0.145 0.28 0.112 0.644 0.513 1.08 0.397 0.332-0.089 0.384-0.398 0.756-0.433 0.018-0.356 0.181-0.563 0.324-0.792 0.062-0.022 0.035-6e-3 0.073-0.035 1.2-3e-3 0.238 1.838 0 2.159-0.075 0.1-0.402 0.402-0.504 0.468-0.073 0.013-0.145 0.025-0.217 0.036-0.08 0.052-0.096 0.23-0.18 0.288-0.53 0.37-2.513 0.691-3.311 0.577-0.251-0.037-0.45 0.247-0.828 0.143-0.636-0.173-1.707-0.925-2.052-1.403-0.07-0.096-0.07-0.231-0.145-0.324-0.12-0.06-0.239-0.121-0.359-0.18-0.143-0.115-0.234-0.289-0.397-0.397l-0.036-0.036c-0.261 0.513-1.212 1.066-1.8 1.261-0.583 0.192-0.764-0.063-1.187 0.359-0.162-0.025-0.183-0.076-0.288-0.143 6e-3 -0.378 0.486-1.164 0.756-1.26 0.156-0.013 0.311-0.024 0.468-0.036 0.3-0.107 0.404-0.36 0.864-0.36 0.041-0.463 0.243-0.871 0.359-1.26 0.084-0.025 0.169-0.048 0.253-0.072 0.129 0.114 0.27 0.206 0.396 0.324 0.122-0.072 0.101-0.174 0.179-0.288 0.099-0.143 0.423-0.39 0.576-0.468 0.417-0.213 0.641 0.089 0.901 0.143 0.119-0.011 0.239-0.023 0.359-0.036 0.072 0.061 0.145 0.12 0.216 0.181 0.033 0.14 0.142 0.395 0.072 0.611-0.026 0.084-0.14 0.152-0.179 0.217-0.15 0.25-0.087 0.49-0.325 0.648-3e-3 0.484 0.446 0.585 0.72 0.792l0.469 0.503c0.216 0.048 0.432 0.096 0.647 0.145 0.057-0.013 0.091-0.102 0.216-0.072 0.104 0.023 0.329 0.185 0.433 0.179 0.127-6e-3 0.775-0.345 0.863-0.431 0.144-0.176 0.299-0.565 0.324-0.828 0.016-0.161-0.177-0.244-0.072-0.432" fill="#ffa500" fill-rule="evenodd"/></g><g transform="translate(159.45 40.921)"><path d="m0 0c-0.514 0.068-0.748 0.329-1.115 0.504-0.054 0.232-0.125 0.509-0.181 0.756-0.077 0.345 0.104 0.851 0.036 1.044-0.029 0.246-0.336 0.379-0.468 0.576h-0.179c-0.358-0.393-0.567-1.348-0.397-2.124 0.13-0.593 0.025-1.155 0.216-1.656 0.032-0.083 0.326-0.509 0.397-0.577 0.059-0.036 0.12-0.071 0.179-0.107 0.259-0.341 0.42-0.787 0.756-1.044 0.143-0.109 0.338-0.166 0.469-0.288 0.235 4e-3 0.264 0.058 0.395 0.144 0.109 0.556-0.095 1.164-0.36 1.476 0.028 0.34 0.34 0.309 0.504 0.504 0.167 0.196 0.203 0.468 0.36 0.684 0.01 0.534-0.458 0.393-0.612 0.108" fill="#ffa500" fill-rule="evenodd"/></g><g transform="translate(158.05 38.257)"><path d="m0 0h0.071c-0.056 0.458-1.177 0.731-1.511 1.008-0.046 0.038 0 0.09-0.037 0.143-0.191 0.181-0.383 0.361-0.575 0.54-0.053 0.072-0.052 0.148-0.108 0.217-0.138 0.17-0.404 0.213-0.504 0.432-0.072 0.3-0.144 0.599-0.216 0.899-2e-3 0.448 0.234 0.523 0.504 0.685 0.127 0.508 0.211 0.651-0.072 1.08-0.198 0.052-0.419 0.109-0.684 0.107-0.106-0.115-0.24-0.184-0.396-0.252-0.163-0.611-0.29-1.103-0.072-1.763 0.063-0.191 0.045-0.355 0.144-0.504 0.072-0.072 0.143-0.145 0.216-0.216 0.084-0.192 0.168-0.385 0.252-0.576 0.128-0.188 0.42-0.193 0.54-0.324 0.199-0.218 0.253-0.517 0.504-0.684v-0.072c-0.161 0.063-0.24 0.117-0.325 0.252-0.409 5e-3 -0.812-0.034-1.151-0.144-0.035-0.012-0.152-0.103-0.18-0.108-0.114-0.022-0.214 0.056-0.36 0-0.414-0.162-0.53-0.639-0.504-1.153 0.06-0.071 0.12-0.143 0.18-0.215h0.288l0.252 0.252 0.072 0.216c0.132 0.035 0.264 0.072 0.396 0.108 0.398 0.147 1.034 0.268 1.332 0.54 0.363-0.075 0.729-0.292 1.08-0.397h0.216c0.165-0.04 0.487-0.176 0.648-0.071" fill="#ffa500" fill-rule="evenodd"/></g><g transform="translate(173.82 36.565)"><path d="m0 0v0.216c0.096 0.217 0.367 0.421 0.505 0.612 0.272 0.379 0.497 0.758 0.756 1.152 0.155 0.238 0.403 0.492 0.252 0.829-0.083 0.034-0.14 0.059-0.252 0.071-0.078-0.066-0.248-0.213-0.324-0.252-0.109-0.024-0.216-0.048-0.325-0.072-0.084-0.119-0.168-0.24-0.252-0.36-0.179-0.124-0.392-0.138-0.576-0.252-0.215-0.132-0.423-0.35-0.647-0.467-0.173-0.091-0.24 0.079-0.433 0.036-0.261-0.06-0.527-0.417-0.611-0.649-0.089-0.122-0.066-0.42 0.036-0.54 0.163-0.224 0.192-0.037 0.359-0.108 0.066-0.028 0.13-0.139 0.216-0.18-0.031-0.67-0.876-1.67-1.367-1.872h-0.324c-0.128-0.03-0.389-0.186-0.54-0.143-0.119 0.033-0.089 0.098-0.361 0.107-0.05-0.053-0.116-0.105-0.179-0.144-0.04-0.18-7e-3 -0.449-0.073-0.683-0.059-0.216-0.208-0.472-0.288-0.685-0.037-0.1-0.012-0.209-0.071-0.288l-0.252-0.143c-0.331-0.386-0.632-0.778-0.936-1.189-0.213-0.287-0.546-0.544-0.648-0.935-1.008 0.473-1.458 0.76-2.088 1.62-0.127 0.172-0.395 0.367-0.469 0.576-0.1 0.288-0.018 1.066-0.107 1.223-0.048 0.144-0.419 0.358-0.576 0.252-0.128-0.047-0.164-0.131-0.18-0.288-0.267-0.056-0.725-0.074-0.9 0.073h-0.072c0.024 0.045 0.039 0.074 0.072 0.107-1e-3 0.25-0.054 0.262-0.144 0.397-0.756 0.094-0.691 0.018-1.188-0.289-0.036-0.432 0.923-1.082 1.26-1.332 0.493-0.366 0.976-0.773 1.476-1.152 0.228-0.239 0.456-0.479 0.684-0.72 0.246-0.182 0.472-0.328 0.684-0.54 0.129-0.129 0.184-0.23 0.288-0.395 0.125-0.199 0.969-0.715 1.296-0.72 0.432 0.475 0.957 0.797 1.476 1.188 0.222 0.168 0.649 0.623 0.792 0.864 0.107 0.18 0.079 0.364 0.216 0.504 0.587 0.563 1.175 1.128 1.763 1.691 0.46 0.609 0.9 1.184 1.332 1.836 0.194 0.292 0.602 0.73 0.72 1.044" fill="#ffa500" fill-rule="evenodd"/></g><g transform="translate(179.43 39.445)"><path d="m0 0c-0.081-0.069-0.223-0.096-0.288-0.18-0.056-0.071-0.066-0.209-0.144-0.252l-0.504-0.108c-0.036-0.036-0.072-0.071-0.108-0.107-0.174-0.064-0.368 0.076-0.468 0.107-0.382 0.121-0.796 0.228-1.152 0.144-0.024-0.062-7e-3 -0.035-0.036-0.072 0.033-0.343 0.376-0.33 0.648-0.431 0.449-0.169 1.688-0.676 2.376-0.397 0.234 0.095 0.711 0.628 0.432 0.972-0.082 0.245-0.419 0.337-0.756 0.324" fill="#ffa500" fill-rule="evenodd"/></g><g transform="translate(175.83 33.721)"><path d="m0 0c-0.083-0.08-0.221-0.122-0.288-0.216-0.05-0.069-0.057-0.153-0.108-0.216v-0.036c-0.243 0.09-0.43 0.336-0.684 0.432-0.12 0.013-0.24 0.024-0.36 0.036-0.101 0.048-0.116 0.169-0.252 0.216-0.05 0.235-0.097 1.172-0.216 1.332-0.012 0.024-0.025 0.048-0.036 0.072-0.096 0.012-0.192 0.025-0.288 0.036-0.046-0.074-0.077-0.082-0.108-0.179-0.185-0.27-0.08-1.154 0-1.441 0.064-0.23 0.072-0.472 0.252-0.576h0.144c0.059-0.038 0.064-0.157 0.108-0.216 0.114-0.153 0.3-0.182 0.468-0.288 0.179-0.112 0.335-0.353 0.54-0.432 0.281-0.106 0.996-0.097 1.296 0 0.125 0.04 0.219 0.181 0.324 0.252 0.062 0.257 0.098 0.45 0.071 0.756-0.259 0.281-0.28 0.481-0.863 0.468" fill="#ffa500" fill-rule="evenodd"/></g><g transform="translate(158.73 33.074)"><path d="m0 0c-0.344-0.354-0.531-0.815-0.72-1.332l-0.108-0.504c-0.048-0.095-0.195-0.099-0.252-0.181-0.082-0.118-0.147-0.369-0.18-0.504-0.118-0.473-0.082-1.773 0.216-1.872 0.229-0.075 0.33 0.164 0.468 0.217 0.294 1.135 0.116 3.184 0.792 3.924-4e-3 0.103-0.014 0.153-0.036 0.216-0.06 0.012-0.119 0.023-0.18 0.036" fill="#ffa500" fill-rule="evenodd"/></g><g transform="translate(172.92 31.129)"><path d="m0 0c-0.245-0.399 0.156-1.923 0.396-2.34 0.184-0.035 0.224-0.01 0.36 0.072 2e-3 0.353-6e-3 0.977-0.144 1.188v0.18c0.255-0.066 0.825-0.342 1.116-0.108l0.108 0.108c-6e-3 0.482-1.25 0.921-1.836 0.9" fill="#ffa500" fill-rule="evenodd"/></g><g transform="translate(172.09 50.857)"><path d="m0 0c-0.186-0.043-0.135-0.168-0.252-0.217-0.084 0.013-0.168 0.025-0.252 0.036-0.288-0.085-0.6-0.357-0.864-0.467-0.18-0.025-0.36-0.048-0.54-0.073-0.426-0.136-0.882-0.335-1.224-0.575-0.357-0.252-0.529-0.696-0.899-0.936v-0.037c-0.239 0.259-0.344 0.902-0.54 1.225-0.229 0.375-0.45 0.806-0.721 1.151-0.172 0.22-0.42 0.402-0.575 0.649h-0.252c-0.045-0.071-0.152-0.179-0.181-0.252-0.118-0.308 0.077-0.681-0.072-0.937-0.063-0.108-0.266-0.11-0.323-0.252-0.106-0.255 0.056-0.641-0.036-0.935-0.065-0.204-0.221-0.577-0.289-0.792-0.1-0.321 0.109-0.59 0.18-0.756 0.094-0.217 0.121-0.486 0.252-0.685 0.082-0.122 0.6-0.668 0.721-0.755 0.118-0.086 0.256-0.119 0.359-0.216 0.091 4e-3 0.134 5e-3 0.18 0.036 0.152 0.066 0.064 0.083 0.144 0.216 0.139 0.23 0.512 0.478 0.684 0.719 0.096 0.134 0.145 0.392 0.288 0.469 0.259 0.138 0.547 0.123 0.828 0.216 0.435 0.143 0.868 0.358 1.332 0.468 0.422 0.099 0.983-0.168 1.26 0.036 0.4 0.139 0.819 1.247 0.937 1.727 0.06 0.25-0.04 0.532 0.071 0.72-0.04 0.142-0.111 0.098-0.216 0.217" fill="#7b9933" fill-rule="evenodd"/></g><g transform="translate(178.06 41.857)"><path d="m0 0c-0.146-0.127-0.479-0.04-0.647-0.108-0.017-0.047 3e-3 -0.28 0-0.288-0.082-0.171-0.537-0.512-0.397-0.756-0.083-0.278-0.912-0.559-1.116-0.864-0.169-0.254-0.074-0.526-0.216-0.828-0.055-0.117-0.371-0.452-0.468-0.612-0.084-0.191-0.168-0.384-0.252-0.576-0.206-0.318-0.461-0.671-0.647-1.008-0.046-0.082-0.026-0.248-0.072-0.323 0.055-0.489 0.63-0.371 1.044-0.504 0.112-0.037 0.338-0.077 0.467-0.145l0.144-0.143c0.238-0.083 0.625 0.064 0.792 0.107 0.398 0.104 0.875 0.089 1.188 0.288 0.192 0.121 0.276 0.319 0.504 0.432 0.027 0.15 0.067 0.383 0 0.54-0.088 0.209-0.338 0.366-0.468 0.54-0.347 0.464-0.811 1.063-1.44 1.225 0.191 0.393 1.524 0.917 1.944 1.223 0.414 0.303 0.479 0.795 0.864 1.08 0 0.098-1e-3 0.165-0.036 0.216-0.088 0.265-0.804 0.513-1.188 0.504" fill="#7b9933" fill-rule="evenodd"/></g><g transform="translate(158.3 35.341)"><path d="m0 0c3e-3 0.193 8e-3 0.422-0.072 0.54 6e-3 0.382 0.309 0.477 0.396 0.828 0.02 0.082-0.036 0.648-0.036 0.648 0.042 0.049 0.271 0.114 0.323 0.144 0.024 0.062 8e-3 0.035 0.036 0.071v0.252c-0.058 0.129-0.844 0.532-1.151 0.433l-0.108-0.108c-0.075-0.019-0.168 0.065-0.288 0.036-0.237-0.058-0.701-0.093-1.008-0.216-0.177-0.071-0.491-0.352-0.684-0.468-0.012-0.06-0.024-0.12-0.036-0.181-0.074-0.013-0.069-8e-3 -0.108-0.035-0.41 0.013-0.666-0.248-0.396-0.54 0.354-0.383 1.042-0.416 1.44-0.756 0.227-0.012 0.347-0.26 0.396-0.432h0.036c-0.277-0.28-0.663-0.474-0.9-0.792-0.155-0.208-0.268-0.571-0.432-0.756-0.043-0.048-0.143-0.052-0.18-0.107-0.264-0.405-0.076-0.905-0.504-1.189 0.014-0.165 0.048-0.186 0.108-0.288 0.594-4e-3 1.153 0.023 1.584 0.216l0.18 0.18c0.121 0.039 0.38-0.051 0.54 0 0.29 0.094 0.697 0.224 0.936 0.396 0.103 0.074 0.153 0.254 0.252 0.324h0.108c0.621 0.408-0.118 1.594-0.432 1.8" fill="#7b9933" fill-rule="evenodd"/></g><g transform="translate(160.82 32.498)"><path d="m0 0c-0.33 0.078-0.499 0.219-0.972 0.216-0.047-0.074-0.076-0.082-0.108-0.18-0.113-0.174-0.019-0.373-0.036-0.576-0.011-0.131-0.125-0.264-0.071-0.468 0.135-0.527 0.271-1.135 0.54-1.548 0.06-0.094 0.191-0.19 0.251-0.288 0.121-0.196 0.269-0.866 0.648-0.648 0.27 0.096 0.291 0.53 0.433 0.756 0.123 0.199 0.296 0.423 0.395 0.648l0.144 0.432c0.043 0.065 0.151 0.132 0.18 0.216v0.36c0.075 0.271 0.245 0.526 0.252 0.864-0.072 0.096-0.144 0.192-0.216 0.288-0.395 0.072-0.9-0.201-1.44-0.072" fill="#7b9933" fill-rule="evenodd"/></g><g transform="translate(153.59 55.788)"><path d="m0 0c-0.103 0.231-0.527 0.741-0.828 0.504-0.28-0.213-0.022-0.569 0.108-0.792 0.178-0.307 0.399-0.631 0.575-0.937 0.191-0.327 0.252-0.681 0.469-0.971l0.252-0.18c0.165 0.015 0.21 0.054 0.323 0.107 0.039 0.166 0.052 0.187 0.037 0.361 0.15 0 0.214 4e-3 0.288 0.072 0.167 0.059 0.433 0.549 0.432 0.792-0.141 0.131-0.344 0.289-0.432 0.468h-0.108c-0.05 0.251-0.604 0.472-0.792 0.647-0.167-3e-3 -0.222-0.025-0.324-0.071" fill="#2d4454" fill-rule="evenodd"/></g><g transform="translate(151.82 51.901)"><path d="m0 0c0.03-0.024 0.112-0.049 0.144-0.072 0.429 0.012 0.673 0.342 0.936 0.54 0.022 0.219 0.174 0.35 0.107 0.612-0.076 0.299-0.55 0.885-0.791 1.008l-0.361 0.035c-0.298 0.161-0.527 0.493-0.972 0.505-0.085-0.083-0.209-0.127-0.251-0.252-0.101-0.297 0.419-1.018 0.54-1.189 0.061-0.087 0.216-0.18 0.252-0.288 0.13-0.396-0.231-0.703 0.396-0.899" fill="#2d4454" fill-rule="evenodd"/></g><g transform="translate(155.85 53.161)"><path d="m0 0c-0.07-0.055-0.172-0.055-0.252-0.108-0.199-0.134-0.536-0.589-0.576-0.865-0.04-0.083 0.024-0.191 0.072-0.287 0.146-0.033 0.294-0.06 0.397 0.035 0.199-0.104 0.301-0.43 0.431-0.611 0.083-0.115 0.328-0.462 0.432-0.54 0.108-0.048 0.216-0.096 0.324-0.145 0.3-0.262 0.17-0.655 0.756-0.287 0.041 0.862-0.797 2.124-1.188 2.736-0.138 0.033-0.21 0.071-0.396 0.072" fill="#2d4454" fill-rule="evenodd"/></g><g transform="translate(153.59 50.136)"><path d="m0 0c0.285-0.196 0.562-0.468 0.864-0.647 0.144-0.048 0.287-0.097 0.432-0.145 0.133-0.078 0.388-0.327 0.647-0.252 0.062 0.019 0.159 0.108 0.217 0.145 0.269 0.669-0.369 1.301-0.648 1.691-0.111 0.154-0.21 0.399-0.396 0.468-0.172 0.064-0.548 0.11-0.757 0.108-0.213-0.172-0.496-0.234-0.719-0.395-0.139-0.101-0.212-0.267-0.324-0.397 0.069-0.273 0.471-0.43 0.684-0.576" fill="#2d4454" fill-rule="evenodd"/></g><g transform="translate(166.55 44.124)"><path d="m0 0c-0.093 0.02-0.159 0.035-0.288 0.036-0.149-0.099-1.127-0.1-1.044-0.432 0 0 0.217-0.355 0.252-0.432 0.079-0.03 0.137-0.063 0.181-0.035 0.282 0.059 0.306 0.32 0.503 0.431 0.137 0.078 0.319 0.081 0.432 0.144-1e-3 0.099-1e-3 0.165-0.036 0.217z" fill="#2d4454" fill-rule="evenodd"/></g><g transform="translate(161.18 40.813)"><path d="m0 0c-0.094 0.02-0.159 0.035-0.288 0.036-0.09-0.132-0.204-0.18-0.252-0.36-0.06-0.083-0.078-0.367-0.036-0.432 0.039-0.109 0.033-0.106 0.143-0.144 0.037-0.029 0.01-0.013 0.073-0.036 0.132 0.125 0.565 0.563 0.396 0.828-0.013 0.036-0.024 0.072-0.036 0.108" fill="#2d4454" fill-rule="evenodd"/></g><g transform="translate(149.23 58.453)"><path d="m0 0c-0.328-0.251-0.701-0.186-0.828-0.648-0.113-0.157-0.058-0.694 0.071-0.829 0.013-0.036 0.025-0.072 0.036-0.107 0.092 3e-3 0.134 4e-3 0.181 0.035 0.563 0.013 0.316 0.252 0.504 0.576 0.06 0.107 0.555 0.386 0.683 0.468-1e-3 0.099-1e-3 0.165-0.036 0.217-0.065 0.169-0.406 0.269-0.611 0.288" fill="#ed561c" fill-rule="evenodd"/></g><g transform="translate(153.66 53.628)"><path d="m0 0c-0.081-0.079-0.229-0.159-0.324-0.216-0.287-1.049 0.17-1.316 0.72-1.836 0.433-5e-3 1.059 0.588 0.9 1.152-0.111 0.394-0.74 0.915-1.296 0.9" fill="#ed561c" fill-rule="evenodd"/></g><g transform="translate(158.41 48.661)"><path d="m0 0c0.021 0.066 0.071 0.136 0.072 0.288-0.269 0.287-0.321 0.617-0.899 0.612-0.134-0.175-0.33-0.118-0.504-0.253-0.048-0.036-0.065-0.136-0.108-0.179-0.012-0.623 0.36-0.847 0.828-1.008 0.097-0.034 0.214-0.106 0.323-0.036 0.161 0.016 0.18 0.054 0.288 0.108 0.027 0.137-0.039 0.339 0 0.468" fill="#ed561c" fill-rule="evenodd"/></g><g transform="translate(174.18 44.053)"><path d="m0 0c0.102-0.025 0.143-8e-3 0.252 0.036 0.02 0.045 0.043 0.109 0.072 0.144-0.014 0.251-0.074 0.587-0.216 0.719-0.076 0.072-0.186 0.019-0.288 0.073-0.16 0.084-0.309 0.287-0.504 0.36-0.568 0.212-1.188-0.221-1.547-0.396-0.075 0.126-0.124 0.21-0.289 0.251 0.044 0.322 0.115 0.678-0.036 0.972-0.256 0.501-1.575 0.826-2.303 0.469-0.463-0.228-0.638-0.793-0.973-1.152-1e-3 -0.369 0.205-0.552 0.504-0.613-8e-3 -0.396-0.14-0.592-0.18-0.935-0.207-0.031-0.341-0.135-0.504-0.18h-0.899c-0.109-0.036-0.217-0.072-0.324-0.108-0.097 0.095-0.193 0.192-0.288 0.288-0.092-4e-3 -0.134-5e-3 -0.18-0.036-0.2-0.076-0.193-0.26-0.324-0.396-0.259-0.268-0.53-0.529-0.828-0.757-0.084-0.107-0.168-0.216-0.252-0.323-0.147-0.112-0.309-0.152-0.468-0.252-0.325-0.205-0.684-0.488-1.044-0.648-0.333-0.148-0.673-0.213-0.973-0.396-0.588-0.36-1.259-0.796-1.8-1.224-0.173-0.138-0.253-0.404-0.431-0.541 3e-3 -0.166 0.025-0.221 0.072-0.323 0.062-0.023 0.035-8e-3 0.071-0.036 0.394 0.023 1.041 0.622 1.441 0.792 0.551 0.155 1.103 0.312 1.656 0.468 0.237 0.066 0.528 0.025 0.72 0.143 0.137 0.053 0.153 0.122 0.107 0.252 0.583 0.122 1.193 0.302 1.729 0.397 0.249 0.044 0.52-0.04 0.792 0.036 0.477 0.133 0.991 0.294 1.439 0.432 0.216 0.036 0.433 0.072 0.649 0.108 0.21 0.066 0.252 0.215 0.395 0.323 0.216 0.165 0.64 0.274 0.9 0.361 0.637 0.212 1.202 0.293 1.8 0.54 0.374 0.154 0.761 0.384 1.116 0.54 0.252 0.11 0.594 0.121 0.792 0.288 0.122 0.057 0.145 0.144 0.144 0.324" fill="#ed561c" fill-rule="evenodd"/></g><g transform="translate(164.46 45.745)"><path d="m0 0c-0.042 0.029-0.06 0.029-0.144 0.036-0.259-0.427 0.337-1.465 0.72-1.584 0.081-0.058 0.329-0.08 0.397-0.036 0.115 0.039 0.142 0.063 0.179 0.181 0.066 0.153-0.124 0.354-0.215 0.467-0.242 0.296-0.552 0.807-0.937 0.936" fill="#ed561c" fill-rule="evenodd"/></g><g transform="translate(160.79 41.281)"><path d="m0 0c-0.086 0.297-0.381 0.38-0.611 0.54-0.157 0.156-0.313 0.313-0.469 0.468-0.214 0.159-0.435 0.272-0.648 0.432-0.142 0.107-0.17 0.294-0.36 0.36-0.05 0.035-0.118 0.036-0.216 0.036-0.033-0.032-0.062-0.049-0.107-0.072-0.154-0.618 0.095-1.251 0.359-1.656 0.418-0.113 0.805-0.257 1.296-0.144 0.025-0.024 0.048-0.048 0.072-0.071-0.226-0.786-0.798-1.084-0.36-2.017 0.129-0.272-0.025-0.544 0.397-0.359 0.132 0.61 0.216 1.187 0.431 1.727 0.078 0.195 0.33 0.362 0.216 0.756" fill="#ed561c" fill-rule="evenodd"/></g><g transform="translate(171.98 36.601)"><path d="m0 0c-0.08 0.202-0.054 0.62-0.181 0.792-0.054 0.069-0.541 0.252-0.683 0.216-0.24-0.06-0.468-0.268-0.685-0.36-0.273-0.117-0.512-0.148-0.792-0.252-0.572-0.212-1.228-0.297-1.871-0.503-1.008-0.326-2.13-0.644-3.097-1.009-0.594-0.225-1.148-0.334-1.655-0.612-0.045-0.203-0.053-0.447 0.072-0.576 0.247-0.685 1.151-0.044 1.404 0.216 0.335-0.018 0.245-0.197 0.467-0.288 0.047-0.031 0.089-0.033 0.181-0.036-0.051-0.894-0.065-1.159 0.323-1.8 0.123-0.201 0.179-0.439 0.361-0.576 0.185-0.139 0.387-0.224 0.576-0.359 0.264-0.19 0.719-0.692 1.224-0.397 0.224 0.132 0.35 0.368 0.503 0.576 0.171 0.232 0.42 0.438 0.577 0.684 0.197 0.311 0.296 0.66 0.504 0.972 0.06 0.06 0.12 0.121 0.179 0.18 0.089 0.197 0.016 0.402 0.072 0.649 0.059 0.253 0.145 0.431 0.252 0.611 0.334-0.033 0.612-0.286 1.044-0.18 0.621 0.153 1.592 1.278 1.729 1.908-0.052 0.059-0.106 0.151-0.145 0.216-0.177-1e-3 -0.252-0.023-0.359-0.072" fill="#ed561c" fill-rule="evenodd"/></g><g transform="translate(175.87 28.717)"><path d="m0 0c-0.175 0.231-0.51 0.296-0.612 0.612-0.053 0.111 0.053 0.178 0 0.288-0.078 0.227-1.002 0.613-1.332 0.612-0.034-0.033-0.063-0.048-0.109-0.072-0.272-1.36 0.646-2.192 1.368-2.7 0.256-0.178 0.638-0.3 0.829-0.54 0.165-0.208 0.979-1.175 1.332-0.971 0.097 0.037 0.079 0.051 0.143 0.107-0.028 0.419-0.328 0.622-0.504 0.9-0.374 0.594-0.694 1.207-1.115 1.764" fill="#ed561c" fill-rule="evenodd"/></g><g transform="translate(179.02 38.178)"><path d="m0 0c-0.362 0.091-0.796 0.147-1.145 0.237-0.08 7e-3 -0.159 0.015-0.238 0.022-0.255 0.085-0.499 0.27-0.734 0.388 1e-3 0.067 8e-3 0.112 0.021 0.152 0.247-3e-3 0.297-0.112 0.454-0.173 0.102-0.04 0.249-0.043 0.346-0.064 0.153-0.035 0.332 0.02 0.432 0.042h0.367c0.244 0.078 0.476 0.287 0.691 0.411 0.093 0.053 0.222 0.046 0.302 0.108 0.423 7e-3 0.473-0.1 0.649-0.324 0-0.48-0.555-0.947-1.145-0.799m-0.691-1.447h0.021c0.01-0.043-0.01-0.029-0.021-0.043-0.031-0.267-0.621-0.481-0.865-0.584-1.004-0.428-2.524-0.131-3.196 0.389 0.1 0.408 0.464 0.719 0.67 1.037 0.712 0.076 1.588-0.267 2.052-0.54 0.115-0.05 0.23-0.101 0.345-0.152 0.381 0.06-0.025 0.402-0.151 0.476-0.374 0.218-0.839 0.392-1.296 0.518-0.24 0.066-0.54-2e-3 -0.627 0.216-0.059 0.146 0.324 0.603 0.411 0.713 0.779 0 1.744-0.594 2.074-1.037 0.166-0.224 0.273-0.453 0.41-0.713 0.051-0.097 0.136-0.169 0.173-0.28m-4.32 0.301c-1.347-2.02-2.922-3.819-4.644-5.463-0.29-0.278-0.548-0.614-0.799-0.929-0.043-0.029-0.087-0.058-0.13-0.087l-0.475-0.475c-0.143-0.143-0.325-0.493-0.67-0.41-0.604 0.145-1.103 0.76-1.554 1.101-0.072 0.08-0.145 0.159-0.217 0.238-0.991 0.744-1.794 1.658-2.786 2.398-0.262 0.195-0.481 0.489-0.756 0.669v0.129c0.029 0.066 0.607 0.319 0.67 0.282 0.173-0.066 0.221-0.398 0.324-0.54 0.204-0.284 0.685-0.318 0.993-0.109l0.281 0.281c0.045 0.032 0.109 0.033 0.151 0.065 0.195-8e-3 0.213-0.094 0.324-0.173 0.054-0.243 0.024-0.599 0.087-0.843v-0.259c0.273-0.925 0.851-1.553 1.641-1.965 0.388-0.201 0.494-0.327 1.08-0.302 0.139 0.145 0.312 0.266 0.475 0.389 0.152 0.165 0.303 0.331 0.453 0.497 0.125 0.093 0.276 0.2 0.368 0.323 0.227 0.306 0.418 0.643 0.627 0.973 0.156 0.245 0.248 0.546 0.324 0.863-8e-3 0.209-0.015 0.418-0.023 0.627 0.032 0.103 0.137 0.138 0.195 0.216 0.337-2e-3 0.722-0.094 1.037 0 0.984 0.293 1.196 1.023 1.706 1.77 0.196 0.288 0.597 0.281 0.691 0.692-0.036 0.042-0.072 0.086-0.107 0.129-0.275-0.013-0.635-0.499-0.886-0.302-0.2 0.014-0.517 0.372-0.324 0.605 0.094 0.278 0.669 0.442 0.95 0.562 0.512 0.217 1.032 0.515 1.49 0.798 0.177 0.11 0.376 0.143 0.519 0.281h0.13l0.021-0.022c-0.013-0.322-0.213-0.541-0.345-0.756-0.197-0.316-0.346-0.647-0.562-0.95-0.072-0.101-0.189-0.198-0.259-0.303m0.518-3.455c0.159-0.046 0.311-8e-3 0.432-0.086 0.173-0.112 0.213-0.341 0.324-0.519 0.08-0.079 0.159-0.158 0.238-0.237 0.091 4e-3 0.115 0.017 0.173 0.043 0.057 0.333-0.076 0.681 0.28 0.799 0.224 0.167 0.558-0.112 0.606-0.281 0.134-0.187 2e-3 -0.368-0.087-0.497-0.174-0.249-0.443-0.629-0.951-0.517-0.338 0.073-0.696 0.165-0.971 0.323-0.38 0.219-0.844 0.895-0.973 1.361-0.07 0.254-8e-3 0.577 0.022 0.799 0.073-0.011 0.057-0.01 0.129 0 0.098-0.285 0.089-0.579 0.238-0.799 0.104-0.154 0.345-0.331 0.54-0.389m-2.052-0.497c0.292-0.398 0.595-0.774 0.886-1.188 0.133-0.188 0.375-0.378 0.431-0.626-0.026-0.029-0.03-0.038-0.043-0.086-0.208 0.013-0.352 0.133-0.518 0.194-0.194 0.073-0.419 0.085-0.583 0.195-0.151 0.101-0.278 0.306-0.389 0.453-0.059 0.079-0.176 0.118-0.237 0.194-0.188 0.236-0.387 0.466-0.606 0.67v0.151c0.188 0.174 0.346 0.396 0.519 0.583 0.263-0.037 0.41-0.362 0.54-0.54m1.75-2.484c0.084-0.05 0.154-0.141 0.237-0.194-1e-3 -0.059-1e-3 -0.099-0.021-0.129-7e-3 -0.022-0.015-0.044-0.022-0.066-0.32 0.045-0.546 0.181-0.842 0.239-0.043-0.037-0.086-0.073-0.13-0.109-0.01-0.157 0.073-0.912 0.151-1.037 7e-3 -0.143-1e-3 -0.204-0.107-0.237-0.023-0.018-6e-3 -8e-3 -0.044-0.022-0.058 0.058-0.115 0.116-0.172 0.173-0.088 0.13-0.132 0.385-0.173 0.54-8e-3 0.079-0.015 0.158-0.022 0.237-0.035 0.127-0.095 0.292-0.129 0.411-0.046 0.159 0.019 0.255-0.066 0.389 2e-3 0.151 0.038 0.145 0.109 0.216 0.328-0.05 0.674-0.208 0.95-0.324 0.094-0.029 0.187-0.058 0.281-0.087m0.734-0.95c0.108-0.084 0.298-0.469 0.389-0.605 0.082-0.122 0.222-0.223 0.302-0.345 0.089-0.134 0.107-0.299 0.195-0.432 0.208-0.317 0.43-0.649 0.648-0.972 0.146-0.218 0.549-0.583 0.561-0.885-0.34 5e-3 -0.515 0.328-0.734 0.474-0.59 0.398-1.105 0.857-1.663 1.275-0.148 0.11-0.424 0.233-0.519 0.388-0.119 0.197-0.139 0.505-0.194 0.756-0.028 0.127 0.014 0.256-0.043 0.346-8e-3 0.151-4e-3 0.224 0.108 0.26 0.076 0.03 0.863-0.192 0.95-0.26m-2.311 0.238c-0.026-0.058-0.044-0.068-0.107-0.087-0.254 0.273-0.587 0.488-0.886 0.713-0.146 0.109-0.266 0.283-0.411 0.389-0.249 0.182-0.487 0.355-0.735 0.54l-0.237 0.237c-3e-3 0.065-0.016 0.061 0 0.087 0.036 0.303 0.574 0.588 0.734 0.82h0.152c0.119-0.175 0.329-0.268 0.453-0.431 0.13-0.17 0.262-0.346 0.411-0.497 0.114-0.116 0.29-0.242 0.367-0.389 0.089-0.172 0.072-0.359 0.129-0.562 0.036-0.127 0.204-0.702 0.13-0.82m-10.216 3.175c-8e-3 -0.068-4e-3 -0.1-0.044-0.13-0.109-0.084-0.855-0.27-1.101-0.194-0.191 0.058-0.23 0.234-0.345 0.367 0.019 0.476 0.409 0.569 0.626 0.843 0.044-9e-3 0.042-6e-3 0.064-0.022 0.117-0.044 0.089-0.124 0.152-0.217 0.143-0.143 0.288-0.287 0.431-0.431 0.076-0.056 0.174-0.084 0.217-0.173h0.022c9e-3 -0.042-0.01-0.028-0.022-0.043m-0.217-1.469c-0.095-0.26-0.129-0.504-0.237-0.756-0.054-0.127-0.159-0.281-0.216-0.41-0.044-0.102-0.035-0.201-0.086-0.303-0.054-0.106-0.159-0.214-0.217-0.324-0.07-0.134-0.332-0.687-0.496-0.604-0.152 0.053-0.336 0.48-0.432 0.626-0.493 0.743-0.769 1.427-0.735 2.657 0.037 0.05 0.073 0.1 0.109 0.151 0.044 8e-3 0.042 5e-3 0.064 0.022 0.211-0.103 0.456-0.204 0.649-0.325 0.064-0.375-0.244-0.779-0.13-1.252 0.038-0.158 0.109-0.289 0.173-0.411 0.119-0.02 0.13 8e-3 0.215 0.065 0.01 0.364 0.026 1.227 0.173 1.426 0.187 0.282 0.878 0.099 1.145 0.302 0.109-8e-3 0.146-0.043 0.173-0.13 0.099-0.22-0.094-0.579-0.152-0.734m7.107 2.355c6e-3 -0.109 0.033-0.197 0-0.325-0.06-0.231-0.163-0.428-0.259-0.648-0.351-0.798-1.1-1.388-1.729-1.922-0.409 7e-3 -0.539 0.207-0.777 0.367-0.198 0.133-0.412 0.227-0.604 0.367-0.159 0.116-0.24 0.327-0.346 0.498-0.071 0.113-0.182 0.209-0.237 0.345-0.253 0.614 0.044 1.428-0.476 1.814-0.119 0.089-0.286 0.249-0.562 0.173-0.091-0.025-0.22-0.097-0.302-0.152-0.146-0.097-0.305-0.244-0.432-0.366-0.314 0.021-0.352 0.285-0.518 0.453 0.015 0.3 0.339 0.294 0.561 0.389 0.206 0.088 0.47 0.212 0.691 0.281 0.301 0.093 0.569 0.099 0.865 0.194 1.571 0.51 3.26 0.86 4.773 1.425 0.357 0.134 0.706 0.211 1.036 0.346 0.162 0.066 0.332 0.07 0.454 0.173h0.086c0.03-0.038 0.067-0.063 0.109-0.086 0.101-0.525 0.238-0.656 0.583-0.929-0.023-0.24-0.197-0.359-0.303-0.518-0.321-0.484-0.595-0.761-1.23-0.929-0.187-0.049-0.375 0.037-0.498 0.064-0.199 0.045-0.475-0.055-0.583-0.13-0.235-0.16-0.325-0.464-0.302-0.884m-9.741-0.303c-0.432 0.371-0.835 0.993-0.994 1.62-0.039 0.154-0.026 0.37 0 0.497 0.067 0.318 0.02 0.572 0.108 0.842 0.15 0.458 0.437 0.738 0.691 1.08 0.143 0.191 0.307 0.442 0.497 0.583 0.424 0.315 0.855 0.59 1.339 0.843 0.122 0.063 0.239 0.182 0.367 0.237 1.861 0.795 3.949 1.293 6.005 1.879 0.363 0.103 0.706 0.108 1.058 0.216 0.762 0.233 1.591 0.424 2.354 0.691 0.176 0.062 0.336 0.193 0.497 0.26 0.235 0.098 0.451 0.107 0.692 0.194 0.368 0.131 0.749 0.327 1.08 0.496 1.081 0.554 1.7 0.931 2.289 1.988 0.047 0.085 0.134 0.167 0.173 0.259 0.047 0.112 0.2 0.703 0.13 0.821-1e-3 0.163 0.033 0.162 0.107 0.237 0.519-0.139 1.22-0.785 1.469-1.209 0.161-0.273 0.185-0.584 0.281-0.929 0.09-0.327 0.15-0.993 0.043-1.382-0.207-0.76-0.894-1.851-1.447-2.268-0.66-0.499-1.299-1.04-2.03-1.469-0.08-0.029-0.159-0.057-0.238-0.087-0.239-0.138-0.467-0.248-0.734-0.367-0.217-0.096-0.453-0.261-0.67-0.367-0.103-0.05-0.2-0.041-0.303-0.086-0.32-0.14-0.648-0.339-0.971-0.476-0.286-0.12-0.556-0.129-0.865-0.237-0.615-0.217-1.307-0.463-1.943-0.67-0.171-0.056-0.309-0.029-0.476-0.086-0.435-0.148-0.929-0.286-1.382-0.431-0.301-0.098-0.566-0.118-0.864-0.217-0.107-0.05-0.216-0.101-0.324-0.151h-0.194c-0.228-0.058-0.51-0.152-0.735-0.216h-0.151c-0.264-0.085-0.605-0.24-0.863-0.345-0.432-0.177-0.851-0.251-1.253-0.454-0.494-0.25-0.964-0.595-1.382-0.929-0.143-0.113-0.365-0.419-0.433-0.604-0.041-0.115-0.023-0.251-0.086-0.346-0.021-0.022-0.044-0.043-0.065-0.065-0.399 0.035-0.539 0.443-0.777 0.648m-1.448-0.346c-0.759-0.386-1.685-0.784-2.764-0.777-0.05 0.051-0.101 0.1-0.152 0.151 0.018 0.12 0.075 0.191 0.109 0.28 0.07 0.188 0.067 0.369 0.151 0.541 0.062 0.127 0.174 0.268 0.237 0.388 0.356 0.676 0.765 1.236 1.362 1.663 0.186 0.109 0.374 0.217 0.561 0.324 0.087 0.039 0.19 0.034 0.259 0.087 0.05-4e-3 0.061-4e-3 0.086-0.021 0.085-0.03 0.091-0.082 0.151-0.13-3e-3 -0.12-0.029-0.353 0.022-0.433v-0.171c-0.043-0.097-0.582-0.311-0.712-0.369-0.146-0.063-0.268-0.177-0.39-0.258-0.248-0.165-0.493-0.297-0.734-0.475-0.152-0.112-0.243-0.29-0.367-0.433 0.011-0.137 0.06-0.144 0.13-0.215 0.308 0.018 0.434 0.289 0.626 0.431 0.301 0.225 0.65 0.38 0.972 0.583 0.121 0.077 0.417 0.351 0.626 0.238 0.098-0.052 0.423-0.742 0.54-0.885-0.026-0.324-0.472-0.397-0.713-0.519m0.282-1.727c-0.053-0.177-0.051-0.383-0.087-0.54v-0.519c-0.023-0.087-0.064-0.245-0.086-0.346-0.078-0.348 0.043-0.705-0.066-0.993-0.043-0.118-0.152-0.204-0.216-0.303-0.371 0.012-0.31 0.824-0.301 1.232 6e-3 0.278 0.092 0.495 0.151 0.713 0.106 0.395 0.149 0.775 0.345 1.079 0.112 0.175 0.276 0.33 0.388 0.497h0.066c-7e-3 -0.318-0.118-0.566-0.194-0.82m-2.225 4.622c-0.413 0.139-0.73 0.421-1.016 0.691 0.039 0.271 0.306 0.292 0.497 0.41 0.249 0.154 0.524 0.358 0.799 0.475 0.188 0.08 0.378 0.136 0.562 0.195 0.101 0.032 0.219 0.015 0.302 0.065 0.711-3e-3 0.946-0.076 1.361-0.346 1e-3 -0.197-0.057-0.216-0.129-0.324-0.203-0.049-0.484-7e-3 -0.713 0.043-0.25 0.055-0.685-0.041-0.886-0.086-0.217-0.049-0.384-4e-3 -0.454-0.195-0.016-0.022-8e-3 -4e-3 -0.021-0.043 0.026-0.024 0.047-0.055 0.065-0.086 0.184-0.034 0.422 3e-3 0.605 0.042h0.626c0.166 1e-3 0.364 0.064 0.475-0.021 0.036-0.036 0.072-0.071 0.109-0.107-0.022-0.198-0.111-0.366-0.196-0.497-0.169-0.039-0.352-0.022-0.561-0.086-0.145-0.045-0.294-0.172-0.432-0.217-0.171-0.055-0.334 0.012-0.475 0.044-0.194 0.042-0.354-0.013-0.518 0.043m1.166 4.557c-7e-3 0.065-0.015 0.129-0.022 0.195-0.113 0.343-0.216 0.936-0.108 1.36 8e-3 0.137 0.015 0.273 0.022 0.41 0.076 0.311 0.135 0.665 0.324 0.864h0.13c0.128-0.135 0.404-0.228 0.453-0.431 0.011-0.044-0.129-0.528-0.151-0.627-0.092-0.419 0.121-0.828 0.259-1.058 0.189-0.314 0.581-0.47 0.993-0.562 0.161-0.036 0.31 0.076 0.411 0.022 0.066-0.023 0.064-0.02 0.086-0.087 0.034-0.079-0.068-0.226-0.107-0.302-0.115-0.216-0.265-0.406-0.497-0.497-0.145-0.029-0.288-0.057-0.433-0.086-0.035-0.043-0.071-0.086-0.107-0.129 0.012-0.11 0.047-0.12 0.086-0.195 0.1-0.02 0.392-9e-3 0.497-0.065 0.162-0.087 0.4-0.803 0.281-1.08-0.068-0.157-0.257-0.244-0.39-0.345-0.276 0.043-0.584 0.471-0.734 0.669-0.064 0.058-0.129 0.115-0.194 0.173-0.197 0.271-0.405 0.594-0.54 0.907-7e-3 0.065-0.014 0.13-0.022 0.194-0.062 0.207-0.168 0.457-0.237 0.67m-0.194 6.134c-0.122-7e-3 -0.246-0.015-0.368-0.021-0.803-0.279-1.601-0.618-2.461-0.843-0.532-0.139-1.264-0.075-1.599 0.173-0.104 0.076-0.125 0.209-0.173 0.345-0.185 0.526 0.105 1.039 0.453 1.189 0.476 0.202 0.881-0.036 0.864-0.563-0.05-0.053-0.062-0.131-0.107-0.194-0.096-0.129-0.314-0.217-0.454-0.302-0.014-0.037-4e-3 -0.021-0.022-0.043 2e-3 -0.177 0.064-0.158 0.152-0.238 0.261 8e-3 0.305 0.132 0.453 0.238 0.11 0.078 0.236 0.116 0.346 0.195 0.132 0.094 0.238 0.251 0.367 0.344 0.338 0.247 0.993 0.508 1.426 0.649 0.266 0.087 0.534 0.063 0.82 0.13h0.843c0.232 0.042 0.502-0.112 0.647-0.043 0.555 0.029 0.328 0.806 0.454 1.273 0.209 0.777 0.485 1.375 0.886 1.945 0.088 0.124 0.264 0.168 0.389 0.258 0.288 0.208 0.416 0.57 0.388 1.037-0.05 0.058-0.1 0.116-0.151 0.173-0.149-9e-3 -0.149-0.069-0.237-0.13 3e-3 -0.115 0.027-0.335-0.022-0.41-0.021-0.264-0.306-0.376-0.605-0.367-0.072 0.071-0.172 0.116-0.216 0.216-0.151 0.347 0.066 0.834 0.238 0.95 0.111 0.076 0.275 0.075 0.389 0.151h0.41c0.335-0.109 0.548-0.92 0.41-1.425-0.106-0.391-0.257-0.801-0.453-1.123-0.051-0.083-0.134-0.188-0.173-0.281-0.204-0.479-0.308-1.08-0.454-1.598v-0.302c-0.047-0.189-0.058-0.585 0-0.821 0.038-0.153 0.108-0.334 0-0.476-0.061-0.177-0.295-0.259-0.54-0.194-0.263 0.07-0.534 0.147-0.82 0.217-0.123-8e-3 -0.245-0.015-0.368-0.023-0.086 8e-3 -0.172 0.015-0.259 0.023-0.144-0.037-0.366-0.084-0.453-0.109m-1.966 2.743c0.013 0.176 0.1 0.196 0.173 0.303 0.194-0.03 0.15-0.159 0.259-0.26-7e-3 -0.061-0.014-0.093-0.044-0.13-0.09-0.174-0.321 0.031-0.388 0.087m-0.238 0.238c-0.035-0.024-0.078-0.02-0.108-0.043-0.16 7e-3 -0.761 0.368-0.712 0.54 0.027 0.094 0.468 0.467 0.562 0.561h0.129c0.076-0.113 0.203-0.195 0.281-0.303 0.066-0.09 0.097-0.2 0.173-0.28v-0.108c-0.112-0.11-0.195-0.281-0.325-0.367m-1.577 0.885v0.13c0.15 0.14 0.31 0.314 0.476 0.432 0.069 0.049 0.171 0.056 0.237 0.108 0.119 3e-3 0.239 7e-3 0.303-0.044l0.086-0.086c-0.014-0.282-0.475-0.633-0.648-0.798-0.217 0.013-0.312 0.166-0.454 0.258m-0.474 0.259c-0.287-4e-3 -0.604 0.312-0.605 0.584 0.077 0.075 0.128 0.171 0.195 0.259 0.128 0.122 0.258 0.245 0.388 0.367h0.086c0.18-0.187 0.335-0.446 0.54-0.604-0.014-0.324-0.41-0.449-0.604-0.606m-0.713 1.102c-0.27 5e-3 -0.303 0.185-0.432 0.324 0.01 0.388 0.532 0.593 0.713 0.843 0.044 7e-3 0.041 5e-3 0.065 0.021 0.23-0.086 0.253-0.196 0.388-0.367-0.021-0.234-0.572-0.651-0.734-0.821m-0.692 0.757c-0.125 0.043-0.305 0.349-0.301 0.539 0.159 0.151 0.325 0.315 0.474 0.475 0.293-3e-3 0.39-0.144 0.562-0.259v-0.151c-0.025-0.057-0.127-0.089-0.173-0.13-0.101-0.1-0.201-0.201-0.302-0.303-0.036-0.046-0.061-0.139-0.108-0.171-0.045-0.032-0.113-0.024-0.152 0m-0.367 0.906c-0.191 8e-3 -0.157 0.105-0.237 0.217 7e-3 0.125 0.038 0.122 0.086 0.194 0.121-5e-3 0.159-0.03 0.26-0.044 0.017-0.039 0.038-0.097 0.064-0.129-0.024-0.129-0.107-0.155-0.173-0.238m-0.367 0.972c-0.054 0.083-0.013 0.303 0 0.389 0.085 0.555 0.293 0.766 0.713 0.972 0.101 0.029 0.202 0.057 0.303 0.087 0.162 2e-3 0.395 0.024 0.496-0.044 0.295-0.028 0.258-0.371 0.345-0.605 0.111-0.293 0.251-0.617 0.368-0.886 0.063-0.145 0.072-0.284 0.151-0.41 0.113-0.18 0.317-0.326 0.367-0.561-0.126-0.12-0.218-0.138-0.345-0.237-0.286 0.042-0.427 0.332-0.626 0.474-0.291 0.209-0.629 0.396-0.995 0.519-0.22 0.075-0.702 0.104-0.777 0.302m-0.129 1.318c-0.09-0.123-0.255-0.426-0.303-0.562-0.014-0.087-0.029-0.173-0.043-0.26-0.05-0.049-0.101-0.1-0.151-0.15-0.771 0.043-1.126 0.682-0.713 1.317 0.218 0.335 0.586 0.696 0.929 0.908 0.183 0.112 0.449 0.114 0.626 0.237 0.438 4e-3 0.707-0.142 0.886-0.389 0.062-0.087 0.081-0.204 0.151-0.281-3e-3 -0.104-0.022-0.123-0.043-0.194-0.095-0.023-0.246-0.011-0.367-0.043-0.34-0.09-0.787-0.328-0.972-0.583m-1.426 0.907c0.01 0.207 0.335 0.535 0.475 0.626 0.063 0.041 0.142 0.04 0.194 0.087 0.039-0.022 0.036-0.028 0.087-0.044v-0.043c-0.13-0.116-0.57-0.584-0.691-0.626-0.023-0.018-5e-3 -8e-3 -0.043-0.021-7e-3 6e-3 -0.015 0.013-0.022 0.021m-0.065 0.691c-0.136-0.172-0.209-0.383-0.345-0.561-0.038-0.05-0.151-0.084-0.217-0.044-0.303 0.188-0.046 0.994 0.13 1.123 0.096 0.07 0.223 0.083 0.325 0.151 0.26 8e-3 0.5-0.022 0.561-0.215h0.022c-0.076-0.243-0.338-0.281-0.476-0.454m4.104-2.181c0.05 0.036 0.101 0.071 0.152 0.107h0.172c0.142-0.182 0.431-0.299 0.605-0.453-0.016-0.106-0.494-0.537-0.583-0.561-0.049-0.02-0.051 7e-3 -0.13 0.021-0.105 0.21-0.301 0.446-0.302 0.734 0.042 0.043 0.048 0.101 0.086 0.152m1.123-0.583h0.13c0.084-0.127 0.222-0.249 0.324-0.367-0.025-0.276-0.532-0.541-0.691-0.757-0.258 5e-3 -0.277 0.199-0.389 0.345 0.015 0.294 0.454 0.596 0.626 0.779m0.411-2.528c-0.071-0.263-0.412-0.669-0.821-0.561-0.314 0.082-0.502 0.404-0.605 0.713-0.028 0.085-0.116 0.3-0.043 0.41 0.061 0.326 0.396 0.211 0.626 0.346 0.43-4e-3 0.532-0.204 0.778-0.368 0.017-0.165 0.117-0.343 0.065-0.54m0.41 1.858h0.173c0.173-0.179 0.435-0.367 0.432-0.713-0.079-0.094-0.159-0.188-0.238-0.281-0.092-0.088-0.209-0.151-0.28-0.259-0.045 9e-3 -0.042 6e-3 -0.066 0.021-0.168 0.022-0.159 0.133-0.237 0.238-0.102 0.136-0.29 0.272-0.432 0.367 2e-3 0.055 3e-3 0.08 0.022 0.108 0.085 0.181 0.473 0.367 0.626 0.519m0.691-1.318c0.089-0.03 0.148-0.103 0.173-0.194h0.022v-0.194c-0.03-0.065-0.461-0.287-0.562-0.433-0.073 5e-3 -0.11 0.011-0.151 0.044-0.092 0.034-0.112 0.109-0.108 0.237 0.18 0.171 0.35 0.38 0.518 0.562 0.055-2e-3 0.08-3e-3 0.108-0.022m0.367-0.691c0.203-0.072 0.254-0.433 0.389-0.583-8e-3 -0.061-0.014-0.094-0.043-0.13-0.053-0.114-0.186-0.142-0.281-0.216-0.303 0.01-0.403 0.311-0.583 0.453 0.012 0.257 0.309 0.363 0.454 0.498 0.044-9e-3 0.041-5e-3 0.064-0.022m0.583-1.016c0.093-0.045 0.125-0.187 0.195-0.258-2e-3 -0.117-0.019-0.146-0.108-0.173-0.034-0.031-0.456 0.182-0.281 0.388l0.065 0.066c0.059-1e-3 0.099-1e-3 0.129-0.023m-0.647-2.829c-0.035-0.036-0.052-0.092-0.087-0.13-0.042-0.032-0.126-0.034-0.173-0.064-0.057 0.019-0.079 0.04-0.129 0.064-0.033 0.179 0.015 0.478 0.065 0.649h0.107c0.076-0.146 0.176-0.349 0.217-0.519m-0.022 1.339c-0.037-0.017-0.067-0.01-0.108 0.022-0.108 0.087-0.297 0.563-0.389 0.713-0.166 0.271-0.411 0.479-0.583 0.734-0.075 0.111-0.288 0.312-0.259 0.433 0.016 0.154 0.111 0.157 0.194 0.237 0.217-0.095 0.321-0.256 0.454-0.432 0.079-0.105 0.218-0.178 0.324-0.26 0.284-0.214 0.52-0.66 0.929-0.734 0.013-0.059 0.035-0.119 0-0.173-0.043-0.083-0.145-0.096-0.217-0.151-0.13-0.097-0.185-0.33-0.345-0.389m1.123 0.281c0.084 3e-3 0.209 0.012 0.259-0.021 0.156-0.018 0.101-0.092 0.195-0.151-0.114-0.088-0.302-0.054-0.454-0.109-0.184-0.065-0.337-0.251-0.432-0.41-0.06-0.101-0.14-0.407-0.086-0.583 0.019-0.063 0.122-0.148 0.086-0.259-0.015-0.046-0.059-0.067-0.108-0.087-0.022-0.017-5e-3 -7e-3 -0.043-0.021-0.091 0.096-0.204 0.17-0.259 0.303-0.136 0.325 0.099 0.962 0.281 1.101 0.156 0.119 0.422 0.136 0.561 0.237m1.058-1.167v-0.344c-0.043-0.051-0.086-0.102-0.129-0.152-0.156-0.017-0.759-9e-3 -0.864 0.086-0.194 0.067-0.294 0.479-0.173 0.713 0.071 0.139 0.225 0.191 0.346 0.281 0.327-1e-3 0.58-0.194 0.713-0.388 0.049-0.072 0.043-0.141 0.107-0.196m-0.41 1.578c0.114-7e-3 0.328-0.011 0.41-0.065 0.21 0.013 0.386-0.131 0.238-0.303-0.03-0.083-0.074-0.078-0.129-0.129-0.14 0.022-0.505 0.321-0.562 0.432h-0.022zm2.657-2.311c0.321-0.111 0.713-0.148 1.036-0.238 0.255-0.071 0.609-0.012 0.843-0.108 0.015-0.044 0.028-0.087 0.043-0.13-0.432-0.375-0.553-1.197-0.756-1.792-0.082-0.243-0.021-0.643-0.173-0.821-0.016-0.014-0.048-0.028-0.064-0.043-0.164 0.058-0.256 0.271-0.367 0.389-0.289 0.305-0.568 0.635-0.822 0.972-0.114 0.152-0.29 0.238-0.345 0.453-0.045 0.067 0.111 0.242 0.13 0.324 3e-3 0.013-0.114 0.579-0.13 0.604-6e-3 0.301-0.022 0.418 0.108 0.584 0.182-0.045 0.333-0.138 0.497-0.194m-2.657-1.62c0.022 0.059 0.031 0.047 0.065 0.086 0.455-0.012 0.943-0.113 1.339-0.216 0.165-0.043 0.315 0.075 0.453 0 0.127-0.068 0.258-0.272 0.346-0.389 0.195-0.259 0.475-0.471 0.67-0.734 0.092-0.124 0.153-0.28 0.28-0.367-5e-3 -0.098-0.022-0.104-0.043-0.173-0.716-4e-3 -1.397 9e-3 -1.987-0.13-0.314-0.074-0.742-0.021-0.972-0.173-0.125 7e-3 -0.122 0.039-0.194 0.087-0.028 0.409 0.044 0.97 0.043 1.469 0 0.181-0.096 0.427 0 0.54m4.773 0.82c0.174-0.05 0.191-0.234 0.282-0.367 0.127-0.187 0.288-0.385 0.41-0.583 0.052-0.084 0.056-0.176 0.108-0.259 0.598-0.978 1.184-2.01 1.901-2.873-0.02-0.315-0.76-0.616-1.016-0.756-0.682-0.371-1.421-0.762-2.073-1.166-0.24-0.148-0.511-0.228-0.713-0.411-0.234 0.012-0.579 0.547-0.778 0.692-0.612 0.444-1.145 0.95-1.75 1.404l-0.301 0.302c-0.126 0.094-0.736 0.507-0.778 0.605-0.018 0.036-0.01 0.067 0.022 0.108 0.115 0.127 0.384 0.058 0.583 0.108 0.147 0.037 0.342 0.094 0.497 0.13h0.216c0.514 0.116 1.259 0.158 1.792 0.043 0.192-0.042 0.344 0.019 0.475-0.066 0.202-0.129 0.471-0.629 0.626-0.841 0.312-0.427 0.705-0.803 1.059-1.189 0.124 3e-3 0.166 0.036 0.194 0.13 0.063 0.161-0.181 0.33-0.259 0.432-0.31 0.412-0.693 0.792-0.994 1.21-0.092 0.129-0.225 0.307-0.28 0.454-0.079 0.211 0.051 0.494 0.086 0.626 0.103 0.385 0.1 0.733 0.217 1.101 0.037 0.117 0.114 0.238 0.15 0.346 0.102 0.299 0.137 0.613 0.324 0.82m0.951-0.259c1.118-0.09 2.114-0.666 2.721-1.274-5e-3 -0.284-0.113-0.462-0.173-0.691 8e-3 -0.165 0.015-0.331 0.022-0.497-0.058-0.065-0.115-0.129-0.173-0.195-0.086 0.013-0.126 0.037-0.173 0.087l-0.129 0.432c-0.084 0.19-0.265 0.354-0.388 0.518-0.187 0.246-0.6 0.469-0.908 0.583-0.115 0.022-0.23 0.043-0.345 0.066-0.272 0.154-0.353 0.555-0.562 0.777 6e-3 0.136 0.042 0.128 0.108 0.194m2.008 3.197c0.071 0.21 0.099 0.423 0.152 0.627 0.03 0.115-0.011 0.256 0.043 0.344 7e-3 0.147 0.058 0.145 0.13 0.217 0.259-0.047 0.467-0.295 0.604-0.475 0.087-0.086 0.173-0.173 0.26-0.259 0.179-0.257 0.258-0.533 0.41-0.821 0.164-0.312 0.36-0.638 0.476-1.015 0.047-0.157-0.158-0.704-0.196-0.864-0.068-0.293 0.088-0.452 0.087-0.713-0.215-0.218-0.483-0.429-0.648-0.692-0.059 1e-3 -0.099 1e-3 -0.129 0.023-0.128 0.064-0.125 0.305-0.173 0.453-0.148 0.456-0.169 1.009-0.173 1.577-1e-3 0.156-0.039 0.641 0.022 0.734 3e-3 0.164 9e-3 0.352-0.043 0.454-0.276-0.02-0.301-0.612-0.303-0.929-3e-3 -0.437-0.07-0.942 0.021-1.361 0.037-0.166 0.02-0.376 0.066-0.562 0.037-0.154 0.084-0.266 0.086-0.475-0.216 2e-3 -0.599 0.261-0.692 0.389-0.054 0.076-0.06 0.173-0.107 0.259-0.116 0.211-0.203 0.35-0.281 0.627-0.214 0.755 0.205 1.911 0.388 2.462m-0.064-6.371c0.066 0.012 0.148 0.028 0.194 0.064 0.059-1e-3 0.099-1e-3 0.13-0.021 0.037-0.015 0.021-4e-3 0.043-0.022 0.024-0.029 0.033-0.062 0.043-0.108-0.07-0.072-0.157-0.321-0.303-0.238-0.085 0.029-0.129 0.081-0.15 0.173-0.03 0.026 0.022 0.108 0.043 0.152m-0.281 0.28c-0.071 0.066-0.18 0.094-0.238 0.173-0.229 0.313-0.344 0.731-0.604 1.015 8e-3 0.08 0.016 0.08 0.043 0.129h0.108c0.196-0.203 0.48-0.331 0.648-0.561 0.081-0.112 0.185-0.45 0.259-0.519-0.015-0.095-0.048-0.128-0.086-0.194-0.043-0.014-0.086-0.028-0.13-0.043m-4.493-3.693c5e-3 0.049 4e-3 0.06 0.022 0.086 0.012 0.12 0.048 0.111 0.108 0.172h0.108c0.014-0.013 0.029-0.028 0.043-0.043-2e-3 -0.054-2e-3 -0.08-0.022-0.107-0.034-0.092-0.125-0.118-0.216-0.151-0.014 0.013-0.028 0.028-0.043 0.043m-0.108-0.799c0.279 0.372 0.693 0.575 1.059 0.863 0.21 0.167 0.482 0.243 0.713 0.389 0.315 0.2 0.66 0.428 1.015 0.584 0.24 0.104 0.47 0.188 0.691 0.323 0.234 0.144 0.477 0.346 0.713 0.476 0.177 0.098 0.355 0.148 0.518 0.258 0.206 0.142 0.468 0.374 0.605 0.584 0.175 0.267 0.243 0.565 0.561 0.691 0.396-0.389 1.261-0.532 1.815-0.173 0.084 0.055 0.142 0.154 0.215 0.217 0.105 0.087 0.213 0.159 0.26 0.301 0.27 0.423-0.288 1.15-0.454 1.318 0.021 0.46 0.732 0.967 1.102 1.101 0.139 0.052 0.354 0.012 0.475 0.087 0.782 4e-3 1.332-0.154 1.555-0.691 0.091-0.218-0.059-0.389 0-0.626 0.051-0.204 0.196-0.272 0.303-0.411 0.345-0.038 0.579-4e-3 0.841 0.151 0.12 0.07 0.34 0.253 0.54 0.216 0.54-0.098 0.809-0.633 1.146-0.95-0.026-0.24-0.353-0.343-0.519-0.453-0.149-0.1-0.32-0.145-0.497-0.238-0.322-0.171-0.676-0.4-1.037-0.54-0.221-0.087-0.417-0.103-0.626-0.195-0.978-0.426-2.15-0.695-3.218-1.058-0.123-0.042-0.213-5e-3 -0.345-0.043-0.26-0.074-0.592-0.189-0.843-0.259h-0.216c-0.21-0.06-0.506-0.19-0.713-0.259h-0.151c-0.157-0.05-0.366-0.125-0.519-0.173-0.1-8e-3 -0.201-0.015-0.301-0.021-0.638-0.186-1.3-0.416-1.923-0.627-0.79-0.269-1.515-0.529-2.225-0.842-0.23-0.103-0.48-0.181-0.647-0.346-0.077 7e-3 -0.073 1e-3 -0.109 0.043-0.057 0.06 0.177 0.25 0.216 0.303m-0.54 1.403c-0.046 0.16-0.17 0.234-0.259 0.346-0.253-0.01-0.48-0.197-0.777-0.108-0.47 0.141-1.091 0.986-0.691 1.598h0.151c0.123-0.159 0.335-0.288 0.497-0.41 0.05-0.058 0.101-0.115 0.15-0.173 0.246-0.186 0.466-0.396 0.713-0.583 0.058-0.064 0.115-0.13 0.173-0.194 0.167-0.122 0.443-0.248 0.519-0.454h0.021c-0.012-0.417-0.34-0.633-0.475-0.951-0.093-0.219-0.111-0.635-0.238-0.82-7e-3 -0.021-0.014-0.043-0.021-0.065-0.292-8e-3 -0.194 0.255-0.346 0.432 0.019 0.241 0.16 0.246 0.26 0.389 0.122 0.176 0.155 0.355 0.237 0.583 0.032 0.09 0.128 0.267 0.086 0.41m8.834 6.415c0.321 0.131 0.713 0.175 1.059 0.26 0.184 0.045 0.349-5e-3 0.475 0.086 1.505-7e-3 2.484-0.311 3.348-0.95 0.171-0.127 0.412-0.243 0.54-0.411 0.112-0.148 0.272-0.327 0.346-0.497 0.114-0.267 0.136-0.565 0.301-0.777-0.038-0.23-0.237-0.368-0.344-0.54-0.056 2e-3 -0.08 2e-3 -0.109 0.021-0.08 0.032-0.387 0.542-0.497 0.648-0.163 0.161-0.689 0.527-1.08 0.433-0.214-0.053-0.358-0.163-0.517-0.26-0.103-0.062-0.232-0.078-0.325-0.151-0.075 5e-3 -0.091 7e-3 -0.13 0.043-0.069 0.03-0.057 0.066-0.107 0.108 0.023 0.231 0.074 0.465 0 0.67-0.066 0.18-0.214 0.293-0.346 0.41-0.2 0.179-0.414 0.351-0.691 0.454-0.929 0.341-2.222-0.235-2.592-0.734-0.117-0.158-0.461-0.69-0.324-0.995 0.105-0.233 0.682-0.632 0.41-1.014-0.08-0.236-0.709-0.513-1.145-0.389-0.247 0.069-0.689 0.578-0.625 0.95 0.219 1.307 1.261 2.192 2.353 2.635m-0.475 1.49c0.505 0.505 1.099 0.843 1.836 1.123 0.239 0.091 0.449 0.118 0.692 0.217 0.126 0.051 0.287 0.149 0.41 0.195 0.172 0.062 0.312 0.065 0.432 0.172 0.044-8e-3 0.042-5e-3 0.065-0.022 0.05-0.016 0.048-0.023 0.086-0.043 0-0.762-0.296-1.374-0.605-1.836-0.12-0.18-0.206-0.383-0.411-0.475-0.239-0.108-0.55-0.068-0.863-0.087-0.165-9e-3 -0.297-0.057-0.454 0-0.014 0.038-4e-3 0.022-0.022 0.043 0.039 0.193 0.252 0.33 0.389 0.433 0.151 0.15 0.303 0.302 0.454 0.453 0.213 0.159 0.394 0.301 0.583 0.476-0.02 0.107-0.069 0.111-0.13 0.173-0.366-0.014-0.471-0.26-0.691-0.411-0.489-0.339-0.94-0.74-1.274-1.231-0.204-0.299-0.334-0.262-0.648-0.433-0.072-0.039-0.186-0.16-0.259-0.128-0.074 0.012-0.067 0.025-0.13 0.042-0.119 0.608 0.253 1.053 0.54 1.339m-0.108 2.269c0.153-4e-3 0.311-0.056 0.433 0 0.387 0.176 0.588 0.948 0.54 1.403v0.476c-0.057 0.192-0.228 0.404-0.433 0.453-0.134-0.144-0.146-0.299-0.259-0.453-0.065-0.051-0.13-0.101-0.194-0.152-0.757-7e-3 -0.846 0.768-0.497 1.253 0.06 0.084 0.222 0.201 0.324 0.238 0.087 0.031 0.19 2e-3 0.259 0.043 0.634 6e-3 0.697-0.112 1.037-0.368 0.095-0.071 0.204-0.153 0.259-0.258 0.097-0.188 0.103-0.369 0.173-0.583 0.082-0.252 0.163-0.632 0.065-0.973-0.222-0.768-0.539-1.284-0.907-1.879-0.042-0.067-0.109-0.174-0.13-0.237-0.036-0.107 8e-3 -0.183-0.043-0.259-0.144-0.216-0.484-0.261-0.648-0.454h-0.043c-1e-3 0.177 0.069 0.35 0.043 0.497-0.058 0.322-0.126 0.714-0.13 1.058 0.051 0.052 0.113 0.133 0.151 0.195m6.696-4.579c0.14-7e-3 0.225-0.063 0.259-0.173 0.052-0.073 0.104-0.432 0.043-0.519v-0.043h-0.129c-0.021 0.01-0.3 0.507-0.324 0.562 0.053 0.051 0.102 0.119 0.151 0.173m3.045-4.989c0.341-0.081 0.79-0.144 1.016-0.346-0.01-0.315-0.289-0.477-0.433-0.67-0.319-0.432-0.797-0.791-1.296-1.037-0.346-0.171-0.849-0.263-1.08-0.54-0.219 7e-3 -0.381 0.087-0.517 0.173-0.015 0.038-5e-3 0.021-0.022 0.044 0.06 0.624 0.883 1.02 1.382 1.23 0.378 0.16 0.802 0.191 1.123 0.389-8e-3 0.099-0.029 0.112-0.064 0.173-0.159 0.031-0.661-0.029-0.778-0.108-0.074 0.013-0.067 0.026-0.13 0.043 0.018 0.326 0.281 0.454 0.432 0.649 0.045 7e-3 0.042 4e-3 0.065 0.021 0.076-0.025 0.202 2e-3 0.302-0.021m-22.095-2.139c-0.445 0.14-1.086 0.875-1.318 1.253-0.14 0.226-0.183 0.465-0.281 0.734-0.113 0.315-0.189 0.806-0.043 1.145 0.062 0.144 0.209 0.361 0.346 0.431 0.094 0.05 0.219 0.032 0.302 0.087h0.368c0.068-0.073 0.124-0.163 0.194-0.238 2e-3 -0.62-0.385-0.879-0.734-1.145-0.024-0.761 0.773-1.727 1.166-2.203zm-1.015-0.864c-0.165-0.074-0.375-0.194-0.519-0.302-0.111-0.084-0.174-0.24-0.281-0.324-0.087-0.07-0.191-0.105-0.28-0.173-0.06 0-0.1 1e-3 -0.13 0.021-0.108 0.037-0.13 0.116-0.194 0.195-7e-3 0.547 0.355 0.795 0.777 0.907 0.16 0.043 0.386-0.014 0.518 0.064 0.261-1e-3 0.504-0.028 0.713-0.043l0.022-0.021c-0.012-0.26-0.435-0.239-0.626-0.324m24.147 0.928c-0.274-0.127-0.458-0.368-0.777-0.453-0.222-0.058-0.585 1e-3 -0.778 0.022 0 0.041-0.024 0.144-0.022 0.151 0.017 0.056 0.164 0.079 0.216 0.107 0.161 0.09 0.328 0.201 0.497 0.303 0.452 0.276 0.774 0.763 1.08 1.188 0.082 0.114 0.322 0.375 0.28 0.518-0.058 0.335-0.919 0.475-1.273 0.562-0.172 0.042-0.325-7e-3 -0.433 0.087-0.106 0.146 0.064 0.34 0.109 0.474 0.11 0.338 0.249 0.973 0.151 1.405-0.061 0.27-0.072 0.597-0.173 0.842-0.517 1.257-1.401 1.942-2.83 2.289-0.268 0.066-0.447-0.101-0.69-0.108-0.483 0.48-1.187 0.748-1.859 1.037-0.258 0.072-0.517 0.145-0.777 0.216-0.125 7e-3 -0.122 0.038-0.194 0.087 0.031 0.278 0.287 0.449 0.388 0.669 0.065 0.139 0.135 0.296 0.173 0.432v0.281c0.127 0.411 0.332 0.971 0.324 1.49-0.065 0.061-0.128 0.206-0.302 0.151-0.144-0.086-0.288-0.173-0.432-0.258-0.273-0.122-0.58-0.225-0.843-0.325-0.337-0.128-0.856-0.212-1.123-0.41-0.096 0.01-0.092 0.028-0.15 0.065 0.014 0.196 0.33 0.707 0.431 0.864 0.171 0.264 0.269 0.733 0.368 1.058 0.073 0.242-0.023 0.772-0.066 0.951-0.191 0.811-0.574 1.327-1.36 1.554-0.145 0.042-0.442 0.121-0.67 0.066-0.855-0.212-1.437-1.137-0.842-1.966 0.169-0.236 0.514-0.453 0.95-0.346 0.104 0.026 0.155 8e-3 0.216 0.065 0.069-0.01 0.082-0.022 0.13-0.043 0.045-0.198 0.03-0.646-0.108-0.799-0.11-0.265-0.251-0.05-0.453-0.108-0.124-0.036-0.299-0.163-0.368-0.259-0.319-0.449-5e-3 -1.067 0-1.599-0.025-0.024-0.047-0.055-0.064-0.086-0.202 0.017-0.161 0.167-0.238 0.302-0.08 0.142-0.198 0.274-0.281 0.41-0.043 0.07-0.043 0.147-0.087 0.217-0.278 0.451-0.596 0.855-1.08 1.101-0.159 0.081-0.352 0.075-0.496 0.173-0.132-0.018-0.173-0.074-0.259-0.13-0.121-0.301 0.019-0.742-0.086-1.08-0.207-0.659-0.612-1.49-0.54-2.311 0.028-0.33-0.07-0.793 0.107-1.036-2e-3 -0.12-0.023-0.128-0.064-0.195-0.185 4e-3 -0.262 0.069-0.389 0.108-0.239 0.074-0.536 0.077-0.778 0.13-0.165 0.036-0.304-0.097-0.432-0.022-0.343 0.072-0.3 0.61-0.626 0.735-0.177 0.067-0.341 0.05-0.497 0.085h-0.323c-0.623 0.15-1.243 0.227-1.707 0.519-0.039 0.226 0.083 0.706 0.172 0.907 0.278 0.619 0.605 1.156 0.8 1.879 0.059 0.22 0.019 0.534-0.022 0.713v0.26c-0.086 0.332-0.212 0.602-0.453 0.777-0.493 0.355-1.447 0.071-1.706-0.324-0.072-0.107-0.066-0.207-0.109-0.346-0.044-0.142-0.146-0.393-0.086-0.626 0.087-0.337 0.243-0.548 0.453-0.756-8e-3 -0.213-0.218-0.485-0.388-0.54-0.119-0.073-0.421 0.036-0.54 0.065-0.303 0.071-0.541 0.05-0.756 0.194-0.225 0.152-0.299 0.512-0.432 0.756-0.048 0.087-0.147 0.174-0.194 0.26-0.067 0.118-0.083 0.228-0.152 0.345-0.155 0.266-0.416 0.557-0.518 0.864-0.059 0.177 0.049 0.288 0 0.475-0.029 0.115-0.109 0.249-0.173 0.346-0.208 0.312-0.477 0.489-0.777 0.713-0.116 0.129-0.231 0.259-0.346 0.389-0.462 0.343-0.882 0.725-1.383 1.036-0.064 0.021-0.129 0.044-0.194 0.065-0.142 0.062-0.289 0.177-0.432 0.237-0.108 0.029-0.216 0.058-0.324 0.086-0.184 0.118-0.178 0.45-0.28 0.649-0.149 0.287-0.49 0.636-0.8 0.756-0.236 0.091-0.592-0.047-0.82 0.043-0.048 0.019-0.101 0.089-0.152 0.108-0.164 0.065-0.344 0.058-0.475 0.151-0.086 0.094-0.172 0.187-0.259 0.281-0.079 0.053-0.307 0.171-0.389 0.194-0.441 0.13-0.986-0.199-1.123-0.389-0.213-0.293-0.351-1.081-0.108-1.447 0.183-0.276 0.494-0.412 0.605-0.777-8e-3 -0.13-0.014-0.259-0.022-0.389 0.065-0.29 0.265-0.604 0.475-0.756 0.12-0.087 0.308-0.197 0.453-0.237 0.152-8e-3 0.303-0.015 0.455-0.023l0.172-0.128c0.152-0.745 0.335-1.387 0.692-1.923 0.217-0.326 0.556-0.584 0.777-0.908 0.074-0.108 0.032-0.267 0.086-0.41 0.048-0.126 0.448-0.52 0.562-0.604 0.182-0.135 0.42-0.073 0.584-0.173 0.064-0.064 0.129-0.13 0.194-0.194 0.299-0.218 0.602-0.448 0.907-0.649 0.398-0.262 0.88-0.457 1.275-0.713 0.036-0.295 0.017-0.841-0.152-1.014-0.21-0.214-0.582-0.271-0.8-0.476-0.219 0.027-0.182 0.181-0.28 0.324-0.105 0.156-0.528 0.458-0.843 0.389-0.06-0.013-0.218 4e-3 -0.301-0.022-0.309-0.093-0.643-0.312-0.8-0.561-0.071-0.111-0.063-0.228-0.108-0.367-0.178-0.547-0.051-1.002 0.238-1.382 0.108-0.144 0.369-0.272 0.561-0.324h0.238c1.033-0.262 2.255 0.287 3.024 0.604 0.242 0.101 0.848 0.187 1.015 0.324 0.166-2e-3 0.184-0.048 0.281-0.108 0.088-0.459 0.08-1.955-0.109-2.332-0.143-0.289-0.369-0.563-0.474-0.907-0.321-1.049-0.042-2.559 0.345-3.305 0.106-0.204 0.133-0.427 0.281-0.583-1e-3 -0.067-8e-3 -0.111-0.022-0.151-0.324 0.042-0.551 0.28-0.756 0.453-0.357 0.304-0.689 0.618-0.95 1.015-0.071 0.108-0.082 0.233-0.151 0.346-0.052 0.083-0.151 0.17-0.194 0.259-0.047 0.092-0.033 0.202-0.087 0.281 0.02 0.28 0.221 0.289 0.345 0.453 0.158 0.209 0.295 0.417 0.368 0.713 0.034 0.138-0.041 0.254-0.065 0.346-0.035 0.133-0.021 0.227-0.087 0.323-0.219 0.327-0.954 0.453-1.382 0.217-0.134-0.075-0.193-0.221-0.281-0.346-0.213-0.303-0.346-0.538-0.346-1.08v-0.303c0.277-0.933 0.719-1.64 1.34-2.224-5e-3 -0.056-0.01-0.073-0.021-0.108-0.157-0.029-0.322 0.039-0.497 0-0.639-0.143-1.061-0.282-1.339-0.778-0.16-0.284-0.176-0.794 0.086-0.993 0.612-0.465 1.144 0.377 1.533 0.583 0.197 0.104 0.38 0.102 0.627 0.173 0.112 0.032 0.695 0.1 0.82 0.021 0.132-1e-3 0.159-0.024 0.238-0.064 4e-3 -0.057 9e-3 -0.073 0.022-0.109-0.646-0.274-1.23-0.55-1.793-0.907-0.1-0.062-0.165-0.173-0.26-0.237-4e-3 -0.593 0.812-1.054 1.232-1.253 0.215-0.103 0.515-0.026 0.583-0.28-0.635-0.587-1.046-1.24-1.425-2.096-0.142-0.317-0.336-0.734-0.324-1.188 0.043-0.041 0.095-0.102 0.13-0.151 0.308-7e-3 0.619-0.015 0.928-0.021 0.202 0.047 0.476 0.026 0.691 0.086 0.252 0.07 0.544 0.171 0.778 0.259 0.26 0.098 0.568 0.132 0.756 0.302 0.094 6e-3 0.18 0.018 0.216-0.043 0.017-0.022 7e-3 -5e-3 0.021-0.043-0.654-0.624-0.802-1.597-1.037-2.656-0.076-0.345 0.087-1.265 0.194-1.426 0.072-0.106 0.21-0.152 0.303-0.237 0.521-7e-3 0.779 0.353 0.886 0.756 0.083 0.314 0.018 0.629 0.086 0.928v0.432c0.048 0.193 0.102 0.457 0.151 0.648 0.059 0.231 0.018 0.398 0.087 0.605 0.084 0.253 0.201 0.508 0.302 0.734 0.082-6e-3 0.098-0.019 0.151-0.043 0.048-0.245-0.062-0.523 0-0.799 0.045-0.198 0.085-0.403 0.13-0.583v-0.173c0.267-0.862 0.835-1.755 1.382-2.355 0.338 6e-3 0.505 0.374 0.648 0.584 0.463 0.676 0.742 1.431 1.08 2.246 0.09 0.218 0.152 0.492 0.195 0.735 0.016 0.093 0.051 0.268 0 0.345-1e-3 0.12-0.017 0.271 0.129 0.238 0.065-0.065 0.13-0.13 0.194-0.195 0.247-0.186 0.521-0.404 0.734-0.627 0.637-0.661 1.354-1.284 2.096-1.836 0.477-0.353 0.807-0.835 1.663-0.82 0.142 0.149 0.331 0.264 0.497 0.389 0.261 0.197 0.554 0.575 0.756 0.843 0.094 0.079 0.187 0.158 0.28 0.237 0.095 0.094 0.157 0.192 0.239 0.303 0.143 0.136 0.287 0.273 0.431 0.41 0.353-0.022 0.553-0.372 0.778-0.54 0.367-0.276 0.713-0.567 1.08-0.843 0.136-0.103 0.25-0.264 0.388-0.367 0.247-0.184 0.47-0.377 0.713-0.562 0.079-0.086 0.159-0.173 0.238-0.259 0.986-0.68 1.879-1.439 2.851-2.138l0.194-0.195c0.267-0.197 0.535-0.366 0.799-0.561 0.051-0.05 0.101-0.101 0.152-0.151 0.193-0.127 0.455-0.148 0.647-0.281 0.142 3e-3 0.176 0.037 0.26 0.086 0.067 0.362-0.174 0.583-0.324 0.8-0.344 0.494-0.685 0.993-1.015 1.49-0.118 0.177-0.241 0.343-0.346 0.519-0.044 0.072-0.04 0.147-0.087 0.216-0.075 0.11-0.207 0.207-0.28 0.323-0.162 0.26-0.265 0.525-0.432 0.778-0.082 0.125-0.218 0.243-0.302 0.367-0.196 0.288-0.336 0.583-0.54 0.864-0.071 0.096-0.193 0.181-0.26 0.281l-0.064 0.173c-0.183 0.293-0.405 0.572-0.605 0.864-0.312 0.453-0.725 0.863-1.037 1.317-0.095 0.137-0.157 0.28-0.259 0.411 0.021 0.334 0.542 0.737 0.691 1.037 0.081-8e-3 0.081-0.018 0.129-0.044-5e-3 -0.279-0.112-0.605-0.043-0.907 0.235-1.021 0.787-1.708 1.707-2.052 0.316-0.118 0.918-0.281 1.317-0.108 0.3 0.13 0.769 0.593 0.864 0.929 0.189 0.67-0.46 1.331-1.123 1.166-0.23-0.058-0.401-0.211-0.561-0.346-0.169 0.028-0.26 0.161-0.411 0.216-0.144 0.053-0.311 0.034-0.432 0.109-0.273 0.166-0.463 0.691-0.367 1.144 0.052 0.248-0.019 0.487 0.108 0.649 0.025 0.08 0.058 0.114 0.151 0.128 0.089 0.034 0.337-0.132 0.454-0.172 0.201-0.069 0.402-0.105 0.604-0.151h0.26c0.222-0.052 0.646-0.134 0.95-0.065 0.336 0.076 0.726 0.097 1.037 0.216 0.404 0.155 0.777 0.459 1.123 0.691-7e-3 0.379-0.245 0.664-0.389 0.929-0.075 0.137-0.122 0.315-0.238 0.41 7e-3 0.082 0.02 0.099 0.044 0.151 0.187 0.032 0.379-0.047 0.562-0.086 0.136 7e-3 0.273 0.015 0.41 0.022 0.048-0.011 0.178-0.043 0.259-0.022 0.52 0.136 0.814 0.337 0.994 0.821 0.051 0.136 0.064 0.396 0 0.54-0.145 0.318-0.794 0.613-1.275 0.388" fill="#231f20" fill-rule="evenodd"/></g></g></g></svg>
