<?xml version="1.0" encoding="UTF-8"?>
<svg version="1.1" viewBox="0 0 128 128" xml:space="preserve" xmlns="http://www.w3.org/2000/svg" xmlns:cc="http://creativecommons.org/ns#" xmlns:dc="http://purl.org/dc/elements/1.1/" xmlns:rdf="http://www.w3.org/1999/02/22-rdf-syntax-ns#"><metadata><rdf:RDF><cc:Work rdf:about=""><dc:format>image/svg+xml</dc:format><dc:type rdf:resource="http://purl.org/dc/dcmitype/StillImage"/><dc:title/></cc:Work></rdf:RDF></metadata><g transform="translate(-8.2085 -9.9068)"><g transform="matrix(3.0264 0 0 -3.0264 -64.109 429.68)"><g transform="translate(46.342 122.19)"><path d="m0 0c0.017 0.101 0.033 0.195 0.06 0.281 0.04 0.125 0.05 0.243 0.041 0.358 0.035-0.169 0.044-0.334-1e-3 -0.472-0.015-0.045-0.068-0.157-0.114-0.256-1e-3 -2e-3 -2e-3 -4e-3 -3e-3 -5e-3 6e-3 0.032 0.012 0.063 0.017 0.094m2.046-17.532c-0.052 0-0.101 7e-3 -0.148 0.024-0.113 0.038-0.314 0.189-0.461 0.393-0.093 0.127-0.236 0.377-0.154 0.617 0.027 0.081 0.052 0.18 0.078 0.286 0.037 0.147 0.078 0.315 0.135 0.462 0.041 0.106 0.11 0.237 0.184 0.375 0.249 0.467 0.59 1.106 0.4 1.849-0.055 0.213-0.155 0.362-0.244 0.494-0.024 0.036-0.048 0.072-0.071 0.108-0.043 0.071-0.083 0.181-0.121 0.287-0.057 0.161-0.117 0.328-0.218 0.455-0.054 0.067-0.124 0.097-0.175 0.118-6e-3 2e-3 -0.012 5e-3 -0.018 7e-3 -0.343 0.466-0.607 1.043-0.694 1.519v0.606c0.02 0.101 0.037 0.214 0.056 0.331 0.043 0.271 0.091 0.578 0.183 0.84 0.023 0.066 0.051 0.139 0.08 0.219 0.154 0.412 0.346 0.925 0.29 1.261-0.022 0.13-0.012 0.259-3e-3 0.384 0.013 0.176 0.026 0.357-0.048 0.532-0.042 0.097-0.116 0.19-0.18 0.272-0.034 0.042-0.068 0.086-0.087 0.116l-0.028 0.046c-0.196 0.318-0.463 0.754-0.909 0.849l-0.272 0.057v-0.44l0.063-0.065c0.09-0.094 0.122-0.211 0.165-0.375 0.028-0.105 0.06-0.224 0.114-0.35 0.124-0.288 0.181-0.734 0.044-0.994-5e-3 -5e-3 -0.024-0.022-0.042-0.041-0.057-0.059-0.116-0.119-0.148-0.196l-0.016-0.04v-0.248c-0.087-0.185-0.248-0.399-0.391-0.589-0.052-0.068-0.1-0.133-0.143-0.192l-0.032-0.045-0.04-0.276c-0.042-0.1-0.079-0.203-0.115-0.303-0.03-0.079-0.059-0.16-0.09-0.236l-0.031 0.052c-0.016 0.037-0.031 0.191-0.04 0.292-0.017 0.175-0.034 0.356-0.086 0.498-0.07 0.195-0.196 0.37-0.308 0.525-0.066 0.093-0.129 0.18-0.174 0.262-0.037 0.067-0.08 0.161-0.106 0.228l0.039 0.155-0.034 0.072c-0.032 0.067-0.082 0.095-0.118 0.116-2e-3 0-3e-3 1e-3 -5e-3 2e-3 -0.065 0.231-6e-3 0.476 0.042 0.676 9e-3 0.038 0.018 0.074 0.025 0.107 0.02 0.092 4e-3 0.175-9e-3 0.242-0.01 0.052-0.016 0.088-8e-3 0.105 0.036 0.075 0.102 0.157 0.172 0.245 0.082 0.104 0.168 0.211 0.225 0.332l0.082 0.175-0.161 0.108c-0.158 0.106-0.198 0.401-0.156 0.637 3e-3 0.012 0.013 0.031 0.023 0.052 0.032 0.061 0.091 0.175 0.039 0.316-0.059 0.171-0.161 0.313-0.259 0.451-0.076 0.104-0.147 0.204-0.195 0.31v0.314c0 0.473 0.066 0.656 0.216 0.886 0.018 0.028 0.043 0.054 0.071 0.084 0.075 0.079 0.178 0.187 0.214 0.397l0.017 0.103-0.067 0.08c-0.092 0.109-0.06 0.252 0.031 0.529 0.034 0.106 0.071 0.217 0.091 0.331l0.016 0.093c0.041-0.024 0.087-0.043 0.137-0.056l0.166-0.044 0.085 0.148c3e-3 0 0.015 3e-3 0.04 3e-3 0.112 0 0.273-0.064 0.369-0.102 0.082-0.033 0.127-0.051 0.184-0.051h0.137l0.039 0.071c0.031 0.024 0.059 0.049 0.084 0.076-5e-3 -0.016-8e-3 -0.032-0.01-0.047l-3e-3 -3e-3c-0.054-0.05-0.136-0.126-0.173-0.286l-0.027-0.113 0.078-0.088c0.083-0.094 0.066-0.165-0.043-0.399-0.045-0.095-0.092-0.194-0.117-0.301l-0.044-0.194 0.187-0.068c0.02-7e-3 0.021-9e-3 0.034-0.018 0.043-0.034 0.093-0.069 0.204-0.097l0.244-0.061 0.034 0.249c8e-3 0.065 0.034 0.104 0.072 0.165 0.033 0.051 0.07 0.11 0.097 0.187l9e-3 0.026 0.036 0.397c0.065 0.183 0.176 0.372 0.284 0.556 0.07 0.12 0.143 0.245 0.201 0.366l0.023 0.046v0.144c0.205 0.417 0.576 0.951 0.847 1.275 0.074 0.088 0.14 0.202 0.209 0.322 0.106 0.185 0.252 0.439 0.384 0.466l0.18 0.036v0.176c0.138 0.108 0.267 0.251 0.402 0.401 0.196 0.218 0.417 0.464 0.606 0.503l0.18 0.037v0.147c0.122 0.073 0.216 0.169 0.295 0.252 0.053 0.055 0.103 0.107 0.152 0.142 0.036 0.026 0.081 0.044 0.134 0.066 0.067 0.026 0.142 0.057 0.221 0.111 0.085 0.058 0.162 0.132 0.236 0.203 0.075 0.071 0.151 0.144 0.22 0.185 0.035 0.021 0.075 0.031 0.129 0.043 0.075 0.019 0.168 0.041 0.268 0.102l0.071 0.042 0.025 0.078c0.057 5e-3 0.133 0.012 0.211 0.05 0.065 0.032 0.131 0.081 0.194 0.128 0.037 0.028 0.083 0.061 0.113 0.079 3e-3 -1e-3 7e-3 -2e-3 0.01-3e-3 0.03-8e-3 0.071-0.02 0.122-0.02 0.049 0 0.096 0.012 0.139 0.034l0.083 0.041 0.036 0.108c0.286 0.14 0.611 0.247 0.927 0.352 0.099 0.032 0.197 0.065 0.294 0.099 0.165 0.056 0.378 0.095 0.566 0.128 0.07 0.012 0.137 0.025 0.199 0.037l0.333-0.037 0.043 0.012c0.252 0.073 0.467 0.111 0.621 0.111 0.04 0 0.075-3e-3 0.104-8e-3l0.02-4e-3h0.497l0.101-0.025c0.233-0.058 0.494-0.123 0.699-0.238l0.144-0.241h0.197c0.066-0.061 0.178-0.195 0.248-0.297 0.131-0.193 0.173-0.59 0.115-0.78-0.01-0.029-0.069-0.107-0.105-0.155-0.12-0.161-0.257-0.344-0.175-0.538 0.093-0.211 0.271-0.254 0.378-0.28 0.08-0.019 0.097-0.027 0.113-0.049 0.268-0.385 0.353-1.172 0.165-1.531-8e-3 -0.016-0.041-0.042-0.071-0.067-0.073-0.058-0.173-0.138-0.228-0.281l-0.08-0.212 0.211-0.079c0.272-0.102 0.388-0.438 0.363-1.057-0.053-0.062-0.08-0.126-0.101-0.176-0.014-0.033-0.025-0.058-0.041-0.081-0.072-0.099-0.191-0.183-0.318-0.271-0.104-0.072-0.211-0.147-0.305-0.24l-0.194-0.19 0.223-0.155c0.335-0.233 0.323-0.735 0.21-1.095-0.136-0.433-0.477-0.872-0.932-0.872h-0.256l0.019-0.254c0.019-0.137 0.055-0.274 0.087-0.396l0.026-0.098c0.015-0.059-4e-3 -0.136-0.025-0.219-0.022-0.088-0.047-0.192-0.034-0.3-0.315-0.475-0.982-0.96-1.776-0.964l-0.247-2e-3 0.025-0.246c8e-3 -0.09 0.034-0.161 0.055-0.218 0.026-0.073 0.038-0.106 0.022-0.175-8e-3 -0.031-0.035-0.082-0.061-0.132-0.072-0.137-0.17-0.324-0.12-0.545 0.035-0.156 0.126-0.295 0.207-0.417 0.046-0.071 0.093-0.143 0.116-0.2l0.06-0.475c-0.04-0.067-0.075-0.138-0.062-0.224 9e-3 -0.059 0.029-0.107 0.043-0.141 6e-3 -0.014 0.015-0.034 0.016-0.04 0 0-1e-3 -7e-3 -8e-3 -0.022-0.106-0.251-0.424-0.508-0.664-0.651-0.03-0.018-0.077-0.036-0.126-0.056-0.136-0.054-0.306-0.121-0.39-0.286l-0.025-0.048v-1.086l-0.151-0.101 0.064-0.194c-0.189-0.422-0.713-0.575-1.155-0.575 0 0-0.048 1e-3 -0.073 2e-3l-0.139 5e-3 -0.067-0.122c-0.096-0.176-0.143-0.381-0.189-0.578-0.046-0.195-0.089-0.379-0.17-0.516l-0.314-0.188 0.062-0.125c-0.099-0.106-0.229-0.223-0.31-0.269-0.111-0.063-0.272-0.096-0.428-0.129-0.138-0.028-0.28-0.058-0.41-0.11l-0.076-0.031-0.039-0.074c-0.026-0.049-0.075-0.103-0.126-0.16-0.074-0.081-0.158-0.173-0.206-0.29-0.039-0.094-0.01-0.174 0.014-0.219-0.027-0.108-0.049-0.233-0.069-0.345-0.01-0.06-0.02-0.115-0.03-0.161-0.074-0.36-0.097-0.677-0.118-0.958-0.043-0.588-0.074-1.014-0.541-1.484-0.044-0.044-0.08-0.091-0.116-0.136-0.049-0.061-0.095-0.12-0.141-0.149l-0.164 0.033-0.048-0.012c-0.043-0.01-0.089-0.024-0.136-0.038-0.102-0.031-0.207-0.063-0.311-0.063" fill="#eccea0" fill-rule="evenodd"/></g><g transform="translate(41.508 115.73)"><path d="m0 0 0.072 0.792c0.321 0.586 1.137 0.954 1.08 1.8l-0.18 0.252c-0.235 0.059-0.358 0.123-0.612 0.036l-0.144 0.18c-0.087 0.057-0.19 0.013-0.288 0.072-0.105 0.062-0.058 0.197-0.108 0.324-0.108 0.277-0.321 0.471-0.648 0.54-0.03 0.585-0.149 1.142-0.144 1.764 0.535 0.049 0.822 0.622 0.396 1.008 0.036 0.107 0.072 0.215 0.108 0.324 0.096-0.049 0.192-0.096 0.288-0.144 0.769 5e-3 0.441 0.749 0.756 1.152-0.012 0.555-0.534 0.795-0.864 1.044-0.503 0.379-0.963 0.836-1.476 1.223-0.072 0.084-0.144 0.168-0.216 0.252-0.146 0.109-0.335 0.166-0.468 0.288-0.659 7e-3 -0.662-0.393-0.936-0.756l-0.108-0.036c-0.079-0.065-0.113-0.172-0.18-0.252 9e-3 -0.15 0.033-0.244 0.108-0.323v-0.073c-0.483 0.103-0.977-0.112-1.116-0.467-0.163-0.418-0.118-0.991 0.18-1.188-0.011-0.083-0.031-0.485-0.072-0.577-0.043-0.097-0.212-0.199-0.252-0.323-0.098-0.307 0.022-0.818 0.073-1.044 0.211-0.957 0.221-2.525 1.115-2.736 0.087-0.708 0.201-1.217 0.504-1.692 0.194-0.054 0.31-0.12 0.54-0.072 0.065-0.131 0.139-0.24 0.288-0.288 0.01-0.603 0.094-1.266 0.216-1.8 0.072-0.314-5e-3 -0.627 0.108-0.9 0.087-0.209 0.346-0.253 0.432-0.432 0.162-0.337 0.177-0.739 0.468-0.936 0.158-0.107 0.328-0.027 0.504-0.108 0.13-0.06 0.2-0.272 0.36-0.324 0.291-0.095 0.476 0.119 0.612 0.144 0.185 0.034 0.606-0.304 0.72-0.396 0.18 4e-3 0.697 0.133 0.792 0.216 0.113 0.042 0.147 0.098 0.18 0.216 0.206 0.329-0.108 0.943-0.18 1.188-0.378 1.275-0.303 2.066-1.908 2.052" fill="#eccea0" fill-rule="evenodd"/></g><g transform="translate(42.694 112.29)"><path d="m0 0c-0.444 0.349-0.647 0.391-0.762 0.391-0.024 0-0.047-2e-3 -0.068-6e-3 -0.078-0.014-0.144-0.051-0.209-0.086-0.073-0.04-0.143-0.078-0.216-0.078-0.025 0-0.05 4e-3 -0.077 0.013-0.023 8e-3 -0.07 0.066-0.101 0.104-0.06 0.075-0.128 0.161-0.234 0.21-0.123 0.056-0.235 0.061-0.326 0.064-0.082 3e-3 -0.118 7e-3 -0.147 0.026-0.13 0.088-0.186 0.266-0.252 0.472-0.039 0.123-0.079 0.25-0.139 0.376-0.067 0.138-0.183 0.218-0.277 0.283-0.07 0.047-0.13 0.089-0.15 0.138-0.048 0.114-0.051 0.251-0.054 0.409-3e-3 0.138-6e-3 0.294-0.043 0.454-0.122 0.538-0.201 1.193-0.21 1.753l-3e-3 0.161-0.152 0.05c-0.056 0.017-0.095 0.05-0.156 0.174l-0.077 0.155-0.171-0.035c-0.038-8e-3 -0.072-0.012-0.104-0.012-0.07 0-0.131 0.02-0.216 0.046-9e-3 3e-3 -0.018 6e-3 -0.027 9e-3 -0.251 0.425-0.349 0.888-0.428 1.528l-0.019 0.155-0.152 0.037c-0.556 0.131-0.7 1.056-0.826 1.873-0.039 0.247-0.075 0.481-0.122 0.692l-6e-3 0.025c-0.044 0.199-0.148 0.664-0.071 0.902 8e-3 0.02 0.057 0.07 0.087 0.099 0.059 0.059 0.12 0.121 0.156 0.202 0.038 0.087 0.056 0.239 0.079 0.525 4e-3 0.051 8e-3 0.092 0.01 0.112l0.019 0.14-0.118 0.078c-0.185 0.123-0.23 0.569-0.094 0.918 0.079 0.204 0.357 0.351 0.661 0.351 0.067 0 0.134-7e-3 0.199-0.02l0.271-0.059v0.44l-0.061 0.065c-0.017 0.017-0.031 0.038-0.04 0.107 0.012 0.019 0.022 0.038 0.033 0.055 0.013 0.023 0.027 0.046 0.039 0.063l0.122 0.041 0.042 0.056c0.077 0.102 0.135 0.206 0.185 0.296 0.128 0.231 0.197 0.354 0.493 0.369 0.077-0.057 0.159-0.1 0.233-0.138 0.059-0.03 0.114-0.059 0.16-0.091l0.214-0.249 0.02-0.015c0.25-0.19 0.494-0.401 0.731-0.607 0.239-0.208 0.487-0.423 0.745-0.617 0.06-0.046 0.126-0.091 0.194-0.137 0.321-0.219 0.54-0.388 0.575-0.665-0.108-0.176-0.138-0.375-0.165-0.554-0.049-0.321-0.075-0.421-0.311-0.434l-0.469 0.235-0.237-0.71 0.109-0.098c0.115-0.104 0.157-0.228 0.116-0.349-0.049-0.146-0.199-0.252-0.381-0.268l-0.203-0.019-2e-3 -0.203c-3e-3 -0.381 0.038-0.735 0.078-1.078 0.028-0.24 0.055-0.466 0.066-0.7l0.01-0.173 0.169-0.036c0.241-0.05 0.399-0.182 0.484-0.401 8e-3 -0.02 0.011-0.051 0.014-0.085 0.01-0.088 0.027-0.254 0.189-0.351 0.095-0.056 0.187-0.063 0.248-0.067 6e-3 -1e-3 0.013-1e-3 0.019-1e-3l0.203-0.254 0.15 0.051c0.061 0.021 0.111 0.031 0.158 0.031 0.063 0 0.127-0.018 0.216-0.043 0.01-3e-3 0.019-5e-3 0.029-8e-3l0.094-0.131c3e-3 -0.419-0.262-0.693-0.565-1.008-0.179-0.186-0.365-0.379-0.491-0.608l-0.022-0.041-0.099-1.087 0.289 3e-3c1.154 0 1.264-0.423 1.503-1.351 0.044-0.168 0.091-0.349 0.147-0.54 0.016-0.053 0.041-0.121 0.071-0.199 0.084-0.223 0.241-0.636 0.134-0.805l-0.017-0.028-8e-3 -0.031c-0.011-0.038-0.018-0.053-0.02-0.057l-0.061-0.024-0.031-0.026c-0.06-0.038-0.388-0.128-0.574-0.154" fill="#eccea0" fill-rule="evenodd"/></g><g transform="translate(45.001 117.82)"><path d="m0 0c0.162 3e-3 0.196 0.022 0.288 0.072-0.013 0.329-0.116 0.288-0.216 0.468-0.224 0.399-0.275 1.553 0 1.836-8e-3 0.15-0.025 0.165-0.072 0.252h-0.18c-0.374-0.403-0.588-1.3-0.288-1.98 0.156-0.216 0.312-0.432 0.468-0.648" fill="#8e4a06" fill-rule="evenodd"/></g><g transform="translate(45.612 118.32)"><path d="m0 0c-0.017-0.3 0.178-0.507 0.396-0.324 0.556 0.445 0.019 2.01-0.216 2.376h-0.18c-0.217-0.4 0.42-1.586 0-2.052" fill="#8e4a06" fill-rule="evenodd"/></g><g transform="translate(45.756 116.74)"><path d="m0 0c-0.25-0.177-0.749-0.012-0.936-0.288-0.583-0.857 0.04-2.468 0.432-3.096 0.583-9e-3 0.508 0.516 0.648 0.936 0.084 0.252 0.243 0.516 0.324 0.756 0.205 0.612 9e-3 1.51-0.468 1.692" fill="#8e4a06" fill-rule="evenodd"/></g><g transform="translate(45.253 121.56)"><path d="m0 0c-0.163-0.152-0.329-0.174-0.396-0.432-0.282-0.378 0.13-0.747 0.324-0.9 0.473 2e-3 0.616 0.244 0.828 0.504-1e-3 0.424-0.131 0.521-0.288 0.756-0.152 0.037-0.256 0.075-0.468 0.072" fill="#ffa500" fill-rule="evenodd"/></g><g transform="translate(45.792 118.5)"><path d="m0 0c0.045 0.37 0.04 1.127-0.18 1.368-0.056 0.161-0.218 0.219-0.396 0.252-0.111-0.093-0.198-0.095-0.252-0.252-0.283-0.446 0.196-1.42 0.324-1.62 0.314 6e-3 0.327 0.13 0.504 0.252" fill="#ffa500" fill-rule="evenodd"/></g><g transform="translate(45.108 117.93)"><path d="m0 0c-0.115-0.093-0.277-0.13-0.36-0.252-0.054-0.079-0.053-0.182-0.108-0.252-0.015-0.879 1.377-0.976 1.332 0.072-0.086 0.087-0.188 0.223-0.252 0.324-0.201 0.049-0.341 0.112-0.612 0.108" fill="#ffa500" fill-rule="evenodd"/></g><g transform="translate(41.904 122.1)"><path d="m0 0 0.072 0.612c0.436-0.136 0.873-1.067 1.044-1.512-0.403 0.259-0.675 0.678-1.116 0.9m-0.18-3.096h-0.072c4e-3 0.092 4e-3 0.134 0.036 0.18 0.073 0.209 0.252 0.196 0.396 0.324 0.414-2e-3 0.536-0.112 0.828-0.18-0.197-0.379-0.823-0.113-1.188-0.324m-0.612 1.836h-0.036c0.045 0.033 0.174 0.031 0.216 0.072v0.108c0.029 0.034 0.111 0.042 0.144 0.072 0.139-0.044 0.265 0.029 0.396-0.036 0.036-0.048 0.072-0.096 0.108-0.144 0.051-0.022 0.101 0.097 0.18 0.072l0.648-0.504c-0.454-0.334-1.461-0.041-1.656 0.36m2.916 0.216c-0.094 0.183-0.2 0.455-0.36 0.576-0.061 0.047-0.167 0.052-0.216 0.108-0.118 0.134-0.124 0.388-0.216 0.54-0.549 0.907-0.66 1.812-1.98 1.872-0.027-0.025-0.08-0.048-0.108-0.072-0.595-0.2-0.669-1.74 0.108-1.8-0.05-0.071-0.835-0.182-1.008-0.324-0.602-0.494-0.036-1.661 0.468-1.836-0.053-0.237-0.278-0.333-0.36-0.54-0.268-0.682 0.285-1.047 0.504-1.368 0.454-0.024 0.924 0.084 1.296 0.18 0.102 0.026 0.243-0.028 0.288-0.036 0.143-0.026 0.21 0.053 0.288 0.072 0.361 0.089 0.994-0.189 1.296 0.036 0.268 0.092 0.386 0.828 0.108 1.008l0.252 0.144c0.256 0.335-0.233 1.192-0.36 1.44" fill="#7b9933" fill-rule="evenodd"/></g><g transform="translate(49.356 120.52)"><path d="m0 0c-0.263-0.012-1.427-0.19-1.584-0.288h-0.144v0.036c0.264 0.136 0.881 0.563 1.044 0.792 0.264-4e-3 0.658-0.039 0.828 0.072h0.108c-0.101-0.17-0.155-0.416-0.252-0.612m-0.324-1.476c-0.168-0.083-0.575-0.185-0.792-0.036-0.169 0.111-0.101 0.346-0.324 0.432v0.072c0.506-5e-3 0.745-0.134 1.152-0.18l-0.036-0.288m-1.512 2.16c0.253 0.527 0.545 0.944 0.828 1.404 0.128-0.063 0.378-0.143 0.468-0.252l0.036-0.036h-0.036c-0.199-0.562-0.889-0.693-1.224-1.116zm1.188 2.844c-0.528-0.554-1.073-1.167-1.476-1.836-0.321-0.533-0.457-1.152-0.684-1.764-0.218-0.59-0.413-1.477-0.108-1.98 0.107-0.028 0.251-0.082 0.36-0.108h0.756c0.844-0.186 2.545-0.419 2.772 0.432 0.048 0.075 0.037 0.232 0.036 0.36-4e-3 0.653-0.353 0.679-0.648 1.008h-0.036c0.09 0.168 0.28 0.114 0.432 0.216 0.154 0.102 0.546 0.608 0.612 0.792 0.315 0.453-0.506 1.148-0.972 1.152 0.088 0.184 0.162 0.48 0.288 0.648 0.021 0.795-0.594 1.081-1.332 1.08" fill="#7b9933" fill-rule="evenodd"/></g><g transform="translate(42.769 115.05)"><path d="m0 0c0.033 0.126 0.129 0.332 0.036 0.468-0.082 0.239-0.502 0.338-0.72 0.432-0.087 0.373-0.045 0.718 0.072 1.08 0.048 0.148 0.233 0.411 0.108 0.612l-0.036 0.108c-0.084 0.012-0.168 0.024-0.252 0.036-0.435-0.449-0.868-1.075-1.044-1.764-0.195-0.764 0.58-1.551 1.26-1.368 0.243 0.065 0.393 0.268 0.576 0.396" fill="#7b9933" fill-rule="evenodd"/></g><g transform="translate(48.42 115.84)"><path d="m0 0c-0.165-0.047-0.381-0.235-0.54-0.324-0.059-0.135-0.114-0.312 0-0.432 0.131-0.359 0.597-0.216 0.864-0.432 0.987-2e-3 1.034 0.896 0.828 1.692-0.06 0.233-0.024 0.478-0.144 0.648-0.063 0.088-0.156 0.047-0.252 0.108-0.09 0.057-0.393 0.536-0.468 0.648h-0.144c0.035-0.474 0.645-1.379 0.252-1.908-0.083-0.125-0.186 0.06-0.396 0" fill="#7b9933" fill-rule="evenodd"/></g><g transform="translate(56.772 122.79)"><path d="m0 0c-0.139-0.038-0.334-0.158-0.468-0.072-0.181-2e-3 -0.259 0.017-0.36 0.072-0.018 0.234-0.038 0.511-0.036 0.792 0.116 0.108 0.245 0.212 0.36 0.324 0.334-0.089 0.574-0.299 0.792-0.504-0.026-0.306-0.179-0.397-0.288-0.612m-0.324-1.656c-0.108-0.135-0.338-0.14-0.468-0.252-0.103 4e-3 -0.154 0.014-0.216 0.036-0.061 0.142-0.211 0.532-0.108 0.684 0.027 0.084 0.037 0.08 0.072 0.144 0.069-0.023 0.263-0.033 0.324-0.072 0.232 4e-3 0.441 0 0.576-0.072-0.025-0.136-0.102-0.355-0.18-0.468m-0.863-1.98c-0.187 0.111-0.36 0.277-0.505 0.432-0.037 0.082 0.023 0.246 0.036 0.396 0.169-0.031 0.493-0.018 0.612-0.108l0.144-0.144c-0.031-0.301-0.243-0.267-0.287-0.576m-0.757-1.26c-0.093 0.02-0.159 0.035-0.288 0.036 0.027 0.186 0.129 0.407 0.253 0.504 0.011 0.012 0.023 0.024 0.035 0.036l0.288-0.288c-0.059-0.148-0.197-0.174-0.288-0.288m-0.288 7.776c0.118 0.36 0.318 0.772 0.504 1.079 0.168 0.049 0.336 0.097 0.504 0.145 0.208 4e-3 0.618 0.054 0.756-0.036 0.154-0.07 0.176-0.385 0.288-0.505-0.049-0.33-0.231-0.613-0.252-0.863-0.14-0.072-0.791-0.346-0.936-0.252-0.604-0.01-0.546 0.21-0.864 0.432m-0.756-10.764c-0.102-0.266-0.711-0.45-0.971-0.288 7e-3 0.248 0.023 0.502-0.108 0.612 0.054 0.166 0.169 0.257 0.252 0.396 0.09 4e-3 0.133 5e-3 0.179 0.036 0.474-2e-3 0.424-0.248 0.684-0.432 3e-3 -0.118 9e-3 -0.257-0.036-0.324m-1.188-2.304c-0.238-3e-3 -0.304 0.028-0.431 0.108-0.028 0.121-0.079 0.391 0 0.504 0.029 0.255 0.247 0.331 0.396 0.468 0.294-0.098 0.501-0.357 0.575-0.684-0.169-0.16-0.349-0.246-0.54-0.396m-1.367-1.835c-0.248 0.048-0.271 0.265-0.433 0.396 5e-3 0.24 0.06 0.324 0.144 0.467 0.131 0.03 0.303 0.071 0.396 0.144h0.144c0.106-0.159 0.269-0.474 0.396-0.611-0.216-0.16-0.459-0.217-0.647-0.396m-1.369-1.225c-0.094-0.202-0.537-0.228-0.719-0.071-0.084 0.027-0.081 0.037-0.144 0.071-3e-3 0.303-0.066 0.753-0.037 0.9 0.173-0.02 0.414-0.144 0.577-0.035 0.187-0.039 0.253-0.166 0.396-0.253-0.024-0.132-2e-3 -0.499-0.073-0.612m7.812 13.536c0.115 0.303 0.405 0.542 0.504 0.9 0.18 0.65-0.535 1.453-0.9 1.548 0.243 0.369 0.415 0.66 0.36 1.26-0.253 0.243-0.447 0.611-0.756 0.792-0.148 0.086-0.336 9e-3 -0.468 0.036-0.365 0.072-0.719 0.225-1.188 0.216-0.226-0.182-0.494-0.116-0.827-0.216-0.189-0.057-0.326-0.225-0.469-0.288h-0.288c-0.059-0.06-0.119-0.12-0.18-0.181 0.012-0.312 0.234-0.557 0.432-0.683-5e-3 -0.312-0.17-0.695-0.108-0.936 0.096-0.37 0.45-0.554 0.684-0.792 0.067-0.105-3e-3 -0.447 0.144-0.576-0.022-0.163-0.146-0.251-0.252-0.324 6e-3 -0.544 0.34-0.58 0.468-0.972 0.037-0.06-0.05-0.129-0.072-0.216-0.063-0.254 0.138-0.393 0.072-0.612-0.044-0.15-0.285-0.393-0.396-0.504 2e-3 -0.278 0.093-0.341 0.144-0.504 0.084-0.269-0.081-0.613 0.072-0.792-0.179-0.437-0.701-0.623-0.899-1.044-0.13-0.274 0.218-0.648-0.037-1.008-0.099-0.141-0.41-0.408-0.576-0.468-0.447-0.161-0.608 0.025-0.612-0.612 0.109-0.105 0.125-0.188 0.324-0.216-0.012-0.012-0.024-0.024-0.035-0.036v-0.072c-0.045-0.029-0.189 0.071-0.289 0.036-0.043-0.015-0.097-0.084-0.144-0.108-0.132-0.684-0.018-0.988-0.54-1.332 0.013-0.3 0.024-0.6 0.036-0.9-0.052-0.144-0.137-0.225-0.144-0.468-0.354-0.145-0.598-0.35-0.719-0.72-0.062-0.188 0.021-0.363-0.073-0.504-0.157-0.235-0.519-0.323-0.684-0.575-0.324-3e-3 -0.48-0.02-0.755-0.037-0.096-0.084-0.192-0.168-0.289-0.252-0.084-0.18-0.168-0.359-0.252-0.54-0.094-0.12-0.661-0.461-0.971-0.359-0.152 0.049-0.206 0.136-0.468 0.144-0.103-0.098-0.199-0.098-0.252-0.252-0.089-0.123-0.048-0.215-0.037-0.396 0.438-0.427 0.67-1.058 1.188-1.405-0.035-0.107-0.116-0.187-0.144-0.287-0.058-0.21 0.076-0.412 0.109-0.54 0.054-0.213-0.024-0.748-0.072-0.936-0.048-0.168-0.096-0.336-0.145-0.504-0.095-0.096-0.191-0.193-0.288-0.288-0.346-0.554-0.306-1.442 0.288-1.692 0.463-0.195 0.954 0.12 1.117 0.36 0.083 0.122 0.078 0.328 0.179 0.432 0.163 0.167 0.255 0.119 0.36 0.396 0.049 0.203 0.096 0.407 0.144 0.612 0.102 0.4 0.143 0.97-0.144 1.151 0.038 0.221 0.131 0.387 0.144 0.648 0.172 0.079 0.372 0.238 0.54 0.288 0.152 0.047 0.17-0.068 0.325 0 0.174 0.078 0.235 0.353 0.396 0.433h0.18c0.214 0.072 0.308 0.232 0.431 0.396 0.144 0.19 0.344 0.613 0.108 0.863 0.054 0.149 0.151 0.237 0.217 0.396 0.256 0.014 0.292 0.013 0.431-0.144 0.572 0.029 0.798 0.524 1.153 0.792 0.049 0.421-0.024 0.768-0.109 1.08 0.451 0.204 1.134 0.821 1.296 1.296 0.234 0.369-0.249 1.314-0.396 1.476-0.028 0.023 0.451 0.849 0.216 1.152-0.053 0.163-0.143 0.216-0.359 0.216 0.329 0.223 0.672-0.161 1.043-0.072 0.266 0.064 0.553 0.246 0.756 0.396 0.206 0.152 0.331 0.62 0.396 0.9 0.06 0.257-0.1 0.411 0.036 0.576 0.051 0.268 0.454 0.303 0.648 0.432 0.427 0.284 0.669 0.883 0.432 1.512-0.088 0.236-0.124 0.421-0.36 0.504 0.163 0.435 0.657 0.52 0.828 0.936 0.219 0.531-0.089 1.13-0.504 1.188" fill="#2d4454" fill-rule="evenodd"/></g><g transform="translate(33.913 123.8)"><path d="m0 0c0.559 4e-3 0.709-0.028 1.044-0.216-8e-3 -0.308-0.21-0.583-0.324-0.828-0.196-0.042-0.571-0.076-0.72 0.036-0.36 0.133-0.073 0.495-0.216 0.756 0.037 0.17 0.118 0.156 0.216 0.252m1.44 3.168c0.021-0.399 0.295-0.87 0.684-0.9 0.047-0.18 0.054-0.25 0.036-0.468-0.104-0.098-0.174-0.237-0.288-0.324 0 0-1.144-0.077-1.26 0-0.138 0.046-0.212 0.146-0.252 0.288-0.148 0.239 0.074 0.803-0.072 1.044 0.129 0.088 0.962 0.34 1.152 0.36m0.612-8.712 0.036-0.18c-0.074-0.014-0.069-8e-3 -0.108-0.036h-0.036v0.216zm-0.648 0.936c-0.214 0.019-0.231 0.093-0.36 0.18-0.033 0.18-0.041 0.394-0.144 0.504v0.036c0.112 0.03 0.271 0.079 0.36 0.144h0.216c0.04-0.121 0.12-0.223 0.216-0.288-0.01-0.38-0.194-0.329-0.288-0.576m-1.152 1.944-0.072 0.432h0.108c0.04 0.063 0.09 0.13 0.144 0.18 0.052 0.027 0.415-8e-3 0.504-0.072h0.072c0.049-0.194 0.108-0.472-0.036-0.648v-0.072h-0.504l-0.216 0.18m2.808-5.616c0.044 0.054 0.093 0.065 0.144 0.109 0.23 3e-3 0.416-9e-3 0.54-0.109 0.106-0.083 0.103-0.211 0.18-0.324-0.036-0.255-0.157-0.385-0.252-0.576-0.182-4e-3 -0.336-4e-3 -0.432 0.073-0.176 0.112-0.4 0.565-0.18 0.827m1.296-1.979c0.079-0.084 0.193-0.189 0.288-0.253-0.025-0.132-0.038-0.34-0.108-0.431-0.073-0.211-0.251-0.229-0.396-0.36-0.254 0.124-0.3 0.646-0.252 0.971 0.045 0.024 0.074 0.04 0.108 0.073zm0.792-1.908c0.084 0.096 0.168 0.191 0.252 0.288 0.179-0.049 0.31-0.144 0.468-0.216 4e-3 -0.43-0.036-0.655-0.18-0.9-0.26-0.048-0.328 0.061-0.504 0.18-0.08 0.194-0.058 0.408-0.036 0.648m2.268-1.296c0.048-0.048 0.114-0.079 0.18-0.108 0.06-0.141 0.108-0.389 0-0.54-0.059-0.16-0.178-0.153-0.288-0.252-0.192 0.097-0.162 0.281-0.432 0.323 0.038 0.289 0.291 0.504 0.54 0.577m-7.992 10.799c-0.089-0.306-0.634-1.207-0.36-1.548 0.084-0.231 0.494-0.488 0.648-0.72 0.172-0.026 0.385-0.075 0.504 0.036 0.116-0.031 0.056 0.02 0.108-0.072 0.087-0.223-0.356-0.824-0.18-1.296 0.145-0.386 0.63-0.71 1.044-0.828 0.471-0.134 0.606 0.144 0.972-0.144 0.059-0.056-0.105-0.22-0.072-0.36 0.025-0.102-8e-3 -0.363 0.036-0.504 0.036-0.114 0.11-0.21 0.144-0.324 0.07-0.104-0.301-0.668-0.36-0.827-0.398-1.076 0.351-1.533 1.116-1.692-8e-3 -0.538-0.191-1.509 0.216-1.909 0.154-0.15 0.358-0.115 0.612-0.179 0.209-0.053 0.4-0.083 0.612 0 0.094-0.199 0.219-0.355 0.396-0.469-0.122-0.369-0.109-0.832 0.216-1.043 0.103-0.067 0.282 3e-3 0.396-0.072 0.077-0.052 0.112-0.238 0.252-0.288h0.36l0.036-0.108c0.116-0.112 0.256-0.201 0.468-0.216 0.024-0.624 0.321-1.133 0.396-1.656 0.031-0.218-0.187-0.487-0.108-0.828 0.102-0.441 0.28-1.088 0.684-1.224h0.288c0.114-0.031 0.332-0.123 0.54-0.072 0.398 0.098 0.888 0.612 0.72 1.224-0.048 0.174-0.206 0.296-0.288 0.432-0.135 0.222-0.186 0.596-0.252 0.864-0.089 0.357-0.033 1.161-0.216 1.404 0.036 0.244 0.205 0.219 0.288 0.395 0.318 0.677 0.447 1.158 0.936 1.657-5e-3 0.206-0.046 0.265-0.108 0.396-0.192 0.046-0.821 0.075-1.008-0.073-0.372 0.031-0.518 0.337-0.72 0.541-0.036 0.012-0.072 0.023-0.108 0.036v0.323c-0.023 0.063-0.109 0.12-0.144 0.181-0.196 0.04-0.552 0.062-0.684 0.18-0.428 0.024-0.462 0.531-0.864 0.648 2e-3 0.595-0.188 0.732-0.432 1.044-0.174 0.016-0.277 0.059-0.396-0.037h-0.072c-2e-3 0.285 0.016 1.386-0.108 1.548-0.064 0.195-0.199 0.228-0.468 0.216 0.068 0.253 0.203 0.777 0.072 1.116-0.048 0.048-0.096 0.097-0.144 0.144-0.03 0.099 0.073 0.242 0 0.36-0.154 0.249-0.348 0.058-0.648 0.18-0.281 0.115-0.478 0.427-0.756 0.576 0 0.118-0.047 0.252-0.036 0.324 0.03 0.194 0.23 0.428 0.144 0.72-0.052 0.179-0.228 0.416-0.324 0.576-0.159 0.044-0.258 0.104-0.468 0.108-0.183 0.375-0.063 1.08 0.252 1.368-9e-3 0.523-0.434 0.428-0.54 0.828-0.05 0.188 0.127 0.304 0.072 0.54-0.03 0.13-0.107 0.242-0.144 0.36 0.279 0.256 0.628 0.747 0.288 1.224v0.396c1e-3 3e-3 0.651 0.731 0.684 0.756l-0.036 0.648c0.038 0.17 0.099 0.358 0.108 0.576 0.163 0.067 0.268 0.134 0.396 0.216 4e-3 0.181 5e-3 0.336-0.072 0.432-0.082 0.224-0.721 0.449-1.08 0.36-0.04-0.01-0.109-0.087-0.18-0.072-0.056 0.011-0.161 0.125-0.216 0.144h-0.36c-0.095 0.037-0.253 0.173-0.432 0.144-0.226-0.037-0.468-0.164-0.648-0.216-0.1-0.029-0.203 0.038-0.252 0.036-0.147-5e-3 -0.415-0.129-0.504-0.216-0.296-0.287-0.393-0.709-0.648-1.044 5e-3 -0.576 0.234-0.376 0.36-0.612 0.06-0.111 2e-3 -0.173 0.072-0.252-0.086-0.154-0.607-0.351-0.756-0.576-0.256-0.387 0.035-1.497 0.288-1.62-0.018-0.429-0.31-0.495-0.432-0.828-0.226-0.622 0.394-1.298 0.9-1.332" fill="#2d4454" fill-rule="evenodd"/></g><g transform="translate(54.288 123.54)"><path d="m0 0c3e-3 0.193 0.538 0.875 0.108 1.332-0.096 0.276-0.173 0.139-0.396 0.252-0.072 0.084-0.144 0.168-0.216 0.252-0.072 0.045-0.221 0.03-0.288 0.072l-0.036 0.036c0.144 0.056 0.214 0.11 0.324 0.18 0.116 0.601-0.131 1.078-0.36 1.44-0.141 0.036-0.456 0.14-0.576 0.072-0.183-0.02-0.176-0.07-0.288-0.144l-0.036-0.18h-0.324l-0.216-0.216c0.033-0.347 0.215-0.241 0.36-0.432 0.082-0.108 0.047-0.258 0.108-0.396l0.324-0.324c0.123-0.234 0.057-0.313 0.288-0.432-0.299-0.56 0.137-0.747 0.288-1.116v-0.396c0.027-0.09 0.158-0.154 0.18-0.216 0.049-0.136-0.083-0.446-0.036-0.648 0.153-0.656 0.027-1.254-0.324-1.656 0.026-0.213 0.097-0.416 0.216-0.54-0.018-0.235-0.119-0.24-0.18-0.396l-0.036-0.288-0.18-0.144-0.036-0.252c-0.069-0.089-0.227-0.101-0.288-0.216-0.106-0.2 0.016-0.455-0.036-0.612-0.039-0.12-0.175-0.234-0.216-0.396-0.409-0.081-0.567-0.201-0.828-0.396-3e-3 -0.118-8e-3 -0.258 0.036-0.324-0.05-0.103-0.148-0.135-0.252-0.18-0.085-0.33-0.115-0.756-0.107-1.188-0.169-0.16-0.29-0.31-0.505-0.432-0.037-0.15-0.093-0.23 0-0.36 7e-3 -0.97-0.51-0.777-1.044-1.152-0.225-0.158-0.224-0.61-0.396-0.828-0.235-0.175-0.526 0.097-0.756-0.071-0.164-0.119-0.109-0.25-0.215-0.433-0.074-0.125-0.285-0.16-0.396-0.251-0.281 1e-3 -0.404 0.112-0.54 0.251-0.105 1e-3 -0.197 2e-3 -0.252-0.036-0.111-0.038-0.13-0.088-0.216-0.143-0.081-0.615-0.142-0.843 0.144-1.26 0.581-0.119 0.819-0.225 1.512-0.216 0.177 0.169 0.408 0.29 0.54 0.504 0.06 0.179 0.12 0.359 0.179 0.54 0.061 0.078 0.928 0.152 1.08 0.252 0.191 0.061 0.663 0.762 0.504 1.007v0.216c0.038 0.062 0.226 0.032 0.288 0.072 0.148 0.095 0.306 0.313 0.36 0.504l0.216-0.036c0.026 0.27 0.206 0.958 0 1.188 0.067 0.208 0.374 0.331 0.541 0.432 0.125 0.524 0.042 1.128-0.325 1.368 0.14 0.09 0.339 0.083 0.504 0.144 0.626 0.234 0.848 0.393 1.044 1.08 0.077 0.271 0.171 0.568-0.072 0.756 0.145 0.135 0.386 0.161 0.54 0.288 0.137 0.114 0.151 0.312 0.252 0.468 0.075 0.116 0.261 0.146 0.324 0.288 0.184 0.412-0.1 0.968-0.324 1.116 0.086 0.173 0.279 0.28 0.36 0.468 0.305 0.709 0.047 1.348-0.324 1.728" fill="#ed561c" fill-rule="evenodd"/></g><g transform="translate(34.777 126.96)"><path d="m0 0c-0.117-0.114-0.271-0.264-0.396-0.36-0.026-0.179-0.13-0.376-0.072-0.612 0.111-0.453 0.477-0.949 1.08-0.936 0.135 0.134 0.266 0.175 0.324 0.396 0.344 0.482-0.297 1.201-0.468 1.44-0.152 0.037-0.256 0.075-0.468 0.072" fill="#ed561c" fill-rule="evenodd"/></g><g transform="translate(36.109 123.29)"><path d="m0 0c-0.319-0.72 0.115-1.626 0.612-1.872-0.645-0.535-0.451-0.992-0.036-1.584 0.157-0.224 0.225-0.398 0.54-0.468-0.619-1.04 0.134-1.534 0.9-1.872 0.189-0.083 0.355-0.224 0.611-0.252-0.044-0.132-0.137-0.233-0.179-0.36-0.071-0.213 0.044-0.451 0-0.648-0.027-0.117-0.075-0.265-0.073-0.468 0.087-0.086 0.188-0.222 0.252-0.324 0.121-0.012 0.241-0.024 0.361-0.036-0.021-0.149-0.08-0.297-0.108-0.431-0.1-0.477 0.297-0.965 0.468-1.225 0.138-0.033 0.21-0.071 0.396-0.072-0.022-0.85 0.252-1.189 0.828-1.439 0.258-0.113 0.754-0.105 0.935 0.072h0.036c-0.098-0.479 0.032-0.774 0.216-1.044 0.174-0.021 0.582-0.081 0.792-0.037 0.012 3e-3 0.161 0.079 0.18 0.073 0.163-0.054 0.318-0.276 0.577-0.073 0.42 0.137 0.45 0.571 0.431 1.152-0.121 0.125-0.235 0.239-0.36 0.361-0.408-0.01-0.561-0.14-0.971-0.108-0.149 0.156-0.313 0.318-0.432 0.504-0.201 2e-3 -0.482 0.018-0.613 0.108-0.418 0.144-0.386 0.694-0.575 1.007-0.154 0.036-0.487 0.074-0.577 0.108-0.247 0.201-0.172 0.63-0.323 0.936-0.036 0.024-0.073 0.048-0.108 0.072l0.072 0.324c-0.07 0.275-0.451 0.356-0.577 0.576-0.113 0.2 0.015 0.621-0.108 0.828-0.05 0.144-0.114 0.133-0.215 0.216h-0.072c0.083 0.059 0.244 0.101 0.324 0.144 1e-3 0.105 2e-3 0.196-0.037 0.252-0.095 0.185-0.262 0.074-0.431 0.18-0.084 0.096-0.168 0.192-0.252 0.288-0.123 0.088-0.305 0.094-0.432 0.18-0.337 0.238-0.084 0.69-0.252 0.936-0.061 0.069-0.241 0.074-0.288 0.144v0.288c-0.05 0.136-0.243 0.251-0.36 0.324v0.504c0.059 0.214 0.364 0.368 0.252 0.72-0.077 0.241-0.362 0.391-0.468 0.612-0.245 0.418 0.413 0.919 0.18 1.296 0.032 0.134 0.116 0.192 0.216 0.252-0.011 0.627-0.032 1.106 0.36 1.404 0 0.15-5e-3 0.215-0.072 0.288l0.252 0.18 0.036 0.468c0.05 0.198 0.161 0.354 0.252 0.504 0.492 0.062 0.531 0.146 0.252 0.576-0.256 0.057-0.835 0.232-1.08 0.036-0.407-0.26-0.563-1.108-0.145-1.476v-0.036c-0.436 0.088-0.915-0.291-1.007-0.648-0.194-0.289 0.08-0.873 0.252-1.044-0.152-0.14-0.342-0.193-0.432-0.396" fill="#ed561c" fill-rule="evenodd"/></g><g transform="translate(56.412 125.81)"><path d="m0 0c0.185 0.425-0.128 1-0.432 1.08-0.069 0.052-0.169 0.068-0.288 0.072-0.115-0.075-0.28-0.072-0.396-0.144-0.343-0.213-0.55-0.616-0.54-1.188 0.091-0.094 0.144-0.25 0.252-0.324 0.101-0.069 0.232-0.072 0.324-0.144 0.497-6e-3 0.932 0.307 1.08 0.648" fill="#ed561c" fill-rule="evenodd"/></g><g transform="translate(33.949 123.72)"><path d="m0 0c-0.161-0.059-0.159-0.17-0.252-0.288-3e-3 -0.172-1e-3 -0.305 0.072-0.396 0.045-0.136 0.151-0.245 0.288-0.288 0.121-0.095 0.423-0.1 0.54 0 0.124 0.044 0.154 0.115 0.252 0.18 0.027 0.185 0.075 0.439-0.036 0.576-0.076 0.119-0.166 0.212-0.324 0.252-0.063 0.046-0.191 0.064-0.288 0.072-0.07-0.049-0.19-0.055-0.252-0.108" fill="#ed561c" fill-rule="evenodd"/></g><g transform="translate(56.7 123.76)"><path d="m0 0c-0.069 0.053-0.169 0.068-0.288 0.072-0.042-0.029-0.06-0.029-0.144-0.036-0.125-0.121-0.238-0.235-0.36-0.36-4e-3 -0.181-5e-3 -0.336 0.072-0.432 0.063-0.181 0.201-0.209 0.324-0.324h0.36c0.267 0.25 0.387 0.315 0.36 0.792-0.113 0.11-0.15 0.232-0.324 0.288" fill="#ed561c" fill-rule="evenodd"/></g><g transform="translate(42.229 122.64)"><path d="m0 0h-0.252c-0.088-0.135-0.169-0.208-0.18-0.432 0.355-0.332 0.723-0.677 1.044-1.044 0.388 0.01 0.352 0.26 0.216 0.504-0.226 0.404-0.576 0.614-0.828 0.972" fill="#ed561c" fill-rule="evenodd"/></g><g transform="translate(48.42 122.5)"><path d="m0 0c-0.242-0.257-0.473-0.537-0.72-0.792 7e-3 -0.152 0.029-0.192 0.072-0.288 0.045-0.02 0.109-0.043 0.144-0.072 0.324 0.045 0.704 0.516 0.792 0.792 0.046 0.066 0.048 0.186 0 0.252v0.072c-0.093 0.019-0.159 0.035-0.288 0.036" fill="#ed561c" fill-rule="evenodd"/></g><g transform="translate(34.561 121.85)"><path d="m0 0c-0.078-0.065-0.205-0.13-0.288-0.18l-0.036-0.36 0.288-0.324c0.112-2e-3 0.227-5e-3 0.288 0.036 0.154 0.055 0.156 0.149 0.252 0.252v0.288l-0.18 0.216-0.324 0.072" fill="#ed561c" fill-rule="evenodd"/></g><g transform="translate(55.872 121.82)"><path d="m0 0c-0.112-0.109-0.215-0.212-0.324-0.324-0.015-0.363 0.358-0.71 0.648-0.468 0.155 0.055 0.156 0.149 0.252 0.252-1e-3 0.255-0.056 0.321-0.144 0.468-0.139 0.037-0.227 0.075-0.432 0.072" fill="#ed561c" fill-rule="evenodd"/></g><g transform="translate(41.616 120.27)"><path d="m0 0 0.36 0.036c0.124-0.037 0.305-0.244 0.504-0.108l0.108 0.036c0.019 0.093 0.035 0.159 0.036 0.288-0.334 0.336-0.729 0.698-1.404 0.684-0.38-0.388-0.055-0.808 0.396-0.936" fill="#ed561c" fill-rule="evenodd"/></g><g transform="translate(49.644 121.02)"><path d="m0 0c-0.058 0.122-0.145 0.145-0.324 0.144-0.324-0.287-1.375-0.153-1.08-0.828 0.494-0.19 0.993 0.228 1.404 0.36 0.036 0.155 0.088 0.202 0 0.324" fill="#ed561c" fill-rule="evenodd"/></g><g transform="translate(34.921 119.48)"><path d="m0 0c0.042-0.107 0.084-0.101 0.144-0.18 0.486-0.021 0.563 0.169 0.54 0.648-0.091 0.087-0.114 0.169-0.252 0.216-0.056 0.038-0.148 0.038-0.252 0.036-0.071-0.071-0.174-0.158-0.252-0.216-0.021-0.212-0.057-0.369 0.072-0.504" fill="#ed561c" fill-rule="evenodd"/></g><g transform="translate(55.62 120.05)"><path d="m0 0c-0.055 0.038-0.147 0.038-0.252 0.036l-0.216-0.18c-0.045-0.173-0.129-0.418 0-0.576 0.051-0.066 0.122-0.088 0.18-0.144 0.241 0.01 0.257 0.087 0.396 0.18 0.032 0.124 0.11 0.35 0.072 0.432-0.013 0.172-0.041 0.209-0.18 0.252" fill="#ed561c" fill-rule="evenodd"/></g><g transform="translate(49.104 119.04)"><path d="m0 0c-9e-3 0.126-0.013 0.152-0.072 0.216-0.071 0.204-0.398 0.372-0.648 0.396-0.087-0.075-0.17-0.14-0.252-0.216 4e-3 -0.091 4e-3 -0.133 0.036-0.18 0.094-0.272 0.405-0.276 0.612-0.432 0.199 0.03 0.214 0.109 0.324 0.216" fill="#ed561c" fill-rule="evenodd"/></g><g transform="translate(42.733 119.26)"><path d="m0 0c-3e-3 0.194-0.032 0.242-0.18 0.288-0.06 0.041-0.177 0.039-0.288 0.036-0.164-0.122-0.475-0.207-0.648-0.288-0.022-0.099-0.06-0.2 0-0.288l0.036-0.108c0.447-0.086 0.756 0.117 1.044 0.288 0.023 0.062 7e-3 0.035 0.036 0.072" fill="#ed561c" fill-rule="evenodd"/></g><g transform="translate(44.676 118.04)"><path d="m0 0c-0.1 0.292-0.716 0.375-1.116 0.36-0.198-0.149-0.436-0.064-0.648-0.216-0.306-0.22-0.781-1.061-0.936-1.44-0.072-0.178-0.115-0.5 0-0.648 0.097-0.295 0.459-0.375 0.864-0.36 0.239 0.247 0.466 0.346 0.756 0.54l0.468 0.468c0.195 0.147 0.548 0.353 0.612 0.612 0.03 0.122-0.065 0.188-0.072 0.252-0.016 0.143 0.182 0.249 0.072 0.432" fill="#ed561c" fill-rule="evenodd"/></g><g transform="translate(47.412 115.98)"><path d="m0 0c0.168-0.121 0.443-0.127 0.612-0.252 0.321-7e-3 0.506 0.084 0.576 0.324 0.27 0.408 0 0.867-0.108 1.152 0.09 0.547-0.385 0.87-0.684 1.152-0.23-3e-3 -0.304-0.07-0.432-0.108-0.181-0.054-0.677 0.092-0.9 0.108-0.028-0.025-0.08-0.048-0.108-0.072-0.312-0.127-0.282-0.721-0.108-0.972 0.235-0.341 0.831-1.101 1.152-1.332" fill="#ed561c" fill-rule="evenodd"/></g><g transform="translate(37.944 115.01)"><path d="m0 0c3e-3 0.427-0.117 0.499-0.288 0.72l-0.324 0.036c-0.112-0.106-0.23-0.119-0.288-0.288-0.171-0.242 0.032-0.519 0.144-0.684 0.176-0.048 0.388-0.177 0.54-0.036 0.14 0.055 0.133 0.148 0.216 0.252" fill="#ed561c" fill-rule="evenodd"/></g><g transform="translate(53.28 115.66)"><path d="m0 0c-0.042-0.029-0.06-0.029-0.144-0.036-0.097-0.103-0.189-0.221-0.288-0.324-0.011-0.474 0.117-0.701 0.612-0.684 0.087 0.091 0.169 0.113 0.216 0.252 0.103 0.139 0.054 0.317 0.036 0.504-0.139 0.135-0.196 0.239-0.432 0.288" fill="#ed561c" fill-rule="evenodd"/></g><g transform="translate(52.488 113.72)"><path d="m0 0c-0.079-0.083-0.197-0.186-0.288-0.252-0.047-0.366 0-0.558 0.144-0.792 0.077-0.018 0.13-0.032 0.18-0.072 0.458 6e-3 0.595 0.307 0.576 0.792-0.075 0.076-0.16 0.199-0.216 0.288l-0.396 0.036" fill="#ed561c" fill-rule="evenodd"/></g><g transform="translate(38.017 112.67)"><path d="m0 0c0.123 8e-3 0.184 0.017 0.252 0.072 0.086 0.061 0.11 0.142 0.18 0.216 4e-3 0.182 5e-3 0.336-0.072 0.432-0.041 0.122-0.092 0.177-0.216 0.216-0.055 0.038-0.147 0.038-0.252 0.036-0.084-0.091-0.164-0.198-0.252-0.288l0.036-0.396c0.109-0.105 0.204-0.187 0.324-0.288" fill="#ed561c" fill-rule="evenodd"/></g><g transform="translate(51.444 111.84)"><path d="m0 0c-0.06 0.042-0.177 0.04-0.288 0.036-0.05-0.053-0.117-0.105-0.18-0.144-0.029-0.144-0.039-0.346-0.036-0.54 0.135-0.149 0.343-0.502 0.648-0.252l0.144 0.108c0.073 0.33-0.013 0.704-0.288 0.792" fill="#ed561c" fill-rule="evenodd"/></g><g transform="translate(39.349 111.02)"><path d="m0 0c0.429 0.046 0.428 0.409 0.252 0.684-0.102 0.043-0.17 0.069-0.324 0.072-0.05-0.053-0.117-0.105-0.18-0.144-0.034-0.151-0.057-0.32 0.036-0.432 0.063-0.094 0.132-0.11 0.216-0.18" fill="#ed561c" fill-rule="evenodd"/></g><g transform="translate(49.716 110.55)"><path d="m0 0c-0.138 0.034-0.21 0.071-0.396 0.072-0.105-0.088-0.25-0.182-0.36-0.252-0.057-0.237-0.095-0.374-0.072-0.648 0.086-0.087 0.188-0.222 0.252-0.324 0.062-0.023 0.035-7e-3 0.072-0.036 0.355-0.011 0.567 0.07 0.648 0.324 0.101 0.131 0.107 0.521 0 0.648-0.039 0.111-0.088 0.13-0.144 0.216" fill="#ed561c" fill-rule="evenodd"/></g><g transform="translate(41.149 109.47)"><path d="m0 0c0.28-4e-3 0.32 0.045 0.468 0.144 0.032 0.21 0.149 0.557 0 0.72-0.059 0.131-0.176 0.175-0.36 0.18-0.26-0.214-0.375-0.282-0.36-0.792l0.18-0.216c0.062-0.023 0.035-7e-3 0.072-0.036" fill="#ed561c" fill-rule="evenodd"/></g><g transform="translate(53.741 113.03)"><path d="m0 0c-0.149-0.207-0.154-0.447-0.216-0.756-0.021-0.105 0.028-0.192 0.043-0.259 0.048-0.209-0.037-0.448-0.108-0.562-0.099-0.16-0.334-0.362-0.518-0.432h-0.432c-0.165-0.04-0.319-0.119-0.432-0.216-0.114-0.097-0.217-0.358-0.259-0.518-8e-3 -0.101-0.015-0.201-0.022-0.302-0.073-0.199-0.203-0.418-0.324-0.583-0.204-0.28-0.65-0.244-0.994-0.389-0.258-0.109-0.519-0.476-0.626-0.734-0.399-0.96 8e-3 -2.382-0.67-3.068-0.164-0.166-0.385-0.421-0.798-0.324-0.511 0.121-0.617 0.666-0.433 1.188 0.179 0.506 0.484 0.964 0.627 1.491 7e-3 0.201 0.014 0.403 0.021 0.605 8e-3 0.165 0.015 0.331 0.022 0.496-0.12 0.515-0.41 0.862-0.648 1.253-0.179 0.294-0.304 0.609-0.54 0.842 7e-3 0.108 0.023 0.092 0.065 0.151 0.189-6e-3 0.324-0.112 0.54-0.064 0.399 0.088 0.915 0.17 1.123 0.453 0.125 0.171 0.179 0.547 0.367 0.648 0.072 7e-3 0.144 0.015 0.216 0.022 0.06 0.019 0.175 0.089 0.238 0.108 0.119 0.036 0.204 2e-3 0.302 0.043 0.294 0.124 0.671 0.509 0.821 0.778 0.099 0.178 0.053 0.493 0.151 0.669 0.052 0.094 0.165 0.115 0.259 0.173 0.166 0.101 0.397 0.354 0.475 0.54 0.033 0.077 0.115 0.621 0.087 0.756-0.012 0.058-0.076 0.163-0.044 0.259 0.041 0.121 0.193 0.204 0.26 0.302 0.114 0.17 0.135 0.33 0.194 0.562 0.019 0.074 0.047 0.273 0 0.346 3e-3 0.138 0.035 0.139 0.086 0.216 0.327-0.02 0.663-0.168 0.951-0.259 0.125-0.04 0.307-2e-3 0.41-0.065 0.265 2e-3 0.548 0.032 0.648-0.13 0.153-0.246-0.241-0.575-0.173-0.886 0.107-0.479 0.347-0.661 0.346-1.274 0-0.142 6e-3 -0.27-0.043-0.367-0.181-0.354-0.745-0.399-0.972-0.713m-6.652-1.188c-3e-3 0.089-0.015 0.228 0.021 0.281-0.01 0.199-0.03 0.349 0.13 0.389 0.069 0.026 0.527-0.178 0.799-0.065 0.316 0.132 0.38 0.435 0.604 0.583 0.142 0.094 0.433 0.021 0.584 0.108 0.141 0.082 0.363 0.232 0.453 0.368 0.088 0.13 0.064 0.346 0.173 0.453 0.097 0.096 0.372 0.132 0.497 0.216 0.282 0.188 0.529 0.561 0.626 0.929 0.049 0.183-0.041 0.333-0.043 0.518 0.043 0.057 0.086 0.115 0.13 0.173 0.252 0.188 0.471 0.268 0.475 0.713 1e-3 0.108 0.023 0.297-0.022 0.367-1e-3 0.136 0.019 0.164 0.065 0.238 0.204-0.016 0.443-0.15 0.497-0.325 0.052-0.08 0.017-0.187 0.043-0.302 0.14-0.627-0.386-0.66-0.518-1.015-0.112-0.187 0.152-0.584 0.064-0.864-0.134-0.43-0.474-0.542-0.821-0.756-0.058-0.156 0.034-0.331-0.021-0.54-0.118-0.451-0.463-0.713-0.886-0.864-0.093-0.034-0.347-0.125-0.475-0.043-0.647-4e-3 -0.307-0.434-0.561-0.778-0.155-0.21-0.897-0.453-1.275-0.302-0.223 0.089-0.358 0.377-0.539 0.518m0.561 2.549c0.049 0.16 0.013 0.328 0.065 0.453 0.182 0.063 0.221-0.074 0.367-0.15 0.298-0.157 0.815-0.344 1.231-0.173 0.435 0.177 0.893 0.988 0.67 1.684-0.228 0.708-0.554 1.262-1.123 1.62 0.01 0.068 0.021 0.081 0.043 0.13 0.627 2e-3 1.272-0.326 1.728-0.519 0.184-0.077 0.362-0.097 0.453-0.259 0.094-0.167 0.127-0.678 0.043-0.842-0.115-0.227-0.361-0.223-0.561-0.367-0.036-0.051-0.072-0.101-0.108-0.151 0.011-0.161 0.075-0.247 0.108-0.368 0.115-0.419-0.376-0.96-0.605-1.037-0.133-0.044-0.254-5e-3 -0.367 0-0.047-0.049-0.119-0.111-0.173-0.151 0.017-0.459-0.107-0.601-0.41-0.734-0.094-0.041-0.323-0.08-0.411 0h-0.237c-0.111-0.051-0.104-0.201-0.151-0.324-0.095-0.247-0.444-0.545-0.756-0.302-0.093 0.032-0.094 0.089-0.152 0.151 0.018 0.425 0.23 0.958 0.346 1.339m-0.497 2.268c-0.178 0.243-0.499 0.417-0.756 0.583-0.062 0.234-0.21 0.625-0.065 0.842 0.035 0.052 0.112 0.08 0.152 0.13 0.156-6e-3 0.276-0.053 0.388-0.086h0.8c0.393-0.395 0.724-0.842 0.928-1.426 0.101-0.287-0.012-0.691-0.172-0.799-0.233-0.157-0.523-0.053-0.713 0.065-0.267 0.165-0.379 0.441-0.562 0.691m1.793 0.237c-0.05 0.132-0.196 0.268-0.151 0.432h0.086c0.34-0.429 0.977-1.178 0.627-2.008-0.198-0.466-0.647-0.558-1.123-0.303-0.111 0.059-0.257 0.141-0.303 0.26-0.06 0.18 0.204 0.136 0.346 0.194 0.217 0.089 0.483 0.313 0.561 0.54 0.083 0.238 0.029 0.697-0.043 0.885m-2.506 3.024c0.105 0.339 0.342 0.677 0.476 0.994 0.341 0.805 0.718 1.535 1.187 2.203 0.158 0.224 0.3 0.489 0.519 0.648 0.098 0.071 0.244 0.078 0.346 0.151 0.548 4e-3 1.168-0.397 0.907-0.993-0.125-0.284-0.451-0.415-0.54-0.735 0.032-0.03 0.063-0.07 0.086-0.108 0.208-0.035 0.54 0.087 0.756 0.022 0.398-0.12 0.629-0.699 0.367-1.123-0.109-0.177-0.293-0.374-0.475-0.475-0.148-0.083-0.313-0.103-0.367-0.281-0.018-0.023-8e-3 -6e-3 -0.022-0.044 0.171-0.157 0.434-0.3 0.562-0.496 0.369-0.564-0.201-1.258-0.626-1.382-0.165-0.049-0.405 0.074-0.519 0.107-0.276 0.081-0.594 0.046-0.885 0.108h-0.605c-0.153 0.034-0.339 0.044-0.54 0.044-0.145-1e-3 -0.371-0.044-0.432-0.022-0.059 0.02-0.063 0.037-0.108 0.065-0.033 0.187 0.086 0.458 0.022 0.713-0.036 0.14-0.17 0.404-0.109 0.604m3.262 4.968c0.248 0.188 0.472 0.451 0.734 0.626 0.305 0.205 0.59 0.421 0.886 0.627 0.093 0.064 0.21 0.085 0.302 0.151 0.626 6e-3 0.856-0.426 0.843-1.08-0.048-0.049-0.074-0.134-0.13-0.173-0.201-0.138-0.44-0.196-0.648-0.324-0.437-0.268-1.005-0.597-1.361-0.95-0.266 0.017-0.325 0.233-0.497 0.346-0.165 0.107-0.42 0.128-0.604 0.215-0.014 0.038-5e-3 0.022-0.022 0.044 0.019 0.16 0.377 0.427 0.497 0.518m2.592 1.706c0.065 0.183 0.373 0.195 0.518 0.303 0.564 0.012 1.089-0.786 0.735-1.318-0.111-0.165-0.37-0.154-0.519-0.28-0.078 0.025-0.111 0.068-0.173 0.107-0.034 0.534-0.237 0.862-0.583 1.081 3e-3 0.054 3e-3 0.079 0.022 0.107m-0.475-9.093c2e-3 0.055 2e-3 0.08 0.021 0.108 0.066 0.043 0.159 0.032 0.238 0.065 0.345 0.144 0.557 0.414 0.669 0.799 0.038 0.131 0.117 0.374 0.022 0.518 0.011 0.12 0.049 0.131 0.108 0.195 0.071 2e-3 0.155 5e-3 0.195-0.022h0.302c0.174-0.076 0.306-0.451 0.216-0.734-0.06-0.186-0.434-0.614-0.605-0.691-0.197-0.089-0.369-0.086-0.583-0.173-0.151-0.061-0.368-0.245-0.562-0.086h-0.043zm-1.296 1.015c0.098 0.14 0.183 0.345 0.237 0.519 0.026 0.084 2e-3 0.134 0.043 0.194 0.025 0.036 0.08 0.049 0.108 0.087 0.439-0.029 0.879-0.058 1.318-0.087 0.093-0.03 0.146-0.12 0.216-0.173 0.081-0.65-0.19-0.955-0.691-1.08-0.151-7e-3 -0.303-0.014-0.454-0.021-0.097-0.041-0.174-0.206-0.367-0.152-0.224 0.065-0.462 0.203-0.691 0.26-0.014 0.037-4e-3 0.021-0.022 0.043 0.013 0.219 0.205 0.272 0.303 0.41m0.345 2.139c0.115 0.068 0.268 0.046 0.411 0.086 0.281 0.079 0.67 0.118 0.972 0.194 0.167 0.043 0.369-0.013 0.496 0.065 0.051-5e-3 0.061-4e-3 0.087-0.021 0.233-0.025 0.492-0.45 0.388-0.756-0.076-0.226-0.275-0.455-0.453-0.584-0.372-0.268-1.329-0.05-1.923-0.043-0.064 0.051-0.129 0.101-0.194 0.151-0.091 0.133-0.138 0.269-0.237 0.389 0.023 0.154 0.108 0.175 0.194 0.259zm3.456 3.499c-0.065-0.222-0.224-0.526-0.41-0.626-0.058-0.032-0.088-8e-3 -0.13-0.044-0.16-1e-3 -0.174 0.029-0.259 0.087-3e-3 0.401-0.018 0.745-0.173 0.993-0.066 0.105-0.194 0.178-0.237 0.302-0.019 0.037-0.011 0.067 0.021 0.108 0.089 0.113 0.293 0.089 0.411 0.173 0.054-2e-3 0.08-2e-3 0.108-0.021 0.334-3e-3 0.805-0.512 0.669-0.972m-0.41-2.635c-0.104 7e-3 -0.126 0.025-0.152 0.108-0.021 0.028 0.156 0.451 0.108 0.648-0.023 0.098-0.043 0.242-0.086 0.345-0.053 0.128-0.159 0.219-0.194 0.368l0.108 0.15c0.14 0.097 0.345 0.095 0.475 0.195h0.065c0.034-0.048 0.097-0.064 0.129-0.108 0.186-0.257 0.338-0.902 0.108-1.253-0.13-0.198-0.395-0.289-0.561-0.453m-0.454-1.62c0.071 0.11 0.1 0.29 0.13 0.432 0.059 0.28-0.272 0.538-0.151 0.713 0.059 0.125 0.217 0.096 0.323 0.172h0.26c0.32-0.332 0.424-0.786 0.129-1.231-0.055-0.083-0.092-0.183-0.173-0.238-0.139-0.094-0.37-0.086-0.496-0.194-0.104 0-0.137 0.012-0.195 0.043 0.024 0.148 0.11 0.204 0.173 0.303m-2.592 2.181c0.266 0.262 0.987 0.439 1.383 0.583 0.23 0.085 0.539 0.072 0.712 0.216h0.173c0.109-0.109 0.222-0.206 0.303-0.345 0.156-0.27 2e-3 -0.709-0.13-0.843-0.132-0.133-0.313-0.317-0.497-0.389h-0.194c-0.258-0.06-0.61-0.106-0.864-0.172-0.164-0.043-0.33-8e-3 -0.454-0.086-0.143-3e-3 -0.183 0.016-0.259 0.064v0.562c-0.045 0.146-0.158 0.222-0.173 0.41m-0.518 1.339c0.097 0.195 0.362 0.271 0.54 0.389 0.34 0.225 0.708 0.452 1.058 0.67 0.167 0.103 0.378 0.151 0.519 0.281 0.071 1e-3 0.154 4e-3 0.194-0.022 0.236-0.043 0.737-0.877 0.432-1.209-5e-3 -0.369-0.395-0.352-0.67-0.454-0.542-0.202-1.137-0.373-1.598-0.648-0.139-0.083-0.397-0.079-0.519 0.021-0.055 0.037-0.072 0.046-0.086 0.13-0.03 0.077 0.084 0.204 0.108 0.302 0.042 0.171-0.047 0.401 0.022 0.54m3.261 3.758c0.362 0.087 0.791 0.203 1.167 0.303 0.188 0.05 0.447 0.025 0.626 0.065 0.135 0.029 0.331-0.038 0.432 0.021 0.689-3e-3 1.261-0.279 1.555-0.691 0.099-0.139 0.249-0.339 0.173-0.648-0.074-0.301-0.338-0.413-0.345-0.756 0.057-0.065 0.115-0.129 0.172-0.194 0.192-0.133 0.453-0.221 0.562-0.432 0.06-0.116 0.025-0.248 0.064-0.389 0.053-0.189 0.05-0.514-0.043-0.691-0.072-0.139-0.261-0.197-0.345-0.324-0.024-0.036-0.019-0.078-0.043-0.108 0.013-0.428 0.406-0.503 0.539-0.821 0.174-0.412-0.132-0.883-0.366-1.037-0.123-0.05-0.246-0.1-0.368-0.151l-0.129-0.129c9e-3 -0.352 0.258-0.493 0.367-0.756 0.226-0.548-0.184-1.243-0.519-1.361-0.143-7e-3 -0.287-0.014-0.431-0.022-0.171-0.052-0.237-0.15-0.346-0.259 0.037-0.224 0.177-0.407 0.237-0.626 0.115-0.418-0.28-0.796-0.475-0.929-0.395-0.269-0.75-0.34-1.317-0.389-0.096-8e-3 -0.246-0.047-0.368-0.021h-0.432c-0.126 0.033-0.327 0.078-0.453 0.108h-0.173c-0.137 0.043-0.262 0.128-0.432 0.151-7e-3 7e-3 -0.014 0.014-0.021 0.022 0 0.058 0 0.098 0.021 0.129 0.073 0.137 0.323 0.195 0.454 0.281 0.306 0.201 0.629 0.606 0.604 1.058-8e-3 0.152 0.035 0.341-0.064 0.454 5e-3 0.318 0.188 0.299 0.367 0.432 0.138 0.102 0.329 0.37 0.389 0.54 0.094 0.269 0.051 0.856-0.044 1.08-0.043 0.102-0.104 0.126-0.108 0.302 0.121 0.12 0.304 0.289 0.368 0.454 0.265 0.68 0.022 1.355-0.324 1.77 0.026 0.174 0.127 0.284 0.173 0.433v0.237c0 0.616-0.382 0.924-0.735 1.188 3e-3 0.185 0.095 0.345 0.065 0.518-0.069 0.404-0.211 0.806-0.497 0.994 6e-3 0.1 0.025 0.12 0.043 0.194m-7.408-11.728c-0.044-0.05-0.087-0.101-0.13-0.151-0.213-0.142-0.935-0.169-1.209-0.065-0.098 0.037-0.139 0.137-0.216 0.194-3e-3 0.081-0.01 0.192 0.021 0.238 0.027 0.075 0.061 0.081 0.108 0.13 0.337-0.035 0.899-0.27 1.21-0.022 0.229-4e-3 0.23-0.12 0.216-0.324m-0.432-1.037c-0.093-0.059-0.545-2e-3 -0.713 0-0.057 0.044-0.115 0.087-0.172 0.13-0.042 0.06-0.044 0.14-0.087 0.195 5e-3 0.109 0.025 0.109 0.065 0.172 0.177-4e-3 0.308-0.054 0.453-0.086 0.325-0.072 0.518 0.143 0.735 0.021-2e-3 -0.198-0.127-0.385-0.281-0.432m-0.281-0.734c-0.212 0-0.167 0.109-0.259 0.216 0.011 0.119 0.049 0.131 0.108 0.195h0.151c0.043-0.037 0.086-0.073 0.129-0.108-0.02-0.126-0.082-0.202-0.129-0.303m-0.907 5.961v0.044c0.033-0.012 0.036-0.015 0.086-0.022 3e-3 -0.497 0.01-1.071 0.281-1.36v-0.108c-0.409 0.109-0.693 1.019-0.367 1.446m-0.756-2.721c-0.192-0.143-0.363-0.404-0.497-0.605-0.041-0.062-0.056-0.143-0.108-0.194-0.133-0.133-0.359-0.173-0.497-0.302h-0.259c-0.238 0.089-0.482 0.399-0.367 0.82 0.169 0.618 0.561 1.086 0.951 1.491 0.368 1e-3 1.037 0.069 1.317-0.044 0.05-0.043 0.101-0.086 0.151-0.129 0.112-0.582-0.379-0.804-0.691-1.037m-0.41-3.866c-0.036-0.051-0.072-0.101-0.109-0.151-0.078-0.018-0.181-0.043-0.237-0.087-0.491-7e-3 -0.532 0.419-0.713 0.713-0.46-8e-3 -0.767-0.1-0.993 0.237l-0.065 0.173c1e-3 0.738-0.325 0.299-0.691 0.562-0.176 0.126-0.557 0.563-0.454 0.95 0.032 0.12 0.101 0.207 0.108 0.368-0.036 0.05-0.072 0.1-0.108 0.151-0.147 0.105-0.352 0.111-0.475 0.237-0.133 0.137-0.153 0.382-0.108 0.583 0.034 0.153 0 0.27 0.065 0.389 0.122 0.224 0.938 0.493 1.231 0.583 0.214 0.066 0.492 0.067 0.648 0.195h0.302c7e-3 -0.022 0.015-0.044 0.022-0.065 0.017-0.022 8e-3 -6e-3 0.022-0.043-0.652-0.586-0.904-0.866-1.167-1.858-0.076-0.285 0.054-0.618 0.13-0.777 0.137-0.288 0.289-0.572 0.583-0.691 0.468-0.192 1.266 0.098 1.469 0.367 0.046-0.011 0.078-0.02 0.108-0.044 0.114-0.093 0.04-0.284 0.086-0.453 0.074-0.27 0.139-0.591 0.237-0.864 0.037-0.1 0.153-0.328 0.109-0.475m0.194-0.605c-3e-3 -0.098-0.018-0.263 0.022-0.324 5e-3 -0.331-0.084-0.364-0.238-0.518-0.088-0.088-0.183-0.233-0.302-0.281-0.353-0.144-0.947 0.037-1.167 0.194-0.126 0.091-0.195 0.256-0.237 0.432v0.238c-0.027 0.093-0.105 0.143-0.152 0.216l-0.583-0.022c-0.434 0.102-0.868 0.39-1.015 0.778-0.069 0.182 0.032 0.537-0.065 0.669-0.148 0.216-0.513 0.237-0.669 0.454-0.263 0.366-0.068 0.728-0.065 1.188-0.177 0.163-0.457 0.382-0.54 0.626-0.076 0.224 0.013 0.482 0.022 0.691 0.05 0.065 0.1 0.13 0.151 0.195 0.097 0.063 0.201 0.056 0.28 0.13h0.087c0.021-0.022 0.043-0.044 0.065-0.065-4e-3 -0.277-0.089-0.719 0.043-0.929 0.125-0.199 0.438-0.257 0.518-0.497 0.092-0.153-0.071-0.327-0.021-0.518 0.035-0.134 0.099-0.318 0.173-0.432 0.141-0.22 0.379-0.496 0.626-0.605 0.082-0.036 0.17 0 0.259-0.043 0.175-0.084 0.133-0.362 0.238-0.518 0.09-0.136 0.312-0.286 0.453-0.368 0.151-0.087 0.442-0.014 0.583-0.108 0.289-0.191 0.39-0.724 0.951-0.604 0.189 0.04 0.283 0 0.389 0.107 0.096-0.014 0.128-0.047 0.194-0.086m-0.756-2.268c-0.074-0.12-0.099-0.25-0.173-0.367-0.221-0.352-0.473-0.674-0.583-1.145-0.034-0.146 0.015-0.336 0.022-0.453 7e-3 -0.216 0.014-0.433 0.021-0.648 0.143-0.526 0.461-0.98 0.627-1.491 0.17-0.526 0.086-1.063-0.432-1.188-0.464-0.111-0.73 0.217-0.886 0.433-0.48 0.662-0.258 1.59-0.497 2.461-0.074 0.273-0.036 0.46-0.172 0.67-0.127 0.194-0.316 0.468-0.541 0.562-0.344 0.145-0.788 0.108-0.993 0.389-0.121 0.165-0.251 0.383-0.324 0.583-7e-3 0.101-0.015 0.201-0.021 0.302-0.072 0.264-0.226 0.516-0.433 0.648-0.122 0.078-0.302 0.085-0.497 0.086h-0.194c-0.072 0.028-0.34 0.203-0.389 0.259-0.415 0.488-0.034 1.23-0.41 1.75-0.216 0.298-0.716 0.348-0.928 0.648-0.35 0.492 0.172 1.326 0.258 1.706 0.07 0.306-0.307 0.621-0.172 0.843 0.025 0.077 0.073 0.126 0.151 0.151 0.107 0.068 0.331-0.01 0.475 0.022 0.329 0.072 1.121 0.178 1.318 0.345 0.05-0.036 0.1-0.072 0.151-0.108-0.013-0.365-0.01-0.671 0.13-0.929 0.079-0.148 0.246-0.239 0.302-0.41 0.066-0.112-0.038-0.215-0.022-0.346 0.026-0.203 0.013-0.492 0.087-0.669 0.077-0.188 0.308-0.439 0.475-0.54 0.094-0.057 0.207-0.079 0.259-0.173 0.1-0.18 0.04-0.448 0.13-0.626 0.072-0.144 0.24-0.258 0.324-0.389v-0.065c0.089-0.129 0.475-0.361 0.648-0.41 0.216-0.062 0.581-0.063 0.712-0.195 0.104-0.104 0.116-0.326 0.194-0.453 0.22-0.356 0.59-0.403 1.038-0.54 0.157-0.049 0.457-0.076 0.583 0.021 0.12-2e-3 0.127-0.022 0.194-0.064-0.028-0.285-0.304-0.465-0.432-0.67m-8.424 7.236c-0.262 0.272-0.373 0.592-0.172 1.015 0.051 0.108 0.053 0.223 0.129 0.302-0.053 0.454-0.522 0.201-0.82 0.367-0.698 0.39-0.64 1.398-0.109 1.923-8e-3 0.429-0.485 0.354-0.669 0.605-0.077 0.104-0.172 0.268-0.216 0.388-0.176 0.478 0.371 0.934 0.562 1.167-0.012 0.398-0.331 0.394-0.433 0.691-0.061 0.179-0.041 0.433 0 0.583 0.039 0.142 6e-3 0.272 0.065 0.389 0.108 0.211 0.37 0.299 0.562 0.432 0.068 0.047 0.105 0.143 0.173 0.194-0.011 0.326-0.245 0.399-0.324 0.648-0.228 0.717 0.451 1.157 0.928 1.318 0.163 0.054 0.438 0.028 0.562 0.129 0.631-8e-3 1.249-0.082 1.75-0.216 0.233-0.062 0.481-0.047 0.648-0.173 0.053-0.026 0.049-0.048 0.086-0.086-0.016-0.175-0.098-0.159-0.173-0.259-0.125-0.169-0.477-0.907-0.259-1.188v-0.173c-0.046-0.112-0.209-0.168-0.302-0.237-0.124-0.093-0.274-0.316-0.346-0.454-0.232-0.445 9e-3 -0.815 0.086-1.167-0.571-0.663-0.587-1.604 0.043-2.224-8e-3 -0.276-0.159-0.495-0.215-0.756-0.022-0.098 0.027-0.228 0.043-0.302 7e-3 -0.108 0.014-0.217 0.022-0.324 0.124-0.357 0.477-0.592 0.755-0.8-5e-3 -0.226-0.067-0.442-0.086-0.626-0.015-0.145 0.07-0.273 0.108-0.367 0.021-0.079 0.043-0.159 0.065-0.238 0.194-0.334 0.6-0.534 0.929-0.734-1e-3 -0.059-1e-3 -0.099-0.022-0.129-0.091-0.072-0.327-0.141-0.432-0.173-0.101-8e-3 -0.202-0.015-0.302-0.022-0.938-0.29-2.148-7e-3 -2.636 0.497m3.24 9.482c0.358-2e-3 0.53-0.13 0.756-0.26 0.014-0.037 4e-3 -0.021 0.022-0.043-0.017-0.203-0.329-0.373-0.432-0.54-0.09-0.147-0.076-0.439-0.151-0.561-0.015-0.133-0.069-0.119-0.13-0.194-0.436 0.107-0.881 0.452-0.605 1.036 0.125 0.264 0.321 0.39 0.54 0.562m0.994-0.691c0.086 0.029 0.173 0.057 0.259 0.086 0.413-7e-3 0.612-0.277 0.864-0.453 0.361-0.254 0.705-0.498 1.058-0.757 0.244-0.177 0.409-0.463 0.67-0.626-5e-3 -0.05-4e-3 -0.061-0.022-0.086-0.06-0.148-0.243-0.091-0.388-0.152-0.235-0.097-0.431-0.29-0.605-0.453-0.283 0.02-0.435 0.282-0.627 0.41-0.507 0.34-1.056 0.623-1.576 0.951-0.022 0.084-0.053 0.191-0.043 0.259 0.058 0.434 0.115 0.636 0.41 0.821m0.129-8.186c-0.392 0.145-0.736 0.649-0.431 1.144 0.23 0.062 0.594 0.072 0.863 0.13 0.14 0.03 0.349-0.042 0.454 0.022h0.129c0.029-0.037 0.084-0.051 0.109-0.087l0.129-0.453c0.092-0.218 0.281-0.419 0.454-0.562-3e-3 -0.055-3e-3 -0.08-0.022-0.108-0.075-0.144-0.349-0.16-0.518-0.216-0.133-0.044-0.272-0.13-0.432-0.043l-0.108 0.108c-0.189 0.076-0.45-1e-3 -0.627 0.065m-1.663 0.885c0.042 0.122 0.15 0.166 0.216 0.259 0.098-3e-3 0.264-0.018 0.324 0.022 0.068 1e-3 0.136 3e-3 0.173-0.022 0.064-0.025 0.061-0.05 0.108-0.086-0.014-0.137-0.029-0.274-0.043-0.41 0.11-0.496 0.401-1.018 0.972-1.037 7e-3 -7e-3 0.014-0.015 0.022-0.022-1e-3 -0.059-1e-3 -0.099-0.022-0.129-0.231-0.167-0.588 0.072-0.799 0.151-0.13 0.043-0.259 0.086-0.389 0.129-0.242 0.144-0.718 0.686-0.562 1.145m-0.432 2.311c0.305 8e-3 0.572-0.036 0.626-0.281-0.332-0.325-0.153-1.012 0.109-1.274-0.012-0.069-0.019-0.063-0.044-0.108-0.931 6e-3 -1.302 1.03-0.691 1.663m-0.216 2.117c0.202-0.026 0.574-0.159 0.627-0.345 0.013-0.039-0.222-0.543-0.26-0.692-0.056-0.225 0.14-0.613 0.108-0.669-0.019-0.058-0.036-0.064-0.064-0.108-0.181 0.015-0.216 0.116-0.324 0.194-0.076 0.054-0.18 0.082-0.238 0.151-0.149 0.176-0.287 0.644-0.173 0.994 0.062 0.189 0.219 0.331 0.324 0.475m0.778 1.015c-0.042-0.117-5e-3 -0.267-0.065-0.367 4e-3 -0.228-5e-3 -0.374-0.086-0.497-0.43-3e-3 -0.894 0.595-0.691 1.102 0.11 0.275 0.335 0.344 0.496 0.54 0.059 0 0.099 1e-3 0.13 0.021 0.213-7e-3 0.386-0.08 0.54-0.151 0.014-0.043 0.029-0.086 0.043-0.13-0.137-0.125-0.301-0.332-0.367-0.518m0.216-3.801c0.058 0.177 0.227 0.291 0.324 0.432 0.05 5e-3 0.061 4e-3 0.086 0.021 0.501-0.039 1.101-0.122 1.534-0.259 0.154-0.049 0.308-0.013 0.432-0.086 0.177-0.105 0.306-0.314 0.453-0.454-0.023-0.176-0.279-0.535-0.432-0.583-0.114-0.073-0.626-0.024-0.734-0.044-0.675-0.122-1.095-0.11-1.425 0.325-0.095 0.124-0.333 0.358-0.238 0.648m2.138 0.497c-0.346 0-0.661 0.097-0.95 0.172h-0.259c-0.077 0.02-0.215 0.066-0.303 0.086h-0.194c-0.174 0.066-0.35 0.243-0.475 0.368-0.136 0.134-0.307 0.504-0.173 0.82 0.067 0.161 0.21 0.273 0.324 0.389 0.448-0.012 1.057-0.292 1.426-0.432 0.347-0.131 0.59-0.14 0.842-0.367-0.012-0.148-0.091-0.321-0.173-0.41 3e-3 -0.228 0.019-0.492-0.065-0.626m0.778 1.835c0.03-0.119 0.152-0.224 0.108-0.345-8e-3 -7e-3 -0.015-0.015-0.022-0.022-0.089-0.128-0.363-0.196-0.54-0.108-0.263 0.132-0.551 0.293-0.842 0.411-0.338 0.136-0.694 0.204-1.015 0.323-0.114 0.043-0.23 0.045-0.324 0.109-0.053 0.035-0.078 0.111-0.13 0.151-8e-3 0.202-0.14 0.438-0.065 0.691 0.084 0.281 0.29 0.436 0.432 0.648 0.045 8e-3 0.042 5e-3 0.065 0.022 0.363-2e-3 0.568-0.225 0.799-0.368 0.331-0.204 0.66-0.377 0.972-0.583 0.156-0.103 0.394-0.172 0.497-0.324 0.105-0.155 7e-3 -0.379 0.065-0.605m1.771-7.343c0.123-0.075 0.218-0.032 0.367-0.087l0.129-0.129c-0.118-0.367-0.837-0.599-1.209-0.324-0.587 0.433-0.247 1.474 0.065 1.922 0.107 0.153 0.174 0.39 0.41 0.41-0.012-0.283-0.155-0.43-0.216-0.669v-0.259c0-0.479 0.163-0.687 0.454-0.864m0.41 7.646c0.491-0.683 0.88-1.439 1.231-2.268 0.123-0.288 0.322-0.579 0.411-0.907 0.062-0.229-0.092-0.395-0.13-0.54-0.033-0.124-3e-3 -0.238 0-0.324 6e-3 -0.141-0.061-0.284 0.022-0.367-0.015-0.097-0.048-0.129-0.087-0.195-0.285-5e-3 -0.658-9e-3 -0.907-0.065-0.31-7e-3 -0.619-0.014-0.929-0.021-0.172-0.038-0.381-0.033-0.561-0.087-0.114-0.034-0.353-0.155-0.518-0.107-0.12 0.033-0.195 0.134-0.281 0.194-0.213 0.147-0.579 0.491-0.454 0.95 0.112 0.408 0.549 0.473 0.648 0.734 0.017 0.023 8e-3 6e-3 0.022 0.044-0.185 0.185-0.414 0.292-0.627 0.453-0.295 0.224-0.508 0.803-0.194 1.145 0.072 0.079 0.144 0.158 0.216 0.237 0.204 0.137 0.659-0.067 0.821 0.022 0.069 0.024 0.086 0.038 0.108 0.108 0.043 0.119-0.16 0.287-0.238 0.367-0.198 0.205-0.439 0.539-0.259 0.929 0.141 0.305 0.378 0.262 0.604 0.432 0.659 7e-3 0.833-0.361 1.102-0.734m2.657-1.793c0.419 5e-3 0.45-0.225 0.626-0.454-7e-3 -0.086-0.014-0.173-0.021-0.259-0.071-0.144-0.495-0.455-0.735-0.259-0.123 0.043-0.157 0.153-0.237 0.238-6e-3 0.459 0.144 0.523 0.367 0.734m-0.195-4.903c0.219-6e-3 0.544-0.075 0.692 0.043 0.161-0.037 0.168-0.118 0.259-0.216-3e-3 -0.137-0.038-0.157-0.086-0.237-0.212-0.051-0.796-0.155-0.994 0-0.04 0.031-0.053 0.073-0.086 0.108 0.029 0.161 0.134 0.199 0.215 0.302m0 2.981c0.024 0.103 0.058 0.188 0.065 0.324 0.033 0.03 0.063 0.07 0.087 0.108h0.129c0.196-0.297 0.34-1.105 0.108-1.491-0.037-0.014-0.021-4e-3 -0.043-0.021-0.193 0.037-0.421 0.755-0.346 1.08m0.713-1.879c0.129-0.012 0.138-0.057 0.216-0.108-0.076-0.33-0.312-0.448-0.54-0.627-0.328 3e-3 -0.664 0.324-0.626 0.583 8e-3 0.045 5e-3 0.042 0.022 0.065 0.028 0.071 0.06 0.063 0.107 0.108 0.213-0.017 0.63-0.195 0.821-0.021m0.13 2.116c0.039 0.022 0.039 6e-3 0.108 0 0.123-0.266 0.243-1.017 0.022-1.296v-0.043h-0.13c3e-3 0.292 0.107 1.036-0.022 1.231 3e-3 0.055 3e-3 0.08 0.022 0.108m8.316-6.868c0.391 0.284 0.854 0.414 0.993 0.95 0.018 0.068-0.025 0.161-0.022 0.195 0.019 0.193 0.062 0.382 0 0.583-0.054 0.178-0.131 0.376-0.216 0.54-0.025 0.049-0.091 0.121-0.107 0.173-0.102 0.31 0.303 0.655 0.107 0.885 8e-3 0.125 0.044 0.134 0.087 0.216 0.251 0.093 0.512 0.096 0.777 0.194 0.363 0.135 0.957 0.625 1.102 0.972 0.105 0.252-0.038 0.92 0.022 0.994 0.063 0.123 0.241 0.09 0.367 0.151 0.201 0.098 0.404 0.29 0.518 0.475 0.163 0.264 0.376 0.722 0.259 1.167-0.042 0.159-0.297 0.531-0.259 0.669 0.033 0.122 0.169 0.17 0.259 0.238 0.206 0.154 0.638 0.69 0.519 1.145-0.041 0.154-0.111 0.349-0.195 0.475-0.08 0.12-0.226 0.174-0.259 0.345-0.047 0.121 0.137 0.251 0.195 0.346 0.085 0.142 0.156 0.539 0.129 0.756-0.052 0.421-0.128 0.687-0.324 0.95-0.092 0.124-0.384 0.153-0.432 0.302-0.043 0.133 0.22 0.452 0.259 0.562 0.104 0.295-1e-3 0.723-0.129 0.929-0.483 0.776-1.773 1.1-2.981 0.821h-0.302c-0.217-0.05-0.465-0.079-0.692-0.151-1.26-0.406-2.41-0.956-3.391-1.642-0.386-0.271-0.722-0.621-1.101-0.907-0.13-0.137-0.259-0.274-0.389-0.41-0.478-0.362-0.974-0.974-1.296-1.491-0.41-0.659-0.803-1.358-1.123-2.095-0.13-0.3-0.081-0.832-0.411-0.929-0.024 0.026-0.054 0.047-0.086 0.065 8e-3 0.214 0.109 0.307 0.151 0.518 0.037 0.181-0.102 0.355-0.021 0.54l0.108 0.108c0.141 0.247 0.439 1.002 0.324 1.469-0.058 0.235-0.18 0.461-0.238 0.691-0.089 0.353-0.054 0.843 0.152 1.016 0.186 0.138 0.316-0.128 0.453-0.065 0.066 0.023 0.064 0.02 0.087 0.086 0.045 0.112-0.136 0.239-0.195 0.324-0.124 0.03-0.277 0.047-0.454 0.043-0.202-0.194-0.389-0.283-0.475-0.605v-0.302c0-0.545 0.163-0.874 0.281-1.274 0.066-0.222-0.178-0.998-0.259-1.102-0.03-0.038-0.097-0.044-0.13-0.086-0.157 0.012-0.259 0.095-0.388 0.13-0.214 0.055-0.357-0.14-0.497-0.022-0.194 0.076-0.287 0.607-0.216 0.929 0.161 0.736 0.356 1.525-0.065 2.094-0.076 0.104-0.255 0.264-0.367 0.325-0.354 0.191-0.878-0.07-0.951-0.325-0.063-0.086-0.044-0.31 0.022-0.388 0.037-0.11 0.123-0.143 0.194-0.216 0.05 5e-3 0.061 4e-3 0.087 0.021 0.139 0.054 0.074 0.244 0 0.325 7e-3 0.137 0.054 0.155 0.108 0.237 0.073 0.021 0.214 0.082 0.302 0.021 0.299-0.033 0.604-0.614 0.497-1.058-0.101-0.418-0.356-1.305-0.195-1.814 0.053-0.164 0.2-0.279 0.238-0.454 0.032-0.144-0.149-0.447-0.151-0.713-0.06 0.011-0.063 0.027-0.108 0-0.116 0.067-0.397 0.795-0.475 0.973-0.151 0.341-0.368 0.674-0.562 0.972-0.221 0.34-0.378 0.686-0.605 1.015-0.191 0.277-0.515 0.496-0.713 0.756-0.269 0.354-0.635 0.662-0.993 0.928-0.093 0.094-0.187 0.187-0.28 0.281-0.319 0.233-0.626 0.496-0.951 0.713-0.488 0.327-1.022 0.528-1.598 0.777-0.09 0.04-0.197 0.13-0.281 0.173-0.123 0.062-0.242 0.055-0.367 0.108-0.718 0.305-1.688 0.544-2.7 0.519-0.096-0.06-0.283 0.011-0.411-0.022-0.106-0.028-0.232-0.047-0.367-0.086-0.607-0.176-1.182-0.596-1.339-1.232-0.067-0.272 0.028-0.572 0.13-0.755 0.045-0.081 0.203-0.194 0.129-0.325-0.055-0.142-0.185-0.115-0.302-0.194-0.14-0.094-0.305-0.397-0.367-0.562-0.093-0.245-0.076-0.933 0.021-1.166 0.068-0.162 0.214-0.241 0.259-0.432-0.131-0.151-0.308-0.351-0.388-0.54-0.358-0.835 0.336-1.264 0.691-1.663-0.013-0.27-0.196-0.406-0.259-0.648-0.151-0.574 0.271-1.322 0.561-1.533 0.155-0.113 0.377-0.181 0.583-0.238 0.066-0.286-0.118-0.558-0.021-0.907 0.12-0.432 0.74-0.949 1.145-1.102 0.187-0.07 0.408-0.099 0.583-0.151 0.057-7e-3 0.115-0.014 0.172-0.021 0.042-0.023 0.063-0.099 0.109-0.13-9e-3 -0.157-0.075-0.282-0.022-0.453 0.041-0.135 0.194-0.29 0.13-0.519-0.088-0.313-0.536-0.862-0.325-1.317-0.011-0.081-0.034-0.189 0-0.281 0.117-0.315 0.409-0.542 0.67-0.713 0.186-0.122 0.397-0.159 0.475-0.389 0.134-0.212-0.031-0.714 0.043-1.015 0.157-0.636 0.639-1.042 1.448-1.037 0.072-0.064 0.144-0.129 0.216-0.194 0.107-0.19 0.073-0.488 0.151-0.691 0.093-0.243 0.342-0.564 0.54-0.713 0.404-0.304 1.097-0.285 1.317-0.777 0.142-0.318 0.134-0.763 0.216-1.124 0.022-0.093-0.016-0.194-0.021-0.259-0.016-0.191 0.027-0.442 0.065-0.605 7e-3 -0.108 0.014-0.215 0.021-0.323 0.09-0.345 0.244-0.657 0.432-0.908 0.086-0.114 0.264-0.297 0.389-0.367 0.401-0.228 1.229-0.133 1.469 0.151 0.728 0.864-0.092 2.067-0.389 2.895-0.061 0.169-0.168 0.517-0.108 0.777 0.293 1.275 1.239 1.853 1.555 3.11v0.324c0.015 0.381-0.056 0.783-0.151 1.102l-0.087 0.497c-0.079 0.247-0.183 0.523-0.259 0.777-0.038 0.129 0 0.229-0.043 0.367-0.071 0.231-0.129 0.817-0.022 1.123 0.083 0.237 0.273 0.459 0.411 0.649 0.163 0.225 0.371 0.428 0.648 0.539 0.03-0.032 0.07-0.063 0.108-0.086-8e-3 -0.302-0.237-0.449-0.324-0.691-0.045-0.124-3e-3 -0.294-0.022-0.389-0.014-0.073-0.067-0.222-0.086-0.303-0.048-0.197 0.062-0.413 0.108-0.539 0.057-0.159 0.054-0.309 0.129-0.454 0.138-0.267 0.366-0.515 0.475-0.799 0.089-0.23 0.116-0.462 0.173-0.713 0.03-0.131-0.025-0.283 0.022-0.389 0.043-0.05 0.086-0.1 0.13-0.151 0.05 5e-3 0.06 4e-3 0.086 0.022 0.204 0.074 0.32 0.793 0.432 1.015 0.151 0.301 0.406 0.586 0.54 0.907 0.055 0.133 0.046 0.267 0.108 0.389 0.085 0.166 0.295 0.536 0.238 0.821-0.045 0.223-0.123 0.48-0.195 0.669-0.061 0.162-0.112 0.369-0.216 0.497 0.016 0.05 0.022 0.048 0.043 0.086 0.216-0.018 0.314-0.183 0.432-0.302 0.343-0.344 0.559-0.709 0.562-1.404 7e-3 -0.094 0.014-0.187 0.021-0.281-0.11-0.459-0.254-0.941-0.388-1.36l-0.109-0.605c-0.099-0.33-0.233-1.006-0.108-1.426 0.353-1.176 1.246-1.765 1.534-3.002 0.038-0.161-0.022-0.607-0.065-0.734-0.255-0.76-1.231-2.131-0.432-2.938 0.527-0.532 1.532-0.241 1.88 0.238 0.238 0.329 0.366 0.76 0.453 1.188 0.014 0.23 0.029 0.461 0.043 0.691-7e-3 0.034-0.037 0.127-0.021 0.194 0.082 0.361 0.074 0.806 0.215 1.124 0.202 0.449 0.57 0.393 1.016 0.583 0.234 0.099 0.484 0.342 0.626 0.54 0.075 0.104 0.171 0.25 0.216 0.367 0.119 0.312 0.052 0.748 0.368 0.864 0.085 0.052 0.249-7e-3 0.367 0.021 0.079 0.02 0.193 0.05 0.28 0.087 0.382 0.162 0.69 0.514 0.799 0.95v0.367c0.039 0.18 0.018 0.445 0.022 0.648 0.071 0.069 0.114 0.18 0.195 0.238" fill="#231f20" fill-rule="evenodd"/></g><g transform="translate(34.366 126.21)"><path d="m0 0c0.098 0.373 0.327 0.331 0.583 0.518 0.633-2e-3 1.242-1.189 0.368-1.425-0.121-0.033-0.233 0.038-0.303 0.065-0.259 0.096-0.759 0.414-0.648 0.842m1.274-1.188c0.205 0.089 0.639 0.552 0.54 0.929-0.069 0.265-0.23 0.436-0.367 0.626-0.157 0.218-0.318 0.48-0.605 0.562h-0.41c-0.1-0.036-0.202-0.073-0.302-0.108-0.249-0.163-0.459-0.425-0.54-0.757-0.036-0.147 0.018-0.449 0.065-0.561 0.181-0.438 0.972-0.976 1.619-0.691" fill="#231f20" fill-rule="evenodd"/></g><g transform="translate(55.642 126.73)"><path d="m0 0c0.422-3e-3 0.879-0.383 0.669-0.864-0.104-0.238-0.657-0.719-1.036-0.518l-0.303 0.302c-0.077 0.618 0.325 0.818 0.67 1.08m0.043-1.792c0.392 0.094 0.871 0.432 1.015 0.777 0.247 0.589-0.182 1.197-0.561 1.361-0.166 0.071-0.389 0.069-0.627 0.065-0.085-0.067-0.19-0.09-0.281-0.152-0.247-0.17-0.602-0.707-0.691-1.036-0.046-0.172 0.04-0.343 0.086-0.432 0.143-0.276 0.55-0.706 1.059-0.583" fill="#231f20" fill-rule="evenodd"/></g><g transform="translate(34.95 125.93)"><path d="m0 0c0.046-0.011 0.078-0.019 0.108-0.043 0.197 0 0.216 0.057 0.324 0.129 0.061 0.261-0.082 0.354-0.324 0.433-0.086-0.07-0.16-0.122-0.238-0.195-6e-3 -0.09-3e-3 -0.072 0-0.173 0.044-0.05 0.087-0.1 0.13-0.151" fill="#231f20" fill-rule="evenodd"/></g><g transform="translate(55.879 126.25)"><path d="m0 0c-0.034 0.104-0.126 0.169-0.237 0.194-0.026-0.017-0.037-0.017-0.087-0.021-0.102-0.094-0.197-0.096-0.238-0.259-0.021-0.043 0-0.061 0.022-0.108 0.186-0.386 0.713-0.021 0.54 0.194" fill="#231f20" fill-rule="evenodd"/></g><g transform="translate(33.935 123.16)"><path d="m0 0c-0.185 0.25 0.207 0.366 0.345 0.453h0.195c0.056-0.055 0.133-0.126 0.194-0.173 0.021-0.366-0.057-0.352-0.259-0.539h-0.216c-0.099 0.092-0.212 0.109-0.259 0.259m0.972-0.324c0.215 0.299 0.138 0.859-0.13 1.036-0.1 0.067-0.572 0.089-0.734 0.087-0.046-0.041-0.117-0.029-0.173-0.065l-0.194-0.194c-0.063-0.074-0.076-0.177-0.152-0.238-0.029-0.449 0.148-0.765 0.475-0.907 0.371-0.16 0.78 0.104 0.908 0.281" fill="#231f20" fill-rule="evenodd"/></g><g transform="translate(56.808 123.29)"><path d="m0 0c0.02-0.036 4e-3 -0.056 0-0.129-0.147-0.146-0.183-0.266-0.497-0.26-0.087 0.079-0.374 0.242-0.259 0.432 8e-3 0.185 0.098 0.192 0.194 0.281 0.288 8e-3 0.529-0.08 0.562-0.324m-0.777 0.604c-0.283-0.048-0.306-0.361-0.346-0.669-0.042-0.316 0.464-0.855 0.972-0.691 0.261 0.084 0.484 0.356 0.562 0.627 0.107 0.377-0.365 0.804-0.692 0.798-0.12-0.076-0.373 0.01-0.496-0.065" fill="#231f20" fill-rule="evenodd"/></g><g transform="translate(42.121 122.36)"><path d="m0 0h0.086c0.046-0.059 0.12-0.079 0.173-0.13 0.126-0.12 0.224-0.264 0.345-0.389-0.012-0.068-0.019-0.063-0.042-0.107-0.302 0.045-0.427 0.323-0.605 0.496 7e-3 0.081 0.016 0.081 0.043 0.13m0.475-1.037c0.124-0.093 0.236-0.239 0.367-0.324 0.073-0.047 0.184-0.038 0.26-0.086 0.119 0.012 0.11 0.048 0.172 0.108-0.012 0.252-0.156 0.423-0.237 0.605-0.201 0.444-0.596 1.075-1.188 1.101-0.096-0.082-0.156-0.142-0.238-0.238 1e-3 -0.592 0.514-0.904 0.864-1.166" fill="#231f20" fill-rule="evenodd"/></g><g transform="translate(48.514 122.36)"><path d="m0 0h0.086l0.043-0.043c-0.027-0.309-0.359-0.418-0.54-0.583-0.068 0.012-0.062 0.019-0.108 0.043 0.046 0.294 0.365 0.391 0.519 0.583m-0.583-1.188c0.352 0.252 0.711 0.5 0.929 0.885 0.057 0.103 0.203 0.321 0.108 0.497-0.04 0.073-0.157 0.117-0.216 0.173h-0.109c-0.115-0.05-0.23-0.101-0.345-0.151-0.136-0.088-0.314-0.238-0.41-0.367-0.145-0.195-0.276-0.428-0.389-0.648-0.072-0.141-0.08-0.313-0.173-0.432 5e-3 -0.129 0.038-0.142 0.086-0.216 0.286 0.016 0.354 0.141 0.519 0.259" fill="#231f20" fill-rule="evenodd"/></g><g transform="translate(34.453 121.35)"><path d="m0 0c0.016 0.177 0.11 0.158 0.216 0.237h0.108c0.051-0.043 0.101-0.086 0.151-0.129-0.011-0.129-0.057-0.158-0.108-0.238-0.057-0.014-0.115-0.029-0.173-0.043-0.068 0.06-0.129 0.112-0.194 0.173m0.303-0.54c0.326 0.081 0.512 0.3 0.496 0.734-0.21 0.223-0.317 0.356-0.777 0.346-0.026-0.018-0.037-0.018-0.086-0.022-0.116-0.107-0.254-0.122-0.303-0.302-0.22-0.329 0.34-0.838 0.67-0.756" fill="#231f20" fill-rule="evenodd"/></g><g transform="translate(56.095 121.18)"><path d="m0 0c-0.19 0.021-0.205 0.09-0.302 0.194 0.013 0.136 0.08 0.144 0.151 0.216 0.101-2e-3 0.164-0.015 0.216-0.064 0.064-0.026 0.06-0.051 0.108-0.087-0.013-0.161-0.089-0.176-0.173-0.259m-0.173 0.713c-0.067-0.061-0.181-0.056-0.259-0.109-0.082-0.054-0.126-0.167-0.194-0.237-0.03-0.989 1.217-0.958 1.188 0.022-0.203 0.215-0.287 0.334-0.735 0.324" fill="#231f20" fill-rule="evenodd"/></g><g transform="translate(42.229 120.59)"><path d="m0 0c-0.026-0.025-0.046-0.055-0.065-0.086-0.385 2e-3 -0.588 0.114-0.842 0.28 6e-3 0.137 0.042 0.128 0.108 0.195 0.35-0.046 0.558-0.198 0.799-0.346zm0.518 0.064c-0.38 0.244-0.79 0.615-1.404 0.605-0.145-0.11-0.304-0.105-0.367-0.302-0.043-0.066-8e-3 -0.154 0-0.238 0.072-0.086 0.144-0.172 0.216-0.259 0.14-0.1 0.367-0.187 0.54-0.237 0.261-0.076 0.537-0.03 0.799-0.109 0.159-0.046 0.373-0.158 0.519-0.043 0.052 0.037 0.066 0.086 0.108 0.13-0.019 0.252-0.243 0.347-0.411 0.453" fill="#231f20" fill-rule="evenodd"/></g><g transform="translate(49.01 120.94)"><path d="m0 0c0.084 0.031 0.172 4e-3 0.238 0.043h0.065l0.086-0.086c-9e-3 -0.342-0.478-0.275-0.648-0.389-0.162-4e-3 -0.184 0.015-0.259 0.087 0.026 0.103 0.412 0.307 0.518 0.345m-1.231-0.389c-0.072-0.079-0.144-0.158-0.216-0.237 6e-3 -0.128 0.04-0.16 0.087-0.238 0.235-0.093 0.502 0.019 0.756 0.087 0.129 7e-3 0.259 0.014 0.388 0.021 0.352 0.106 0.812 0.202 0.929 0.54 0.04 0.054 0.046 0.14 0.043 0.238-0.156 0.158-0.233 0.307-0.561 0.302-0.034-0.023-0.077-4e-3 -0.13-0.021-0.187-0.063-0.419-0.138-0.583-0.238-0.236-0.144-0.491-0.288-0.713-0.454" fill="#231f20" fill-rule="evenodd"/></g><g transform="translate(35.382 119.53)"><path d="m0 0c-0.048-0.014-0.057-0.016-0.086-0.043-0.276 0.023-0.216 0.223-0.087 0.345 0.154-3e-3 0.152-0.049 0.238-0.108-9e-3 -0.099-0.033-0.126-0.065-0.194m0.411 0c0.105 0.336-0.371 0.656-0.67 0.648-0.158-0.109-0.321-0.102-0.389-0.302-0.204-0.284 0.162-0.604 0.259-0.735 0.431-0.062 0.699 0.066 0.8 0.389" fill="#231f20" fill-rule="evenodd"/></g><g transform="translate(55.36 119.53)"><path d="m0 0c-0.039 0.031-0.052 0.073-0.086 0.108 0.013 0.12 0.057 0.121 0.108 0.194h0.129c0.045-0.042 0.115-0.081 0.13-0.151 0.035-0.156-0.183-0.234-0.281-0.151m0.043 0.648c-0.206-0.157-0.584-0.318-0.432-0.691 0.058-0.141 0.117-0.252 0.238-0.324 0.076-0.046 0.182-0.044 0.302-0.043 0.427 2e-3 0.524 0.363 0.497 0.756-0.17 0.168-0.247 0.309-0.605 0.302" fill="#231f20" fill-rule="evenodd"/></g><g transform="translate(42.293 119.23)"><path d="m0 0c-0.062-0.041-0.141-0.099-0.194-0.151-0.067-2e-3 -0.137-3e-3 -0.173 0.021-0.018 0.033-4e-3 0.074 0 0.151 0.159 0.015 0.215 0.061 0.367 0.044zm0.108 0.41c-0.35-0.222-0.886 0.043-0.885-0.604 0.043-0.058 0.086-0.116 0.129-0.173 0.614-0.157 1.119 0.168 1.491 0.453-0.073 0.241-0.412 0.334-0.735 0.324" fill="#231f20" fill-rule="evenodd"/></g><g transform="translate(48.816 119.15)"><path d="m0 0c-7e-3 -0.021-0.014-0.043-0.021-0.065-0.222 0-0.247 0.069-0.368 0.151v0.065c0.14 0.013 0.219-0.025 0.368-0.043 7e-3 -7e-3 0.014-0.014 0.021-0.022-8e-3 -0.061-0.02-0.045 0-0.086m0.216 0.302c-0.158 0.107-0.649 0.2-0.907 0.195-0.121-0.079-0.289-0.059-0.411-0.13-0.051-0.031-0.079-0.114-0.129-0.151v-0.043c0.238-0.233 0.653-0.424 1.015-0.519 0.285-0.074 0.529 0.065 0.583 0.238 0.029 0.043 0.025 0.141 0.022 0.216-0.057 0.065-0.115 0.129-0.173 0.194" fill="#231f20" fill-rule="evenodd"/></g><g transform="translate(35.965 118.43)"><path d="m0 0c-0.036 0.024-0.106 0.023-0.173 0.021l-0.173-0.172c-4e-3 -0.281 0.071-0.285 0.173-0.432 0.517-0.06 0.524 0.487 0.173 0.583" fill="#231f20" fill-rule="evenodd"/></g><g transform="translate(54.734 118.45)"><path d="m0 0c-0.04-0.056-0.114-0.076-0.151-0.129-0.033-0.046-0.029-0.092-0.065-0.13v-0.195c0.062-0.057 0.133-0.112 0.194-0.172 0.059 1e-3 0.099 1e-3 0.13 0.022 0.146 0.016 0.164 0.107 0.259 0.172 5e-3 0.282-0.068 0.287-0.173 0.432z" fill="#231f20" fill-rule="evenodd"/></g><g transform="translate(37.585 114.85)"><path d="m0 0c-0.095-0.024-0.158-0.063-0.237 0-0.318 0.107-0.051 0.431 0.064 0.54 0.173-0.041 0.202-0.152 0.303-0.259-4e-3 -0.175-0.063-0.183-0.13-0.281m0.454-0.043c0.05 0.077 0.02 0.31 0 0.389-0.087 0.331-0.29 0.593-0.713 0.583-0.168-0.125-0.341-0.167-0.453-0.346-0.207-0.327-0.03-0.764 0.215-0.929 0.335-0.224 0.859 0.016 0.951 0.303" fill="#231f20" fill-rule="evenodd"/></g><g transform="translate(53.417 114.85)"><path d="m0 0c-0.229-0.052-0.274 0.014-0.41 0.151 5e-3 0.244 0.133 0.258 0.237 0.389 0.045-9e-3 0.042-5e-3 0.065-0.021 0.13-0.043 0.141-0.144 0.216-0.238-3e-3 -0.159-0.049-0.19-0.108-0.281m-0.237 0.929c-0.359-0.33-0.531-0.23-0.519-0.972 0.133-0.135 0.238-0.294 0.432-0.367 0.421-0.159 0.749 0.222 0.843 0.475 0.157 0.423-0.328 0.875-0.756 0.864" fill="#231f20" fill-rule="evenodd"/></g><g transform="translate(38.103 112.84)"><path d="m0 0c-0.144 0.023-0.15 0.103-0.238 0.173 2e-3 0.215 0.071 0.248 0.152 0.367h0.086c0.035-0.037 0.081-0.063 0.129-0.086 0.082-0.285 0.081-0.287-0.129-0.454m-0.151 0.972c-0.193-0.136-0.334-0.201-0.432-0.432-0.173-0.406 0.067-0.823 0.389-0.929 0.136 8e-3 0.273 0.015 0.41 0.022 0.127 0.117 0.257 0.165 0.324 0.346 0.178 0.477-0.242 0.991-0.691 0.993" fill="#231f20" fill-rule="evenodd"/></g><g transform="translate(52.682 112.84)"><path d="m0 0c-0.164 0.021-0.179 0.096-0.259 0.194 2e-3 0.101 0.016 0.165 0.065 0.217 0.029 0.074 0.079 0.079 0.13 0.129h0.086c0.044-0.067 0.098-0.15 0.151-0.216-1e-3 -0.213-0.084-0.214-0.173-0.324m0.173 0.951-0.216 0.021c-0.096-0.084-0.244-0.118-0.346-0.194-0.215-0.162-0.325-0.617-0.173-0.907 0.061-0.116 0.2-0.146 0.281-0.238 0.105-9e-3 0.283-0.062 0.411-0.022 0.209 0.066 0.544 0.386 0.453 0.735-0.083 0.316-0.243 0.399-0.41 0.605" fill="#231f20" fill-rule="evenodd"/></g><g transform="translate(39.442 111.13)"><path d="m0 0c-0.022-0.018-5e-3 -8e-3 -0.043-0.022-0.05 0.043-0.101 0.086-0.151 0.13 7e-3 0.167 0.069 0.216 0.151 0.302 0.05-5e-3 0.061-4e-3 0.086-0.021 0.093-0.034 0.078-0.084 0.13-0.152-0.015-0.119-0.07-0.204-0.173-0.237m-0.129 0.885c-0.152-0.141-0.32-0.228-0.433-0.41-0.051-0.084-0.052-0.197-0.107-0.281-4e-3 -0.456 0.336-0.617 0.82-0.605 0.157 0.145 0.344 0.218 0.411 0.454 0.118 0.413-0.372 0.841-0.691 0.842" fill="#231f20" fill-rule="evenodd"/></g><g transform="translate(51.322 111.13)"><path d="m0 0c-0.022-0.018-5e-3 -8e-3 -0.043-0.022-0.059 0.062-0.114 0.133-0.173 0.195 8e-3 0.061 0.014 0.093 0.043 0.129 0.024 0.068 0.046 0.064 0.087 0.108 0.049-5e-3 0.06-4e-3 0.086-0.021 0.096-0.035 0.091-0.107 0.151-0.173-4e-3 -0.13-0.052-0.186-0.151-0.216m-0.043 0.885c-0.043-0.036-0.069-0.012-0.13-0.043-0.122-0.122-0.245-0.244-0.367-0.367-0.216-0.351 0.066-0.791 0.345-0.864 0.045-0.029 0.14-0.022 0.216-0.022 0.383 3e-3 0.44 0.237 0.605 0.454 1e-3 0.379-0.311 0.837-0.669 0.842" fill="#231f20" fill-rule="evenodd"/></g><g transform="translate(41.559 109.86)"><path d="m0 0c-0.114-0.122-0.14-0.219-0.345-0.259-0.079 0.076-0.144 0.131-0.217 0.216 0.011 0.264 0.143 0.29 0.26 0.432 0.18-0.026 0.205-0.134 0.302-0.238zm0.065 0.691c-0.103 0.064-0.3 0.085-0.454 0.086-0.045-0.03-0.131-0.033-0.173-0.064-0.177-0.059-0.499-0.556-0.41-0.864 0.038-0.132 0.147-0.301 0.238-0.389 0.341-0.328 0.959 0.029 1.058 0.346 0.215 0.288-0.077 0.772-0.259 0.885" fill="#231f20" fill-rule="evenodd"/></g><g transform="translate(49.702 109.84)"><path d="m0 0c-0.01-0.128-0.085-0.19-0.194-0.216-0.151-0.073-0.272 0.154-0.346 0.237 0 0.266 0.121 0.256 0.238 0.389h0.064c0.071-0.084 0.341-0.237 0.238-0.41m-0.281 0.799c-0.091-0.055-0.238-0.034-0.324-0.087-0.141-0.086-0.276-0.322-0.324-0.496-0.04-0.148 0.033-0.268 0.043-0.389 0.118-0.117 0.202-0.277 0.346-0.367 0.353-0.221 0.74-0.034 0.907 0.237 0.08 0.13 0.056 0.301 0.022 0.432-0.101 0.384-0.198 0.67-0.67 0.67" fill="#231f20" fill-rule="evenodd"/></g></g></g></svg>
