<svg width="41" height="41" viewBox="0 0 41 41" fill="none" xmlns="http://www.w3.org/2000/svg">
<path d="M20.5 0C9.19585 0 0 9.19585 0 20.5C0 31.8042 9.19585 41 20.5 41C31.8042 41 41 31.8042 41 20.5C41 9.19585 31.8042 0 20.5 0Z" fill="#F44336"/>
<path d="M28.0492 25.6334C28.717 26.3015 28.717 27.381 28.0492 28.0492C27.7161 28.3823 27.2787 28.5497 26.8411 28.5497C26.4038 28.5497 25.9665 28.3823 25.6334 28.0492L20.4999 22.9154L15.3665 28.0492C15.0334 28.3823 14.5961 28.5497 14.1588 28.5497C13.7211 28.5497 13.2838 28.3823 12.9507 28.0492C12.2829 27.381 12.2829 26.3015 12.9507 25.6334L18.0845 20.4999L12.9507 15.3665C12.2829 14.6984 12.2829 13.6189 12.9507 12.9507C13.6189 12.2829 14.6984 12.2829 15.3665 12.9507L20.4999 18.0845L25.6334 12.9507C26.3015 12.2829 27.381 12.2829 28.0492 12.9507C28.717 13.6189 28.717 14.6984 28.0492 15.3665L22.9154 20.4999L28.0492 25.6334Z" fill="#FAFAFA"/>
</svg>
