<svg width="44" height="44" viewBox="0 0 44 44" fill="none" xmlns="http://www.w3.org/2000/svg">
<g clip-path="url(#clip0)">
<path d="M38.531 5.46906L33.0619 0L26.6814 6.3806L31.239 18.2302L38.531 5.46906Z" fill="#FF3E3A"/>
<path d="M38.531 5.46899L28.5045 15.4956L37.6196 17.3186L44.0001 10.9381L38.531 5.46899Z" fill="#CC3245"/>
<path d="M2.94044 34.9337L0 43.9999L9.64941 37.9966L2.94044 34.9337Z" fill="#373E9F"/>
<path d="M0.00012207 43.9998L9.06627 41.0595L7.82636 36.1736L0.00012207 43.9998Z" fill="#340D66"/>
<path d="M16.1884 31.4578L5.25034 27.8118L2.94043 34.9338L6.00333 37.9967L16.1884 31.4578Z" fill="#FFE7B5"/>
<path d="M6.0033 37.9967L9.06628 41.0596L16.1883 38.7498L14.3653 29.6348L6.0033 37.9967Z" fill="#FFD06A"/>
<path d="M10.7194 33.2809L16.1883 38.7499L37.6196 17.3187L32.1505 11.8497L17.8705 18.8378L10.7194 33.2809Z" fill="#FF9A27"/>
<path d="M5.24829 27.8104L26.6762 6.38251L32.1444 11.8507L10.7165 33.2786L5.24829 27.8104Z" fill="#FFB820"/>
</g>
<defs>
<clipPath id="clip0">
<rect width="44" height="44" fill="white"/>
</clipPath>
</defs>
</svg>
