<?xml version="1.0" encoding="UTF-8"?>
<svg version="1.1" viewBox="0 0 128 128" xml:space="preserve" xmlns="http://www.w3.org/2000/svg" xmlns:cc="http://creativecommons.org/ns#" xmlns:dc="http://purl.org/dc/elements/1.1/" xmlns:rdf="http://www.w3.org/1999/02/22-rdf-syntax-ns#"><metadata><rdf:RDF><cc:Work rdf:about=""><dc:format>image/svg+xml</dc:format><dc:type rdf:resource="http://purl.org/dc/dcmitype/StillImage"/><dc:title/></cc:Work></rdf:RDF></metadata><g transform="translate(-8.2085 -9.9068)"><g transform="matrix(3.2258 0 0 -3.2258 -272.19 273.05)"><g transform="translate(114.95 57.784)"><path d="m0 0c-0.134 0.577-0.155 1.205-0.323 1.8-0.226 0.797-0.513 1.571-0.756 2.304-0.124 0.372-0.131 0.736-0.288 1.08-0.061 0.06-0.12 0.12-0.181 0.179l-0.035 1.116c-0.049 0.277-0.097 0.552-0.145 0.829-0.049 0.128-0.181 0.213-0.251 0.324-0.482-7e-3 -0.686-0.226-1.044-0.324-0.348-0.012-0.697-0.025-1.044-0.037-0.484-0.104-1.619-0.227-2.052-0.072-0.241 0.087-0.522 0.26-0.756 0.361-0.141 0.06-0.26 0.052-0.36 0.143-0.068 0.066 0.242 0.43 0.288 0.54 0.197 0.479 0.241 1.121 0.36 1.62 0.048 0.201 4e-3 0.549-0.072 0.649-0.117 0.325-0.211 0.095-0.468 0.216-0.069 0.032-0.172 0.16-0.252 0.215-0.964 0.667-2.496 1.01-4.141 0.972-0.378-0.396-0.705-1.061-0.935-1.584-0.095-0.217-0.123-0.459-0.252-0.647 5e-3 -0.188 0.038-0.28 0.144-0.361-0.144-0.11-0.33-0.137-0.432-0.288-0.09-0.132-0.106-0.288-0.18-0.431-0.146-0.282-0.341-0.61-0.468-0.901-0.057-0.131-0.037-0.237-0.108-0.359-0.107-0.109-0.216-0.216-0.324-0.324-0.497-0.927-0.861-1.948-1.188-3.024-0.149-0.49-0.286-1.305-0.144-1.944 0.071-0.317 0.083-0.681 0.18-1.008 0.06-0.201 0.197-0.463 0.252-0.648 0.142-0.473-0.087-1.067 0.037-1.512l0.647-1.404c0.61-1.001 2.039-2.254 3.852-1.799 0.268 0.066 0.587 0.163 0.828 0.252 0.385 0.14 0.843 0.211 1.116 0.467h0.036c-0.412-1.76 0.805-2.539 1.8-3.24 0.209-0.147 0.406-0.395 0.647-0.504 0.217-0.048 0.433-0.095 0.649-0.143 0.185-0.083 0.359-0.227 0.612-0.288 0.847-0.207 2.053 0.41 2.483 0.683 0.45 0.285 0.943 0.77 1.224 1.224 0.092 0.147 0.215 0.633 0.324 0.721h0.145c0.143 0.066 0.262 0.214 0.323 0.359 0.108 0.254 0.079 0.522 0.181 0.792 0.025 0.067 0.123 0.174 0.143 0.252 0.073 0.272-0.182 0.393-0.143 0.612 0.061 0.352 0.238 0.727 0.323 1.08 0.151 0.626-0.145 1.198-0.252 1.584z" fill="#ed561c" fill-rule="evenodd"/></g><g transform="translate(99.855 60.937)"><path d="m0 0c0.08 0.324 0.136 0.736 0.217 1.037 7e-3 0.094 0.013 0.187 0.021 0.28 0.296 0.89 0.559 1.865 1.015 2.615 0.127 0.208 0.401 0.885 0.561 0.993 0.138 0.092 0.415 0.013 0.562 0.107 0.668 6e-3 1.552 0.065 2.096-0.086 0.129-0.035 0.243-6e-3 0.345-0.064 0.233-0.135 0.464-0.572 0.626-0.8 0.145-0.201 0.41-0.383 0.411-0.713-0.137-0.15-0.274-0.302-0.411-0.453-0.219-0.163-0.431-0.33-0.626-0.519-0.318 0.029-0.372 0.377-0.584 0.519-0.059 0.04-0.153 0.058-0.215 0.086-0.043-0.043-0.086-0.086-0.13-0.129 0.036-0.277 0.594-0.617 0.475-0.864l-0.302-0.303c-0.074 5e-3 -0.111 0.011-0.151 0.044-0.194 0.162-0.053 0.574-0.367 0.69-0.05 0.022-0.093-0.013-0.151-0.043-0.071-0.285 0.015-0.638 0.086-0.928 0.051-0.212-0.02-0.504 0.021-0.692 0.064-0.287-0.067-0.984-0.129-1.187-0.073-0.238-0.036-0.453-0.108-0.67-0.199-0.602-0.461-1.072-0.886-1.447-0.33-0.292-0.859-0.782-1.49-0.496-0.352 0.159-0.689 0.786-0.799 1.209-0.063 0.239-8e-3 0.454-0.066 0.712-0.035 0.161-0.066 0.917-0.021 1.102m2.225 5.529c0.117 0.334 1.272 0.26 1.771 0.26 1.196-1e-3 1.991-0.283 2.722-0.734 0.23-0.144 0.772-0.337 0.864-0.584 0.019-0.048-9e-3 -0.05-0.022-0.129-0.248 0.019-0.624 0.354-0.885 0.453-0.572 0.217-1.241 0.346-1.88 0.518-0.201 7e-3 -0.402 0.015-0.605 0.022-0.18 0.041-0.46 0.041-0.669 0.087-0.139 0.03-0.261-0.023-0.367 0-0.237 0.05-0.601-0.138-0.778-0.044-0.109 6e-3 -0.109 0.025-0.173 0.065 5e-3 0.05 5e-3 0.061 0.022 0.086m1.361 2.981c0.063 0.047 0.154 0.058 0.216 0.108 1.308-5e-3 2.35-0.226 3.24-0.626 0.155-0.07 0.313-0.073 0.453-0.151 0.254-0.143 0.533-0.363 0.777-0.519 0.107-0.968-0.076-1.817-0.496-2.376-0.232 0.021-0.392 0.241-0.561 0.346-0.38 0.235-0.819 0.482-1.253 0.647-0.315 0.121-0.706 0.157-1.037 0.239-0.173 7e-3 -0.346 0.013-0.519 0.021-0.211 0.047-0.637 0.105-0.907 0.043-0.238-0.055-0.503-0.059-0.799-0.064-0.043 0.036-0.086 0.071-0.13 0.107 0.025 0.733 0.586 1.909 1.016 2.225m2.57 1.49c0.251 0.675 0.495 1.349 0.756 1.987 0.248 0.609 0.416 1.166 0.648 1.793 0.045 0.124 0.164 0.243 0.216 0.367 0.078 0.181 0.079 0.357 0.151 0.541 0.077 0.195 0.225 0.387 0.302 0.583 0.063 0.158 0.067 0.292 0.13 0.454 0.051 0.128 0.162 0.261 0.216 0.388 0.089 0.207 0.12 0.424 0.216 0.605 0.072-0.011 0.058-0.01 0.13 0 0.165-0.714 0.172-1.565 0.346-2.289v-0.346c0.048-0.215 0.06-0.506 0.107-0.713v-0.411c0.134-0.56 0.092-1.264 0.216-1.813 0.06-0.267-0.035-0.481 0.022-0.713 0.141-0.571 0.119-1.272 0.259-1.772 0.062-0.219-0.012-0.432 0.043-0.669 0.024-0.106 0.063-0.247 0.087-0.346v-0.238c0.147-0.631 0.13-1.366 0.28-2.03 0.029-0.123 0.082-0.796 0.066-0.886-0.014-0.068-0.094-0.119-0.13-0.172-0.664 3e-3 -1.617 0.013-2.052 0.259-0.015 0.043-0.029 0.086-0.044 0.13 0.233 0.222 0.335 0.595 0.433 0.95 0.055 0.203 0.098 0.479 0.151 0.692 0.057 0.231-0.045 0.609-0.087 0.777-0.029 0.12 0 0.203-0.043 0.302-0.251 0.583-1.211 0.941-1.836 1.167-0.267 0.096-0.664 0.096-0.885 0.237-0.04 0.031-0.053 0.073-0.086 0.108 0.048 0.304 0.279 0.764 0.388 1.058m2.614 8.338c0.028 0.049 0.046 0.033 0.086 0.064 0.038-0.039 0.071-0.114 0.086-0.173l-0.064-0.064c-0.022-0.018-0.039-0.016-0.108-0.021-6e-3 0.085-0.033 0.141 0 0.194m3.174-14.234c0.329 0.087 0.734 0.101 0.951 0.302 0.329-0.013 0.288-0.339 0.367-0.604 0.151-0.504 0.383-1.302 0.065-1.772-0.166-0.245-0.574-0.258-0.907-0.345-0.908-0.24-2.191-0.305-3.196-0.086h-0.26c-0.159 0.042-0.36 0.109-0.519 0.151-0.06 0.016-0.112-3e-3 -0.151 0.021-0.146 0.053-0.204 0.286-0.15 0.519 0.057 0.25 0.131 1.361-0.023 1.598 1e-3 0.167 0.043 0.172 0.108 0.259 0.346-0.065 0.692-0.129 1.038-0.194 0.194-8e-3 0.388-0.015 0.583-0.021 0.595-0.132 1.61 0.043 2.094 0.172m1.426-2.571c0.037-0.013 0.022-4e-3 0.043-0.021 9e-3 -0.014 9e-3 -0.067 0.022-0.108-7e-3 -8e-3 -0.014-0.014-0.022-0.021h-0.043c-0.013 0.067-0.019 0.09 0 0.15m-1.49-0.539c-0.48-0.098-1.322-0.238-1.923-0.108h-0.259c-0.263 0.059-0.594 0.085-0.864 0.173-0.198 0.064-0.414 0.175-0.647 0.194-0.015 0.07-0.025 0.127 0 0.194 0.392-0.06 0.821-0.182 1.209-0.281 0.309-0.078 0.632-0.043 0.928-0.107 0.101-0.023 0.258 7e-3 0.324 0.021 0.111 0.024 0.269-0.011 0.346-0.021 0.145 0.014 0.288 0.028 0.433 0.043 0.138 2e-3 0.332 0.06 0.431 0h0.043c-0.033-0.069-0.023-0.027-0.021-0.108m1.706 0.086c0.243-0.027 0.343-0.625 0.433-0.843 0.068-0.166 0.186-0.352 0.237-0.517 7e-3 -0.079 0.015-0.159 0.021-0.239 0.126-0.377 0.199-0.764 0.325-1.166 0.037-0.121 0.133-0.258 0.172-0.367 0.022-0.209 0.043-0.418 0.065-0.626 0.083-0.327 0.158-0.738 0.237-1.08v-0.605c0.08-0.354 0.095-0.926 0-1.296v-0.346c-0.045-0.187-0.064-0.441-0.129-0.647-0.244-0.777-0.481-1.519-0.907-2.117-0.12-0.169-0.31-0.291-0.433-0.454-0.255-0.34-0.58-0.549-0.928-0.798-0.088-0.064-0.171-0.174-0.281-0.217-0.304-0.118-0.616-0.225-0.928-0.324-0.48-0.151-1.305-0.062-1.707 0.065-0.83 0.263-1.656 0.524-2.117 1.144-0.18 0.244-0.291 0.512-0.453 0.779-0.244 0.398-0.463 0.787-0.454 1.446 0.359 0.373 0.743 0.756 1.037 1.189 0.138 0.203 0.326 0.656 0.518 0.777 0.236 0.148 0.607 0.016 0.93 0.087 0.142 0.031 0.387 0.011 0.539-0.023 0.18-0.039 0.331 6e-3 0.475-0.043 0.284-0.094 0.612-0.244 0.843-0.41 0.141-0.101 0.251-0.263 0.389-0.367s0.324-0.183 0.453-0.303c0.129 1e-3 0.146 0.021 0.216 0.066-0.011 0.23-0.16 0.256-0.259 0.388-0.351 0.465-0.851 0.685-1.36 0.994 0.015 0.211 0.187 0.195 0.323 0.281 0.195 0.123 0.415 0.314 0.584 0.474 0.685 0.653 0.806 1.651 1.123 2.679 0.049 0.159 0.043 0.563 0.021 0.713v0.432c-0.025 0.076-0.106 0.115-0.151 0.173-0.12-0.013-0.141-0.059-0.216-0.109-0.088-0.442-0.019-1.021-0.151-1.49-0.316-1.116-0.558-1.934-1.448-2.484-0.31-0.192-0.56-0.388-1.08-0.388h-0.258c-0.514 0.153-0.792 0.826-0.583 1.533 0.17 0.578 0.42 1.055 0.734 1.49 0.084 0.118 0.22 0.226 0.302 0.346 0.07 0.102 0.11 0.215 0.194 0.303-7e-3 0.081-0.018 0.097-0.043 0.15-0.056 0.012-0.096 0.022-0.173 0.023-0.283-0.294-0.605-0.57-0.842-0.908-0.14-0.2-0.231-0.541-0.389-0.713-0.038-0.029-0.067-0.025-0.086-0.021-0.161 0.034-0.468 0.667-0.583 0.82-0.201 0.268-0.463 0.449-0.735 0.649-0.069 0.05-0.14 0.152-0.215 0.194-0.12 0.066-0.241 0.074-0.346 0.151-0.148 0.108-0.41 0.623-0.411 0.885 0.294 0.281 0.566 0.589 0.843 0.886h0.087c0.032-0.033 0.054-0.049 0.107-0.065 0.12-0.527 0.451-0.762 0.13-1.317-0.059-0.101-0.074-0.223-0.152-0.303 4e-3 -0.153 0.049-0.152 0.109-0.237 0.651 0.019 0.446 0.958 0.712 1.36 7e-3 0.147 0.058 0.144 0.13 0.216 0.324-0.017 0.632-0.187 0.907-0.28 0.432-0.147 1.465-0.294 1.987-0.173 0.188 7e-3 0.374 0.015 0.562 0.022 0.532 0.135 1.074 0.172 1.577 0.345 0.113 0.039 0.446 0.237 0.496 0.216m-8.337-0.13c0.078-0.117 0.121-0.265 0.216-0.367-9e-3 -0.246-0.154-0.264-0.303-0.367-0.118-0.082-0.219-0.223-0.367-0.28-0.17-0.067-0.352-0.028-0.539-0.087-0.064-0.02-0.162-0.07-0.238-0.086-0.055 0.051-0.1 0.046-0.13 0.13-0.026 0.056 0.028 0.903 0.044 0.993 0.027 0.162-7e-3 0.262 0.064 0.367 0.099 0.143 0.425 0.271 0.562 0.41h0.172c0.161-0.239 0.359-0.472 0.519-0.713m0.562-0.971c-0.014-0.131-0.06-0.109-0.13-0.173-0.098 0.014-0.097 0.037-0.152 0.087 5e-3 0.089 0.016 0.098 0.044 0.15h0.151c0.025-0.025 0.055-0.046 0.087-0.064m0.258 3.023c0.23-0.03 0.254-0.222 0.346-0.389 0.139-0.251 0.392-0.523 0.367-0.863-0.163-0.155-0.295-0.359-0.431-0.54l-0.389-0.389c-0.064-1e-3 -0.118-2e-3 -0.151 0.022-0.143 0.037-0.306 0.43-0.389 0.561-0.066 0.103-0.391 0.45-0.389 0.562 2e-3 0.169 0.165 0.24 0.259 0.324l0.562 0.562c0.073 0.053 0.15 0.089 0.215 0.15m0.173 0.778c-0.293 0.025-0.585 0.652-0.777 0.842 0.013 0.068 0.018 0.064 0.043 0.108 0.437-0.017 0.86-0.216 1.167-0.388 0.045-0.257-0.301-0.399-0.433-0.562m1.469-1.641c0.062-0.141-0.069-0.563-0.107-0.713-0.252-1e-3 -0.183 0.183-0.282 0.324 0.025 0.235 0.199 0.287 0.26 0.475h0.086c0.021-0.038 0.028-0.036 0.043-0.086m-0.562 0.173c-0.049 4e-3 -0.06 3e-3 -0.086 0.021-0.151 0.07-0.442 0.773-0.605 0.95 0.028 0.196 0.414 0.734 0.54 0.864 0.342-0.056 0.596-0.394 0.8-0.605-3e-3 -0.491-0.401-0.962-0.649-1.23m-0.583-8.921c-0.336-0.242-0.847-0.518-1.274-0.648-1.161-0.354-2.699 0.086-3.456 0.648-0.14 0.104-0.239 0.269-0.346 0.41-0.204 0.272-0.478 0.509-0.669 0.8-0.202 0.309-0.333 0.723-0.454 1.101-0.071 0.223 0.019 0.578-0.064 0.735-5e-3 0.197 0.03 0.205 0.108 0.301 0.209-0.025 0.407-0.197 0.605-0.259h0.237c0.379 0 0.528 0.099 0.756 0.216 0.635 0.326 1.225 0.874 1.49 1.556 0.066 0.169 0.122 0.346 0.173 0.496 0.046 0.133 0.018 0.264 0.087 0.367 0.119 0.349 0.623 0.203 0.907 0.389 1.585 3e-3 2.762-0.852 3.239-1.943 0.133-0.304 0.203-0.664 0.282-1.016 0.059-0.269-0.109-0.799-0.173-0.972-0.202-0.539-0.419-0.953-0.713-1.382-0.13-0.19-0.339-0.337-0.476-0.518-0.077-0.104-0.155-0.207-0.259-0.281m1.642 24.817c-0.84 0.107-1.932-0.234-2.765 0.064-0.229 0.083-0.481 0.209-0.67 0.346-0.118 0.087-0.166 0.256-0.28 0.346-8e-3 0.087-0.014 0.173-0.021 0.26 0.151 0.147 0.251 0.285 0.474 0.367 0.106 0.038 0.254 9e-3 0.346 0.064 1.068-7e-3 1.743-0.265 2.397-0.67 0.279-0.171 0.562-0.238 0.649-0.604-0.046-0.045-0.097-0.119-0.13-0.173m1.145 0.216c0.071 0.207 0.337 0.226 0.518 0.324 0.345 0.186 0.786 0.38 1.188 0.497 0.166 0.048 0.328 0.069 0.475 0.108 0.129 0.033 0.288-0.016 0.389 0.043 0.469 0 0.972 7e-3 1.274-0.172 0.073-0.073 0.145-0.145 0.216-0.217 0.06-0.703-0.615-0.801-1.23-0.95-0.181-7e-3 -0.361-0.015-0.54-0.022-0.184-0.041-0.606-0.05-0.756-0.021-0.411 7e-3 -0.822 0.014-1.232 0.021-0.172 0.044-0.232 0.127-0.345 0.216 2e-3 0.083 6e-3 0.128 0.043 0.173m-8.251-24.946c0.083-0.099 0.22-0.181 0.324-0.26 0.064-0.072 0.13-0.144 0.194-0.216 0.292-0.218 0.651-0.429 1.016-0.562 0.205-0.075 0.391-0.065 0.604-0.129 0.162-0.049 0.38-0.064 0.583-0.108h0.389c0.061-0.015 0.142-0.062 0.238-0.044 0.214 0.044 0.49 0.017 0.712 0.087 0.188 0.06 0.405 0.143 0.584 0.216 0.097 0.04 0.397 0.168 0.432 0.151 0.098-0.019 0.105-0.062 0.173-0.108 0.021-0.47 0.284-0.924 0.474-1.252 0.029-0.079 0.058-0.159 0.087-0.238 0.153-0.253 0.328-0.493 0.497-0.735 0.183-0.261 0.587-0.49 0.885-0.647 0.671-0.354 1.871-0.891 2.96-0.649 0.214 0.048 0.37 0.019 0.561 0.087 0.467 0.166 0.938 0.382 1.318 0.648 1.196 0.838 1.871 2.131 2.31 3.737 0.059 0.214 0.041 0.448 0.087 0.648v0.41c0.041 0.182 0.023 0.37 0.022 0.583-2e-3 0.479-6e-3 0.87-0.109 1.274-0.083 0.331-0.019 0.647-0.107 0.973-0.208 0.767-0.402 1.671-0.691 2.354-0.106 0.247-0.096 0.492-0.195 0.734-0.134 0.327-0.262 0.673-0.41 1.015-0.029 0.068-0.11 0.164-0.13 0.238-0.045 0.171 0.157 0.238 0.109 0.432-0.027 0.101-0.081 0.242-0.109 0.367-0.064 0.282 0.014 0.539-0.064 0.799-0.113 0.372-0.187 0.775-0.325 1.102-0.052 0.124-0.057 0.258-0.129 0.367-0.065 0.058-0.13 0.115-0.195 0.173-0.216-0.016-0.302-0.127-0.453-0.195-0.11-0.048-0.208-0.027-0.324-0.065-0.417-0.136-0.942-0.299-1.469-0.302-0.043 0.036-0.087 0.072-0.13 0.108 0 0.338-0.05 0.525-0.107 0.778v0.323c-0.052 0.216-0.051 0.471-0.109 0.713-0.042 0.174-0.03 0.355-0.064 0.497v0.324c-0.127 0.518-0.165 1.118-0.281 1.62-0.015 0.238-0.029 0.475-0.043 0.712-0.122 0.513-0.121 1.153-0.238 1.642 7e-3 0.115 0.014 0.231 0.022 0.346-0.07 0.309-0.063 0.699-0.13 0.994v0.432c-0.177 0.71-0.123 1.581-0.303 2.289-0.065 0.261-0.011 0.781-0.15 0.951-2e-3 0.088 1e-3 0.179 0.021 0.237 0.195-0.013 0.169-0.151 0.238-0.281 0.136-0.259 0.286-0.496 0.41-0.777 0.075-0.171 0.194-0.353 0.281-0.519 0.178-0.342 0.326-0.698 0.519-1.015 0.133-0.22 0.184-0.46 0.301-0.691 0.111-0.218 0.266-0.402 0.411-0.583 0.101 0.016 0.134 0.053 0.172 0.13 0.039 0.063-0.058 0.216-0.085 0.28-0.04 0.09-0.028 0.142-0.065 0.237-0.085 0.217-0.252 0.437-0.346 0.649-0.452 1.017-0.984 1.951-1.49 2.916-0.131 0.248-0.253 0.537-0.411 0.777-0.029 0.045-0.112 0.095-0.129 0.152-0.022 0.073 0.028 0.118 0.043 0.172 0.15 0.023 0.329-0.049 0.475-0.087 0.117-0.029 0.298-1e-3 0.389-0.021h0.907c0.965 0 1.77 0.05 2.333 0.432 0.271 0.184 0.619 0.519 0.431 1.015-0.175 0.463-0.731 0.566-1.252 0.692-0.127 0.03-0.271-0.036-0.367-0.022-0.083 0.011-0.377 0.038-0.518 0-0.517-0.139-1.032-0.251-1.491-0.454-0.106-0.047-0.213-0.15-0.324-0.194-0.121-0.048-0.221-0.046-0.324-0.109-0.084-0.049-0.174-0.145-0.28-0.172-0.144-0.037-0.258 0.081-0.346 0.108-0.192 0.058-0.298-0.095-0.476-0.043-0.116 0.034-0.19 0.172-0.28 0.237-0.173 0.127-0.379 0.236-0.561 0.346-0.111 0.066-0.223 0.076-0.346 0.13-0.606 0.262-1.192 0.413-2.03 0.41-0.081-0.052-0.2-0.031-0.303-0.065-0.256-0.083-0.649-0.262-0.756-0.497-0.197-0.432 0.022-0.837 0.324-1.058 0.103-0.075 0.192-0.191 0.302-0.259 0.466-0.287 1.11-0.389 1.793-0.389 0.293 0 0.556 0.017 0.777 0.065 0.313 0.067 0.629-0.042 0.822 0.13 0.067-0.025 0.063-0.046 0.107-0.087-0.034-0.342-0.633-1.007-0.82-1.275-0.246-0.349-0.446-0.707-0.692-1.057-0.119-0.17-0.277-0.339-0.388-0.519-0.052-0.084-0.056-0.178-0.108-0.26-0.05-0.078-0.145-0.136-0.195-0.215-0.165-0.263-0.275-0.67-0.453-0.908 1e-3 -0.13 0.025-0.158 0.064-0.237h0.13c0.108 0.049 0.157 0.238 0.216 0.346 0.123 0.223 0.281 0.413 0.41 0.647 0.118 0.215 0.299 0.407 0.433 0.606 0.383 0.573 0.753 1.12 1.123 1.706 0.086 0.136 0.217 0.256 0.302 0.388 0.05-6e-3 0.054-9e-3 0.086-0.021-0.016-0.308-0.184-0.528-0.281-0.756-0.035-0.137-0.071-0.273-0.107-0.41-0.073-0.172-0.188-0.372-0.26-0.54-0.028-0.123-0.058-0.245-0.086-0.367-0.055-0.144-0.177-0.291-0.237-0.433-0.088-0.205-0.109-0.385-0.195-0.604-0.038-0.098-0.135-0.207-0.173-0.303-0.235-0.591-0.466-1.178-0.691-1.749-0.134-0.341-0.218-0.694-0.367-0.994-0.124-0.25-0.135-0.521-0.237-0.799-0.055-0.148-0.162-0.308-0.216-0.453-0.092-0.244-0.11-0.6-0.346-0.692-0.117-0.07-0.493-7e-3 -0.627 0.022-0.089 0.019-0.225-0.01-0.28-0.022-0.073-0.015-0.177 0.013-0.216 0.022-0.247 0.054-0.586-0.017-0.713-0.109-0.112-0.079-0.198-0.234-0.281-0.344-0.067-0.088-0.176-0.166-0.237-0.26-0.276-0.418-0.429-0.877-0.605-1.403-0.072-0.216-0.053-0.809-0.13-0.929-0.077-0.121-0.24-0.172-0.324-0.281-0.229-0.298-0.429-0.655-0.626-0.972-0.149-0.24-0.21-0.494-0.346-0.756-0.15-0.289-0.337-0.619-0.475-0.929l-0.065-0.281c-0.211-0.504-0.393-1.11-0.561-1.663-0.151-0.494-0.272-1.714-0.152-2.289v-0.324l0.282-0.929c0.037-0.158-0.022-0.343-0.044-0.454 0.014-0.353 0.029-0.705 0.044-1.059 0.033-0.139 0.071-0.347 0.107-0.496v-0.151c0.236-0.754 0.688-1.36 1.145-1.9" fill="#231f20" fill-rule="evenodd"/></g><g transform="translate(111.45 61.996)"><path d="m0 0c5e-3 -0.057-0.012-0.034 0.065-0.043-0.032 0.054 5e-3 0.025-0.065 0.043" fill="#231f20" fill-rule="evenodd"/></g></g></g></svg>
