<svg width="160" height="160" viewBox="0 0 160 160" fill="none" xmlns="http://www.w3.org/2000/svg">
<path d="M160 18.7501V141.25C160 151.589 151.593 160 141.26 160H18.8284C8.49531 160 0.08875 151.589 0.08875 141.25V116.25H12.5819V141.25C12.5819 144.696 15.3841 147.5 18.8284 147.5H141.261C144.705 147.5 147.507 144.696 147.507 141.25V18.7501C147.507 15.3038 144.705 12.5 141.261 12.5H18.8284C15.3841 12.5 12.5819 15.3038 12.5819 18.7501V43.7501H0.08875V18.7501C0.08875 8.41121 8.49531 0 18.8284 0H141.261C151.593 0 160 8.41121 160 18.7501ZM38.8172 41.1612L0 79.9998L38.8172 118.839L47.6509 110L23.9141 86.2499H113.775V73.7498H23.9144L47.6512 49.9998L38.8172 41.1612Z" fill="url(#paint0_linear)"/>
<defs>
<linearGradient id="paint0_linear" x1="79.9963" y1="0.00733797" x2="79.9963" y2="160" gradientUnits="userSpaceOnUse">
<stop stop-color="#2AF598"/>
<stop offset="1" stop-color="#009EFD"/>
</linearGradient>
</defs>
</svg>
