<svg id="Capa_1" enable-background="new 0 0 512 512" height="512" viewBox="0 0 512 512" width="512" xmlns="http://www.w3.org/2000/svg" xmlns:xlink="http://www.w3.org/1999/xlink"><linearGradient id="SVGID_1_" gradientUnits="userSpaceOnUse" x1="256" x2="256" y1="512" y2="0"><stop offset="0" stop-color="#00b59c"/><stop offset="1" stop-color="#9cffac"/></linearGradient><linearGradient id="SVGID_2_" gradientUnits="userSpaceOnUse" x1="256" x2="256" y1="392" y2="74.999"><stop offset="0" stop-color="#c3ffe8"/><stop offset=".9973" stop-color="#f0fff4"/></linearGradient><g><g><g><path d="m366.7 60c-51.668 0-95.7 42.164-95.7 120 0 38.282 7.518 64.933 14.788 90.708 7.479 26.514 15.212 53.932 15.212 96.392v54.9c0 49.626 40.374 90 90 90s90-40.374 90-90v-236.3c0-65.088-48.936-125.7-114.3-125.7zm-221.4-60c-65.402 0-114.3 60.654-114.3 125.7v235.3c0 49.946 40.502 91 90 91 49.555 0 90-41.105 90-91v-55.9c0-42.422 7.723-69.287 15.192-95.269 7.28-25.324 14.808-51.511 14.808-89.831 0-77.944-44.164-120-95.7-120z" fill="url(#SVGID_1_)"/></g></g><g><g><path d="m385.751 138.602c-3.113-2.664-7.183-3.94-11.257-3.526-4.077.412-7.808 2.473-10.326 5.705-2.579 3.309-63.168 82.828-63.168 236.219 0 8.284 6.716 15 15 15s15-6.716 15-15c0-85.854 20.825-156.783 47.451-203.095 23.462 26.504 72.549 94.896 72.549 203.095 0 8.284 6.716 15 15 15s15-6.716 15-15c0-107.448-48.623-198.496-95.249-238.398zm-248.244-63.526c-4.01-.408-8.014.821-11.11 3.4-42.948 35.787-95.397 124.749-95.397 236.524 0 8.284 6.716 15 15 15s15-6.716 15-15c0-82.589 29.626-153.997 72.583-201.426 16.091 27.424 47.417 94.551 47.417 201.426 0 8.284 6.716 15 15 15s15-6.716 15-15c0-153.497-60.703-231.14-63.287-234.371-2.518-3.147-6.196-5.148-10.206-5.553z" fill="url(#SVGID_2_)"/></g></g></g></svg>