<svg id="Capa_1" enable-background="new 0 0 512.071 512.071" height="512" viewBox="0 0 512.071 512.071" width="512" xmlns="http://www.w3.org/2000/svg"><g><g><path clip-rule="evenodd" d="m10.001 151.79v86.895c0 15.423 12.644 28.067 28.095 28.067h22.878v-143.057h-22.878c-15.451 0-28.095 12.644-28.095 28.095z" fill="#ecf2f3" fill-rule="evenodd"/></g><g><path clip-rule="evenodd" d="m451.068 123.695v143.057h22.907c15.451 0 28.095-12.644 28.095-28.067v-86.895c0-15.451-12.644-28.095-28.095-28.095z" fill="#ecf2f3" fill-rule="evenodd"/></g><g><path clip-rule="evenodd" d="m397.232 145.893v148.869c0 9.299-7.598 16.925-16.925 16.925h-248.571c-9.299 0-16.925-7.626-16.925-16.925v-148.869c0-9.327 7.626-16.925 16.925-16.925h4.451v-33.227c0-7.485 6.124-13.608 13.608-13.608h39.69c7.484 0 13.608 6.124 13.608 13.608v33.227h110.337v-33.227c0-7.485 6.124-13.608 13.608-13.608h39.661c7.484 0 13.608 6.124 13.608 13.608v33.227c9.327 0 16.925 7.598 16.925 16.925zm-336.258 200.269c0 85.732 70.138 155.872 155.868 155.872h78.387c85.702 0 155.839-70.139 155.839-155.872v-79.41-143.057-84.655c0-15.933-13.041-29.003-29.002-29.003h-332.061c-15.961 0-29.03 13.041-29.03 29.003v84.655 143.057 79.41z" fill="#b5cdcd" fill-rule="evenodd"/></g><g><path clip-rule="evenodd" d="m313.43 128.968h66.877v-33.227c0-7.485-6.124-13.608-13.608-13.608h-39.661c-7.484 0-13.608 6.124-13.608 13.608z" fill="#ecf2f3" fill-rule="evenodd"/></g><g><path clip-rule="evenodd" d="m136.187 128.968h66.906v-33.227c0-7.485-6.124-13.608-13.608-13.608h-39.69c-7.484 0-13.608 6.124-13.608 13.608z" fill="#ecf2f3" fill-rule="evenodd"/></g><g><path clip-rule="evenodd" d="m114.811 145.893v148.869c0 9.299 7.626 16.925 16.925 16.925h248.572c9.327 0 16.925-7.626 16.925-16.925v-148.869c0-9.327-7.598-16.925-16.925-16.925h-66.878-110.338-66.906-4.451c-9.298 0-16.924 7.598-16.924 16.925zm43.148 29.882h196.124v89.078h-196.124z" fill="#ecf2f3" fill-rule="evenodd"/></g><g><path clip-rule="evenodd" d="m157.959 175.775h196.124v89.078h-196.124z" fill="#ccf5fc" fill-rule="evenodd"/></g><g><path d="m354.083 165.774h-196.124c-5.523 0-10.001 4.478-10.001 10.001v89.078c0 5.524 4.478 10.001 10.001 10.001h196.124c5.523 0 10.001-4.478 10.001-10.001v-89.078c.001-5.524-4.477-10.001-10.001-10.001zm-10.001 89.077h-176.121v-69.075h176.121z"/><path d="m473.975 113.694h-12.905v-74.654c0-21.507-17.497-39.004-39.003-39.004h-121.139c-5.523 0-10.001 4.478-10.001 10.001s4.478 10.001 10.001 10.001h121.139c10.477 0 19.001 8.524 19.001 19.002v307.122c0 80.433-65.422 145.87-145.838 145.87h-78.388c-80.431 0-145.866-65.437-145.866-145.87v-307.122c0-10.478 8.536-19.002 19.029-19.002h121.111c5.523 0 10.001-4.478 10.001-10.001s-4.478-10.001-10.001-10.001h-121.111c-21.523 0-39.032 17.498-39.032 39.004v74.653h-12.877c-21.006.001-38.096 17.091-38.096 38.097v86.895c0 20.991 17.09 38.068 38.096 38.068h12.877v69.409c0 44.136 17.3 85.742 48.714 117.157 31.415 31.415 73.021 48.716 117.155 48.716h78.388c44.122 0 85.72-17.301 117.131-48.716 31.411-31.416 48.71-73.023 48.71-117.157v-69.409h12.905c21.006 0 38.096-17.078 38.096-38.068v-86.895c-.001-21.006-17.091-38.096-38.097-38.096zm-435.879 143.057c-9.977 0-18.093-8.104-18.093-18.065v-86.896c0-9.977 8.116-18.094 18.093-18.094h12.877v123.054h-12.877zm453.973-18.066c0 9.961-8.116 18.065-18.093 18.065h-12.906v-123.054h12.905c9.977 0 18.093 8.117 18.093 18.094v86.895z"/><path d="m165.705 378.482c0 5.524 4.478 10.001 10.001 10.001h.085c5.523 0 9.958-4.478 9.958-10.001s-4.52-10.001-10.043-10.001c-5.523-.001-10.001 4.477-10.001 10.001z"/><path d="m219.23 378.482c0 5.524 4.478 10.001 10.001 10.001h.057c5.523 0 9.973-4.478 9.973-10.001s-4.506-10.001-10.03-10.001c-5.523-.001-10.001 4.477-10.001 10.001z"/><path d="m272.754 378.482c0 5.524 4.478 10.001 10.001 10.001h.057c5.523 0 9.973-4.478 9.973-10.001s-4.507-10.001-10.03-10.001-10.001 4.477-10.001 10.001z"/><path d="m326.279 378.482c0 5.524 4.478 10.001 10.001 10.001h.057c5.523 0 9.973-4.478 9.973-10.001s-4.507-10.001-10.03-10.001-10.001 4.477-10.001 10.001z"/><path d="m366.699 72.132h-39.662c-13.017 0-23.609 10.591-23.609 23.61v23.225h-90.335v-23.226c0-13.018-10.591-23.61-23.61-23.61h-39.69c-13.017 0-23.609 10.591-23.609 23.61v23.804c-12.193 2.566-21.376 13.404-21.376 26.348v148.869c0 14.847 12.079 26.927 26.927 26.927h248.571c14.848 0 26.927-12.079 26.927-26.927v-148.869c0-11.314-7.017-21.013-16.925-24.993v-25.159c0-13.018-10.591-23.609-23.609-23.609zm-43.267 23.609c0-1.955 1.652-3.607 3.606-3.607h39.662c1.954 0 3.606 1.652 3.606 3.607v23.225h-46.874zm-173.638-3.607h39.69c1.955 0 3.607 1.652 3.607 3.607v23.225h-46.903v-23.225c0-1.955 1.652-3.607 3.606-3.607zm237.437 202.629c0 3.818-3.106 6.924-6.924 6.924h-248.571c-3.753 0-6.924-3.171-6.924-6.924v-148.87c0-3.818 3.106-6.924 6.924-6.924h248.571c3.818 0 6.924 3.106 6.924 6.924z"/><path d="m256.021 20.038h.058c5.523 0 9.973-4.478 9.973-10.001s-4.507-10.001-10.031-10.001-10.001 4.477-10.001 10.001 4.478 10.001 10.001 10.001z"/></g></g></svg>