<?xml version="1.0" encoding="UTF-8"?>
<svg version="1.1" viewBox="0 0 128 128" xml:space="preserve" xmlns="http://www.w3.org/2000/svg" xmlns:cc="http://creativecommons.org/ns#" xmlns:dc="http://purl.org/dc/elements/1.1/" xmlns:rdf="http://www.w3.org/1999/02/22-rdf-syntax-ns#"><metadata><rdf:RDF><cc:Work rdf:about=""><dc:format>image/svg+xml</dc:format><dc:type rdf:resource="http://purl.org/dc/dcmitype/StillImage"/><dc:title/></cc:Work></rdf:RDF></metadata><g transform="translate(-8.2085 -9.9068)"><g transform="matrix(2.948 0 0 -2.948 -115.33 228)"><g transform="translate(56.408 68.899)"><path d="m0 0v-7e-3c0-2e-3 -1e-3 -3e-3 -1e-3 -5e-3zm5.196-36.816c-0.025 3e-3 -0.051 7e-3 -0.079 0.01-0.208 0.448-0.272 1.276-0.136 1.895 0.099 0.453 0.456 2.028 0.858 3.292 0.044 0.136 0.146 0.27 0.254 0.413 0.148 0.194 0.316 0.416 0.365 0.696l0.02 0.111-0.077 0.082c-0.108 0.116-0.101 0.373-0.084 0.584l0.014 0.169-0.158 0.059c-0.325 0.124-0.539 0.345-0.619 0.641-0.033 0.126-4e-3 0.285 0.02 0.413 0.017 0.096 0.031 0.17 0.022 0.241l-5e-3 0.04-0.018 0.033-0.018 0.165-0.155 7e-3 -0.147 0.08-0.127-0.14c-0.015-0.016-0.09-0.047-0.2-0.047-0.099 0-0.177 0.025-0.211 0.051l-0.029 0.021-0.035 0.011c-0.545 0.178-0.628 0.903-0.637 1.59-1e-3 0.061 4e-3 0.141 7e-3 0.226 0.01 0.195 0.021 0.416-0.012 0.571-0.028 0.135-0.022 0.268-0.017 0.409 8e-3 0.193 0.016 0.394-0.066 0.601-0.201 0.509-0.509 0.945-0.808 1.365-0.309 0.437-0.601 0.849-0.773 1.328-0.195 0.543 0.028 1.098 0.243 1.636 0.04 0.102 0.08 0.201 0.116 0.297 0.044 0.119 0.079 0.246 0.113 0.369 0.05 0.182 0.102 0.371 0.18 0.507l0.016 9e-3c0.052 0.03 0.133 0.075 0.182 0.167 0.044 0.081 0.063 0.162 0.08 0.233 0.01 0.041 0.02 0.084 0.032 0.112 6e-3 3e-3 0.012 5e-3 0.018 7e-3 0.055 0.025 0.125 0.056 0.175 0.122 0.052 0.069 0.092 0.157 0.133 0.252 0.027 0.06 0.067 0.149 0.096 0.188 9e-3 4e-3 0.019 7e-3 0.029 0.01 0.049 0.016 0.115 0.04 0.176 0.09l0.028 0.024 0.104 0.174c0.08 0.056 0.165 0.109 0.255 0.165 0.122 0.075 0.248 0.153 0.364 0.246 0.065 0.051 0.144 0.076 0.245 0.108 0.091 0.03 0.196 0.064 0.302 0.124 0.175 0.099 0.326 0.238 0.473 0.372 0.134 0.122 0.261 0.238 0.391 0.312 0.049 0.027 0.101 0.05 0.153 0.073 0.166 0.073 0.373 0.164 0.479 0.385l0.059 0.123-0.082 0.109c-0.036 0.047-0.068 0.113-0.102 0.181-0.073 0.145-0.155 0.308-0.314 0.412l-0.042 0.029-0.254 0.036c-0.01 8e-3 -0.019 0.018-0.029 0.028-0.039 0.036-0.079 0.075-0.13 0.101-0.106 0.053-0.203 0.078-0.288 0.099-0.079 0.021-0.142 0.037-0.202 0.073-0.058 0.034-0.116 0.106-0.177 0.182-0.101 0.124-0.214 0.264-0.393 0.337l-0.208 0.085-0.085-0.208c-6e-3 -0.015-0.085-0.072-0.337-0.072-0.301 0-0.682 0.083-0.887 0.161-0.362 0.138-0.642 0.425-0.831 0.853l-0.042 0.503-0.107 0.072c-0.016 0.23-0.03 0.468-0.028 0.528 0.021 0.121 0.183 1.079-0.025 1.468-0.083 0.154-0.211 0.281-0.335 0.403-0.072 0.071-0.141 0.14-0.188 0.202 0 2e-3 -2e-3 0.014-5e-3 0.024-0.017 0.06-0.048 0.17-0.158 0.244-0.128 0.085-0.265 0.159-0.396 0.231-0.264 0.144-0.513 0.279-0.668 0.477-0.193 0.245-0.295 0.517-0.414 0.834-0.041 0.109-0.083 0.22-0.131 0.336-0.035 0.124-0.058 0.845-0.035 1.064l0.172 0.173-0.013 0.108c-0.054 0.446 0.146 0.828 0.326 1.113l0.043 0.068-9e-3 0.08c-0.025 0.195 0.075 0.491 0.162 0.753 0.044 0.13 0.089 0.264 0.12 0.388 0.049 0.19 0.011 0.428-0.017 0.602-5e-3 0.035-0.011 0.067-0.013 0.091-6e-3 0.051 0 0.155 6e-3 0.247 0.01 0.166 0.019 0.324-0.014 0.438-0.083 0.289-0.216 0.577-0.356 0.88-0.116 0.254-0.237 0.516-0.331 0.788-0.099 0.281-0.055 0.627-6e-3 0.993 0.011-0.31 0.154-0.662 0.247-0.822 0.203-0.346 0.565-0.59 0.885-0.805 0.05-0.034 0.1-0.068 0.148-0.101 0.012-0.042 0.032-0.091 0.072-0.137 0.079-0.089 0.171-0.168 0.261-0.244 0.106-0.09 0.207-0.176 0.272-0.269l0.053-0.266 0.159-0.053c0.387-0.608 0.297-1.181 0.195-1.841-0.072-0.463-0.147-0.942-0.057-1.464 0.022-0.125 0.227-1.237 0.735-1.618 0.115-0.085 0.217-0.124 0.299-0.156 0.075-0.028 0.112-0.043 0.147-0.077l0.086-0.085 0.143 0.031c0.12 0.026 0.22 0.057 0.306 0.215 0.202 0.33-0.04 0.747-0.2 1.023-0.033 0.059-0.066 0.115-0.079 0.146-0.185 0.429-0.383 0.985-0.275 1.484l8e-3 0.035-0.036 0.328c0.112 0.602 0.312 1.167 0.563 1.597l0.185 0.184 0.016 0.03c0.045 0.087 0.054 0.164 0.058 0.217l0.07 0.024 0.042 0.068c0.048 0.075 0.33 0.974 0.235 1.211-0.131 0.33-0.36 0.56-0.583 0.781-0.172 0.173-0.336 0.336-0.432 0.532-0.075 0.15-0.123 0.288-0.174 0.432-0.041 0.119-0.084 0.243-0.145 0.385-0.033 0.076-0.079 0.147-0.123 0.216-0.049 0.076-0.1 0.154-0.119 0.222-0.159 0.578 0.15 1.603 0.532 2.463 0.011-0.048 0.023-0.093 0.035-0.137 0.01-0.04 0.021-0.081 0.032-0.128l-0.035-0.279 4e-3 -0.03c0.043-0.3 0.136-0.721 0.273-1.002l0.016-0.034 0.37-0.37c0.25-0.383 0.695-0.712 1.053-0.978l0.097-0.072c9e-3 -0.053 0.027-0.118 0.08-0.179 0.065-0.076 0.15-0.106 0.212-0.128 9e-3 -3e-3 0.018-6e-3 0.026-8e-3 1e-3 -3e-3 2e-3 -5e-3 4e-3 -8e-3 0.014-0.035 0.036-0.088 0.078-0.14 0.068-0.084 0.156-0.142 0.234-0.192 0.05-0.033 0.103-0.069 0.128-0.098 0.287-0.341 0.466-0.786 0.656-1.258l0.064-0.158c0.12-0.296 0.044-0.816-0.077-1.175l-0.018-0.053 0.038-0.228c-0.09-0.374-0.303-0.777-0.492-1.136-0.072-0.136-0.141-0.268-0.202-0.393l-0.039-0.082 0.039-0.118c-0.064-0.157-0.135-0.294-0.204-0.429-0.208-0.407-0.406-0.792-0.357-1.535l6e-3 -0.103 0.082-0.062c0.075-0.057 0.156-0.194 0.194-0.259l0.07-0.119 0.138 8e-3c0.026 2e-3 0.05 2e-3 0.073 2e-3 0.036 0 0.07-1e-3 0.106-3e-3 0.045-1e-3 0.092-2e-3 0.147-2e-3 0.042 0 0.088 1e-3 0.141 3e-3l0.108 6e-3 0.062 0.088c0.047 0.067 0.103 0.13 0.161 0.197 0.136 0.157 0.291 0.332 0.374 0.583 0.035 0.109-6e-3 0.402-0.023 0.508l0.034 0.304v0.011c2e-3 0.096 1e-3 0.19 1e-3 0.28-1e-3 0.32-1e-3 0.573 0.094 0.836 0.118 0.329 0.357 0.662 0.557 0.92l0.02 6e-3c0.059 0.017 0.148 0.045 0.213 0.123l0.051 0.062v0.105l0.044 0.029 0.024 0.036c0.048 0.07 0.069 0.137 0.084 0.187 0.01 0.033 0.016 0.052 0.025 0.066 0.03 0.044 0.088 0.1 0.145 0.154 0.08 0.078 0.162 0.157 0.22 0.248 0.057 0.092 0.07 0.183 0.04 0.271 0.029 0.072 0.065 0.148 0.103 0.228 0.09 0.194 0.193 0.414 0.246 0.653 0.03 0.138-6e-3 0.268-0.027 0.347-4e-3 0.014-7e-3 0.026-9e-3 0.037-0.038 0.174-0.049 0.482-0.04 0.567l0.033 0.079-0.051 0.096c-0.073 0.138-0.135 0.267-0.167 0.44 0.109-0.128 0.186-0.34 0.26-0.548 0.047-0.13 0.096-0.267 0.155-0.386l0.022-0.044 0.15-0.12 0.028-0.197 0.014-0.03c0.027-0.059 0.07-0.11 0.112-0.159 0.021-0.024 0.054-0.064 0.062-0.079 0.232-0.655 0.164-1.376-0.211-2.202l-0.012-0.027-0.031-0.185c-0.031-0.034-0.073-0.07-0.114-0.105-0.078-0.067-0.159-0.137-0.219-0.223-0.248-0.36-0.399-0.706-0.502-1.159-0.035-0.152 0.025-0.9 0.084-1.038l0.023-0.055 0.14-0.105c0.03-0.11 0.029-0.289 0.029-0.425-1e-3 -0.098-1e-3 -0.183 8e-3 -0.254 1e-3 -0.015 8e-3 -0.045 0.02-0.08 6e-3 -0.02 0.02-0.064 0.022-0.087-0.095-0.287-0.279-0.489-0.473-0.703-0.311-0.342-0.663-0.732-0.578-1.468l0.017-0.145 0.138-0.044c0.047-0.015 0.081-0.035 0.125-0.06 0.079-0.046 0.177-0.103 0.342-0.128l0.095-0.014 0.076 0.058c0.075 0.057 0.152 0.111 0.228 0.165 0.33 0.232 0.671 0.471 0.885 0.968 0.071 0.163 0.061 0.296 0.054 0.392-3e-3 0.038-6e-3 0.071-2e-3 0.095l7e-3 0.043c0.07 0.452 0.157 1.013 0.307 1.426l0.013 0.037v0.169c0.241 0.502 0.566 0.896 0.91 1.312l0.119 0.144c0.061 0.075 0.112 0.159 0.161 0.239 0.117 0.189 0.196 0.306 0.321 0.332l0.15 0.03 0.028 0.155c0.019 9e-3 0.046 0.016 0.085 0.02 4e-3 -0.027 6e-3 -0.06 8e-3 -0.099-0.104-0.105-0.166-0.227-0.223-0.339-0.023-0.046-0.045-0.088-0.069-0.129l-0.212-0.107v-0.157l-0.108-0.035v-0.293c-0.017-0.031-0.044-0.075-0.063-0.105-0.053-0.087-0.088-0.143-0.106-0.199l-0.015-0.045 0.026-0.253-0.098-0.049s0.186-0.697 0.191-0.717c0.111-0.407 0.089-0.944 0.032-1.311-0.015-0.09-4e-3 -0.172 4e-3 -0.244 9e-3 -0.073 0.017-0.137 0-0.201-0.186-0.7-0.577-1.326-1.074-1.717-0.154-0.121-0.342-0.21-0.54-0.305-0.312-0.147-0.635-0.301-0.866-0.597l-0.047-0.062v-0.111c-0.02-0.023-0.044-0.048-0.068-0.074-0.075-0.078-0.159-0.166-0.204-0.275l-0.016-0.041v-0.173c-0.319-0.643-1.045-1.337-1.743-1.411l-0.201-0.021v-0.479l0.203-0.019c0.426-0.042 0.714-0.513 0.946-0.893l0.073-0.118 0.066-0.107h0.321l0.066 0.105c0.115 0.181 0.533 0.644 0.658 0.695l0.165 0.033 3e-3 0.165c2e-3 0.023 3e-3 0.037 4e-3 0.046l0.016 0.032c0.031 0.075 0.106 0.157 0.185 0.245 0.086 0.094 0.175 0.193 0.238 0.311 0.041 0.077 0.085 0.165 0.131 0.259 0.248 0.5 0.587 1.185 1.083 1.205l0.216 0.01v0.164c0.048 0.02 0.099 0.043 0.151 0.066 0.164 0.073 0.367 0.163 0.494 0.163 0.023 0 0.041-3e-3 0.047-8e-3l0.013-0.015 0.017-0.012c0.594-0.435 0.523-0.663 0.352-1.212-0.068-0.218-0.145-0.467-0.19-0.769l-5e-3 -0.037 0.072-0.398c-0.01-0.021-0.039-0.072-0.053-0.095-0.011-0.018-0.02-0.035-0.027-0.047l-0.027-0.052 2e-3 -0.059c3e-3 -0.11 0.044-0.246 0.081-0.365 0.014-0.044 0.026-0.083 0.033-0.112 0.022-0.094 0.015-0.178 6e-3 -0.283-0.011-0.135-0.025-0.304 0.031-0.516 0.054-0.202 0.105-0.401 0.154-0.597 0.104-0.412 0.201-0.801 0.318-1.145 0.013-0.036 0.015-0.077 0.017-0.13 3e-3 -0.089 6e-3 -0.199 0.065-0.324 0.039-0.085 0.107-0.166 0.172-0.245 0.033-0.038 0.07-0.082 0.095-0.118v-0.128l0.018-0.042c0.049-0.117 0.124-0.229 0.197-0.337 0.055-0.081 0.111-0.163 0.144-0.234v-0.189l0.027-0.05c0.019-0.036 0.045-0.065 0.072-0.086-5e-3 -0.054 7e-3 -0.108 0.033-0.161 0.016-0.032 0.04-0.064 0.073-0.107 9e-3 -0.011 0.023-0.03 0.035-0.047l-0.028-0.143 0.01-0.045c0.011-0.056 0.039-0.122 0.069-0.191 0.016-0.04 0.034-0.079 0.04-0.104 6e-3 -0.023-4e-3 -0.085-0.013-0.135-0.02-0.121-0.048-0.288 0.021-0.467 0.045-0.118 0.141-0.2 0.225-0.272 0.035-0.03 0.094-0.081 0.105-0.103 0.07-0.149 0.06-0.304 0.048-0.483-9e-3 -0.137-0.019-0.279 7e-3 -0.432 0.077-0.461 0.184-1.095 0.29-1.56l0.04-0.175h0.407l0.055 0.146c0.045 0.118 0.394 0.376 0.625 0.546 0.264 0.196 0.513 0.38 0.64 0.55 0.033 0.044 0.066 0.092 0.098 0.142 0.103 0.157 0.173 0.254 0.276 0.277l0.176 0.04v0.169c0.285 0.228 0.572 0.696 0.844 1.162l0.06 0.102c0.037 0.062 0.065 0.127 0.089 0.183 0.051 0.119 0.078 0.172 0.123 0.19l8e-3 3e-3c3e-3 -0.01 6e-3 -0.03 8e-3 -0.069-0.061-0.15-0.045-0.302-0.03-0.427 0.01-0.091 0.019-0.177 1e-3 -0.255-0.023-0.099-0.044-0.215-0.066-0.338-0.049-0.264-0.103-0.561-0.191-0.771l-0.217-0.216v-0.151c-0.025-0.017-0.052-0.041-0.073-0.075-0.077-0.123-0.096-0.248-0.111-0.349-6e-3 -0.049-0.013-0.093-0.025-0.129l-0.16-0.122-0.083-0.329c-0.027-0.039-0.065-0.087-0.102-0.133-0.065-0.082-0.132-0.166-0.175-0.246-0.062-0.116-0.069-0.205-0.075-0.269-5e-3 -0.05-7e-3 -0.077-0.035-0.133-0.017-0.033-0.07-0.09-0.113-0.135-0.064-0.068-0.131-0.139-0.174-0.221l-0.017-0.033-0.032-0.194c-0.238-0.302-0.448-0.626-0.651-0.94-0.161-0.249-0.328-0.507-0.506-0.748-0.296-0.405-0.674-0.78-1.039-1.143-0.129-0.128-0.257-0.255-0.381-0.382-0.165-0.171-0.326-0.348-0.482-0.52-0.316-0.351-0.644-0.713-1.01-1.01-0.226-0.184-0.338-0.23-0.385-0.239l-5e-3 8e-3c-0.031 0.084 0.093 0.423 0.153 0.585 0.063 0.176 0.119 0.328 0.134 0.452l0.031 0.252h-0.387l-0.723-0.761-0.154-0.077-0.031-0.039c-0.289-0.367-0.578-0.687-0.926-1.068-5e-3 0-0.028-0.01-0.046-0.016-0.06-0.025-0.142-0.058-0.206-0.128-0.116-0.129-0.2-0.271-0.281-0.408-0.048-0.082-0.095-0.16-0.146-0.232l-0.288-0.216-0.02-0.028c-0.05-0.068-0.099-0.138-0.147-0.206-0.171-0.241-0.331-0.468-0.52-0.673-0.033-0.035-0.102-0.093-0.168-0.148-0.114-0.096-0.223-0.187-0.282-0.27-0.316-0.441-0.591-0.863-0.914-1.401-0.049-0.016-0.119-0.043-0.167-0.113-0.052-0.074-0.088-0.183-0.139-0.353-0.021-0.07-0.045-0.151-0.061-0.186-9e-3 -0.018-0.023-0.051-0.039-0.091-0.016-0.039-0.044-0.109-0.067-0.158l-0.14-0.07-0.033-0.06c-0.072-0.125-0.067-0.237-0.064-0.319 2e-3 -0.045 2e-3 -0.071-5e-3 -0.097l-0.213-0.213v-0.273c-0.032-0.095-0.063-0.194-0.096-0.295-0.047-0.148-0.096-0.302-0.144-0.435" fill="#eccea0" fill-rule="evenodd"/></g><g transform="translate(63.293 40.048)"><path d="m0 0c-0.027 0.038-0.022 0.033-0.036 0.107h0.036zm7.056 1.728c0.164 0.249 0.482 0.615 0.54 0.936 0.032 0.178-0.103 0.439-0.144 0.575-0.084 0.361-0.168 0.721-0.252 1.08-0.059 0.177-0.168 0.361-0.216 0.577-0.071 0.316 0.137 0.457 0.072 0.755-0.147 0.684-0.012 2.03-0.684 2.197-0.062 0.449-0.021 1.165-0.18 1.655-0.058 0.177-0.147 0.429-0.252 0.576-0.072 0.072-0.144 0.145-0.216 0.216-0.208 0.441-0.257 0.925-0.504 1.332l-0.252 0.252c-0.198 0.42 0.062 1.559-0.252 1.98-0.012 0.037-0.024 0.072-0.036 0.108-0.149-0.028-0.206-0.087-0.324-0.144-0.127-0.691 0.314-1.471-0.072-2.015-0.123-0.168-0.352-0.143-0.432-0.361-0.156 0.058-0.164 0.151-0.36 0.18-0.011 0.196-0.042 0.43-0.144 0.54-0.058 0.161-0.17 0.159-0.288 0.252-0.293-6e-3 -0.337-0.105-0.504-0.216-0.138-0.625 0.069-1.446 0.216-2.052 0.036-0.299 0.072-0.6 0.108-0.9 0.056-0.234 0.233-0.718 0.144-1.008-0.081-0.264-0.245-0.689-0.396-0.935-0.084-0.136-0.2-0.214-0.252-0.397-0.324-0.07-0.808-0.14-1.044-0.323h-0.036c-0.06 0.3-0.12 0.599-0.18 0.899-0.031 0.07-0.192 0.159-0.18 0.252 0.031 0.252 0.074 0.569 0.144 0.865 0.201 0.843 0.83 3.057-0.54 3.023-0.197-0.187-0.464-0.267-0.612-0.504-0.166-0.266-0.414-1.178-0.288-1.691 0.039-0.16 0.172-0.315 0.216-0.433-0.012-0.216-0.024-0.432-0.036-0.647-0.091-0.044-0.208-0.158-0.288-0.181-0.213-0.062-0.501 0.118-0.684-0.035-0.274 0.058-0.2 0.304-0.324 0.504-0.088 0.14-0.237 0.18-0.36 0.288-0.159 2e-3 -0.246-1e-3 -0.324-0.073-0.454-0.161-0.603-1.293-0.432-1.944 0.033-0.125 0.191-0.414 0.144-0.576-0.022-0.076-0.14-0.169-0.108-0.323 0.101-0.485 0.463-0.909 0.648-1.332 0.144-0.328 0.227-0.67 0.432-0.937 0.081-0.104 0.263-0.126 0.36-0.216 0.091-0.128 0.324-1.369 0.18-1.691-0.06-0.048-0.12-0.097-0.18-0.145-0.071-0.106-0.147-0.315-0.18-0.431-0.056-0.196 0.057-1.475 0.144-1.62 0.075-0.124 0.216-0.161 0.324-0.252 0.209 0 0.343 0.028 0.432 0.143h0.036c-0.371-0.846 0.536-1.804 0.396-2.699-0.041-0.264 0.126-0.713 0.468-0.612 0.497 0.146 0.759 0.88 1.044 1.259 0.28 0.374 0.693 0.675 0.972 1.044 0.074 0.098 0.118 0.221 0.216 0.289 0.212 0.146 0.425 0.231 0.576 0.432 0.231 0.307 0.417 0.619 0.648 0.936 0.192 0.192 0.384 0.383 0.576 0.576h0.324c-0.036-0.159-0.089-0.388-0.18-0.504-4e-3 -0.31 0.041-0.406 0.144-0.576 0.076-0.019 0.13-0.032 0.18-0.072 0.433 0.019 0.474 0.284 0.72 0.467 0.67 0.499 0.873 0.962 1.332 1.657" fill="#c6b6a1" fill-rule="evenodd"/></g><g transform="translate(61.781 57.147)"><path d="m0 0c0.139 4e-3 0.183 9e-3 0.252 0.072 0.205 0.082 0.178 0.293 0.288 0.468 0.012 0.013 0.024 0.024 0.036 0.036v-0.036h0.18c-0.066-0.129-0.11-0.178-0.108-0.395 0.212-0.203 0.508-0.216 0.756 0h0.144v-0.037c-0.152-0.1-0.222-0.285-0.36-0.396-0.072-0.024-0.144-0.048-0.216-0.071-0.18-0.12-0.264-0.368-0.36-0.577-0.057-0.124-0.192-0.429-0.072-0.612 0.092-0.241 0.443-0.267 0.792-0.252 0.335 0.364 0.902 0.489 1.224 0.828 0.164 0.173 2e-3 0.32 0.072 0.54 0.094 0.297 0.55 0.99 0.792 1.153 0.258 0.174 0.607 0.191 0.864 0.359l0.54 0.54c0.117 0.069 0.214 0.039 0.288 0.145 0.142 0.203 0.298 0.674 0.396 0.899 0.188 0.434 0.414 2.161-0.036 2.484 0.023 0.318 0.517 0.945 0.108 1.08-0.253 0.084-0.39-0.173-0.468-0.288-0.222-0.324-0.363-0.7-0.468-1.152v-0.612c-0.089-0.378-0.142-0.839-0.288-1.224-0.203-0.534-1.037-1.239-1.728-1.332-0.083 0.088-0.21 0.162-0.324 0.216-0.104 0.272-0.013 0.447 0.072 0.685 0.067 0.186 0.043 0.414 0.144 0.575 0.216 0.346 0.605 0.623 0.792 1.008 0.073 0.151 0.031 0.467 0 0.612l-0.072 0.72c-0.094 0.341-0.354 0.766-0.18 1.26 0.086 0.244 0.464 0.621 0.612 0.864 0.514 0.842 0.749 2.36 0.144 3.312-0.074-0.015-0.069-9e-3 -0.108-0.036-0.212-0.102-0.013-0.253-0.108-0.468l-0.144-0.108c-0.047-0.086-0.087-0.254-0.108-0.324l-0.144-1.008c-0.293-0.735-0.998-1.042-1.296-1.728-0.108-0.248-0.153-0.55-0.216-0.828-0.166-0.732 0.329-1.297-0.216-1.836-0.076-0.075-0.179-0.059-0.288-0.108-0.114-0.05-0.31-0.23-0.504-0.18-0.125 0.032-0.201 0.128-0.396 0.145-0.046 0.192-0.231 0.899-0.324 1.043 0.053 0.096 0.23 0.167 0.324 0.216 0.098 0.422 0.162 0.89 0.324 1.26 0.121 0.275 0.355 0.536 0.504 0.792 0.18 0.309 0.237 0.727 0.324 1.116 0.102 0.457-0.099 0.846-0.18 1.116-0.14 0.464-0.132 0.838-0.36 1.188-0.12 0.12-0.24 0.24-0.36 0.359-0.084 0.013-0.168 0.025-0.252 0.037-0.141 0.09-0.255 0.368-0.36 0.503-0.141 0.183-0.446 0.302-0.612 0.468-0.321 0.322-0.658 0.943-1.08 1.116 0.031 0.338 0.117 0.641-0.036 0.901-0.084 0.012-0.168 0.023-0.252 0.036-0.041-0.043-0.092-0.078-0.144-0.108-0.076-0.359-0.353-1.06-0.252-1.512 0.129-0.578 0.538-1.371 0.828-1.836 0.092-0.148 0.214-0.32 0.324-0.468 0.11-0.147 0.324-0.173 0.396-0.36 0.065-0.109 0.104-0.733 0.036-0.901-0.055-0.136-0.244-0.299-0.324-0.431-0.435-0.712-0.783-1.733-0.792-2.844-6e-3 -0.77 5e-3 -1.738 0.684-1.8 0.029-0.128 0.067-0.244 0.144-0.324-0.012-0.083-0.016-0.089-0.036-0.144-0.151-0.035-0.632-0.102-0.756-0.18-0.648-9e-3 -0.631 0.341-0.864 0.72-0.109 0.178-0.295 0.449-0.36 0.648l-0.036 0.9c-0.02 0.091-0.07 0.321-0.036 0.468 0.126 0.543 0.307 2.128-0.036 2.592-0.048 0.146-0.623 0.639-0.828 0.504-0.207 0.054-0.601 0.619-0.756 0.792-0.215-9e-3 -0.236-0.064-0.36-0.144 0.017-0.828 0.774-1.3 0.54-2.376-0.075-0.346-0.027-0.834-0.144-1.188-0.066-0.201-0.244-0.352-0.324-0.54-0.224-0.531-0.478-1.881-0.216-2.52 0.202-0.49 0.6-1.109 1.008-1.404 0.217-0.156 0.499-0.198 0.72-0.359 0.18-0.3 0.36-0.601 0.54-0.901 0.012-0.216 0.024-0.432 0.036-0.647 0.051-0.239-2e-3 -0.562 0.072-0.828 0.02-0.071 0.125-0.167 0.144-0.216 0.024-0.301 0.048-0.601 0.072-0.901 0.128-0.342 0.459-0.5 0.756-0.683 0.21-0.13 0.811-0.473 1.152-0.217 0.357 0.244-0.014 0.6 0.108 1.045 0.068 0.246 0.086 0.681 0.18 0.972 0.127 0.393 0.283 0.369 0.252 0.899 0.107-0.07 0.224-0.165 0.324-0.252" fill="#ffa500" fill-rule="evenodd"/></g><g transform="translate(73.697 48.112)"><path d="m0 0c-0.084 0.012-0.168 0.023-0.252 0.036-0.205-0.224-0.288-0.535-0.468-0.792-0.506-0.723-1.09-1.536-1.836-2.016-0.041-0.039-0.151 0.057-0.252 0-0.13-0.044-0.213-0.157-0.252-0.288-0.14-0.208 0.032-0.5 0.108-0.612 0.377 9e-3 0.55 0.399 0.792 0.576 0.308 0.226 0.567 0.453 0.864 0.684 0.036 0.06 0.072 0.12 0.108 0.18 0.193 0.115 0.382 0.078 0.504 0.252 0.167 0.239 0.221 0.527 0.36 0.792 0.104 0.197 0.6 0.701 0.396 1.043-0.027 0.084-0.037 0.082-0.072 0.145" fill="#ffa500" fill-rule="evenodd"/></g><g transform="translate(62.897 37.78)"><path d="m0 0c-0.06 0.013-0.12 0.024-0.18 0.036-0.09-0.094-0.248-0.184-0.36-0.252l-0.432-1.62c-0.054-0.145-0.239-0.534-0.18-0.647 0.03-0.154 0.064-0.131 0.144-0.216 0.074 0.013 0.07 9e-3 0.108 0.036 0.365 0.138 0.557 0.791 0.576 1.26 0.098-0.022 0.168-0.056 0.252 0 0.036 0.011 0.072 0.023 0.108 0.036 0.081 0.39 0.14 1.066-0.036 1.367" fill="#ffa500" fill-rule="evenodd"/></g><g transform="translate(72.761 45.844)"><path d="m0 0-0.36-0.36c-0.052-0.074-0.075-0.238-0.144-0.288-0.104-0.077-0.264-0.04-0.36-0.109-0.185-0.131-0.271-0.382-0.432-0.539-0.031-0.019-0.202 0.019-0.288-0.036-0.085-0.056-0.123-0.189-0.216-0.252 3e-3 -0.186-0.028-0.604 0.036-0.792 0.038-0.113 0.158-0.212 0.216-0.324 0.382 0.012 0.422 0.379 0.576 0.612 0.11 0.166 0.29 0.312 0.396 0.468 0.101 0.148 0.114 0.323 0.216 0.468 0.084 0.059 0.168 0.12 0.252 0.179 0.148 0.194 0.199 0.47 0.36 0.649-3e-3 0.162-0.023 0.196-0.072 0.288-0.06 0.012-0.12 0.023-0.18 0.036" fill="#7b9933" fill-rule="evenodd"/></g><g transform="translate(63.006 36.34)"><path d="m0 0c-0.164-0.234-0.248-0.078-0.396-0.216-0.204-0.19-0.237-0.633-0.36-0.9-0.348-0.755-0.723-1.599-0.9-2.556 0.043-0.041 0.077-0.092 0.108-0.143 0.259 0.016 0.383 0.237 0.576 0.359 0.044 0.188 3e-3 0.505 0.072 0.756 0.088 0.317 0.488 1.303 0.684 1.512 0.042 0.03 0.119 2e-3 0.18 0.036 0.151 0.085 0.113 0.311 0.36 0.432v0.575c-0.043 0.041-0.077 0.092-0.108 0.145z" fill="#7b9933" fill-rule="evenodd"/></g><g transform="translate(70.673,43.684)"><path d="m0 0c-0.108 0.427-0.302 0.835-0.396 1.26-0.07 0.316 0.135 0.456 0.072 0.756-0.144 0.682-0.014 2.031-0.684 2.196-0.062 0.449-0.021 1.165-0.18 1.655-0.058 0.177-0.146 0.429-0.252 0.576-0.072 0.073-0.144 0.145-0.216 0.216-0.208 0.442-0.257 0.925-0.504 1.332l-0.252 0.252c-0.198 0.42 0.062 1.559-0.252 1.981-0.012 0.036-0.024 0.071-0.036 0.107-0.149-0.027-0.206-0.087-0.324-0.143-0.127-0.692 0.314-1.472-0.072-2.016-0.123-0.168-0.352-0.143-0.432-0.36-0.156 0.057-0.164 0.15-0.36 0.179-0.01 0.197-0.042 0.43-0.144 0.54-0.058 0.161-0.17 0.159-0.288 0.252-0.293-6e-3 -0.337-0.104-0.504-0.216-0.137-0.625 0.069-1.446 0.216-2.051 0.036-0.3 0.072-0.601 0.108-0.901 0.056-0.234 0.233-0.718 0.144-1.008-0.081-0.264-0.245-0.689-0.396-0.935-0.083-0.136-0.2-0.214-0.252-0.397-0.324-0.07-0.808-0.14-1.044-0.323h-0.036l-0.18 0.9c-0.03 0.069-0.192 0.158-0.18 0.252 0.031 0.251 0.074 0.568 0.144 0.864 0.201 0.844 0.83 3.057-0.54 3.023-0.197-0.186-0.464-0.266-0.612-0.504-0.166-0.265-0.414-1.177-0.288-1.691 0.039-0.159 0.172-0.315 0.217-0.433-0.013-0.216-0.025-0.431-0.037-0.647-0.091-0.044-0.208-0.157-0.288-0.181-0.213-0.061-0.501 0.118-0.684-0.035-0.274 0.059-0.199 0.305-0.323 0.504-0.089 0.141-0.238 0.181-0.361 0.288-0.159 2e-3 -0.246-1e-3 -0.324-0.072-0.458-0.161-0.609-1.324-0.432-1.981 0.029-0.106 0.175-0.371 0.144-0.504-0.023-0.101-0.162-0.189-0.108-0.395 0.349-0.733 0.696-1.464 1.044-2.196 0.094-0.127 0.28-0.148 0.396-0.252 0.091-0.128 0.324-1.37 0.18-1.692-0.059-0.048-0.12-0.096-0.18-0.144-0.07-0.107-0.147-0.316-0.18-0.432-0.055-0.195 0.057-1.475 0.144-1.62 0.075-0.124 0.216-0.16 0.324-0.252 0.209 0 0.343 0.028 0.432 0.144h0.036c-0.371-0.847 0.536-1.805 0.396-2.7-0.041-0.263 0.126-0.713 0.469-0.612 0.496 0.146 0.758 0.88 1.043 1.26 0.28 0.373 0.693 0.675 0.972 1.044 0.074 0.097 0.118 0.22 0.216 0.288 0.212 0.146 0.425 0.231 0.576 0.432 0.232 0.307 0.418 0.62 0.648 0.936l0.576 0.576h0.324c-0.036-0.159-0.089-0.388-0.18-0.504-4e-3 -0.309 0.041-0.406 0.144-0.576 0.077-0.019 0.13-0.032 0.18-0.072 0.433 0.019 0.473 0.284 0.72 0.468 0.633 0.47 0.837 0.877 1.26 1.548 0.151 0.24 0.396 0.515 0.504 0.792 0.071 0.182-0.043 0.512-0.072 0.648l-0.036 0.576" fill="#ed561c" fill-rule="evenodd"/></g><g transform="translate(61.753 72.62)"><path d="m0 0c-0.017 0.098-0.054 0.115-0.129 0.15-0.03-0.026-0.038-0.03-0.087-0.043-0.136-0.528-0.044-1.372 0.087-1.878 0.071-0.279 0.082-0.683 0.41-0.498 0.033 0.182-7e-3 0.358-0.043 0.519-8e-3 0.13-0.015 0.26-0.022 0.389-0.056 0.249-0.09 0.59-0.151 0.821-0.048 0.179 0.021 0.401-0.065 0.54" fill="#231f20" fill-rule="evenodd"/></g><g transform="translate(63.567 36.355)"><path d="m0 0c-0.068 0.012-0.063 0.019-0.108 0.043-0.113 0.487-0.053 1.093-0.195 1.62-0.068 0.253-0.213 0.439-0.302 0.648l-0.086 0.41c0.043 0.057 0.086 0.115 0.129 0.173 0.086 0.051 0.163 0.05 0.238 0.108 0.05 0.072 0.101 0.144 0.151 0.216-5e-3 0.155-0.055 0.162-0.13 0.237-0.314-0.02-0.358-0.184-0.756-0.15-0.105 0.106-0.259 0.176-0.323 0.323-0.093 0.211-0.033 0.595 0.021 0.8 0.038 0.145-1e-3 0.271 0.043 0.431 0.044 0.157 0.159 0.294 0.216 0.432 0.102 0.245 0.191 0.95 0.108 1.274-0.231 0.908-0.733 1.572-1.188 2.269-0.115 0.177-0.286 0.354-0.367 0.562-0.102 0.26-0.118 0.429-0.194 0.734-0.121 0.485-0.183 1.146-0.022 1.641 0.107 0.329 0.244 0.592 0.411 0.842 0.062-8e-3 0.093-0.013 0.129-0.043 0.127-0.104 0.096-0.293 0.151-0.475 0.049-0.16 0.219-0.367 0.346-0.453 0.636-0.433 1.262 0.122 1.425 0.647 0.095 0.301 0.087 0.77 0 1.037-0.045 0.141-0.149 0.484-0.086 0.692 0.072 0.236 0.183 0.461 0.303 0.647 0.164 0.258 0.236 0.413 0.669 0.411 0.088-0.092 0.206-0.154 0.259-0.281 0.098-0.232 0.059-0.61 0.043-0.886-0.01-0.191 0.052-0.452 0.022-0.604-0.029-0.147-0.094-0.318-0.13-0.453-6e-3 -0.166-0.014-0.332-0.021-0.498-0.022-0.087-0.085-0.199-0.108-0.281-0.065-0.229-0.038-0.474-0.086-0.713-0.118-0.574 0.46-1.452 0.993-1.36 1.231 0.212 1.494 1.574 1.188 2.916v0.28c-0.058 0.242-0.086 0.546-0.173 0.8-0.165 0.482-0.278 1.285 0 1.706 0.055-2e-3 0.08-3e-3 0.108-0.021 0.123-0.05 0.326-0.434 0.497-0.54 0.458-0.286 0.989 0.174 1.145 0.474 0.082 0.159 0.049 0.43 0.108 0.606 0.059-0.018 0.062-0.011 0.129 0 0.186-1.03 0.62-1.998 1.059-2.83 0.092-0.176 0.189-0.684 0.259-0.778 0.012-0.259-2e-3 -0.884-0.324-0.669-0.252 0.086-0.208 0.515-0.324 0.735-0.067-2e-3 -0.111-8e-3 -0.151-0.023-0.108-0.463-0.01-0.893 0.345-1.079 0.147-0.077 0.405-0.126 0.562 0 0.125-0.019 0.141-0.074 0.237-0.108 0.108-0.41 0.096-1.055 0.195-1.469v-0.367c0.043-0.192 0.054-0.46 0.129-0.649 0.06-0.147 0.168-0.3 0.216-0.453 0.093-0.293 0.133-0.596 0.217-0.885 0.087-0.305 0.05-0.621 0.15-0.929 0.042-0.127 0.168-0.354 0.087-0.519-0.134-0.271-0.439-0.431-0.605-0.669-0.51-0.732-1.229-1.304-1.836-1.944-0.094 0.011-0.086 7e-3 -0.108 0.087-0.046 0.118 0.21 0.582 0.259 0.713 0.046 0.118 0.039 0.253 0.108 0.344-0.013 0.158-0.086 0.185-0.151 0.282-0.325 0-0.344-0.163-0.497-0.324-0.258-0.272-0.532-0.536-0.799-0.799-0.886-0.879-1.789-1.761-2.548-2.765-0.094-0.087-0.187-0.173-0.281-0.26-0.201-0.201-0.565-0.609-0.692-0.863-0.061-3e-3 -0.031-0.016-0.064 0m-0.54-0.8c-0.07-0.1-0.188-0.199-0.259-0.302-0.291-0.417-0.499-0.876-0.713-1.361-0.098-0.221-0.294-0.432-0.324-0.713-0.061 0.053-0.042 0.063-0.13 0.044-7e-3 7e-3 -0.014 0.014-0.021 0.022 8e-3 0.571 0.232 0.934 0.432 1.317 0.29 0.558 0.542 1.079 0.929 1.533 0.088-8e-3 0.102-0.025 0.172-0.043l0.065-0.237c-0.07-0.073-0.092-0.174-0.151-0.26m-0.821 0.692c0.088 0.268 0.113 0.503 0.216 0.755 0.089 0.217 0.208 0.441 0.302 0.649 0.051-0.015 0.101-0.029 0.152-0.044 0.015-0.197 0.131-0.813 0.065-0.95-0.092-0.189-0.332-0.323-0.454-0.496-0.113-0.161-0.167-0.383-0.346-0.476-0.013-0.017 0-6e-3 -0.021 0-0.022 7e-3 -0.043 0.015-0.065 0.022 6e-3 0.252 0.092 0.359 0.151 0.54m5.789 17.365c0-0.076-5e-3 -0.146-0.022-0.195-0.054-1e-3 -0.08-1e-3 -0.108-0.021-0.061 0.056-0.173 0.267-0.087 0.389 8e-3 0.021 0.015 0.044 0.022 0.065h0.151c4e-3 -0.072 0.011-0.188 0.044-0.238m-5.962-11.815c-0.061-0.162-0.341-0.587-0.475-0.669-0.067-0.042-0.119-0.037-0.173-0.086-0.224 0.014-0.295 0.099-0.41 0.215-0.461 0.465-0.158 0.975-0.281 1.729-7e-3 0.237-0.014 0.474-0.022 0.713-0.096 0.417-0.152 0.824-0.345 1.144-0.212 0.353-0.389 0.725-0.626 1.059-0.241 0.338-0.532 0.661-0.67 1.101-0.274 0.873 0.245 1.985 0.583 2.548 0.081 0.135 0.088 0.301 0.173 0.433 0.174 0.269 0.572 0.842 0.821 1.015 0.318 0.221 0.68 0.372 1.015 0.583 0.557 0.351 1.064 0.794 1.62 1.145 0.107 0.066 0.237 0.081 0.345 0.15 0.306 0.199 0.615 0.41 0.908 0.627 0.269 0.201 0.488 0.529 0.691 0.799 0.218 0.292 0.517 0.522 0.713 0.843 0.217 0.355 0.321 0.761 0.561 1.08 0.224 0.298 0.671 0.472 1.015 0.648 0.079 0.029 0.159 0.057 0.238 0.086 0.083-1e-3 0.128-7e-3 0.173-0.043 0.505-0.181 0.131-1.007 0.043-1.339v-0.259c-0.011-0.043-0.054-0.161-0.065-0.216-0.051-0.252 0.093-0.439-0.065-0.67-0.146-0.215-0.44-0.294-0.518-0.583-0.048-0.176 0.052-0.328 0.086-0.433 0.081-0.245 0.222-0.776 0.13-1.123-0.062-0.23-0.198-0.293-0.346-0.431-0.468 8e-3 -0.358 0.569-0.777 0.691-0.129 0.09-0.332 0-0.432-0.065-0.237-0.154-0.564-0.8-0.454-1.275 0.066-0.286 0.073-0.614 0.151-0.928 0.233-0.934 0.847-3.535-0.691-3.412-0.101 0.104-0.248 0.171-0.302 0.324-7e-3 0.122-0.015 0.244-0.022 0.367-0.11 0.514 0.14 1.245 0.238 1.663 0.054 0.232 0.017 0.473 0.064 0.69v0.325c0.174 0.804-0.179 1.509-0.756 1.663-0.436 0.116-0.78-0.275-0.928-0.475-0.243-0.329-0.41-0.613-0.519-1.101-0.088-0.401 0.101-0.785 0.173-1.059 0.042-0.157-0.037-0.295-0.064-0.389-0.12-0.409-0.169-0.593-0.67-0.561-0.078 0.08-0.185 0.13-0.238 0.237-0.014 0.115-0.028 0.231-0.043 0.346-0.064 0.222-0.259 0.595-0.54 0.583-0.092-4e-3 -0.269-0.042-0.345-0.086-0.391-0.226-0.848-1.387-0.757-2.03 8e-3 -0.224 0.015-0.448 0.022-0.67 0.102-0.328 0.159-0.848 0.324-1.123 0.317-0.526 0.647-1.012 0.972-1.535 0.148-0.236 0.359-0.496 0.454-0.777 0.127-0.378 0.173-1.066 0.021-1.469m0.562 12.247c-0.099 8e-3 -0.112 0.03-0.173 0.065 0.02 0.212 0.346 0.411 0.475 0.54 0.055-2e-3 0.08-3e-3 0.108-0.022 0.05-0.022 0.047-0.037 0.087-0.064-0.017-0.276-0.338-0.374-0.497-0.519m-0.627 0.325c-0.183 0.013-0.233 0.096-0.345 0.172 7e-3 0.05 0.014 0.101 0.022 0.151 0.204 0.095 0.449 0.138 0.604 0.281 0.113-6e-3 0.143-0.03 0.216-0.065 7e-3 -0.05 0.015-0.101 0.022-0.151l-0.259-0.259c-0.078-0.056-0.184-0.071-0.26-0.129m-0.583 0.734c-0.044 0.176-0.025 0.191 0.087 0.302 0.094-0.01 0.263-0.055 0.345 0 0.129 0 0.146-0.021 0.216-0.065-0.011-0.241-0.233-0.211-0.367-0.324-0.16 0-0.191 0.032-0.281 0.087m0.627 0.842c-1e-3 -0.071-7e-3 -0.129-0.022-0.173-0.136-0.031-0.283-0.065-0.453-0.064-0.04 0.043-0.084 0.113-0.13 0.151 0.031 0.126 0.091 0.151 0.151 0.237 0.184-6e-3 0.325-0.081 0.454-0.151m-0.411 0.561c-0.022 0.111-0.026 0.148-0.021 0.26 0.032 0.029 0.063 0.069 0.086 0.108 0.092 2e-3 0.132 3e-3 0.173-0.043 0.219 7e-3 0.259 0.19 0.324 0.345 0.172-0.069 0.178-0.213 0.28-0.345-7e-3 -0.252-0.199-0.417-0.345-0.54-0.242 0.029-0.344 0.115-0.497 0.215m-0.345 0.346c-0.081-0.326-0.115-0.681-0.216-1.015-0.043-0.141-0.122-0.305-0.087-0.475 0.03-0.139-3e-3 -0.291 0.065-0.389 0-0.15-0.032-0.157-0.086-0.237-0.936-6e-3 -1.604 0.134-1.858 0.799-0.079 0.207-0.047 0.405-0.108 0.647-0.031 0.126-0.098 0.317-0.065 0.497 0.017 0.092-0.032 0.298 0 0.454 0.062 0.286 0.054 0.658-0.042 0.907-0.184 0.474-0.691 0.995-1.081 1.274-0.116 0.084-0.244 0.114-0.367 0.194-0.259 0.17-0.504 0.498-0.648 0.779-0.642 1.248 0.142 2.734 0.475 3.779 0.086 0.269 0.048 0.607 0.108 0.886 0.042 0.191-0.033 0.397-0.065 0.54-6e-3 0.143-0.014 0.288-0.021 0.431-0.045 0.179-0.103 0.397-0.173 0.583-0.063 0.17-0.207 0.375-0.129 0.563 0.218-0.023 0.572-0.401 0.713-0.54 0.392-0.393 0.73-0.815 0.885-1.447 0.08-0.328-0.051-0.884-0.108-1.145-0.113-0.52-0.047-1.239 0.065-1.686 0.036-0.144-1e-3 -0.232 0.043-0.367 0.159-0.487 0.479-0.855 0.864-1.123 0.153-0.106 0.416-0.316 0.734-0.237 0.367 0.092 0.565 0.485 0.432 0.95-0.136 0.477-0.418 0.878-0.561 1.361-0.053 0.176 0.021 0.404-0.022 0.605-0.018 0.082-0.047 0.272-0.021 0.389 0.051 0.239 0.051 0.477 0.129 0.691 0.176 0.481 0.426 0.881 0.626 1.339 0.066 0.151 0.205 0.3 0.26 0.453 0.064 0.184 0.116 0.784 0.064 0.994-0.136 0.551-0.575 0.835-0.864 1.231-0.179 0.247-0.26 0.536-0.41 0.821-0.166 0.316-0.374 0.738-0.238 1.296 0.033 0.132 0.081 0.305 0.13 0.431h0.13c0.19-0.717 0.894-1.305 1.425-1.706l0.324-0.345c0.648-0.489 1.15-1.105 1.404-1.988 0.124-0.427 0.014-1.061-0.108-1.403-0.15-0.423-0.236-0.806-0.432-1.188-0.068-0.132-0.184-0.292-0.237-0.432-0.022-0.094-0.044-0.188-0.065-0.281-0.072-0.169-0.201-0.331-0.26-0.518-0.243-0.777-0.366-1.485 0.303-1.923 0.454-0.297 1.086 0.074 1.296 0.367 0.146 0.206 0.236 0.478 0.302 0.756 0.052 0.218-7e-3 0.558-0.043 0.713-0.036 0.156 0.066 0.761 0.108 0.886 0.196 0.59 0.591 0.911 0.907 1.36 0.193 0.275 0.292 0.589 0.476 0.886 0.164 0.268 0.35 0.604 0.345 1.037 0.037 0.014 0.021 4e-3 0.043 0.022 0.059-1e-3 0.099-1e-3 0.13-0.022 0.18-0.226 0.116-0.787 0.13-1.08 0.017-0.38-0.267-1.102-0.454-1.383-0.116-0.172-0.3-0.316-0.411-0.496-0.147-0.239-0.232-0.593-0.302-0.886-0.212-0.888 0.537-1.439 0.194-2.246-0.059-0.14-0.207-0.342-0.324-0.432-0.037-0.029-0.08-0.029-0.108-0.065-0.172-0.226-0.385-0.482-0.475-0.777-7e-3 -0.079-0.014-0.158-0.021-0.237-0.071-0.27-0.042-0.589 0.086-0.779 0.358-0.531 1.134-0.258 1.512 0.087 0.472 0.433 0.646 0.817 0.842 1.533v0.216c0.066 0.284 0.029 0.579 0.109 0.865 0.13 0.472 0.384 0.811 0.561 1.209 0.055-2e-3 0.08-2e-3 0.108-0.022h0.043c0.014-0.232 0.01-0.551 0.065-0.777v-0.302c0.063-0.266 0.152-0.795 0.086-1.102v-0.324c-0.141-0.554-0.315-0.972-0.605-1.361-0.435-0.583-1.334-0.715-1.771-1.296-0.221-0.295-0.337-0.669-0.54-0.993-0.392-0.628-0.955-1.113-1.814-1.275-0.05 0.045-0.117 0.095-0.173 0.13-1e-3 0.787 0.53 1.3 1.016 1.598-0.012 0.056-0.021 0.096-0.022 0.173-0.066 0.067-0.127 0.129-0.195 0.194-0.171-4e-3 -0.34-0.062-0.431-0.15-0.083 0.012-0.112 0.035-0.173 0.064-0.015 0.08-4e-3 0.307-0.022 0.346 9e-3 0.203-0.023 0.303-0.173 0.346-7e-3 6e-3 -0.014 0.013-0.022 0.021-0.067-0.065-0.183-0.096-0.237-0.173-0.133-0.191-0.208-0.381-0.367-0.54-0.141 0.022-0.364 0.252-0.454 0.346-0.348-0.021-0.042-0.532-0.129-0.886m2.117-2.57h0.108c0.014-0.015 0.028-0.029 0.043-0.043-8e-3 -0.266-0.249-0.533-0.476-0.583l-0.107 0.107c-0.018 0.023-9e-3 6e-3 -0.022 0.043 0.036 0.037 0.047 0.119 0.086 0.152 0.134 0.11 0.271 0.177 0.368 0.324m0.323-0.54h0.13c7e-3 -7e-3 0.014-0.015 0.022-0.022-0.024-0.084-0.063-0.116-0.087-0.194-0.037-0.014-0.021-4e-3 -0.043-0.022-0.062 2e-3 -0.092 9e-3 -0.13 0.022 0.019 0.099 0.066 0.143 0.108 0.216m7.063-8.704c0.209 0.194 0.46 0.344 0.691 0.518 0.101 0.101 0.202 0.201 0.303 0.302 0.394 0.298 0.719 0.661 1.015 1.059 0.072 0.064 0.144 0.129 0.216 0.194 0.133 0.143 0.282 0.312 0.389 0.475 0.028-7e-3 0.057-0.014 0.086-0.021 0.062-0.328-0.344-1.22-0.54-1.361-0.1-0.073-0.227-0.1-0.324-0.173-0.197-0.148-0.311-0.402-0.497-0.562-0.352-0.303-0.745-0.562-1.079-0.885-0.221 6e-3 -0.27 0.222-0.26 0.454m1.383-0.411c-0.166-0.333-0.327-0.657-0.54-0.951-0.091-0.124-0.218-0.229-0.303-0.367-0.097 2e-3 -0.118 0.014-0.172 0.044-0.047 0.218-0.087 0.48-0.087 0.734 0.284 0.269 0.615 0.545 0.929 0.778 0.096 0.07 0.232 0.121 0.302 0.216h0.044c-0.01-0.204-0.104-0.315-0.173-0.454m-7.949-8.316c0.412 0.554 0.891 1.021 1.296 1.577 0.173 0.173 0.346 0.346 0.518 0.519 0.201 0.257 0.442 0.463 0.67 0.691 0.18 0.18 0.329 0.367 0.518 0.539 0.137 0.124 0.224 0.343 0.411 0.411 0.022 0.018 5e-3 8e-3 0.043 0.022 0.022-0.022 0.043-0.043 0.065-0.066-0.046-0.205-0.133-0.573-0.238-0.734-3e-3 -0.238 0.064-0.24 0.152-0.366 0.272 0.013 0.372 0.185 0.54 0.302 0.435 0.301 0.87 0.703 1.188 1.123 0.104 0.137 0.284 0.23 0.388 0.367 0.229 0.301 0.504 0.545 0.735 0.843 0.086 0.111 0.238 0.186 0.323 0.301 0.547 0.736 1.113 1.506 1.599 2.29 0.043 0.07 0.043 0.146 0.086 0.216 0.08 0.13 0.196 0.263 0.259 0.41 0.037 0.086 0.023 0.158 0.065 0.239 0.147 0.28 0.348 0.578 0.497 0.863 0.102 0.196 0.146 0.399 0.238 0.605 0.125 0.282 0.283 0.612 0.388 0.929 0.059 0.177 0.047 0.39 0.087 0.562 0.035 0.152 0.014 0.796-0.022 0.841-0.043 0.066-0.093 0.081-0.151 0.13h-0.087c-0.329-0.349-0.52-0.802-0.798-1.21-0.163-0.236-0.375-0.514-0.583-0.712-0.102-0.096-0.241-0.169-0.325-0.281-0.168-0.223-0.339-0.393-0.561-0.561-0.198-0.15-0.547-0.575-0.778-0.649-0.057-0.025-0.103 0.021-0.172 0.044-0.056 0.254-0.111 0.591-0.173 0.842-0.047 0.186-0.011 0.416-0.044 0.561-0.068 0.302 0.02 0.571-0.064 0.822-0.075 0.221-0.279 0.361-0.346 0.561v0.367c-0.05 0.212-0.053 0.522-0.13 0.735-0.167 0.466-0.383 0.901-0.604 1.339-0.077 0.151-0.197 0.305-0.26 0.475-0.273 0.74-0.355 1.416-0.54 2.225v0.302c-0.071 0.309-0.114 0.61-0.043 0.885-7e-3 0.224-0.014 0.447-0.022 0.67 0.051 0.182 0.164 0.4 0.217 0.583 0.209 0.731-0.097 1.336-0.648 1.491-0.384 0.107-0.866-0.328-1.102-0.432-0.767-0.341-0.934-1.136-1.382-1.793-0.3-0.44-0.721-0.821-1.08-1.21-0.249 0.019-0.236 0.237-0.346 0.39-0.12 0.166-0.561 0.566-0.777 0.626 6e-3 0.264 0.294 0.252 0.475 0.345 0.26 0.136 0.648 0.463 0.821 0.692 0.353 0.468 0.6 1.257 1.058 1.597 0.33 0.247 0.74 0.388 1.08 0.627 0.471 0.331 0.772 0.843 1.015 1.404 0.16 0.369 0.249 1.075 0.151 1.534v0.474c-0.071 0.292-0.221 0.757-0.151 1.102 0.099 0.487 0.366 0.846 0.605 1.189 0.058 0.107 0.115 0.215 0.173 0.323 2e-3 0.209-0.053 0.214-0.13 0.324-0.524 4e-3 -0.927-0.692-1.167-1.015-0.34-0.46-0.709-0.875-0.928-1.468-0.159-0.433-0.17-0.989-0.281-1.469-7e-3 -0.13-0.014-0.26-0.021-0.389-0.162-0.424-0.436-0.814-0.778-1.058-0.095-0.068-0.228-0.081-0.324-0.152-0.268 0.011-0.306 0.162-0.454 0.281 3e-3 1.053 0.828 1.216 1.059 2.052 0.04 0.147-0.017 0.369-0.044 0.453-0.048 0.156-0.012 0.281-0.064 0.432-0.103 0.302-0.292 0.745-0.173 1.21 0.094 0.368 0.218 0.662 0.41 0.929 0.092 0.127 0.238 0.235 0.325 0.367 0.224 0.343 0.319 0.828 0.431 1.274v0.41c0 0.858-0.327 1.295-0.604 1.858-0.127 0.258-0.285 0.761-0.562 0.843-0.022 0.017-5e-3 7e-3 -0.043 0.021-0.051-0.043-0.101-0.086-0.152-0.13 6e-3 -0.294 0.128-0.532 0.195-0.777 0.014-0.165 0.029-0.331 0.043-0.497 0.024-0.103 0.058-0.361 0.022-0.496-0.186-0.698-0.508-1.206-0.864-1.729-0.126-0.183-0.33-0.347-0.475-0.518-0.193-0.225-0.333-0.58-0.432-0.885-0.267-0.816 0.191-2.224-0.648-2.506-0.129-0.079-0.336 0.017-0.411 0.064-0.285 0.186-0.315 0.531-0.216 0.929 0.015 0.109 0.029 0.217 0.044 0.324 0.017 0.048 0.086 0.103 0.108 0.152 0.107 0.243 0.194 0.455 0.302 0.67 0.107 0.213 0.15 0.402 0.238 0.626 0.119 0.305 0.31 0.65 0.431 0.971 0.052 0.136 0.027 0.234 0.065 0.39 0.078 0.317 0.186 0.829 0.087 1.23-0.251 1.013-0.656 1.508-1.296 2.118l-0.583 0.583c-0.382 0.287-0.779 0.605-1.059 0.993-0.226 0.314-0.244 0.739-0.346 1.188-0.014 0.18-0.028 0.36-0.043 0.54-0.026 0.083-0.1 0.109-0.129 0.195-0.036 6e-3 -0.072 0.013-0.108 0.021-0.389-0.402-0.556-1.308-0.713-1.944-0.055-0.225-0.083-0.578-0.022-0.821 0.054-0.208 0.165-0.368 0.238-0.54 0.144-0.337 0.239-0.679 0.432-0.971 0.274-0.416 0.748-0.656 0.885-1.21 0.105-0.422-0.191-0.905-0.323-1.123-0.365-0.603-0.603-1.233-0.8-2.009v-0.41c-0.118-0.487 0.15-1.204 0.303-1.599 0.113-0.292 0.306-0.497 0.302-0.929-0.043-0.043-0.086-0.085-0.129-0.129-0.381 7e-3 -0.59 0.288-0.756 0.518-0.345 0.48-0.413 1.022-0.432 1.772-3e-3 0.118-0.035 0.279 0 0.431 0.113 0.501 0.26 1.274 0.064 1.793-0.203 0.539-0.773 1.36-1.209 1.663-0.265 0.185-0.566 0.37-0.756 0.626-0.097 0.131-0.224 0.325-0.281 0.476-0.028 0.076-5e-3 0.176-0.043 0.237 4e-3 0.33 0.018 0.518-0.108 0.713-0.149 0-0.225-0.021-0.281-0.108-0.098-0.15-0.168-1.01-0.108-1.252 0.071-0.284 0.201-0.551 0.303-0.8 0.014-0.065 0.028-0.129 0.043-0.194 0.04-0.08 0.136-0.176 0.172-0.259 0.163-0.372 0.189-0.853 0.238-1.275 0.019-0.157 0.067-0.46 0.022-0.648-0.107-0.45-0.205-0.91-0.368-1.339-0.082-0.219-0.207-0.45-0.28-0.691-0.045-0.147 0-0.281-0.043-0.453-0.084-0.329-0.196-0.871-0.087-1.275 0.114-0.421 0.275-0.879 0.497-1.21 0.265-0.394 0.728-0.595 1.123-0.863 0.205-0.14 0.61-0.701 0.713-0.95 0.185-0.45-0.093-0.979 0.021-1.492 0.018-0.077-4e-3 -0.241 0.022-0.344 0.13-0.519 0.274-1.046 0.648-1.319 0.24-0.173 0.57-0.297 0.886-0.388 0.172-7e-3 0.345-0.014 0.518-0.022 0.043-0.01 0.161-0.041 0.237-0.021 0.115 0.029 0.241 0.195 0.39 0.151 0.172-0.051 0.291-0.292 0.431-0.389 0.3-0.207 0.711-0.264 1.015-0.475 0.13-0.09 0.174-0.276 0.281-0.389-4e-3 -0.35-0.434-0.433-0.648-0.583-0.091-0.064-0.17-0.173-0.259-0.237-0.279-0.202-0.586-0.331-0.885-0.519-0.037-0.036-0.073-0.072-0.108-0.108-0.294-0.172-0.735-0.37-0.929-0.626-0.163-0.215-0.349-0.424-0.497-0.648-0.076-0.115-0.096-0.25-0.173-0.368-0.077-0.117-0.2-0.228-0.259-0.367-0.178-0.418-0.285-0.793-0.432-1.23-0.121-0.364-0.362-0.887-0.194-1.405 0.102-0.316 0.257-0.568 0.41-0.82 0.109-0.181 0.161-0.373 0.281-0.54 0.136-0.19 0.327-0.357 0.453-0.561 0.057-0.092 0.063-0.178 0.108-0.282 0.074-0.168 0.198-0.332 0.281-0.497 0.464-0.914-0.192-2.912 0.648-3.499 0.144-0.1 0.647-0.422 0.886-0.216 0.12-0.012 0.12-0.057 0.194-0.107-0.023-0.573 0.023-0.763 0.281-1.102 0.092-0.122 0.304-0.158 0.388-0.281 0.061-0.088 0.012-0.194 0.044-0.324 0.037-0.149 0.197-0.356 0.129-0.562-0.069-0.211-0.287-0.41-0.388-0.604-0.108-0.207-0.13-0.432-0.238-0.649-0.031-0.062-0.103-0.165-0.13-0.237-0.036-0.099-2e-3 -0.176-0.043-0.28-0.197-0.508-0.341-1.093-0.497-1.642-0.067-0.24-0.044-0.462-0.107-0.691-0.096-0.343-0.143-1.599 0-1.987 0.061-0.166 0.183-0.225 0.28-0.346 0.176 4e-3 0.203 0.062 0.303 0.13 0.392 1.653 1.256 2.91 2.138 4.082 0.087 0.079 0.173 0.158 0.259 0.237" fill="#231f20" fill-rule="evenodd"/></g><g transform="translate(63.588 71.28)"><path d="m0 0c-0.041-0.041-0.12-0.083-0.151-0.129-0.071-0.105-0.027-0.252-0.065-0.389-0.039-0.143-0.166-0.638-0.108-0.821 0.012-0.038 0.064-0.094 0.086-0.13 0.044-0.013 0.087-0.028 0.13-0.043 0.059 0.062 0.137 0.111 0.173 0.195 0.088 0.207 0.165 0.967 0.151 1.188-0.032 0.029-0.063 0.069-0.087 0.108l-0.129 0.021" fill="#231f20" fill-rule="evenodd"/></g><g transform="translate(57.281 70.006)"><path d="m0 0c-0.029-0.029-0.068-0.048-0.108-0.065-0.085-0.46 0.54-0.834 0.734-1.102 0.051 5e-3 0.061 5e-3 0.087 0.021 0.083 0.031 0.078 0.075 0.129 0.13-0.031 0.208-0.564 0.936-0.734 0.994-0.027 0.019-0.053 0.02-0.108 0.022" fill="#231f20" fill-rule="evenodd"/></g><g transform="translate(68.103 69.79)"><path d="m0 0c3e-3 0.065 0.016 0.061 0 0.087-0.015 0.08-0.032 0.076-0.065 0.13h-0.151c-0.135-0.128-0.328-0.214-0.475-0.324-0.124-0.094-0.23-0.243-0.324-0.368-0.105-0.138-0.304-0.255-0.411-0.388-0.088-0.113-0.16-0.242-0.259-0.346 6e-3 -0.155 0.055-0.162 0.13-0.238 0.263 0.041 0.387 0.236 0.54 0.389l0.648 0.648c0.109 0.145 0.215 0.309 0.367 0.41" fill="#231f20" fill-rule="evenodd"/></g><g transform="translate(55.986 66.615)"><path d="m0 0c-0.109 0.116-0.256 0.186-0.389 0.281-0.239 0.173-0.448 0.354-0.713 0.518-0.149 0.094-0.295 0.246-0.518 0.26-0.036-0.043-0.072-0.087-0.108-0.13 0.038-0.19 0.233-0.249 0.368-0.346 0.147-0.106 0.28-0.266 0.431-0.367 0.247-0.166 0.52-0.317 0.735-0.519 0.222-1e-3 0.342 0.147 0.194 0.303" fill="#231f20" fill-rule="evenodd"/></g><g transform="translate(68.621 67.458)"><path d="m0 0c-0.015 0.129-0.074 0.135-0.13 0.216h-0.086c-0.083-0.058-0.196-0.057-0.281-0.109-0.085-0.051-0.167-0.166-0.259-0.215-0.196-0.105-0.37-0.176-0.54-0.303-0.06-0.044-0.091-0.127-0.151-0.173v-0.043c0.057-0.054 0.111-0.099 0.173-0.151 0.542 0.07 0.913 0.505 1.274 0.778" fill="#231f20" fill-rule="evenodd"/></g><g transform="translate(70.565 65.405)"><path d="m0 0c0.133 0.089 0.233 0.237 0.367 0.324-5e-3 0.051-4e-3 0.062-0.022 0.087-0.025 0.064-0.05 0.061-0.086 0.108h-0.086c-0.156-0.113-0.401-0.118-0.562-0.216-0.237-0.145-0.481-0.357-0.734-0.475-0.211-0.099-0.526-0.185-0.605-0.411h-0.022c5e-3 -0.146 0.051-0.134 0.108-0.216 0.325 6e-3 0.432 0.139 0.627 0.26 0.33 0.204 0.691 0.324 1.015 0.539" fill="#231f20" fill-rule="evenodd"/></g><g transform="translate(55.532 65.21)"><path d="m0 0c-0.264 0.096-0.51 0.286-0.842 0.281-0.03-0.044-0.125-0.093-0.087-0.194 0.061-0.161 0.637-0.405 0.821-0.476 0.123-0.046 0.373-0.105 0.476-0.021 0.035 0.036 0.071 0.072 0.107 0.108-5e-3 0.05-4e-3 0.061-0.021 0.086-0.076 0.166-0.272 0.151-0.454 0.216" fill="#231f20" fill-rule="evenodd"/></g><g transform="translate(54.776 62.986)"><path d="m0 0c0.15-3e-3 0.48-0.046 0.583 0.021 0.138 8e-3 0.136 0.054 0.216 0.109-0.011 0.103-0.038 0.094-0.065 0.173-0.233 0.059-0.509 0.075-0.755 0.13-0.141 0.03-0.34-4e-3 -0.454 0.021h-0.389c-0.129 0.028-0.271 0.063-0.41 0.065-0.036-0.031-0.091-0.063-0.13-0.086-0.014-0.037-4e-3 -0.022-0.021-0.044v-0.108c0.08-0.177 0.341-0.12 0.561-0.173 0.272-0.064 0.555-0.101 0.864-0.108" fill="#231f20" fill-rule="evenodd"/></g><g transform="translate(68.837 62.533)"><path d="m0 0c0.356-0.14 1.508 0.025 1.75 0.173 0.014 0.037 4e-3 0.021 0.021 0.043-2e-3 0.308-0.336 0.272-0.648 0.259-0.059-0.039-0.688-0.121-0.713-0.108-0.283 4e-3 -0.326-0.05-0.475-0.151 3e-3 -0.122 0.024-0.147 0.065-0.216" fill="#231f20" fill-rule="evenodd"/></g><g transform="translate(55.187 61.15)"><path d="m0 0c0.017 0.022 8e-3 6e-3 0.021 0.044-0.025 0.024-0.046 0.055-0.064 0.086-0.057 0.023-0.092 0.039-0.173 0.043-0.299-0.186-1.12 0.041-1.253-0.302-0.017-0.022-8e-3 -6e-3 -0.021-0.044 0.035-0.043 0.072-0.086 0.108-0.129 0.386-0.048 1.267-0.032 1.382 0.302" fill="#231f20" fill-rule="evenodd"/></g><g transform="translate(71.602 60.74)"><path d="m0 0c-0.03 0.085-0.082 0.091-0.129 0.151h-0.281c-0.108-0.069-0.293-0.03-0.432-0.064-0.355-0.087-0.796-0.049-1.167-0.13-0.162-0.036-0.415 0.053-0.54-0.021-0.195-2e-3 -0.194-0.077-0.302-0.152v-0.043c0.057-0.053 0.129-0.13 0.173-0.194 0.796 2e-3 2.272-0.03 2.699 0.367-4e-3 0.05-4e-3 0.061-0.021 0.086" fill="#231f20" fill-rule="evenodd"/></g><g transform="translate(61.925 58.385)"><path d="m0 0c0.118 0.562 0.227 1.598-0.086 2.074h-0.087c-0.237-0.369-0.018-1.046-0.129-1.555-0.023-0.101 0.021-0.232-0.022-0.302-0.017-0.354 0.136-0.354 0.324-0.217" fill="#231f20" fill-rule="evenodd"/></g><g transform="translate(62.919 59.336)"><path d="m0 0c0.028 0.091 0.098 0.326 0.043 0.41-0.02 0.058-0.037 0.063-0.065 0.108h-0.129c-0.045-0.067-0.119-0.119-0.152-0.195-0.112-0.259-0.087-0.597-0.237-0.82-5e-3 -0.223 0.024-0.276 0.108-0.389 0.367 0.014 0.338 0.586 0.432 0.886" fill="#231f20" fill-rule="evenodd"/></g><g transform="translate(60.543 59.552)"><path d="m0 0c-0.029-0.029-0.058-0.058-0.086-0.087-0.048-0.107 0.026-0.283 0.043-0.346 0.119-0.451 0.135-0.66 0.41-0.95 0.11 0.012 0.106 0.042 0.173 0.087-0.012 0.406-0.258 0.997-0.432 1.275-0.036 6e-3 -0.072 0.013-0.108 0.021" fill="#231f20" fill-rule="evenodd"/></g><g transform="translate(55.748 59.444)"><path d="m0 0c-0.05 7e-3 -0.101 0.015-0.151 0.021-0.13-0.096-0.297-0.129-0.432-0.215-0.181-0.115-0.357-0.279-0.54-0.389s-0.378-0.146-0.562-0.259c-0.081-0.051-0.141-0.139-0.216-0.195 2e-3 -0.154 0.037-0.163 0.108-0.237 0.467 0.028 1.274 0.566 1.599 0.799 0.093 0.093 0.187 0.187 0.28 0.281-9e-3 0.114-0.042 0.125-0.086 0.194" fill="#231f20" fill-rule="evenodd"/></g><g transform="translate(60.413 57.37)"><path d="m0 0c0.145-7e-3 0.205 1e-3 0.238 0.107 0.052 0.141-0.227 0.387-0.302 0.497-0.311 0.457-0.604 0.956-0.908 1.426-0.043 7e-3 -0.086 0.015-0.13 0.022-0.023-0.038-0.053-0.078-0.085-0.109 0.014-0.579 0.586-1.297 0.863-1.663 0.108-0.093 0.216-0.186 0.324-0.28" fill="#231f20" fill-rule="evenodd"/></g><g transform="translate(68.232 59.012)"><path d="m0 0c7e-3 -0.394 0.692-0.351 0.951-0.519 0.207-3e-3 0.3 0.014 0.41 0.086v0.13c-0.072 0.164-0.921 0.423-1.188 0.432-0.046-0.045-0.119-0.096-0.173-0.129" fill="#231f20" fill-rule="evenodd"/></g><g transform="translate(63.2 58.148)"><path d="M 0,0 C 0.201,0.067 0.248,0.301 0.237,0.583 0.212,0.607 0.191,0.638 0.173,0.67 0.137,0.677 0.101,0.684 0.064,0.691 0.001,0.601 -0.29,0.264 -0.173,0.086 -0.148,0.012 -0.079,-0.052 0,0" fill="#231f20" fill-rule="evenodd"/></g><g transform="translate(56.677 58.04)"><path d="m0 0c-0.043 8e-3 -0.086 0.015-0.13 0.022-0.175-0.132-0.384-0.196-0.561-0.324-0.081-0.058-0.123-0.169-0.195-0.237 6e-3 -0.13 0.038-0.142 0.087-0.217 0.455 2e-3 0.653 0.332 0.885 0.562-6e-3 0.126-0.038 0.123-0.086 0.194" fill="#231f20" fill-rule="evenodd"/></g><g transform="translate(63.654 56.852)"><path d="m0 0c0.202-0.1 0.447 0.239 0.562 0.324-0.016 0.097-0.046 0.11-0.087 0.173h-0.108c-0.045-0.032-0.115-0.019-0.173-0.043-0.135-0.057-0.249-0.166-0.367-0.238 9e-3 -0.122 0.073-0.187 0.173-0.216" fill="#231f20" fill-rule="evenodd"/></g><g transform="translate(59.852 56.96)"><path d="m0 0c-0.033-0.033-0.088-0.063-0.129-0.087 2e-3 -0.347 0.546-0.483 0.82-0.583 0.043 0.043 0.087 0.086 0.13 0.13-0.04 0.225-0.549 0.534-0.821 0.54" fill="#231f20" fill-rule="evenodd"/></g><g transform="translate(57.757 56.593)"><path d="m0 0c-0.15-0.124-0.329-0.2-0.476-0.324-0.206-0.176-0.36-0.449-0.583-0.605-2e-3 -0.061-8e-3 -0.092-0.021-0.13 0.087-0.086 0.099-0.151 0.281-0.151 0.196 0.201 0.479 0.359 0.648 0.583 0.11 0.148 0.197 0.341 0.324 0.476-0.011 0.068-0.022 0.081-0.044 0.129-0.043 7e-3 -0.086 0.014-0.129 0.022" fill="#231f20" fill-rule="evenodd"/></g><g transform="translate(67.347 45.059)"><path d="m0 0v-0.281c-0.05-0.198-0.184-0.536-0.108-0.821 0.127-0.472 0.592-1.294 1.274-1.015 0.214 0.088 0.307 0.275 0.432 0.454 0.129 0.184 0.239 0.414 0.324 0.647 0.13 0.361 0.02 0.782-0.086 1.059-0.118 0.308-0.272 0.532-0.411 0.8-0.084 0.161-0.12 0.338-0.216 0.496-0.094 0.156-0.228 0.321-0.302 0.497-0.121 0.284-0.065 0.776-0.259 0.993-0.028 0.06-0.084 0.09-0.151 0.109-0.048-0.061-0.101-0.067-0.13-0.152-0.209-0.303 0.144-1.072 0.237-1.253 0.068-0.131 0.074-0.264 0.152-0.388 0.063-0.101 0.165-0.209 0.216-0.325 0.067-0.152 0.093-0.287 0.173-0.431 0.088-0.161 0.226-0.339 0.302-0.519 0.057-0.133 0.122-0.461 0.065-0.669-0.107-0.388-0.287-0.647-0.54-0.886h-0.195c-0.195 0.186-0.335 0.238-0.431 0.54-0.094 0.291 0.031 0.696 0.086 0.951 0.061 0.284-0.077 0.6-0.13 0.798-0.055 0.208-0.034 0.394-0.108 0.583-0.029 0.078-0.108 0.128-0.151 0.195-0.075-0.011-0.086-0.027-0.151-0.043-0.08-0.395 0.05-0.83 0.129-1.188-7e-3 -0.05-0.014-0.1-0.021-0.151" fill="#231f20" fill-rule="evenodd"/></g><g transform="translate(64.409 43.309)"><path d="m0 0c-2e-3 0.151-0.038 0.146-0.108 0.217-0.194-0.023-0.245-0.144-0.454-0.152l-0.172 0.129c-0.114 0.274-0.183 0.94 0 1.189 5e-3 0.159-0.029 0.209-0.152 0.237-0.119-0.151-0.263-0.256-0.323-0.474-0.156-0.563 0.123-1.371 0.496-1.469 0.273-0.198 0.595 0.205 0.713 0.323" fill="#231f20" fill-rule="evenodd"/></g><g transform="translate(65.057 39.724)"><path d="m0 0c0.464 0.125 0.614 0.798 0.454 1.339-0.066 0.222-0.015 0.435-0.087 0.627-0.069 0.183-0.22 0.289-0.324 0.431-0.114-9e-3 -0.125-0.042-0.194-0.085-0.018-0.113-0.021-0.259 0.021-0.39 0.045-0.137 0.148-0.302 0.195-0.432 0.122-0.336 0.02-0.987-0.238-1.058-0.016-9e-3 -0.091-6e-3 -0.129 0.021-0.251 0.085-0.303 0.527-0.367 0.8-0.022 0.092-0.016 0.334 0.021 0.389 9e-3 0.357 0.081 0.767-0.173 0.885-0.059-0.062-0.137-0.11-0.173-0.194-0.141-0.335-0.113-1.339 0.022-1.663 0.074-0.178 0.196-0.328 0.324-0.454 0.118-0.116 0.351-0.296 0.648-0.216" fill="#231f20" fill-rule="evenodd"/></g></g></g></svg>
