<?xml version="1.0" encoding="UTF-8"?>
<svg version="1.1" viewBox="0 0 128 128" xml:space="preserve" xmlns="http://www.w3.org/2000/svg" xmlns:cc="http://creativecommons.org/ns#" xmlns:dc="http://purl.org/dc/elements/1.1/" xmlns:rdf="http://www.w3.org/1999/02/22-rdf-syntax-ns#"><metadata><rdf:RDF><cc:Work rdf:about=""><dc:format>image/svg+xml</dc:format><dc:type rdf:resource="http://purl.org/dc/dcmitype/StillImage"/><dc:title/></cc:Work></rdf:RDF></metadata><g transform="translate(-8.2085 -9.9068)"><g transform="matrix(2.8749 0 0 -2.8749 -425.43 417.73)"><g transform="translate(181.93 105.11)"><path d="m0 0c-0.504 0-1.056 0.307-1.074 0.597l-0.01 0.16-0.165 0.03c-0.171 0.24-0.145 0.571-0.115 0.951 0.02 0.268 0.043 0.545-8e-3 0.814l-0.02 0.104-0.095 0.044c-0.616 0.285-1.323 0.616-1.918 0.943-0.073 0.04-0.148 0.065-0.213 0.088-0.083 0.029-0.154 0.054-0.186 0.092l-0.1 0.121-0.143-0.066c-0.119-0.054-0.308-0.101-0.475-0.143-0.104-0.026-0.203-0.05-0.285-0.076-0.132-0.041-0.268-0.061-0.404-0.061-0.54 0-1.054 0.32-1.506 0.603-0.259 0.162-0.503 0.315-0.74 0.403-0.147 0.055-0.297 0.082-0.457 0.082-0.235 0-0.45-0.058-0.658-0.114-0.192-0.052-0.373-0.102-0.557-0.102-0.094 0-0.183 0.013-0.269 0.04l-0.07 0.02c-0.097 0.029-0.326 0.096-0.392 0.145-0.022 0.016-0.057 0.058-0.088 0.095-0.089 0.107-0.2 0.241-0.374 0.241-0.019 0-0.037-1e-3 -0.056-5e-3l-0.018-4e-3c-0.22-0.061-0.386-0.209-0.533-0.339-0.076-0.068-0.149-0.133-0.219-0.177h-0.173l-0.052-0.035c-0.065-0.045-0.09-0.111-0.106-0.157-0.061-0.035-0.131-0.064-0.205-0.093-0.111-0.045-0.237-0.095-0.351-0.181l-0.039-0.029-0.051-0.103c-0.041-0.01-0.098-0.028-0.15-0.074-0.081-0.069-0.143-0.157-0.198-0.233-0.045-0.063-0.087-0.122-0.13-0.159l-0.071-0.062c-0.358-0.31-0.697-0.603-1.089-0.873l-0.108-0.075 0.023-0.13c0.032-0.174 1e-3 -0.222-0.072-0.338-0.033-0.053-0.071-0.114-0.108-0.194-0.042-0.09-7e-3 -0.17 9e-3 -0.208 1e-3 -2e-3 2e-3 -3e-3 2e-3 -5e-3 -0.013-0.03-0.034-0.066-0.053-0.102-0.075-0.133-0.163-0.293-0.151-0.458-0.167-0.279-0.598-0.58-0.966-0.58-0.059 0-0.117 8e-3 -0.168 0.023-0.258 0.077-0.825 0.786-0.745 1.094l0.019 0.069-0.028 0.064c-0.019 0.042-0.039 0.082-0.06 0.122-0.043 0.083-0.08 0.154-0.088 0.241l-0.014 0.155-0.154 0.027c-0.058 0.011-0.119 0.054-0.189 0.103-0.076 0.054-0.163 0.116-0.273 0.152-0.187 0.063-0.369 0.075-0.529 0.087-0.194 0.013-0.362 0.025-0.502 0.118-0.014 0.01-0.03 0.045-0.048 0.082-0.024 0.051-0.055 0.115-0.106 0.175-0.185 0.217-0.194 0.73-0.017 0.999 0.011 0.017 0.067 0.05 0.1 0.069 0.076 0.045 0.17 0.101 0.229 0.196l0.02 0.032 0.022 0.108c0.039 0.013 0.09 0.032 0.138 0.067l0.05 0.039 0.033 0.098c0.411 0.295 0.893 0.301 1.499 0.307 0.101 1e-3 0.204 2e-3 0.31 5e-3l0.107-0.054 0.024-6e-3c0.021-4e-3 0.07-0.016 0.448-0.016 0.419 0 0.451 0.012 0.482 0.022 0.343 0.12 0.617 0.324 0.884 0.522 0.105 0.079 0.206 0.154 0.307 0.221 0.122 0.08 0.264 0.157 0.403 0.233 0.283 0.154 0.576 0.313 0.754 0.526 0.03 0.036 0.091 0.067 0.154 0.099 0.125 0.063 0.297 0.15 0.372 0.354l0.102 0.277-0.295-2e-3c-0.31 0-0.717 0.226-1.014 0.392-0.101 0.055-0.191 0.106-0.269 0.144-0.11 0.053-0.22 0.078-0.318 0.099-0.073 0.016-0.139 0.031-0.192 0.054l-0.032 0.095-0.066 0.039c-0.043 0.026-0.093 0.039-0.143 0.039-0.039 0-0.073-7e-3 -0.102-0.017-8e-3 7e-3 -0.016 0.014-0.022 0.021-0.054 0.05-0.111 0.102-0.181 0.132-0.132 0.057-0.245 0.078-0.345 0.096-0.086 0.016-0.161 0.03-0.242 0.067-0.016 7e-3 -0.055 0.042-0.081 0.066-0.055 0.049-0.112 0.099-0.181 0.13l-0.04 0.018h-0.169c-0.063 0.026-0.139 0.066-0.214 0.105-0.105 0.055-0.214 0.113-0.316 0.146-0.089 0.03-0.181 0.045-0.273 0.045-0.249 0-0.452-0.105-0.616-0.189-0.05-0.027-0.1-0.052-0.141-0.069l-0.185 0.031-0.038-9e-3c-0.285-0.062-0.519-0.104-0.734-0.104-0.186 0-0.36 0.031-0.565 0.099l-0.017 5e-3 -0.18 0.026-0.229 0.229-0.018 0.012c-0.162 0.105-0.346 0.278-0.303 0.511 5e-3 0.022 8e-3 0.061 0.012 0.108 7e-3 0.082 0.016 0.207 0.045 0.285 0.016 0.046 0.055 0.098 0.095 0.154 0.047 0.063 0.098 0.131 0.135 0.214 0.077 0.036 0.145 0.084 0.205 0.129 0.059 0.042 0.114 0.082 0.161 0.1 0.102 0.037 0.278 0.052 0.447 0.068 0.348 0.032 0.677 0.062 0.806 0.283 0.076 0.13 0.051 0.255 0.037 0.33-4e-3 0.022-9e-3 0.047-9e-3 0.058 3e-3 0.06 4e-3 0.126 5e-3 0.196 4e-3 0.226 6e-3 0.482 0.082 0.694 0.129 0.367 0.643 0.829 1.058 0.846h1e-3c0.09 0 0.201-0.043 0.321-0.088 0.091-0.035 0.197-0.075 0.308-0.103l0.179-0.045s0.066 0.183 0.067 0.187l0.053 0.068-0.016 0.09c-0.029 0.165-0.047 0.333-0.064 0.497-0.038 0.352-0.073 0.684-0.212 0.991-0.035 0.077-0.097 0.137-0.151 0.189-8e-3 8e-3 -0.018 0.018-0.028 0.027v0.135l-0.016 0.038c-0.033 0.077-0.066 0.15-0.097 0.221-0.25 0.562-0.414 0.933-0.252 1.579 0.019 0.077-7e-3 0.139-0.023 0.177-1e-3 3e-3 -3e-3 7e-3 -4e-3 0.011 0.342 1.498 1.011 2.166 1.936 3.088l0.098 0.098c0.184 0.184 0.33 0.398 0.471 0.606 0.133 0.197 0.259 0.384 0.414 0.54 0.543 0.548 1.329 1.078 2.02 1.365l0.095-0.031 0.067 0.025c0.14 0.051 0.335 0.09 0.524 0.129 0.141 0.028 0.275 0.055 0.384 0.087h0.387l0.024 5e-3c0.116 0.028 0.346 0.06 0.61 0.06 0.207 0 0.391-0.02 0.532-0.058 0.048-0.012 0.104-0.018 0.184-0.018 0.061 0 0.133 3e-3 0.21 7e-3 0.081 4e-3 0.168 8e-3 0.253 8e-3 0.117 0 0.205-9e-3 0.259-0.026 0.082-0.027 0.184-0.054 0.296-0.084 0.219-0.057 0.491-0.129 0.672-0.223 8e-3 -9e-3 0.019-0.028 0.027-0.041 0.032-0.051 0.072-0.115 0.141-0.157l0.049-0.029 0.063-2e-3c0.024 0 0.045 4e-3 0.065 0.01l0.095-0.096 0.019-0.012c0.178-0.111 0.449-0.268 0.679-0.372l0.073-0.034 0.116 0.039c0.152-0.039 0.317-0.07 0.491-0.103 0.08-0.015 0.163-0.031 0.248-0.048l0.031-6e-3 0.29 0.032c0.641-0.159 1.064-0.265 1.527-0.611 0.064-0.047 0.149-0.165 0.223-0.27 0.086-0.119 0.167-0.232 0.257-0.31 0.631-0.543 1.258-1.595 1.238-2.721-2e-3 -0.098-0.057-0.294-0.104-0.467-0.08-0.288-0.155-0.559-0.123-0.748 0.031-0.178 0.119-0.625 0.282-0.943 0.043-0.084 0.109-0.148 0.174-0.211 0.043-0.043 0.099-0.097 0.112-0.131 0.206-0.521 0.209-1.009 0.214-1.628l3e-3 -0.366h0.479l0.048 0.137c0.024 0.074 0.14 0.169 0.223 0.239 0.028 0.024 0.055 0.047 0.08 0.069l0.068 0.061v0.092c-4e-3 0.684 0.229 1.539 0.624 1.789 6e-3 4e-3 0.029 6e-3 0.052 9e-3 0.047 5e-3 0.11 0.011 0.181 0.041l0.051 0.022c0.123 0.053 0.263 0.114 0.381 0.114 0.06 0 0.109-0.015 0.153-0.047l0.032-0.023 0.037-0.01c0.318-0.083 0.423-0.513 0.523-0.929l0.022-0.088c0.052-0.211 0.059-0.285 0.059-0.31-0.021-0.072-0.042-0.152-0.063-0.236-0.059-0.223-0.124-0.475-0.217-0.671l-0.139-0.294 0.326 2e-3c0.493 0 0.924-0.257 1.111-0.654 0.162-0.344 0.104-0.723-0.157-1.04-0.206-0.248-0.6-0.286-1.017-0.326-0.302-0.029-0.614-0.059-0.896-0.17l-0.151-0.058c-0.338-0.131-0.76-0.294-1.061-0.482-0.245-0.153-0.468-0.35-0.684-0.54-0.131-0.116-0.254-0.225-0.381-0.323-0.091-0.071-0.241-0.136-0.387-0.199-0.237-0.103-0.482-0.209-0.628-0.391-0.082-0.114-0.108-0.223-0.129-0.319-0.01-0.043-0.019-0.082-0.032-0.117-0.045-0.016-0.105-0.042-0.146-0.104l-0.027-0.043-0.033-0.38c-1e-3 0-1e-3 -1e-3 -2e-3 -2e-3 -0.052-0.053-0.112-0.114-0.129-0.2-0.024-0.108 0.011-0.222 0.049-0.343 0.028-0.09 0.066-0.212 0.051-0.267l-0.019-0.07 0.029-0.067c0.046-0.104 0.1-0.205 0.152-0.302 0.084-0.156 0.164-0.304 0.216-0.471-0.02-0.088-0.054-0.233-0.058-0.31l-0.01-0.185 0.182-0.03c0.232-0.036 0.463-0.146 0.688-0.251 0.097-0.047 0.192-0.092 0.281-0.128l0.023-0.01 0.218-0.031c0.044-0.024 0.09-0.052 0.139-0.081 0.195-0.117 0.416-0.249 0.649-0.284 0.02-3e-3 0.041-4e-3 0.063-4e-3 0.196 0 0.445 0.119 0.751 0.275 0.084 0.043 0.163 0.083 0.207 0.101 0.016 6e-3 0.032 9e-3 0.053 9e-3 0.026 0 0.057-5e-3 0.091-0.011 0.042-6e-3 0.09-0.014 0.142-0.014 0.019 0 0.037 1e-3 0.056 3e-3 0.054 7e-3 0.11 9e-3 0.162 9e-3 0.539 0 0.894-0.346 1.054-1.03 0.137-0.581-0.547-1.226-0.945-1.443-0.069-0.037-0.15-0.073-0.236-0.111-0.237-0.104-0.504-0.222-0.654-0.445-0.096-0.143-0.094-0.301-0.093-0.427 1e-3 -0.066 2e-3 -0.125-9e-3 -0.179l-0.246-0.164 0.148-0.148c-9e-3 -0.017-0.018-0.037-0.024-0.06-0.02-0.072-0.013-0.184 0.017-0.334-0.125-0.344-0.297-0.6-0.488-0.725-0.1-0.066-0.242-0.101-0.409-0.101" fill="#eccea0" fill-rule="evenodd"/></g><g transform="translate(171.69 117.31)"><path d="m0 0c0.089-0.24 1.432-0.489 1.865-0.393 0.654 0.146 1.204 0.302 1.505 0.786 0.122 0.195 0.098 0.46 0.197 0.687 0.065 0.149 0.175 0.333 0.229 0.524 0.223 0.791-0.053 1.75-0.654 1.93-0.055 0.037-0.162 0.036-0.262 0.033-0.242-0.261-0.689-0.208-1.047-0.36-0.206-0.087-0.376-0.347-0.557-0.458l-0.589-0.099c-0.149-0.077-0.292-0.235-0.458-0.327l-0.196-0.589c-0.06-0.243 0.131-0.654 0.131-0.654-0.065-0.273-0.443-0.769-0.164-1.08" fill="#ed561c" fill-rule="evenodd"/></g><g transform="translate(178.04 118.91)"><path d="m0 0c-0.141-1.066 0.252-1.854 1.309-1.833 0.142 0.138 0.283 0.218 0.392 0.394 0.408-3e-3 0.73 0.011 0.982 0.13 0.105 0.407 0.075 1.046-0.164 1.309 1e-3 0.182 8e-3 0.322-0.098 0.393-0.079 0.052-0.192-0.011-0.295 0.032-0.1 0.042-0.216 0.181-0.327 0.229-0.066 0.012-0.131 0.022-0.196 0.033-0.045 0.027-0.033 0.088-0.066 0.131-0.186 0.241-0.63 0.891-0.916 0.982-0.016 9e-3 -0.491 0.066-0.621 0.065-0.091-0.079-0.274-0.079-0.36-0.163-0.107-0.105-0.073-0.229-0.131-0.393-0.183-0.514 0.111-1.068 0.491-1.309" fill="#ed561c" fill-rule="evenodd"/></g><g transform="translate(175.61 114.66)"><path d="m0 0c0.314-0.025 0.637 0.03 0.785 0.262 0.447-0.052 0.304-0.256 0.851-0.098 0.11 0.031 0.187 0.011 0.261 0.065 0.102 0.074 0.255 0.385 0.197 0.589-0.022 0.078-0.131 0.187-0.163 0.262-0.176 0.407-0.342 0.791-0.557 1.145-0.142 0.234-0.175 0.465-0.458 0.557-0.046 0.031-0.107 0.032-0.196 0.032-0.319-0.342-0.063-0.285-0.197-0.72-0.032-0.105-0.128-0.27-0.163-0.392v-0.197c-0.183-0.437-0.632-0.56-0.622-1.21 0.084-0.081 0.194-0.203 0.262-0.295" fill="#ed561c" fill-rule="evenodd"/></g><g transform="translate(173.06 112.27)"><path d="m0 0c0.126-0.377 0.912-0.58 1.406-0.36 0.077 0.076 0.154 0.152 0.23 0.229-0.013 0.642-0.448 0.492-0.655 0.785-0.118 0.167-0.124 0.314-0.294 0.426-0.011 0.152-0.022 0.305-0.033 0.458 0.021 0.06 0.119 0.07 0.098 0.196-0.047 0.28-0.322 0.508-0.458 0.72h-0.131c-0.031-0.058-0.042-0.054-0.065-0.131-0.114-0.207 0.109-0.524 0.033-0.818-0.032-0.121-0.134-0.207-0.164-0.295 0.011-0.12 0.021-0.239 0.033-0.359l-0.164-0.164c-0.064-0.167 0.095-0.599 0.164-0.687" fill="#ed561c" fill-rule="evenodd"/></g><g transform="translate(167.45 124.22)"><path d="m0 0c0.187 0.248 0.5 0.4 0.687 0.647 1.024 1.355 2.179 2.671 4.594 2.631 0.242-0.233 0.509-0.493 0.628-0.844 0.033-0.137 0.066-0.275 0.099-0.412-0.021-0.173-0.217-0.39-0.157-0.628 0.087-0.352 0.564-0.953 0.863-1.08 0.344-0.146 0.758 0.045 0.942 0.196 0.294-0.013 0.446-0.279 0.589-0.451-8e-3 -0.256-0.277-0.555-0.196-0.825 0.066-0.218 0.277-0.392 0.393-0.569 0.089-0.137 0.107-0.308 0.197-0.452 0.051-0.052 0.104-0.105 0.156-0.157 0.089 0.014 0.1 0.042 0.157 0.079 0.065 0.355-0.139 0.672-0.294 0.883-0.064 0.087-0.179 0.162-0.216 0.275-0.053 0.165 0.046 0.335 0.079 0.432 0.035 0.106 0.039 0.212 0.097 0.295-1e-3 0.249-0.188 0.421-0.333 0.529v0.059c0.413-0.015 0.611-0.341 0.943-0.451 0.168-0.056 0.41 0.02 0.569 0 0.256-0.032 0.529-0.188 0.686-0.334 0.101 6e-3 0.113 0.027 0.177 0.059 0.011 0.025 0.024 0.059 0.039 0.078-0.055 0.426-0.574 0.458-0.981 0.55-0.171 0.039-0.239-0.033-0.393 0.02-0.263 0.091-0.661 0.341-0.903 0.491-0.094 0.058-0.283 0.184-0.49 0.118-0.154-0.05-0.285-0.212-0.412-0.295-0.136-0.088-0.299-0.119-0.433-0.216-0.362 3e-3 -0.79 0.52-0.844 0.825-0.045 0.253 0.162 0.558 0.078 0.863-0.077 0.286-0.26 0.62-0.451 0.806 8e-3 0.089 0.026 0.101 0.059 0.156 0.83-8e-3 1.537-0.147 2.061-0.471 0.271-0.167 0.538-0.381 0.845-0.51 0.317-0.134 0.68-0.113 1.06-0.196 0.223-0.05 0.428 0.017 0.627-0.04 0.839-0.238 1.395-0.692 1.846-1.315 0.164-0.226 0.399-0.431 0.53-0.687 0.034-0.105 0.066-0.21 0.099-0.314 0.147-0.35 0.294-0.658 0.294-1.178 0-0.278-0.03-0.494-0.078-0.707v-0.177c-0.022-0.085-0.092-0.303-0.04-0.392 4e-3 -0.199 0.013-0.414-0.059-0.531-0.374 0.069-0.493 0.754-0.628 1.1-0.079 0.203-0.215 0.312-0.353 0.452-0.05-2e-3 -0.073-3e-3 -0.099-0.02-0.053-0.027-0.055-0.064-0.097-0.098 0.016-0.185 0.12-0.276 0.176-0.413 0.07-0.168 0.073-0.322 0.138-0.49 0.073-0.19 0.209-0.374 0.313-0.531 0.065-0.095 0.106-0.208 0.197-0.274 0.34-0.248 0.739-0.361 0.962-0.727 0.173-0.283 0.094-0.917 0.176-1.296v-0.373c0.143-0.527 0.757-0.85 0.492-1.61-0.04-0.113-0.109-0.256-0.177-0.353-0.269-0.377-0.578-0.394-0.962-0.628-0.106-0.064-0.198-0.164-0.295-0.235-0.053-0.04-0.12-0.065-0.156-0.118-0.083-0.121-0.148-0.289-0.177-0.452 6e-3 -0.059 0.013-0.118 0.02-0.176 3e-3 -0.243 3e-3 -0.521-0.04-0.707-0.022-0.094 8e-3 -0.141-0.04-0.197-0.03-0.016-0.079-9e-3 -0.097 0-0.07 0.034-0.071 0.085-0.118 0.138-0.148 0.166-0.298 0.201-0.628 0.196-0.165-0.167-0.323-0.302-0.452-0.511-0.275 0.013-0.32 0.257-0.51 0.354-0.459 0.232-0.732-0.237-0.884-0.51-0.034-0.013-0.02-4e-3 -0.039-0.02-0.232 0.02-0.259 0.255-0.412 0.353-0.06 0.038-0.117 0.017-0.196 0.04-0.401 0.112-0.553-0.047-0.766-0.236-0.21 0.024-0.238 0.216-0.413 0.275-0.115 0.039-0.239-0.01-0.333-0.039-0.364-0.113-0.585-0.207-0.707-0.55-0.044-0.123-0.011-0.279-0.078-0.373-0.034-0.046-0.063-0.056-0.119-0.079-0.058 0.077-0.16 0.138-0.196 0.236-0.033 0.088 0.015 0.119 0 0.196-0.019 0.107-0.053 0.275-0.079 0.393v0.275c-0.082 0.33-0.231 0.65-0.471 0.824-0.685 0.499-1.533-0.262-2.336-0.039-0.428 0.119-0.61 0.435-0.844 0.746-0.123 0.163-0.383 0.379-0.57 0.471-0.113 0.057-0.233 0.027-0.373 0.059-0.169 0.04-0.401 0.017-0.549-0.039-0.16-0.06-0.264-0.189-0.393-0.275 0.011-0.117 0.051-0.125 0.099-0.196 0.132 2e-3 0.273 0.035 0.353 0.098 0.099 1e-3 0.141-9e-3 0.196-0.039-0.024-0.172-0.272-0.195-0.392-0.275-0.15-0.101-0.32-0.256-0.373-0.452l0.117-0.117c0.228 0.058 0.594 0.362 0.806 0.49 0.141 0.086 0.347 0.109 0.47 0.216 0.105-9e-3 0.142-0.043 0.216-0.078 0.013-0.034 4e-3 -0.02 0.02-0.04-0.036-0.237-0.262-0.249-0.432-0.353-0.177-0.108-0.509-0.33-0.628-0.491-0.051-0.068-0.077-0.139-0.138-0.196 2e-3 -0.137 0.035-0.132 0.099-0.196 0.233 0.025 0.519 0.405 0.706 0.53 0.137 0.09 0.35 0.149 0.452 0.274 0.088-8e-3 0.084-0.025 0.137-0.058 0.018-0.084 0.021-0.203 0.02-0.314-0.04-0.053-0.079-0.105-0.118-0.157-0.085-0.065-0.185-0.099-0.256-0.177-0.038-0.044-0.055-0.098-0.097-0.137 0.014-0.1 0.046-0.103 0.097-0.158 0.216 0.023 0.296 0.172 0.492 0.216 0.156-0.162 0.338-0.328 0.471-0.51 0.072-0.098 0.115-0.226 0.197-0.315-6e-3 -0.088-0.022-0.094-0.04-0.156-0.176-0.032-0.381 0.037-0.549 0.078-0.204 0.049-0.393 0.028-0.59 0.078-0.078 7e-3 -0.157 0.014-0.235 0.02-0.808 0.267-1.59 0.711-2.002 1.374-0.255 0.41-0.381 0.947-0.511 1.473-0.068 0.278-0.066 0.652 0 0.903 0.038 0.148-0.053 0.233-0.078 0.314-0.052 0.164-1e-3 0.357-0.021 0.471-0.059 0.35 0.029 0.687-0.058 0.982-0.124 0.419-0.368 0.731-0.511 1.099-0.076 0.198-0.087 0.343-0.156 0.55-0.07 0.205-0.175 0.51-0.118 0.785v0.393c0.259 1.142 0.761 1.787 1.354 2.572m14.548-8.128c0.045-0.015 0.044-0.02 0.078-0.039l0.059-0.53c-0.074-0.075-0.145-0.159-0.216-0.236-0.087 0.014-0.116 0.044-0.177 0.079-7e-3 0.108-0.039 0.171-0.059 0.255-0.052 0.228 0.148 0.385 0.236 0.491 0.046-5e-3 0.055-4e-3 0.079-0.02m0.647 2.67c0.042 0.116 0.01 0.222 0.039 0.354 0.063 0.277 0.079 0.718 0.216 0.922 0.08 0.118 0.278 0.275 0.413 0.334 0.079 0.035 0.173 0.03 0.236 0.078 0.775-1e-3 0.877-1.182 0.608-1.806-0.045-0.105-0.251-0.492-0.157-0.648 0.021-0.06 0.048-0.07 0.079-0.117 0.19-0.019 0.402 0.075 0.628 0.019 0.522-0.129 1.039-0.736 0.608-1.335-0.319-0.445-1.448-0.256-1.924-0.569-0.109 0.018-0.124 0.069-0.196 0.118-6e-3 0.443-0.239 0.668-0.432 0.922-0.041-7e-3 -0.038-4e-3 -0.059-0.019-0.055-0.023-0.036-3e-3 -0.059-0.059-0.048-0.111 0.102-0.33 0.138-0.432 0.065-0.184 0.08-0.401 0.078-0.628-0.064-0.067-0.132-0.131-0.196-0.197-0.221 0.013-0.174 0.142-0.236 0.314-0.057 0.161-0.17 0.372-0.215 0.511-0.067 0.203 0.136 0.489 0.078 0.726-0.064 0.26-0.24 0.439-0.236 0.746 0.223 0.208 0.477 0.454 0.589 0.766m-1.511-4.123c-0.034-0.016-0.061-9e-3 -0.098 0.02-0.062 0.043-0.202 0.578-0.157 0.648 0.054 0.157 0.223 0.156 0.333 0.255h0.098c0.028-0.029 0.064-0.057 0.099-0.078 0.013-0.19 0.025-0.38 0.039-0.57-0.096-0.091-0.177-0.228-0.314-0.275m-0.531-0.274c-6e-3 -0.02-0.012-0.04-0.019-0.06-0.061 1e-3 -0.101 7e-3 -0.137 0.02-0.036 0.17-0.053 0.534 0.039 0.648 0.044 0.031 0.037-8e-3 0.078 0.039h0.039c0.017-0.147 0.108-0.512 0-0.647m-1.296-0.531c0.041 8e-3 0.039 5e-3 0.06 0.02 0.339-0.085 0.392-0.493 0.354-0.903-0.078-0.081-0.127-0.188-0.237-0.236-0.092-0.04-0.198-0.026-0.274-0.078-0.163-1e-3 -0.168 0.039-0.255 0.098-3e-3 0.682 0.021 0.75 0.352 1.099m0.217-1.374c0.074-0.038 0.102-0.085 0.156-0.137-4e-3 -0.27-0.234-0.678-0.588-0.57-0.132 0.041-0.166 0.156-0.255 0.236-5e-3 0.108-0.052 0.254-0.02 0.314 0.018 0.053 0.033 0.058 0.059 0.098 0.204-0.016 0.504-0.045 0.648 0.059m-1.688 1.197c0.043 0.03 0.098 0.03 0.136 0.06 0.228-0.101 0.39-0.271 0.472-0.511 0.041-0.119 0.034-0.24 0.099-0.334-0.018-0.12-0.067-0.139-0.118-0.215-0.087-0.02-0.23-0.049-0.295-0.099-0.27-4e-3 -0.355-3e-3 -0.51 0.099-0.085 0.379-0.053 0.819 0.216 1m-0.197-1.452c0.156 0.017 0.422 3e-3 0.531 0.078h0.156l0.138-0.117c8e-3 -0.081 0.046-0.207 0-0.275-0.026-0.253-0.246-0.318-0.393-0.452-0.139-3e-3 -0.265-6e-3 -0.334 0.059-0.191 0.065-0.206 0.32-0.196 0.589 0.033 0.039 0.065 0.079 0.098 0.118m-0.903-0.726c-0.252-6e-3 -0.726 0.344-0.569 0.589v0.039c0.231 0.041 0.566-0.091 0.746 0.078h0.098c0.03-0.03 0.049-0.044 0.098-0.059 0.056-0.333-0.196-0.485-0.373-0.647m0.177 1.06c-0.419-0.208-0.524-0.17-0.845 0.098-0.062 0.539 0.07 0.635 0.276 0.942 0.04 8e-3 0.038 5e-3 0.058 0.02 0.062 1e-3 0.124 2e-3 0.157-0.02 0.299-0.025 0.37-0.317 0.472-0.549 0.031-0.072 0.155-0.212 0.117-0.334-0.03-0.101-0.143-0.112-0.235-0.157m-1.237-0.569c-0.023-0.301-0.202-0.322-0.393-0.452-0.365-0.01-0.299 0.14-0.432 0.353-1e-3 0.163 0.038 0.168 0.099 0.255 0.222 0 0.592-0.047 0.706-0.117 0.013-0.034 4e-3 -0.019 0.02-0.039m0.118 0.745c-0.015-0.106-0.056-0.144-0.099-0.216-0.19-0.078-0.625-0.089-0.785 0.04-0.221 0.145-0.179 0.631-0.039 0.844 0.047 0.071 0.142 0.11 0.196 0.176 0.046 5e-3 0.056 4e-3 0.079 0.02 0.069 2e-3 0.158 7e-3 0.197-0.02 0.231-0.044 0.37-0.435 0.431-0.647 0.02-0.069-8e-3 -0.149 0.02-0.197m4.162-1.178c0.022-0.099 0.098-0.211 0.058-0.353-0.093-0.345-0.309-0.755-0.569-0.943-0.24-0.173-0.529-0.26-0.766-0.431-0.198-0.144-0.358-0.399-0.549-0.53-0.127-0.087-0.35-0.164-0.491-0.216-0.13-0.049-0.877-0.187-1.06-0.137-0.189 0.05-0.415 0.081-0.589 0.156-0.219 0.095-0.396 0.274-0.589 0.393-0.27 0.168-0.67 0.37-1.001 0.452-0.845 0.208-1.598-0.419-2.337 0.117-0.389 0.284-0.438 0.885-0.569 1.434-0.031 0.134-3e-3 0.34-0.02 0.451-0.056 0.38 0.111 0.767 0 1.119-0.094 0.304-0.275 0.603-0.451 0.844-0.104 0.105-0.21 0.21-0.314 0.314-0.037 0.055-0.039 0.127-0.078 0.177 9e-3 0.1 0.029 0.086 0.078 0.138 0.163-0.027 0.337-0.117 0.511-0.157 0.33-0.078 0.702 0.052 0.942 0.117 0.14 0.038 0.34 7e-3 0.451 0.079h0.118c0.045-0.047 0.127-0.078 0.157-0.138 0.058-0.117 0.05-0.37 0.02-0.51-0.031-0.14-2e-3 -0.236-0.039-0.354-0.087-0.271-0.208-0.506-0.177-0.844v-0.255c0.115-0.463 0.536-0.781 1.001-0.903 0.243-0.064 0.653 0.13 0.844 0.079 0.165-0.045 0.188-0.269 0.314-0.354 0.427-0.287 0.88 0.113 1.08 0.314 0.264-0.035 0.431-0.531 0.844-0.432 0.217 0.053 0.296 0.23 0.472 0.295 0.076 0.046 0.167-0.071 0.216-0.118 0.093-0.092 0.343-0.26 0.55-0.216 0.372 0.079 0.51 0.267 0.746 0.471 0.139-0.012 0.142-0.077 0.235-0.117 0.26-0.116 0.634-4e-3 0.746 0.157 0.131-6e-3 0.14-0.048 0.216-0.099m0.687-1.197c0.238-0.088 0.441-0.137 0.667-0.236 0.253-0.11 0.484-0.291 0.766-0.373 0.355-0.104 1.036 0.201 1.335 0.295 0.109 0.034 0.275 0.126 0.451 0.078 0.12-0.032 0.241-0.101 0.334-0.157 0.123-0.073 0.162-0.111 0.235-0.235 0.081-0.136 0.171-0.295 0.217-0.471 0.092-0.358-0.136-0.62-0.256-0.786-0.074-0.104-0.126-0.207-0.235-0.275l-0.216-0.078c-0.168-0.104-0.339-0.248-0.511-0.354-0.213-0.132-0.454-0.205-0.588-0.412-0.348-0.533-0.016-1.538-0.55-1.924-0.67-0.484-1.402 0.368-1.531 0.864-0.107 0.41 0.142 0.962 0.019 1.316-0.101 0.289-0.459 0.408-0.529 0.608-0.054 0.086 0.069 0.622 0.117 0.687-3e-3 0.126-0.032 0.127-0.078 0.196-0.046-4e-3 -0.056-4e-3 -0.079-0.019-0.238-0.106-0.235-0.462-0.354-0.687-0.387 3e-3 -0.204 0.531-0.136 0.726 0.043 0.129 0.026 0.273 0.097 0.373-0.016 0.093-0.054 0.098-0.097 0.157-0.264-0.038-0.468-0.626-0.472-0.942-0.037-0.02-0.054-0.027-0.078-0.059-0.046 5e-3 -0.056 4e-3 -0.079 0.02-0.054 0.024-0.08 0.057-0.098 0.117-0.08 0.128 0.02 0.568 0.059 0.668 0.099 0.258 0.374 0.345 0.588 0.491 0.142 0.095 0.234 0.234 0.334 0.373 0.054 0.073 0.151 0.114 0.216 0.176 0.185-9e-3 0.311-0.085 0.452-0.137m-9.581 1.236c-0.034-0.012-0.019-3e-3 -0.039-0.019-0.152 0.019-0.164 0.134-0.295 0.177-0.019 0.016-5e-3 7e-3 -0.039 0.019-0.021-0.034-0.049-0.07-0.078-0.098 0.014-0.176 0.103-0.229 0.157-0.353 0.149-0.34 0.357-0.979 0.157-1.355-0.034-0.013-0.019-4e-3 -0.039-0.019-0.248 0.015-0.168 0.242-0.236 0.432-0.095 0.266-0.231 0.7-0.511 0.785-0.019 0.015-4e-3 7e-3 -0.039 0.019-0.032-0.032-0.065-0.065-0.097-0.098 0.072-0.468 0.38-0.754 0.373-1.374-0.045-0.046-0.068-0.118-0.118-0.157-0.043-0.033-0.082-0.041-0.119-0.079-0.049 2e-3 -0.072 3e-3 -0.097 0.02-0.143 0.054-0.119 0.236-0.177 0.373-0.125 0.294-0.301 0.552-0.53 0.746-0.1-0.016-0.112-0.055-0.177-0.098 0.02-0.205 0.115-0.281 0.196-0.412 0.149-0.242 0.262-0.566 0.255-0.943-0.085-0.089-0.118-0.194-0.235-0.255-0.019-0.021-0.05-2e-3 -0.078 0.02-0.11 0.041-0.082 0.125-0.138 0.216-0.12 0.196-0.262 0.478-0.451 0.608-0.028 0.016-0.072-0.017-0.118-0.039-0.013-0.034-4e-3 -0.019-0.02-0.039 0.018-0.183 0.101-0.264 0.157-0.393 0.105-0.239 0.163-0.48 0.158-0.825-0.09-0.091-0.169-0.201-0.256-0.294-0.08 6e-3 -0.116 0.018-0.157 0.059-0.187 0.261-0.193 0.844-0.51 0.962-0.021 0.016-5e-3 7e-3 -0.039 0.019-0.028-0.029-0.065-0.057-0.099-0.078 7e-3 -0.248 0.128-0.339 0.196-0.51 0.056-0.141 0.101-0.325 0.138-0.452 0.066-0.228-0.149-0.399-0.196-0.549-0.234-0.75-0.289-1.738-1.139-1.866-0.446-0.067-0.689 0.528-0.785 0.845-0.014 0.091-0.026 0.183-0.04 0.274-0.125 0.347-0.343 0.6-0.628 0.786-0.305 0.198-0.92 0.088-1.217 0.294-0.126 0.087-0.296 0.391-0.236 0.648 0.151 0.648 0.736 0.973 1.355 1.158h0.726c0.269-0.061 0.748-0.107 1.06-0.039h0.315c0.297 0.092 0.538 0.32 0.785 0.471 0.519 0.318 1.042 0.611 1.531 0.962 0.29 0.208 0.548 0.585 0.962 0.648v0.098l0.294 0.255c0.089-0.013 0.1-0.041 0.157-0.078 1e-3 -0.173-4e-3 -0.353-0.039-0.472m-1.296 0.884h-0.019c-0.015-0.013-0.044-0.026-0.059-0.039-0.194 8e-3 -0.207 0.111-0.314 0.196-2e-3 0.065-5e-3 0.141 0.019 0.177 0.023 0.061 0.042 0.058 0.079 0.098h0.158c0.057-0.06 0.111-0.079 0.136-0.177 0.027-0.05 0.012-0.165 0-0.255m-0.804 0.295c-0.189 0-0.266 0.139-0.294 0.294 0.032 0.039 0.064 0.079 0.097 0.118 0.107-0.025 0.161-0.071 0.236-0.118 0.012-0.044 0.014-0.052 0.039-0.079 0-0.136-0.028-0.142-0.078-0.215m-0.667 0.333c-0.145-0.138-0.385 0.095-0.413 0.216-0.036 0.05-0.05 0.25-0.02 0.295 0.013 0.034 4e-3 0.019 0.02 0.039 0.015 0.014 0.044 0.026 0.059 0.04 0.164-0.055 0.262-0.206 0.393-0.295 6e-3 -0.103 0.012-0.246-0.039-0.295m-0.806 0.452c-0.012-0.046-0.022-0.062-0.039-0.098-0.253 0.01-0.405 0.67-0.274 0.942h0.117c0.143-0.237 0.216-0.26 0.196-0.628-4e-3 -0.077 8e-3 -0.198 0-0.216m-0.647 0.216c-0.019-0.053-0.035-0.057-0.059-0.099-0.183 0.042-0.402 0.134-0.472 0.295-0.029 0.048 0.065 0.138 0.039 0.255-0.048 0.235-0.018 0.763 0.099 0.943-7e-3 0.127-0.046 0.126-0.099 0.196-0.335-0.032-0.323-0.556-0.392-0.864-0.032-0.144 0.029-0.339 0.098-0.392-7e-3 -0.074-0.015-0.074-0.039-0.118-0.186-5e-3 -0.398 0.025-0.589-0.04-0.2-0.067-0.429-0.192-0.648-0.254-0.143-7e-3 -0.288-0.014-0.432-0.021-0.635-0.147-1.54 0.198-1.335 0.943 0.129 0.469 0.565 0.505 1.041 0.628 0.304 0.079 0.632 0.054 0.785 0.275 0.202 0.294 0.012 0.896 0.137 1.276 0.113 0.342 0.302 0.623 0.628 0.746 0.091 0.034 0.2 0.012 0.276 0.059 0.258 3e-3 0.455-0.095 0.569-0.236 0.215-0.263 0.073-0.726 0.157-1.099 0.06-0.264 0.075-0.537 0.157-0.805 0.047-0.157 0.154-0.335 0.197-0.491 0.048-0.178-0.085-0.341-0.118-0.471-0.044-0.168 0.033-0.661 0-0.726m0.176 10.621c-0.328-0.436-0.651-0.846-0.883-1.374-0.132-0.299-0.276-0.64-0.373-0.982-0.052-0.182-0.013-0.345-0.059-0.55-0.031-0.139-0.081-0.392-0.039-0.569 0.107-0.457 0.226-0.871 0.412-1.256 0.062-0.131 0.177-0.275 0.235-0.413 0.079-0.185 0.13-0.417 0.177-0.608 0.027-0.109-9e-3 -0.2 0.039-0.275 4e-3 -0.239 0.014-0.37-0.078-0.511-0.142 0.01-0.204 0.07-0.314 0.098-0.081 0.021-0.218 9e-3 -0.275 0.02-0.157 0.033-0.261-0.064-0.353-0.098-0.466-0.169-0.653-0.371-0.865-0.785-0.068-0.135-0.037-0.344-0.117-0.472 3e-3 -0.347 0.037-0.691-0.098-0.903-0.417-0.092-1.067-0.125-1.374-0.353-0.2-0.147-0.6-0.759-0.472-1.217 0.089-0.316 0.423-0.644 0.707-0.766 0.451-0.192 1.343-0.166 1.846 0 0.194 0.065 0.456 0.281 0.765 0.196 0.177-0.048 0.354-0.156 0.511-0.215 0.112-0.043 0.209-0.033 0.313-0.079 0.11-0.048 0.221-0.148 0.334-0.196 0.173-0.074 0.313-0.088 0.492-0.157 0.204-0.08 0.448-0.228 0.647-0.315 0.111-0.048 0.204-0.049 0.315-0.098 0.226-0.099 0.467-0.258 0.706-0.353 0.246-0.097 0.462-0.156 0.668-0.275-0.012-0.183-0.124-0.177-0.236-0.255l-0.196-0.196c-0.191-0.137-0.391-0.228-0.589-0.354-0.313-0.198-0.622-0.406-0.942-0.608-0.208-0.132-0.413-0.307-0.688-0.373h-0.353c-0.261-2e-3 -0.614-0.039-0.884 0.019-0.157 0.034-0.498 0.062-0.687 0.02-0.349-0.077-0.594-0.16-0.844-0.314-0.435-0.269-1.27-0.985-0.883-1.787 0.132-0.274 0.387-0.502 0.706-0.589h0.295c0.259-0.059 0.529-0.113 0.726-0.235 0.326-0.202 0.25-0.644 0.412-1.001 0.177-0.389 0.451-0.745 0.904-0.864 0.515-0.136 1.055 0.36 1.217 0.608 0.086 0.135 0.078 0.284 0.137 0.452 0.062 0.172 0.189 0.401 0.255 0.569 0.058 0.145 0.017 0.366 0.099 0.491 0.058 0.09 0.184 0.115 0.274 0.177 0.119 0.082 0.232 0.202 0.354 0.294 0.085 0.092 0.17 0.183 0.255 0.275 0.25 0.25 0.595 0.609 0.883 0.805 0.136 0.092 0.294 0.124 0.432 0.216 0.196 0.131 0.408 0.311 0.608 0.432 0.141 0.084 0.284 0.142 0.394 0.255 0.268-0.012 0.355-0.226 0.529-0.334 0.112-0.069 0.329-0.104 0.452-0.137 0.266-0.073 0.616 7e-3 0.825 0.059 0.33 0.082 0.812 0.105 1.138 0 0.262-0.085 0.458-0.244 0.668-0.373 0.412-0.256 0.821-0.476 1.374-0.59 0.226-0.045 0.826 0.073 1.04 0.138 0.112 0.034 0.31 0.123 0.472 0.079 0.233-0.065 0.443-0.251 0.647-0.354 0.374-0.187 0.773-0.321 1.139-0.51 0.191-0.099 0.472-0.145 0.55-0.353 0.174-0.254-0.092-0.847-0.02-1.178 0.155-0.709 0.534-1.186 1.159-1.414 0.792-0.288 1.383 0.404 1.511 0.943v0.215c0.071 0.32 0.034 0.779 0.197 1.021 0.198 0.294 0.641 0.393 0.942 0.589 0.237 0.155 0.48 0.402 0.647 0.628 0.038 0.05 0.109 0.1 0.138 0.157 0.062 0.121 0.163 0.591 0.118 0.786-0.142 0.612-0.584 1.374-1.414 1.197-0.124-0.026-0.248 0.012-0.352-0.019-0.224-0.067-0.788-0.402-1.041-0.334-0.116 0.031-0.235 0.114-0.334 0.157-0.331 0.143-0.651 0.278-0.982 0.412-0.193 0.079-0.463 0.074-0.569 0.236-0.074 0.113-9e-3 0.442-0.078 0.608-0.071 0.171-0.212 0.335-0.276 0.511-6e-3 0.105-0.012 0.209-0.019 0.314-0.023 0.085-0.106 0.244-0.059 0.393 0.016 0.051 0.079 0.119 0.098 0.176 7e-3 0.072 0.014 0.144 0.02 0.216 0.039 0.119 0.152 0.24 0.197 0.354 0.041 0.105 0.039 0.174 0.097 0.255 0.151 0.208 0.794 0.463 1.04 0.628 0.355 0.237 0.656 0.579 1.022 0.805 0.341 0.211 0.846 0.387 1.236 0.53 0.262 0.096 0.554 0.093 0.845 0.157 0.111 7e-3 0.223 0.013 0.334 0.02 0.308 0.081 0.531 0.22 0.745 0.392 0.227 0.181 0.353 0.764 0.217 1.139-0.162 0.448-0.615 0.828-1.198 0.844-0.028 0.054-0.049 0.086-0.098 0.118 0.017 0.141 0.101 0.222 0.137 0.334 0.055 0.165 0.084 0.462 0.098 0.628 0.017 0.183-0.07 0.44-0.118 0.569-0.186 0.509-0.449 1.166-1.256 0.904-0.447-0.146-0.791-0.483-0.942-0.923-0.103-0.297-0.1-0.707-0.177-1.001v-0.138c-0.056-0.167-0.244-0.253-0.334-0.393-0.117 5e-3 -0.129 0.035-0.196 0.079-1e-3 0.677-0.024 1.207-0.216 1.708-0.058 0.155-0.202 0.274-0.275 0.412-0.124 0.236-0.195 0.547-0.255 0.825-0.03 0.141 0.048 0.363 0.079 0.471 0.075 0.262 0.142 0.566 0.098 0.864v0.294c-0.081 0.337-0.119 0.692-0.236 1.001-0.171 0.452-0.528 0.925-0.804 1.296-0.125 0.111-0.249 0.223-0.373 0.334-0.197 0.258-0.465 0.519-0.747 0.687-0.088 0.053-0.178 0.056-0.275 0.098-0.118 0.053-0.232 0.137-0.373 0.177-0.232 0.066-0.417 0.047-0.628 0.098h-0.353c-0.265 0.062-0.607 0.049-0.844 0.157-0.221 0.101-0.434 0.247-0.629 0.373-0.108 0.07-0.225 0.09-0.333 0.157-0.061 0.038-0.126 0.11-0.196 0.138-0.747 0.294-1.637 0.413-2.71 0.392-0.17-0.106-0.52-0.026-0.726-0.078-0.1-0.025-0.228-0.055-0.334-0.079h-0.275c-0.361-0.096-0.768-0.192-1.06-0.373-0.956-0.59-1.692-1.319-2.356-2.199-0.118-0.111-0.236-0.222-0.354-0.334-0.07-0.093-0.142-0.204-0.235-0.274-0.091-0.069-0.207-0.126-0.275-0.216" fill="#231f20" fill-rule="evenodd"/></g><g transform="translate(168.94 121.04)"><path d="m0 0h0.157c0.344 0.096 0.758 0.209 1.079 0.314 0.166 0.054 0.279 0.041 0.433 0.098 0.226 0.084 0.494 0.212 0.706 0.295 0.063 0.024 0.095 8e-3 0.138 0.039 0.065 0 0.117-6e-3 0.157-0.019-0.024-0.208-0.314-0.328-0.451-0.433-0.079-0.078-0.157-0.156-0.237-0.235-0.117-0.077-0.255-0.074-0.392-0.138-0.439-0.202-1.002-0.402-1.492-0.549-0.263-0.079-0.548-0.091-0.785-0.157-0.25-0.07-0.584-0.061-0.825-0.118-0.163-0.039-0.501 0.024-0.392-0.197 0.05-0.116 0.634-0.153 0.863-0.097 0.217 0.052 0.489 0.069 0.727 0.137 0.333 0.096 0.733 0.238 1.06 0.333 0.269 0.08 0.543 0.113 0.727 0.275 0.093-6e-3 0.114-0.022 0.136-0.098 0.12-0.259-0.339-0.378-0.509-0.451-0.39-0.167-0.885-0.308-1.316-0.432-0.274-0.079-0.639-0.07-0.884-0.177-0.069-0.03-0.114-0.098-0.176-0.137 8e-3 -0.088 0.029-0.098 0.059-0.157 0.369-0.068 0.787 0.098 1.079 0.196 0.191 0.064 0.358 0.04 0.55 0.098 0.141 0.043 0.304 0.123 0.432 0.177 0.157 0.066 0.337 0.072 0.452 0.177 0.101-0.016 0.114-0.053 0.177-0.098-5e-3 -0.046-4e-3 -0.056-0.02-0.079-0.015-0.277-0.314-0.254-0.53-0.334-0.085-0.031-0.195-0.107-0.276-0.137-0.163-0.063-0.38-0.076-0.529-0.118-0.169-0.048-0.382-0.027-0.511-0.118-0.123-0.012-0.13-0.073-0.196-0.137 0.014-0.089 0.042-0.1 0.078-0.158 0.359-0.063 0.757 0.129 1.041 0.217 0.165 0.051 0.366 0.044 0.491 0.137 0.053-0.018 0.057-0.034 0.098-0.059-0.084-0.351-0.48-0.721-0.825-0.824h-0.196c-0.233-0.052-0.477-0.052-0.687-0.138-0.259-0.106-0.354-0.289-0.53-0.471 4e-3 -0.139 0.045-0.138 0.098-0.216 0.263 0.018 0.369 0.257 0.589 0.334 0.172 0.06 0.343 0.011 0.55 0.059 0.25 0.058 0.525 0.104 0.706 0.235 0.309 0.223 0.857 1.066 0.982 1.473v0.334c0.1 0.378 0.178 0.769 0.373 1.06 0.156 0.233 0.42 0.384 0.648 0.549 0.354 0.257 0.552 0.712 0.667 1.218 0.064 0.277-0.086 0.607-0.156 0.785-0.058 0.143-0.061 0.274-0.138 0.392-0.377 0.581-1.178 1.042-2.081 0.746-0.162-0.053-0.272-0.146-0.392-0.235 6e-3 -0.094 0.022-0.114 0.097-0.138 0.082-0.034 0.248 0.07 0.334 0.099 0.212 0.071 0.422 0.065 0.648 0.059 3e-3 -0.056 8e-3 -0.084 0.02-0.118-0.334-0.161-0.732-0.324-1.099-0.432-0.43-0.127-0.905-0.177-1.257-0.373 4e-3 -0.083 0.015-0.105 0.039-0.157 0.243-0.043 0.479 0.024 0.668 0.078 0.143 0.042 0.252 0.017 0.392 0.059 0.38 0.114 0.774 0.262 1.139 0.412 0.387 0.159 0.48 0.453 0.903 0.138-1e-3 -0.054-1e-3 -0.09-0.019-0.118-0.052-0.126-0.195-0.099-0.315-0.157-0.125-0.06-0.271-0.153-0.412-0.197-0.115-0.035-0.185-0.019-0.295-0.058-0.294-0.107-0.68-0.169-1.001-0.256-0.079-6e-3 -0.157-0.013-0.235-0.019-0.404-0.127-0.853-0.203-1.276-0.314-0.239-0.063-0.698 0.013-0.884-0.098-0.145 1e-3 -0.158-0.027-0.236-0.079 0.016-0.252 0.178-0.127 0.393-0.177 0.215-0.049 0.747-0.018 0.962 0.039 0.146 0.04 0.313 0.117 0.452 0.158 0.288 0.084 0.573 0.11 0.844 0.176h0.196c0.475 0.124 0.956 0.239 1.355 0.432 0.173 0.084 0.343 0.11 0.51 0.196 0.05 0.026 0.119 0.11 0.216 0.079 0.073-0.023 0.11-0.124 0.157-0.176v-0.157c-0.047-0.108-0.215-0.114-0.334-0.158-0.166-0.061-0.346-0.137-0.51-0.196-0.091-0.02-0.183-0.039-0.275-0.059-0.323-0.132-0.736-0.221-1.08-0.334h-0.117c-0.364-0.12-0.837-0.267-1.218-0.373-0.504-0.139-1.153-0.074-1.59-0.275 0-0.117 0.019-0.132 0.059-0.196 0.569-0.118 1.232 0.058 1.688 0.196 0.755 0.229 1.514 0.347 2.239 0.589 0.271 0.092 0.541 0.178 0.804 0.295 0.074 0.032 0.178 0.116 0.255 0.137 0.089 0.024 0.134-0.05 0.177-0.078v-0.196c-0.308-0.298-0.762-0.393-1.217-0.55-0.962-0.331-1.995-0.541-3.004-0.805-0.45-0.118-1.047-0.057-1.413-0.255-0.012-0.034-4e-3 -0.019-0.019-0.039 6e-3 -0.115 0.034-0.112 0.078-0.177 0.885-0.089 1.772 0.202 2.454 0.412" fill="#231f20" fill-rule="evenodd"/></g><g transform="translate(171.69 119.67)"><path d="m0 0c-0.172-0.263-0.196-0.622-0.196-1.061 1e-3 -0.166 0.037-0.253 0-0.412-0.159-0.678-0.093-1.068 0.432-1.393 0.327-0.203 0.924-0.134 1.316-0.04 0.338 0.081 0.677-1e-3 0.962 0.118 0.573 0.242 1.016 0.579 1.236 1.178 0.059 0.158 0.012 0.3 0.059 0.491 0.051 0.206 0.133 0.441 0.196 0.628 0.31 0.921-0.157 1.883-0.962 1.963-0.084-0.053-0.431-0.066-0.549-0.118-0.321-0.139-0.571-0.386-0.903-0.53-0.173-0.074-0.366-0.07-0.55-0.137-0.328-0.119-0.866-0.421-1.041-0.687" fill="#231f20" fill-rule="evenodd"/></g><g transform="translate(177.73 118.63)"><path d="m0 0c0.128-0.389-0.018-0.792 0.196-1.119 0.294-0.451 0.847-0.798 1.532-0.51 0.209 0.087 0.366 0.283 0.588 0.353 0.193 0.06 0.442-1e-3 0.59 0.098 0.417 0.279 0.316 1.13 0.117 1.571-0.116 0.258-0.435 0.501-0.686 0.628-0.13 0.064-0.257 0.08-0.373 0.157-0.132 0.086-0.22 0.227-0.315 0.353-0.137 0.183-0.586 0.644-0.785 0.746-0.174 0.089-0.43 0.081-0.687 0.078-0.048-0.03-0.138-0.016-0.197-0.039-0.171-0.067-0.32-0.185-0.412-0.333-0.182-0.297-0.141-0.983 0-1.296 0.111-0.245 0.343-0.415 0.432-0.687" fill="#231f20" fill-rule="evenodd"/></g><g transform="translate(175.65 116.21)"><path d="m0 0c-0.169-0.388-0.64-0.741-0.471-1.335 0.033-0.113 0.047-0.204 0.117-0.275 0.122-0.121 0.358-0.192 0.55-0.235 0.302-0.068 0.446 0.238 0.668 0.275 0.118 0.019 0.264-0.074 0.354-0.098h0.235c0.404-1e-3 0.577 0.131 0.727 0.373 0.096 0.157 0.108 0.573 0.039 0.765-0.083 0.231-0.303 0.37-0.393 0.589-0.256 0.621-0.147 1.398-1.041 1.394-0.05-0.039-0.12-0.041-0.177-0.078-0.216-0.145-0.41-0.494-0.49-0.766-0.062-0.213-0.038-0.425-0.118-0.609" fill="#231f20" fill-rule="evenodd"/></g></g></g></svg>
