<?xml version="1.0" encoding="UTF-8"?>
<svg version="1.1" viewBox="0 0 128 128" xml:space="preserve" xmlns="http://www.w3.org/2000/svg" xmlns:cc="http://creativecommons.org/ns#" xmlns:dc="http://purl.org/dc/elements/1.1/" xmlns:rdf="http://www.w3.org/1999/02/22-rdf-syntax-ns#"><metadata><rdf:RDF><cc:Work rdf:about=""><dc:format>image/svg+xml</dc:format><dc:type rdf:resource="http://purl.org/dc/dcmitype/StillImage"/><dc:title/></cc:Work></rdf:RDF></metadata><g transform="translate(-8.2085 -9.9068)"><g transform="matrix(2.625 0 0 -2.625 -430 308.7)"><g transform="translate(195.69 77.918)"><path d="m0 0c-0.374 0.718-0.624 1.771-0.336 2.543 0.031 0.085 0.104 0.199 0.18 0.32 0.106 0.168 0.226 0.359 0.291 0.552l0.023 0.071-0.205 0.614-0.217-0.079-0.026-8e-3c-0.036-0.012-0.062-0.025-0.089-0.046-0.285-0.145-0.825-0.738-1.13-1.09-0.118-0.136-0.284-0.249-0.459-0.37-0.115-0.079-0.235-0.161-0.345-0.253-0.162-0.137-0.309-0.285-0.451-0.428-0.179-0.18-0.349-0.35-0.547-0.501-0.13-0.098-0.23-0.23-0.328-0.357-0.093-0.124-0.183-0.241-0.281-0.302-0.226 0.018-0.901 0.743-0.94 1.016l-0.028 0.193h-0.145c-0.105 0.237-0.279 0.428-0.436 0.601-0.097 0.105-0.188 0.206-0.254 0.305 2e-3 1e-3 1e-3 0.014 0 0.026-6e-3 0.055-0.016 0.138-0.07 0.223-0.049 0.078-0.123 0.127-0.187 0.171-0.024 0.017-0.059 0.04-0.07 0.051-0.192 0.312-0.413 0.605-0.626 0.89-0.16 0.211-0.31 0.411-0.453 0.622-0.037 0.055-0.082 0.128-0.134 0.21-0.293 0.467-0.557 0.864-0.823 0.985l-0.171 0.077-0.107-0.154c-0.167-0.242-0.589-0.505-0.927-0.717-0.112-0.069-0.219-0.136-0.31-0.196-0.159-0.108-0.299-0.237-0.435-0.361-0.178-0.163-0.347-0.317-0.547-0.417l-0.125-0.062v-0.429l0.219-7e-3c0.258-8e-3 0.563-0.148 0.767-0.297-0.685-0.475-1.516-0.787-2.394-1.117-0.358-0.133-0.727-0.272-1.082-0.422-0.145-0.061-0.283-0.125-0.418-0.187-0.394-0.183-0.741-0.344-1.177-0.394 0 6e-3 -1e-3 0.06-1e-3 0.06l-9e-3 0.019c0.018 0.048 0.095 0.143 0.142 0.203 0.05 0.061 0.101 0.125 0.142 0.191h0.137l0.048 0.162c0.075 0.262 0.391 0.589 0.669 0.877 0.156 0.161 0.304 0.314 0.41 0.454 0.045 0.06 0.081 0.125 0.116 0.189 0.081 0.147 0.128 0.218 0.201 0.227l0.191 0.025 5e-3 0.192c1e-3 0.022 2e-3 0.053 4e-3 0.069l8e-3 0.011 8e-3 0.024c0.035 0.088 0.132 0.273 0.388 0.646 7e-3 2e-3 0.013 5e-3 0.019 8e-3 0.055 0.023 0.13 0.055 0.181 0.129l0.04 0.057v0.088l0.03 0.01 0.043 0.067c0.061 0.096 0.068 0.192 0.072 0.255 1e-3 0.013 1e-3 0.026 3e-3 0.037 0.036 0.051 0.081 0.103 0.128 0.158 0.056 0.064 0.118 0.134 0.172 0.213 0.025-0.023 0.051-0.043 0.08-0.062 3e-3 -0.083 7e-3 -0.156 0.01-0.225 0.011-0.22 0.02-0.395 0.02-0.722l1e-3 -0.225h0.415l0.066 0.097c0.112 0.162 0.397 0.347 0.672 0.528 0.379 0.248 0.737 0.483 0.861 0.771l0.121 0.278-0.301 0.034c-0.334 0.038-0.664 0.318-0.955 0.566-0.094 0.08-0.183 0.155-0.268 0.218-0.106 0.081-0.231 0.116-0.341 0.146-0.05 0.014-0.106 0.03-0.145 0.048 0.033 0.039 0.063 0.088 0.091 0.151l0.131 0.312h-0.338c-0.036 0-0.064 2e-3 -0.087 4e-3 -0.075 0.246 0.035 0.436 0.223 0.727 0.12 0.187 0.245 0.381 0.299 0.615 0.031 0.138-0.012 0.336-0.096 0.63l-0.014 0.054c-0.123 0.458-0.188 0.903-0.173 1.19l0.012 0.237h-0.464l-0.068-0.1c-0.21-0.315-0.692-0.678-1.432-1.08-0.092-0.049-0.164-0.128-0.234-0.204-0.04-0.044-0.095-0.103-0.124-0.118l-0.108-0.059c-0.272-0.145-0.602-0.321-0.935-0.37-0.063 0.105-0.038 0.314-0.015 0.499 0.017 0.149 0.036 0.302 0.018 0.442-0.086 0.708 0.706 2.153 1.168 2.666 0.053 0.057 0.159 0.098 0.261 0.138 0.169 0.065 0.379 0.146 0.465 0.36l0.045 0.112-0.061 0.089c-5e-3 0.026-4e-3 0.09-4e-3 0.133l2e-3 0.227h-0.33l-0.055-0.036c-0.143-0.093-0.344-0.096-0.577-0.1-0.173-2e-3 -0.371-6e-3 -0.572-0.049-0.06-0.013-0.121-0.019-0.185-0.019-0.204 0-0.401 0.067-0.59 0.132-0.067 0.023-0.131 0.045-0.194 0.063l-0.058 0.018-0.114-0.029c-0.06 0.04-0.099 0.065-0.143 0.08l-0.018 6e-3 -0.427 0.072c-0.076 0.03-0.171 0.083-0.263 0.133-0.098 0.054-0.198 0.109-0.289 0.145l-0.04 0.017h-0.08c-0.02 0.039-0.049 0.08-0.098 0.11-0.058 0.036-0.115 0.038-0.194 0.043-0.017 0-0.046 2e-3 -0.077 5e-3 0.403 0.578 1.33 1.024 1.799 1.25 0.163 0.078 0.418 0.101 0.645 0.121 0.263 0.024 0.49 0.044 0.643 0.146l0.266 0.179-0.259 0.189c-0.535 0.394-0.983 1.887-1.053 2.784h1e-3c0.043 0.041 0.05 0.048 0.133 0.05 0.22-0.131 0.467-0.173 0.706-0.213 0.18-0.03 0.35-0.059 0.488-0.123l0.133-0.265 0.192 0.078c0.034 0.013 0.048 0.014 0.048 0.014 2e-3 -3e-3 0.014-0.013 0.03-0.024 0.043-0.028 0.102-0.065 0.186-0.099l0.04-0.016h0.013l0.045-0.032c0.096-0.066 0.199-0.095 0.281-0.118 0.04-0.012 0.079-0.023 0.108-0.036l0.096-0.191 0.123-0.018c0.053-7e-3 0.244-0.098 0.397-0.21 0.018-0.013 0.028-0.026 0.047-0.056 0.067-0.1 0.151-0.2 0.373-0.236l0.219-0.035 0.039 0.217c0.216 1.199 0.963 1.796 1.754 2.428 0.231 0.185 0.47 0.375 0.692 0.581 0.099-0.189 0.159-0.567 0.195-0.789 0.017-0.104 0.033-0.2 0.048-0.281l0.037-0.18h0.445v0.171c0.075 0.091 0.126 0.193 0.172 0.286 0.018 0.038 0.037 0.075 0.055 0.108l0.203 0.121 0.032 0.096 0.025 0.102c0.139 0.178 0.535 0.546 0.712 0.668 0.367 0.254 0.856 0.488 1.495 0.716h0.213l0.033 0.011c0.047 0.015 0.086 0.042 0.136 0.076 6e-3 4e-3 0.011 7e-3 0.016 0.011l0.2-0.034 0.112 0.045c0.132 0.054 0.483 0.197 0.655 0.197 0.018 0 0.026-2e-3 0.026-2e-3l0.1-0.042 0.091 0.054c0.085 0.047 0.2 0.08 0.323 0.115 0.125 0.035 0.253 0.071 0.381 0.129 0.094 0.043 0.167 0.113 0.232 0.175 0.017 0.017 0.041 0.039 0.063 0.058 6e-3 -1e-3 0.029-9e-3 0.033-0.011-0.094-0.151-0.215-0.38-0.315-0.573-0.263-0.514-0.317-0.658-0.295-0.75v-0.327l0.311 0.129c0.122 0.051 0.266 0.076 0.43 0.076 0.386 0 0.814-0.141 1.07-0.226l0.07-0.023 0.101 0.033c0.124-0.053 0.256-0.12 0.395-0.189 0.287-0.144 0.583-0.293 0.893-0.366 0.049-0.012 0.107-0.018 0.176-0.018 0.095 0 0.202 0.011 0.315 0.023 0.117 0.012 0.239 0.024 0.353 0.025l0.28 2e-3 -0.062 0.273c-0.026 0.116-0.075 0.23-0.123 0.34-0.127 0.296-0.196 0.487-0.029 0.692 0.125 0.146 0.307 0.22 0.555 0.22 0.203 0 0.44-0.051 0.693-0.148 0.117-0.229 0.243-0.5 0.292-0.725l-0.043-0.258-0.133-0.045v-0.252l-0.108-0.036v-0.192c-0.119-0.124-0.4-0.296-0.625-0.398l-0.349-0.034-0.022-8e-3c-0.352-0.114-0.66-0.172-0.915-0.172-0.109 0-0.209 0.011-0.294 0.033-0.014 6e-3 -0.06 0.032-0.097 0.053-0.057 0.031-0.08 0.043-0.111 0.052-0.048 0.014-0.101 0.02-0.171 0.02-0.037 0-0.075-1e-3 -0.115-3e-3 -0.038-2e-3 -0.077-4e-3 -0.117-4e-3 -0.071 0-0.124 7e-3 -0.162 0.02-0.132 0.045-0.262 0.098-0.399 0.153-0.393 0.157-0.839 0.336-1.391 0.363l-0.236 0.011v-0.551l0.206-0.017c0.218-0.019 0.519-0.239 0.81-0.451 0.284-0.207 0.577-0.422 0.87-0.512 0.08-0.024 0.168-0.036 0.271-0.036 0.153 0 0.311 0.026 0.451 0.05 0.03 5e-3 0.061 0.01 0.089 0.014-0.521-0.444-1.267-0.713-2.005-0.713-0.527 0-1.019 0.14-1.424 0.404-0.067 0.045-0.133 0.122-0.201 0.203-0.076 0.091-0.156 0.185-0.259 0.26-0.059 0.043-0.122 0.058-0.164 0.066-0.023 0.033-0.049 0.071-0.075 0.111-0.118 0.177-0.264 0.398-0.515 0.469l-0.156 0.044-0.091-0.134c-0.021-0.032-0.059-0.055-0.119-0.091-0.067-0.04-0.15-0.089-0.222-0.172l-0.427-0.428 0.564 0.015c0.028 1e-3 0.054 1e-3 0.079 1e-3 0.137 0 0.243-0.01 0.34-0.033-0.089-0.152-0.16-0.309-0.229-0.463-0.068-0.15-0.131-0.293-0.21-0.426-0.04-0.069-0.116-0.147-0.196-0.229-0.147-0.152-0.313-0.325-0.369-0.552l-0.06-0.253 0.258-0.024c0.536-0.05 1.433-0.349 1.863-0.616l0.071-0.14 0.047-0.033c0.056-0.038 0.122-0.077 0.194-0.119 0.187-0.108 0.42-0.242 0.429-0.394l0.014-0.211h0.188c0.034-0.042 0.069-0.07 0.095-0.09 0.019-0.016 0.025-0.021 0.029-0.026 0.064-0.095 0.11-0.222 0.157-0.357 0.072-0.201 0.146-0.408 0.297-0.571l0.146-0.157 0.164 0.138c0.504 0.425 1.295 0.826 2.115 1.073 0.142 0.042 0.295 0.048 0.428 0.048 0.041 0 0.201-3e-3 0.238-3e-3 0.087 0 0.188 3e-3 0.284 0.021 0.074 0.014 0.157 0.021 0.247 0.021 0.479 0 1.036-0.198 1.219-0.264 0.028-0.01 0.119-0.063 0.173-0.094 0.179-0.102 0.244-0.138 0.327-0.138h0.14l0.031 0.057c0.324 0.162 0.602 0.385 0.872 0.602 0.1 0.08 0.198 0.159 0.298 0.233l0.293 0.111 0.029 0.024c0.061 0.051 0.118 0.108 0.174 0.164 0.139 0.138 0.27 0.269 0.431 0.29l0.164 0.021 0.027 0.154c0.057 0.029 0.108 0.07 0.155 0.152 0.06 0.107 0.089 0.316 0.157 0.936 0.018 0.174 0.036 0.336 0.051 0.439 0.011 0.071-1e-3 0.138-0.012 0.203-6e-3 0.036-0.018 0.103-0.011 0.123 0.042 0.08 0.136 0.175 0.235 0.277 0.112 0.112 0.238 0.24 0.331 0.39 0.054 0.084 0.09 0.174 0.125 0.262 0.026 0.063 0.046 0.113 0.067 0.152 0.039-0.111 0.091-0.21 0.182-0.268l0.345-0.218v0.352c0.11 0.118 0.201 0.244 0.289 0.367 0.085 0.116 0.166 0.229 0.259 0.327 0.031-0.011 0.069-0.022 0.124-0.031l0.195-0.035 0.059 0.189c0.063 0.202 0.406 0.545 0.671 0.647 0.081-0.055 0.169-0.099 0.238-0.133l0.22-0.11 0.09 0.229c0.037 0.094 0.166 0.212 0.292 0.265 0.032-0.303-0.037-0.614-0.11-0.939-0.046-0.205-0.093-0.417-0.112-0.627l-0.023-0.246h0.47l0.068 0.093c0.013 0.019 0.059 0.046 0.099 0.069 0.071 0.042 0.158 0.094 0.224 0.182l0.02 0.028 0.11 0.327c0.042 0.051 0.128 0.112 0.204 0.166 0.04 0.028 0.081 0.057 0.12 0.087 8e-3 -3e-3 0.014-4e-3 0.018-6e-3 0.12-0.122 0.335-0.464 0.354-0.584-0.041-0.082-0.147-0.181-0.43-0.272h-0.198l-0.048-0.023c-0.095-0.047-0.15-0.123-0.196-0.184-0.02-0.027-0.048-0.064-0.063-0.072l-0.118-0.064v-0.386l0.216-9e-3c0.061-2e-3 0.067-7e-3 0.106-0.037 0.03-0.025 0.072-0.058 0.134-0.087l0.044-0.02 0.053-1e-3c0.051 0 0.09 0.016 0.122 0.029 7e-3 2e-3 0.015 6e-3 0.024 9e-3 0.173-0.045 0.379-0.084 0.563-0.119 0.113-0.021 0.213-0.04 0.279-0.056 0.04-9e-3 0.08-0.018 0.12-0.026 0.119-0.026 0.232-0.05 0.296-0.092-0.014-0.015-0.028-0.03-0.041-0.044-0.027-0.03-0.055-0.061-0.074-0.072-0.064-0.036-0.148-0.06-0.237-0.085-0.082-0.023-0.167-0.048-0.249-0.085l-0.132-0.06v-0.386l0.115-0.033c-0.249-0.043-0.636-0.125-0.726-0.209-0.035-0.032-0.056-0.068-0.069-0.102h-0.016c-0.056 0-0.138-6e-3 -0.213-0.056l-0.223-0.152 0.173-0.176c-0.122-0.132-0.373-0.257-0.665-0.323l-0.176-0.04v-0.444l0.127-0.02c-6e-3 -4e-3 -0.01-7e-3 -0.013-7e-3 -0.022-9e-3 -0.048-0.013-0.08-0.013-0.04 0-0.083 7e-3 -0.129 0.013-0.048 7e-3 -0.099 0.014-0.151 0.014-0.021 0-0.04-1e-3 -0.06-3e-3 -0.249-0.03-0.616-0.097-0.848-0.148-0.032-7e-3 -0.074-0.01-0.123-0.01-0.187 0-0.437 0.051-0.658 0.096-0.121 0.025-0.233 0.047-0.328 0.061-0.031 5e-3 -0.068 7e-3 -0.109 7e-3 -0.131 0-0.3-0.023-0.479-0.048-0.178-0.025-0.362-0.051-0.493-0.051-0.042 0-0.067 3e-3 -0.083 6e-3 -0.045 0.035-0.103 0.069-0.198 0.085l-0.137 0.023-0.082-0.112c-0.105-0.143-0.296-0.24-0.498-0.342-0.13-0.065-0.263-0.133-0.385-0.219-0.088-0.061-0.175-0.128-0.263-0.195-0.172-0.132-0.35-0.268-0.538-0.364l-0.177-0.09 0.076-0.214c0.013-0.039 0.028-0.066 0.053-0.098l0.018-0.023 0.033-0.028 0.063-0.047c0.333-0.247 0.596-0.443 0.769-0.805l0.086-0.182 0.189 0.065c0.029 0.01 0.058 0.015 0.087 0.015 0.147 0 0.305-0.117 0.431-0.211l0.075-0.056 0.225-0.037c0.081-0.054 0.158-0.129 0.24-0.208 0.065-0.063 0.133-0.128 0.206-0.186l0.061-0.049h0.112c0.119-0.098 0.223-0.24 0.333-0.39 0.083-0.113 0.168-0.23 0.266-0.335-0.015-0.109-0.053-0.164-0.11-0.245-0.035-0.05-0.074-0.106-0.111-0.179-0.058-0.115-0.07-0.215-0.079-0.295-4e-3 -0.043-8e-3 -0.078-0.019-0.111l-0.181-0.181-0.017-0.042c-0.04-0.1-0.021-0.191-9e-3 -0.245 8e-3 -0.039 8e-3 -0.045 6e-3 -0.053-0.011-0.028-0.044-0.088-0.072-0.136-0.043-0.078-0.087-0.158-0.111-0.23-0.117-0.367-3e-3 -0.633 0.089-0.846 0.036-0.084 0.07-0.163 0.084-0.236 3e-3 -0.012-1e-3 -0.05-4e-3 -0.078-7e-3 -0.069-0.016-0.166 4e-3 -0.279l0.045-0.261 0.25 0.087c0.085 0.029 0.173 0.044 0.269 0.044 0.262 0 0.539-0.109 0.782-0.205 0.085-0.033 0.166-0.065 0.242-0.091 0.115-0.04 0.243-0.059 0.391-0.059 0.162 0 0.324 0.022 0.481 0.044 0.084 0.011 0.166 0.023 0.244 0.03-0.04-0.077-0.167-0.238-0.565-0.532l-0.118-0.087c-0.758-0.567-1.797-1.341-2.937-1.341-0.148 0-0.297 0.013-0.442 0.039l-0.265 0.048v-0.552l0.036-0.055c0.062-0.096-0.051-0.518-0.099-0.699-0.033-0.122-0.063-0.236-0.079-0.331l-0.03-0.183 0.176-0.065c0.057-0.033 0.123-0.285 0.154-0.406 0.023-0.087 0.044-0.172 0.069-0.246 0.207-0.608 0.377-1.212 0.21-1.929-0.011-0.049-0.011-0.092-8e-3 -0.126l-0.145 0.04c-0.044 0.012-0.074 0.034-0.128 0.077-0.052 0.042-0.117 0.094-0.208 0.131-0.102 0.04-0.199 0.068-0.292 0.094-0.135 0.038-0.252 0.071-0.352 0.137-0.356 0.232-0.862 0.979-0.986 1.453l-0.044 0.168h-0.411l-0.022-0.2c-0.019-0.166-0.13-0.531-0.201-0.667l-0.232-0.186v-0.14l-0.085-0.063-0.02-0.03c-0.061-0.089-0.11-0.168-0.159-0.247-0.05-0.082-0.1-0.165-0.164-0.255-0.123-0.176-0.306-0.326-0.501-0.484-0.205-0.166-0.417-0.338-0.576-0.556-0.077-0.106-0.163-0.305-0.263-0.536-0.07-0.159-0.188-0.431-0.268-0.563" fill="#eccea0" fill-rule="evenodd"/></g><g transform="translate(204.9 97.459)"><path d="m0 0h-0.071c-0.197-0.203-0.486-0.303-0.721-0.468-0.405-0.285-0.791-0.645-1.187-0.936-0.25-0.183-0.542-0.321-0.756-0.54h-0.036v-0.036c0.766 0.217 1.379 0.871 2.015 1.26 0.28 0.172 0.713 0.327 0.756 0.72" fill="#8e4a06" fill-rule="evenodd"/></g><g transform="translate(204.83 96.523)"><path d="m0 0c-0.083-0.075-0.092-0.219-0.181-0.288-0.305-0.237-0.623-0.419-0.935-0.648-0.253-0.186-0.464-0.465-0.72-0.648-0.382-0.271-0.843-0.552-1.26-0.756-0.021-0.098-0.055-0.167 0-0.252 0.012-0.036 0.024-0.072 0.035-0.108 0.245-0.045 0.528-0.014 0.756 0.036 0.301-0.012 0.601-0.024 0.901-0.036 0.261-1e-3 0.651 0.045 0.756-0.036 0.154-3e-3 0.219-7e-3 0.288 0.072 0.032 0.056 0.033 0.154 0.036 0.288 0.133-4e-3 0.318-0.016 0.395 0.036 0.036 0.012 0.073 0.024 0.109 0.036 0.019 0.094 0.035 0.159 0.036 0.288 0.154-0.021 0.248-0.053 0.359 0.036 0.142 0.09 0.241 0.293 0.109 0.468 0.094 0.145 0.364 0.077 0.54 0.144 0.111 0.043 0.275 0.17 0.36 0.252 0.085 0.102 0.086 0.258 0 0.36 0.119 0.066 0.268-0.022 0.395 0.072l0.109 0.108c-3e-3 0.166-0.026 0.222-0.072 0.324-0.416 0.177-1.651 0.521-2.016 0.252" fill="#8e4a06" fill-rule="evenodd"/></g><g transform="translate(202.02 95.443)"><path d="m0 0c0.037-0.029 9e-3 -0.013 0.072-0.036v0.036z" fill="#8e4a06" fill-rule="evenodd"/></g><g transform="translate(201.88 95.335)"><path d="m0 0c0.037-0.029 9e-3 -0.013 0.072-0.036v0.036z" fill="#8e4a06" fill-rule="evenodd"/></g><g transform="translate(201.8 95.228)"><path d="m0 0c0.013 0.012 0.024 0.024 0.036 0.036h-0.072c-0.033-0.038 0.012-0.041 0.036-0.036" fill="#8e4a06" fill-rule="evenodd"/></g><g transform="translate(201.48 95.012)"><path d="m0 0h-0.035v-0.036c0.105 0.03 0.137 0.062 0.216 0.108 0.011 0.024 0.023 0.048 0.036 0.072h-0.072c-0.048-0.048-0.096-0.096-0.145-0.144" fill="#8e4a06" fill-rule="evenodd"/></g><g transform="translate(194.82 98.432)"><path d="m0 0c-0.145 0.012-0.288 0.024-0.432 0.036l-0.144 0.144c-0.2 0.107-1.551 0.378-1.908 0.288-0.32-0.081-0.479-0.312-0.72-0.468 4e-3 -0.194 0.032-0.243 0.18-0.288 0.225-0.156 0.453 0.023 0.684 0 0.335-0.033 0.82-0.027 1.188-0.108 0.129-0.028 0.363-0.027 0.504-0.072 0.304-0.098 0.662-0.286 0.972-0.36 0.205-0.049 0.247 0.115 0.468 0.072 0.151-0.03 0.282 7e-3 0.395 0.036 0.145-0.012 0.289-0.024 0.433-0.036 0.306 0.017 0.627 0.144 0.828 0.288 0.301 0.216 0.73 0.948 0.396 1.44-0.128 0.189-0.357 0.142-0.576 0.252-0.17 0.086-0.167 0.212-0.468 0.216-0.492-0.4-0.409-1.122 0.216-1.332-4e-3 -0.103-0.015-0.154-0.037-0.216-0.672-0.146-1.386-0.042-1.979 0.108" fill="#ffa500" fill-rule="evenodd"/></g><g transform="translate(196.22 91.16)"><path d="m0 0c0.012-0.072 0.023-0.144 0.035-0.216 0.427-0.075 0.735 0.241 1.009 0.432 0.519 0.362 1.066 0.7 1.584 1.044 1.57 1.045 3.102 2.048 4.643 3.132 0.558 0.393 1.125 0.787 1.692 1.188 0.158 0.112 0.28 0.269 0.468 0.36l0.036 0.18c0.293-0.03 0.405 0.081 0.612 0.216 0.045 0.12 0.071 0.268 0.144 0.36-0.014 0.164-0.048 0.186-0.108 0.288-0.341-0.012-0.656-0.251-0.792-0.468l-0.072-0.324c-0.338-0.335-1.088-0.745-1.512-1.008-0.466-0.289-0.926-0.517-1.368-0.828-0.564-0.398-1.1-0.887-1.691-1.26-1.109-0.699-2.181-1.319-3.277-2.016-0.495-0.315-0.902-0.775-1.403-1.08" fill="#ffa500" fill-rule="evenodd"/></g><g transform="translate(184.63 92.132)"><path d="m0 0c0.321 0.132 0.812 1.056 0.576 1.44l-0.18 0.036c-0.153-0.114-0.345-0.011-0.504-0.144-0.434-0.144-0.485-0.904-0.288-1.296 0.144-0.036 0.238-0.101 0.396-0.036" fill="#ffa500" fill-rule="evenodd"/></g><g transform="translate(198.24 83.816)"><path d="m0 0c0.148 0.068 0.237 0.02 0.396 0.108 0.064 0.157 0.079 0.368 0.072 0.612-0.055 0.055-0.106 0.147-0.144 0.217l-0.252 0.035c-0.121-0.119-0.283-0.117-0.432-0.216-0.24-0.159-0.409-0.416-0.612-0.611-3e-3 -0.298 0.065-0.316 0.18-0.469 0.58 5e-3 0.485 0.183 0.792 0.324" fill="#ffa500" fill-rule="evenodd"/></g><g transform="translate(187.55 83.996)"><path d="m0 0c0.063 0.088 0.077 0.204 0.144 0.287v0.072c-0.108-0.023-0.216-0.047-0.325-0.072-0.011 0.025-0.023 0.049-0.035 0.072-0.12 0.012-0.24 0.025-0.36 0.037-0.285-0.302-0.673-0.503-1.008-0.756-0.096-0.109-0.192-0.216-0.288-0.325-0.258-0.194-0.497-0.379-0.756-0.576-0.192-0.191-0.384-0.384-0.576-0.575 7e-3 -0.15 0.025-0.165 0.072-0.252 0.482-0.027 0.639 0.338 0.972 0.539 0.08 0.049 0.188-0.01 0.288 0.036 0.22 0.104 0.416 0.397 0.612 0.54 0.342 0.251 1.028 0.652 1.26 0.973" fill="#ffa500" fill-rule="evenodd"/></g><g transform="translate(188.52 96.452)"><path d="m0 0h-0.108v0.036c0.062 0.023 0.036 7e-3 0.072 0.036h0.181c-0.032-0.024-0.114-0.049-0.145-0.072m-1.224-0.36c-0.052-0.032-0.103-0.065-0.144-0.108h-0.036l0.036 0.216c0.063-0.035 0.059-0.047 0.144-0.072zm0.54 1.764c-0.287-0.387-0.643-0.732-0.684-1.368h-0.108c-0.045-0.155-0.131-0.365 0-0.504-0.029-0.15-0.078-0.152-0.144-0.252h-0.036c0.043 0.542 0.111 1.371 0 1.908-0.05 0.244 0.12 0.492 0 0.684-0.045 0.092-0.037 0.078-0.144 0.108-0.282 0.122-0.5-0.485-0.683-0.612-0.14-0.096-0.32-0.083-0.469-0.18-0.088-0.058-0.082-0.164-0.144-0.252l-0.252-0.216c-0.285-0.379-0.564-0.796-0.756-1.26-0.18-0.437-0.174-1.226 0.252-1.368 0.123-0.091 0.227-0.051 0.396-0.036 0.215 0.235 0.41 0.471 0.756 0.576 0.349 0.106 0.801-0.012 1.044 0.18 0.143-0.223 0.364-0.355 0.504-0.576h0.432c0.036 0.036 0.073 0.072 0.108 0.108 0.123 0.036 0.329-0.085 0.504-0.036 0.128 0.035 0.257 0.176 0.36 0.216h0.396c0.08 0.026 0.247 0.124 0.324 0.18 0.381 0.274 0.728 0.925 1.044 1.296-0.011 0.136-0.032 0.163-0.072 0.252-0.057 0.011-1.492-0.096-1.62-0.18h-0.072v0.036c0.161 0.047 0.23 0.163 0.36 0.216 0.365 0.148 0.667 0.171 0.972 0.36 0.224 0.138 0.396 0.365 0.612 0.504 0.336-0.691 1.216-1.045 1.908-1.404 0.197-0.102 0.67-0.341 1.007-0.252 0.196 0.051 0.248 0.163 0.361 0.216h0.179c0.107 0.037 0.175 0.131 0.252 0.18 0.138-0.074 0.234 4e-3 0.361 0.036 0.023 0.062 7e-3 0.035 0.036 0.072-0.064 0.475-0.691 0.227-1.044 0.396-0.156 0.156-0.313 0.312-0.468 0.468-0.382 0.283-1.51 0.927-2.196 0.72 0.187 0.309 0.451 0.568 0.648 0.864 0.185 0.278 0.314 0.623 0.54 0.864-5e-3 0.199-8e-3 0.385-0.252 0.324-0.049-0.048-0.096-0.096-0.144-0.144-0.111-0.028-0.189 0.127-0.361 0.072-0.201-0.065-0.508-0.343-0.755-0.433-0.257-0.092-0.515-0.056-0.792-0.143-0.976-0.309-1.615-0.883-2.16-1.62" fill="#7b9933" fill-rule="evenodd"/></g><g transform="translate(181.25 91.664)"><path d="m0 0c0.618-3e-3 1.327-0.047 1.691 0.216 0.138 0.099 0.142 0.328 0.288 0.432-0.017 0.286-0.136 0.296-0.215 0.468-0.084 0.183 0.068 0.332 0 0.504l-0.144 0.144c-0.013 0.324-0.024 0.648-0.036 0.972 0.406 0.056 0.832 0.209 1.187 0.36 0.025 0.072 0.048 0.144 0.073 0.216-0.382 0.378-0.605 0.822-1.08 1.116-0.478 0.296-1.524 0.41-1.872 0.756-0.12 0-0.214-0.01-0.288-0.036-0.107-0.29 0.058-1.585 0.288-1.908 0.046-0.065 0.279-0.244 0.324-0.324 0.073-0.131 0.038-0.266 0.108-0.396 0.127-0.237 0.379-0.227 0.432-0.576-0.443-2e-3 -0.815-0.072-1.152-0.144-0.296-0.063-0.436 0.119-0.72 0-0.528-0.221-0.933-0.713-1.368-1.044 0.015-0.337 0.293-0.301 0.54-0.396 0.193-0.073 0.423-0.094 0.648-0.18 0.363-0.139 0.847-0.553 1.296-0.288z" fill="#7b9933" fill-rule="evenodd"/></g><g transform="translate(184.34 90.224)"><path d="m0 0c-0.246 0.052-0.637-6e-3 -0.9 0.036-0.177 0.028-0.301 0.129-0.504 0.144v0.396c-0.053 0.05-0.105 0.117-0.144 0.18-0.357-6e-3 -0.312-0.133-0.468-0.324-0.075-0.092-0.254-0.08-0.324-0.18-0.152-0.215-0.135-0.536-0.288-0.756-0.036-0.051-0.149-0.082-0.18-0.144-0.066-0.133-4e-3 -0.264-0.072-0.396l-0.288-0.288c-0.123-0.329-0.048-0.77-0.216-1.043-6e-3 -0.286 0.012-0.458 0.109-0.613 0.283 9e-3 0.725 0.139 0.935 0.288 0.096 0.096 0.193 0.192 0.288 0.288 0.073 0.024 0.204-0.084 0.324-0.036 0.255 0.104 0.957 1.004 1.152 1.26 0.24 0.316 0.955 0.524 0.576 1.188" fill="#7b9933" fill-rule="evenodd"/></g><g transform="translate(201.91 86.516)"><path d="m0 0c-0.223-0.089-0.111-0.26-0.216-0.324h-0.684l-0.288-0.108c-0.258-0.318-0.359-0.787-0.612-1.116 0.029-0.685 0.817-0.721 1.476-0.54 0.133 0.036 1.036 0.334 1.116 0.396 0.058 0.045 0.045 0.171 0.107 0.216 0.205 0.144 0.478 0.158 0.685 0.288 0.275 0.173 0.509 0.435 0.792 0.612-4e-3 0.102-0.015 0.154-0.036 0.216-0.192 0.078-0.489 0.036-0.72 0.108-0.393 0.122-0.601 0.371-1.188 0.36-0.109-0.069-0.331-0.04-0.432-0.108" fill="#7b9933" fill-rule="evenodd"/></g><g transform="translate(200.04 82.484)"><path d="m0 0c-0.216-0.224-0.892-0.163-1.008-0.468-0.045 0.025-0.074 0.039-0.108 0.072-0.206 5e-3 -0.26 0-0.288-0.179-0.075-0.174 0.134-0.469 0.217-0.612 0.167-0.299 0.378-0.391 0.611-0.613 0.132-0.143 0.264-0.288 0.396-0.431 0.201-0.137 0.41-0.162 0.576-0.325 0.191 0.017 0.208 0.07 0.324 0.145-6e-3 1.065-0.127 1.708-0.54 2.375-0.06 0.013-0.12 0.024-0.18 0.036" fill="#7b9933" fill-rule="evenodd"/></g><g transform="translate(197.66 82.268)"><path d="m0 0c-0.223-0.21-0.603-0.422-0.936-0.504-0.236-0.058-0.429 0.021-0.612-0.072-0.4-0.201-0.718-0.878-0.864-1.332-0.192-0.598 0.051-2.267 0.648-2.016 0.02 0.11 0.014 0.412 0.073 0.504 0.035 0.112 0.338 0.336 0.431 0.468 0.463 0.661 1.039 1.113 1.44 1.836 0.176 0.317 0.539 0.645 0.288 1.08-0.156 0.013-0.312 0.024-0.468 0.036" fill="#7b9933" fill-rule="evenodd"/></g><g transform="translate(188.05 89.144)"><path d="m0 0c0.066 0.018 0.129 0.099 0.252 0.072 0.631-0.14 1.762-0.145 2.412 0 0.388 0.086 0.806-6e-3 1.151 0.072 0.361 0.012 0.72 0.024 1.081 0.036 0.175 0.052 0.321 0.175 0.54 0.216 0.331 0.062 0.82-0.154 1.08-0.216h0.467c0.308-0.076 1.624-0.118 1.909 0 0.108 0.045 0.134 0.201 0.215 0.252 0.348 0.012 0.697 0.024 1.044 0.036 0.642 0 0.662-0.059 1.08 0.18 0.247-0.12 0.853-0.237 1.081-0.072 0.139 0.055 0.132 0.148 0.215 0.252-0.01 0.477-0.419 1.309-0.648 1.584l-0.252 0.144c-0.183 0.252-0.236 0.479-0.611 0.54-0.154 0.065-0.527-0.205-0.685-0.288-0.66-0.349-1.275-0.588-1.655-1.225-0.074 0.015-0.07 0.01-0.109 0.037-0.25 0.03-0.235 0.18-0.431 0.252 0.084 0.424 1.227 1.112 1.584 1.368 0.188 0.135 0.445 0.201 0.504 0.468 0.03 0.06 0.016 0.111-0.036 0.18-0.076 0.09-0.459 0.237-0.649 0.179-0.06-0.018-0.083-0.122-0.18-0.108-0.077 0.012-0.213 0.15-0.288 0.181-0.172 0.071-0.411 0.104-0.576 0.144-0.283 0.068-0.689-4e-3 -0.899-0.073-0.633-0.205-1.234-0.541-1.765-0.863-0.257-0.157-0.551-0.227-0.756-0.432-0.128 0.144-0.148 0.37-0.252 0.54-0.173 0.285-0.373 0.583-0.575 0.864-0.129 0.177-0.431 0.425-0.648 0.504-0.096 0.011-0.193 0.024-0.288 0.036-0.351 0.186-0.625 0.498-1.081 0.648-0.532 0.174-1.4 0.077-2.051 0.072-0.107-0.069-0.252-0.029-0.396-0.072-0.301-0.09-0.643-0.237-0.9-0.396-1.02-0.633-2.563-2.068-2.16-3.96v-0.54c0.06-0.272 0.133-0.46 0.252-0.648 0.195-0.048 0.588-0.136 0.828-0.036l0.108 0.108 0.324-0.036c0.145 0.037 0.357 0.16 0.576 0.108 0.201-0.047 0.968-0.168 1.188-0.108" fill="#ed561c" fill-rule="evenodd"/></g><g transform="translate(189.49 81.584)"><path d="m0 0c0.108-0.162 0.141-0.347 0.252-0.504 0.059-0.083 0.198-0.136 0.252-0.216 0.024-0.085 0.049-0.169 0.072-0.253 0.132-0.262 0.292-0.558 0.468-0.791 0.11-0.145 0.352-0.124 0.469-0.252 0.187-0.207 0.199-0.515 0.359-0.756 0.055-0.082 0.178-0.115 0.252-0.18 0.126 9e-3 0.151 0.013 0.216 0.072 0.17 0.072 0.171 0.275 0.288 0.396 0.204 0.21 0.449 0.398 0.685 0.576 0.131 0.143 0.263 0.288 0.395 0.431 0.479 0.362 0.917 0.79 1.368 1.189 0.101 0.089 0.107 0.275 0.216 0.36 0.506 0.393 0.937 0.88 1.44 1.26 0.186 0.14 0.451 0.311 0.576 0.504 0.055 0.086 0.019 0.193 0.072 0.288 0.048 0.036 0.096 0.071 0.144 0.107 0.057 0.082 0.05 0.169 0.108 0.252 0.03 0.044 0.683 0.663 0.72 0.685l0.216 0.035c0.233 0.134 0.414 0.504 0.576 0.721 0.075 0.1 0.166 0.11 0.216 0.252 0.072 0.102 0.029 0.285-0.036 0.36-0.012 0.024-0.024 0.047-0.036 0.071-0.289 0.012-0.501 0.027-0.612-0.144-0.311 0.109-0.557 0.154-1.044 0.144-0.223-0.14-0.647-8e-3 -0.936-0.071-0.465-0.101-1.083-7e-3 -1.548-0.108h-0.72c-0.531-0.116-1.157 0.052-1.728-0.073-0.764-0.167-1.533-0.23-2.267-0.396h-1.513c-0.539-0.122-1.017-0.224-1.403-0.468-0.02-0.403 0.118-0.698 0.395-0.899 0.089-0.065 0.227-0.094 0.288-0.18 0.073-0.101 0.074-0.224 0.145-0.324 0.086-0.124 0.235-0.237 0.323-0.36 0.362-0.503 0.714-0.978 1.08-1.476z" fill="#ed561c" fill-rule="evenodd"/></g><g transform="translate(192.44 98.784)"><path d="m0 0h0.28c0.184 0.042 0.569 0.059 0.756 0 0.807-0.252 2.049-1.061 3.089-0.604 0.157 0.068 0.271 0.232 0.389 0.345-0.032 0.226-0.244 0.137-0.368 0.259-0.118 0.118-0.151 0.325-0.151 0.562 0.052 0.053 0.087 0.157 0.151 0.194 0.076 0.043 0.19 0.021 0.26 0.065 0.372 7e-3 0.596-0.038 0.735-0.259 0.291-0.467-0.062-1.111-0.346-1.296-0.087-0.029-0.173-0.058-0.26-0.087-1.245-0.617-2.644 0.114-3.715 0.389-0.668 0.172-0.971-0.349-1.468-0.043 9e-3 0.36 0.342 0.404 0.648 0.475m1.943-2.225v-0.151c-0.036-0.066-0.224-0.08-0.301-0.108-0.246-0.089-0.68-0.22-1.016-0.129-0.706 0.189-1.321 0.442-1.706 0.95-0.095 0.124-0.288 0.189-0.324 0.367-0.014 0.032-0.027 9e-3 0 0.043 0.024 0.234 0.259 0.277 0.41 0.389 0.092-0.029 0.213 0.013 0.367-0.022 0.191-0.043 0.353-0.078 0.519-0.151 0.733-0.32 1.283-0.883 2.051-1.188m-4.103 0.972c-0.305-0.189-0.754-0.263-1.059-0.454-7e-3 -0.093-0.014-0.187-0.021-0.28-0.241-0.117-0.631-0.189-0.907-0.238-0.1-0.017-0.264-0.09-0.325-0.065-0.076 0.01-0.054-0.011-0.086 0.044-0.049 0.118 0.373 0.501 0.475 0.583 0.246 0.196 0.437 0.484 0.691 0.669 0.397 0.29 0.822 0.582 1.232 0.843-0.01 0.097-0.028 0.092-0.065 0.151-0.394-0.011-0.664-0.24-0.907-0.41-0.487-0.341-0.949-0.667-1.361-1.08-0.18-0.181-0.287-0.456-0.54-0.562l-0.043 0.043c0.011 0.447 0.289 0.716 0.475 0.994 0.529 0.79 1.353 1.375 2.354 1.684 0.13 0.022 0.26 0.044 0.39 0.065 0.174 0.05 0.392 0.125 0.561 0.173 0.29 0.082 0.674 0.043 0.885 0.195h0.087c0.021-0.041 0.029-0.06 0.064-0.087-0.116-0.281-0.299-0.564-0.474-0.799-0.09-0.119-0.258-0.185-0.346-0.302-0.099-0.131-0.141-0.297-0.237-0.432-0.177-0.245-0.582-0.573-0.843-0.735m-0.237-1.468c-0.225-0.369-0.5-0.869-0.908-1.037-0.202-0.014-0.403-0.029-0.605-0.043-0.113-0.028-0.696-0.141-0.756-0.108-0.083 2e-3 -0.092-1e-3 -0.129 0.043h-0.022c0.049 0.133 0.188 0.146 0.302 0.216 0.235 0.143 0.537 0.272 0.692 0.497 0.017 0.022 8e-3 5e-3 0.021 0.043-0.025 0.024-0.046 0.055-0.064 0.086-0.433 0.021-1.125-0.361-1.362-0.604-0.083 0.012-0.095 0.032-0.151 0.064 0.024 0.895 1.453 0.996 2.226 1.188 0.164 0.041 0.69 0.045 0.799 0.108 0.083-0.026 0.089-0.065 0.151-0.108-0.024-0.144-0.13-0.24-0.194-0.345m1.403-2.139c0.337-0.208 0.698-0.381 0.929-0.691 0.226-0.304 0.395-0.651 0.583-0.993 0.083-0.152 0.08-0.339 0.259-0.389 0.191-0.053 0.299 0.151 0.389 0.216 0.297 0.213 0.635 0.391 0.95 0.583 0.766 0.466 2.569 0.687 3.521 0.238 0.014-0.038 5e-3 -0.021 0.021-0.044-0.013-0.218-0.388-0.388-0.54-0.497-0.343-0.246-0.695-0.499-1.036-0.755-0.151-0.114-0.235-0.299-0.367-0.433-3e-3 -0.253 0.135-0.419 0.324-0.475 0.177-0.108 0.544 0.127 0.648 0.195 0.404 0.263 0.806 0.574 1.209 0.842 0.243 0.162 0.532 0.274 0.735 0.476 0.247-0.021 0.337-0.234 0.453-0.39 0.108-0.107 0.216-0.215 0.324-0.323 0.156-0.211 0.318-0.45 0.453-0.67 0.124-0.2 0.118-0.52 0.26-0.713-0.02-0.349-0.725-0.269-1.08-0.28-0.642-0.021-1.483-0.02-2.052-0.152h-0.821c-0.223-0.052-0.529 3e-3 -0.756-0.021-0.149-0.016-0.316-0.058-0.453-0.087-0.401-0.083-1.021 0.05-1.426-0.043h-0.41c-0.2-1e-3 -0.436-0.026-0.605-0.065-0.135-0.031-0.306 0.017-0.389 0-0.101 7e-3 -0.201 0.015-0.302 0.022-0.292 1e-3 -0.564-0.022-0.864-0.022-0.176 0-0.358 0.037-0.519 0h-0.669c-0.472-1e-3 -1.141 0.039-1.598-0.065h-0.605c-0.444-0.103-1.057-9e-3 -1.447-0.086-0.283-0.056-0.73 0.071-0.95-0.065-0.339-5e-3 -0.419-9e-3 -0.606 0.13-6e-3 0.217-0.086 0.349-0.129 0.518-7e-3 0.166-0.014 0.332-0.021 0.497-0.011 0.036-0.055 0.163-0.065 0.216 7e-3 0.05 0.014 0.101 0.021 0.151 0.031 0.365 0.038 0.695 0.13 0.972 0.127 0.383 0.211 0.688 0.41 0.994 0.314 0.479 1.073 1.11 1.599 1.382 0.314 0.164 0.696 0.271 1.058 0.367 0.146 0.039 0.571 0.049 0.669 0.108 1.252-2e-3 2.005-0.176 2.765-0.648m7.236-1.209c0.117 0.078 0.227 0.202 0.345 0.28 0.559 0.371 1.124 0.693 1.663 1.081 0.456 0.327 0.923 0.693 1.404 0.993 0.323 0.2 0.658 0.329 0.972 0.54 0.377 0.253 0.754 0.537 1.123 0.799 0.172 0.122 0.387 0.167 0.54 0.303h0.044c-0.055-0.135-0.372-0.364-0.497-0.454-0.218-0.157-0.424-0.365-0.648-0.518-0.177-0.122-0.366-0.199-0.54-0.325-1.509-1.087-3.013-2.21-4.579-3.239-0.493-0.324-0.985-0.633-1.468-0.951-0.099-0.064-0.359-0.297-0.519-0.194-0.05 0.022-0.047 0.037-0.087 0.065 0.041 0.265 0.416 0.37 0.606 0.497 0.144 0.096 0.271 0.245 0.41 0.345 0.397 0.288 0.819 0.504 1.231 0.778m2.808 3.65c0.074 0.235 0.34 0.355 0.41 0.605 0.146 0.031 0.244 3e-3 0.324-0.087 0.233 9e-3 0.631 0.544 0.692 0.734 0.124 0.025 0.314 2e-3 0.41 0.065 0.104 0.069 0.14 0.224 0.216 0.325 0.132 0.179 0.35 0.305 0.475 0.496 0.154-0.011 0.225-0.087 0.302-0.173 0.221 9e-3 0.345 0.184 0.433 0.325h0.107v-0.022c0.155-0.208-0.169-0.877-0.13-1.188 0.045-0.355-0.441-0.485-0.669-0.648-0.492-0.353-0.991-0.735-1.512-1.058-0.117-0.073-0.234-0.097-0.345-0.173-0.085-0.058-0.173-0.16-0.26-0.216-0.121-0.08-0.264-0.101-0.367-0.194-0.086 0.017-0.078 0.04-0.152 0.064 4e-3 0.255 0.037 0.574 0.087 0.799-7e-3 0.116-0.014 0.231-0.021 0.346m3.477 0.497v-0.065c-0.041-0.021-0.059-0.03-0.087-0.065h-0.086c0.035 0.069 0.078 0.054 0.108 0.13zm0.302-0.972c0.276-0.081 0.524-0.068 0.778-0.173 0.084-0.035 0.154-0.11 0.238-0.151-1e-3 -0.059-1e-3 -0.099-0.022-0.13-0.044-0.082-0.497-0.214-0.67-0.173-0.135 0.033-0.265 0.112-0.388 0.151-0.339 0.109-0.725 0.09-0.951 0.303 0.037 0.18 0.264 0.229 0.389 0.324 0.252-8e-3 0.432-0.094 0.626-0.151m0 0.604c0.289-0.016 0.645-0.206 0.907-0.28 0.169-0.048 0.347-7e-3 0.454-0.108 0.015-0.017 0.029-0.048 0.043-0.065-0.057-0.108-0.242-0.121-0.388-0.087-0.253 0.06-0.963 0.178-1.123 0.303-0.015 0.017-0.029 0.048-0.043 0.065 0.013 0.141 0.067 0.11 0.15 0.172m-0.064-1.663c-0.097-0.07-0.206-0.017-0.325 0.022-0.277 0.093-0.698 0.144-0.993 0.216-0.151 0.037-0.273-0.016-0.367 0.065-0.024 0.037-0.013 0.047-0.021 0.108 0.068 0.043 0.165 0.079 0.237 0.129 0.404 2e-3 0.678-0.09 0.993-0.194 0.209-0.068 0.435-0.044 0.497-0.259 0.018-0.022 8e-3 -6e-3 0.022-0.043-0.014-0.015-0.029-0.029-0.043-0.044m-0.692-0.367c-0.408-2e-3 -0.855-0.032-1.209 0.044-0.112 0.023-0.266-0.029-0.345 0.021-0.169-2e-3 -0.193 0.027-0.282 0.087 0.032 0.148 0.234 0.29 0.454 0.237 0.424-0.101 0.913-0.198 1.382-0.259zm-0.431-0.518c-0.125-2e-3 -0.214-0.023-0.303-0.043-0.175-0.04-0.395 0.016-0.519 0.043h-0.367c-0.101 0.022-0.27 0.044-0.367 0.065-0.186 0.04-0.398-0.085-0.54 0.021-0.014 7e-3 -0.028 0.015-0.043 0.022 9e-3 0.146 0.11 0.224 0.216 0.259 0.155 0.051 0.305-0.062 0.411-0.086 0.279-0.065 0.547-0.054 0.799-0.109 0.221-0.047 0.54 0.059 0.67-0.021h0.043zm-1.945-4.082h0.152c0.027-0.049 0.05-0.084 0.064-0.151-0.327-0.334-0.575-1.08-0.733-1.599-0.043-0.138-0.157-0.351-0.109-0.561 0.073-0.315 0.189-0.539 0.195-0.929-0.119-0.117-0.196-0.259-0.368-0.324-0.161-0.061-0.394-0.05-0.561-0.086-0.072 7e-3 -0.145 0.014-0.216 0.021-0.183-0.031-0.509-0.037-0.691 0-0.08 0.016-0.14-0.017-0.195-0.021-0.214-0.019-0.445 6e-3 -0.648 0-0.2-7e-3 -0.385 0.038-0.562 0-0.229-0.051-0.367 0.098-0.604 0.043-0.179-0.042-0.389-0.027-0.562 0-0.136 0.021-0.293-0.045-0.41-0.043-0.452 7e-3 -0.94 0.066-1.339-0.022h-0.67c-0.415-0.106-1.029-0.041-1.425-0.13-0.231-7e-3 -0.461-0.014-0.692-0.021-0.22-0.068-0.603-0.034-0.842-0.087h-0.388c-0.183-0.046-0.489-0.086-0.67-0.129-0.122 7e-3 -0.245 0.014-0.367 0.021-0.224-0.06-0.535-0.021-0.799-0.086-0.574-0.141-1.196-0.109-1.729-0.238l-0.474-0.021c-0.497-0.115-1.048-0.085-1.534-0.195-0.194-0.043-0.425-2e-3 -0.605-0.043-0.331-0.021-0.662-0.043-0.993-0.065-0.061 0.018-0.12 0.077-0.173 0.108 0.01 0.06 0.033 0.06 0.043 0.087v0.302c0.064 0.21 0.231 0.365 0.324 0.54 0.089 0.169 0.141 0.422 0.195 0.605-7e-3 0.115-0.015 0.23-0.022 0.345-8e-3 0.363-0.037 0.663-0.13 0.973-0.045 0.148-0.106 0.23-0.108 0.453 0.084 0.083 0.134 0.196 0.26 0.237 0.324 8e-3 0.647 0.015 0.971 0.022 0.298 0.065 0.651-0.026 0.972 0.043 0.404 0.088 1.01 0.063 1.447 0.065h0.994c0.203 0.044 0.504-0.028 0.735 0.022 0.429 0.093 1.103 0.043 1.597 0.043h0.8c0.09 0.02 0.253 0.067 0.367 0.043 0.061-0.012 0.207-0.042 0.302-0.022 0.045 0.01 0.16 0.04 0.238 0.022 0.062-0.014 0.141-0.062 0.238-0.043 0.299 0.059 0.692-1e-3 0.993 0.065h0.411c0.147 0.033 0.464 0.103 0.647 0.065 0.061-0.014 0.208-0.043 0.303-0.022 0.907 0.199 2.074-0.013 3.024 0.195 0.288 6e-3 0.576 0.014 0.864 0.021 0.754 0.15 1.99 0.031 2.483 0.497m-1.403 1.101c0.226-0.011 0.744-0.374 0.907-0.496 0.087-0.067 0.12-0.175 0.237-0.217-4e-3 -0.05-3e-3 -0.06-0.021-0.086-0.019-0.075-0.03-0.058-0.064-0.108-0.419-0.028-0.509-0.245-0.865 0-0.017 0.178-0.042 0.39-0.108 0.54-0.03 0.068-0.144 0.176-0.151 0.259-5e-3 0.056 0.043 0.073 0.065 0.108m1.469-4.622c0.357-6e-3 0.648-0.017 0.928-0.108 0.262-0.085 0.52-0.234 0.864-0.238 0.021-0.041 0.03-0.059 0.065-0.086-0.045-0.228-0.558-0.467-0.756-0.583-0.323-0.19-0.655-0.452-1.015-0.605-0.319-0.136-0.622-0.126-0.994-0.216-0.157-0.038-0.588-0.098-0.755-0.043-0.099 0.032-0.179 0.138-0.26 0.195 5e-3 0.089 0.015 0.098 0.043 0.151 0.309 0.061 0.664-2e-3 0.951 0.086 0.395 0.122 0.785 0.26 1.102 0.453-8e-3 0.081-0.017 0.081-0.044 0.13-0.322-8e-3 -0.561-0.132-0.821-0.195-0.226-0.054-0.473 0.021-0.648-0.086-0.207-7e-3 -0.258 3e-3 -0.345 0.108 0.023 0.203 0.166 0.398 0.259 0.54 0.241 0.049 0.541 0.041 0.756 0.13 0.13 0.054 0.227 0.174 0.345 0.238 0.103 0.054 0.237 0.061 0.325 0.129m-1.577-5.292c0.03-0.111 0.097-0.445 0.021-0.561 7e-3 -0.304-4e-3 -0.296-0.129-0.454-0.478 0.116-1.059 0.6-1.296 0.972-0.131 0.204-0.204 0.494-0.367 0.67 5e-3 0.129 0.038 0.141 0.086 0.216 0.132 4e-3 0.216 0.024 0.281-0.022 0.161-0.059 0.181-0.268 0.259-0.411 0.106-0.194 0.311-0.471 0.54-0.54 0.029-0.016 0.047 9e-3 0.107 0.023 0.034 0.195-0.338 0.84-0.474 0.95-2e-3 0.196 0.051 0.202 0.129 0.302 0.076 5e-3 0.092 7e-3 0.13 0.044h0.194c0.064-0.061 0.167-0.1 0.216-0.173 0.187-0.276 0.202-0.65 0.303-1.016m-2.506 1.534c-0.118 0.087-0.304 0.39-0.172 0.583 0.049 0.073 0.535 0.285 0.647 0.367 0.204 0.15 0.323 0.588 0.519 0.691 0.072 0.015 0.143 0.029 0.216 0.044 0.141 0.059 0.33 0.164 0.453 0.259h0.13c0.036-0.048 0.1-0.098 0.151-0.13 0.107-0.449 0.111-1.317-0.086-1.663-0.081-0.141-0.261-0.159-0.433-0.216-0.556-0.187-0.941-0.292-1.425 0.065m-1.318-2.721c-0.115-0.13-0.23-0.26-0.345-0.389-0.25-0.223-0.56-0.535-0.669-0.886-0.068-2e-3 -0.137-3e-3 -0.173 0.022-0.139 0.176-0.173 0.671-0.173 0.993 0 0.913 0.309 1.559 0.993 1.793 0.03-0.032 0.07-0.064 0.109-0.086-0.016-0.209-0.132-0.315-0.216-0.454-0.135-0.222-0.223-0.464-0.216-0.821 0.049-0.047 0.064-0.093 0.129-0.129 0.03-0.016 0.027-7e-3 0.065 0.021 0.234 0.111 0.234 0.562 0.367 0.777 0.192 0.311 0.348 0.699 0.562 0.995 0.141 0.193 0.392 0.326 0.561 0.496h0.129c0.036-0.036 0.073-0.072 0.109-0.108 0.055-1.036-0.695-1.687-1.232-2.224m1.75 4.989c0.03 0.19 0.147 0.188 0.238 0.302 0.139 0.174 0.459 0.601 0.67 0.67 0.137 0.045 0.344-0.044 0.453 0.021 0.071 2e-3 0.155 5e-3 0.194-0.021 0.071-0.029 0.063-0.061 0.108-0.108-0.029-0.342-0.519-0.796-0.755-0.951-0.137-0.089-0.324-0.097-0.455-0.194-0.256 0.01-0.326 0.145-0.453 0.281m-1.101-2.29c-0.012-0.341-0.757-0.696-1.08-0.778-0.246-0.062-0.609 0.047-0.519 0.282 0.026 0.217 0.249 0.319 0.367 0.453 0.194 0.218 0.387 0.438 0.562 0.67 0.06 0.08 0.168 0.123 0.238 0.194 0.149-0.02 0.203-0.088 0.302-0.151 0.029-0.104 0.156-0.619 0.13-0.67m-0.022 1.124v0.172c0.075 0.07 0.135 0.176 0.216 0.238 0.158 0.119 0.361 0.27 0.475 0.432h0.173c0.083-0.099 0.247-0.159 0.281-0.303 0.039-0.165-0.175-0.304-0.259-0.367-0.246-0.184-0.524-0.421-0.886-0.172m-2.224-1.534c-0.028-0.028-0.02-0.077-0.044-0.108-0.138-0.186-0.367-0.321-0.539-0.475-0.235-0.208-0.437-0.434-0.692-0.626-0.187-0.195-0.375-0.39-0.561-0.584-0.592-0.447-1.123-0.992-1.62-1.534h-0.109c-0.551 0.586-0.992 1.285-1.447 1.966-0.096 0.145-0.245 0.272-0.345 0.41-0.351 0.486-0.656 0.974-0.994 1.469-0.146 0.216-0.365 0.412-0.518 0.626-0.055 0.077-0.075 0.161-0.129 0.238-0.185 0.254-0.44 0.482-0.627 0.735-0.131 0.177-0.234 0.431-0.411 0.561 5e-3 0.112 0.027 0.129 0.065 0.195 1.222 0.259 2.637 0.204 3.716 0.453 0.295 7e-3 0.59 0.014 0.885 0.022 0.764 0.198 1.671 0.051 2.418 0.237h0.325c0.501 0.118 1.124-0.024 1.62 0.087 0.163 0.036 0.416-0.054 0.54 0.021 0.201-7e-3 0.403-0.014 0.604-0.021 0.157 0.033 0.45 0.032 0.606 0 0.18-0.039 0.412 0.093 0.561 0 0.072 0 0.128-6e-3 0.173-0.022 0.018-0.047 0.037-0.082 0.022-0.108-0.049-0.128-0.384-0.4-0.497-0.497-0.166-0.143-0.278-0.364-0.454-0.497-0.25-0.188-0.497-0.425-0.691-0.669-0.079-0.065-0.158-0.129-0.238-0.195-0.476-0.624-1.078-1.125-1.619-1.684m-8.856 1.08c-0.151-0.103-0.283-0.263-0.432-0.367-0.41-0.287-0.791-0.549-1.145-0.886-0.145-9e-3 -0.305 0.053-0.237 0.173 0.053 0.13 0.673 0.561 0.82 0.67 0.599 0.439 1.156 0.955 1.685 1.468 0.136-0.034 0.247-0.147 0.281-0.281 0.017-0.022 8e-3 -5e-3 0.021-0.043-0.287-0.299-0.643-0.496-0.993-0.734m-0.8-1.901c-5e-3 -0.259-0.606-0.406-0.82-0.497-0.426-0.179-0.897-0.391-1.317-0.561-0.199-0.08-0.371-0.092-0.562-0.173-0.098-0.042-0.223-0.137-0.324-0.173-0.05-0.018-0.099-2e-3 -0.13-0.021-0.081 7e-3 -0.08 0.016-0.13 0.043 0.033 0.163 0.47 0.437 0.606 0.54 0.351 0.266 0.66 0.621 1.014 0.885 0.143 0.107 0.371 0.213 0.497 0.325 0.413-0.062 0.821-0.213 1.166-0.368m-3.174-0.54c0.216 0.166 0.444 0.599 0.604 0.842 0.307 0.465 0.675 0.929 0.929 1.447 0.107-6e-3 0.092-0.022 0.151-0.064 2e-3 -0.344 0.037-0.645 0.043-0.95-0.33-0.346-0.693-0.639-1.08-0.929-0.198-0.15-0.346-0.41-0.647-0.454zm2.786 3.909c0.012 0.083 0.033 0.096 0.064 0.152 0.296-1e-3 0.598 0.027 0.843 0.086 0.145 0.035 0.365-0.046 0.476 0.021h0.085l0.173-0.129c0.05-0.071 0.042-0.141 0.109-0.194v-0.13c-0.114-0.106-0.217-0.234-0.346-0.324-0.055-0.037-0.123-0.046-0.173-0.086-0.48 0.021-0.878 0.429-1.231 0.604m-0.886 5.789c-0.168-0.039-0.818-0.164-0.972-0.021-0.171 0.06-0.132 0.193-0.194 0.367-0.173 0.475-0.025 0.957 0.324 1.209 0.065 0.047 0.156 0.057 0.216 0.108h0.151c0.168-0.176 0.395-0.322 0.605-0.453 0.039-0.158 0.014-0.288-0.022-0.454-0.028-0.134 0.015-0.441 0.022-0.583-0.05-0.046-0.095-0.112-0.13-0.173m-0.799-1.642c-0.177-0.133-0.315-0.348-0.497-0.475-0.285-0.197-0.541-0.41-0.82-0.605-0.226-0.156-0.632-0.279-0.822-0.453l-0.128 0.022c-0.181 0.391 1e-3 0.983 0.107 1.296 0.198 0.578 0.395 1.058 0.713 1.511 0.142 0.203 0.371 0.346 0.518 0.54 0.05-4e-3 0.061-4e-3 0.086-0.021 0.164-0.055 0.204-0.293 0.195-0.519-0.218-0.206-0.518-0.687-0.583-1.036 0.036-0.044 0.072-0.087 0.108-0.13 0.231 0.015 0.259 0.208 0.346 0.368 0.121 0.223 0.352 0.625 0.604 0.712 0.17 0.111 0.533-0.096 0.735 0.043 0.163-2e-3 0.16-0.052 0.237-0.13-0.067-0.506-0.465-0.87-0.799-1.123m-1.641 2.873c-0.764-0.174-1.563 0.034-2.117 0.259-0.267 0.109-0.548 0.151-0.778 0.281-0.014 0.037-4e-3 0.021-0.021 0.044 0.013 0.24 0.238 0.283 0.388 0.388 0.363 0.254 0.744 0.519 1.189 0.691 0.17 0.067 0.423 0.031 0.561 0.13 0.642 1e-3 1.034-0.015 1.447-0.216 0.15-0.073 0.286-0.03 0.346-0.195 0.108-0.254-0.357-0.241-0.54-0.302-0.581-0.193-1.432 0.046-2.117 0.065-0.043-0.036-0.086-0.072-0.13-0.108 0.025-0.289 0.316-0.234 0.562-0.303 0.507-0.141 1.27-0.166 1.793-0.043 0.168 0.04 0.339 0.018 0.454 0.108 0.112-5e-3 0.142-0.029 0.215-0.065 0.036-0.186-0.028-0.213-0.108-0.323-0.036-0.065-0.072-0.13-0.107-0.195-0.226-0.191-0.688-0.136-1.037-0.216m-0.649 3.499c-0.076 0.184-0.083 0.37-0.15 0.562-0.03 0.081-0.188 0.641-0.152 0.734l0.13 0.13c0.2-0.018 0.352-0.097 0.496-0.152 0.134-0.05 0.264-0.014 0.411-0.064 0.199-0.068 0.43-0.238 0.605-0.346 0.363-0.224 0.74-0.38 1.08-0.626 0.139-0.101 0.201-0.293 0.323-0.411-2e-3 -0.055-2e-3 -0.079-0.021-0.108-0.051-0.153-0.59-0.373-0.821-0.367-0.112 0.116-0.258 0.205-0.388 0.303-0.115 0.129-0.231 0.259-0.346 0.388-0.243 0.245-0.517 0.464-0.756 0.713-0.127-0.01-0.13-0.046-0.194-0.108 0.036-0.222 0.174-0.308 0.28-0.454 0.238-0.325 0.541-0.6 0.821-0.885 0.083-0.085 0.326-0.467 0.216-0.648-0.023-0.069-0.038-0.085-0.108-0.108-0.1-0.084-0.639 0.337-0.713 0.41-0.277 0.278-0.551 0.653-0.713 1.037m3.608-1.188c-2e-3 -0.055-3e-3 -0.08-0.022-0.108-0.069-0.185-0.53-0.245-0.67-0.432-0.196-0.264-0.222-0.614-0.389-0.907-0.082-0.018-0.136-0.032-0.194 0.022-0.276 0.096-0.377 0.968-0.41 1.339 0.043 0.058 0.086 0.115 0.13 0.172 0.14 0.105 0.329 0.197 0.474 0.282 0.066 0.021 0.13 0.043 0.195 0.064 0.521 5e-3 0.662-0.151 0.886-0.432m0.345-0.108c-0.043 0.491 0.316 0.7 0.692 0.821 0.111 0.036 0.236-8e-3 0.324 0.043 0.305 3e-3 0.436-0.041 0.604-0.151-7e-3 -0.05-0.014-0.101-0.021-0.151-0.08-0.13-0.279-0.177-0.411-0.259-0.15-0.094-0.289-0.218-0.432-0.324-0.094-0.071-0.159-0.197-0.28-0.238-0.036-0.025-0.107-0.024-0.173-0.022-0.062 0.064-0.237 0.237-0.303 0.281m-0.475-4.622c-0.025-0.045-0.033-0.039-0.043-0.108-0.037-0.014-0.021-4e-3 -0.043-0.021-0.056 4e-3 -0.074 9e-3 -0.109 0.021 0.011 0.097 0.029 0.092 0.066 0.152h0.086c0.014-0.015 0.029-0.029 0.043-0.044m-0.022 2.938c-0.05-0.037-0.1-0.072-0.151-0.108-0.15 0.02-0.244 0.15-0.28 0.28-0.076 0.105-0.032 0.285 0 0.389 0.137 0.464 0.236 0.425 0.561 0.67 0.138 3e-3 0.313 0.017 0.389-0.043 0.039-0.031 0.052-0.073 0.087-0.108-0.044-0.257-0.288-0.399-0.412-0.584-0.097-0.147-0.1-0.34-0.194-0.496m-0.043 3.866c0.111 0.229 0.163 0.453 0.303 0.648 0.22 0.307 0.685 0.719 0.993 0.95 0.043 0.051 0.087 0.101 0.13 0.151 0.161 0.117 0.321 0.222 0.453 0.367h0.13c0.021-0.021 0.043-0.042 0.064-0.064 0.078-0.36 0.218-1.056 0.13-1.469v-0.454c-0.051-0.237-0.083-0.555-0.086-0.821-0.065-0.064-0.13-0.129-0.194-0.194-0.173-0.014-0.346-0.029-0.519-0.043-0.18-0.049-0.377-0.135-0.561-0.173l-0.108 0.108c0.045 0.264 0.164 0.683 0.281 0.907 0.049 0.094 0.163 0.218 0.194 0.325 0.035 0.124-0.062 0.168-0.108 0.215-0.24-0.031-0.285-0.219-0.389-0.388-0.15-0.246-0.27-0.574-0.367-0.865-0.089-0.267-0.049-0.393-0.216-0.583-0.156 6e-3 -0.247 0.116-0.281 0.238-0.143 0.206 0.074 0.984 0.151 1.145m21.426 1.814h0.13c0.115-0.167 0.214-0.226 0.087-0.432-0.099-0.043-0.266-0.106-0.367-0.021-0.03 0.028-0.058 0.057-0.087 0.086 8e-3 0.213 0.131 0.257 0.237 0.367m-13.045 2.463c-8e-3 0.137-0.055 0.155-0.108 0.237-0.059 0.012-0.112 0.022-0.195 0.021-0.309-0.303-0.794-0.333-1.274-0.475-1.061-0.312-2.065-0.48-2.851-1.058-0.305-0.224-0.707-0.602-0.929-0.907-0.069-0.095-0.254-0.439-0.345-0.475-0.05 0.014-0.062 0.034-0.13 0.043-0.081 0.376-0.152 0.796-0.324 1.08-0.037 0.014-0.022 4e-3 -0.043 0.021-0.327-6e-3 -0.564-0.422-0.778-0.583-0.57-0.425-1.14-0.889-1.534-1.49-0.205-0.313-0.247-0.828-0.496-1.101-0.132 0.028-0.17 0.128-0.26 0.194-0.116 0.085-0.249 0.131-0.367 0.216-0.091 0.065-0.186 0.175-0.28 0.238-0.152 0.101-0.501 0.259-0.67 0.323-0.127 0.049-0.231 0.029-0.346 0.087-0.087 0.044-0.203 0.137-0.301 0.173-0.128 0.046-0.221 0.013-0.346 0.065-0.126 0.051-0.613 0.249-0.778 0.215-0.076-0.015-0.155-0.091-0.216-0.13-0.057-0.302 0.034-0.694 0.108-0.971 0.048-0.178 0.029-0.322 0.086-0.497 0.185-0.56 0.439-1.162 0.821-1.533-0.016-0.09-0.048-0.111-0.087-0.173-0.921-0.015-1.911-0.579-2.461-0.994-0.222-0.167-0.385-0.414-0.583-0.604 7e-3 -0.326 0.32-0.282 0.54-0.39 0.433-0.213 0.883-0.317 1.403-0.475 0.274-0.083 0.554-0.195 0.907-0.194 0.319 1e-3 0.696 0.01 0.973 0.086 0.097 0.028 0.279 0.127 0.388 0.065 0.076-0.028 0.076-0.066 0.129-0.108-0.028-0.294-0.562-0.424-0.734-0.626-0.247-0.293-0.554-0.761-0.713-1.123-0.077-0.179-0.096-0.356-0.172-0.54-0.121-0.289-0.297-0.633-0.26-1.015 0.018-0.186-0.109-0.784 0-0.951 9e-3 -0.163 0.091-0.176 0.173-0.259 0.36 0.02 0.624 0.2 0.865 0.345 0.418 0.254 0.815 0.465 1.209 0.735 0.176 0.121 0.327 0.306 0.497 0.432 0.159 0.118 0.321 0.225 0.431 0.389 0.258-0.035 0.247-0.773 0.324-1.037 0.115-0.391 0.135-0.842-0.042-1.188-0.104-0.201-0.488-0.571-0.389-0.929 0.043-0.155 0.219-0.196 0.259-0.324 0.035-0.111-0.058-0.138-0.022-0.215 0.07-0.202 0.354-0.215 0.519-0.324 0.092-0.063 0.167-0.174 0.258-0.239 0.31-0.216 0.669-0.419 1.016-0.583 0.012-0.058 0.03-0.081 0-0.129-0.038-0.142-0.239-0.222-0.346-0.302-0.154-0.116-0.301-0.276-0.454-0.389-0.157-0.117-0.363-0.205-0.474-0.367-0.399 0.017-0.126 0.521-0.216 0.842-0.044 0.156-0.163 0.259-0.324 0.302-0.072-0.066-0.179-0.094-0.238-0.173-0.163-0.215-0.254-0.437-0.388-0.691-0.068-0.126-0.204-0.246-0.282-0.367-0.133-0.211-0.226-0.417-0.367-0.626-0.079-0.117-0.219-0.212-0.302-0.324-0.289-0.396-0.599-0.751-0.885-1.145-0.238-0.324-0.909-0.88-0.907-1.36 0.049-0.051 0.1-0.102 0.151-0.152 0.131 0.018 0.203 0.08 0.302 0.108 0.131 0.038 0.276-0.019 0.388 0.022 0.354 0.128 0.719 0.331 1.059 0.475 0.15 0.063 0.282 0.066 0.432 0.13 0.485 0.206 1.029 0.458 1.512 0.669 0.493 0.216 1.106 0.366 1.512 0.67 0.067 0.05 0.091 0.156 0.151 0.215v0.13c-0.044 0.058-0.087 0.116-0.13 0.173-0.211 0.142-0.669 0.136-0.734 0.41 0.377 0.338 0.791 0.607 1.21 0.908 0.106 0.076 0.193 0.207 0.302 0.281 0.215 0.147 0.446 0.272 0.627 0.453 0.3-2e-3 0.327-0.219 0.453-0.389 0.246-0.331 0.518-0.641 0.756-0.994 0.592-0.879 1.269-1.725 1.879-2.592 0.229-0.324 0.505-0.861 0.821-1.079 0.103-0.072 0.245-0.094 0.346-0.173 0.342 0.02 0.627 0.556 0.863 0.735 0.156 0.117 0.317 0.229 0.454 0.367 0.058 0.071 0.115 0.143 0.173 0.216 0.515 0.393 0.946 0.87 1.426 1.296 0.249 0.221 0.551 0.426 0.756 0.691 0.12-0.014 0.12-0.058 0.194-0.108 0.021-0.359-0.168-0.474-0.281-0.735-0.098-0.225-0.169-0.526-0.238-0.756-0.059-0.201-0.016-0.695 0.022-0.864 0.057-0.25 0.03-0.461 0.108-0.691 0.098-0.292 0.254-0.584 0.41-0.821 0.037-0.013 0.021-3e-3 0.043-0.021h0.152c0.102 0.047 0.106 0.21 0.151 0.324 0.09 0.23 0.229 0.527 0.367 0.735 0.087 0.13 0.233 0.223 0.323 0.345 0.1 0.132 0.194 0.29 0.325 0.389 0.162 0.121 0.356 0.248 0.475 0.41 0.242 0.332 0.497 0.661 0.713 1.015 0.097 0.159 0.13 0.384 0.216 0.54h0.151c0.056-0.031 0.059-0.173 0.086-0.238 0.062-0.141 0.169-0.302 0.26-0.431 0.192-0.276 0.445-0.579 0.734-0.756 0.354-0.218 0.744-0.255 1.037-0.54h0.194c0.211 0.095 0.296 1.058 0.216 1.403-0.099 0.431-0.147 0.795-0.302 1.167-0.028 0.068-0.102 0.148-0.13 0.216-0.015 0.079-0.028 0.158-0.043 0.237-0.027 0.056-0.109 0.131-0.13 0.195-0.054 0.169 0.077 0.362 0.109 0.475 0.081 0.301-0.053 0.608 0.107 0.864 0.412 0.082 0.854 0.014 1.21 0.129 0.647 0.21 1.264 0.501 1.771 0.865 0.122 0.087 0.242 0.218 0.367 0.302 0.264 0.178 0.548 0.375 0.734 0.626 0.066 0.09 0.084 0.209 0.151 0.303-0.025 0.078-0.069 0.111-0.107 0.173-0.253 0.049-0.46-0.132-0.756-0.065-0.356 0.08-0.684 0.158-0.994 0.259-0.107 0.035-0.501 0.131-0.604 0.065-0.183 1e-3 -0.181 0.06-0.282 0.129 0 0.324-0.112 0.466-0.173 0.713-0.073 0.303 0.087 0.553 0.152 0.734 0.045 0.125 0.019 0.222 0.065 0.346 0.052 0.143 0.182 0.29 0.238 0.432 0.081 0.207 0.165 0.326 0.237 0.497 0.024 0.056 0.013 0.108 0.043 0.151-0.014 0.262-0.216 0.35-0.323 0.518-0.302 0.47-0.873 0.869-1.405 1.102-0.119 0.052-0.234 0.119-0.345 0.151-0.11 0.031-0.183-8e-3 -0.259 0.043-0.162 0.108-0.264 0.349-0.389 0.497-0.125 0.147-0.318 0.257-0.454 0.41 0.024 0.219 0.64 0.506 0.821 0.627 0.225 0.149 0.63 0.514 0.885 0.583 0.184 0.05 0.28-0.07 0.497-0.022 0.377 0.085 0.942 0.04 1.296-0.043 0.395-0.092 1.045-0.011 1.383 0.065h0.237c0.264 0.06 0.393 0.056 0.583 0.173 0.024 0.145-0.084 0.255 0 0.367 0.109 0.151 0.363 0.153 0.519 0.259 0.151 0.103 0.153 0.33 0.28 0.454 0.184 0.177 0.741 0.267 0.994 0.41 0.02 0.12-0.058 0.252-0.021 0.324 0.022 0.195 0.255 0.176 0.388 0.259 0.079 0.08 0.158 0.159 0.238 0.238-5e-3 0.05-4e-3 0.061-0.022 0.086-0.179 0.502-1.699 0.175-1.836 0.713 0.232 0.184 0.73 0.242 0.886 0.497 0.187 0.306-0.353 0.832-0.476 0.95-0.402-9e-3 -0.512-0.36-0.669-0.626-0.051-0.088-0.179-0.131-0.238-0.216-0.104 3e-3 -0.123 0.022-0.194 0.043 0.024 0.524 0.404 1.218 0.087 1.685-0.037 0.014-0.022 4e-3 -0.043 0.021-0.228-0.032-0.425-0.232-0.563-0.367-0.118-1e-3 -0.179 9e-3 -0.237 0.065-0.335 0-0.72-0.344-0.863-0.54-0.03-0.039-0.03-0.1-0.066-0.13-0.109-0.09-0.275-0.038-0.388-0.107-0.163-0.1-0.429-0.541-0.541-0.713-0.167 0.022-0.234 0.18-0.324 0.28-0.243-0.049-0.294-0.378-0.41-0.561-0.192-0.305-0.519-0.503-0.626-0.886v-0.54c-0.036-0.155-0.072-0.363-0.108-0.518-7e-3 -0.137-0.015-0.274-0.022-0.411-0.077-0.223-0.336-0.308-0.518-0.431-0.111-0.075-0.215-0.206-0.325-0.282-0.281-0.193-0.563-0.344-0.841-0.539-0.187-0.131-0.367-0.313-0.562-0.432-0.263-0.161-0.441 0.071-0.648 0.151-0.236 0.091-0.502 0.131-0.778 0.194-0.179 7e-3 -0.36 0.015-0.54 0.022-0.077 0.017-0.257 0.046-0.367 0.021-0.219-0.047-0.511-2e-3 -0.734-0.064-0.651-0.18-1.218-0.439-1.728-0.756-0.166-0.103-0.342-0.17-0.475-0.303-0.05 5e-3 -0.061 5e-3 -0.086 0.022-0.159 0.059-0.305 0.487-0.389 0.648-0.14 0.265-0.478 0.668-0.713 0.842-0.38 0.282-0.802 0.576-1.274 0.756-0.197 0.075-0.414 0.123-0.605 0.173-0.152 0.04-0.301 0.011-0.411 0.086-0.058 0.02-0.062 0.037-0.107 0.065-8e-3 0.05-0.011 0.054-0.022 0.087 0.321 0.293 0.513 0.706 0.735 1.101 0.101 0.183 0.261 0.285 0.258 0.583-0.037 0.036-0.063 0.081-0.086 0.13-0.133 0.027-0.288 0.054-0.389 0.108 0.01 0.157 0.081 0.131 0.151 0.216h0.152c0.156-0.168 0.334-0.314 0.497-0.475 0.192-0.192 0.372-0.41 0.604-0.562 0.224-0.146 0.465-0.202 0.734-0.302 0.292-0.108 0.824-0.242 1.253-0.13 0.2 0.052 0.429 0.113 0.626 0.194 0.461 0.19 0.81 0.494 1.189 0.757-0.011 0.114-0.042 0.125-0.087 0.194-0.233 0.043-0.475-0.135-0.756-0.065-0.703 0.175-1.141 0.642-1.706 0.95 8e-3 0.081 0.017 0.081 0.043 0.13 0.636-0.011 1.194-0.342 1.75-0.497 1.545-0.431 3.811 0.315 3.132 2.052-0.226 0.577-1.443 0.746-1.815 0.173-0.146-0.225-0.148-0.827 0.065-0.993-0.014-0.079-0.041-0.128-0.086-0.173-0.282-0.177-0.886 0.058-1.08 0.129-0.709 0.261-1.525 0.743-2.528 0.54-0.03 0.034-0.12 0.083-0.108 0.152 0.015 0.084 0.118 0.162 0.151 0.237 0.126 0.284 0.243 0.616 0.433 0.843" fill="#231f20" fill-rule="evenodd"/></g></g></g></svg>
