<?xml version="1.0" encoding="UTF-8"?>
<svg version="1.1" viewBox="0 0 128 128" xml:space="preserve" xmlns="http://www.w3.org/2000/svg" xmlns:cc="http://creativecommons.org/ns#" xmlns:dc="http://purl.org/dc/elements/1.1/" xmlns:rdf="http://www.w3.org/1999/02/22-rdf-syntax-ns#"><metadata><rdf:RDF><cc:Work rdf:about=""><dc:format>image/svg+xml</dc:format><dc:type rdf:resource="http://purl.org/dc/dcmitype/StillImage"/><dc:title/></cc:Work></rdf:RDF></metadata><g transform="translate(-8.2085 -9.9068)"><g transform="matrix(2.7837 0 0 -2.7837 -499.66 573.37)"><g transform="translate(197.58 182.36)"><path d="m0 0c5e-3 1e-3 0.01 1e-3 0.016 1e-3h2e-3c0.023 0 0.054-3e-3 0.087-8e-3 -0.081-3e-3 -0.157-8e-3 -0.228-0.016 0.019 3e-3 0.123 0.023 0.123 0.023m-0.961-0.339c0.033 0.031 0.067 0.06 0.103 0.083 0.072 0.046 0.164 0.084 0.261 0.116-0.128-0.051-0.246-0.117-0.364-0.199m0.64-0.811c0.036 0.062 0.097 0.1 0.119 0.103l3e-3 1e-3c-0.042-0.041-0.083-0.076-0.122-0.104m14.228-21.564c-0.155 0.3-0.503 0.665-0.775 0.814-0.446 0.243-0.939 0.267-1.415 0.291-0.334 0.016-0.65 0.032-0.929 0.121l-0.033 0.011h-0.165c-0.947 0.445-1.906 1.335-1.806 2.528 9e-3 0.105-2e-3 0.193-0.012 0.27-0.011 0.095-0.02 0.169 5e-3 0.268 0.016 0.058 0.044 0.114 0.077 0.18 0.036 0.071 0.076 0.153 0.103 0.248l0.066 0.235-0.24 0.047c-0.515 0.1-0.577 0.27-0.712 0.642-0.045 0.127-0.096 0.27-0.174 0.425l-0.058 0.117-0.131 8e-3c-0.74 0.039-1.605 0.536-1.771 1.299-0.021 0.09 7e-3 0.229 0.034 0.362 0.016 0.084 0.034 0.171 0.042 0.254l0.012 0.151-0.135 0.069c-0.092 0.047-0.197 0.087-0.297 0.125-0.167 0.064-0.357 0.136-0.443 0.23l-0.035 0.179-0.169 0.03c-0.224 0.239-0.458 0.737-0.285 1.123 3e-3 7e-3 3e-3 7e-3 0.019 0.022 0.064 0.065 0.128 0.144 0.144 0.339l0.02 0.228-0.229 0.016c-0.11 8e-3 -0.194 0.022-0.264 0.048l-0.051 0.151-0.431 0.048c-0.079 0.04-0.172 0.102-0.261 0.162-0.049 0.033-0.099 0.066-0.148 0.097-0.026 0.017-0.055 0.071-0.085 0.128-0.028 0.055-0.062 0.118-0.109 0.179-0.553 0.712-0.554 0.99-0.319 1.97l0.042 0.176-0.163 0.079c-0.442 0.214-0.951 0.717-1.175 1.159l-0.037 0.295-0.022 0.039c-0.164 0.286-0.325 0.699-0.238 0.923l0.037 0.093-0.045 0.089c-0.039 0.079-0.062 0.204-0.053 0.252 0.064 0.333 0.201 0.717 0.332 0.935 0.013 0.021 0.033 0.042 0.06 0.069 0.055 0.056 0.13 0.133 0.175 0.26l0.059 0.165-0.146 0.098c-0.306 0.204-0.537 0.735-0.674 1.053l-0.059 0.136h-0.423l-0.049-0.482-0.135-0.137 0.048-0.245c-0.044-0.165-0.121-0.483-0.16-0.645l-8e-3 -0.031c-0.059-0.248-0.063-0.488-0.067-0.72-3e-3 -0.2-7e-3 -0.39-0.043-0.588l-7e-3 -0.036 0.04-0.276c3e-3 -0.097 9e-3 -0.213 0.016-0.335 0.012-0.224 0.035-0.647 0.011-0.857-0.087 0.024-0.176 0.035-0.26 0.045-0.076 9e-3 -0.22 0.027-0.248 0.055l-0.017 0.029-0.023 0.022c-0.175 0.165-0.251 0.556-0.185 0.951l0.011 0.064-0.025 0.06c-0.071 0.17-0.028 0.465 0.019 0.778 0.036 0.245 0.077 0.523 0.07 0.797 1e-3 0.021 0.028 0.084 0.045 0.126 0.04 0.096 0.09 0.216 0.099 0.359l0.014 0.238h-0.535v-0.22c-0.235-0.339-0.626-1.303-0.774-1.808-0.149 0.042-0.281 0.134-0.316 0.227 0.05 0.139 0.074 0.342 0.101 0.631 0.018 0.178 0.035 0.36 0.062 0.45 0.119 0.406 0.315 0.835 0.504 1.249l0.024 0.053c0.304 0.664 0.778 1.377 1.197 2.006l0.01 0.014c0.05 0.077 0.11 0.149 0.174 0.226 0.108 0.134 0.222 0.271 0.309 0.448l0.159 0.324h-0.358c0.163 0.06 0.344 0.129 0.48 0.264l0.159 0.159-0.255 0.254s-0.106 8e-3 -0.118 9e-3c0.105 0.034 0.169 0.097 0.206 0.152l0.176 0.264-0.103 0.026v0.481l-0.04 0.058c-0.051 0.092-0.131 0.52-0.121 0.646l8e-3 0.024c0.024 0.081 0.067 0.109 0.2 0.183l0.133 0.076v0.392h-0.384l-0.314 0.315-0.036-0.459c-0.152 0.17-0.27 0.325-0.403 0.5-0.076 0.1-0.154 0.203-0.244 0.315 0 4e-3 -6e-3 0.03-0.01 0.049-0.012 0.063-0.031 0.15-0.093 0.234l-0.042 0.056-0.097 0.032c-0.039 0.065-0.079 0.137-0.105 0.187v0.259l-0.136 0.137c-0.013 0.048-0.017 0.106-0.022 0.171-4e-3 0.053-9e-3 0.112-0.018 0.175l0.04 0.238-0.022 0.056c-0.034 0.093-0.111 0.156-0.185 0.217-0.019 0.014-0.036 0.028-0.05 0.041-0.177 0.358-0.181 1.271-0.114 1.64 0.059 0.331-2e-3 0.617-0.057 0.868-0.046 0.21-0.086 0.392-0.052 0.569 0.018 0.089 0.026 0.188 0.033 0.293 0.012 0.152 0.025 0.325 0.071 0.478 0.026 0.089 0.067 0.197 0.111 0.311 0.115 0.303 0.224 0.589 0.182 0.804-0.187 0.939 0.508 2.375 0.737 2.846 0.054 0.111 0.085 0.241 0.115 0.367 0.037 0.158 0.069 0.266 0.105 0.331 0.048-0.057 0.099-0.105 0.145-0.147 0.045-0.042 0.088-0.081 0.115-0.118 0.081-0.109 0.162-0.297 0.227-0.448l0.036-0.085c0.018-0.038 0.016-0.069 0.011-0.133s-0.012-0.145 0.015-0.236c0.045-0.151 0.12-0.33 0.192-0.502 0.06-0.146 0.123-0.296 0.164-0.422l0.076-0.529 0.023-0.039c0.036-0.06 0.089-0.093 0.141-0.125 7e-3 -5e-3 0.015-9e-3 0.022-0.013 0.095-0.166 0.157-0.369 0.22-0.583 0.013-0.04 0.026-0.081 0.038-0.123-0.021 0.024-0.043 0.05-0.065 0.077-0.1 0.119-0.213 0.255-0.398 0.334l-0.692 0.292 0.416-0.624c0.068-0.101 0.151-0.181 0.23-0.258 0.096-0.093 0.179-0.173 0.214-0.269l0.053-0.15h0.408c-0.012-0.09-0.042-0.183-0.066-0.26-0.033-0.102-0.059-0.183-0.046-0.267 0.022-0.104 0.046-0.199 0.12-0.289l0.4-0.491v0.602c0.053 0.093 0.084 0.193 0.112 0.282 0.02 0.064 0.038 0.124 0.062 0.172l0.123 0.041 0.041 0.086c0.034 0.072 0.034 0.151 0.035 0.308 0 0.136 1e-3 0.363 0.041 0.458l0.048 0.114c0.129 0.305 0.26 0.621 0.424 0.875l0.306 0.306 0.017 0.046c0.034 0.089 0.017 0.175 5e-3 0.243-4e-3 0.02-8e-3 0.042-0.011 0.062l0.082 0.054 0.026 0.058c0.051 0.112 0.062 0.21 0.07 0.288 6e-3 0.062 0.01 0.095 0.026 0.121 0.151 0.251 0.338 0.473 0.536 0.708 0.145 0.172 0.294 0.35 0.427 0.539 0.074 0.105 0.142 0.215 0.209 0.323 0.151 0.244 0.293 0.475 0.486 0.625l0.015 3e-3c0.047 0.011 0.126 0.029 0.195 0.094 0.055 0.049 0.081 0.11 0.103 0.16 1e-3 1e-3 2e-3 3e-3 2e-3 5e-3h0.045c0.062 0 0.206 0 0.331 0.134 0.088 0.097 0.118 0.223 0.141 0.325 0.01 0.041 0.023 0.095 0.033 0.114 0.233 0.413 0.647 0.784 1.012 1.111l0.023 0.02c0.057 0.051 0.1 0.106 0.134 0.15 0.066 0.083 0.086 0.108 0.172 0.118l0.2 0.022v0.216c0.106 0.074 0.184 0.164 0.254 0.246 0.088 0.101 0.151 0.169 0.234 0.205 6e-3 -1.006-0.231-1.942-0.441-2.771l-0.058-0.232c-0.049-0.195-4e-3 -0.377 0.035-0.538 0.036-0.149 0.071-0.289 0.036-0.437-0.11-0.47-0.246-0.91-0.453-1.467-0.01-0.013-0.025-0.026-0.037-0.04-0.048-0.051-0.093-0.099-0.116-0.163-0.039-0.114-9e-3 -0.223 0.015-0.31 0.017-0.063 0.033-0.123 0.021-0.161-0.083-0.25-0.251-0.519-0.413-0.779-0.214-0.342-0.436-0.696-0.496-1.054l-0.044-0.261 0.265-2e-3c0.187 0 0.361 0.061 0.53 0.119 0.071 0.025 0.142 0.05 0.214 0.069 0.026 7e-3 0.054 0.011 0.086 0.011 0.045 0 0.093-7e-3 0.144-0.014 0.054-7e-3 0.11-0.015 0.169-0.015 0.053 0 0.102 7e-3 0.147 0.02 0.11 0.033 0.385 0.116 0.513 0.137 0.146 0.025 0.298 0.038 0.463 0.038 0.359 0 0.714-0.058 1.09-0.118l0.174-0.027c0.025-4e-3 0.05-6e-3 0.077-6e-3 0.092 0 0.18 0.023 0.264 0.046 0.078 0.022 0.153 0.042 0.223 0.042 0.024 0 0.047-3e-3 0.069-8e-3 0.029-7e-3 0.055-0.032 0.1-0.077 0.056-0.057 0.126-0.128 0.233-0.167l0.037-0.014h0.303c0.014-9e-3 0.027-0.021 0.042-0.031 0.062-0.047 0.11-0.084 0.168-0.102l0.055-0.017 0.181 0.036c0.013-6e-3 0.029-0.014 0.048-0.025 0.039-0.021 0.087-0.048 0.149-0.067l0.032-9e-3h0.207c0.098-0.039 0.214-0.09 0.328-0.139s0.227-0.098 0.315-0.133c0.114-0.046 0.21-0.048 0.28-0.05 0.055-2e-3 0.077-3e-3 0.097-0.014 0.084-0.043 0.189-0.116 0.289-0.187 0.108-0.076 0.218-0.154 0.322-0.208 0.137-0.072 0.28-0.091 0.406-0.107 0.107-0.015 0.2-0.027 0.267-0.067 0.05-0.03 0.235-0.174 0.322-0.254v-0.219l0.607-0.202c0.104-0.187 0.234-0.332 0.349-0.463 0.126-0.143 0.246-0.278 0.323-0.451l0.069-0.156 0.168 0.024c0.054 7e-3 0.107 0.011 0.167 0.011 0.047 0 0.094-2e-3 0.142-5e-3 0.245-0.385 0.441-0.762 0.596-1.287 0.023-0.08 0.024-0.149 0.025-0.235 1e-3 -0.106 2e-3 -0.227 0.047-0.378 0.01-0.034 0.024-0.076 0.042-0.125 0.067-0.193 0.19-0.548 0.116-0.752-0.073-0.06-0.135-0.132-0.163-0.274l-0.026-0.132 0.103-0.086c9e-3 -7e-3 0.012-0.01 0.012-0.01-2e-3 -2e-3 -2e-3 -0.013 0-0.025 7e-3 -0.058 0.019-0.146 0.077-0.257l0.042-0.079 0.121-0.04c0.102-0.183 0.195-0.605 0.253-0.867 0.022-0.1 0.042-0.192 0.062-0.268v-0.528l2e-3 -0.015c0.05-0.359 0.017-0.78-0.105-1.324-0.056-0.25 0.013-0.531 0.07-0.756 0.014-0.06 0.028-0.115 0.037-0.163l0.023-0.127 0.14-0.049c0.043-0.016 0.07-0.024 0.123-0.034-0.034-0.034-0.063-0.071-0.084-0.11l-0.069-0.129 0.09-0.115c0.047-0.062 0.078-0.138 0.115-0.226 0.032-0.079 0.069-0.169 0.123-0.257 0.069-0.114 0.179-0.23 0.306-0.365 0.384-0.405 0.663-0.743 0.486-1.091-0.017-0.022-0.056-0.07-0.089-0.11h-0.188l-0.191-0.239c-0.053-0.037-0.104-0.069-0.153-0.101-0.323-0.209-0.628-0.407-0.636-1.106l-2e-3 -0.149 0.155-0.068c0.28-0.124 0.352-0.156 0.352-0.44-0.05-0.097-0.053-0.18-0.055-0.24-1e-3 -0.047-2e-3 -0.069-0.025-0.112-0.028-0.049-0.099-0.108-0.168-0.166-0.114-0.094-0.242-0.201-0.31-0.357l-0.084-0.19 0.183-0.099c0.093-0.05 0.166-0.111 0.171-0.375-0.037-0.053-0.067-0.103-0.094-0.149-0.091-0.156-0.129-0.22-0.29-0.243l-0.206-0.029 0.014-0.229c0.016-0.219 0.011-0.355-0.014-0.405l-0.054-0.109 0.061-0.104c0.185-0.315 0.243-0.674 0.259-0.813 9e-3 -0.071-0.123-0.24-0.186-0.321-0.042-0.054-0.079-0.102-0.107-0.148-0.331-0.548-1.149-0.625-2.015-0.706l-0.294-0.028-0.049-0.133c-0.196-0.534-0.652-1.144-1.19-1.223l-0.186-0.027-6e-3 -0.189c-2e-3 -0.06-6e-3 -0.115-9e-3 -0.164-8e-3 -0.113-0.013-0.204 9e-3 -0.282v-0.328l0.311 0.128c0.114 0.046 0.233 0.071 0.352 0.071 0.688 0 1.35-0.791 1.612-1.368-3e-3 -9e-3 -8e-3 -0.019-0.011-0.027-0.011-0.026-0.02-0.049-0.025-0.066l-0.018-0.071 0.026-0.069c0.05-0.129 0.045-0.164 0.045-0.166-3e-3 -7e-3 -0.018-0.029-0.03-0.047-0.035-0.053-0.085-0.127-0.126-0.243l-0.05-0.146 0.117-0.099c0.091-0.078 0.151-0.22 0.212-0.368 0.029-0.07 0.059-0.14 0.092-0.209 0.415-0.848 0.427-1.574 0.036-2.356-0.051-0.102-0.072-0.215-0.082-0.328-0.037 0.041-0.073 0.097-0.112 0.155-0.105 0.161-0.247 0.381-0.533 0.438l-0.094 0.019-0.078-0.056c-0.053-0.037-0.141-0.057-0.255-0.057-0.313 0-0.729 0.149-0.912 0.25-0.073 0.04-0.145 0.077-0.215 0.114-0.28 0.145-0.524 0.271-0.679 0.5-0.016 0.026-0.043 0.129-0.059 0.19-0.043 0.162-0.074 0.265-0.141 0.339l-0.036 0.04-0.299 0.111c-0.286 0.266-0.47 0.646-0.634 1.012-0.044 0.1 0.012 0.467 0.032 0.606 0.027 0.176 0.037 0.242 0.01 0.315-0.033 0.091-0.108 0.139-0.175 0.18l-0.023 0.015c-0.012 0.046-0.011 0.099-0.01 0.155 2e-3 0.109 4e-3 0.284-0.14 0.391-0.088 0.104-0.192 0.196-0.401 0.232l-0.2 0.035-0.055-0.196c-0.046-0.164-0.139-0.339-0.229-0.509-0.099-0.185-0.192-0.359-0.24-0.537-0.025-0.095-0.033-0.183-0.04-0.254-4e-3 -0.044-7e-3 -0.075-0.011-0.096-0.029 0.02-0.057 0.038-0.083 0.054-0.048 0.03-0.098 0.061-0.117 0.087-0.045 0.058-0.084 0.128-0.125 0.202-0.104 0.187-0.234 0.42-0.519 0.521l-0.287 0.101-0.013-0.304c-5e-3 -0.115-0.017-0.19-0.032-0.278s-0.031-0.187-0.039-0.33l-8e-3 -0.127 0.105-0.072c0.131-0.09 0.295-0.31 0.345-0.46 4e-3 -0.016-4e-3 -0.066-9e-3 -0.095-0.011-0.079-0.027-0.177 0.029-0.273 0.048-0.082 0.127-0.121 0.196-0.156 0.013-6e-3 0.025-0.012 0.037-0.018 0.01-0.021 0.017-0.045 0.026-0.08 0.023-0.084 0.057-0.213 0.197-0.317 0.201-0.16 0.453-0.237 0.697-0.312 0.188-0.058 0.365-0.112 0.503-0.2 0.557-0.36 1.599-1.323 1.553-2.394l-8e-3 -0.181 0.176-0.046c0.557-0.146 0.802-0.93 0.953-1.595 4e-3 -0.015-0.013-0.049-0.026-0.078-0.029-0.059-0.067-0.14-0.047-0.24 0.011-0.056 0.03-0.104 0.047-0.146 0.01-0.026 0.028-0.069 0.027-0.082l-8e-3 -0.035c-0.063-0.284-0.102-0.434-0.124-0.513l-0.125-0.031c-3e-3 6e-3 -5e-3 0.012-9e-3 0.018" fill="#eccea0" fill-rule="evenodd"/></g><g transform="translate(203.23 195.87)"><path d="m0 0c0.207 0.09 0.424 0.112 0.575 0.252 0.278-0.075 0.564-1.249 0.721-1.548 0.153-0.029 0.197-0.023 0.323 0.036 0.131 0.719-0.435 1.565-0.72 2.016-0.071 0.012-0.143 0.024-0.215 0.036-0.166-0.201-0.685-0.215-0.936-0.324-0.489-0.213-0.825-0.534-1.188-0.864 6e-3 -0.15 0.025-0.165 0.072-0.252 0.526 0.035 0.938 0.46 1.368 0.648" fill="#ffa500" fill-rule="evenodd"/></g><g transform="translate(203.48 195.43)"><path d="m0 0v0.072h-0.145c-0.658-1.027-1.257-2.235-1.763-3.384-0.158-0.359-0.299-0.729-0.432-1.08-0.084-0.221-0.089-0.472-0.217-0.648-5e-3 -0.258 0.022-0.365 0.109-0.503 0.526 0.01 0.491 0.626 0.648 1.007 0.465 1.127 0.921 2.246 1.44 3.312 0.086 0.177 0.452 1.07 0.36 1.224" fill="#ffa500" fill-rule="evenodd"/></g><g transform="translate(199.01 192.05)"><path d="m0 0c-0.193 0.408-0.809 0.793-1.08 1.188h-0.252c-0.281-0.435-0.66-0.823-0.937-1.26-0.194-0.309-0.28-0.712-0.503-1.008 7e-3 -0.15 0.025-0.165 0.072-0.252 0.296 0.017 0.337 0.185 0.468 0.36 0.326 0.435 0.765 0.86 1.008 1.368 0.035-0.055 0.033-0.255 0.108-0.36 0.246-0.344 0.701-0.539 1.008-0.828 0.547 0.035 0.19 0.4 0.108 0.612z" fill="#ffa500" fill-rule="evenodd"/></g><g transform="translate(198.58 186.69)"><path d="m0 0c0.127 0.172 0.064 0.542 0 0.756-0.155 0.526-0.323 1.058-0.468 1.584-0.076 0.276-0.029 0.627-0.179 0.828-0.048 0.087 0.016 0.025-0.073 0.072-0.173-0.803 6e-3 -1.81 0.18-2.52 0.07-0.286 0.121-1.078 0.54-0.72" fill="#ffa500" fill-rule="evenodd"/></g><g transform="translate(198.83 181.57)"><path d="m0 0c-4e-3 0.201-0.037 0.213-0.107 0.324h-0.252c-0.18-0.235-0.476-0.381-0.649-0.612-0.439-0.589-0.758-1.23-1.151-1.872-0.253-0.411-0.556-0.879-0.72-1.368-0.088-0.261 0.014-0.555-0.072-0.864-0.065-0.229-0.327-0.728-0.145-0.972 0.013-0.024 0.025-0.048 0.036-0.072 0.485 0.028 0.722 1.207 0.901 1.62 0.381 0.881 0.852 1.736 1.332 2.52 0.286 0.47 0.456 0.923 0.827 1.296" fill="#ffa500" fill-rule="evenodd"/></g><g transform="translate(197.75 175.2)"><path d="m0 0c0.036 0.312 0.071 0.624 0.107 0.936 0.012 0.991 0.233 1.975 0.468 2.808 0.067 0.233 0.315 1.323 0.217 1.476-0.013 0.036-0.024 0.072-0.036 0.108-0.094 0.019-0.159 0.035-0.288 0.036-0.479-0.751-0.579-1.589-0.828-2.592-0.076-0.303-0.08-0.675-0.144-0.936-0.013-0.18-0.024-0.36-0.036-0.54-0.019-0.028-0.127-0.034-0.145-0.072-0.06-0.133 0.02-0.457 0.037-0.54 0.011-0.384 0.024-0.768 0.036-1.152 0.047-0.17 0.199-0.296 0.288-0.432 0.363-2e-3 0.309 0.144 0.468 0.324 1e-3 0.297-0.083 0.409-0.144 0.576" fill="#ffa500" fill-rule="evenodd"/></g><g transform="translate(208.52 172.68)"><path d="m0 0c0.107 0.156 0.258 0.305 0.324 0.504 0.15 0.447 0.092 0.975 0 1.404-0.012 0.216-0.023 0.432-0.036 0.648-0.171 0.512-0.838 1.329-1.475 1.368-0.042-0.029-0.061-0.029-0.144-0.036-0.158-0.169-0.381-0.303-0.469-0.54-0.134-0.363 0.074-0.559 0.181-0.756 0.186-0.347 0.471-1.357 0.323-1.872-0.109-0.383-0.463-0.555-0.72-0.792 1e-3 -0.286 0.075-0.311 0.18-0.468 0.972-0.233 1.367-0.141 1.836 0.54" fill="#7b9933" fill-rule="evenodd"/></g><g transform="translate(198.69 184.35)"><path d="m0 0c0.429 0.04 0.709 0.322 1.008 0.504 0.413 0.251 0.96 0.42 1.404 0.612 1.055 0.456 2.168 0.854 3.275 1.224 0.765 0.255 1.542 0.367 2.269 0.684 0.119 0.052 0.185 0.205 0.287 0.252 1.309 0.252 2.616 0.504 3.924 0.756 0.409 0.099 1.129-0.06 1.477 0.144 0.355-5e-3 0.877-0.053 1.116 0.072-9e-3 0.244-0.216 0.378-0.397 0.432-0.042 0.029-0.06 0.029-0.143 0.036l0.035 0.324c-0.524 0.548-1.22 0.831-1.98 1.152-1.897 0.8-4.991 1.402-7.416 0.612-1.142-0.373-2.071-0.975-2.951-1.62l-0.396-0.396c-0.965-0.728-1.304-1.84-1.692-3.168-0.098-0.336-0.298-1.116-0.072-1.404 0.071-0.108 0.155-0.135 0.252-0.216" fill="#2d4454" fill-rule="evenodd"/></g><g transform="translate(200.24 178.73)"><path d="m0 0c-0.023-0.024-0.048-0.048-0.072-0.072l-0.072 0.18h0.108c0.013-0.012 0.024-0.024 0.036-0.036zm13.14 8.136c-0.315 0.236-0.551 0.659-0.792 0.971-0.115 0.148-0.337 0.257-0.468 0.396-0.209-0.011-0.204-0.063-0.324-0.144 0.011-0.168 0.023-0.336 0.036-0.504-0.061-0.06-0.12-0.119-0.181-0.179-0.175-0.267-0.261-0.558-0.432-0.828-0.08-0.128-0.242-0.208-0.324-0.325-0.119-0.171-0.159-0.379-0.288-0.539-0.011-0.315 0.046-0.514 0.288-0.576-0.203-0.131-0.564-0.044-0.827-0.108-0.487-0.119-1.013-0.147-1.513-0.288-0.604-0.171-1.116-0.488-1.727-0.648-0.18 0.011-0.36 0.024-0.54 0.036-0.777-0.194-1.569-0.468-2.268-0.756-0.486-0.201-1.299-0.333-1.656-0.648h-0.072c0.024 0.045 0.039 0.074 0.072 0.108-0.063 0.872-1.581 1.374-2.124 1.872-0.159 2e-3 -0.246-1e-3 -0.324-0.072-0.082-0.037-0.077-0.062-0.144-0.108 0.013-0.258 0.149-0.498 0-0.684-0.085-0.161-0.281-0.215-0.36-0.396-0.117-0.271-0.21-0.573-0.288-0.828-0.039-0.13-0.01-0.295-0.071-0.396 0-0.25 0.053-0.262 0.143-0.396 0.691-0.017 1.143 0.85 1.152 1.512l0.252-0.18c0.129 0.015 0.189 0.03 0.252 0.108 0.41-0.14 0.648-0.607 1.08-0.684v-0.036c-0.759-0.188-1.429-0.568-2.088-0.828-0.225-0.089-0.552-6e-3 -0.72-0.144-0.473-0.175-0.312-0.787-0.432-1.332-0.111-0.507-0.088-1.478 0.144-1.8 0.061-0.085 0.224-0.067 0.288-0.144 0.024-0.072 0.049-0.144 0.072-0.216 0.145-0.231 0.381-0.466 0.612-0.612-0.08-0.156-0.225-0.154-0.36-0.252-0.269-0.196-0.424-0.626-0.468-1.044-0.185-0.035-0.159-0.102-0.252-0.216 0.044-0.286 0.191-0.497 0.288-0.72 0.242-0.554 0.473-1.072 0.756-1.584 0.117-0.033 0.297-0.129 0.432-0.036 0.133-0.064 0.169-0.205 0.288-0.288-0.027-0.149-0.116-0.225-0.144-0.36-0.045-0.212 0.108-0.458 0.144-0.612 0.079-0.331-0.085-0.465-0.107-0.756 0.383-0.367 0.688-0.83 1.151-1.116 0.192-0.118 0.381-0.07 0.612-0.18 0.193-0.091 0.186-0.273 0.504-0.287-0.194-0.288-0.502-0.762-0.216-1.225 0.072-0.116 0.255-0.149 0.324-0.252l0.036-0.18c0.128-0.186 0.639-0.434 0.9-0.467-0.058-0.161-0.276-0.318-0.18-0.612 0.104-0.318 0.613-1.02 0.936-1.116 0.274-0.083 0.427 0.122 0.576 0.144 0.104 0.015 0.171-0.073 0.324-0.072 0.06 0.012 0.119 0.024 0.18 0.035 0.148-0.064 0.271-0.392 0.684-0.252 0.535 0.183 0.455 1.063 0.648 1.621 0.042 0.122 0.18 0.325 0.107 0.575-0.102 0.359-0.404 0.572-0.611 0.828-0.129 0.012-0.176 0.043-0.252 0h-0.072c0.055 0.623 0.266 2.052-0.36 2.232 0.059 0.286 0.289 0.445 0.432 0.648 0.411 0.586 1 1.139 1.224 1.872 0.238 0.783-0.244 1.808-0.864 1.836 0.192 0.24 0.383 0.48 0.576 0.72 0.227 0.36 0.686 1.565 0.54 2.124-0.067 0.254-0.233 0.492-0.361 0.684-0.149 0.226-0.267 0.553-0.575 0.612 0.072 0.14 0.555 0.747 0.684 0.792 0.148 0.051 0.171-0.069 0.324 0l0.252 0.252c0.286 0.211 0.605 0.426 0.899 0.612 0.139 0.087 0.389 0.275 0.504 0.324 0.157 0.066 0.279-6e-3 0.397 0.072 0.179 0.192 0.36 0.384 0.54 0.576 0.338 0.338 0.758 0.62 1.044 1.008 0.179 0.243 0.251 0.582 0.431 0.828 0.075 0.1 0.184 0.105 0.288 0.179 0.083 0.059 0.115 0.177 0.18 0.253-0.019 0.254-0.136 0.215-0.216 0.36 0 0 0.054 0.046-0.036 0.216-0.192 3e-3 -0.422 7e-3 -0.54-0.072h-0.143v0.035c0.369 0.13 0.669 0.622 0.864 0.937 0.094 0.15 0.12 0.322 0.252 0.432 0.012 0.011 0.023 0.024 0.036 0.036 0.296-0.448 0.87-0.58 1.26-0.936 0.222 2e-3 0.294 0.042 0.431 0.108 0.02 0.045 0.043 0.109 0.073 0.144-0.015 0.533-0.478 0.699-0.792 0.936" fill="#2d4454" fill-rule="evenodd"/></g><g transform="translate(208.09 185.86)"><path d="m0 0c0.704-0.202 0.876-0.841 1.836-0.828 0.093 0.092 0.315 0.231 0.18 0.432-0.114 0.306-0.497 0.335-0.756 0.504-0.351 0.229-0.749 0.849-0.972 1.224-0.123 0.033-0.158 0.067-0.324 0.072-0.457-0.424-0.593-0.998-0.9-1.584-0.145-0.277-0.389-0.58-0.468-0.9-0.123-0.501 0.707-0.494 0.936-0.324 0.17 0.058 0.415 0.353 0.361 0.612-0.021 0.092-0.147 0.138-0.109 0.288 0.04 0.16 0.19 0.29 0.216 0.504" fill="#2d4454" fill-rule="evenodd"/></g><g transform="translate(204.92 184.38)"><path d="m0 0c0.22-0.137 0.483-0.201 0.685-0.36 0.217 0.027 0.389 0.095 0.54 0.18 0.039 0.165 0.106 0.307 0 0.468-0.084 0.126-0.308 0.197-0.433 0.288-0.313 0.226-1.082 1.005-1.512 1.008-0.414-0.349-0.483-0.752-0.719-1.296-0.158-0.36-0.441-0.778-0.685-1.08 0.01-0.215 0.063-0.236 0.145-0.36 0.373 7e-3 0.296 0.142 0.431 0.18 0.071 0.02 0.251-0.07 0.397-0.072 0.155 0.156 0.311 0.312 0.467 0.468 0.146 0.25 0.118 0.629 0.288 0.864 0.012 0.012 0.024 0.024 0.037 0.036v-0.036c0.132-0.073 0.235-0.211 0.359-0.288" fill="#2d4454" fill-rule="evenodd"/></g><g transform="translate(213.68 188.52)"><path d="m0 0s-3.074-0.386-3.35-0.429c-0.276-0.044-6.435-1.759-6.706-1.839-0.27-0.08-4.966-2.164-4.966-2.164s0.132-2.259 0.335-2.261c0.204-3e-3 5.378 1.845 5.421 1.845 0.044 0 7.779 1.715 7.85 1.715s2.718 0.397 2.718 0.397-0.685 2.526-1.302 2.736" fill="#7b9933" fill-rule="evenodd"/></g><g transform="translate(211.26 169.05)"><path d="m0 0c0.065 0.14 0.085 0.309 0.175 0.429 0 0.333-0.119 0.261-0.252 0.432 0.17 0.077 0.388 0.115 0.54 0.216 0.235 0.156 0.44 0.564 0.648 0.684 0.122 0.071 0.257 0.087 0.36 0.144-7e-3 0.094-0.016 0.122-0.036 0.18-0.108 0.036-0.216 0.072-0.324 0.108-0.039-6e-3 -0.064-0.085-0.144-0.072-0.132 0.022-0.199 0.131-0.396 0.144-0.21-0.167-0.467-0.099-0.756-0.216-0.384-0.156-1.005-0.582-1.08-1.044-0.038-0.074-6e-3 -0.155 0.073-0.216-0.166-0.29-0.761-0.285-0.937-0.756-0.178-0.24 0.032-0.555 0.145-0.72 0.167-0.045 0.478-0.189 0.611-0.036 0.139-0.025 0.156-0.05 0.216-0.144 0.378 5e-3 0.379 0.191 0.54 0.396 0.138 0.176 0.446 0.207 0.576 0.396 0.014 0.02 0.025 0.041 0.036 0.063v9e-3c2e-3 1e-3 4e-3 2e-3 5e-3 3e-3" fill="#2d4454" fill-rule="evenodd"/></g><g transform="translate(213.52 166.64)"><path d="m0 0c-0.093 0.304 0.103 0.912 0 1.296-0.205 0.765-0.842 1.212-1.548 1.475-0.194-0.15-0.498-0.245-0.715-0.356-1e-3 -4e-3 -3e-3 -8e-3 -5e-3 -0.012-2e-3 -0.243 0.027-0.411 0.144-0.531-0.151-0.503-0.747-0.851-1.26-0.972-0.218-0.052-0.263 0.109-0.431 0-0.246-0.184-0.033-0.416-0.073-0.72-0.061-0.469 0.459-0.925 0.685-1.26 0.192-0.011 0.37 0.026 0.468-0.108 0.021-0.036-0.034-0.269-0.036-0.432 0.197-0.191 0.374-0.428 0.612-0.576 0.128-0.08 0.299-0.056 0.431-0.144 0.147-0.097 0.145-0.288 0.396-0.36 0.377-0.109 0.89 0.064 1.044 0.216 0.149-0.054 0.217-0.141 0.396-0.18 0.062 0.053 0.171 0.076 0.216 0.144 0.293 0.44-0.017 1.605-0.143 1.98-0.068 0.199-0.136 0.395-0.181 0.54" fill="#2d4454" fill-rule="evenodd"/></g><g transform="translate(206.54 162.6)"><path d="m0 0c0.175-0.674 0.315-1.157 0.828-1.476 0.301-0.187 0.708-0.197 1.116-0.288h0.612c0.276-0.064 0.537-0.18 0.792-0.252 0.399-0.112 0.751-0.07 1.08-0.215 0.045-0.236 0.084-0.387 0.179-0.54 0.204 3e-3 0.245 0.039 0.361 0.107 0.22 0.955 0.053 1.688-0.432 2.34-0.181 0.156-0.36 0.312-0.54 0.468v0.216c-0.023 0.076-0.129 0.222-0.144 0.288-0.033 0.136 0.059 0.212 0 0.36-0.273 0.683-0.93 1.124-1.512 1.512-0.272 0.182-0.49 0.422-0.936 0.432-0.181-0.183-0.317-0.225-0.288-0.54-0.105-0.027-0.683-0.154-0.756-0.216-0.571-0.211-0.521-1.571-0.36-2.196" fill="#2d4454" fill-rule="evenodd"/></g><g transform="translate(202.54 196.48)"><path d="m0 0c-0.035-0.065-9e-3 -0.065 0-0.18 0.045-0.024 0.075-0.039 0.108-0.072 0.545 0.016 0.773 0.395 1.188 0.504 0.092 0.024 0.174-0.222 0.396-0.036 0.312-0.164 0.344-1.438 0.756-1.224 0.036 0.012 0.073 0.024 0.109 0.036 0.086 0.431 0.043 0.999 0.107 1.44-0.012 0.18-0.023 0.36-0.036 0.54 0.125 0.478 0.435 0.881 0.433 1.476-0.061 0.072-0.121 0.144-0.181 0.216h-0.288c-0.336-0.356-0.716-0.721-1.008-1.116-0.236-0.32-0.436-0.666-0.72-0.936-0.196-0.187-0.788-0.412-0.864-0.648" fill="#ed561c" fill-rule="evenodd"/></g><g transform="translate(198.29 192.77)"><path d="m0 0 0.144-0.216c0.152-0.087 0.207 0.042 0.324-0.072h0.036c-0.131 0.637-0.342 1.08-0.504 1.62-0.096 0.314 0.021 0.797-0.145 1.044-0.057 0.141-0.225 0.186-0.324 0.288-0.127-0.016-0.244-0.044-0.323-0.108-0.168-0.12-0.087-0.305-0.181-0.504-0.252-0.534-0.399-1.086-0.576-1.728-0.046-0.169-0.095-0.621-0.035-0.72 0.037-0.098 0.052-0.079 0.107-0.144 0.49 0.054 0.48 0.858 0.792 1.116 0.011 0.021 0.187-0.096 0.325-0.108 0.015-0.128 0.04-0.215 0.107-0.288 0.066-0.175 0.109-0.089 0.253-0.18" fill="#ed561c" fill-rule="evenodd"/></g><g transform="translate(213.34 188.49)"><path d="m0 0c-0.036-0.048-0.072-0.096-0.108-0.144-0.111-0.027-0.47 0.179-0.72 0.18-0.048-0.047-0.114-0.078-0.18-0.108-0.02-0.045-0.043-0.109-0.072-0.144 0.028-0.6 0.569-0.947 0.935-1.224l0.469-0.504c0.091-0.066 0.24-0.067 0.323-0.144 0.179-0.162 0.305-0.434 0.469-0.612 0.203 4e-3 0.243 0.04 0.36 0.108 0.168 0.928-0.435 1.998-0.792 2.556-0.172 0.039-0.487 0.136-0.684 0.036" fill="#ed561c" fill-rule="evenodd"/></g><g transform="translate(208.23 187.62)"><path d="m0 0c-0.104-0.165 0.062-0.549 0.18-0.612 0.076-0.041 0.158 8e-3 0.216-0.036 0.215-0.228 0.431-0.456 0.648-0.684 0.325-0.244 0.67-0.418 0.935-0.72 0.452-3e-3 0.422 0.33 0.577 0.612 0.248 0.454 0.562 0.895 0.828 1.332 0.082 0.135 0.269 0.53 0.143 0.72-0.089 0.258-0.417 0.214-0.683 0.216-0.329-0.249-1.261-0.322-1.729-0.432-0.132-0.012-0.263-0.024-0.395-0.036-0.061-0.06-0.12-0.12-0.181-0.18-0.215-0.099-0.424 4e-3 -0.539-0.18" fill="#ed561c" fill-rule="evenodd"/></g><g transform="translate(206.61 187.19)"><path d="m0 0c0.088 0.028 0.125 0.051 0.18 0.108h0.216c-0.085-0.067-0.238-0.079-0.325-0.144h-0.071zm-0.648-2.592c0.18-0.019 0.348-0.075 0.467 0.036 0.283 0.101 0.27 0.501 0.397 0.756 0.225 0.454 0.55 0.86 0.828 1.26 0.1 0.144 0.134 0.311 0.252 0.432 5e-3 0.296-0.13 0.668-0.324 0.756-0.138-0.147-0.235-0.303-0.325-0.504-0.24 0.023-0.527 0.115-0.719-0.072-0.074-0.071 0.021-0.124-0.144-0.18l-0.469-0.072c-0.294-0.087-0.653-0.2-0.935-0.288-0.204-0.024-0.408-0.048-0.612-0.072-0.492-0.305 0.297-1.2 0.576-1.296 0.017-0.026 0.146 0.042 0.179 0.036 0.106-0.022 0.748-0.683 0.829-0.792" fill="#ed561c" fill-rule="evenodd"/></g><g transform="translate(201.17 185.21)"><path d="m0 0c-0.122 0.017-0.213 0.046-0.288 0.108-0.2-0.016-0.262-0.076-0.397-0.144-0.045-0.163-0.127-0.386 0-0.54 0.113-0.324 0.584-0.341 0.829-0.54 0.085-0.069 0.082-0.229 0.143-0.323 0.149-0.228 0.464-0.499 0.792-0.433 0.167 0.034 0.26-7e-3 0.36 0.072 0.394 0.139 0.45 0.806 0.613 1.188 0.207 0.487 0.548 0.811 0.899 1.152 1e-3 0.233-0.038 0.294-0.107 0.432-0.135 0.036-0.203 0.073-0.397 0.072-0.151-0.101-0.395-0.079-0.576-0.144-0.402-0.146-0.82-0.342-1.187-0.504-0.241-0.105-0.569-0.172-0.684-0.396" fill="#ed561c" fill-rule="evenodd"/></g><g transform="translate(198.65 182.37)"><path d="m0 0c0.804-0.014 0.829 1.37 1.225 1.836 5e-3 0.331-0.055 0.372-0.181 0.54h-0.288c-0.044-0.047-0.396-0.346-0.432-0.36-0.144-0.055-0.226 0.072-0.36-0.036-0.314-0.113-0.461-0.902-0.288-1.224 0.026-0.048 0.157-0.07 0.18-0.108 0.054-0.091-0.042-0.284-0.036-0.324 0.02-0.127 0.121-0.233 0.18-0.324" fill="#ed561c" fill-rule="evenodd"/></g><g transform="translate(213.41 177.87)"><path d="m0 0c-0.153 0.148-0.256 0.422-0.433 0.54-0.134 0.09-0.278 0.01-0.467 0.072-0.282 0.092-0.615 0.314-0.9 0.432-0.156 0.036-0.312 0.072-0.469 0.108-0.16 0.088-0.122 0.181-0.431 0.18-0.176-0.187-0.335-0.38-0.504-0.576 2e-3 -0.374 0.112-0.476 0.252-0.684 0.431-0.013 0.598-0.154 0.9-0.252l0.539-0.072c0.102-0.037 0.219-0.172 0.325-0.216 0.432-0.181 0.853-0.088 1.152 0.108 0.012 0.12 0.023 0.24 0.036 0.36" fill="#ed561c" fill-rule="evenodd"/></g><g transform="translate(209.92 175.99)"><path d="m0 0c0.061-0.084 0.12-0.168 0.18-0.252 0.401-0.111 0.778-0.253 1.152-0.36 0.278-0.08 0.637-0.05 0.9-0.108 0.513-0.114 0.786 0.383 0.504 0.72-0.128 0.378-1.396 0.87-1.836 0.648-0.065 0.131-0.139 0.24-0.288 0.288-0.047 0.032-0.089 0.033-0.18 0.036-0.295-0.243-0.448-0.404-0.432-0.972" fill="#ed561c" fill-rule="evenodd"/></g><g transform="translate(215.46 175.49)"><path d="m0 0c0.175 0.223 0.3 0.457 0.504 0.648-1e-3 0.254-0.054 0.292-0.145 0.432-0.143 0.012-0.287 0.024-0.431 0.036-0.189-0.176-1.159-0.956-0.756-1.404-0.057-0.045-0.559-0.216-0.649-0.252 0.039-0.429 1.013-0.931 1.405-0.612 0.154 0.054 0.156 0.149 0.252 0.252 0 0.151-8e-3 0.244-0.073 0.324-0.062 0.192-0.249 0.321-0.503 0.324l0.036 0.036c0.089 0.103 0.277 0.11 0.36 0.216" fill="#ed561c" fill-rule="evenodd"/></g><g transform="translate(210.35 167.54)"><path d="m0 0c0.513 0.142 0.65 0.465 0.937 0.828-3e-3 0.138-0.013 0.214-0.073 0.288-0.076 0.096-0.143 0.111-0.324 0.108l-0.504-0.504c-0.243-0.095-0.545 3e-3 -0.72-0.144-0.105-0.053-0.107-0.137-0.179-0.216 4e-3 -0.091 4e-3 -0.133 0.036-0.18 0.094-0.231 0.532-0.263 0.827-0.18" fill="#ed561c" fill-rule="evenodd"/></g><g transform="translate(206.75 165.34)"><path d="m0 0c-0.062 0.023-0.035 7e-3 -0.072 0.036 0.062-0.023 0.036-7e-3 0.072-0.036m-0.936-0.612c0.067-0.051 0.155-0.056 0.216-0.108 0.251 2e-3 0.916 0.108 1.08 0.216l0.18 0.216c0.168 0.106 0.362 0.051 0.432 0.252 0.066 0.192-0.096 0.635-0.18 0.72-0.042 0.043-0.143 0.024-0.18 0.072-0.133 0.174-0.094 0.465-0.144 0.684-0.093 0.019-0.159 0.035-0.288 0.036-0.137-0.17-0.151-0.461-0.287-0.648-0.066-0.176-0.577-0.458-0.756-0.288-0.228 2e-3 -0.275-0.031-0.397-0.108 7e-3 -0.25 0.093-0.225 0.18-0.36-0.066-0.114-0.102-0.178-0.107-0.36 0.091-0.087 0.152-0.249 0.251-0.324" fill="#ed561c" fill-rule="evenodd"/></g><g transform="translate(212.33 186.43)"><path d="m0 0c-0.176-0.189-0.234-0.434-0.396-0.648 0.014-0.164 0.048-0.186 0.108-0.288 0.146-0.023 0.304 0.046 0.395 0 0.337-6e-3 0.471 0.026 0.649 0.144 0.011 0.448-0.36 0.77-0.756 0.792" fill="#231f20" fill-rule="evenodd"/></g><g transform="translate(208.41 184.56)"><path d="m0 0 0.396 0.036c0.049 0.054 0.117 0.105 0.18 0.144 0 0.278-0.321 0.692-0.504 0.756-0.051 0.035-0.118 0.036-0.217 0.036-0.131-0.175-0.296-0.502-0.431-0.648 8e-3 -0.185 0.044-0.214 0.108-0.324 0.214 5e-3 0.265 0.098 0.323 0.108 0.11 0.02 0.091-0.088 0.145-0.108" fill="#231f20" fill-rule="evenodd"/></g><g transform="translate(204.77 184.35)"><path d="m0 0c-0.117 0.067-0.016 0.142-0.288 0.144-0.134-0.137-0.604-0.627-0.397-0.936 0.044-0.09 0.082-0.082 0.145-0.144 0.186 0.031 0.174 0.128 0.288 0.18h0.288c0.045 0.022 0.073 0.162 0.108 0.18 0 0 0.286 5e-3 0.36 0.036 0.05 0.12 0.074 0.196 0.036 0.324-0.116 0.385-0.286 0.07-0.54 0.216" fill="#231f20" fill-rule="evenodd"/></g><g transform="translate(200.85 183.16)"><path d="m0 0c-0.056 0.038-0.147 0.038-0.252 0.036-0.028-0.025-0.08-0.047-0.108-0.072-0.186-0.064-0.437-0.678-0.396-0.828 0.018-0.183 0.055-0.158 0.144-0.252 0.433 0.014 0.311 0.179 0.504 0.288 0.155 0.088 0.244-0.047 0.396 0 0.059 0.018 0.123 0.109 0.18 0.144 0.023 0.062 7e-3 0.036 0.036 0.072-0.032 0.263-0.286 0.541-0.504 0.612" fill="#231f20" fill-rule="evenodd"/></g><g transform="translate(205 196.7)"><path d="m0 0c-0.066-0.27 0.085-0.861-0.043-1.015-0.021-0.013-0.065-9e-3 -0.086 0-0.136 0.108-0.143 0.346-0.217 0.518-0.064 0.153-0.207 0.457-0.344 0.54-0.049 0.029-0.074 0.01-0.109 0.043-0.244-0.015-0.485-0.067-0.691-0.15-0.184-0.075-0.346-0.196-0.605-0.195v0.086c0.065 0.048 0.122 0.135 0.195 0.173 0.171 0.091 0.38 0.097 0.475 0.259 0.055 0.095 0.052 0.191 0.108 0.281 0.191 0.308 0.453 0.577 0.67 0.864 0.248 0.329 0.678 0.517 0.907 0.864 0.067-0.016 0.101-0.038 0.151-0.065-0.019-0.782-0.25-1.551-0.411-2.203m-0.519-1.447c-0.075 0.233-0.269 0.628-0.41 0.821-0.047 0.064-0.137 0.095-0.194 0.151-0.497-0.01-0.819-0.243-1.166-0.389-0.059-0.024-0.127-0.013-0.173-0.043h-0.087c8e-3 7e-3 0.015 0.014 0.023 0.022 0.122 0.17 0.841 0.493 1.079 0.583 0.128 0.048 0.3 0.038 0.411 0.108 0.273-0.037 0.702-0.943 0.626-1.253 7e-3 -7e-3 0.014-0.014 0.021-0.022-0.084 0.023-0.047 0.024-0.13 0.022m-1.943 0.086c0.045 0.048 0.062 0.128 0.108 0.173 0.151 0.072 0.302 0.144 0.454 0.216h0.129c0.024-0.148-0.371-0.819-0.497-0.864-0.02-0.023-0.054-2e-3 -0.086 0.022-0.111 0.057-0.111 0.314-0.108 0.453m1.858-1.987c-0.123-0.402-0.473-0.809-0.67-1.166-0.014-0.065-0.029-0.13-0.043-0.194-0.051-0.134-0.303-0.588-0.411-0.648-0.108-0.022-0.215-0.043-0.324-0.065-0.187-0.069-0.362-0.204-0.54-0.281-0.115-0.05-0.253-0.058-0.346-0.13-0.089 0.018-0.09 0.047-0.15 0.087 0.017 0.571 0.331 1.083 0.518 1.512 0.47 1.077 0.953 2.088 1.404 3.175 0.055-3e-3 0.08-3e-3 0.108-0.022 0.137-0.071 0.278-0.616 0.345-0.799 0.064-0.17 0.175-0.353 0.217-0.54 0.038-0.174-0.099-0.293-0.13-0.41 7e-3 -0.173 0.015-0.346 0.022-0.519m-0.173-2.268c0.148 0.105 0.401 0.068 0.561 0.173 0.064 1e-3 0.118 1e-3 0.152-0.021 0.052-0.029 0.015 0.01 0.043-0.044h0.021c-0.065-0.178-0.286-0.302-0.41-0.431-0.17-0.18-0.334-0.427-0.475-0.627-0.349-0.496-0.615-1.016-0.907-1.577-0.097-0.183-0.227-0.386-0.303-0.583l-0.064-0.281c-0.149-0.364-0.435-0.909-0.324-1.425-0.146-0.155-0.239-0.253-0.497-0.302-0.034 0.032-0.088 0.063-0.13 0.086-0.051 1.641 0.693 2.964 1.382 3.953 0.262 0.374 0.583 0.82 0.951 1.079m0.971-0.259c0.167 0.125 0.324 0.281 0.497 0.389 0.138 0.086 0.32 0.1 0.455 0.194 0.238 3e-3 0.403-6e-3 0.539-0.086-0.024-0.181-0.307-0.316-0.432-0.411-0.224-0.168-0.392-0.38-0.562-0.604-0.093-0.086-0.187-0.173-0.28-0.259-0.396-0.524-0.781-1.143-1.037-1.793-0.09-0.228-0.166-0.46-0.237-0.67-0.033-0.092-0.019-0.168-0.066-0.237-2e-3 -0.173 0.015-0.267 0.066-0.367 0.037-0.014 0.02-5e-3 0.043-0.022 0.242 0.028 0.209 0.231 0.28 0.432 0.092 0.257 0.235 0.536 0.346 0.778 0.041 0.089 0.022 0.151 0.065 0.237 0.478 0.982 1.025 1.832 1.9 2.419 0.227 0.152 0.464 0.397 0.756 0.476 0.232 0.062 0.521-0.087 0.692-0.13 0.013-0.037 4e-3 -0.021 0.021-0.043-0.014-0.185-0.147-0.198-0.259-0.281l-0.497-0.497c-0.101-0.075-0.195-0.128-0.281-0.216-0.443-0.453-1.005-1.204-1.274-1.814-0.103-0.233-0.195-0.475-0.281-0.713-0.044-0.121-0.021-0.235-0.086-0.324-0.084-0.244-0.521-0.267-0.778-0.346-0.418-0.129-0.839-0.286-1.231-0.453-0.144-0.061-0.361-0.077-0.475-0.173-0.134 3e-3 -0.17 0.044-0.194 0.151-0.037 0.062 0.062 0.252 0.086 0.324 0.045 0.141 0.022 0.238 0.065 0.368 0.083 0.254 0.205 0.527 0.302 0.755 0.3 0.701 0.589 1.349 0.994 1.944 0.139 0.204 0.354 0.373 0.496 0.562 0.106 0.139 0.23 0.306 0.367 0.41m3.392 0c0.107 0.068 0.246 0.094 0.346 0.173 0.177 3e-3 0.361-2e-3 0.453-0.087 0.021-6e-3 0.043-0.014 0.064-0.021-0.012-0.254-0.252-0.281-0.41-0.389-0.18-0.122-0.358-0.323-0.518-0.475-0.439-0.417-0.728-0.915-1.058-1.447-0.066-0.105-0.18-0.215-0.238-0.324-0.106-0.2-0.152-0.458-0.259-0.648-0.235-0.057-0.621-0.122-0.799-0.259-0.1 8e-3 -0.112 0.029-0.173 0.064 0.013 0.425 0.255 0.716 0.41 1.016 0.325 0.626 0.757 1.123 1.232 1.598l0.41 0.41c0.179 0.13 0.358 0.274 0.54 0.389m2.073-0.367c-2e-3 -0.055-3e-3 -0.08-0.021-0.108-0.05-0.12-0.661-0.489-0.799-0.626-0.329-0.328-0.696-0.661-0.973-1.037-0.1-0.138-0.325-0.592-0.431-0.67-0.203-0.147-0.604-0.115-0.799-0.237-0.096 0.012-0.182 0.049-0.152 0.172 0.015 0.061 0.1 0.124 0.129 0.173 0.126 0.204 0.198 0.41 0.325 0.605 0.412 0.633 0.904 1.184 1.511 1.62 0.174 0.124 0.414 0.17 0.584 0.302 0.302-1e-3 0.433-0.098 0.626-0.194m0.562-0.324c0.208-3e-3 0.554-0.203 0.604-0.346 0.019-0.036 0.011-0.067-0.021-0.108-0.1-0.139-0.326-0.167-0.475-0.259-0.272-0.168-0.562-0.372-0.8-0.583-0.147-0.132-0.345-0.502-0.517-0.561-0.232-0.08-0.656-0.017-0.843-0.13-0.092 0.016-0.097 0.038-0.13 0.108-0.056 0.075 0.363 0.485 0.433 0.562 0.337 0.379 0.691 0.754 1.123 1.036 0.104 0.069 0.284 0.17 0.388 0.216 0.08 0.035 0.173 0.021 0.238 0.065m1.037-0.734c0.404-8e-3 0.56-0.332 0.82-0.497-9e-3 -0.044-5e-3 -0.042-0.021-0.065-0.019-0.075-0.031-0.058-0.065-0.108-0.377-0.03-0.766-0.051-1.101-0.13-0.13-7e-3 -0.26-0.014-0.389-0.021-0.177-0.041-0.336-0.089-0.562-0.087-0.024 0.026-0.055 0.047-0.086 0.065 0.034 0.175 0.199 0.198 0.324 0.281 0.15 0.101 0.309 0.237 0.474 0.324 0.186 0.097 0.439 0.115 0.606 0.238m1.512-0.972c0.072-0.023 0.18-0.025 0.237-0.065 0.166-0.116 0.183-0.373 0.26-0.583 0.116-0.321 0.22-0.718 0.323-1.059 0.043-0.14 0.017-0.299 0.087-0.41 3e-3 -0.139 0-0.264-0.043-0.345-0.178 9e-3 -0.413 0.434-0.54 0.561-0.206 0.206-0.403 0.416-0.606 0.627-0.071 0.057-0.143 0.114-0.216 0.172-0.206 0.271-0.47 0.588-0.755 0.778 7e-3 0.061 0.014 0.093 0.043 0.129 0.085 0.132 1.001 0.059 1.21 0.195m1.404-4.86v-0.324c0-0.455-0.046-0.789-0.13-1.145-0.066-0.282 0.094-0.911 0.064-0.993-0.025-0.068-0.058-0.089-0.129-0.108-0.077 0.073-0.171 0.108-0.259 0.173-0.219 0.159-0.328 0.41-0.475 0.648-0.038 0.061-0.102 0.097-0.13 0.172-0.108 0.013-0.122-0.016-0.194-0.086 0.049-0.346 0.247-0.623 0.432-0.843-0.01-0.064-0.011-0.072-0.043-0.108-0.081-0.213-0.945-0.449-1.296-0.367-0.165 0.039-0.573 0.086-0.692 0-0.021-7e-3 -0.043-0.014-0.064-0.021 0-0.332 0.31-0.185 0.518-0.303h0.389c0.241-0.097 0.295-0.543 0.605-0.647 0.038-0.027 0.09-0.028 0.129 0 0.233 0.095-0.111 0.447-0.194 0.518 0.01 0.114 0.041 0.125 0.086 0.194 0.463 7e-3 0.448-0.521 1.016-0.518 0.029 0.032 0.069 0.063 0.107 0.086-0.017 0.302-0.616 0.408-0.475 0.648 0.035 0.101 0.1 0.113 0.173 0.173 0.2-3e-3 0.258-0.095 0.389-0.151 0.092-0.04 0.182-0.015 0.259-0.065 0.218-0.141 0.346-0.686 0.518-0.907 0.24-0.308 0.656-0.54 0.648-1.08-0.035-0.051-0.072-0.101-0.108-0.151-0.316-0.248-0.73-0.415-0.95-0.756-0.068-0.105-0.152-0.376-0.108-0.562 0.017-0.075 0.063-0.141 0.021-0.238-0.06-0.14-0.279-0.217-0.367-0.345-0.355-0.519-0.63-1.066-1.166-1.404 3e-3 -0.139 0.031-0.123 0.086-0.194 0.557 8e-3 0.855 0.224 1.404 0.215 0.103-0.099 0.187-0.17 0.281-0.28 3e-3 -0.237-0.12-0.427-0.324-0.454-0.212-0.095-0.717 0.253-0.907 0.324-0.024-0.026-0.055-0.046-0.087-0.065 0.014-0.264 0.461-0.425 0.649-0.54 0.04-0.172 0.014-0.423 0.064-0.626 0.057-0.231 0.27-0.707 0.151-0.993-0.189-0.459-0.649-0.6-1.144-0.757-0.233-0.072-0.442-1e-3 -0.692-0.064-0.307-0.078-0.825-0.108-1.101-0.087h-0.303c-0.063 0.021-0.155 0.108-0.216 0.13-0.116 0.042-0.23-0.047-0.301-0.065-0.147-0.036-0.512 0.049-0.649 0.086-0.665 0.181-1.379 0.449-1.922 0.778-0.014 0.037-5e-3 0.021-0.022 0.043 0.028 0.182 0.135 0.19 0.217 0.303 0.128 0.177 0.258 0.424 0.323 0.648 0.348 1.206-0.422 2.389-1.036 2.851-0.247 0.185-0.493 0.328-0.692 0.561 0.016 0.169 0.111 0.291 0.152 0.432 0.07 0.244 0.156 0.857 0.064 1.145-0.109 0.344-0.305 0.679-0.518 0.929-0.071 0.082-0.266 0.246-0.216 0.367 0.02 0.124 0.177 0.33 0.281 0.367h0.302c0.149 0.048 0.289 0.216 0.411 0.302 0.102 0.074 0.217 0.105 0.323 0.173 0.196 0.125 0.371 0.307 0.562 0.432 0.973 0.641 1.826 1.359 2.614 2.182 0.114-0.01 0.169-0.055 0.216-0.13 0.647 2e-3 1.401 0.158 1.965-0.043 0.158-0.057 0.314-3e-3 0.432-0.086 0.074 0.026 0.093 0.069 0.152 0.108-9e-3 0.044-6e-3 0.041-0.022 0.065-0.088 0.247-0.432 0.234-0.713 0.302-0.522 0.125-1.55 0.154-1.857-0.152-0.045 9e-3 -0.042 6e-3 -0.066 0.022-0.035 0.056 0.086 0.295 0.13 0.368 0.156 0.254 0.289 0.545 0.41 0.842 0.073 0.177 0.067 0.398 0.173 0.54 0.077 0.22 0.27 0.158 0.519 0.216 0.253 0.059 0.608 0.087 0.886 0.151 0.184 0.043 0.4-0.02 0.54 0.065 0.513-0.172 0.404-0.451 0.583-0.929 0.11-0.296 0.236-0.622 0.324-0.972m0.474-7.128c0.072-0.047 0.095-0.113 0.152-0.173-0.014-0.384-0.317-0.682-0.583-0.82-0.114-0.059-0.279-0.04-0.389-0.108-0.076 0.027-0.081 0.061-0.13 0.108 0.026 0.129 0.115 0.207 0.173 0.302 0.108 0.175 0.184 0.338 0.303 0.497 0.072 0.096 0.197 0.151 0.28 0.238 0.091-1e-3 0.147-5e-3 0.194-0.044m-3.499-5.702c-0.221-0.298-0.551-0.554-0.95-0.669-0.138-0.04-0.596-0.054-0.691-0.108-0.204-8e-3 -0.234 0.011-0.324 0.108 0.033 0.163 0.211 0.256 0.324 0.345 0.24 0.188 0.544 0.616 0.843 0.713 0.12 0.039 0.295-0.034 0.388 0.022 0.152-8e-3 0.303-0.015 0.453-0.022 0.044-0.043 0.087-0.086 0.13-0.13 0.029-0.115-0.13-0.2-0.173-0.259m0.908-2.505c0.079-0.11 0.403-0.525 0.258-0.692-0.016-0.014-0.047-0.028-0.064-0.043-0.247 0.09-0.434 0.341-0.647 0.475-0.237 0.149-0.549 0.281-0.8 0.389-0.086 0.029-0.173 0.058-0.259 0.087-0.117 0.078-0.148 0.239-0.237 0.345 3e-3 0.154 0.048 0.152 0.107 0.238 1.019 0.018 1.228-0.226 1.642-0.799m0.734-2.419c0.042-0.101 0.029-0.235 0.087-0.324 4e-3 -0.107 0.012-0.211-0.044-0.26-0.037-0.029-0.036-1e-3 -0.064-0.021-0.125 0.067-0.143 0.289-0.216 0.41-0.143 0.235-0.345 0.509-0.562 0.67-0.497 0.369-1.138 0.542-1.663 0.885-0.138 0.09-0.248 0.235-0.367 0.346v0.108c0.162 0.152 0.314 0.319 0.475 0.475 0.285-0.016 0.571-0.261 0.778-0.389 0.534-0.329 0.981-0.62 1.273-1.188 0.119-0.23 0.207-0.484 0.303-0.712m-0.453-0.778c-0.017-0.05-0.023-0.048-0.044-0.086-0.184 0.065-0.302 0.254-0.475 0.345-0.32 0.168-0.641 0.251-0.95 0.432-0.295 0.173-0.575 0.381-0.843 0.583-0.285 0.215-0.415 0.597-0.67 0.843 1e-3 0.059 1e-3 0.099 0.023 0.13 0.026 0.075 0.06 0.08 0.107 0.129 0.25-0.063 0.3-0.282 0.476-0.41 0.091-0.067 0.192-0.137 0.28-0.195 0.42-0.277 0.95-0.407 1.362-0.691 0.25-0.173 0.486-0.495 0.647-0.756 0.046-0.075 0.051-0.156 0.108-0.216-3e-3 -0.055-3e-3 -0.08-0.021-0.108m-0.778-0.605c-7e-3 -0.028-0.014-0.057-0.022-0.086-0.736-0.082-1.219 0.338-1.598 0.691 0.019 0.076 0.03 0.059 0.065 0.108 0.395-0.022 1.388-0.461 1.555-0.691 7e-3 -7e-3 0.014-0.015 0.022-0.022zm-2.009 1.339c-0.582 0.366-0.678 0.636-0.842 1.404 0.036 0.044 0.072 0.087 0.107 0.13h0.109c0.051-0.043 0.1-0.086 0.151-0.13 0.092-0.144 0.085-0.332 0.173-0.475 0.172-0.281 0.815-0.99 1.123-1.102-3e-3 -0.061-9e-3 -0.092-0.021-0.129-0.323 0.011-0.591 0.171-0.8 0.302m-0.821 2.225c0.465 0 0.926 0.157 1.124 0.411h0.086c0.03-0.035 0.013-0.025 0.065-0.044-0.017-0.293-0.481-0.562-0.713-0.648-0.09-0.033-0.3-0.08-0.389-0.021-0.14 0.013-0.163 0.078-0.237 0.151 0.01 0.097 0.027 0.092 0.064 0.151m-0.172 0.346c-0.192 0.054-0.29 0.217-0.411 0.345 7e-3 0.222 0.502 0.855 0.669 0.908 0.133 0.041 0.317-0.023 0.412-0.044 0.108-0.023 0.608 0.028 0.668 0.065h0.13l0.086-0.086c-7e-3 -0.176-0.09-0.252-0.15-0.368-0.245-0.467-0.337-0.566-0.864-0.755-0.145-0.052-0.348-0.12-0.54-0.065m-1.166-0.087c-0.1-0.214-0.247-0.42-0.303-0.691-0.051-0.014-0.101-0.029-0.151-0.043-0.137 0.151-0.274 0.302-0.411 0.453-0.113 0.083-0.244 0.125-0.324 0.238-0.068 0.097-0.045 0.214-0.086 0.345-0.033 0.106-0.109 0.219-0.173 0.303-0.15 0.2-0.532 0.279-0.604 0.54-0.02 0.067 0.03 0.207 0.043 0.259 0.045 0.195 0.051 0.475 0.043 0.626-0.011 0.198-0.106 0.658-0.195 0.8-0.077 0.123-0.229 0.174-0.281 0.324h-0.021c-9e-3 0.042 9e-3 0.027 0.021 0.043 0.022 0.187 0.353 0.424 0.476 0.54 0.163-3e-3 0.21-0.058 0.324-0.086 0.412-0.104 0.818 0.083 1.059 0.172 0.142 0.054 0.307 0.059 0.41 0.151 0.35-0.013 0.567-0.29 0.842-0.41 0.257-0.113 0.504-0.148 0.778-0.259 0.241-0.099 0.56-0.229 0.82-0.302 5e-3 -0.051 4e-3 -0.061 0.022-0.087-0.035-0.155-0.182-0.171-0.281-0.259-0.134-0.121-0.231-0.29-0.367-0.41-0.069-0.062-0.161-0.1-0.217-0.173-0.103-0.137-0.248-0.235-0.344-0.367-0.396-0.541-0.786-1.072-1.08-1.707m-1.167-2.138c-0.109-0.314-0.361-0.408-0.583-0.605l-0.173 0.022c-7e-3 7e-3 -0.014 0.014-0.022 0.021 0.022 0.157 0.136 0.188 0.195 0.303 0.134 0.263 0.209 0.526 0.367 0.756 0.233-5e-3 0.294-0.272 0.216-0.497m-1.079 1.274v0.346c0.083 0.379 0.151 0.704 0.323 0.972 0.303-0.022 0.284-0.375 0.345-0.648 0.184-0.81-0.345-1.274-0.453-1.858-0.126 0-0.13 0.019-0.194 0.065-4e-3 0.246-0.042 0.509-0.087 0.713-0.034 0.155 0.04 0.307 0.066 0.41m1.403-1.62c0.121-0.208 0.02-0.426-0.086-0.583-0.124-0.182-0.672-0.521-1.037-0.432-0.163 0.04-0.29 0.135-0.41 0.216-8e-3 0.022-0.015 0.043-0.022 0.065 0.138 0.06 0.354-2e-3 0.54 0.043 0.413 0.101 0.695 0.369 0.885 0.691zm0.475-1.965c0.046-0.058 0.134-0.084 0.195-0.13 0.244-0.183 0.469-0.429 0.734-0.604 0.648-0.431 1.536-0.586 2.073-1.123 0.237-0.237 0.321-0.467 0.432-0.843 0.027-0.092 0.112-0.32 0.044-0.432-0.023-0.059-0.031-0.048-0.065-0.086-0.167 0.036-0.28 0.22-0.389 0.323-0.16 0.153-0.404 0.332-0.605 0.433-0.413 0.206-0.898 0.231-1.339 0.41-0.866 0.352-1.524 0.783-1.879 1.641-0.122 0.297-0.131 0.631-0.195 0.973 0.056 0.065 0.081 0.166 0.152 0.215 0.047 0.033 0.091 0.029 0.13 0.065h0.129c0.232-0.248 0.37-0.572 0.583-0.842m-0.129 0.886c0.019 0.046 0.018 0.031 0.043 0.064 0.166-0.045 0.262-0.158 0.388-0.237 0.306-0.193 0.637-0.38 0.864-0.648 0.097-0.114 0.157-0.26 0.259-0.368-2e-3 -0.054-2e-3 -0.079-0.021-0.108v-0.043c-0.208 0.019-0.318 0.147-0.453 0.238-0.197 0.13-0.445 0.224-0.583 0.41-0.109 0.145-0.244 0.252-0.346 0.389-0.06 0.08-0.096 0.177-0.173 0.238 9e-3 0.044 5e-3 0.041 0.022 0.065m1.08 0.129c0.581-0.415 1.341-1.076 1.511-1.879-0.025-0.025-0.046-0.055-0.064-0.086-0.037-0.014-0.022-5e-3 -0.043-0.022-0.384 0.061-0.315 0.276-0.454 0.561-0.093 0.189-0.221 0.391-0.346 0.562-0.072 0.065-0.143 0.13-0.216 0.195-0.392 0.392-0.825 0.695-1.36 0.95-8e-3 0.05-0.015 0.1-0.022 0.151 0.414-0.024 0.735-0.247 0.994-0.432m1.77-4.255c-0.353 7e-3 -0.776 0.196-1.079 0.281-0.241 0.068-0.458 2e-3 -0.713 0.064-0.287 0.071-0.621 0.105-0.886 0.217-0.574 0.241-1.09 0.772-1.36 1.317-0.111 0.224-0.13 0.55-0.195 0.799-0.074 0.283 0.062 0.532 0.065 0.799 0.068 2e-3 0.136 4e-3 0.173-0.021 0.038-0.062-1e-3 -0.171 0.021-0.259 0.035-0.136 0.074-0.347 0.13-0.497 0.118-0.312 0.329-0.612 0.518-0.864 0.423-0.562 1.156-0.841 1.88-1.101 0.244-0.089 0.478-0.096 0.713-0.195 0.281-0.12 0.487-0.336 0.733-0.475zm-4.924 7.171c-0.086-0.353-0.021-0.909-0.065-1.296-0.255 0.014-0.215 0.231-0.28 0.432-0.249 0.76-0.013 0.83 0.302 1.339 0.05-5e-3 0.061-4e-3 0.086-0.022 0.025-0.042-0.017-0.347-0.043-0.453m-0.67 0.281h-0.043c-0.024 0.025-0.054 0.046-0.087 0.064 9e-3 1.068 0.291 2.193 0.692 2.873h0.13c0.438-0.698 0.031-1.877-0.281-2.376-0.118-0.187-0.334-0.336-0.411-0.561m-0.064-1.577c-0.023-0.017-6e-3 -8e-3 -0.043-0.022-0.327 0.334-0.748 0.58-0.994 0.994-0.024 0.02-2e-3 0.055 0.021 0.086 0.023 0.059 0.032 0.048 0.066 0.087 0.359 5e-3 0.702-0.048 0.82-0.281 0.106-0.211 0.033-0.529 0.173-0.713-2e-3 -0.083-5e-3 -0.11-0.043-0.151m-0.777 0.022c-0.294 0.046-0.407 0.348-0.562 0.54 7e-3 0.05 0.01 0.053 0.022 0.086h0.128c0.056-0.166 0.297-0.444 0.412-0.583zm-1.75 2.376c-0.083 0.175-0.219 0.417-0.109 0.669h0.13c0.281-0.489 0.642-0.899 1.123-1.188 0.126-0.075 0.356-0.056 0.476-0.13 0.049-0.016 0.048-0.022 0.086-0.043-0.014-0.053-8e-3 -0.034 0-0.086l-0.065-0.065c-0.59 6e-3 -1.45 0.435-1.641 0.843m-1.621 3.088c-0.072 0.101-0.344 0.404-0.258 0.562 0.015 0.067 0.013 0.045 0.043 0.086 0.117-0.043 0.141-0.133 0.215-0.216 0.131-0.147 0.315-0.296 0.476-0.41 0.165-0.118 0.356-0.268 0.54-0.346 0.122-0.052 0.274-0.097 0.389-0.13h0.173c0.049-0.043 0.1-0.086 0.151-0.129 2e-3 -0.055 2e-3 -0.08 0.021-0.108 2e-3 -0.209-0.053-0.213-0.129-0.324-0.773 0.049-1.27 0.532-1.621 1.015m0.433-1.015h-0.044v0.043l0.044-0.022zm-1.253 2.83c-0.646 0.45-1.038 1.371-1.015 2.418 0.054 3e-3 0.08 3e-3 0.108 0.022h0.043c0.269-1.32 1.036-1.925 1.987-2.548 0.125-0.083 0.269-0.111 0.389-0.195l0.259-0.259c-1e-3 -0.136-0.025-0.13-0.086-0.194-0.281 0.022-0.51 0.208-0.735 0.302-0.348 0.145-0.66 0.251-0.95 0.454m-1.21 4.837c-0.095 0.226-0.088 0.394-0.151 0.67-0.077 0.339-0.056 0.896 0.021 1.21 0.074 0.296 0.06 0.552 0.196 0.777 0.16 0.267 0.313 0.167 0.496 0.324h0.065c0.035-0.037 0.08-0.063 0.129-0.086-1e-3 -0.333-0.043-0.763-0.107-1.08-0.059-0.285 0.157-1.018 0.237-1.21 0.049-0.116 0.041-0.193 0.087-0.324 0.097-0.283 0.285-0.541 0.431-0.777l0.065-0.173c0.24-0.354 0.718-0.521 1.059-0.777-1e-3 -0.063-1e-3 -0.119 0.021-0.152 2e-3 -0.19-0.039-0.202-0.108-0.302-0.34 0.019-0.777 0.34-1.015 0.497-0.184 0.12-0.367 0.216-0.54 0.345-0.232 0.174-0.392 0.453-0.583 0.67-0.106 0.119-0.235 0.231-0.303 0.388m-0.474 5.206c0.058 0.415 0.809 0.492 1.101 0.713 0.058-0.019 0.079-0.041 0.129-0.065-0.015-0.222-0.116-0.377-0.194-0.54-0.075-0.158-0.073-0.317-0.152-0.475-0.114-0.231-0.236-0.491-0.344-0.735-0.351 7e-3 -0.357 0.872-0.54 1.102m-0.023-2.462h-0.086c0.029 0.054 0.043 0.075 0.043 0.172 0.022 8e-3 0.043 0.015 0.066 0.022 0.021 0.017 4e-3 8e-3 0.043 0.022 6e-3 -7e-3 0.014-0.015 0.021-0.022-0.02-0.109-0.062-0.099-0.087-0.194m-0.259-1.987c-0.089-0.307-0.138-0.604-0.215-0.886v-0.194c-0.063-0.255-0.111-0.56-0.173-0.821v-0.259c-0.066-0.286-0.14-0.858-0.065-1.21 0.08-0.378-0.076-0.973 0.108-1.231 1e-3 -0.163-0.034-0.162-0.108-0.238-0.517 0.099-0.518 1.222-0.454 1.901 0.079 0.834 0.266 1.614 0.476 2.311 0.044 0.146 0.023 0.239 0.064 0.389 0.066 0.194 0.13 0.389 0.194 0.583 0.015 0.072 0.03 0.144 0.043 0.216 0.057 0.111 0.153 0.232 0.217 0.346 0.043-0.015 0.086-0.029 0.129-0.043-0.013-0.364-0.14-0.6-0.216-0.864m-1.187-0.778c-0.174-0.407-0.439-0.847-0.606-1.274-0.131-0.336-0.209-0.66-0.345-0.972-0.088 0-0.112-3e-3 -0.151 0.043-0.04 0.088 0.04 0.325 0.065 0.432 7e-3 0.094 0.014 0.187 0.021 0.281 0.063 0.206 0.154 0.449 0.237 0.648 0.549 1.311 1.206 2.413 2.009 3.456 0.024 0.016 0.021 0.013 0.066 0.021-0.035-0.224-0.147-0.213-0.217-0.346-0.047-0.088-0.024-0.169-0.065-0.259-0.036-0.036-0.072-0.072-0.107-0.108-0.059-0.088-0.063-0.178-0.108-0.28-0.114-0.259-0.286-0.538-0.432-0.778-0.166-0.273-0.235-0.553-0.367-0.864m1.425 8.294c-0.052 0.124-0.09 0.257-0.086 0.432 0.036 7e-3 0.072 0.014 0.107 0.021 0.055-0.082 0.109-0.198 0.173-0.28 0-0.103-0.012-0.137-0.043-0.195-0.066 1e-3 -0.11 8e-3 -0.151 0.022m-0.281-1.296c-0.062-0.041-0.296 0.114-0.367 0.151-0.258 0.134-0.603 0.241-0.756 0.475-0.029 0.101-0.057 0.202-0.087 0.303 0.012 0.128 0.057 0.138 0.109 0.216 0.22-0.04 0.431-0.306 0.67-0.389 0.236-0.083 0.446-0.017 0.647-0.13 0.046-0.218-0.031-0.565-0.216-0.626m0.022-0.929c-0.023-0.017-5e-3 -8e-3 -0.043-0.021-0.088 0.082-0.232 0.117-0.303 0.216-0.101 0.14-0.138 0.314-0.259 0.432 5e-3 0.088 0.011 0.083 0.043 0.129 0.243-0.045 0.555-0.109 0.626-0.324 0.029-0.086-0.015-0.196 0.022-0.259 5e-3 -0.12 8e-3 -0.147-0.086-0.173m-1.555 3.024c-0.062 0.109-0.018 0.299-0.087 0.41-1e-3 0.16 0.03 0.175 0.087 0.26h0.086c0.154-0.232 0.453-0.458 0.691-0.605 0.165-0.101 0.456-0.123 0.562-0.281 0.106-0.159 0.132-0.517 0.173-0.713-0.032-0.029-0.064-0.07-0.087-0.107-0.52 0.014-1.221 0.682-1.425 1.036m0 1.858c0.022 0.058 0.03 0.047 0.065 0.086 0.194-0.058 0.282-0.28 0.431-0.389 0.181-0.131 0.403-0.249 0.583-0.367 0.032-0.15 0.043-0.466 0.13-0.583 3e-3 -0.149-0.015-0.201-0.064-0.281-0.306-0.015-1.016 0.673-1.123 0.951-0.04 0.101-0.063 0.517-0.022 0.583m0.194 1.058h0.129c0.277-0.428 0.747-0.496 0.67-1.231-0.027-0.014-0.045-0.024-0.064-0.043-0.381 0.04-0.645 0.608-0.864 0.842-1e-3 0.227 0.047 0.304 0.129 0.432m0.216 2.916c0.205 0.625 0.376 1.232 0.669 1.771h0.13c0.253-0.392 0.36-0.963 0.519-1.447 0.096-0.295 0.111-0.64 0.28-0.864-9e-3 -0.064-0.011-0.073-0.043-0.108-0.022-0.017-5e-3 -8e-3 -0.043-0.022-0.209 0.221-0.499 0.367-0.713 0.583h-0.086c-0.242-0.244-0.576-0.57-0.734-0.885-0.069 0.01-0.082 0.022-0.13 0.043-0.054 0.3 0.07 0.681 0.151 0.929m0.259-2.095c0.045-9e-3 0.042-6e-3 0.066-0.022 0.099-0.031 0.204-0.201 0.15-0.302 3e-3 -0.188 0.021-0.44-0.043-0.562-0.243 0.013-0.286 0.294-0.41 0.432 8e-3 0.24 0.104 0.341 0.237 0.454m1.923-3.975c0.077 0.183 0.264 0.34 0.323 0.519 0.071-0.019 0.033 0.012 0.066-0.043 0.071-0.118-0.096-0.47-0.13-0.584-0.062-0.209-0.064-0.458-0.109-0.647v-0.433c-0.036-0.162-0.06-0.421-0.021-0.604 0.046-0.214-0.022-0.441 0.087-0.583v-0.151c-0.061-0.143-0.695-0.415-0.886-0.389 7e-3 0.168 0.053 0.309 0.086 0.453v0.389c0.191 0.711 0.31 1.433 0.584 2.073m0.561 3.24h0.152c0.095-0.369 0.279-0.638 0.517-0.864-4e-3 -0.173-0.554-0.731-0.69-0.777-0.029 0.028-0.069 0.047-0.108 0.064-0.109 0.51-0.059 1.173 0.129 1.577m0.389 1.383h0.152v-0.022c0.053-0.079 0.028-0.201 0.064-0.302 0.106-0.296 0.236-0.59 0.432-0.8-6e-3 -0.252-0.114-0.431-0.195-0.626-0.043-0.014-0.086-0.028-0.13-0.043-0.317 0.353-0.547 1.165-0.323 1.793m0.389 0.777c0.037 0.168 0.142 0.271 0.194 0.41h0.109c0.024-0.025 0.054-0.045 0.085-0.064 7e-3 -0.309 0.059-0.618 0.152-0.864 0.038-0.101 0.171-0.221 0.13-0.389-0.034-0.138-0.145-0.329-0.217-0.454-0.271 7e-3 -0.229 0.232-0.302 0.433-0.057 0.155-0.205 0.691-0.151 0.928m0.561 1.21c0.07 0.229 0.241 0.443 0.346 0.648 0.05-5e-3 0.061-4e-3 0.086-0.022 0.153-0.068 0.043-0.336 0.087-0.518 0.058-0.244 0.12-0.477 0.216-0.67 0.029-0.059 0.059-0.133 0.021-0.194-0.014-0.184-0.28-0.557-0.367-0.734-0.066 1e-3 -0.11 7e-3 -0.151 0.021-0.06 0.257-0.131 0.587-0.195 0.842v0.238c-0.019 0.075-0.084 0.255-0.043 0.389m0.368-3.456c-0.067-0.125-0.227-0.166-0.303-0.281-0.09 4e-3 -0.099 0.015-0.152 0.043 0.035 0.259 0.18 0.34 0.239 0.54 7e-3 0.094 0.014 0.187 0.021 0.281 0.291 0.804 0.731 1.499 1.059 2.246h0.107c-0.01-0.195-0.088-0.226-0.151-0.345-0.111-0.21-0.221-0.481-0.302-0.691-0.145-0.373-0.274-0.744-0.389-1.123-0.062-0.207-0.031-0.483-0.129-0.67m0.108-4.622c-0.037-0.253-0.465-0.45-0.67-0.324-0.039 0.228-0.023 0.663 0 0.907 0.036 0.379-0.041 0.724 0.064 1.145 0.215 0.852 0.596 1.507 1.016 2.138 0.177 0.266 0.35 0.593 0.605 0.778 0.122 0.088 0.285 0.162 0.431 0.216 0.079 0.029 0.174 0.021 0.238 0.064 0.063-0.026 0.081-0.018 0.108-0.086 0.017-0.022 8e-3 -5e-3 0.021-0.043-0.145-0.14-0.248-0.33-0.367-0.497-0.383-0.542-0.755-1.149-1.014-1.814-0.036-0.091-0.012-0.14-0.043-0.238-0.087-0.265-0.206-0.556-0.303-0.842-0.086-0.253-0.129-0.692-0.13-0.994 0-0.139-0.023-0.335 0.044-0.41m1.857-0.735c-0.26-0.612-0.471-1.29-0.842-1.792-0.294 0.016-0.385 0.255-0.562 0.388-0.322 0.243-0.658 0.491-0.993 0.713-0.107 0.071-0.499 0.219-0.411 0.389 0.065 0.159 0.651 0.286 0.843 0.367 0.438 0.187 0.938 0.387 1.381 0.562 0.272 0.107 0.589 0.127 0.822 0.281 0.044-9e-3 0.042-6e-3 0.064-0.022 0.059-0.022 0.048-0.031 0.087-0.065-0.031-0.334-0.275-0.553-0.389-0.821m1.749-0.043c0.12-0.09 0.22-0.239 0.346-0.324 0.19-0.128 0.54-0.209 0.626-0.432 0.015-0.026-0.019-0.098-0.043-0.151-0.108-0.043-0.314-0.125-0.475-0.086-0.25 0.061-0.83 0.495-0.994 0.669-0.049-5e-3 -0.06-4e-3 -0.086-0.021-0.328-0.118-0.392-0.793-0.561-1.102-0.151-0.274-0.551-0.213-0.778-0.389-0.11 0.012-0.106 0.042-0.173 0.087 0.057 0.331 0.39 0.794 0.518 1.101 0.206 0.493 0.373 1.004 0.713 1.361h0.087c0.214-0.279 0.537-0.5 0.82-0.713m2.225 1.426c-0.309-0.614-0.569-1.269-0.929-1.836-0.318 0.013-0.474 0.269-0.669 0.41-0.159 0.116-0.338 0.188-0.497 0.303-0.291 0.209-0.538 0.512-0.8 0.755 4e-3 0.092 0.018 0.116 0.044 0.173 0.542 0.224 1.147 0.395 1.706 0.584 0.137 0.046 0.232 0.022 0.368 0.064 0.145 0.045 0.33 0.128 0.475 0.173 0.14 0.044 0.29 0.027 0.389 0.108h0.129c0.028-0.044 0.046-0.049 0.065-0.108 0.043-0.113-0.222-0.51-0.281-0.626m1.426-0.13c0.384-0.383 0.793-0.752 1.187-1.123-8e-3 -0.044-5e-3 -0.041-0.021-0.065-0.024-0.069-0.037-0.085-0.108-0.108-0.099-0.07-0.349-0.053-0.454 0-0.277 0.142-0.497 0.383-0.734 0.562-0.105 0.078-0.245 0.157-0.323 0.259-0.394-0.035-0.533-0.939-0.736-1.231-0.13-0.187-0.446-0.12-0.626-0.259-0.124 5e-3 -0.112 0.028-0.173 0.086 0.048 0.286 0.266 0.541 0.389 0.778 0.297 0.569 0.564 1.147 0.886 1.684 0.05 5e-3 0.06 5e-3 0.087 0.022 0.254-0.132 0.429-0.409 0.626-0.605m2.506 0.907c-0.078-0.147-0.109-0.31-0.196-0.453-0.06-0.102-0.161-0.221-0.216-0.324-0.07-0.135-0.071-0.284-0.151-0.411-0.097-0.154-0.221-0.294-0.302-0.475-0.047-0.013-0.057-0.016-0.087-0.043-0.262 0.018-0.316 0.247-0.474 0.367-0.225 0.171-0.429 0.364-0.627 0.562-0.071 0.079-0.144 0.158-0.216 0.237-0.18 0.137-0.483 0.378-0.604 0.562-0.016 0.03-7e-3 0.027 0.021 0.065 0.031 0.223 0.457 0.178 0.67 0.237 0.268 0.076 0.634 0.159 0.907 0.238 0.261 0.076 0.561 0.063 0.799 0.129 0.232 0.065 0.535 0.014 0.67 0.109 0.053-0.032 0.085-0.07 0.129-0.109-0.039-0.254-0.217-0.485-0.323-0.691m-2.916-5.313c0.115 0.05 0.23 0.101 0.345 0.151 0.174 0.108 0.33 0.264 0.496 0.389 0.074 0.055 0.111 0.15 0.173 0.216 0.31 0.325 0.615 0.65 0.886 1.015 0.162 0.22 0.308 0.484 0.432 0.734 0.058 0.118 0.074 0.271 0.172 0.346 0.174 0.132 0.575 0.052 0.735 0.173h0.108c0.031-0.032 0.071-0.063 0.108-0.087-0.028-0.603-0.517-1.223-0.799-1.598-0.542-0.722-1.321-1.281-2.073-1.793-0.097-0.066-0.184-0.19-0.282-0.259-0.223-0.157-0.494-0.247-0.69-0.432-0.057 5e-3 -0.074 0.01-0.108 0.022 0.021 0.224 0.356 1.028 0.497 1.123m0.69 1.965c0.127 0.237 0.099 0.512 0.367 0.605 0.188 0.123 0.596 0.061 0.779 0.195 0.075-0.023 0.077-0.049 0.128-0.087-0.012-0.242-0.176-0.384-0.28-0.54-0.299-0.449-0.611-0.909-1.037-1.231-0.203-0.154-0.337-0.51-0.647-0.367-1e-3 0.142-0.055 0.482-0.043 0.54 0.034 0.175 0.221 0.273 0.344 0.367 0.147 0.111 0.302 0.355 0.389 0.518m-1.058 0.821c0.013 0.249 0.169 0.427 0.302 0.562 0.273-0.013 0.368-0.209 0.54-0.324-0.016-0.064-0.04-0.098-0.064-0.151-0.126-0.03-0.615-0.175-0.692-0.13-0.049 0.016-0.047 0.023-0.086 0.043m-2.591-5.939-0.346-0.346c-0.533-0.367-1.106-0.675-1.62-1.058-0.24-0.179-0.406-0.45-0.626-0.648-0.159-0.143-0.327-0.258-0.454-0.432-0.05 7e-3 -0.054 0.01-0.086 0.021-0.016 0.446 0.337 1.016 0.561 1.318 0.058 0.05 0.116 0.101 0.173 0.151 0.388 0.52 0.994 1.099 1.512 1.49 0.147 0.112 0.255 0.283 0.367 0.432 0.101 0.094 0.201 0.187 0.302 0.281 0.198 0.262 0.442 0.511 0.627 0.777 0.135 0.196 0.214 0.404 0.345 0.605 0.27 0.413 0.557 0.859 0.756 1.34 0.165 0.4 0.106 0.977 0.302 1.296 0.317 0.075 0.656 0.174 0.973 0.258 0.188 0.052 0.418 0.033 0.561 0.13h0.195c0.021-0.041 0.029-0.059 0.064-0.086v-0.044c-0.225-0.211-0.411-0.443-0.647-0.647-0.045 8e-3 -0.042 5e-3 -0.066 0.021-0.124 0.043-0.218 0.264-0.28 0.368-0.1-0.02-0.106-0.063-0.173-0.109 0-0.357 0.057-0.69 0.13-0.993 0.019-0.082-0.012-0.21-0.022-0.259-7e-3 -0.152-0.014-0.302-0.022-0.454-0.04-0.149-0.128-0.329-0.173-0.475-0.037-0.121-0.02-0.188-0.064-0.302-0.048-0.126-0.179-0.233-0.238-0.346-0.064-0.125-0.075-0.219-0.151-0.324l-0.173-0.151c-0.527-0.725-1.01-1.28-1.727-1.814m1.533-2.247c-0.285-0.549-0.746-0.984-1.166-1.404-0.307-0.306-0.591-0.633-0.951-0.885-0.696-0.489-1.422-0.914-1.814-1.707h-0.13c-0.059 0.561 0.344 1.065 0.583 1.426 0.149 0.223 0.274 0.437 0.432 0.648 0.191 0.254 0.465 0.45 0.691 0.67 0.042 0.041 0.062 0.115 0.109 0.15 0.554 0.428 1.142 0.858 1.554 1.426 0.23 0.317 0.439 0.766 0.562 1.167 0.078 0.252 0.069 0.535 0.216 0.712 0.213-0.029 0.207-0.279 0.26-0.475 0.182-0.679-0.124-1.299-0.346-1.728m0.475-1.835c-0.045 0.117-0.182 0.362-0.259 0.475-0.08 0.116-0.311 0.22-0.346 0.367-0.026 0.109 0.093 0.164 0.13 0.216 0.114 0.158 0.221 0.34 0.324 0.496 0.044 9e-3 0.041 6e-3 0.064 0.022 0.301-0.026 0.509-0.335 0.692-0.497 0.118-0.105 0.274-0.196 0.367-0.324 0.414-0.567 0.708-1.647 0.259-2.376-0.177-0.286-0.556-0.607-0.886-0.734-0.22-0.084-0.541-0.049-0.734-0.173-0.192-9e-3 -0.251 0.02-0.281 0.173 0.439 0.424 0.994 1.496 0.67 2.355m-3.586-3.953h-0.151c-0.155 0.757 0.249 1.789 0.562 2.311 0.143 0.239 0.235 0.489 0.454 0.648 0.398 0.29 0.936 0.587 1.23 0.972h0.087c0.013-0.423-0.557-0.882-0.777-1.188-0.573-0.796-1.177-1.606-1.405-2.743m-0.431 1.533c7e-3 7e-3 0.014 0.015 0.021 0.022 0.018-0.022 8e-3 -5e-3 0.022-0.043 0 0-0.085 5e-3 -0.043 0.021m-0.152-1.49c0.08-0.301 0.181-0.601 0.346-0.821 0.086-0.115 0.284-0.144 0.367-0.259 0.033-0.045 0.03-0.092 0.065-0.13-0.03-0.086-0.069-0.079-0.13-0.129-0.447 0.069-0.918 1.109-0.82 1.598-7e-3 0.115-0.015 0.231-0.022 0.346 0.038 0.189 0.071 0.431 0.151 0.604 0.035 0.077 0.101 0.097 0.129 0.195 0.099-0.117 9e-3 -0.32-0.021-0.432-0.065-0.237-0.136-0.699-0.065-0.972m-0.388-0.994h0.064c0.183-0.19 0.377-0.42 0.605-0.561 0.136-0.085 0.3-0.104 0.432-0.195 0.061-0.041 0.092-0.128 0.152-0.172 1e-3 -0.083 8e-3 -0.147 0.043-0.195-7e-3 -0.125-0.038-0.122-0.087-0.194-0.381 0.052-0.823 0.495-1.015 0.756-0.088 0.119-0.144 0.277-0.26 0.367 9e-3 0.099 0.034 0.126 0.066 0.194m-0.152 0.454c-0.033-0.052-0.034-0.051-0.086-0.022-0.081 8e-3 -0.081 0.017-0.129 0.043 2e-3 0.062 8e-3 0.093 0.021 0.13 0.089-6e-3 0.127-0.02 0.173-0.065 0.029-0.038 0.024-0.067 0.021-0.086m-0.021 3.37c5e-3 0.4 0.149 0.701 0.259 0.993 0.308 0.82 0.824 1.544 1.468 2.03 0.058 0.065 0.116 0.13 0.173 0.195 0.277 0.207 0.66 0.507 0.865 0.777 0.14 0.188 0.316 0.404 0.41 0.627 0.06 0.144 0.052 0.307 0.13 0.432 0.115 0.186 0.348 0.315 0.496 0.475 0.045-9e-3 0.042-6e-3 0.065-0.022 0.138-0.054 0.155-0.307 0.108-0.475-0.105-0.372-0.247-0.696-0.389-1.015-0.045-0.102-0.033-0.173-0.086-0.259-0.445-0.731-1.185-1.264-1.857-1.772-0.11-0.082-0.198-0.213-0.282-0.323-0.079-0.073-0.158-0.144-0.237-0.216-0.357-0.476-0.712-0.94-1.016-1.469-0.055 4e-3 -0.073 9e-3 -0.107 0.022m-0.41 0.042c-0.064 0-0.118 0-0.152 0.022-0.074 0.105-0.041 0.274-0.065 0.432-0.063 0.415 0.056 0.934 0.217 1.253 0.373 0.74 1.099 1.474 1.77 1.922 0.331 0.221 0.671 0.433 0.994 0.648 0.083 0.056 0.169 0.063 0.238 0.13 0.037-0.014 0.021-5e-3 0.043-0.022 8e-3 -7e-3 0.014-0.014 0.021-0.021h-0.021c-0.032-0.111-0.095-0.12-0.152-0.195-0.235-0.314-0.571-0.609-0.884-0.842-0.115-0.084-0.255-0.154-0.346-0.259-0.776-0.892-1.356-1.689-1.663-3.068m-0.217-1.382c0.128-0.091 0.171-0.278 0.303-0.367-0.01-0.097-0.029-0.092-0.065-0.151-0.356 0.013-0.602 0.289-0.821 0.454-0.1 0.075-0.274 0.16-0.323 0.28-0.018 0.014-6e-3 1e-3 0 0.022v0.043c0.05 5e-3 0.06 4e-3 0.086 0.022 0.197-0.019 0.677-0.201 0.82-0.303m2.916 11.642c-0.052-0.185-0.366-0.219-0.54-0.281-0.036 0.036-0.071 0.072-0.107 0.108 0.028 0.203 0.139 0.344 0.237 0.476h0.13c0.081-0.104 0.232-0.146 0.28-0.281 0.018-0.014 6e-3 -1e-3 0-0.022m0.973-1.145c0.102 0.339-7e-3 0.691 0.15 0.951 0.123 0.036 0.245 0.072 0.367 0.108 0.129-1e-3 0.147-0.021 0.217-0.065 0.114-0.716-0.36-1.382-0.627-1.815-0.097-0.156-0.141-0.321-0.237-0.475-0.312-0.49-0.69-0.946-1.037-1.403-0.094-0.08-0.187-0.159-0.281-0.238-0.343-0.343-0.723-0.666-1.037-1.037-0.03-0.036-0.092-0.056-0.13-0.086-0.136-0.115-0.257-0.267-0.367-0.41-0.079-0.073-0.158-0.145-0.237-0.217-0.117-0.155-0.188-0.332-0.303-0.496-0.097-0.141-0.245-0.271-0.28-0.475-0.044 8e-3 -0.042 5e-3 -0.065 0.021-0.022 7e-3 -0.044 0.015-0.065 0.022 0.011 0.584 0.466 1.345 0.734 1.706 0.087 0.079 0.173 0.158 0.26 0.237 0.701 0.935 1.647 1.646 2.332 2.593 0.229 0.314 0.483 0.677 0.606 1.079m-0.908-0.799c-0.288-0.389-0.617-0.721-0.907-1.101-0.108-0.094-0.216-0.188-0.324-0.281-0.297-0.297-0.609-0.614-0.864-0.951-0.079-0.071-0.158-0.144-0.238-0.215-0.102-0.103-0.17-0.228-0.258-0.346-0.04-0.052-0.112-0.077-0.152-0.13h-0.044c-0.016 0.41 0.409 1.009 0.606 1.318 0.245 0.386 0.468 0.744 0.734 1.101 0.258 0.346 0.609 0.638 0.863 0.994 0.214 0.297 0.328 0.698 0.519 1.015 0.157 0.041 0.412 0.084 0.54 0.173 0.06 0 0.1-1e-3 0.13-0.021l0.064-0.022c0.111-0.607-0.416-1.191-0.669-1.534m-3.283-2.505c8e-3 1.208 0.595 1.845 1.102 2.548 0.161 0.225 0.36 0.41 0.518 0.627 0.055 0.075 0.077 0.161 0.151 0.216 0.184 0.137 0.593 0.177 0.734 0.302h0.109c0.021-0.022 0.042-0.043 0.064-0.065-0.043-0.414-0.685-0.91-0.907-1.209-0.236-0.316-0.458-0.606-0.691-0.929-0.065-0.065-0.13-0.13-0.194-0.195-0.288-0.418-0.483-0.912-0.734-1.36-0.098 0.01-0.093 0.028-0.152 0.065m-1.814 1.468c0.057 0.204-1e-3 0.368 0.064 0.54 0.11 0.287 0.435 0.208 0.606 0.389 0.066 1e-3 0.135 3e-3 0.173-0.021 0.021-7e-3 0.043-0.015 0.064-0.022-8e-3 -0.251-0.095-0.529-0.151-0.777v-0.389c-0.085-0.42 0.125-1.499 0.281-1.771 0.089-0.157 0.241-0.272 0.345-0.411 0.126-0.167 0.261-0.468 0.087-0.712-0.017-0.121-0.072-0.103-0.13-0.173-0.35 0.05-0.548 0.4-0.713 0.648-0.254 0.38-0.492 0.869-0.626 1.36-7e-3 0.231-0.015 0.461-0.022 0.691-0.04 0.184-0.021 0.496 0.022 0.648m0.583 1.318c-0.062 3e-3 -0.092 8e-3 -0.13 0.022-0.049 0.261 0.14 0.522 0.281 0.669h0.065c0.096-0.103 0.243-0.209 0.367-0.281-6e-3 -0.337-0.398-0.256-0.583-0.41m0.431-0.475c0.012 0.06 4e-3 0.061 0.023 0.086 0.074 0.177 0.271 0.185 0.453 0.259 0.229 0.095 0.83 0.271 0.993 0.411h0.195c0.014-0.015 0.029-0.029 0.043-0.044-0.03-0.171-0.156-0.211-0.238-0.323-0.187-0.259-0.324-0.523-0.496-0.8-0.042-0.066-0.119-0.14-0.151-0.215-0.128-0.295-0.252-0.603-0.346-0.908-0.06-0.192 0.012-0.482-0.086-0.648-0.03-0.07-0.061-0.062-0.13-0.086-0.194 0.422-0.087 0.969-0.194 1.447-0.032 0.143-0.012 0.436 0.043 0.518 0.01 0.165 0.023 0.269-0.109 0.303m-1.079 1.987c0.107 0.238 0.123 0.493 0.281 0.669 0.271-0.021 0.447-0.262 0.627-0.388 0.267-0.188 0.539-0.328 0.798-0.518 0.195-0.143 0.409-0.395 0.648-0.476 5e-3 -0.28-0.387-0.328-0.626-0.302-0.257 0.267-0.694 0.456-0.993 0.691-0.326-0.055-0.504-0.746-0.606-1.058-7e-3 -0.065-0.013-0.13-0.021-0.195-0.106-0.239-0.477-0.302-0.756-0.367-0.029 0.027-0.038 0.031-0.086 0.043-0.047 0.263 0.158 0.546 0.259 0.756 0.051 0.151 0.1 0.303 0.151 0.454 0.095 0.223 0.225 0.468 0.324 0.691m1.339 5.486c-0.309-0.58-0.551-1.224-0.734-1.944-0.054-0.211-0.033-0.757 0-0.907v-0.41c0.034-0.14 0.095-0.54 0.064-0.626-0.081-0.3-0.485-0.257-0.69-0.433-0.109 0.011-0.125 0.045-0.195 0.087-1e-3 0.336-0.065 0.739 0 1.036v0.346c0.054 0.228 0.093 0.512 0.151 0.735v0.15c0.223 0.696 0.498 1.327 0.886 1.858 0.07 0.097 0.191 0.158 0.281 0.238 0.106 0.095 0.149 0.228 0.237 0.345 0.058 0.043 0.115 0.087 0.173 0.13h0.107v-0.043c0.035-0.04-0.234-0.476-0.28-0.562m0.41-15.465c-0.243 0.022-0.415 0.234-0.583 0.346-0.514 0.342-0.98 0.669-1.231 1.274-0.079 0.192-0.276 0.509-0.194 0.778h0.108c0.274-0.476 0.558-0.92 0.993-1.232 0.188-0.134 0.869-0.405 0.929-0.583 0.097-0.146 0.037-0.494-0.022-0.583m0 1.145c-0.072-0.042-0.451 0.19-0.54 0.238-0.424 0.226-0.71 0.644-0.971 1.036-0.099 0.148-0.325 0.351-0.238 0.605 0.172-0.019 0.252-0.141 0.368-0.216 0.251-0.163 0.557-0.297 0.841-0.41 0.2-0.08 0.411-0.05 0.519-0.216l0.064-0.238c0.045-0.101 0.246-0.266 0.13-0.453 0.01-0.21-0.013-0.308-0.173-0.346m3.392-4.73c-0.013-0.199-0.099-0.355-0.151-0.519-0.062-0.191-0.08-0.427-0.13-0.604-0.037-0.13-0.013-0.258-0.087-0.346-6e-3 -7e-3 -0.074 7e-3 -0.129 0-0.208 0.625 0.131 1.164 0.367 1.49h0.107c8e-3 -7e-3 0.015-0.014 0.023-0.021m-0.346 0.454c-0.114-0.155-0.209-0.368-0.367-0.476-0.022-0.017-6e-3 -8e-3 -0.044-0.022-0.019 0.02-0.037 0.03-0.064 0.044-0.054 1.541 1.186 2.729 1.836 3.693 0.147 0.22 0.301 0.447 0.431 0.67 0.091 0.154 0.116 0.322 0.217 0.453h0.086c0.088-0.131 0.203-0.217 0.259-0.388 0.19-0.575 0.013-1.122-0.238-1.534-0.333-0.547-0.787-0.946-1.166-1.447-0.144-0.137-0.288-0.274-0.432-0.41-0.158-0.21-0.363-0.373-0.518-0.583m8.25 15.097c-0.013-0.079-0.035-0.092-0.064-0.151-0.14-0.035-0.579-0.081-0.648-0.13-0.079 0.015-0.092 0.036-0.151 0.065-0.014 0.037-4e-3 0.021-0.022 0.043 0.034 0.205 0.203 0.41 0.324 0.54h0.108c0.118-0.128 0.294-0.287 0.453-0.367m-0.604 0.907c-0.29-0.026-0.324-0.265-0.432-0.475-0.099-0.193-0.272-0.714-0.433-0.82-0.082-0.056-0.168-0.033-0.28-0.065-0.099-0.03-0.309-0.139-0.431-0.065-0.039 0.014-0.022 4e-3 -0.044 0.021-0.015 0.017-0.029 0.048-0.043 0.065 0.104 0.291 0.362 0.568 0.518 0.821 0.085 0.138 0.11 0.293 0.195 0.432 0.109 0.178 0.26 0.389 0.345 0.583 0.107 0.245 0.185 0.464 0.346 0.648h0.086c0.503-0.538 1.015-1.056 1.534-1.577 0.108-0.122 0.216-0.245 0.323-0.367-5e-3 -0.05-4e-3 -0.061-0.021-0.086-7e-3 -0.022-0.015-0.043-0.022-0.065-0.596 2e-3 -0.68 0.293-1.014 0.54-0.206 0.152-0.418 0.259-0.627 0.41m-10.454 8.251c0.024 0.059 0.114 0.117 0.151 0.173 0.05-5e-3 0.062-5e-3 0.087-0.022 0.05-0.016 0.048-0.022 0.086-0.043 0.021-0.158 0.043-0.317 0.064-0.475 0.043-0.128 0.121-0.207 0.152-0.367-0.108-0.132-0.151-0.346-0.281-0.454-7e-3 -7e-3 -0.014-0.014-0.021-0.022v0.022c-0.055 2e-3 -0.08 3e-3 -0.108 0.022-0.112 0.155-0.036 0.487-0.13 0.648zm0.454 0.669v-0.021c-8e-3 -7e-3 -0.015-0.014-0.022-0.022-0.059 0.016-0.035-0.013-0.044 0.043zm3.132 1.275c0.014 0.115 0.028 0.23 0.043 0.345 0.155 0.481 0.152 1.101 0.281 1.642 0.024 0.103 0.018 0.589 0 0.627-0.044 0.043-0.087 0.086-0.13 0.129-0.391-0.012-0.506-0.401-0.734-0.583-0.472-0.375-0.964-0.807-1.318-1.296-0.153-0.211-0.235-0.452-0.389-0.67-0.085-0.121-0.288-0.152-0.411-0.237-0.272-0.19-0.538-0.488-0.734-0.756-0.164-0.225-0.289-0.468-0.453-0.691-0.261-0.355-0.588-0.669-0.799-1.081-0.115-0.223-0.134-0.675-0.26-0.863-0.06-0.092-0.174-0.169-0.237-0.26-0.135-0.191-0.254-0.448-0.346-0.669-0.066-0.16-0.125-0.325-0.173-0.475-0.065-0.208-0.013-0.438-0.086-0.627-0.047-0.122-0.16-0.232-0.215-0.345-0.147-0.293-0.204-0.68-0.282-1.015-0.049-0.213-0.033-1.014 0.022-1.188 0.048-0.152 0.143-0.206 0.151-0.433-0.257-0.242-0.415-0.644-0.561-0.993-0.342 3e-3 -0.333 0.574-0.433 0.843-0.209 0.566-0.298 1.301-0.453 1.922-0.077 0.308-0.022 0.613-0.13 0.885-0.046 0.118-0.192 0.184-0.259 0.281-0.049 0.074-0.052 0.173-0.108 0.238 0.02 0.177 0.124 0.326 0.281 0.367 0.032 0.014 9e-3 0.027 0.043 0 0.184-0.023 0.211-0.153 0.324-0.237 0.237-0.177 0.507-0.308 0.735-0.497 0.068 0.012 0.062 0.019 0.107 0.043-0.021 0.208-0.191 0.269-0.323 0.367-0.161 0.119-0.312 0.264-0.476 0.389-0.064 0.072-0.13 0.144-0.194 0.216-0.047 0.031-0.091 0.029-0.13 0.065-0.459-0.037-0.69-0.66-0.972-0.908v-0.043h-0.021c0.072 0.526 0.584 1.205 0.886 1.534 0.202-0.028 0.221-0.145 0.345-0.238 0.294-0.221 0.824-0.587 0.972-0.928 0.035-0.081 0.072-0.204 0.086-0.282 0.02-0.104-0.056-0.096-0.021-0.172 0.014-0.142 0.073-0.106 0.151-0.173 0.09 4e-3 0.099 0.015 0.151 0.043 7e-3 0.633-0.167 1.226-0.41 1.685-0.046 0.085-0.136 0.178-0.173 0.28-0.021 0.123-0.044 0.246-0.065 0.368-0.092 0.282-0.209 0.607-0.302 0.885-0.021 0.123-0.044 0.246-0.065 0.368-0.098 0.311-0.442 0.991-0.735 1.08-0.021 0.017-5e-3 7e-3 -0.043 0.021-0.243-0.254-0.306-0.661-0.453-1.015-0.247-0.597-0.506-1.2-0.67-1.879-7e-3 -0.295-0.014-0.591-0.021-0.886 9e-3 -0.038 0.039-0.144 0.021-0.215-0.064-0.173-0.13-0.346-0.194-0.519-0.082-0.268-0.125-0.522-0.194-0.778-0.083-0.309 7e-3 -0.738 0.064-0.972 8e-3 -0.223 0.015-0.446 0.021-0.669 0-0.509-0.125-1.05 0.022-1.555 0.035-0.118 0.091-0.299 0.151-0.411 0.034-0.06 0.125-0.133 0.152-0.194 0.021-0.216 0.043-0.432 0.065-0.648 0.288-0.733 0.744-1.47 1.296-1.944 0.174 0.022 0.289 0.115 0.323 0.281 0.045-9e-3 0.042-6e-3 0.066-0.022 0.081-7e-3 0.08-0.016 0.129-0.043 7e-3 -0.05 0.01-0.053 0.021-0.087-0.504-0.219-0.296-0.714-0.194-1.209-0.031-0.03-0.063-0.07-0.086-0.108-0.194 0.022-0.317 0.151-0.476 0.216-0.162 0.067-0.3 0.034-0.496 0.087-0.372 0.099-0.598 0.066-0.886-0.087-0.013-0.037-3e-3 -0.021-0.021-0.043 0.018-0.166 0.179-0.219 0.389-0.173 0.545 0.122 1.037-0.199 1.381-0.367-2e-3 -0.055-2e-3 -0.08-0.021-0.108-0.154-0.119-0.347 0.026-0.583-0.043-0.108-0.032-0.289-0.059-0.41-0.108-0.436-0.179-0.813-0.474-1.059-0.843-0.067-0.1-0.077-0.232-0.151-0.323-5e-3 -0.2 0.018-0.233 0.108-0.325 0.044 9e-3 0.042 6e-3 0.065 0.022 0.144 0.057 0.352 0.449 0.454 0.583 0.22 0.294 0.597 0.509 1.014 0.605 0.194 0.044 0.438-0.013 0.605-0.022 8e-3 -7e-3 0.015-0.014 0.022-0.021-8e-3 -0.267-0.278-0.231-0.454-0.324-0.255-0.136-0.51-0.386-0.583-0.713 0.036-0.043 0.073-0.086 0.109-0.13 0.18 9e-3 0.442 0.25 0.517 0.368 0.062-3e-3 0.093-9e-3 0.13-0.022-0.053-0.2-0.182-0.306-0.28-0.454-0.164-0.244-0.318-0.496-0.476-0.734-0.355-0.537-0.706-1.141-0.971-1.749l-0.173-0.519c-0.045-0.103-0.132-0.233-0.173-0.345-0.095-0.258-0.079-0.52-0.151-0.778-0.037-0.129-0.085-0.438-0.043-0.54 0.071-0.178 0.294-0.231 0.41-0.367 0.074-5e-3 0.093-0.018 0.13 0 0.227 0.024 0.207 0.253 0.28 0.432 0.148 0.36 0.288 0.721 0.454 1.08 0.034 0.075 0.118 0.118 0.151 0.194h0.065c-0.01-0.852-0.377-2.168 0.043-2.894 0.106-0.184 0.286-0.153 0.454-0.259 0.117-6e-3 0.153-0.017 0.173 0.086h0.021c0.037-0.072 0.078-0.097 0.129-0.151 0.109 0.021 0.124 0.077 0.216 0.108 0.017 1.073-0.077 2.37 0.173 3.305 0.087 0.322 0.064 0.607 0.194 0.863 0.203-0.011 0.14-0.109 0.217-0.237 0.173-0.288 0.353-0.567 0.561-0.821-0.012-0.292-0.247-0.483-0.345-0.713-0.095-0.218-0.119-0.488-0.173-0.734-0.044-0.202 0.106-0.78 0.151-0.929 0.16-0.529 0.302-0.961 0.605-1.339 0.09-0.112 0.226-0.173 0.345-0.259 0.186-0.136 0.369-0.321 0.519-0.497-0.018-0.306-0.221-0.67-0.13-1.058 0.168-0.717 0.549-1.223 1.08-1.577 0.199-0.133 0.773-0.208 0.886-0.389 0.097-0.156-0.22-0.589-0.13-0.929 0.21-0.796 0.738-0.935 1.339-1.317 0.049-0.232-0.064-0.539 0.021-0.799 0.174-0.529 0.658-0.955 1.146-1.166 0.157-0.069 0.466-0.066 0.604-0.152 0.189-0.022 0.322-0.205 0.368-0.367 0.036-0.128-0.014-0.247 0.043-0.345 0.157-0.273 0.533-0.373 0.755-0.583-0.016-0.175-0.088-0.338-0.128-0.519v-0.367c0-0.519 0.072-0.805 0.237-1.123 0.107-0.208 0.172-0.437 0.302-0.627 0.333-0.483 0.978-0.859 1.577-1.079 0.411-0.152 0.935-0.105 1.425-0.13 0.089-5e-3 0.243-0.084 0.325-0.108 0.158-0.048 0.289-0.028 0.431-0.087 0.498-0.205 0.802-0.631 0.972-1.166 0.051-0.013 0.067-0.025 0.108-0.043 0.595 0.795 0.527 2.128-0.021 2.937-0.131 0.193-0.516 0.381-0.606 0.541-0.086 0.155-0.07 0.585-0.151 0.777-0.242 0.574-1.127 1.59-1.684 1.836-0.238 0.105-0.48 0.205-0.712 0.302-0.098 0.041-0.191 0.035-0.282 0.086-0.087 0.05-0.417 0.583-0.454 0.692-0.053 0.161-0.038 0.262-0.107 0.389-0.11 0.202-0.481 0.439-0.26 0.777 0.012 0.11 0.033 0.095 0.087 0.151 0.337-0.057 0.444-0.673 0.82-0.799 0.023-0.017 6e-3 -8e-3 0.044-0.022 0.05 0.037 0.101 0.073 0.152 0.108 0.096 0.431 0.235 0.824 0.41 1.167 0.054 0.107 0.129 0.353 0.323 0.238 0.224-0.084 0.158-0.304 0.238-0.54 0.023-0.067 0.108-0.149 0.129-0.217-7e-3 -0.237-0.013-0.475-0.021-0.712 0.043-0.173 0.1-0.369 0.173-0.54 0.115-0.272 0.359-0.588 0.583-0.756 0.092-0.07 0.214-0.123 0.281-0.216 0.097-0.138 0.12-0.321 0.216-0.454 0.34-0.469 0.983-0.767 1.641-0.929 0.28-0.068 0.534 0.041 0.799 0.044 0.181-0.19 0.398-0.334 0.476-0.627 0.05-0.19-0.092-0.375-0.022-0.496 0.028-0.056 0.023-0.047 0.086-0.065 8e-3 -7e-3 0.015-0.015 0.022-0.022v0.022c0.312 0.113 0.152 0.557 0.259 0.885 0.089 0.274 0.243 0.563 0.325 0.864 0.208 0.773-0.272 2.098-0.627 2.441 6e-3 0.223 0.091 0.272 0.13 0.432 0.038 0.162-0.067 0.408-0.109 0.518-0.203 0.539-0.544 0.875-0.972 1.188-0.223 0.164-0.393 0.282-0.798 0.281-0.078 0-0.171 7e-3 -0.216-0.022-0.1 4e-3 -0.126 0.015-0.173 0.065-0.039 0.047-0.045 0.105-0.044 0.195 0.311 0.304 0.752 0.491 1.016 0.842 0.155 0.207 0.238 0.593 0.497 0.691 0.232 0.089 0.502 7e-3 0.756 0.065 0.416 0.095 1.144 0.256 1.36 0.54 0.131 0.172 0.468 0.651 0.389 0.993-0.04 0.174-0.283 0.796-0.216 0.908v0.237c0.112 0.259 0.834 0.485 0.497 1.058-0.032 0.056-0.105 0.147-0.152 0.195 0.016 0.27 0.236 0.338 0.346 0.518 0.127 0.208 0.241 0.632 0.086 0.864-0.08 0.121-0.245 0.139-0.346 0.238-0.04 0.04-0.038 0.094-0.086 0.129 0.027 0.585 0.434 0.819 0.799 1.059 0.126 0.082 0.282 0.119 0.367 0.237 0.09 0.125 0.165 0.46 0.087 0.67-0.138 0.373-0.455 0.614-0.67 0.907-0.122 0.167-0.229 0.415-0.367 0.562 0.025 0.196 0.177 0.297 0.303 0.389-7e-3 0.125-0.038 0.122-0.087 0.194h-0.346c-0.163 0.073-0.235 0.538-0.172 0.821 0.079 0.354 0.175 1.041 0.086 1.447v0.454c-0.088 0.337-0.152 0.725-0.281 1.036-0.087 0.212-0.255 0.431-0.323 0.648-0.052 0.163 0.061 0.261 0.086 0.346v0.539c-0.155 0.666-0.269 1.375-0.54 1.923-0.091 0.184-0.139 0.391-0.302 0.497-0.134 0.086-0.392 0.039-0.518 0.129-0.082 0.059-0.113 0.156-0.173 0.238-0.123 0.115-0.245 0.231-0.367 0.345-0.058 0.08-0.073 0.18-0.13 0.26-0.104 0.141-0.271 0.126-0.432 0.216-0.18 0.099-0.3 0.353-0.497 0.475-0.187 0.115-0.403 0.128-0.626 0.216-0.291 0.114-0.568 0.363-0.864 0.475-0.079 0.015-0.159 0.029-0.238 0.043-0.345 0.126-0.756 0.263-1.123 0.367-0.258 0.074-0.487 0.045-0.734 0.13-0.127 0.043-0.226 0.176-0.346 0.216-0.259 0.087-0.498-0.079-0.756-0.022-0.516 0.114-1.264 0.163-1.814 0.044-0.158-0.015-0.317-0.029-0.476-0.044-0.236-0.065-0.586-0.086-0.798-0.151-0.099-0.03-0.24-0.092-0.325-0.043-0.021 7e-3 -0.043 0.015-0.064 0.021-0.028 0.194 0.126 0.372 0.216 0.519 0.205 0.337 0.424 0.7 0.561 1.08 0.07 0.191 3e-3 0.407 0.065 0.626 0.083 0.292 0.262 0.591 0.367 0.864 0.098 0.256 0.133 0.534 0.194 0.8 0.076 0.326-0.106 0.707-0.043 0.971 0.042 0.176 0.101 0.394 0.152 0.562" fill="#231f20" fill-rule="evenodd"/></g><g transform="translate(212.66 178.26)"><path d="m0 0c0.23-0.097 0.496-0.156 0.583-0.389 0.015-0.018 0.029-0.068 0.043-0.086 2e-3 -0.261-0.098-0.278-0.237-0.389-0.206 0.019-0.372 0.097-0.54 0.151-0.32 0.104-0.667 0.159-0.951 0.259-0.343 0.121-0.739 0.114-1.015 0.303-0.066 0.045-0.095 0.139-0.151 0.194 0.04 0.257 0.168 0.501 0.302 0.67 0.262-8e-3 0.378-0.14 0.562-0.216 0.057-8e-3 0.115-0.015 0.173-0.022 0.11-0.043 0.242-0.134 0.345-0.173 0.122-0.021 0.245-0.043 0.367-0.065 0.173-0.057 0.357-0.169 0.519-0.237m-1.037 0.777c-0.296 0.122-0.563 0.377-0.972 0.368-0.088-0.061-0.196-0.07-0.28-0.13-0.231-0.162-0.381-0.847-0.367-1.209 0.645-0.63 1.818-0.645 2.72-1.015 0.326-0.134 0.725-0.046 0.843 0.215 0.493 1.093-0.867 1.436-1.533 1.685-0.138 0.029-0.274 0.058-0.411 0.086" fill="#231f20" fill-rule="evenodd"/></g><g transform="translate(215.19 178.04)"><path d="m0 0c7e-3 7e-3 0.014 0.015 0.021 0.022h-0.021c-0.023 0.069-0.038 0.085-0.108 0.108-0.042 0.029-0.141 0.024-0.216 0.021-0.077-0.066-0.144-0.127-0.216-0.194 0.019-0.099 0.062-0.106 0.107-0.173 0.188 0.021 0.36 0.078 0.433 0.216" fill="#231f20" fill-rule="evenodd"/></g><g transform="translate(212.34 175.49)"><path d="m0 0c-0.531 6e-3 -1.263 0.193-1.685 0.345-0.129 0.029-0.258 0.058-0.388 0.087-0.066 0.037-0.099 0.141-0.152 0.194 0.012 0.155 0.051 0.395 0.13 0.497 0.042 0.062 0.099 0.08 0.152 0.129 0.2-0.053 0.393-0.157 0.583-0.215 0.1-8e-3 0.201-0.015 0.301-0.022 0.449-0.134 1.017-0.27 1.297-0.583-0.029-0.24-0.137-0.283-0.238-0.432m0.043 1.015c-0.272 0.14-0.586 0.281-0.907 0.367-0.129 0.014-0.259 0.029-0.389 0.043-0.305 0.094-0.538 0.271-0.95 0.26-0.057-0.054-0.151-0.087-0.194-0.152-0.155-0.226-0.248-0.696-0.238-1.079 0.062-0.066 0.1-0.164 0.173-0.217 0.442-0.32 1.282-0.42 1.9-0.561 0.164-0.037 0.749-0.074 0.843 0 0.151 0.05 0.486 0.595 0.302 0.864 1e-3 0.348-0.311 0.357-0.54 0.475" fill="#231f20" fill-rule="evenodd"/></g></g></g></svg>
