<?xml version="1.0" encoding="iso-8859-1"?>
<!-- Generator: Adobe Illustrator 19.0.0, SVG Export Plug-In . SVG Version: 6.00 Build 0)  -->
<svg version="1.1" id="Capa_1" xmlns="http://www.w3.org/2000/svg" xmlns:xlink="http://www.w3.org/1999/xlink" x="0px" y="0px"
	 viewBox="0 0 512 512" style="enable-background:new 0 0 512 512;" xml:space="preserve">
<g>
	<path style="fill:#29485A;" d="M218.566,354.67l-17.425,41.182l-15.718-6.651l17.425-41.182L218.566,354.67z"/>
	<path style="fill:#29485A;" d="M308.543,141.979l-15.683,37.064l-15.718-6.651l15.683-37.064L308.543,141.979z"/>
	<path style="fill:#29485A;" d="M510.6,13.282l-90.38,135.579l-14.201-9.467l90.38-135.579L510.6,13.282z"/>
	<path style="fill:#29485A;" d="M384.92,145.426l-7.062,15.537l-54.094-24.587l7.062-15.537L384.92,145.426z"/>
	<path style="fill:#29485A;" d="M80.314,388.046L16.056,507.553L1.024,499.47l64.258-119.507L80.314,388.046z"/>
	<path style="fill:#29485A;" d="M174.045,396.89l-6.719,15.678l-76.391-32.739l6.719-15.678L174.045,396.89z"/>
</g>
<g>
	<path style="fill:#ED1C24;" d="M70.613,391.68c-13.193-3.558-21.009-17.143-17.442-30.336
		c3.558-13.193,17.143-21.009,30.336-17.442s21.009,17.143,17.442,30.336c-2.935,10.889-12.868,18.415-24.149,18.295
		C74.709,392.499,72.636,392.218,70.613,391.68L70.613,391.68z"/>
	<path style="fill:#ED1C24;" d="M196.267,385.57c12.86,4.804,19.396,19.123,14.592,31.983c-4.804,12.86-19.123,19.396-31.983,14.592
		c-12.86-4.804-19.396-19.123-14.592-31.983c3.652-9.779,13.013-16.23,23.45-16.162C190.643,384.034,193.536,384.563,196.267,385.57
		L196.267,385.57z"/>
	<path style="fill:#ED1C24;" d="M298.667,143.497c2.731,1.015,5.623,1.545,8.533,1.57c14.353,0.205,26.146-11.264,26.351-25.609
		c0.205-14.353-11.264-26.146-25.609-26.351c-14.345-0.205-26.146,11.264-26.351,25.609
		C281.429,129.766,288.282,139.708,298.667,143.497z"/>
	<path style="fill:#ED1C24;" d="M413.995,140.151c-12.186-7.1-27.81-2.987-34.918,9.199c-7.1,12.186-2.987,27.81,9.199,34.918
		c12.186,7.1,27.81,2.987,34.918-9.199c2.287-3.925,3.49-8.397,3.473-12.937C426.675,153.071,421.845,144.683,413.995,140.151
		L413.995,140.151z"/>
</g>
<g>
	<path style="fill:#29485A;" d="M375.467,426.667H512v17.067H375.467V426.667z"/>
	<path style="fill:#29485A;" d="M375.467,392.533H512V409.6H375.467V392.533z"/>
	<path style="fill:#29485A;" d="M0,34.133h136.533V51.2H0V34.133z"/>
	<path style="fill:#29485A;" d="M0,0h136.533v17.067H0V0z"/>
	<path style="fill:#29485A;" d="M375.467,460.8H512v17.067H375.467V460.8z"/>
	<path style="fill:#29485A;" d="M375.467,494.933H512V512H375.467V494.933z"/>
</g>
<path style="fill:#E6E6E6;" d="M51.2,264.533l22.921-21.965c101.666-97.459,262.093-97.459,363.759,0l22.921,21.965l-15.172,15.804
	c-100.506,104.73-266.889,108.151-371.618,7.637c-2.603-2.492-5.146-5.043-7.637-7.637L51.2,264.533z"/>
<circle style="fill:#26A6D1;" cx="256" cy="256" r="85.333"/>
<path style="fill:#2296BD;" d="M179.2,247.467c-0.009-20.54,7.424-40.388,20.932-55.868c-35.61,30.805-39.509,84.659-8.695,120.269
	s84.659,39.509,120.269,8.695c3.106-2.688,6.016-5.598,8.695-8.695c-35.524,30.899-89.37,27.162-120.269-8.363
	C186.615,287.966,179.183,268.058,179.2,247.467L179.2,247.467z"/>
<circle style="fill:#324D5B;" cx="256" cy="256" r="42.667"/>
<circle style="fill:#F2F2F2;" cx="290.133" cy="221.867" r="25.6"/>
<g>
</g>
<g>
</g>
<g>
</g>
<g>
</g>
<g>
</g>
<g>
</g>
<g>
</g>
<g>
</g>
<g>
</g>
<g>
</g>
<g>
</g>
<g>
</g>
<g>
</g>
<g>
</g>
<g>
</g>
</svg>
