<svg height="512pt" viewBox="0 0 512 512.0011" width="512pt" xmlns="http://www.w3.org/2000/svg" xmlns:xlink="http://www.w3.org/1999/xlink"><linearGradient id="a"><stop offset="0" stop-color="#662d91"/><stop offset=".437" stop-color="#3873b3"/><stop offset="1" stop-color="#00c9dd"/></linearGradient><linearGradient id="b" gradientTransform="matrix(1.099725 0 0 -1.099725 .00055 504.202951)" gradientUnits="userSpaceOnUse" x1="84.8644" x2="475.6413" xlink:href="#a" y1="468.3419" y2="77.565"/><linearGradient id="c" gradientTransform="matrix(1.099725 0 0 -1.099725 .00055 504.202951)" gradientUnits="userSpaceOnUse" x1="-113.0032" x2="277.7737" xlink:href="#a" y1="270.4742" y2="-120.3026"/><linearGradient id="d" gradientTransform="matrix(1.099725 0 0 -1.099725 .00055 504.202951)" gradientUnits="userSpaceOnUse" x1="49.9466" x2="440.7235" xlink:href="#a" y1="433.4241" y2="42.6472"/><linearGradient id="e" gradientTransform="matrix(1.099725 0 0 -1.099725 .00055 504.202951)" gradientUnits="userSpaceOnUse" x1="-38.5415" x2="352.2354" xlink:href="#a" y1="344.9282" y2="-45.8487"/><linearGradient id="f" gradientTransform="matrix(1.099725 0 0 -1.099725 .00055 504.202951)" gradientUnits="userSpaceOnUse" x1="144.1833" x2="534.9603" xlink:href="#a" y1="527.6608" y2="136.8839"/><linearGradient id="g" gradientTransform="matrix(1.099725 0 0 -1.099725 .00055 504.202951)" gradientUnits="userSpaceOnUse" x1="23.1246" x2="413.9016" xlink:href="#a" y1="406.5944" y2="15.8175"/><linearGradient id="h" gradientTransform="matrix(1.099725 0 0 -1.099725 .00055 504.202951)" gradientUnits="userSpaceOnUse" x1="72.4195" x2="463.1965" xlink:href="#a" y1="455.8971" y2="65.1201"/><linearGradient id="i" gradientTransform="matrix(1.099725 0 0 -1.099725 .00055 504.202951)" gradientUnits="userSpaceOnUse" x1="37.5017" x2="428.2787" xlink:href="#a" y1="420.9792" y2="30.2023"/><linearGradient id="j" gradientTransform="matrix(1.099725 0 0 -1.099725 .00055 504.202951)" gradientUnits="userSpaceOnUse" x1="-125.4481" x2="265.3288" xlink:href="#a" y1="258.0294" y2="-132.7475"/><path d="m179.199219 145.117188v102.347656c0 4.714844 3.820312 8.535156 8.535156 8.535156h136.535156c4.710938 0 8.53125-3.820312 8.53125-8.535156v-102.347656c-.074219-21.257813-15.785156-39.21875-36.847656-42.121094 6.132813-7.570313 9.496094-17.007813 9.539063-26.75v-33.023438c-.027344-23.859375-19.359376-43.1953122-43.21875-43.222656h-12.542969c-23.859375.0273438-43.195313 19.363281-43.222657 43.222656v33.023438c.042969 9.742187 3.410157 19.179687 9.539063 26.75-21.058594 2.902344-36.773437 20.863281-36.847656 42.121094zm136.535156 0v93.816406h-119.46875v-93.816406c.019531-14.160157 11.492187-25.632813 25.652344-25.652344h25.550781v8.535156h17.066406v-8.535156h25.546875c14.160157.019531 25.632813 11.492187 25.652344 25.652344zm-92.160156-101.894532c.019531-14.4375 11.71875-26.136718 26.152343-26.15625h12.546876c14.433593.019532 26.132812 11.71875 26.152343 26.15625v33.023438c-.019531 14.4375-11.71875 26.136718-26.152343 26.152344h-12.546876c-14.433593-.015626-26.132812-11.714844-26.152343-26.152344zm0 0" fill="url(#b)"/><path d="m116.753906 358.996094c6.132813-7.570313 9.496094-17.007813 9.539063-26.75v-33.023438c-.027344-23.859375-19.363281-43.195312-43.21875-43.222656h-12.546875c-23.859375.027344-43.191406 19.363281-43.21875 43.222656v33.023438c.039062 9.742187 3.40625 19.179687 9.539062 26.75-21.0625 2.898437-36.7734372 20.863281-36.847656 42.121094v102.351562c0 4.710938 3.820312 8.53125 8.535156 8.53125h136.53125c4.714844 0 8.535156-3.820312 8.535156-8.53125v-102.351562c-.074218-21.257813-15.785156-39.222657-36.847656-42.121094zm-72.378906-59.773438c.015625-14.4375 11.714844-26.136718 26.152344-26.15625h12.542968c14.4375.019532 26.136719 11.71875 26.15625 26.15625v33.023438c-.019531 14.4375-11.71875 26.132812-26.15625 26.152344h-12.542968c-14.4375-.019532-26.136719-11.714844-26.152344-26.152344zm92.160156 195.710938h-119.46875v-93.816406c.019532-14.15625 11.492188-25.632813 25.652344-25.648438h25.546875v8.53125h17.066406v-8.53125h25.550781c14.160157.015625 25.632813 11.492188 25.652344 25.648438zm0 0" fill="url(#c)"/><path d="m475.152344 358.996094c6.132812-7.570313 9.5-17.007813 9.539062-26.75v-33.023438c-.027344-23.859375-19.359375-43.195312-43.21875-43.222656h-12.542968c-23.859376.027344-43.195313 19.363281-43.222657 43.222656v33.023438c.042969 9.742187 3.40625 19.179687 9.539063 26.75-21.058594 2.902344-36.773438 20.863281-36.847656 42.121094v102.351562c0 4.710938 3.820312 8.53125 8.535156 8.53125h136.53125c4.714844 0 8.535156-3.820312 8.535156-8.53125v-102.351562c-.074219-21.257813-15.785156-39.222657-36.847656-42.121094zm-72.378906-59.773438c.019531-14.4375 11.71875-26.136718 26.15625-26.15625h12.542968c14.4375.019532 26.136719 11.71875 26.152344 26.15625v33.023438c-.015625 14.4375-11.714844 26.132812-26.152344 26.152344h-12.542968c-14.4375-.019532-26.136719-11.714844-26.15625-26.152344zm92.160156 195.710938h-119.464844v-93.816406c.015625-14.15625 11.492188-25.632813 25.648438-25.648438h25.550781v8.53125h17.066406v-8.53125h25.546875c14.160156.015625 25.632812 11.492188 25.652344 25.648438zm0 0" fill="url(#d)"/><path d="m337.449219 415.660156c-51.171875 26.054688-111.726563 26.054688-162.898438 0-4.199219-2.144531-9.34375-.480468-11.488281 3.71875-2.140625 4.199219-.476562 9.339844 3.722656 11.484375 56.054688 28.535157 122.378906 28.535157 178.429688 0 4.199218-2.144531 5.867187-7.285156 3.722656-11.484375-2.144531-4.199218-7.289062-5.863281-11.488281-3.71875zm0 0" fill="url(#e)"/><path d="m321.160156 89.019531c63.101563 24.921875 106.882813 83.140625 113.304688 150.683594.398437 4.394531 4.082031 7.757813 8.492187 7.761719h.777344c4.691406-.421875 8.15625-4.570313 7.730469-9.265625-7.027344-73.984375-54.972656-137.773438-124.089844-165.085938-4.394531-1.714843-9.34375.453125-11.0625 4.847657-1.714844 4.390624.457031 9.34375 4.847656 11.058593zm0 0" fill="url(#f)"/><path d="m68.265625 247.464844h.777344c4.429687.019531 8.136719-3.351563 8.535156-7.761719 6.417969-67.53125 50.175781-125.75 113.261719-150.683594 4.394531-1.714843 6.5625-6.667969 4.847656-11.058593-1.714844-4.394532-6.667969-6.5625-11.058594-4.847657-69.109375 27.308594-117.054687 91.078125-124.09375 165.050781-.441406 4.691407 3.003906 8.855469 7.695313 9.300782zm0 0" fill="url(#g)"/><path d="m247.46875 145.066406h17.066406v68.265625h-17.066406zm0 0" fill="url(#h)"/><path d="m426.667969 401.066406h17.066406v68.265625h-17.066406zm0 0" fill="url(#i)"/><path d="m68.265625 401.066406h17.066406v68.265625h-17.066406zm0 0" fill="url(#j)"/></svg>