<?xml version="1.0" encoding="iso-8859-1"?>
<!-- Generator: Adobe Illustrator 19.0.0, SVG Export Plug-In . SVG Version: 6.00 Build 0)  -->
<svg version="1.1" id="Capa_1" xmlns="http://www.w3.org/2000/svg" xmlns:xlink="http://www.w3.org/1999/xlink" x="0px" y="0px"
	 viewBox="0 0 512 512" style="enable-background:new 0 0 512 512;" xml:space="preserve">
<path style="fill:#E6E6E6;" d="M212.61,347.119h86.78c23.96,0,43.39,19.43,43.39,43.39V512H169.22V390.508
	C169.22,366.549,188.65,347.119,212.61,347.119z"/>
<g>
	<path style="fill:#0071BC;" d="M247.322,338.441h17.356v34.712h-17.356V338.441z"/>
	<path style="fill:#0071BC;" d="M247.322,381.831h17.356v95.458h-17.356V381.831z"/>
</g>
<g>
	<path style="fill:#ECC19C;" d="M247.322,216.949h17.356c23.96,0,43.39,19.43,43.39,43.39v43.39c0,23.96-19.43,43.39-43.39,43.39
		h-17.356c-23.96,0-43.39-19.43-43.39-43.39v-43.39C203.932,236.379,223.362,216.949,247.322,216.949z"/>
	<path style="fill:#ECC19C;" d="M264.678,355.797h-17.356c-28.741-0.026-52.042-23.326-52.068-52.068v-43.39
		c0.026-28.741,23.326-52.042,52.068-52.068h17.356c28.741,0.026,52.042,23.326,52.068,52.068v43.39
		C316.72,332.47,293.428,355.771,264.678,355.797z M247.322,225.627c-19.17,0-34.712,15.542-34.712,34.712v43.39
		c0,19.17,15.542,34.712,34.712,34.712h17.356c19.17,0,34.712-15.542,34.712-34.712v-43.39c0-19.17-15.542-34.712-34.712-34.712
		H247.322z"/>
</g>
<path style="fill:#06AAE9;" d="M117.153,8.678C54.853,8.678,4.339,59.184,4.339,121.483c0,62.308,50.506,112.814,112.805,112.822
	c29.922,0,58.62-11.889,79.785-33.046l-79.777-79.768L117.153,8.678z"/>
<path style="fill:#ED1C24;" d="M196.92,41.724C175.79,20.532,147.083,8.635,117.153,8.678v112.814L196.92,41.724z"/>
<path style="fill:#FBB03B;" d="M196.92,41.724l-79.768,79.768l79.768,79.768C240.978,157.201,240.978,85.782,196.92,41.724z"/>
<path style="fill:#FF0000;" d="M264.678,130.169h34.712v52.068h-34.712V130.169z"/>
<g>
	<path style="fill:#0071BC;" d="M334.102,104.136h34.712v78.102h-34.712V104.136z"/>
	<path style="fill:#0071BC;" d="M403.525,78.102h34.712v104.136h-34.712V78.102z"/>
	<path style="fill:#0071BC;" d="M472.949,8.678h34.712v173.559h-34.712V8.678z"/>
</g>
<g>
	<path style="fill:#FF0000;" d="M281.383,87.153c-3.037,0.035-6.083-0.113-9.103-0.443l-8.609-1.076l2.152-17.217l8.591,1.067
		c2.803,0.338,65.354,6.847,113.49-57.335l5.207-6.942l13.885,10.414l-5.207,6.942C358.018,80.931,302.904,87.153,281.383,87.153
		L281.383,87.153z"/>
	<path style="fill:#FF0000;" d="M412.203,52.068h-17.356V17.356h-34.712V0h43.39c4.79,0,8.678,3.888,8.678,8.678V52.068z"/>
</g>
<g>
	<path style="fill:#29485A;" d="M4.339,277.695h104.136v17.356H4.339V277.695z"/>
	<path style="fill:#29485A;" d="M4.339,312.407h104.136v17.356H4.339V312.407z"/>
	<path style="fill:#29485A;" d="M4.339,347.119h104.136v17.356H4.339V347.119z"/>
	<path style="fill:#29485A;" d="M4.339,381.831h60.746v17.356H4.339V381.831z"/>
	<path style="fill:#29485A;" d="M403.525,399.186h95.458v17.356h-95.458V399.186z"/>
	<path style="fill:#29485A;" d="M403.525,433.898h95.458v17.356h-95.458V433.898z"/>
	<path style="fill:#29485A;" d="M403.525,468.61h95.458v17.356h-95.458V468.61z"/>
</g>
<g>
</g>
<g>
</g>
<g>
</g>
<g>
</g>
<g>
</g>
<g>
</g>
<g>
</g>
<g>
</g>
<g>
</g>
<g>
</g>
<g>
</g>
<g>
</g>
<g>
</g>
<g>
</g>
<g>
</g>
</svg>
